<?xml version="1.0" encoding="iso-8859-1"?>
<!-- Generator: Adobe Illustrator 19.0.0, SVG Export Plug-In . SVG Version: 6.00 Build 0)  -->
<svg version="1.1" id="Capa_1" xmlns="http://www.w3.org/2000/svg" xmlns:xlink="http://www.w3.org/1999/xlink" x="0px" y="0px"
	 viewBox="0 0 512 512" style="enable-background:new 0 0 512 512;" xml:space="preserve">
<path style="fill:#EFEDEE;" d="M447.605,52.507H146.074c-23.263,0-42.121,18.858-42.121,42.121V462.38
	c0,23.263,18.858,42.121,42.121,42.121h301.531c23.263,0,42.121-18.858,42.121-42.121V94.627
	C489.726,71.365,470.868,52.507,447.605,52.507z"/>
<path style="fill:#D4D2D3;" d="M447.605,52.507H146.074c-23.263,0-42.121,18.858-42.121,42.121V462.38
	c0,8.113,2.299,15.686,6.273,22.114h292.372c37.01,0,67.121-30.11,67.121-67.121V58.779
	C463.291,54.806,455.718,52.507,447.605,52.507z"/>
<path style="fill:#42C3E2;" d="M402.599,7.5H101.067c-23.263,0-42.121,18.858-42.121,42.121v367.752
	c0,23.263,18.858,42.121,42.121,42.121h301.531c23.263,0,42.121-18.858,42.121-42.121V49.621
	C444.719,26.358,425.861,7.5,402.599,7.5z"/>
<path style="fill:#00A5C7;" d="M108.947,417.373V49.621c0-23.263,18.858-42.121,42.121-42.121h-50
	c-23.263,0-42.121,18.858-42.121,42.121v367.752c0,23.263,18.858,42.121,42.121,42.121h50
	C127.805,459.493,108.947,440.635,108.947,417.373z"/>
<g>
	<path style="fill:#3A484A;" d="M76.265,47.62H41.628c-10.69,0-19.356,8.666-19.356,19.356l0,0c0,10.69,8.666,19.356,19.356,19.356
		h34.637c10.69,0,19.356-8.666,19.356-19.356l0,0C95.621,56.286,86.955,47.62,76.265,47.62z"/>
	<path style="fill:#3A484A;" d="M76.265,129.386H41.628c-10.69,0-19.356,8.666-19.356,19.356l0,0
		c0,10.69,8.666,19.356,19.356,19.356h34.637c10.69,0,19.356-8.666,19.356-19.356l0,0C95.621,138.052,86.955,129.386,76.265,129.386
		z"/>
	<path style="fill:#3A484A;" d="M76.265,211.152H41.628c-10.69,0-19.356,8.666-19.356,19.356l0,0
		c0,10.69,8.666,19.356,19.356,19.356h34.637c10.69,0,19.356-8.666,19.356-19.356l0,0C95.621,219.817,86.955,211.152,76.265,211.152
		z"/>
	<path style="fill:#3A484A;" d="M76.265,292.917H41.628c-10.69,0-19.356,8.666-19.356,19.356l0,0
		c0,10.69,8.666,19.356,19.356,19.356h34.637c10.69,0,19.356-8.666,19.356-19.356l0,0C95.621,301.583,86.955,292.917,76.265,292.917
		z"/>
	<path style="fill:#3A484A;" d="M76.265,374.683H41.628c-10.69,0-19.356,8.666-19.356,19.356l0,0
		c0,10.69,8.666,19.356,19.356,19.356h34.637c10.69,0,19.356-8.666,19.356-19.356l0,0C95.621,383.349,86.955,374.683,76.265,374.683
		z"/>
</g>
<path d="M158.285,158.347v15.573c0,4.142,3.358,7.5,7.5,7.5s7.5-3.358,7.5-7.5v-15.573c0-4.142-3.358-7.5-7.5-7.5
	S158.285,154.205,158.285,158.347z"/>
<path d="M337.882,150.847c-4.142,0-7.5,3.358-7.5,7.5v15.573c0,4.142,3.358,7.5,7.5,7.5s7.5-3.358,7.5-7.5v-15.573
	C345.382,154.205,342.024,150.847,337.882,150.847z"/>
<path d="M267.424,167.901c-3.795,4.342-9.478,6.832-15.591,6.832s-11.795-2.49-15.591-6.833c-2.726-3.119-7.464-3.437-10.583-0.711
	c-3.119,2.726-3.437,7.464-0.711,10.583c6.644,7.601,16.443,11.961,26.885,11.961c10.442,0,20.241-4.359,26.885-11.96
	c2.726-3.119,2.408-7.857-0.711-10.583C274.889,164.465,270.151,164.782,267.424,167.901z"/>
<path d="M41.629,367.183c-14.808,0-26.855,12.047-26.855,26.856c0,14.808,12.047,26.855,26.855,26.855h9.958
	c1.711,24.262,20.931,43.756,45.074,45.893C98.9,492.089,120.2,512,146.074,512h301.531c27.361,0,49.621-22.26,49.621-49.621V94.627
	c0-25.875-19.91-47.175-45.213-49.414C449.774,19.911,428.474,0,402.599,0h-35.291c-4.142,0-7.5,3.358-7.5,7.5s3.358,7.5,7.5,7.5
	h35.291c19.09,0,34.621,15.531,34.621,34.621v367.752c0,19.09-15.531,34.621-34.621,34.621H174.818c-4.142,0-7.5,3.358-7.5,7.5
	s3.358,7.5,7.5,7.5h227.781c27.361,0,49.621-22.26,49.621-49.621V60.313c16.917,2.262,30.007,16.788,30.007,34.314v367.752
	c0,19.09-15.531,34.621-34.621,34.621H146.074c-17.526,0-32.052-13.09-34.314-30.007h33.057c4.142,0,7.5-3.358,7.5-7.5
	s-3.358-7.5-7.5-7.5h-43.75c-17.901,0-32.673-13.657-34.443-31.099h9.641c14.636,0,26.856-12.241,26.856-26.856
	c0-14.592-12.254-26.855-26.856-26.855h-9.818v-28.054h9.818c14.618,0,26.856-12.237,26.856-26.855
	c0-14.605-12.259-26.856-26.856-26.856h-9.818v-28.054h9.818c14.618,0,26.856-12.237,26.856-26.855
	c0-14.605-12.263-26.856-26.856-26.856h-9.818v-28.054h9.818c14.808,0,26.856-12.047,26.856-26.855s-12.047-26.855-26.856-26.855
	h-9.818V93.832h9.818c14.808,0,26.856-12.047,26.856-26.855S91.074,40.121,76.266,40.121h-8.504C71.886,25.542,85.262,15,101.068,15
	h236.24c4.142,0,7.5-3.358,7.5-7.5s-3.358-7.5-7.5-7.5h-236.24C76.956,0,56.791,17.124,52.359,40.121h-10.73
	c-14.808,0-26.855,12.047-26.855,26.855s12.047,26.855,26.855,26.855h9.819v28.055h-9.819c-14.808,0-26.855,12.047-26.855,26.855
	s12.047,26.855,26.855,26.855h9.819v28.054h-9.819c-14.808,0-26.855,12.048-26.855,26.856s12.047,26.855,26.855,26.855h9.819v28.054
	h-9.819c-14.808,0-26.855,12.048-26.855,26.856s12.047,26.855,26.855,26.855h9.819v28.054h-9.819V367.183z M29.773,66.976
	c0-6.537,5.318-11.855,11.855-11.855h34.637c6.537,0,11.855,5.318,11.855,11.855s-5.318,11.855-11.855,11.855H41.629
	C35.092,78.832,29.773,73.513,29.773,66.976z M29.773,148.742c0-6.537,5.318-11.855,11.855-11.855h34.637
	c6.537,0,11.855,5.318,11.855,11.855s-5.318,11.855-11.855,11.855H41.629C35.092,160.597,29.773,155.279,29.773,148.742z
	 M29.773,230.507c0-6.538,5.318-11.856,11.855-11.856c0,0,34.632,0,34.637,0c6.384,0,11.855,5.363,11.855,11.856
	c0,6.413-5.451,11.856-11.855,11.856H41.629C35.092,242.363,29.773,237.044,29.773,230.507z M29.773,312.273
	c0-6.538,5.318-11.856,11.855-11.856h34.637c6.458,0,11.855,5.403,11.855,11.856c0,6.384-5.464,11.856-11.855,11.856H41.629
	C35.092,324.128,29.773,318.81,29.773,312.273z M29.773,394.038c0-6.537,5.318-11.855,11.855-11.855h34.637
	c6.452,0,11.855,5.416,11.855,11.856c0,6.446-5.413,11.855-11.855,11.855H41.629C35.092,405.894,29.773,400.576,29.773,394.038z"/>
<g>
</g>
<g>
</g>
<g>
</g>
<g>
</g>
<g>
</g>
<g>
</g>
<g>
</g>
<g>
</g>
<g>
</g>
<g>
</g>
<g>
</g>
<g>
</g>
<g>
</g>
<g>
</g>
<g>
</g>
</svg>
