<svg id="Capa_1" enable-background="new 0 0 512 512" height="512" viewBox="0 0 512 512" width="512" xmlns="http://www.w3.org/2000/svg"><g><g><g><path d="m120.34 374.769h64.724c4.134 0 7.485-3.351 7.485-7.485s-3.351-7.485-7.485-7.485h-64.724c-4.134 0-7.485 3.351-7.485 7.485s3.351 7.485 7.485 7.485z"/><path d="m223.305 390.917h-102.965c-4.134 0-7.485 3.351-7.485 7.485s3.351 7.485 7.485 7.485h102.965c4.134 0 7.485-3.351 7.485-7.485s-3.351-7.485-7.485-7.485z"/><path d="m412.041 48.553c-35.698 0-67.079 18.814-84.765 47.043h-10.076l-14.453-36.464c-3.392-8.557-11.531-14.085-20.735-14.085h-223.739c-12.298 0-22.304 10.005-22.304 22.303v20.912c0 4.044-3.29 7.333-7.333 7.333h-1.367c-15.036.001-27.269 12.234-27.269 27.271v106.32c0 4.134 3.351 7.485 7.485 7.485s7.485-3.351 7.485-7.485v-106.32c0-6.782 5.517-12.299 12.299-12.299h1.367c12.298 0 22.303-10.005 22.303-22.303v-20.913c0-4.044 3.29-7.333 7.333-7.333h104.743c3.026 0 5.702 1.818 6.817 4.631l12.618 31.832c3.392 8.557 11.53 14.085 20.734 14.085h108.929 7.456c-3.917 9.511-6.413 19.752-7.209 30.46h-218.823c-15.036 0-27.269 12.233-27.269 27.269v258.038c0 14.143-11.506 25.649-25.649 25.649h-.003c-14.141 0-25.646-11.505-25.646-25.646v-163.054c0-4.134-3.351-7.485-7.485-7.485s-7.485 3.351-7.485 7.485v163.054c0 22.396 18.22 40.616 40.616 40.616h.003 421.547c15.036 0 27.269-12.233 27.269-27.269v-227.984c14.096-17.233 22.565-39.239 22.565-63.188 0-55.117-44.842-99.958-99.959-99.958zm-208.855 47.043c-3.026 0-5.702-1.818-6.817-4.631l-12.267-30.947h97.911c3.027 0 5.702 1.818 6.817 4.631l12.267 30.948h-97.911zm271.279 344.088c0 6.781-5.517 12.299-12.299 12.299h-390.072c5.714-6.999 9.144-15.93 9.144-25.649v-258.038c0-6.782 5.517-12.299 12.299-12.299h218.825c3.841 51.635 47.079 92.474 99.678 92.474 23.597 0 45.306-8.224 62.424-21.95v213.163zm-62.424-206.184c-46.862 0-84.988-38.126-84.988-84.989s38.126-84.989 84.988-84.989c46.863 0 84.989 38.126 84.989 84.989s-38.126 84.989-84.989 84.989z"/><path d="m470.031 113.828c-5.641-11.109-16.795-18.485-29.109-19.25-11.255-.691-21.865 4.082-28.882 12.223-7.017-8.142-17.62-12.916-28.882-12.223-12.313.764-23.468 8.14-29.109 19.249-9.191 18.098-4.14 39.7 12.567 53.753l38.518 32.413c2.001 1.684 4.453 2.526 6.906 2.525 2.453 0 4.906-.841 6.907-2.526l37.548-31.596c3.163-2.662 3.569-7.383.907-10.546-2.661-3.164-7.384-3.57-10.546-.908l-34.816 29.298-35.786-30.115c-11.449-9.629-14.924-23.572-8.856-35.52 3.201-6.303 9.751-10.655 16.688-11.085 9.501-.6 18.233 5.624 20.733 14.778.89 3.255 3.847 5.512 7.221 5.512s6.331-2.258 7.221-5.512c2.501-9.154 11.229-15.376 20.733-14.778 6.937.43 13.488 4.782 16.688 11.085 1.939 3.817 2.936 7.822 2.965 11.902.029 4.116 3.375 7.432 7.484 7.432h.055c4.133-.03 7.461-3.404 7.431-7.538-.045-6.421-1.588-12.67-4.586-18.573z"/></g></g></g></svg>