<svg id="Capa_1" enable-background="new 0 0 512 512" height="512" viewBox="0 0 512 512" width="512" xmlns="http://www.w3.org/2000/svg"><g><g><path d="m120.34 374.769h64.725c4.134 0 7.485-3.351 7.485-7.485s-3.351-7.485-7.485-7.485h-64.725c-4.134 0-7.485 3.351-7.485 7.485s3.351 7.485 7.485 7.485z"/><path d="m120.34 405.887h102.965c4.134 0 7.485-3.351 7.485-7.485s-3.351-7.485-7.485-7.485h-102.965c-4.134 0-7.485 3.351-7.485 7.485s3.351 7.485 7.485 7.485z"/><path d="m412.041 48.553c-35.698 0-67.079 18.814-84.764 47.044h-10.077l-14.454-36.465c-3.392-8.556-11.53-14.084-20.734-14.084h-223.739c-12.298 0-22.304 10.005-22.304 22.303v20.912c0 4.044-3.29 7.333-7.333 7.333h-1.367c-15.036 0-27.269 12.233-27.269 27.269v303.471c0 10.462 4.064 20.502 11.665 27.743 3.938 3.752 8.637 6.648 13.661 8.706 7.098 2.908 14.862 4.166 22.528 4.166h117.638c4.134 0 7.485-3.351 7.485-7.485s-3.351-7.485-7.485-7.485h-93.404c5.715-6.999 9.151-15.929 9.151-25.649v-258.036c0-6.782 5.517-12.299 12.299-12.299h218.825c3.841 51.635 47.08 92.474 99.679 92.474 23.597 0 45.307-8.224 62.424-21.95v213.164c0 6.781-5.517 12.299-12.299 12.299h-261.699c-4.134 0-7.485 3.351-7.485 7.485s3.351 7.485 7.485 7.485h261.699c15.036 0 27.269-12.233 27.269-27.269v-227.987c14.095-17.233 22.564-39.239 22.564-63.187 0-55.117-44.841-99.958-99.959-99.958zm-130.028 11.465c3.026 0 5.702 1.818 6.817 4.631l12.267 30.948h-97.911c-3.026 0-5.702-1.818-6.817-4.631l-12.267-30.947h97.911zm30.349 81.008h-218.825c-15.036 0-27.269 12.233-27.269 27.269v258.038c0 13.142-9.937 24.001-22.691 25.473-17.281-1.393-28.607-11.272-28.607-25.47v-303.471c0-6.782 5.517-12.299 12.299-12.299h1.367c12.298 0 22.303-10.005 22.303-22.303v-20.912c0-4.044 3.29-7.333 7.333-7.333h104.744c3.026 0 5.702 1.818 6.817 4.631l12.618 31.832c3.392 8.557 11.53 14.085 20.734 14.085h116.386c-3.917 9.512-6.412 19.753-7.209 30.46zm99.679 92.474c-46.863 0-84.989-38.126-84.989-84.989s38.126-84.989 84.989-84.989 84.989 38.126 84.989 84.989-38.126 84.989-84.989 84.989z"/><path d="m447.247 98.801c-5.992.272-11.519 2.862-15.564 7.291l-32.647 35.756-6.126-7.192c-8.032-9.425-22.234-10.559-31.655-2.531-9.425 8.029-10.561 22.23-2.532 31.655l22.636 26.572c4.178 4.903 10.268 7.779 16.709 7.889l.385.003c6.295 0 12.339-2.666 16.583-7.314l18.151-19.88c2.787-3.053 2.572-7.787-.48-10.574s-7.787-2.572-10.575.48l-18.151 19.88c-1.415 1.549-3.429 2.438-5.528 2.438l-.129-.001c-2.147-.037-4.177-.996-5.569-2.63l-22.635-26.571c-2.676-3.142-2.298-7.875.845-10.552 3.141-2.676 7.874-2.297 10.552.844l11.628 13.651c1.393 1.635 3.421 2.594 5.569 2.63 2.139.014 4.208-.851 5.656-2.437l38.37-42.023c1.348-1.477 3.19-2.34 5.188-2.43 1.996-.097 3.91.602 5.387 1.949 3.048 2.783 3.263 7.527.48 10.575l-7.963 8.721c-2.787 3.053-2.572 7.787.481 10.574s7.787 2.572 10.575-.48l7.963-8.721c8.348-9.144 7.701-23.375-1.441-31.724-4.433-4.043-10.179-6.116-16.163-5.848z"/></g></g></svg>