<svg id="Capa_1" enable-background="new 0 0 512 512" height="512" viewBox="0 0 512 512" width="512" xmlns="http://www.w3.org/2000/svg"><g><path d="m491.142 259.543h-8.036v-9.95c0-11.568-9.357-20.979-20.858-20.979h-67.227l-9.145-23.28c-2.658-6.764-9.049-11.135-16.284-11.135h-34.446v-22.432c0-4.147-3.362-7.51-7.51-7.51s-7.51 3.363-7.51 7.51v22.432h-101.492c-9.654 0-17.508 7.895-17.508 17.599v14.237c0 1.422-1.116 2.579-2.488 2.579h-.923c-11.501 0-20.858 9.411-20.858 20.979v53.189h-121.141c2.553-4.428 4.016-9.57 4.016-15.048v-175.679c0-3.286 2.619-5.959 5.838-5.959h248.716c3.219 0 5.839 2.674 5.839 5.959v25.369c0 4.148 3.362 7.51 7.51 7.51s7.51-3.362 7.51-7.51v-25.369c0-11.568-9.357-20.979-20.859-20.979h-8.036v-9.951c0-11.568-9.357-20.979-20.858-20.979h-67.227l-9.145-23.279c-2.657-6.764-9.049-11.135-16.284-11.135h-150.959c-9.654 0-17.508 7.895-17.508 17.599v14.237c0 1.422-1.116 2.579-2.488 2.579h-.922c-11.502-.001-20.859 9.411-20.859 20.979v206.609c0 16.578 13.397 30.066 29.864 30.066h.002 146.991v17.961h-10.591c-8.835 0-16.022 7.188-16.022 16.022v34.642c0 8.835 7.188 16.022 16.022 16.022h10.591v53.752c0 16.579 13.397 30.066 29.864 30.066h284.422c11.501 0 20.858-9.411 20.858-20.98v-184.764c-.001-11.568-9.358-20.979-20.859-20.979zm-298.407-218.791c1.016 0 1.921.631 2.304 1.607l6.987 17.787h-62.476c-1.017 0-1.921-.631-2.304-1.607l-6.988-17.788h62.477zm-148.023 71.303v175.677c0 8.298-6.66 15.048-14.846 15.048h-.002c-8.185 0-14.844-6.75-14.844-15.046v-206.608c0-3.286 2.619-5.96 5.838-5.96h.922c9.654 0 17.508-7.895 17.508-17.599v-14.237c0-1.422 1.116-2.579 2.488-2.579h70.671c1.016 0 1.921.631 2.304 1.607l8.514 21.673c2.657 6.764 9.049 11.135 16.284 11.135h145.842c3.219 0 5.838 2.674 5.838 5.959v9.951h-225.659c-11.501 0-20.858 9.411-20.858 20.979zm324.879 97.163c1.016 0 1.922.631 2.305 1.607l6.988 17.788h-62.479c-1.016 0-1.92-.63-2.303-1.607l-6.987-17.788zm-177.715 40.375c0-3.286 2.619-5.959 5.838-5.959h.923c9.654 0 17.508-7.895 17.508-17.599v-14.237c0-1.422 1.116-2.579 2.488-2.579h70.672c1.017 0 1.922.631 2.305 1.607l8.512 21.672c2.657 6.765 9.048 11.136 16.284 11.136h145.842c3.219 0 5.838 2.674 5.838 5.959v9.95h-225.66c-11.501 0-20.858 9.412-20.858 20.98v55.24h-29.692zm29.692 206.607c0 8.297-6.659 15.048-14.845 15.048h-.003c-8.185 0-14.844-6.75-14.844-15.046v-53.752h29.692zm275.412 9.089c0 3.286-2.619 5.96-5.838 5.96h-258.57c2.553-4.428 4.016-9.57 4.016-15.048v-53.75h18.883v11.533c0 6.38 3.524 12.154 9.198 15.071 2.456 1.262 5.113 1.886 7.757 1.886 3.466 0 6.909-1.07 9.851-3.175l62.721-44.877c4.437-3.174 7.085-8.326 7.085-13.781s-2.648-10.607-7.085-13.782l-22.703-16.244c-3.372-2.412-8.063-1.635-10.478 1.738-2.413 3.373-1.635 8.064 1.738 10.478l22.703 16.244c.665.476.805 1.115.805 1.567s-.14 1.09-.805 1.566l-62.72 44.878c-.789.564-1.525.391-2.001.146-.477-.245-1.045-.741-1.045-1.713v-13.219c0-7.353-5.982-13.335-13.334-13.335h-90.892c-.552 0-1.002-.45-1.002-1.002v-34.642c0-.552.45-1.002 1.002-1.002h90.892c7.353 0 13.334-5.982 13.334-13.335v-13.219c0-.971.568-1.468 1.045-1.713.475-.245 1.211-.42 2.001.147l11.553 8.266c3.374 2.413 8.065 1.635 10.478-1.738s1.635-8.064-1.738-10.478l-11.554-8.266c-5.19-3.713-11.938-4.206-17.608-1.289-5.674 2.917-9.198 8.692-9.198 15.071v11.533h-18.883v-55.24c0-3.286 2.619-5.96 5.838-5.96h248.716c3.219 0 5.838 2.673 5.838 5.96z"/></g></svg>