<svg id="Capa_1" enable-background="new 0 0 512 512" height="512" viewBox="0 0 512 512" width="512" xmlns="http://www.w3.org/2000/svg"><g><g><path d="m117.729 337.952h63.228c4.134 0 7.485-3.351 7.485-7.485s-3.351-7.485-7.485-7.485h-63.228c-4.134 0-7.485 3.351-7.485 7.485s3.35 7.485 7.485 7.485z"/><path d="m218.312 353.379h-100.583c-4.134 0-7.485 3.351-7.485 7.485s3.351 7.485 7.485 7.485h100.583c4.134 0 7.485-3.351 7.485-7.485s-3.351-7.485-7.485-7.485z"/><path d="m478.46 326.823v-190.742c0-14.784-12.028-26.811-26.812-26.811h-15.024v-17.569c0-14.784-12.027-26.811-26.81-26.811h-99.661l-14.076-35.511c-3.34-8.424-11.353-13.868-20.416-13.868h-218.564c-12.109 0-21.96 9.851-21.96 21.96v20.429c0 3.855-3.136 6.991-6.991 6.991h-1.336c-14.782 0-26.81 12.027-26.81 26.811v296.451c0 21.973 17.876 39.85 39.85 39.85h283.191c12.055 39.594 48.913 68.487 92.396 68.487 36.902 0 70.046-20.536 86.498-53.594 1.841-3.701.334-8.195-3.366-10.036-3.703-1.841-8.194-.335-10.036 3.366-13.904 27.938-41.912 45.294-73.095 45.294-44.991 0-81.594-36.603-81.594-81.594s36.603-81.594 81.594-81.594 81.593 36.603 81.593 81.594c0 1.904-.065 3.821-.195 5.698-.284 4.124 2.829 7.698 6.953 7.982 4.13.278 7.698-2.828 7.982-6.953.153-2.218.23-4.481.23-6.726-.001-29.184-13.014-55.383-33.541-73.104zm-202.798-296.342c2.885 0 5.436 1.733 6.499 4.414l11.89 29.995h-95.393c-2.885 0-5.435-1.733-6.498-4.415l-11.89-29.995h95.392zm187.828 285.708c-14.16-8.158-30.571-12.828-48.053-12.828-53.246 0-96.564 43.318-96.564 96.563 0 4.445.309 8.82.893 13.107h-248.804c5.469-6.824 8.743-15.478 8.743-24.883v-183.768c0-4.134-3.351-7.485-7.485-7.485s-7.485 3.351-7.485 7.485v183.77c0 13.72-11.162 24.883-24.883 24.883h-.002c-13.719 0-24.88-11.161-24.88-24.88v-296.451c0-6.529 5.312-11.841 11.841-11.841h1.336c12.109 0 21.961-9.852 21.961-21.961v-20.429c0-3.854 3.135-6.99 6.99-6.99h102.321c2.885 0 5.435 1.733 6.498 4.414l12.327 31.096c3.339 8.425 11.352 13.869 20.415 13.869h211.156c6.529 0 11.84 5.312 11.84 11.841v17.568h-330.108c-14.784 0-26.811 12.028-26.811 26.811v33.368c0 4.134 3.351 7.485 7.485 7.485s7.485-3.351 7.485-7.485v-33.368c0-6.529 5.312-11.841 11.841-11.841h360.102c6.53 0 11.842 5.312 11.842 11.841v180.109z"/><path d="m437.795 390.644c2.924-2.922 2.926-7.661.004-10.585-2.923-2.925-7.661-2.926-10.586-.004l-37.792 37.766c-3.678 3.676-5.703 8.563-5.703 13.761s2.025 10.086 5.704 13.762c3.794 3.791 8.778 5.687 13.763 5.687 4.984 0 9.969-1.896 13.764-5.687l42.903-42.873c5.941-5.937 9.213-13.831 9.213-22.228s-3.272-16.292-9.213-22.229c-12.263-12.253-32.214-12.253-44.474 0l-51.376 51.34c-2.924 2.922-2.926 7.661-.004 10.585 2.924 2.925 7.662 2.925 10.586.004l51.376-51.34c6.427-6.423 16.883-6.422 23.31 0 3.112 3.109 4.825 7.243 4.825 11.639s-1.713 8.53-4.825 11.639l-42.902 42.873c-1.756 1.755-4.611 1.753-6.365.001-.848-.848-1.316-1.975-1.316-3.173s.468-2.325 1.316-3.172z"/></g></g></svg>