<svg id="Capa_1" enable-background="new 0 0 512 512" height="512" viewBox="0 0 512 512" width="512" xmlns="http://www.w3.org/2000/svg"><g><g><path d="m129.321 331.805h61.776c4.137 0 7.489-3.353 7.489-7.489s-3.353-7.489-7.489-7.489h-61.776c-4.137 0-7.489 3.353-7.489 7.489s3.353 7.489 7.489 7.489z"/><path d="m215.613 346.526h-98.274c-4.137 0-7.489 3.353-7.489 7.489s3.353 7.489 7.489 7.489h98.274c4.137 0 7.489-3.353 7.489-7.489s-3.353-7.489-7.489-7.489z"/><path d="m504.404 347.62c-1.611-3.811-6.004-5.592-9.815-3.981-3.809 1.612-5.592 6.006-3.979 9.815 4.255 10.06 6.412 20.75 6.412 31.776 0 45.016-36.623 81.64-81.64 81.64s-81.641-36.624-81.641-81.64c0-45.017 36.624-81.64 81.641-81.64 21.807 0 42.308 8.492 57.728 23.911 2.926 2.925 7.667 2.925 10.592 0s2.925-7.667 0-10.591c-9.116-9.116-19.732-16.185-31.292-20.979l26.426-153.945c.072-.419.108-.843.108-1.267 0-13.843-11.262-25.105-25.105-25.105h-54.51v-15.348c0-13.843-11.262-25.105-25.105-25.105h-90.39l-12.665-31.95c-3.146-7.934-10.694-13.061-19.228-13.061h-199.227c-11.406 0-20.684 9.279-20.684 20.684v18.621c0 3.146-2.56 5.706-5.706 5.706h-1.217c-13.845.001-25.107 11.263-25.107 25.106v270.223c0 20.397 16.593 36.99 36.99 36.99h.003 284.36c10.076 42.585 48.408 74.369 94.029 74.369 53.275 0 96.618-43.343 96.618-96.619 0-13.04-2.555-25.694-7.596-37.61zm-252.465-302.491c2.354 0 4.437 1.414 5.304 3.603l10.476 26.429h-85.97c-2.355 0-4.437-1.414-5.304-3.603l-10.477-26.429zm67.096 347.373h-252.881c1.75-2.516 3.297-5.34 4.63-8.463 1.556-3.642 2.695-7.557 3.483-11.968l30.301-169.662c.728-4.072-1.984-7.962-6.056-8.69-4.068-.724-7.961 1.985-8.689 6.056l-30.3 169.661c-.586 3.28-1.408 6.132-2.513 8.718-4.18 9.789-10.541 14.348-20.017 14.348h-.003c-12.137 0-22.011-9.875-22.011-22.012v-270.223c0-5.584 4.543-10.127 10.127-10.127h1.217c11.406 0 20.684-9.279 20.684-20.684v-18.621c0-3.146 2.56-5.706 5.706-5.706h93.268c2.355 0 4.437 1.414 5.304 3.603l11.236 28.344c3.145 7.935 10.693 13.063 19.229 13.063h192.474c5.584 0 10.127 4.543 10.127 10.127v15.348h-258.755c-12.747 0-23.468 9.538-24.938 22.188l-4.664 27.426c-.728 4.072 1.983 7.962 6.056 8.69 4.071.727 7.961-1.984 8.689-6.056l4.799-28.333c.592-5.095 4.916-8.937 10.059-8.937h328.242c5.399 0 9.825 4.247 10.112 9.575l-25.938 151.101c-7.326-1.75-14.908-2.657-22.631-2.657-53.276 0-96.619 43.343-96.619 96.619-.001 2.447.093 4.871.272 7.272z"/><path d="m454.11 399.208c-.122-4.134-3.544-7.408-7.706-7.267-4.135.121-7.388 3.571-7.267 7.705l.782 26.708c.069 2.365 1.252 4.558 3.19 5.915 1.757 1.231 4.503 1.685 6.65.975l25.366-8.398c3.926-1.3 6.056-5.537 4.756-9.464-1.301-3.927-5.537-6.055-9.464-4.756l-3.869 1.281c4.374-8.271 6.746-17.561 6.746-27.11 0-31.983-26.021-58.004-58.005-58.004s-58.004 26.02-58.004 58.004c0 19.299 9.559 37.278 25.569 48.094 1.285.868 2.743 1.284 4.185 1.284 2.404 0 4.766-1.156 6.213-3.298 2.315-3.427 1.414-8.083-2.014-10.398-11.882-8.027-18.975-21.365-18.975-35.682 0-23.724 19.302-43.025 43.025-43.025 23.725 0 43.026 19.301 43.026 43.025 0 6.386-1.435 12.614-4.093 18.276z"/></g></g></svg>