<svg id="Capa_1" enable-background="new 0 0 512 512" height="512" viewBox="0 0 512 512" width="512" xmlns="http://www.w3.org/2000/svg"><g><g><path d="m455.1 291.9 23.7-138c.1-.4.1-.8.1-1.3 0-13.8-11.3-25.1-25.1-25.1h-41.4l51-64.8c6.5-8.3 7.7-19.4 3.1-28.9s-14.1-15.4-24.7-15.4c-8.5 0-16.3 3.8-21.6 10.5l-45.8 58.1c-.1 0-.1 0-.2 0h-90.4l-12.7-31.9c-3.1-7.9-10.6-13.1-19.2-13.1h-199.2c-11.4 0-20.7 9.3-20.7 20.7v18.6c0 3.1-2.6 5.7-5.7 5.7h-1.2c-13.8 0-25.1 11.3-25.1 25.1v270.2c0 20.4 16.6 37 37 37h76.1l-19 24.2c-6.5 8.3-7.7 19.4-3.1 28.9s14.1 15.4 24.7 15.4c8.5 0 16.3-3.8 21.6-10.5l45.7-58.1h119.8c3.1 9.6 7.5 18.7 13.2 27.1 2.3 3.4 7 4.3 10.4 2s4.3-7 2-10.4c-10.3-15.2-15.7-33.1-15.7-51.6 0-50.9 41.4-92.2 92.2-92.2 50.9 0 92.2 41.4 92.2 92.2s-41.4 92.2-92.2 92.2c-19.7 0-38.5-6.1-54.4-17.7-3.3-2.4-8-1.7-10.5 1.6-2.4 3.3-1.7 8 1.6 10.5 18.4 13.5 40.3 20.6 63.2 20.6 59.1 0 107.2-48.1 107.2-107.2 0-40.7-23.1-76.4-56.9-94.4zm-203.2-234.9c2.4 0 4.4 1.4 5.3 3.6l10.5 26.4h-86c-2.4 0-4.4-1.4-5.3-3.6l-10.4-26.4zm-194.9 333c-4.2 9.8-10.5 14.3-20 14.3-12.1 0-22-9.9-22-22v-270.2c0-5.6 4.5-10.1 10.1-10.1h1.2c11.4 0 20.7-9.3 20.7-20.7v-18.6c0-3.1 2.6-5.7 5.7-5.7h93.3c2.4 0 4.4 1.4 5.3 3.6l11.2 28.4c3.1 7.9 10.7 13.1 19.2 13.1h180.9l-20 25.5h-217c-12.7 0-23.5 9.5-24.9 22.2l-41.2 231.5c-.6 3.3-1.4 6.1-2.5 8.7zm68.5 78.2c-2.4 3-5.9 4.8-9.8 4.8-4.9 0-9.1-2.6-11.2-7s-1.6-9.3 1.4-13.1l196.2-249.5c2.6-3.3 2-8-1.3-10.5-3.3-2.6-8-2-10.5 1.3l-165.4 210.2h-58.7c1.7-2.5 3.3-5.3 4.6-8.5 1.6-3.6 2.7-7.6 3.5-12l41.3-232.5c.6-5.1 4.9-8.9 10.1-8.9h205.2l-18.9 24c-2.6 3.3-2 8 1.3 10.5 3.3 2.6 8 2 10.5-1.3l108.2-137.7c2.4-3 5.9-4.8 9.8-4.8 4.9 0 9.1 2.6 11.2 7s1.6 9.3-1.4 13.1zm279.3-188.9c-59.1 0-107.2 48.1-107.2 107.2 0 6 .5 12 1.5 17.9h-104.4l205.9-261.9h53.2c5.4 0 9.8 4.2 10.1 9.6l-22.9 133.5c-11.3-4.1-23.5-6.3-36.2-6.3z"/><path d="m358.8 418.7c4.1 0 7.5-3.4 7.5-7.5v-7.9c3.7-.4 6.6-3.6 6.6-7.4 0-3.9-2.9-7-6.6-7.4 0 0 0-26.1 0-26.3-.4-4.8-3.3-8.8-7.5-10-4.1-1.3-8.5.3-11.7 4.1-3 3.6-15.6 26.4-20.9 36-1.3 2.3-1.2 5.1.1 7.4s3.8 3.7 6.4 3.7h18.6v7.9c0 4.1 3.4 7.4 7.5 7.4zm-13.3-30.3c2-3.6 4-7.1 5.8-10.3v10.3z"/><path d="m470.2 418.7c4.1 0 7.5-3.4 7.5-7.5v-7.9c3.7-.4 6.6-3.6 6.6-7.4 0-3.9-2.9-7-6.6-7.4 0 0 0-26.1 0-26.3-.4-4.8-3.3-8.8-7.5-10-4.1-1.3-8.5.3-11.7 4.1-3 3.6-15.6 26.4-20.9 36-1.3 2.3-1.2 5.1.1 7.4s3.8 3.7 6.4 3.7h18.6v7.9c0 4.1 3.3 7.4 7.5 7.4zm-13.3-30.3c2-3.6 4-7.1 5.8-10.3v10.3z"/><path d="m427.7 398.8v-24.1c0-12.4-10.1-22.5-22.5-22.5s-22.5 10.1-22.5 22.5v24.1c0 12.4 10.1 22.5 22.5 22.5 12.3 0 22.5-10.1 22.5-22.5zm-30.1 0v-24.1c0-4.2 3.4-7.6 7.6-7.6s7.6 3.4 7.6 7.6v24.1c0 4.2-3.4 7.6-7.6 7.6-4.3-.1-7.6-3.4-7.6-7.6z"/></g></g></svg>