<svg id="Capa_1" enable-background="new 0 0 512 512" height="512" viewBox="0 0 512 512" width="512" xmlns="http://www.w3.org/2000/svg"><g><g><path d="m117.704 360.211h63.214c4.133 0 7.483-3.351 7.483-7.483 0-4.133-3.35-7.483-7.483-7.483h-63.214c-4.133 0-7.483 3.35-7.483 7.483s3.35 7.483 7.483 7.483z"/><path d="m218.266 375.635h-100.562c-4.133 0-7.483 3.35-7.483 7.483s3.35 7.483 7.483 7.483h100.562c4.133 0 7.483-3.35 7.483-7.483s-3.35-7.483-7.483-7.483z"/><path d="m502.165 335.196v-39.172c0-23.072-9.06-44.066-23.806-59.617v-78.024c0-14.781-12.025-26.806-26.806-26.806h-15.02v-17.565c0-14.781-12.025-26.805-26.805-26.805h-48.217c-4.133 0-7.483 3.35-7.483 7.483s3.351 7.483 7.483 7.483h48.217c6.528 0 11.839 5.31 11.839 11.838v17.565h-330.04c-14.781 0-26.805 12.025-26.805 26.806v252.015c0 13.718-11.16 24.877-24.877 24.877h-.003c-13.716 0-24.874-11.159-24.874-24.875v-296.386c0-6.528 5.31-11.839 11.839-11.839h1.335c12.106 0 21.956-9.85 21.956-21.956v-20.424c0-3.854 3.136-6.989 6.989-6.989h102.299c2.884 0 5.435 1.733 6.497 4.414l12.323 31.09c3.339 8.423 11.351 13.866 20.411 13.866h128.376c4.133 0 7.483-3.351 7.483-7.483 0-4.133-3.35-7.483-7.483-7.483h-16.905l-14.073-35.504c-3.338-8.423-11.35-13.865-20.411-13.865h-218.518c-12.107 0-21.956 9.849-21.956 21.956v20.424c0 3.854-3.135 6.99-6.989 6.99h-1.335c-14.781-.002-26.806 12.023-26.806 26.803v296.388c0 21.968 17.872 39.841 39.841 39.841h.003 312.076c16.991 14.884 39.228 23.919 63.537 23.919 22.815 0 44.957-8.107 62.346-22.828 3.155-2.67 3.547-7.392.876-10.546-2.669-3.154-7.392-3.547-10.546-.876-14.69 12.436-33.398 19.284-52.676 19.284-44.981 0-81.576-36.595-81.576-81.576s36.595-81.576 81.576-81.576 81.576 36.595 81.576 81.576c0 13.204-3.054 25.8-9.078 37.439-1.9 3.671-.464 8.186 3.206 10.086 3.672 1.901 8.186.464 10.086-3.206 7.035-13.593 10.753-28.918 10.753-44.32 0-15.211-3.541-29.61-9.835-42.422zm-226.561-282.391c2.884 0 5.435 1.733 6.497 4.414l11.887 29.989h-95.371c-2.884 0-5.435-1.733-6.498-4.414l-11.887-29.988h95.372zm62.464 382.471h-267.121c5.468-6.822 8.742-15.474 8.742-24.877v-252.016c0-6.528 5.311-11.839 11.839-11.839h360.026c6.528 0 11.839 5.311 11.839 11.839v65.425c-13.74-9.151-30.225-14.492-47.935-14.492-47.811 0-86.708 38.897-86.708 86.708v39.172c-6.294 12.812-9.835 27.21-9.835 42.422-.001 21.596 7.127 41.558 19.153 57.658zm77.389-154.201c-14.812 0-28.853 3.357-41.409 9.344 2.749-20.409 20.259-36.202 41.409-36.202 21.153 0 38.675 15.795 41.422 36.208-12.56-5.991-26.605-9.35-41.422-9.35zm71.741 32.011c-4.503-5.001-9.52-9.527-14.967-13.501v-3.561c0-31.305-25.469-56.774-56.774-56.774s-56.774 25.469-56.774 56.774v3.561c-5.446 3.974-10.464 8.5-14.967 13.501v-17.061c0-39.558 32.183-71.741 71.741-71.741s71.741 32.183 71.741 71.741z"/><path d="m415.102 422.231c.12.002.24.003.36.003 5.047 0 9.795-1.939 13.404-5.482 3.695-3.629 5.73-8.479 5.73-13.658v-14.025c0-.341.115-.561.169-.614 5.452-5.277 8.455-12.355 8.455-19.93 0-7.586-3.159-14.931-8.666-20.152-5.585-5.294-12.904-7.984-20.612-7.572-14.659.784-26.189 12.911-26.249 27.607-.031 7.477 2.875 14.502 8.184 19.781.271.269.439.58.439.812v13.705c.001 10.578 8.428 19.336 18.786 19.525zm-.36-66.483c.239-.013.477-.019.714-.019 3.298 0 6.401 1.231 8.802 3.507 2.577 2.442 3.996 5.741 3.996 9.289 0 3.485-1.384 6.743-3.898 9.176-3.004 2.908-4.726 7.051-4.726 11.367v14.025c0 1.129-.444 2.187-1.25 2.978-.805.791-1.881 1.222-3.005 1.195-2.218-.041-4.092-2.129-4.092-4.559v-13.705c0-4.256-1.723-8.313-4.852-11.424-2.446-2.433-3.785-5.667-3.771-9.107.028-6.661 5.447-12.368 12.082-12.723z"/></g></g></svg>