<svg id="Capa_1" enable-background="new 0 0 512 512" height="512" viewBox="0 0 512 512" width="512" xmlns="http://www.w3.org/2000/svg"><g><g><path d="m129.179 345.744h61.707c4.132 0 7.481-3.349 7.481-7.481s-3.349-7.481-7.481-7.481h-61.707c-4.132 0-7.481 3.349-7.481 7.481s3.35 7.481 7.481 7.481z"/><path d="m215.375 360.449h-98.165c-4.132 0-7.481 3.349-7.481 7.481s3.349 7.481 7.481 7.481h98.165c4.132 0 7.481-3.349 7.481-7.481s-3.35-7.481-7.481-7.481z"/><path d="m459.346 266.591 18.961-110.455c.072-.418.108-.842.108-1.266 0-13.828-11.25-25.078-25.078-25.078h-54.45v-15.331c0-13.828-11.25-25.078-25.078-25.078h-90.291l-12.65-31.913c-3.141-7.927-10.681-13.048-19.208-13.048h-155.323c-4.132 0-7.481 3.349-7.481 7.481s3.349 7.481 7.481 7.481h49.482c2.352 0 4.432 1.413 5.299 3.599l11.223 28.314c3.142 7.926 10.681 13.048 19.208 13.048h192.261c5.578 0 10.116 4.538 10.116 10.116v15.331h-258.468c-12.733 0-23.442 9.528-24.909 22.163l-41.092 231.379c-.585 3.278-1.406 6.126-2.509 8.708-4.175 9.778-10.529 14.332-19.995 14.332h-.003c-12.124 0-21.988-9.864-21.988-21.988v-269.924c0-5.578 4.538-10.116 10.116-10.116h1.216c11.392 0 20.661-9.268 20.661-20.661v-18.6c0-3.143 2.556-5.699 5.699-5.699h9.551c4.132 0 7.481-3.349 7.481-7.481s-3.349-7.481-7.481-7.481h-9.551c-11.393 0-20.661 9.268-20.661 20.661v18.6c0 3.142-2.556 5.699-5.699 5.699h-1.216c-13.828 0-25.078 11.25-25.078 25.078v269.925c0 20.374 16.576 36.95 36.95 36.95h.003 278.228c19.58 27.937 52.011 46.241 88.641 46.241 59.65 0 108.178-48.529 108.178-108.179 0-39.365-21.137-73.881-52.654-92.808zm-277.797-177.207c-2.352 0-4.432-1.413-5.299-3.599l-10.464-26.4h85.876c2.352 0 4.432 1.412 5.298 3.599l10.464 26.4zm-115.467 316.99c1.748-2.514 3.293-5.335 4.625-8.455 1.554-3.637 2.692-7.548 3.479-11.955l41.224-232.284c.591-5.089 4.911-8.927 10.048-8.927h327.88c5.393 0 9.814 4.242 10.101 9.565l-18.06 105.206c-12.802-5.347-26.84-8.306-41.557-8.306-59.65 0-108.179 48.529-108.179 108.179 0 16.823 3.861 32.761 10.742 46.976h-240.303zm337.74 46.241c-51.401 0-93.217-41.817-93.217-93.217s41.817-93.217 93.217-93.217 93.216 41.817 93.216 93.217-41.817 93.217-93.216 93.217z"/><path d="m403.822 283.31c-10.413 0-20.507 2.068-30.003 6.146-3.796 1.63-5.552 6.03-3.922 9.826 1.631 3.797 6.03 5.553 9.827 3.922 7.619-3.272 15.727-4.931 24.098-4.931 33.705 0 61.126 27.421 61.126 61.126s-27.421 61.126-61.126 61.126-61.126-27.421-61.126-61.126c0-13.717 4.437-26.675 12.831-37.475 2.536-3.262 1.946-7.962-1.316-10.498-3.261-2.535-7.962-1.946-10.498 1.316-10.454 13.45-15.979 29.584-15.979 46.657 0 41.955 34.133 76.088 76.088 76.088s76.088-34.133 76.088-76.088-34.133-76.089-76.088-76.089z"/><path d="m398.165 394.18c3.491 0 6.968-1.043 9.966-3.1l24.994-17.154c4.79-3.288 7.649-8.719 7.649-14.528s-2.86-11.24-7.649-14.527l-24.994-17.155c-5.409-3.713-12.374-4.12-18.18-1.063-5.805 3.056-9.411 9.03-9.411 15.591v34.309c0 6.56 3.606 12.534 9.411 15.59 2.588 1.363 5.405 2.037 8.214 2.037zm-2.663-51.936c0-1.396.889-2.073 1.42-2.352.287-.151.731-.324 1.26-.324.447 0 .955.123 1.482.484l24.994 17.155c1.004.689 1.154 1.669 1.154 2.191 0 .523-.15 1.503-1.154 2.192l-24.994 17.154c-1.151.789-2.212.44-2.743.16-.53-.279-1.419-.956-1.419-2.351z"/></g></g></svg>