<svg id="Capa_1" enable-background="new 0 0 512 512" height="512" viewBox="0 0 512 512" width="512" xmlns="http://www.w3.org/2000/svg"><g><g><path d="m393.619 135.416c24.433 0 44.311-19.878 44.311-44.312s-19.878-44.312-44.311-44.312c-24.434 0-44.312 19.878-44.312 44.312s19.877 44.312 44.312 44.312zm0-73.645c16.174 0 29.332 13.159 29.332 29.333s-13.158 29.333-29.332 29.333-29.333-13.159-29.333-29.333 13.159-29.333 29.333-29.333z"/><path d="m315.501 113.511h-127.668c-4.137 0-7.49 3.353-7.49 7.49 0 4.136 3.353 7.49 7.49 7.49h127.668c4.137 0 7.49-3.353 7.49-7.49s-3.353-7.49-7.49-7.49z"/><path d="m315.501 83.614h-169.481c-4.137 0-7.49 3.353-7.49 7.49s3.353 7.49 7.49 7.49h169.481c4.137 0 7.49-3.353 7.49-7.49s-3.353-7.49-7.49-7.49z"/><path d="m315.501 53.717h-169.481c-4.137 0-7.49 3.353-7.49 7.49 0 4.136 3.353 7.49 7.49 7.49h169.481c4.137 0 7.49-3.353 7.49-7.49s-3.353-7.49-7.49-7.49z"/><path d="m475.02 185.908v-171.677c0-7.847-6.384-14.231-14.232-14.231h-84.986c-4.137 0-7.49 3.353-7.49 7.49 0 4.136 3.353 7.49 7.49 7.49h84.238v170.89h-343.619v-170.891h224.773c4.137 0 7.49-3.353 7.49-7.49 0-4.136-3.353-7.49-7.49-7.49h-225.521c-7.848 0-14.231 6.384-14.231 14.231v75.599h-32.004c-12.305 0-22.317 10.012-22.317 22.317v20.925c0 4.046-3.291 7.338-7.338 7.338h-1.368c-15.046 0-27.286 12.24-27.286 27.286v303.661c0 22.41 18.232 40.641 40.641 40.641h.003 421.811c15.046 0 27.286-12.241 27.286-27.286v-271.555c.001-14.564-11.469-26.499-25.85-27.248zm10.871 298.806c0 6.786-5.521 12.306-12.306 12.306h-390.318c5.718-7.003 9.151-15.94 9.151-25.665v-74.775c0-4.136-3.353-7.49-7.49-7.49s-7.49 3.353-7.49 7.49v74.776c0 14.151-11.514 25.665-25.665 25.665h-.003c-14.151 0-25.662-11.512-25.662-25.662v-303.661c0-6.786 5.521-12.307 12.306-12.307h1.368c12.305 0 22.317-10.012 22.317-22.318v-20.925c0-4.046 3.291-7.338 7.338-7.338h32.004v81.265c-13.503 1.627-24.003 13.148-24.003 27.081v148.622c0 4.136 3.353 7.49 7.49 7.49s7.49-3.353 7.49-7.49v-148.622c0-6.786 5.521-12.306 12.306-12.306h368.861c6.786 0 12.306 5.521 12.306 12.306z"/><path d="m131.544 419.759h64.766c4.137 0 7.49-3.353 7.49-7.49s-3.353-7.49-7.49-7.49h-64.766c-4.137 0-7.49 3.353-7.49 7.49s3.353 7.49 7.49 7.49z"/><path d="m234.574 435.917h-103.03c-4.137 0-7.49 3.353-7.49 7.49s3.353 7.49 7.49 7.49h103.03c4.137 0 7.49-3.353 7.49-7.49s-3.353-7.49-7.49-7.49z"/></g></g></svg>