<svg id="Capa_1" enable-background="new 0 0 512 512" height="512" viewBox="0 0 512 512" width="512" xmlns="http://www.w3.org/2000/svg"><g><g><path d="m120.34 374.769h64.725c4.134 0 7.485-3.351 7.485-7.485s-3.351-7.485-7.485-7.485h-64.725c-4.134 0-7.485 3.351-7.485 7.485s3.351 7.485 7.485 7.485z"/><path d="m223.306 390.916h-102.966c-4.134 0-7.485 3.351-7.485 7.485s3.351 7.485 7.485 7.485h102.966c4.134 0 7.485-3.351 7.485-7.485 0-4.133-3.351-7.485-7.485-7.485z"/><path d="m489.435 217.113v-48.817c0-15.036-12.232-27.269-27.269-27.269h-15.556v-18.161c0-15.036-12.232-27.269-27.269-27.269h-102.141l-14.453-36.464c-3.392-8.557-11.531-14.085-20.735-14.085h-141.663c-4.135 0-7.485 3.351-7.485 7.485s3.351 7.485 7.485 7.485h22.667c3.027 0 5.702 1.818 6.817 4.631l12.618 31.833c3.392 8.556 11.531 14.085 20.734 14.085h216.156c6.781 0 12.299 5.517 12.299 12.299v18.161h-338.103c-15.036 0-27.269 12.233-27.269 27.269v258.037c0 14.143-11.506 25.649-25.649 25.649h-.003c-14.142 0-25.647-11.505-25.647-25.646v-303.47c0-6.782 5.517-12.299 12.3-12.299h1.367c12.298 0 22.303-10.005 22.303-22.303v-20.913c0-4.044 3.289-7.333 7.333-7.333h46.725c4.134 0 7.485-3.351 7.485-7.485s-3.351-7.485-7.485-7.485h-46.724c-12.298 0-22.303 10.005-22.303 22.303v20.912c0 4.044-3.289 7.333-7.333 7.333h-1.367c-15.037.001-27.27 12.233-27.27 27.27v303.47c0 22.396 18.22 40.616 40.617 40.616h421.549c15.036 0 27.269-12.233 27.269-27.269v-94.248c14.11-17.592 22.565-39.906 22.565-64.16s-8.455-46.569-22.565-64.162zm-286.249-121.516c-3.026 0-5.702-1.818-6.817-4.631l-12.267-30.947h97.91c3.027 0 5.703 1.818 6.818 4.631l12.267 30.948h-97.911zm271.279 344.086c0 6.781-5.517 12.299-12.299 12.299h-390.072c5.714-6.999 9.145-15.93 9.145-25.649v-258.037c0-6.782 5.517-12.299 12.299-12.299h368.629c6.781 0 12.299 5.517 12.299 12.299v33.647c-17.748-14.611-40.463-23.395-65.192-23.395-56.644 0-102.726 46.083-102.726 102.727-.001 56.643 46.082 102.725 102.725 102.725 24.729 0 47.444-8.784 65.192-23.395zm-65.192-70.653c-48.388 0-87.756-39.367-87.756-87.756s39.368-87.756 87.756-87.756c48.389 0 87.757 39.367 87.757 87.756 0 48.39-39.367 87.756-87.757 87.756z"/><path d="m444.515 226.485c-.364-2.358-1.83-4.4-3.945-5.5-9.617-4.998-20.439-7.64-31.297-7.64-37.453 0-67.925 30.471-67.925 67.924 0 10.857 2.642 21.679 7.641 31.296 1.099 2.116 3.142 3.582 5.5 3.945.381.059.762.088 1.141.088 1.969 0 3.878-.778 5.293-2.192l81.487-81.487c1.687-1.686 2.468-4.076 2.105-6.434zm-86.175 69.334c-1.344-4.692-2.021-9.557-2.021-14.549 0-29.199 23.755-52.954 52.955-52.954 4.993 0 9.857.677 14.549 2.021z"/><path d="m469.554 249.977c-1.101-2.114-3.144-3.578-5.501-3.94-2.354-.362-4.744.42-6.43 2.106l-38.223 38.223c-2.923 2.923-2.923 7.662 0 10.585 2.924 2.923 7.662 2.923 10.586 0l30.224-30.224c1.341 4.684 2.017 9.547 2.017 14.543 0 29.205-23.755 52.964-52.953 52.964-4.993 0-9.857-.677-14.549-2.021l10.594-10.594c2.923-2.923 2.923-7.662 0-10.585s-7.661-2.923-10.586 0l-18.597 18.596c-1.686 1.687-2.468 4.076-2.104 6.434.364 2.357 1.829 4.4 3.945 5.5 9.617 4.998 20.439 7.64 31.297 7.64 37.453 0 67.924-30.475 67.924-67.934-.001-10.874-2.645-21.695-7.644-31.293z"/></g></g></svg>