<svg id="Capa_1" enable-background="new 0 0 512 512" height="512" viewBox="0 0 512 512" width="512" xmlns="http://www.w3.org/2000/svg"><g><g><path d="m120.34 374.769h64.725c4.134 0 7.485-3.351 7.485-7.485s-3.351-7.485-7.485-7.485h-64.725c-4.134 0-7.485 3.351-7.485 7.485s3.351 7.485 7.485 7.485z"/><path d="m223.305 390.917h-102.965c-4.134 0-7.485 3.351-7.485 7.485s3.351 7.485 7.485 7.485h102.965c4.134 0 7.485-3.351 7.485-7.485s-3.351-7.485-7.485-7.485z"/><path d="m509.737 127.269c-.875-4.04-4.86-6.604-8.899-5.732-4.04.875-6.606 4.859-5.732 8.899 1.277 5.898 1.924 11.979 1.924 18.075 0 46.863-38.126 84.989-84.989 84.989s-84.989-38.126-84.989-84.989 38.126-84.989 84.989-84.989c28.234 0 54.559 13.977 70.419 37.388 2.319 3.422 6.972 4.317 10.395 1.999 3.422-2.319 4.318-6.972 1.999-10.395-18.648-27.527-49.606-43.962-82.813-43.962-35.698 0-67.08 18.814-84.766 47.044h-10.075l-14.454-36.465c-3.392-8.556-11.53-14.084-20.734-14.084h-223.74c-12.298 0-22.304 10.005-22.304 22.304v20.912c0 4.044-3.29 7.333-7.333 7.333h-1.367c-15.035 0-27.268 12.233-27.268 27.27v303.471c0 22.396 18.22 40.616 40.616 40.616h421.551c15.036 0 27.269-12.233 27.269-27.269v-227.986c14.095-17.233 22.564-39.238 22.564-63.186 0-7.16-.762-14.306-2.263-21.243zm-227.724-67.251c3.026 0 5.702 1.818 6.817 4.631l12.267 30.948h-97.912c-3.026 0-5.701-1.818-6.817-4.631l-12.267-30.947h97.912zm192.453 379.666c0 6.781-5.517 12.299-12.299 12.299h-390.073c5.714-6.999 9.144-15.93 9.144-25.649v-70.146c0-4.134-3.351-7.485-7.485-7.485s-7.485 3.351-7.485 7.485v70.146c0 14.143-11.506 25.649-25.649 25.649h-.001-.002c-14.141 0-25.646-11.505-25.646-25.646v-303.471c0-6.782 5.517-12.299 12.299-12.299h1.367c12.298 0 22.304-10.005 22.304-22.304v-20.912c0-4.044 3.29-7.333 7.333-7.333h104.744c3.026 0 5.702 1.818 6.817 4.631l12.618 31.832c3.392 8.557 11.53 14.085 20.734 14.085h116.386c-3.917 9.511-6.412 19.752-7.209 30.46h-218.825c-15.036 0-27.269 12.233-27.269 27.269v153.524c0 4.134 3.351 7.485 7.485 7.485s7.485-3.351 7.485-7.485v-153.523c0-6.782 5.517-12.299 12.299-12.299h218.825c3.841 51.635 47.08 92.474 99.679 92.474 23.597 0 45.307-8.224 62.424-21.95z"/><path d="m412.041 211.597c12.382 0 22.455-10.073 22.455-22.455v-18.176h18.176c12.382 0 22.455-10.073 22.455-22.455s-10.073-22.455-22.455-22.455h-18.176v-18.175c0-12.382-10.073-22.455-22.455-22.455s-22.455 10.073-22.455 22.455v18.175h-18.176c-12.382 0-22.455 10.073-22.455 22.455s10.073 22.455 22.455 22.455h18.176v18.176c0 12.382 10.073 22.455 22.455 22.455zm-40.63-55.601c-4.128 0-7.485-3.358-7.485-7.485 0-4.128 3.358-7.485 7.485-7.485h25.661c4.134 0 7.485-3.351 7.485-7.485v-25.66c0-4.128 3.358-7.485 7.485-7.485s7.485 3.358 7.485 7.485v25.66c0 4.134 3.351 7.485 7.485 7.485h25.661c4.128 0 7.485 3.358 7.485 7.485s-3.358 7.485-7.485 7.485h-25.661c-4.134 0-7.485 3.351-7.485 7.485v25.661c0 4.127-3.358 7.485-7.485 7.485s-7.485-3.358-7.485-7.485v-25.661c0-4.134-3.351-7.485-7.485-7.485z"/></g></g></svg>