<svg id="Capa_1" enable-background="new 0 0 512 512" height="512" viewBox="0 0 512 512" width="512" xmlns="http://www.w3.org/2000/svg"><g><g><path d="m120.34 374.769h64.724c4.134 0 7.485-3.351 7.485-7.485s-3.351-7.485-7.485-7.485h-64.724c-4.134 0-7.485 3.351-7.485 7.485s3.351 7.485 7.485 7.485z"/><path d="m223.305 390.917h-102.965c-4.134 0-7.485 3.351-7.485 7.485s3.351 7.485 7.485 7.485h102.965c4.134 0 7.485-3.351 7.485-7.485s-3.351-7.485-7.485-7.485z"/><path d="m412.041 48.553c-14.687 0-28.839 3.114-42.063 9.256-3.749 1.742-5.376 6.193-3.635 9.942 1.742 3.749 6.192 5.376 9.942 3.636 11.233-5.218 23.263-7.864 35.756-7.864 46.863 0 84.989 38.126 84.989 84.989s-38.126 84.989-84.989 84.989-84.989-38.126-84.989-84.989c0-21.899 8.307-42.695 23.392-58.557 2.848-2.995 2.729-7.734-.266-10.582s-7.733-2.729-10.582.266c-4.697 4.939-8.829 10.289-12.376 15.958h-10.02l-14.454-36.465c-3.392-8.556-11.53-14.084-20.734-14.084h-223.739c-12.298 0-22.304 10.005-22.304 22.304v20.912c0 4.044-3.29 7.333-7.333 7.333h-1.367c-15.036-.001-27.269 12.232-27.269 27.268v303.471c0 22.396 18.22 40.616 40.616 40.616h421.551c15.036 0 27.269-12.233 27.269-27.269v-227.985c14.095-17.233 22.564-39.238 22.564-63.187 0-55.117-44.841-99.958-99.959-99.958zm-130.028 11.465c3.026 0 5.702 1.818 6.817 4.631l12.267 30.948h-97.912c-3.026 0-5.702-1.818-6.817-4.631l-12.267-30.947h97.912zm192.453 379.666c0 6.781-5.517 12.299-12.299 12.299h-390.073c5.714-6.999 9.144-15.93 9.144-25.649v-258.038c0-6.782 5.517-12.299 12.299-12.299h28.362c4.134 0 7.485-3.351 7.485-7.485s-3.351-7.485-7.485-7.485h-28.362c-15.036 0-27.269 12.233-27.269 27.269v258.038c0 14.143-11.506 25.649-25.649 25.649h-.003c-14.141 0-25.646-11.505-25.646-25.646v-303.472c0-6.782 5.517-12.299 12.299-12.299h1.367c12.298 0 22.304-10.005 22.304-22.303v-20.912c0-4.044 3.29-7.333 7.333-7.333h104.744c3.026 0 5.702 1.818 6.817 4.631l12.618 31.832c3.392 8.557 11.53 14.085 20.734 14.085h116.35c-3.955 9.641-6.391 19.9-7.174 30.46h-155.353c-4.134 0-7.485 3.351-7.485 7.485s3.351 7.485 7.485 7.485h155.353c3.841 51.635 47.08 92.474 99.679 92.474 23.597 0 45.307-8.224 62.424-21.95v213.164z"/><path d="m354.61 141.007 19.465 18.974-4.595 26.791c-.826 4.818 1.117 9.597 5.072 12.471 3.955 2.875 9.101 3.246 13.428.971l24.06-12.65 24.061 12.65c1.882.989 3.918 1.478 5.945 1.478 2.632 0 5.248-.825 7.483-2.449 3.955-2.874 5.899-7.652 5.072-12.471l-4.595-26.791 19.465-18.974c3.501-3.413 4.738-8.421 3.227-13.071s-5.454-7.975-10.293-8.678l-26.901-3.909-12.03-24.376c-2.163-4.384-6.545-7.108-11.434-7.108s-9.271 2.724-11.434 7.107l-12.03 24.376-26.901 3.909c-4.838.703-8.782 4.028-10.292 8.677-1.51 4.652-.274 9.66 3.227 13.073zm37.276-11.01c4.153-.604 7.741-3.212 9.599-6.975l10.556-21.389 10.556 21.389c1.858 3.763 5.446 6.371 9.6 6.975l23.605 3.43-17.08 16.649c-3.006 2.93-4.377 7.149-3.668 11.287l4.032 23.509-21.113-11.1c-3.715-1.953-8.152-1.953-11.867 0l-21.113 11.1 4.032-23.51c.71-4.137-.662-8.356-3.667-11.285l-17.08-16.65z"/></g></g></svg>