<svg id="Capa_1" enable-background="new 0 0 512 512" height="512" viewBox="0 0 512 512" width="512" xmlns="http://www.w3.org/2000/svg"><g><g><g><path d="m117.805 338h63.268c4.136 0 7.49-3.353 7.49-7.49 0-4.136-3.353-7.49-7.49-7.49h-63.268c-4.136 0-7.49 3.353-7.49 7.49 0 4.136 3.353 7.49 7.49 7.49z"/><path d="m218.453 353.437h-100.648c-4.136 0-7.49 3.353-7.49 7.49s3.353 7.49 7.49 7.49h100.648c4.136 0 7.49-3.353 7.49-7.49s-3.353-7.49-7.49-7.49z"/><path d="m511.879 315.003c-.308-8.813-7.459-16.03-16.279-16.431-5.964-.271-11.563-.837-16.833-1.624v-160.95c0-14.793-12.035-26.828-26.829-26.828h-15.033v-17.58c0-14.793-12.034-26.829-26.828-26.829h-99.725l-14.086-35.534c-3.342-8.43-11.36-13.877-20.428-13.877h-218.705c-12.117 0-21.974 9.858-21.974 21.974v20.441c0 3.857-3.138 6.995-6.995 6.995h-1.336c-14.793.003-26.828 12.038-26.828 26.831v92.289c0 4.136 3.353 7.49 7.49 7.49 4.136 0 7.49-3.353 7.49-7.49v-92.289c0-6.534 5.315-11.849 11.849-11.849h1.336c12.117 0 21.975-9.858 21.975-21.974v-20.442c0-3.857 3.138-6.995 6.995-6.995h102.386c2.887 0 5.439 1.734 6.503 4.417l12.334 31.116c3.341 8.43 11.36 13.877 20.428 13.877h211.292c6.533 0 11.848 5.315 11.848 11.849v17.58h-330.32c-14.793 0-26.829 12.035-26.829 26.828v252.232c0 13.729-11.169 24.899-24.899 24.899h-.003c-13.727 0-24.896-11.168-24.896-24.896v-169.653c0-4.136-3.353-7.49-7.49-7.49-4.136 0-7.49 3.353-7.49 7.49v169.653c0 21.987 17.888 39.875 39.875 39.875h284.72c14.858 25.652 37.751 50.015 72.911 66.855 2.346 1.124 4.865 1.686 7.385 1.686 2.518 0 5.037-.562 7.382-1.686 96.669-46.299 100.681-149.45 99.607-179.96zm-313.093-250.24c-2.887 0-5.439-1.734-6.503-4.417l-11.897-30.014h95.453c2.887 0 5.439 1.734 6.503 4.418l11.897 30.014h-95.453zm-127.779 348.366c5.473-6.828 8.749-15.488 8.749-24.899v-252.231c0-6.533 5.315-11.849 11.849-11.849h360.334c6.534 0 11.849 5.316 11.849 11.849v157.917c-24.312-6.313-39.451-17.414-47.309-24.758-6.498-6.075-16.68-6.076-23.18-.001-10.846 10.138-35.547 27.439-79.12 29.415-8.819.4-15.969 7.617-16.28 16.43-.607 17.268.422 57.8 18.945 98.127zm413.722-19.218c-14.657 40.026-41.212 69.479-78.928 87.542-.572.274-1.253.273-1.826 0-37.714-18.063-64.269-47.517-78.927-87.542-11.856-32.375-12.72-63.006-12.18-78.382.038-1.086.893-1.942 1.988-1.992 48.372-2.194 76.317-21.89 88.669-33.435.382-.357.872-.535 1.362-.535s.98.178 1.361.535c12.353 11.545 40.3 31.241 88.671 33.435 1.095.05 1.949.906 1.988 1.992.542 15.375-.321 46.004-12.178 78.382z"/><path d="m455.214 329.454c-19.9-1.63-32.342-9.226-39.276-15.312-6.401-5.619-15.695-5.618-22.099 0-6.932 6.086-19.373 13.682-39.274 15.312-8.774.718-15.652 8.397-15.661 17.481-.023 23.139 5.604 79.975 58.235 107.909 2.426 1.288 5.088 1.932 7.75 1.932 2.66 0 5.323-.644 7.749-1.932 14.333-7.608 26.297-18.024 35.558-30.959 2.408-3.364 1.634-8.042-1.73-10.45s-8.041-1.633-10.451 1.73c-7.901 11.037-18.13 19.935-30.401 26.448-.46.245-.991.245-1.453 0-45.442-24.119-50.299-74.235-50.278-94.663.001-1.329.855-2.48 1.904-2.565 23.981-1.964 39.304-11.407 47.934-18.984.719-.631 1.615-.632 2.336 0 8.631 7.576 23.954 17.02 47.935 18.984 1.048.086 1.902 1.237 1.904 2.565.009 9.39-.985 23.823-5.767 39.263-1.224 3.951.987 8.147 4.939 9.37 3.957 1.225 8.147-.987 9.37-4.939 5.339-17.235 6.447-33.281 6.438-43.709-.01-9.085-6.891-16.764-15.662-17.481z"/></g></g></g></svg>