<svg id="Capa_1" enable-background="new 0 0 512 512" height="512" viewBox="0 0 512 512" width="512" xmlns="http://www.w3.org/2000/svg"><g><g><path d="m120.407 380.708h64.76c4.137 0 7.489-3.353 7.489-7.489s-3.353-7.489-7.489-7.489h-64.76c-4.137 0-7.489 3.353-7.489 7.489s3.353 7.489 7.489 7.489z"/><path d="m120.407 411.843h103.022c4.136 0 7.489-3.353 7.489-7.489s-3.353-7.489-7.489-7.489h-103.022c-4.137 0-7.489 3.353-7.489 7.489s3.353 7.489 7.489 7.489z"/><path d="m507.043 184.286-73.294-126.947c-6.61-11.447-18.447-18.282-31.666-18.282-13.218 0-25.056 6.834-31.665 18.282l-2.868 4.967c-2.068 3.582-.841 8.163 2.741 10.23 3.583 2.069 8.162.841 10.23-2.741l2.868-4.967c3.902-6.758 10.891-10.792 18.694-10.792 7.804 0 14.793 4.034 18.695 10.792l73.293 126.947c3.902 6.758 3.902 14.828 0 21.586-3.903 6.758-10.891 10.793-18.695 10.793h-146.585c-7.803 0-14.792-4.035-18.694-10.793s-3.902-14.828 0-21.586l52.982-91.769c2.068-3.582.841-8.163-2.741-10.23-3.584-2.068-8.163-.841-10.23 2.741l-5.117 8.863h-27.614l-14.462-36.484c-3.393-8.561-11.537-14.092-20.745-14.092h-223.865c-12.304 0-22.315 10.011-22.315 22.316v20.924c0 4.045-3.292 7.337-7.338 7.337h-1.367c-15.045-.001-27.285 12.239-27.285 27.284v303.639c0 22.408 18.23 40.639 40.639 40.639h421.785c15.045 0 27.284-12.24 27.284-27.284v-58.559c0-4.136-3.353-7.489-7.489-7.489s-7.489 3.353-7.489 7.489v58.559c0 6.785-5.52 12.305-12.305 12.305h-390.291c5.717-7.003 9.15-15.939 9.15-25.663v-258.181c0-6.785 5.52-12.305 12.305-12.305h216.51l-12.974 22.472c-6.609 11.448-6.609 25.117 0 36.564 6.61 11.448 18.447 18.282 31.665 18.282h145.939v113.463c0 4.136 3.353 7.489 7.489 7.489 4.137 0 7.489-3.353 7.489-7.489v-116.34c7.168-3.027 13.251-8.332 17.335-15.405 6.61-11.448 6.61-25.117.001-36.565zm-224.874-118.504c3.028 0 5.706 1.819 6.821 4.634l12.274 30.965h-97.966c-3.028 0-5.706-1.819-6.821-4.633l-12.274-30.965h97.966zm-188.58 81.054c-15.045 0-27.284 12.24-27.284 27.284v258.181c0 14.15-11.513 25.663-25.663 25.663h-.004c-14.15 0-25.66-11.511-25.66-25.66v-303.639c0-6.786 5.521-12.306 12.307-12.306h1.367c12.305 0 22.316-10.01 22.316-22.315v-20.925c0-4.046 3.291-7.338 7.337-7.338h104.802c3.028 0 5.706 1.819 6.821 4.634l12.625 31.851c3.394 8.56 11.537 14.091 20.745 14.091h133.044l-17.596 30.477h-225.157z"/><path d="m402.084 201.215c4.411 0 7.987-3.576 7.987-7.987s-3.576-7.987-7.987-7.987-7.987 3.576-7.987 7.987c-.001 4.411 3.575 7.987 7.987 7.987z"/><path d="m402.194 175.358c4.136 0 7.489-3.353 7.489-7.489v-69.744c0-4.136-3.353-7.489-7.489-7.489-4.137 0-7.489 3.353-7.489 7.489v69.743c0 4.137 3.353 7.49 7.489 7.49z"/></g></g></svg>