<svg id="Capa_1" enable-background="new 0 0 512 512" height="512" viewBox="0 0 512 512" width="512" xmlns="http://www.w3.org/2000/svg"><g><g><path d="m129.321 331.805h61.776c4.137 0 7.489-3.353 7.489-7.489s-3.353-7.489-7.489-7.489h-61.776c-4.137 0-7.489 3.353-7.489 7.489s3.353 7.489 7.489 7.489z"/><path d="m215.613 346.526h-98.274c-4.137 0-7.489 3.353-7.489 7.489s3.353 7.489 7.489 7.489h98.274c4.137 0 7.489-3.353 7.489-7.489s-3.353-7.489-7.489-7.489z"/><path d="m452.399 295.99 26.436-154.003c.072-.419.108-.843.108-1.267 0-13.843-11.262-25.106-25.105-25.106h-54.51v-15.348c0-13.843-11.262-25.105-25.105-25.105h-41.26c-4.137 0-7.489 3.353-7.489 7.489s3.353 7.489 7.489 7.489h41.26c5.584 0 10.127 4.543 10.127 10.127v15.348h-258.754c-12.747 0-23.467 9.539-24.938 22.189l-41.135 231.633c-.586 3.28-1.408 6.132-2.513 8.718-4.18 9.788-10.541 14.347-20.017 14.347h-.003c-12.137 0-22.011-9.875-22.011-22.012v-270.222c0-5.584 4.543-10.127 10.127-10.127h1.217c11.406 0 20.684-9.279 20.684-20.684v-18.621c0-3.146 2.56-5.706 5.706-5.706h93.268c2.355 0 4.437 1.414 5.304 3.603l11.236 28.345c3.145 7.935 10.693 13.063 19.229 13.063h116.132c4.137 0 7.489-3.353 7.489-7.489s-3.353-7.489-7.489-7.489h-14.049l-12.665-31.95c-3.146-7.934-10.694-13.061-19.228-13.061h-199.227c-11.406 0-20.684 9.279-20.684 20.684v18.621c0 3.146-2.56 5.706-5.706 5.706h-1.217c-13.844 0-25.106 11.262-25.106 25.105v270.223c0 20.397 16.593 36.99 36.99 36.99h.003 284.36c10.076 42.585 48.408 74.369 94.029 74.369 53.275 0 96.618-43.343 96.618-96.619 0-40.168-24.642-74.685-59.601-89.24zm-200.46-250.861c2.354 0 4.437 1.414 5.304 3.603l10.476 26.429h-85.97c-2.355 0-4.437-1.414-5.304-3.603l-10.477-26.429zm163.443 421.742c-45.017 0-81.641-36.624-81.641-81.64 0-2.621.126-5.263.373-7.853.393-4.118-2.626-7.774-6.743-8.167-4.123-.402-7.775 2.627-8.167 6.743-.293 3.062-.441 6.183-.441 9.277 0 2.446.093 4.87.273 7.271h-252.882c1.75-2.516 3.297-5.34 4.63-8.463 1.556-3.642 2.695-7.557 3.483-11.968l41.27-232.54c.592-5.095 4.916-8.937 10.059-8.937h328.242c5.399 0 9.825 4.247 10.112 9.575l-25.942 151.126c-7.261-1.749-14.836-2.682-22.627-2.682-35.879 0-68.612 19.709-85.423 51.436-1.937 3.655-.544 8.187 3.111 10.124 3.658 1.939 8.189.544 10.124-3.111 14.209-26.814 41.87-43.471 72.188-43.471 45.016 0 81.64 36.624 81.64 81.64s-36.623 81.64-81.639 81.64z"/><path d="m476.377 367.201c-.02-.078-.043-.156-.066-.233-4.932-16.344-15.969-29.727-31.077-37.684-15.103-7.955-32.388-9.483-48.668-4.299-15.428 4.911-28.263 15.498-36.141 29.809-7.879 14.316-9.95 30.824-5.832 46.48 7.104 27.018 31.538 46.427 59.418 47.197.07.002.14.003.21.003 4.04 0 7.37-3.219 7.482-7.282.114-4.135-3.145-7.579-7.28-7.694-21.274-.589-39.921-15.406-45.346-36.034-3.136-11.924-1.549-24.513 4.47-35.448 6.018-10.935 15.806-19.017 27.562-22.759 12.428-3.955 25.618-2.791 37.145 3.279 11.493 6.053 19.899 16.222 23.681 28.643 2.4 9.086.787 19.41-2.641 28.032-1.113 2.797-4.554 9.303-12.465 9.303-3.19 0-4.506-3.528-4.492-6.256v-41.703c.023-4.136-3.31-7.509-7.445-7.533-.016 0-.03 0-.045 0-2.686 0-5.038 1.421-6.36 3.55-3.739-2.283-8.082-3.55-12.829-3.55-15.766 0-28.116 13.917-28.116 31.683 0 18.048 12.378 32.731 27.592 32.731 5.364 0 10.313-1.811 14.476-4.957 1.005 1.938 2.292 3.726 3.836 5.279 3.68 3.698 8.432 5.735 13.381 5.735 13.956 0 22.779-9.684 26.382-18.747 5.461-13.72 6.436-25.301 3.168-37.545zm-49.157 17.533c-.066 9.789-5.457 17.725-12.083 17.725-7.545 0-12.614-9.179-12.614-17.752 0-10.456 6.68-16.704 13.137-16.704 6.777 0 11.516 6.744 11.561 16.414z"/></g></g></svg>