<svg id="Capa_1" enable-background="new 0 0 512 512" height="512" viewBox="0 0 512 512" width="512" xmlns="http://www.w3.org/2000/svg"><g><g><path d="m117.751 345.397h63.238c4.135 0 7.486-3.352 7.486-7.486s-3.352-7.486-7.486-7.486h-63.238c-4.135 0-7.486 3.352-7.486 7.486s3.351 7.486 7.486 7.486z"/><path d="m218.352 360.827h-100.601c-4.135 0-7.486 3.352-7.486 7.486 0 4.135 3.352 7.486 7.486 7.486h100.601c4.135 0 7.486-3.352 7.486-7.486s-3.352-7.486-7.486-7.486z"/><path d="m478.546 378.2v-234.71c0-14.786-12.03-26.816-26.816-26.816h-15.026v-17.571c0-14.786-12.03-26.816-26.816-26.816h-99.679l-14.079-35.518c-3.34-8.426-11.355-13.871-20.419-13.871h-218.603c-12.112 0-21.965 9.853-21.965 21.964v20.432c0 3.855-3.136 6.992-6.992 6.992h-1.336c-14.785.001-26.815 12.03-26.815 26.817v296.504c0 21.977 17.88 39.857 39.857 39.857h.003 192.386c2.347 29.967 27.465 53.638 58.024 53.638h163.508c32.103 0 58.222-26.118 58.222-58.221 0-23.251-13.703-43.357-33.454-52.681zm-202.834-340.329c2.885 0 5.436 1.733 6.5 4.416l11.891 30h-95.409c-2.885 0-5.436-1.733-6.5-4.415l-11.891-30h95.409zm178.066 436.258h-163.508c-23.848 0-43.249-19.401-43.249-43.249 0-23.817 19.352-43.199 43.158-43.249.086.002.182.004.245.004 2.1 0 4.103-.882 5.522-2.431 1.418-1.549 2.12-3.622 1.935-5.714-.084-.952-.125-1.816-.125-2.64 0-16.248 13.219-29.467 29.467-29.467 1.607 0 3.254.139 4.895.413 3.296.55 6.555-1.148 7.992-4.163 9.214-19.332 28.993-31.823 50.39-31.823 7.703 0 15.158 1.538 22.159 4.572 3.794 1.644 8.202-.099 9.846-3.893s-.099-8.202-3.893-9.846c-8.891-3.853-18.35-5.806-28.112-5.806-25.345 0-48.9 13.817-61.419 35.613-24.052-1.031-44.191 17.298-46.143 40.667-25.225 3.183-45.466 22.571-49.953 47.372h-162.01c5.47-6.825 8.745-15.481 8.745-24.887v-252.112c0-6.53 5.313-11.843 11.843-11.843h42.505c4.135 0 7.486-3.352 7.486-7.486s-3.352-7.486-7.486-7.486h-42.505c-14.786 0-26.816 12.029-26.816 26.816v252.114c0 13.723-11.164 24.887-24.887 24.887h-.003c-13.721 0-24.884-11.163-24.884-24.884v-296.505c0-6.531 5.313-11.844 11.844-11.844h1.336c12.111 0 21.964-9.853 21.964-21.964v-20.432c0-3.855 3.137-6.992 6.992-6.992h102.339c2.885 0 5.437 1.733 6.5 4.415l12.328 31.102c3.34 8.426 11.355 13.871 20.419 13.871h211.193c6.531 0 11.844 5.313 11.844 11.844v17.571h-252.669c-4.135 0-7.486 3.352-7.486 7.486s3.352 7.486 7.486 7.486h282.666c6.531 0 11.844 5.313 11.844 11.843v229.997c-.835-.142-1.675-.27-2.522-.376.142-1.833.214-3.672.214-5.508 0-14.864-4.559-29.091-13.183-41.143-2.406-3.362-7.082-4.136-10.445-1.731-3.363 2.406-4.137 7.083-1.731 10.445 6.795 9.494 10.386 20.708 10.386 32.429 0 3.724-.372 7.456-1.106 11.094-.45 2.232.14 4.548 1.604 6.292 1.464 1.745 3.635 2.74 5.918 2.672l.5-.015c.19-.006.38-.014.571-.014 23.848 0 43.249 19.401 43.249 43.249-.001 23.848-19.402 43.249-43.25 43.249z"/></g></g></svg>