<svg id="Capa_1" enable-background="new 0 0 512.025 512.025" height="512" viewBox="0 0 512.025 512.025" width="512" xmlns="http://www.w3.org/2000/svg"><g><g><path d="m351.921 57.002h-3.86v-18.595c0-8.924-7.225-16.184-16.106-16.184h-34.285c-4.137 0-7.49 3.354-7.49 7.49 0 4.137 3.354 7.49 7.49 7.49h34.285c.62 0 1.125.539 1.125 1.203v18.595h-131.253c-8.366 0-15.283 6.837-15.283 15.232v92.717c0 7.429-5.876 13.495-13.222 13.837-7.346-.342-13.222-6.408-13.222-13.837v-126.543c0-.663.504-1.203 1.125-1.203h.595c7.688 0 13.943-6.281 13.943-14.002v-8.209h43.852l5.243 13.347c2.115 5.385 7.206 8.864 12.971 8.864h24.576c4.137 0 7.49-3.354 7.49-7.49 0-4.137-3.354-7.49-7.49-7.49h-23.855l-5.243-13.348c-2.115-5.384-7.207-8.863-12.971-8.863h-45.611c-7.688 0-13.943 6.281-13.943 14.001v8.216c-8.677.237-15.663 7.403-15.663 16.178v126.544c0 15.022 11.543 27.394 26.224 28.726.433.078 2.627.125 2.627.125h177.951c8.365 0 15.171-6.837 15.171-15.241v-106.319c0-8.404-6.806-15.241-15.171-15.241zm.19 121.559c0 .167-.113.26-.19.26h-123.386-30.566c2.266-4.116 3.556-8.841 3.556-13.861l.111-92.717c0-.167.113-.26.191-.26h150.094c.078 0 .19.093.19.26z"/></g><path d="m385.512 251.756h-122.009v-33.473c0-4.137-3.354-7.49-7.49-7.49s-7.49 3.354-7.49 7.49v33.473h-122.01c-10.73 0-19.459 8.73-19.459 19.46v22.527c0 4.137 3.354 7.491 7.49 7.491s7.49-3.354 7.49-7.491v-22.527c0-2.469 2.009-4.479 4.478-4.479h258.999c2.469 0 4.478 2.009 4.478 4.479v22.527c0 4.137 3.354 7.491 7.49 7.491s7.49-3.354 7.49-7.491v-22.527c.002-10.73-8.727-19.46-19.457-19.46z"/><g><path d="m496.854 375.214h-3.86v-18.596c0-8.924-7.225-16.184-16.106-16.184h-93.404l-5.243-13.347c-2.115-5.385-7.206-8.864-12.97-8.864h-45.612c-7.688 0-13.943 6.281-13.943 14.002v8.215c-8.677.237-15.663 7.403-15.663 16.178v32.778c0 4.137 3.354 7.49 7.49 7.49s7.49-3.354 7.49-7.49v-32.778c0-.663.504-1.203 1.125-1.203h.595c7.688 0 13.943-6.281 13.943-14.002v-8.209h43.852l5.243 13.347c2.115 5.385 7.206 8.864 12.97 8.864h94.127c.62 0 1.125.539 1.125 1.203v18.596h-131.253c-8.365 0-15.282 6.837-15.282 15.232v92.716c0 7.429-5.876 13.495-13.222 13.837-7.346-.342-13.222-6.408-13.222-13.837v-59.08c0-4.137-3.354-7.49-7.49-7.49s-7.49 3.354-7.49 7.49v59.08c0 15.023 11.543 27.394 26.225 28.726.432.078 2.626.125 2.626.125h177.951c8.365 0 15.171-6.837 15.171-15.241v-106.317c-.002-8.404-6.807-15.241-15.173-15.241zm.19 121.558c0 .167-.113.26-.19.26h-153.951c2.266-4.116 3.556-8.841 3.556-13.861l.111-92.716c0-.167.113-.26.19-.26h150.094c.078 0 .19.093.19.26z"/></g><g><path d="m206.801 375.214h-3.86v-18.596c0-8.924-7.225-16.184-16.106-16.184h-93.404l-5.243-13.347c-2.115-5.385-7.206-8.864-12.971-8.864h-45.611c-7.688 0-13.943 6.281-13.943 14.002v8.215c-8.677.237-15.663 7.403-15.663 16.178v126.544c0 15.022 11.543 27.394 26.224 28.726.433.078 2.627.125 2.627.125h177.95c8.366 0 15.172-6.837 15.172-15.241v-106.317c-.001-8.404-6.806-15.241-15.172-15.241zm-191.82 107.948v-126.544c0-.663.504-1.203 1.125-1.203h.595c7.688 0 13.943-6.281 13.943-14.002v-8.209h43.852l5.243 13.347c2.115 5.385 7.206 8.864 12.971 8.864h94.126c.62 0 1.125.539 1.125 1.203v18.596h-131.254c-8.365 0-15.282 6.837-15.282 15.232v92.716c0 7.429-5.876 13.495-13.222 13.837-7.346-.342-13.222-6.408-13.222-13.837zm192.01 13.61c0 .167-.113.26-.191.26h-153.951c2.266-4.116 3.556-8.841 3.556-13.861l.111-92.716c0-.167.113-.26.19-.26h150.094c.078 0 .191.093.191.26z"/></g></g></svg>