<svg id="Capa_1" enable-background="new 0 0 512.284 512.284" height="512" viewBox="0 0 512.284 512.284" width="512" xmlns="http://www.w3.org/2000/svg"><g><g><g><g><path d="m418.463 381.228c-2.176-.769-4.402-1.576-6.622-2.416v-35.433c5.582 1.337 8.909 4.16 9.198 4.413 3.044 2.757 7.746 2.551 10.536-.475 2.806-3.042 2.615-7.782-.427-10.588-.426-.393-7.586-6.843-19.307-8.602v-7.237c0-4.138-3.354-7.493-7.493-7.493s-7.493 3.355-7.493 7.493v7.812c-1.112.245-2.24.527-3.393.874-10.719 3.229-18.728 12.402-20.903 23.94-1.983 10.52 1.387 20.665 8.795 26.475 3.925 3.078 8.81 5.898 15.501 8.877v44.93c-5.788-.427-9.798-1.84-16.368-6.138-3.464-2.266-8.107-1.294-10.372 2.168-2.266 3.463-1.295 8.107 2.169 10.373 9.58 6.267 16.123 8.135 24.571 8.611v8.103c0 4.138 3.354 7.493 7.493 7.493s7.493-3.355 7.493-7.493v-8.699c16.812-3.298 26.631-17.161 28.808-30.11 2.799-16.65-5.91-31.125-22.186-36.878zm-21.609-9.033c-2.353-1.277-4.482-2.607-6.252-3.996-2.989-2.344-4.26-6.906-3.317-11.907.845-4.481 3.803-9.866 9.569-12.043zm29.016 43.425c-1.153 6.86-5.931 14.131-14.029 17.028v-37.874c.541.194 1.07.386 1.627.583 13.846 4.894 12.993 16.747 12.402 20.263z"/><path d="m117.858 338.91h63.296c4.138 0 7.493-3.355 7.493-7.493s-3.355-7.493-7.493-7.493h-63.296c-4.138 0-7.493 3.355-7.493 7.493s3.355 7.493 7.493 7.493z"/><path d="m218.551 354.354h-100.693c-4.138 0-7.493 3.355-7.493 7.493s3.355 7.493 7.493 7.493h100.693c4.138 0 7.493-3.355 7.493-7.493s-3.354-7.493-7.493-7.493z"/><path d="m478.983 311.284v-174.465c0-14.8-12.04-26.841-26.84-26.841h-15.04v-17.587c0-14.8-12.041-26.84-26.841-26.84h-99.77l-14.091-35.551c-3.344-8.434-11.366-13.883-20.437-13.883h-218.803c-12.123 0-21.985 9.862-21.985 21.984v20.451c0 3.859-3.139 6.998-6.998 6.998h-1.337c-14.8 0-26.841 12.041-26.841 26.841v296.774c0 21.997 17.896 39.893 39.893 39.893h265.665c15.928 39.308 54.506 67.109 99.46 67.109 59.146 0 107.265-48.119 107.265-107.265.001-30.501-12.795-58.069-33.3-77.618zm-203.019-280.181c2.888 0 5.441 1.735 6.505 4.419l11.903 30.028h-95.496c-2.888 0-5.442-1.735-6.506-4.42l-11.902-30.027zm129.055 450.078c-50.883 0-92.28-41.396-92.28-92.279 0-24.954 9.804-48.331 27.606-65.824 2.951-2.901 2.993-7.645.093-10.597-2.901-2.951-7.646-2.993-10.597-.093-20.692 20.333-32.088 47.506-32.088 76.513 0 8.667 1.041 17.094 2.99 25.17h-229.703c5.475-6.831 8.753-15.495 8.753-24.91v-252.342c0-6.536 5.318-11.854 11.854-11.854h190.792c4.139 0 7.493-3.355 7.493-7.493s-3.354-7.493-7.493-7.493h-190.792c-14.8 0-26.84 12.041-26.84 26.841v252.344c0 13.735-11.174 24.91-24.91 24.91h-.003c-13.734 0-24.907-11.173-24.907-24.907v-296.776c0-6.537 5.318-11.854 11.854-11.854h1.337c12.122 0 21.984-9.863 21.984-21.985v-20.451c0-3.859 3.14-6.998 6.998-6.998h102.432c2.888 0 5.442 1.735 6.506 4.419l12.339 31.13c3.343 8.434 11.366 13.884 20.438 13.884h211.386c6.537 0 11.854 5.317 11.854 11.854v17.587h-104.986c-4.139 0-7.493 3.355-7.493 7.493s3.354 7.493 7.493 7.493h135.013c6.536 0 11.853 5.318 11.853 11.854v162.533c-16.933-11.19-37.206-17.716-58.977-17.716-15.434 0-30.334 3.21-44.285 9.542-3.768 1.71-5.437 6.152-3.726 9.92 1.709 3.769 6.153 5.437 9.92 3.727 11.992-5.442 24.807-8.202 38.091-8.202 50.883 0 92.279 41.396 92.279 92.28.001 50.884-41.395 92.28-92.278 92.28z"/></g></g></g></g></svg>