<svg id="Capa_1" enable-background="new 0 0 512 512" height="512" viewBox="0 0 512 512" width="512" xmlns="http://www.w3.org/2000/svg"><g><g><path d="m129.364 368.556h61.796c4.138 0 7.492-3.354 7.492-7.492s-3.354-7.492-7.492-7.492h-61.796c-4.138 0-7.492 3.354-7.492 7.492s3.354 7.492 7.492 7.492z"/><path d="m215.684 383.282h-98.307c-4.138 0-7.492 3.354-7.492 7.492s3.354 7.492 7.492 7.492h98.307c4.138 0 7.492-3.354 7.492-7.492s-3.354-7.492-7.492-7.492z"/><path d="m509.276 367.945c-2.169-3.515-5.833-8.999-10.973-15.16-12.436-14.905-27.216-26.21-43.447-33.491l24.139-140.619c.072-.419.108-.843.108-1.268 0-13.848-11.267-25.114-25.115-25.114h-54.528v-15.353c0-13.848-11.266-25.113-25.114-25.113h-90.42l-12.668-31.959c-3.146-7.938-10.696-13.067-19.235-13.067h-199.294c-11.409 0-20.691 9.282-20.691 20.691v18.627c0 3.147-2.561 5.708-5.708 5.708h-1.217c-13.847.001-25.113 11.267-25.113 25.115v270.312c0 20.403 16.6 37.003 37.003 37.003h359.178c4.699.621 9.427.942 14.161.942 24.884-.001 49.88-8.622 71.198-26.261 3.188-2.638 3.634-7.36.996-10.548s-7.361-3.633-10.548-.996c-.583.482-1.17.955-1.76 1.422 4.913-9.374 7.701-20.029 7.701-31.327 0-11.317-2.803-21.986-7.729-31.374 5.921 4.702 11.481 10.137 16.598 16.27 4.574 5.481 7.814 10.328 9.727 13.428.638 1.034.638 2.319-.001 3.355-.938 1.522-1.965 3.089-3.048 4.657-2.353 3.403-1.501 8.07 1.902 10.423 3.404 2.353 8.07 1.501 10.422-1.902 1.233-1.783 2.403-3.571 3.478-5.313 3.63-5.888 3.63-13.201-.002-19.088zm-257.252-286.16c2.355 0 4.438 1.414 5.305 3.604l10.48 26.438h-85.999c-2.355 0-4.438-1.415-5.306-3.604l-10.48-26.438zm-185.847 347.488c1.751-2.518 3.298-5.342 4.633-8.468 1.556-3.643 2.695-7.559 3.482-11.97l25.644-143.577c.728-4.073-1.984-7.965-6.058-8.693-4.066-.727-7.964 1.985-8.692 6.058l-25.643 143.577c-.586 3.281-1.409 6.134-2.513 8.721-4.181 9.791-10.544 14.352-20.025 14.352h-.002c-12.142 0-22.02-9.878-22.02-22.019v-270.312c0-5.586 4.545-10.13 10.13-10.13h1.217c11.409 0 20.691-9.282 20.691-20.691v-18.628c0-3.147 2.561-5.708 5.708-5.708h93.299c2.355 0 4.438 1.415 5.306 3.604l11.24 28.355c3.147 7.937 10.697 13.066 19.235 13.066h192.538c5.586 0 10.13 4.544 10.13 10.13v15.353h-258.84c-12.751 0-23.475 9.542-24.946 22.196l-9.383 53.854c-.728 4.073 1.984 7.964 6.058 8.692 4.073.728 7.965-1.985 8.692-6.058l9.518-54.76c.592-5.097 4.917-8.94 10.062-8.94h328.351c5.401 0 9.829 4.248 10.117 9.578l-23.548 137.178c-9.792-2.844-19.979-4.311-30.395-4.311 0 0 0 0-.001 0s0 0 0 0h-.001c-33.669.001-64.971 15.294-88.139 43.063-5.141 6.161-8.805 11.645-10.973 15.16-3.632 5.887-3.632 13.2 0 19.088 2.17 3.517 5.835 9.001 10.973 15.159 9.331 11.183 19.993 20.222 31.467 27.08h-287.312zm283.889-20.509c-5.93-4.695-11.477-10.103-16.54-16.17-4.572-5.479-7.813-10.326-9.726-13.427-.639-1.034-.639-2.32-.001-3.354 1.913-3.1 5.152-7.946 9.727-13.428 5.117-6.133 10.677-11.568 16.598-16.27-4.926 9.388-7.729 20.057-7.729 31.374.001 11.276 2.777 21.913 7.671 31.275zm60.224 21.505c-.131 0-.262-.003-.394-.003-28.982-.144-52.517-23.761-52.517-52.776 0-29.104 23.677-52.782 52.781-52.783h.002c29.104 0 52.783 23.679 52.783 52.783 0 29.061-23.61 52.709-52.655 52.779z"/><path d="m410.162 344.295c-18.303 0-33.194 14.891-33.194 33.194 0 18.304 14.891 33.194 33.194 33.194 18.304 0 33.195-14.891 33.195-33.194s-14.891-33.194-33.195-33.194zm0 51.405c-10.042 0-18.21-8.169-18.21-18.211 0-10.041 8.169-18.21 18.21-18.21 10.042 0 18.211 8.169 18.211 18.21s-8.17 18.211-18.211 18.211z"/></g></g></svg>