<svg id="Capa_1" enable-background="new 0 0 512 512" height="512" viewBox="0 0 512 512" width="512" xmlns="http://www.w3.org/2000/svg"><g><g><path d="m117.894 338.066h63.314c4.14 0 7.495-3.356 7.495-7.495 0-4.14-3.355-7.495-7.495-7.495h-63.314c-4.14 0-7.496 3.356-7.496 7.495s3.355 7.495 7.496 7.495z"/><path d="m117.894 368.505h100.723c4.14 0 7.495-3.356 7.495-7.495s-3.355-7.495-7.495-7.495h-100.723c-4.14 0-7.496 3.356-7.496 7.495s3.355 7.495 7.496 7.495z"/><path d="m479.126 299.683v-88.934c0-4.14-3.355-7.495-7.495-7.495s-7.496 3.356-7.496 7.495v88.914h-9.192v-1.072c0-37.68-30.655-68.335-68.336-68.335s-68.336 30.655-68.336 68.335v1.072h-23.366c-18.577 0-33.691 15.113-33.691 33.69v79.898h-190.153c5.476-6.833 8.755-15.499 8.755-24.917v-252.42c0-6.538 5.319-11.858 11.858-11.858h360.603c6.539 0 11.858 5.32 11.858 11.858v40.266c0 4.14 3.355 7.495 7.496 7.495 4.14 0 7.495-3.356 7.495-7.495v-40.266c0-14.804-12.044-26.849-26.849-26.849h-15.043v-17.592c0-14.804-12.044-26.848-26.849-26.848h-99.8l-14.095-35.561c-3.345-8.436-11.369-13.888-20.443-13.888h-218.869c-12.126 0-21.991 9.865-21.991 21.991v20.457c0 3.86-3.141 7.001-7.001 7.001h-1.337c-14.805 0-26.849 12.044-26.849 26.848v296.863c0 22.004 17.901 39.905 39.905 39.905h221.307v34.891c0 18.577 15.114 33.691 33.691 33.691h10.311c4.14 0 7.495-3.356 7.495-7.495s-3.355-7.495-7.495-7.495h-10.311c-10.311 0-18.7-8.389-18.7-18.7v-71.14h28.145v9.386c0 10.928 8.891 19.818 19.819 19.818h13.832c10.928 0 19.819-8.891 19.819-19.818v-9.386h57.578v9.386c0 10.928 8.891 19.818 19.819 19.818h13.831c10.928 0 19.819-8.891 19.819-19.818v-9.386h28.145v71.14c0 10.311-8.388 18.7-18.699 18.7h-138.436c-4.14 0-7.495 3.356-7.495 7.495s3.355 7.495 7.495 7.495h138.435c18.576 0 33.69-15.114 33.69-33.691v-129.78c0-18.303-14.674-33.233-32.874-33.669zm-203.08-269.516c2.889 0 5.443 1.735 6.507 4.421l11.907 30.037h-95.524c-2.889 0-5.444-1.735-6.508-4.421l-11.906-30.036h95.524zm-211.221 358.167c0 13.74-11.178 24.917-24.917 24.917h-.003c-13.738 0-24.914-11.177-24.914-24.914v-296.864c0-6.538 5.319-11.858 11.858-11.858h1.337c12.126 0 21.991-9.866 21.991-21.991v-20.457c0-3.86 3.141-7 7-7h102.463c2.889 0 5.444 1.735 6.508 4.421l12.343 31.139c3.344 8.437 11.369 13.888 20.445 13.888h211.449c6.539 0 11.858 5.319 11.858 11.857v17.593h-330.569c-14.805 0-26.849 12.044-26.849 26.849zm268.436-89.743c0-29.415 23.931-53.345 53.345-53.345s53.345 23.93 53.345 53.345v1.072h-14.558v-1.072c0-21.386-17.399-38.786-38.787-38.786-21.387 0-38.787 17.399-38.787 38.786v1.072h-14.558zm77.141 0v1.072h-47.592v-1.072c0-13.12 10.675-23.795 23.796-23.795s23.796 10.674 23.796 23.795zm-67.575 102.787c0 2.662-2.166 4.828-4.828 4.828h-13.832c-2.662 0-4.828-2.166-4.828-4.828v-29.044c0-2.662 2.166-4.828 4.828-4.828h13.832c2.662 0 4.828 2.166 4.828 4.828zm111.047 0c0 2.662-2.166 4.828-4.828 4.828h-13.831c-2.662 0-4.828-2.166-4.828-4.828v-29.044c0-2.662 2.166-4.828 4.828-4.828h13.831c2.663 0 4.828 2.166 4.828 4.828zm43.135-24.376h-28.145v-4.668c0-10.928-8.891-19.819-19.819-19.819h-13.831c-10.928 0-19.819 8.891-19.819 19.819v4.668h-57.578v-4.668c0-10.928-8.891-19.819-19.819-19.819h-13.832c-10.928 0-19.819 8.891-19.819 19.819v4.668h-28.145v-43.649c0-10.311 8.389-18.699 18.7-18.699h183.408c10.311 0 18.699 8.388 18.699 18.699z"/></g></g></svg>