<svg id="Capa_1" enable-background="new 0 0 512 512" height="512" viewBox="0 0 512 512" width="512" xmlns="http://www.w3.org/2000/svg"><g><g><path d="m117.656 372.122h63.188c4.131 0 7.48-3.349 7.48-7.48 0-4.132-3.349-7.48-7.48-7.48h-63.188c-4.131 0-7.48 3.349-7.48 7.48s3.349 7.48 7.48 7.48z"/><path d="m218.177 387.54h-100.521c-4.131 0-7.48 3.349-7.48 7.48 0 4.132 3.349 7.48 7.48 7.48h100.521c4.131 0 7.48-3.349 7.48-7.48s-3.349-7.48-7.48-7.48z"/><path d="m478.161 239.618v-69.24c0-14.775-12.02-26.795-26.794-26.795h-15.014v-17.557c0-14.775-12.02-26.794-26.795-26.794h-99.598l-14.067-35.491c-3.338-8.418-11.347-13.858-20.403-13.858h-218.428c-12.101 0-21.947 9.845-21.947 21.946v20.416c0 3.852-3.134 6.986-6.986 6.986h-1.335c-14.774.001-26.794 12.021-26.794 26.796v17.327c0 4.132 3.349 7.48 7.48 7.48s7.48-3.349 7.48-7.48v-17.327c0-6.526 5.309-11.834 11.834-11.834h1.335c12.101 0 21.947-9.845 21.947-21.947v-20.417c0-3.852 3.134-6.986 6.986-6.986h102.257c2.883 0 5.432 1.732 6.495 4.411l12.318 31.077c3.337 8.419 11.346 13.86 20.402 13.86h211.024c6.525 0 11.834 5.308 11.834 11.833v17.557h-329.902c-14.775 0-26.794 12.02-26.794 26.795v251.911c0 13.712-11.156 24.867-24.868 24.867h-.003c-13.71 0-24.864-11.154-24.864-24.864v-244.306c0-4.132-3.349-7.48-7.48-7.48s-7.481 3.348-7.481 7.48v244.308c0 21.96 17.866 39.825 39.825 39.825h411.542c14.775 0 26.794-12.019 26.794-26.794v-57.683c18.699-.234 33.839-15.272 33.839-33.733v-37.623c0-27.192-13.298-51.387-33.839-66.666zm-279.626-140.386c-2.883 0-5.432-1.732-6.495-4.412l-11.881-29.976h95.331c2.883 0 5.432 1.732 6.495 4.411l11.882 29.977zm298.504 244.675c0 10.194-8.395 18.517-18.816 18.778v-34.295c0-14.184-11.707-25.723-26.096-25.723h-6.057c-4.131 0-7.48 3.349-7.48 7.48 0 4.132 3.349 7.48 7.48 7.48h6.057c5.747 0 10.49 4.23 11.074 9.637v108.058c0 6.525-5.308 11.833-11.834 11.833h-380.449c5.466-6.819 8.738-15.468 8.738-24.867v-251.91c0-6.526 5.308-11.834 11.834-11.834h359.877c6.525 0 11.834 5.308 11.834 11.834v60.322c-11.036-5.138-23.362-8.025-36.366-8.025h-39.621v-19.686c0-4.74-2.612-9.045-6.818-11.232-4.206-2.19-9.23-1.857-13.112.865l-82.848 58.092c-6.068 4.254-9.69 11.219-9.69 18.629s3.622 14.374 9.69 18.629l82.847 58.091c3.881 2.722 8.905 3.056 13.112.866 4.206-2.188 6.819-6.492 6.819-11.232v-18.068h23.92c4.131 0 7.48-3.349 7.48-7.48 0-4.132-3.349-7.48-7.48-7.48h-28.047c-5.974 0-10.834 4.86-10.834 10.834v17.774l-79.228-55.553c-2.109-1.479-3.318-3.804-3.318-6.38s1.209-4.901 3.318-6.38l79.228-55.554v19.393c0 5.974 4.86 10.834 10.834 10.834h43.748c38.711 0 70.205 30.796 70.205 68.649v37.621z"/></g></g></svg>