<svg id="Capa_1" enable-background="new 0 0 512 512" height="512" viewBox="0 0 512 512" width="512" xmlns="http://www.w3.org/2000/svg"><g><g><path d="m190.745 352.065c4.128 0 7.475-3.346 7.475-7.475s-3.347-7.475-7.475-7.475h-61.662c-4.129 0-7.475 3.346-7.475 7.475s3.347 7.475 7.475 7.475z"/><path d="m109.647 374.234c0 4.129 3.347 7.475 7.475 7.475h98.093c4.129 0 7.475-3.346 7.475-7.475s-3.347-7.475-7.475-7.475h-98.093c-4.128 0-7.475 3.346-7.475 7.475z"/><path d="m501.765 231.423-26.444-26.443c-1.271-1.271-2.624-2.429-4.045-3.476l6.679-38.907c.072-.418.108-.841.108-1.264 0-13.818-11.241-25.059-25.059-25.059h-17.045c-4.129 0-7.475 3.346-7.475 7.475s3.347 7.475 7.475 7.475h17.045c5.389 0 9.807 4.239 10.094 9.557l-5.936 34.577c-2.137-.403-4.327-.616-6.549-.616-9.334 0-18.108 3.635-24.708 10.235l-109.446 109.446c-2.92 2.92-2.92 7.653 0 10.573 2.919 2.918 7.653 2.918 10.572 0l57.542-57.543 54.718 54.719-100.329 100.327-54.718-54.718 18.234-18.233c2.92-2.92 2.92-7.653 0-10.573-2.919-2.917-7.652-2.919-10.572 0 0 0-23.537 23.539-23.546 23.548-.035.035-.065.074-.099.11-.853.896-1.467 1.987-1.794 3.183-.006.022-6.357 24.88-11.967 46.835h-188.467c1.746-2.512 3.291-5.331 4.622-8.45 1.552-3.635 2.689-7.542 3.476-11.945l41.193-232.111c.591-5.086 4.908-8.921 10.041-8.921h275.974c4.129 0 7.475-3.346 7.475-7.475s-3.347-7.475-7.475-7.475h-2.746v-15.319c0-13.818-11.241-25.059-25.059-25.059h-90.224l-12.641-31.889c-3.14-7.92-10.673-13.038-19.193-13.038h-198.86c-11.384 0-20.646 9.262-20.646 20.646v18.585c0 3.14-2.555 5.695-5.695 5.695h-1.215c-13.818 0-25.06 11.241-25.06 25.059v269.725c0 20.359 16.563 36.923 36.923 36.923h213.758c-2.665 10.432-4.591 17.967-4.591 17.967-1.095 4.286.119 8.711 3.246 11.838 3.066 3.066 7.626 4.323 11.838 3.246 0 0 79.695-20.36 79.724-20.368 1.253-.336 2.404-.993 3.319-1.901.002-.002 4.027-4.027 10.783-10.783h56.596c13.587 0 24.683-10.869 25.05-24.367l11.87-69.147c29.258-29.257 53.249-53.247 53.249-53.247 6.6-6.6 10.235-15.375 10.235-24.709 0-9.333-3.635-18.108-10.235-24.708zm-250.289-165.505c2.35 0 4.428 1.411 5.294 3.597l10.457 26.38h-85.813c-2.35 0-4.428-1.411-5.294-3.597l-10.456-26.38zm-194.57 332.412c-4.172 9.771-10.522 14.321-19.981 14.321h-.002c-12.116 0-21.972-9.856-21.972-21.972v-269.725c0-5.573 4.535-10.108 10.109-10.108h1.215c11.384 0 20.646-9.262 20.646-20.646v-18.587c0-3.14 2.555-5.695 5.695-5.695h93.096c2.35 0 4.428 1.411 5.295 3.597l11.215 28.293c3.14 7.92 10.673 13.038 19.193 13.038h192.12c5.574 0 10.108 4.535 10.108 10.108v15.319h-258.278c-12.723 0-23.425 9.521-24.892 22.148l-41.06 231.206c-.585 3.275-1.405 6.121-2.507 8.703zm204.733 46.774 4.833-18.916 14.084 14.084zm35.76-9.133-26.626-26.626 6.895-26.996 46.728 46.728zm124.414-34.693c-.072.418-.108.841-.108 1.264 0 5.573-4.534 10.108-10.108 10.108h-41.645c16.473-16.473 38.723-38.722 60.251-60.25zm28.05-89.679-54.718-54.719 12.827-12.827 54.718 54.718zm41.33-41.331-17.931 17.931-54.718-54.718 17.932-17.931c3.776-3.776 8.796-5.856 14.136-5.856s10.361 2.08 14.137 5.857l26.445 26.444c3.776 3.776 5.856 8.796 5.856 14.136-.001 5.34-2.081 10.361-5.857 14.137z"/></g></g></svg>