<svg id="Capa_1" enable-background="new 0 0 511.912 511.912" height="512" viewBox="0 0 511.912 511.912" width="512" xmlns="http://www.w3.org/2000/svg"><g><g><path d="m488.774 237.231h-10.712v-12.955c0-12.836-10.379-23.279-23.137-23.279h-64.902v-89.498c0-12.836-10.38-23.279-23.138-23.279h-10.712v-12.955c0-12.836-10.38-23.278-23.138-23.278h-79.64l-11.036-28.097c-2.917-7.423-9.931-12.22-17.869-12.22h-176.847c-10.594 0-19.212 8.666-19.212 19.318v16.679c0 2.382-1.89 4.319-4.213 4.319h-1.081c-12.758 0-23.137 10.444-23.137 23.28v146.336c0 4.143 3.358 7.5 7.5 7.5s7.5-3.357 7.5-7.5v-146.336c0-4.565 3.65-8.279 8.137-8.279h1.081c10.594 0 19.213-8.667 19.213-19.319v-16.68c0-2.381 1.89-4.318 4.212-4.318h82.791c1.728 0 3.262 1.063 3.908 2.706l9.974 25.39c2.917 7.424 9.931 12.221 17.869 12.221h170.852c4.487 0 8.138 3.714 8.138 8.278v12.955h-265.658c-12.758 0-23.137 10.443-23.137 23.279v205.805c0 10.437-8.384 18.928-18.69 18.928h-.002c-10.304 0-18.687-8.489-18.687-18.925v-60.679c0-4.143-3.358-7.5-7.5-7.5s-7.5 3.357-7.5 7.5v60.679c0 18.706 15.112 33.925 33.687 33.925h88.202v115.086c0 18.706 15.112 33.925 33.687 33.925h.002 333.196c12.758 0 23.138-10.443 23.138-23.279v-216.454c-.001-12.836-10.381-23.279-23.139-23.279zm-326.59-185.245c-1.728 0-3.262-1.063-3.908-2.706l-8.882-22.61h75.096c1.729 0 3.262 1.062 3.908 2.705l8.882 22.611zm-40.295 172.29v111.955h-60.252c3.625-5.41 5.743-11.925 5.743-18.928v-205.804c0-4.565 3.65-8.279 8.137-8.279h291.369c4.487 0 8.138 3.714 8.138 8.279v88.834l-10.774-27.429c-2.916-7.425-9.931-12.223-17.87-12.223h-176.848c-10.594 0-19.212 8.666-19.212 19.318v16.679c0 2.382-1.89 4.319-4.213 4.319h-1.081c-12.757 0-23.137 10.443-23.137 23.279zm237.28-23.279h-75.096c-1.729 0-3.263-1.063-3.908-2.706l-8.882-22.61h75.096c1.729 0 3.263 1.062 3.908 2.706zm137.743 275.966c0 4.565-3.65 8.279-8.138 8.279h-305.248c3.625-5.41 5.743-11.925 5.743-18.928v-205.804c0-4.564 3.65-8.278 8.137-8.278h197.46c4.143 0 7.5-3.357 7.5-7.5s-3.357-7.5-7.5-7.5h-197.46c-12.758 0-23.137 10.442-23.137 23.278v205.805c0 10.437-8.384 18.928-18.69 18.928h-.002c-10.304 0-18.687-8.489-18.687-18.925v-242.042c0-4.565 3.65-8.279 8.137-8.279h1.081c10.594 0 19.213-8.667 19.213-19.319v-16.679c0-2.381 1.89-4.318 4.212-4.318h82.791c1.728 0 3.262 1.062 3.908 2.706l9.974 25.389c2.916 7.425 9.931 12.222 17.869 12.222h170.853c4.486 0 8.137 3.714 8.137 8.279v12.955h-33.741c-4.143 0-7.5 3.357-7.5 7.5s3.357 7.5 7.5 7.5h59.453c4.487 0 8.138 3.714 8.138 8.278v216.453z"/></g></g></svg>