<svg id="Capa_1" enable-background="new 0 0 512 512" height="512" viewBox="0 0 512 512" width="512" xmlns="http://www.w3.org/2000/svg"><g><g><path d="m120.34 374.769h64.725c4.134 0 7.485-3.351 7.485-7.485s-3.351-7.485-7.485-7.485h-64.725c-4.134 0-7.485 3.351-7.485 7.485s3.351 7.485 7.485 7.485z"/><path d="m223.306 390.916h-102.966c-4.134 0-7.485 3.351-7.485 7.485s3.351 7.485 7.485 7.485h102.966c4.134 0 7.485-3.351 7.485-7.485s-3.351-7.485-7.485-7.485z"/><path d="m412.041 48.553c-35.698 0-67.078 18.814-84.764 47.043h-10.077l-14.453-36.464c-3.392-8.556-11.53-14.085-20.735-14.085l-223.739.001c-12.298 0-22.303 10.005-22.303 22.303v20.912c0 4.044-3.289 7.333-7.333 7.333h-1.367c-15.037.001-27.27 12.233-27.27 27.269v189.295c0 4.134 3.351 7.485 7.485 7.485s7.485-3.351 7.485-7.485v-189.295c0-6.781 5.517-12.299 12.3-12.299h1.367c12.298 0 22.303-10.005 22.303-22.303v-20.912c0-4.044 3.289-7.333 7.333-7.333h104.743c3.027 0 5.702 1.818 6.817 4.63l12.618 31.834c3.392 8.556 11.531 14.084 20.734 14.084h116.386c-3.917 9.511-6.413 19.753-7.209 30.46h-218.825c-15.036 0-27.269 12.232-27.269 27.269v258.037c0 14.144-11.506 25.65-25.649 25.65h-.003c-14.142 0-25.647-11.505-25.647-25.647v-79.25c0-4.134-3.351-7.485-7.485-7.485s-7.485 3.351-7.485 7.485v79.25c0 22.396 18.22 40.617 40.617 40.617h.003 421.546c15.036 0 27.269-12.233 27.269-27.27v-227.983c14.097-17.233 22.566-39.238 22.566-63.187 0-55.117-44.842-99.959-99.959-99.959zm-208.855 47.044c-3.026 0-5.702-1.819-6.817-4.631l-12.266-30.948h97.91c3.027 0 5.703 1.818 6.818 4.631l12.267 30.948zm208.855 137.903c-18.466 0-36.024-5.818-50.775-16.827-3.314-2.472-8.003-1.79-10.475 1.522-2.473 3.313-1.79 8.003 1.522 10.475 17.358 12.953 38.011 19.799 59.728 19.799 23.597 0 45.306-8.224 62.424-21.95v213.162c0 6.782-5.517 12.3-12.299 12.3h-390.072c5.714-6.999 9.145-15.931 9.145-25.65v-258.035c0-6.781 5.517-12.299 12.299-12.299h218.832c1.193 15.991 6.189 31.447 14.642 45.091 2.178 3.514 6.792 4.597 10.306 2.42 3.513-2.176 4.597-6.79 2.42-10.305-8.298-13.393-12.684-28.847-12.684-44.692 0-46.863 38.126-84.989 84.988-84.989 46.863 0 84.989 38.126 84.989 84.989-.001 46.863-38.127 84.989-84.99 84.989z"/><circle cx="412.041" cy="192.322" r="7.983"/><path d="m415.496 89.404c-18.475-1.813-34.943 11.107-37.499 29.423-.219 1.577-.33 3.186-.33 4.781 0 4.134 3.351 7.485 7.485 7.485s7.485-3.351 7.485-7.485c0-.908.063-1.823.187-2.716 1.442-10.329 10.742-17.612 21.209-16.59 9.232.908 16.696 8.587 17.362 17.864.567 7.917-3.648 15.309-10.739 18.834-9.93 4.934-16.099 14.8-16.099 25.747 0 4.134 3.351 7.485 7.485 7.485s7.485-3.351 7.485-7.485c0-5.224 2.985-9.953 7.792-12.341 12.55-6.239 20.011-19.315 19.007-33.31-1.18-16.456-14.434-30.08-30.83-31.692z"/></g></g></svg>