<svg id="Capa_1" enable-background="new 0 0 512.445 512.445" height="512" viewBox="0 0 512.445 512.445" width="512" xmlns="http://www.w3.org/2000/svg"><g><g><path d="m129.507 352.249h61.864c4.143 0 7.5-3.357 7.5-7.5s-3.357-7.5-7.5-7.5h-61.864c-4.143 0-7.5 3.357-7.5 7.5s3.357 7.5 7.5 7.5z"/><path d="m215.922 366.991h-98.415c-4.143 0-7.5 3.357-7.5 7.5s3.357 7.5 7.5 7.5h98.415c4.143 0 7.5-3.357 7.5-7.5s-3.358-7.5-7.5-7.5z"/><path d="m501.778 400.03-52.308-52.308c-.5-.5-1.026-.955-1.563-1.391l31.615-184.173c.072-.419.108-.844.108-1.269 0-13.863-11.278-25.142-25.142-25.142h-54.588v-15.37c0-13.863-11.278-25.142-25.142-25.142h-90.52l-12.682-31.993c-3.149-7.947-10.708-13.082-19.257-13.082h-199.511c-11.422 0-20.714 9.292-20.714 20.714v18.648c0 3.15-2.563 5.713-5.714 5.713h-1.219c-13.863.002-25.141 11.281-25.141 25.145v270.61c0 20.426 16.617 37.043 37.043 37.043h375.904c3.975 0 7.735-.931 11.079-2.581l26.165 26.165c7.111 7.11 16.452 10.666 25.794 10.666 9.341 0 18.682-3.556 25.793-10.666 14.222-14.223 14.222-37.364 0-51.587zm-249.477-334.868c2.358 0 4.443 1.416 5.312 3.608l10.491 26.467h-86.094c-2.358 0-4.443-1.416-5.312-3.607l-10.491-26.468zm-186.051 347.871c1.752-2.521 3.302-5.349 4.638-8.477 1.558-3.647 2.697-7.567 3.486-11.984l41.329-232.873c.593-5.103 4.923-8.95 10.073-8.95h41.873c4.143 0 7.5-3.357 7.5-7.5s-3.357-7.5-7.5-7.5h-41.873c-12.766 0-23.501 9.552-24.974 22.221l-41.194 231.964c-.587 3.286-1.41 6.142-2.516 8.731-4.187 9.802-10.557 14.367-20.047 14.367h-.003c-12.153.001-22.042-9.888-22.042-22.042v-270.61c0-5.593 4.55-10.143 10.142-10.143h1.219c11.422 0 20.714-9.292 20.714-20.713v-18.648c0-3.15 2.563-5.714 5.714-5.714h93.402c2.357 0 4.442 1.416 5.311 3.608l11.252 28.387c3.149 7.945 10.708 13.08 19.257 13.08h192.75c5.592 0 10.142 4.55 10.142 10.142v15.37h-182.907c-4.143 0-7.5 3.357-7.5 7.5s3.357 7.5 7.5 7.5h252.493c5.407 0 9.839 4.253 10.127 9.589l-31.178 181.628c-1.937.182-3.853.644-5.68 1.388l-20.116-20.116c21.514-36.727 16.543-84.809-14.927-116.279-37.385-37.383-98.211-37.383-135.596 0-37.383 37.384-37.383 98.212 0 135.596 18.692 18.691 43.245 28.037 67.798 28.037 16.786 0 33.568-4.374 48.481-13.11l20.116 20.116c-2.945 7.233-1.49 15.853 4.369 21.713l13.724 13.724h-345.357zm326.465-70.48c2.198-2.198 4.255-4.484 6.195-6.834l17.138 17.138-13.029 13.029-17.138-17.138c2.35-1.939 4.636-3.997 6.834-6.195zm-10.608-10.607c-31.535 31.535-82.846 31.535-114.381 0s-31.535-82.846 0-114.381c15.768-15.768 36.479-23.651 57.19-23.651s41.423 7.884 57.19 23.651c31.537 31.535 31.537 82.846.001 114.381zm109.064 109.063c-8.374 8.376-22 8.374-30.372 0l-52.308-52.308c-1.951-1.95-1.951-5.124 0-7.074l23.298-23.298c.975-.976 2.256-1.463 3.537-1.463s2.563.487 3.537 1.463l52.308 52.308c8.374 8.373 8.374 21.999 0 30.372z"/><path d="m369.339 230.334c-24.494-24.494-64.35-24.494-88.844 0s-24.494 64.35.001 88.844c12.246 12.246 28.333 18.369 44.42 18.369 16.088 0 32.177-6.124 44.425-18.372 1.419-1.42 2.782-2.919 4.05-4.454 2.638-3.193 2.188-7.921-1.006-10.559-3.194-2.639-7.922-2.187-10.559 1.006-.969 1.172-2.01 2.317-3.094 3.402-18.646 18.646-48.985 18.645-67.63 0-18.646-18.646-18.646-48.983 0-67.629 18.644-18.646 48.983-18.646 67.629-.001 9.432 9.433 14.521 22.49 13.965 35.827-.173 4.138 3.042 7.633 7.181 7.806 4.116.194 7.634-3.041 7.806-7.181.731-17.515-5.955-34.668-18.344-47.058z"/></g></g></svg>