<svg id="Capa_1" enable-background="new 0 0 512 512" height="512" viewBox="0 0 512 512" width="512" xmlns="http://www.w3.org/2000/svg"><g><g><path d="m117.799 401.865h63.265c4.136 0 7.489-3.353 7.489-7.489s-3.353-7.49-7.489-7.49h-63.265c-4.136 0-7.489 3.353-7.489 7.49s3.353 7.489 7.489 7.489z"/><path d="m117.799 432.28h100.643c4.136 0 7.489-3.353 7.489-7.489s-3.353-7.49-7.489-7.49h-100.643c-4.136 0-7.489 3.353-7.489 7.49s3.353 7.489 7.489 7.489z"/><path d="m497.152 106.771h-21.178c-.808-2.209-1.705-4.381-2.688-6.504l14.969-14.97c2.805-2.805 4.35-6.534 4.35-10.5s-1.544-7.695-4.349-10.5l-20.524-20.524c-5.789-5.789-15.209-5.788-20.998 0l-14.971 14.971c-2.124-.983-4.295-1.88-6.504-2.688v-21.177c0-8.188-6.661-14.848-14.848-14.848h-29.025c-8.187 0-14.848 6.661-14.848 14.848v21.178c-2.209.807-4.38 1.705-6.504 2.688l-14.971-14.971c-2.805-2.804-6.533-4.348-10.499-4.348s-7.695 1.545-10.499 4.348l-20.525 20.525c-2.804 2.805-4.348 6.533-4.348 10.499s1.545 7.695 4.349 10.498l14.971 14.972c-.983 2.123-1.88 4.295-2.688 6.504h-14.157l-5.415-13.66c-3.341-8.429-11.359-13.877-20.427-13.877h-218.693c-12.116 0-21.973 9.857-21.973 21.974v20.44c0 3.857-3.138 6.995-6.995 6.995h-1.336c-14.793-.002-26.828 12.033-26.828 26.825v296.627c0 21.986 17.887 39.873 39.873 39.873h412.043c14.793 0 26.827-12.035 26.827-26.827v-109.296c0-4.137-3.353-7.49-7.489-7.49s-7.489 3.353-7.489 7.49v109.296c0 6.534-5.315 11.849-11.848 11.849h-380.913c5.472-6.827 8.749-15.487 8.749-24.897v-252.219c0-6.534 5.315-11.849 11.849-11.849h210.978c-2.193 2.652-3.387 5.953-3.387 9.439 0 3.966 1.544 7.694 4.349 10.5l20.524 20.523c2.804 2.805 6.533 4.349 10.499 4.349s7.695-1.545 10.499-4.348l14.971-14.971c2.123.983 4.294 1.88 6.504 2.688v21.177c0 8.188 6.661 14.848 14.848 14.848h29.025c8.187 0 14.848-6.661 14.848-14.848v-21.177c2.21-.808 4.38-1.706 6.504-2.688l14.971 14.971c4.599 4.599 11.488 5.531 17.03 2.821v89.489c0 4.137 3.353 7.489 7.489 7.489s7.489-3.353 7.489-7.489v-103.32l9.513-9.513c2.805-2.805 4.349-6.534 4.349-10.5s-1.545-7.695-4.349-10.499l-14.971-14.97c.983-2.124 1.88-4.295 2.688-6.504h21.178c8.187 0 14.848-6.661 14.848-14.848v-29.025c.001-8.189-6.66-14.849-14.847-14.849zm-221.326-12.559c2.887 0 5.439 1.734 6.503 4.418l4.192 10.577c-4.043 2.656-6.722 7.224-6.722 12.412v7.023h-81.023c-2.886 0-5.438-1.734-6.502-4.417l-11.896-30.012h95.448zm-184.225 78.836c-14.793 0-26.827 12.035-26.827 26.827v252.218c0 13.729-11.169 24.897-24.897 24.897h-.003c-13.727 0-24.895-11.168-24.895-24.894v-296.627c0-6.534 5.315-11.849 11.849-11.849h1.336c12.116 0 21.974-9.857 21.974-21.974v-20.44c0-3.857 3.138-6.995 6.995-6.995h102.381c2.887 0 5.439 1.734 6.503 4.418l12.333 31.114c3.341 8.429 11.359 13.877 20.427 13.877h81.022v7.023c0 8.188 6.661 14.848 14.848 14.848h21.178c.808 2.21 1.706 4.38 2.688 6.504l-1.051 1.051h-225.861zm405.42-22.535h-26.465c-3.327 0-6.254 2.194-7.188 5.387-1.427 4.88-3.37 9.578-5.774 13.965-1.599 2.919-1.081 6.543 1.272 8.896l18.706 18.705-20.338 20.339-18.706-18.707c-2.353-2.352-5.977-2.872-8.896-1.271-4.384 2.404-9.082 4.345-13.964 5.774-3.193.933-5.387 3.862-5.387 7.188v26.464h-28.764v-26.464c0-3.326-2.194-6.254-5.387-7.188-4.883-1.429-9.581-3.371-13.963-5.773-2.919-1.601-6.543-1.082-8.896 1.271l-18.706 18.707-20.339-20.339 18.706-18.705c2.353-2.353 2.871-5.977 1.272-8.896-2.404-4.386-4.347-9.085-5.775-13.965-.934-3.193-3.862-5.387-7.188-5.387h-26.465v-28.764h26.465c3.326 0 6.254-2.194 7.188-5.387 1.428-4.881 3.371-9.578 5.774-13.963 1.6-2.919 1.082-6.542-1.272-8.896l-18.706-18.706 20.339-20.339 18.706 18.707c2.354 2.353 5.978 2.873 8.895 1.272 4.386-2.404 9.085-4.346 13.964-5.774 3.193-.934 5.387-3.862 5.387-7.188v-26.466h28.764v26.465c0 3.326 2.194 6.255 5.387 7.188 4.878 1.427 9.577 3.37 13.965 5.774 2.919 1.601 6.542 1.082 8.895-1.272l18.706-18.707 20.338 20.339-18.706 18.707c-2.354 2.353-2.871 5.977-1.272 8.896 2.404 4.385 4.346 9.083 5.774 13.963.934 3.193 3.861 5.387 7.188 5.387h26.465v28.763z"/><path d="m395.899 87.825c-4.903 0-9.744.733-14.386 2.181-3.949 1.23-6.153 5.429-4.923 9.378s5.43 6.15 9.378 4.922c3.199-.997 6.54-1.502 9.931-1.502 18.377 0 33.328 14.95 33.328 33.328 0 18.377-14.951 33.328-33.328 33.328s-33.328-14.951-33.328-33.328c0-4.398.841-8.667 2.499-12.69 1.576-3.825-.246-8.202-4.07-9.779-3.823-1.572-8.202.248-9.778 4.07-2.408 5.843-3.629 12.033-3.629 18.399 0 26.636 21.671 48.307 48.307 48.307s48.307-21.67 48.307-48.307-21.671-48.307-48.308-48.307z"/></g></g></svg>