<svg id="Capa_1" enable-background="new 0 0 512 512" height="512" viewBox="0 0 512 512" width="512" xmlns="http://www.w3.org/2000/svg"><g><g><path d="m504.515 218.172c4.134 0 7.485-3.351 7.485-7.485v-46.563c0-15.555-12.655-28.209-28.21-28.209h-16.652v-19.381c0-15.555-12.655-28.21-28.21-28.21h-107.24l-15.23-38.423c-3.499-8.826-11.894-14.53-21.389-14.53h-234.381c-12.687 0-23.008 10.322-23.008 23.009v21.906c0 4.432-3.606 8.038-8.038 8.038h-1.432c-15.555 0-28.21 12.655-28.21 28.21v317.903c0 23.265 18.927 42.192 42.191 42.192h441.599c15.555 0 28.21-12.655 28.21-28.21v-203.275c0-4.134-3.351-7.485-7.485-7.485s-7.485 3.351-7.485 7.485v203.275c0 7.301-5.939 13.24-13.24 13.24h-409.382c6.225-7.353 9.982-16.858 9.982-27.225v-270.31c0-7.3 5.939-13.239 13.24-13.239h386.16c7.3 0 13.24 5.939 13.24 13.239v46.563c0 4.135 3.351 7.485 7.485 7.485zm-209.446-167.831c3.317 0 6.25 1.992 7.472 5.076l13.043 32.907h-103.091c-3.317 0-6.25-1.993-7.473-5.076l-13.043-32.907zm157.099 85.574h-354.538c-15.555 0-28.21 12.654-28.21 28.209v270.31c0 15.012-12.213 27.225-27.225 27.225h-.003c-15.01 0-27.221-12.212-27.221-27.222v-317.903c0-7.301 5.939-13.24 13.24-13.24h1.432c12.687 0 23.008-10.321 23.008-23.008v-21.906c0-4.432 3.606-8.039 8.038-8.039h109.725c3.317 0 6.251 1.993 7.473 5.077l13.218 33.347c3.499 8.825 11.895 14.529 21.389 14.529h226.436c7.3 0 13.24 5.939 13.24 13.24v19.381z"/><path d="m395.413 255.873c0-23.148-18.831-41.979-41.979-41.979s-41.979 18.832-41.979 41.979 18.831 41.979 41.979 41.979 41.979-18.831 41.979-41.979zm-68.988 0c0-14.893 12.116-27.01 27.009-27.01s27.009 12.116 27.009 27.01-12.116 27.01-27.009 27.01-27.009-12.117-27.009-27.01z"/><path d="m269.965 255.873c0-23.148-18.831-41.979-41.979-41.979s-41.979 18.832-41.979 41.979 18.832 41.979 41.979 41.979c23.147.001 41.979-18.831 41.979-41.979zm-68.989 0c0-14.893 12.116-27.01 27.009-27.01s27.009 12.116 27.009 27.01-12.116 27.01-27.009 27.01c-14.892 0-27.009-12.117-27.009-27.01z"/><path d="m157.776 385.069v6.095c0 4.134 3.351 7.485 7.485 7.485h250.898c4.134 0 7.485-3.351 7.485-7.485v-6.095c0-38.714-31.496-70.209-70.21-70.209-27.379 0-51.132 15.763-62.703 38.681-1.895-3.754-4.129-7.364-6.715-10.785-2.494-3.298-7.189-3.95-10.485-1.456-3.297 2.494-3.949 7.188-1.455 10.485 7.014 9.275 10.848 20.276 11.132 31.894h-110.445c.741-29.819 25.228-53.849 55.222-53.849 6.774 0 13.384 1.209 19.647 3.593 3.863 1.474 8.187-.469 9.658-4.331 1.471-3.863-.469-8.188-4.332-9.658-7.97-3.035-16.373-4.574-24.974-4.574-38.712 0-70.208 31.495-70.208 70.209zm195.658-55.239c29.994 0 54.482 24.03 55.223 53.849h-110.445c.741-29.819 25.228-53.849 55.222-53.849z"/></g></g></svg>