<svg id="Capa_1" enable-background="new 0 0 512 512" height="512" viewBox="0 0 512 512" width="512" xmlns="http://www.w3.org/2000/svg"><g><g><path d="m117.75 339.418h63.238c4.135 0 7.486-3.351 7.486-7.486s-3.352-7.486-7.486-7.486h-63.238c-4.135 0-7.486 3.351-7.486 7.486s3.352 7.486 7.486 7.486z"/><path d="m117.75 369.821h100.602c4.135 0 7.486-3.351 7.486-7.486s-3.352-7.486-7.486-7.486h-100.602c-4.135 0-7.486 3.351-7.486 7.486s3.352 7.486 7.486 7.486z"/><path d="m478.546 310.196v-172.684c0-14.786-12.03-26.816-26.816-26.816h-15.025v-17.572c0-14.786-12.03-26.816-26.816-26.816h-46.539c-4.135 0-7.486 3.351-7.486 7.486s3.351 7.486 7.486 7.486h46.539c6.531 0 11.844 5.313 11.844 11.844v17.571h-330.17c-14.786 0-26.816 12.03-26.816 26.816v213.297c0 4.135 3.352 7.486 7.486 7.486 4.135 0 7.486-3.351 7.486-7.486v-213.296c0-6.531 5.313-11.844 11.844-11.844h360.166c6.531 0 11.844 5.313 11.844 11.844v160.813c-16.881-11.106-37.067-17.579-58.74-17.579-59.093 0-107.168 48.075-107.168 107.167 0 9.178 1.162 18.091 3.342 26.599h-230.033c5.47-6.824 8.745-15.48 8.745-24.887v-3.934c0-4.135-3.352-7.486-7.486-7.486-4.135 0-7.486 3.351-7.486 7.486v3.934c0 13.723-11.164 24.887-24.887 24.887h-.003c-13.721 0-24.884-11.163-24.884-24.884v-296.504c0-6.531 5.313-11.844 11.844-11.844h1.335c12.112 0 21.965-9.853 21.965-21.964v-20.432c0-3.855 3.136-6.992 6.992-6.992h102.339c2.885 0 5.437 1.733 6.5 4.416l12.329 31.102c3.34 8.426 11.355 13.87 20.419 13.87h129.501c4.135 0 7.486-3.351 7.486-7.486s-3.351-7.486-7.486-7.486h-17.986l-14.08-35.518c-3.34-8.426-11.355-13.871-20.42-13.871h-218.603c-12.111 0-21.964 9.853-21.964 21.965v20.432c0 3.855-3.137 6.991-6.992 6.991h-1.335c-14.787.001-26.817 12.03-26.817 26.817v296.504c0 21.977 17.88 39.857 39.857 39.857h266.2c16.267 38.505 54.416 65.596 98.775 65.596 59.092 0 107.167-48.075 107.167-107.167.001-30.563-12.861-58.176-33.453-77.718zm-202.835-278.304c2.885 0 5.437 1.733 6.5 4.416l11.891 30h-95.408c-2.885 0-5.437-1.733-6.5-4.415l-11.892-30.001zm129.122 448.216c-50.837 0-92.196-41.358-92.196-92.195s41.359-92.195 92.196-92.195 92.195 41.358 92.195 92.195c-.001 50.837-41.359 92.195-92.195 92.195z"/><path d="m377.78 339.764c-.025-.068-.053-.136-.081-.205-1.43-3.477-4.782-5.723-8.541-5.723-.003 0-.007 0-.01 0-3.763.004-7.114 2.257-8.539 5.74-.023.057-.046.113-.067.171l-28.992 76.122c-1.472 3.863.468 8.188 4.332 9.66 3.859 1.472 8.188-.466 9.66-4.332l5.384-14.136h36.248l5.327 14.116c1.131 2.997 3.98 4.845 7.005 4.845.878 0 1.772-.156 2.643-.484 3.868-1.459 5.82-5.779 4.36-9.647zm-21.151 52.323 12.504-32.832 12.391 32.832z"/><path d="m447.697 364.203c-5.826 0-11.279 1.622-15.936 4.435v-19.956c0-4.135-3.351-7.486-7.486-7.486s-7.486 3.351-7.486 7.486v69.85c0 4.135 3.351 7.486 7.486 7.486 3.173 0 5.878-1.976 6.968-4.763 4.769 3.012 10.409 4.763 16.454 4.763 17.042 0 30.907-13.865 30.907-30.907 0-17.043-13.865-30.908-30.907-30.908zm0 46.843c-8.787 0-15.936-7.148-15.936-15.935s7.149-15.936 15.936-15.936 15.935 7.149 15.935 15.936c-.001 8.787-7.149 15.935-15.935 15.935z"/></g></g></svg>