<svg id="Capa_1" enable-background="new 0 0 512 512" height="512" viewBox="0 0 512 512" width="512" xmlns="http://www.w3.org/2000/svg"><g><g><path d="m129.073 351.562h61.657c4.129 0 7.475-3.346 7.475-7.475s-3.346-7.475-7.475-7.475h-61.657c-4.129 0-7.475 3.346-7.475 7.475s3.346 7.475 7.475 7.475z"/><path d="m215.198 366.255h-98.085c-4.129 0-7.475 3.346-7.475 7.475s3.346 7.475 7.475 7.475h98.085c4.129 0 7.475-3.346 7.475-7.475s-3.346-7.475-7.475-7.475z"/><path d="m509.269 290.719-29.175-40.396c-2.705-3.745-7.077-5.981-11.696-5.981h-4.6l14.116-82.232c.072-.417.108-.841.108-1.264 0-13.817-11.24-25.057-25.057-25.057h-54.406v-15.319c0-13.817-11.24-25.057-25.056-25.057h-90.217l-12.64-31.888c-3.14-7.919-10.673-13.036-19.191-13.036h-198.843c-11.384 0-20.644 9.261-20.644 20.644v18.585c0 3.14-2.555 5.695-5.695 5.695h-1.216c-13.817 0-25.057 11.241-25.057 25.057v269.703c0 20.357 16.562 36.919 36.92 36.919h252.802v19.993c0 7.955 6.471 14.426 14.426 14.426h193.427c7.955 0 14.426-6.471 14.426-14.426v-147.919c-.001-3.052-.945-5.973-2.732-8.447zm-257.814-225.28c2.349 0 4.428 1.412 5.294 3.596l10.456 26.378h-85.806c-2.349 0-4.428-1.412-5.294-3.596l-10.456-26.378zm38.266 193.329v153.374h-223.693c1.746-2.511 3.291-5.33 4.622-8.448 1.552-3.635 2.689-7.542 3.476-11.944l41.19-232.092c.59-5.084 4.905-8.919 10.038-8.919h24.75c4.129 0 7.475-3.346 7.475-7.475s-3.346-7.475-7.475-7.475h-24.75c-12.724 0-23.423 9.52-24.888 22.142l-41.057 231.19c-.585 3.274-1.405 6.12-2.508 8.702-4.172 9.769-10.52 14.319-19.979 14.319h-.002c-12.115 0-21.97-9.855-21.97-21.969v-269.703c0-5.573 4.534-10.108 10.107-10.108h1.216c11.384 0 20.644-9.261 20.644-20.644v-18.585c0-3.14 2.555-5.695 5.695-5.695h93.088c2.349 0 4.428 1.412 5.294 3.596l11.214 28.291c3.14 7.919 10.673 13.036 19.191 13.036h192.104c5.573 0 10.107 4.535 10.107 10.108v15.318h-198.479c-4.129 0-7.475 3.346-7.475 7.475s3.346 7.475 7.475 7.475h267.833c5.389 0 9.806 4.239 10.093 9.557l-14.427 84.047h-9.935-75.669-58.879c-7.954.001-14.426 6.472-14.426 14.427zm141.499.524v38.107c0 2.44-1.985 4.426-4.426 4.426h-51.868c-2.44 0-4.426-1.986-4.426-4.426v-38.107zm65.83 187.269h-27.88v-26.944c0-4.129-3.346-7.475-7.475-7.475s-7.475 3.346-7.475 7.475v26.944h-106.72v-81.734c0-2.44 1.985-4.426 4.426-4.426h97.87c2.44 0 4.426 1.985 4.426 4.426v19.598c0 4.129 3.346 7.475 7.475 7.475s7.475-3.346 7.475-7.475v-19.598c0-10.684-8.691-19.375-19.375-19.375h-97.87c-10.684 0-19.375 8.691-19.375 19.375v81.734h-27.88v-187.27h50.88v38.107c0 10.684 8.691 19.375 19.375 19.375h51.868c10.684 0 19.375-8.692 19.375-19.375v-38.107h21.96l28.92 40.043z"/><path d="m422.417 383.073h-43.112c-4.129 0-7.475 3.346-7.475 7.475s3.346 7.475 7.475 7.475h43.112c4.129 0 7.475-3.346 7.475-7.475s-3.346-7.475-7.475-7.475z"/><path d="m422.417 408.94h-43.112c-4.129 0-7.475 3.346-7.475 7.475s3.346 7.475 7.475 7.475h43.112c4.129 0 7.475-3.346 7.475-7.475s-3.346-7.475-7.475-7.475z"/></g></g></svg>