<svg id="Capa_1" enable-background="new 0 0 512 512" height="512" viewBox="0 0 512 512" width="512" xmlns="http://www.w3.org/2000/svg"><g><g><path d="m120.34 374.769h64.725c4.134 0 7.485-3.351 7.485-7.485s-3.351-7.485-7.485-7.485h-64.725c-4.134 0-7.485 3.351-7.485 7.485s3.351 7.485 7.485 7.485z"/><path d="m120.34 405.887h102.965c4.134 0 7.485-3.351 7.485-7.485s-3.351-7.485-7.485-7.485h-102.965c-4.134 0-7.485 3.351-7.485 7.485s3.351 7.485 7.485 7.485z"/><path d="m412.041 48.553c-35.698 0-67.079 18.814-84.765 47.044h-10.076l-14.454-36.464c-3.392-8.556-11.53-14.085-20.734-14.085l-178.062.001c-4.134 0-7.485 3.351-7.485 7.485s3.351 7.485 7.485 7.485h59.066c3.026 0 5.702 1.818 6.817 4.63l12.618 31.833c3.392 8.556 11.53 14.085 20.734 14.085h116.386c-3.917 9.511-6.413 19.752-7.209 30.46h-218.825c-15.036 0-27.269 12.232-27.269 27.269v258.037c0 14.144-11.506 25.65-25.649 25.65h-.003c-14.141 0-25.646-11.505-25.646-25.647v-303.471c0-6.781 5.517-12.299 12.299-12.299h1.367c12.298 0 22.303-10.005 22.303-22.303v-20.912c0-4.044 3.29-7.333 7.333-7.333h11.246c4.134 0 7.485-3.351 7.485-7.485s-3.351-7.485-7.485-7.485h-11.245c-12.298 0-22.304 10.005-22.304 22.303v20.912c0 4.044-3.29 7.333-7.333 7.333h-1.367c-15.036 0-27.269 12.233-27.269 27.269v303.471c0 22.396 18.22 40.617 40.616 40.617h421.551c15.036 0 27.269-12.233 27.269-27.27v-87.276c0-4.134-3.351-7.485-7.485-7.485s-7.485 3.351-7.485 7.485v87.276c0 6.782-5.517 12.3-12.299 12.3h-390.073c5.714-6.999 9.145-15.931 9.145-25.65v-258.037c0-6.781 5.517-12.299 12.299-12.299h218.825c3.841 51.635 47.08 92.473 99.679 92.473 23.597 0 45.307-8.224 62.424-21.95v90.778c0 4.134 3.351 7.485 7.485 7.485s7.485-3.351 7.485-7.485v-105.6c14.095-17.233 22.564-39.238 22.564-63.186 0-55.117-44.841-99.959-99.959-99.959zm-208.855 47.043c-3.026 0-5.702-1.818-6.817-4.631l-12.267-30.948h97.911c3.026 0 5.702 1.818 6.817 4.631l12.267 30.948zm208.855 137.904c-46.863 0-84.989-38.126-84.989-84.988 0-46.863 38.126-84.989 84.989-84.989s84.989 38.126 84.989 84.989c0 46.862-38.126 84.988-84.989 84.988z"/><path d="m463.226 119.781c0-5.999-2.336-11.638-6.577-15.877-4.241-4.242-9.88-6.578-15.878-6.578s-11.637 2.336-15.878 6.578l-12.852 12.852-12.851-12.852c-4.241-4.242-9.879-6.578-15.878-6.578-5.998 0-11.636 2.336-15.878 6.577s-6.578 9.88-6.578 15.878c0 5.999 2.336 11.638 6.577 15.877l12.852 12.853-12.852 12.851c-4.242 4.242-6.577 9.881-6.577 15.878 0 5.999 2.336 11.638 6.576 15.877 4.241 4.241 9.88 6.578 15.879 6.578s11.638-2.336 15.878-6.577l12.852-12.852 12.851 12.851c4.241 4.241 9.88 6.578 15.879 6.578 5.998 0 11.637-2.336 15.877-6.577 4.242-4.24 6.578-9.88 6.578-15.878s-2.336-11.637-6.577-15.878l-12.852-12.851 12.851-12.852c4.242-4.24 6.578-9.879 6.578-15.878zm-17.162 5.293-18.144 18.145c-2.923 2.923-2.923 7.661 0 10.585l18.144 18.144c1.414 1.413 2.192 3.293 2.192 5.292s-.778 3.879-2.192 5.292c-1.414 1.414-3.294 2.193-5.293 2.193s-3.879-.779-5.293-2.193l-18.144-18.144c-1.461-1.461-3.377-2.192-5.293-2.192s-3.831.731-5.293 2.192l-18.145 18.145c-1.413 1.413-3.292 2.192-5.292 2.192-1.999 0-3.879-.779-5.293-2.193-1.414-1.413-2.192-3.293-2.192-5.292s.778-3.879 2.192-5.292l18.145-18.144c1.404-1.404 2.192-3.308 2.192-5.293s-.789-3.889-2.192-5.292l-18.145-18.146c-1.414-1.413-2.192-3.293-2.192-5.292s.778-3.879 2.192-5.292c1.414-1.414 3.294-2.193 5.294-2.193 1.999 0 3.878.779 5.292 2.192l18.144 18.145c1.403 1.404 3.307 2.193 5.293 2.193s3.889-.788 5.293-2.193l18.145-18.145c1.414-1.413 3.293-2.192 5.292-2.192s3.878.779 5.293 2.193c1.414 1.413 2.192 3.293 2.192 5.292s-.778 3.879-2.192 5.293z"/></g></g></svg>