<svg id="Capa_1" enable-background="new 0 0 512 512" height="512" viewBox="0 0 512 512" width="512" xmlns="http://www.w3.org/2000/svg"><g><g><path d="m129.322 331.804h61.776c4.136 0 7.489-3.353 7.489-7.489s-3.353-7.489-7.489-7.489h-61.776c-4.136 0-7.489 3.353-7.489 7.489s3.352 7.489 7.489 7.489z"/><path d="m215.613 346.526h-98.274c-4.136 0-7.489 3.353-7.489 7.489 0 4.137 3.353 7.489 7.489 7.489h98.274c4.136 0 7.489-3.353 7.489-7.489s-3.353-7.489-7.489-7.489z"/><path d="m510.449 367.906c-.737-4.069-4.635-6.776-8.704-6.034-4.07.737-6.771 4.634-6.034 8.704.87 4.801 1.311 9.731 1.311 14.655 0 45.016-36.624 81.64-81.64 81.64s-81.64-36.623-81.64-81.64 36.624-81.641 81.64-81.641c28.021 0 53.766 14.121 68.867 37.774 2.225 3.486 6.856 4.509 10.342 2.282 3.487-2.225 4.508-6.856 2.282-10.343-10.888-17.054-26.46-29.91-44.465-37.359l26.428-153.957c.072-.418.108-.843.108-1.267 0-13.843-11.262-25.105-25.106-25.105h-54.51v-15.347c0-13.843-11.262-25.105-25.106-25.105h-90.391l-12.664-31.948c-3.145-7.935-10.693-13.062-19.229-13.062h-38.426c-4.136 0-7.489 3.353-7.489 7.489s3.353 7.489 7.489 7.489h38.426c2.354 0 4.436 1.414 5.304 3.603l10.476 26.429h-85.971c-2.354 0-4.436-1.414-5.304-3.603l-10.474-26.43h12.701c4.136 0 7.489-3.353 7.489-7.489s-3.353-7.489-7.489-7.489h-125.957c-11.406 0-20.684 9.279-20.684 20.684v18.621c0 3.146-2.559 5.706-5.706 5.706h-1.218c-13.843-.001-25.105 11.261-25.105 25.105v270.222c0 20.396 16.594 36.991 36.99 36.991h284.363c10.076 42.584 48.408 74.368 94.028 74.368 53.276 0 96.619-43.343 96.619-96.618 0-5.816-.522-11.646-1.551-17.325zm-453.438 10.249c-4.18 9.789-10.541 14.348-20.018 14.348h-.003c-12.137 0-22.012-9.875-22.012-22.012v-270.223c0-5.584 4.543-10.127 10.127-10.127h1.218c11.405 0 20.684-9.279 20.684-20.684v-18.621c0-3.146 2.56-5.706 5.706-5.706h93.268c2.354 0 4.436 1.414 5.304 3.603l11.235 28.345c3.145 7.935 10.693 13.062 19.229 13.062h192.474c5.584 0 10.127 4.543 10.127 10.127v15.347h-258.754c-12.747 0-23.468 9.538-24.937 22.187l-41.136 231.635c-.586 3.281-1.408 6.132-2.512 8.719zm262.025 14.347h-252.881c1.749-2.517 3.297-5.341 4.631-8.465 1.555-3.641 2.694-7.556 3.482-11.967l41.269-232.54c.592-5.094 4.916-8.936 10.059-8.936h328.242c5.399 0 9.825 4.247 10.112 9.575l-25.94 151.111c-7.314-1.748-14.896-2.668-22.629-2.668-53.276 0-96.619 43.343-96.619 96.619.001 2.446.094 4.87.274 7.271z"/><path d="m442.172 374.541c13.602 0 24.668-11.066 24.668-24.668s-11.066-24.669-24.668-24.669c-13.603 0-24.669 11.066-24.669 24.669 0 1.807.201 3.566.571 5.264l-20.784 11.946c-4.396-4.045-10.257-6.52-16.687-6.52-13.603 0-24.669 11.066-24.669 24.669s11.066 24.668 24.669 24.668c6.43 0 12.291-2.475 16.687-6.52l20.784 11.946c-.37 1.697-.571 3.457-.571 5.263 0 13.603 11.066 24.668 24.669 24.668 13.602 0 24.668-11.066 24.668-24.668s-11.066-24.669-24.668-24.669c-6.387 0-12.215 2.441-16.601 6.438l-20.844-11.979c.354-1.661.544-3.382.544-5.147s-.19-3.487-.544-5.148l20.843-11.98c4.386 3.996 10.214 6.437 16.602 6.437zm0-34.359c5.343 0 9.69 4.347 9.69 9.69s-4.347 9.69-9.69 9.69-9.69-4.347-9.69-9.69c-.001-5.343 4.346-9.69 9.69-9.69zm-61.569 54.739c-5.343 0-9.69-4.347-9.69-9.69s4.347-9.69 9.69-9.69 9.69 4.347 9.69 9.69c0 5.342-4.347 9.69-9.69 9.69zm61.569 15.977c5.343 0 9.69 4.347 9.69 9.69s-4.347 9.69-9.69 9.69-9.69-4.347-9.69-9.69c-.001-5.343 4.346-9.69 9.69-9.69z"/></g></g></svg>