<svg id="Capa_1" enable-background="new 0 0 512 512" height="512" viewBox="0 0 512 512" width="512" xmlns="http://www.w3.org/2000/svg"><g><g><path d="m117.704 360.211h63.214c4.133 0 7.483-3.35 7.483-7.483 0-4.134-3.35-7.483-7.483-7.483h-63.214c-4.133 0-7.483 3.35-7.483 7.483s3.35 7.483 7.483 7.483z"/><path d="m218.266 375.636h-100.562c-4.133 0-7.483 3.35-7.483 7.483 0 4.134 3.351 7.483 7.483 7.483h100.562c4.133 0 7.483-3.35 7.483-7.483.001-4.133-3.35-7.483-7.483-7.483z"/><path d="m478.358 304.439v-31.659c.337-.256.681-.499 1.006-.775 9.305-7.929 10.563-21.978 2.804-31.317-1.227-1.477-2.501-2.901-3.81-4.283v-78.022c0-14.781-12.024-26.806-26.805-26.806h-15.02v-17.565c0-14.781-12.025-26.806-26.806-26.806h-99.639l-14.074-35.503c-3.338-8.423-11.35-13.866-20.411-13.866h-218.517c-12.107 0-21.956 9.849-21.956 21.956v20.424c0 3.854-3.135 6.988-6.989 6.988h-1.335c-14.781.003-26.806 12.028-26.806 26.808v296.388c0 21.969 17.872 39.841 39.841 39.841h312.079c16.991 14.884 39.228 23.919 63.537 23.919 53.234 0 96.544-43.309 96.544-96.543-.001-29.227-13.058-55.46-33.643-73.179zm-202.754-251.634c2.884 0 5.434 1.732 6.496 4.414l11.888 29.988h-95.372c-2.884 0-5.434-1.733-6.497-4.413l-11.887-29.989zm-204.657 382.471c5.468-6.822 8.742-15.474 8.742-24.877v-34.188c0-4.133-3.351-7.483-7.483-7.483-4.133 0-7.483 3.35-7.483 7.483v34.188c0 13.717-11.158 24.876-24.875 24.877h-.006c-13.716 0-24.874-11.159-24.874-24.875v-296.388c0-6.528 5.31-11.839 11.838-11.839h1.335c12.106 0 21.956-9.849 21.956-21.955v-20.424c0-3.854 3.136-6.989 6.989-6.989h102.299c2.884 0 5.434 1.732 6.497 4.414l12.323 31.091c3.339 8.422 11.351 13.864 20.411 13.864h211.111c6.528 0 11.839 5.311 11.839 11.839v17.565h-330.039c-14.781 0-26.805 12.025-26.805 26.806v182.807c0 4.133 3.35 7.483 7.483 7.483s7.483-3.35 7.483-7.483v-182.808c0-6.528 5.311-11.839 11.838-11.839h360.026c6.527 0 11.838 5.31 11.838 11.839v65.407c-14.056-9.359-30.646-14.475-47.937-14.475-.178 0-.359.001-.537.002-22.38.137-43.581 8.918-59.697 24.724-2.951 2.894-2.997 7.631-.103 10.582 2.895 2.952 7.634 2.996 10.582.103 13.326-13.069 30.838-20.329 49.31-20.442.148-.001.295-.002.444-.002 21.377 0 41.477 9.45 55.202 25.97 2.551 3.07 2.103 7.718-.999 10.361-1.537 1.311-3.489 1.941-5.502 1.765-1.988-.17-3.783-1.105-5.053-2.631-10.73-12.89-26.47-20.36-43.182-20.495-.152-.001-.302-.002-.453-.002-14.801 0-28.836 5.845-39.566 16.489-10.943 10.855-17.219 25.839-17.219 41.111v2.736c-5.447 3.974-10.464 8.5-14.967 13.501v-15.979c0-8.849 1.567-17.515 4.656-25.755 1.451-3.869-.51-8.183-4.38-9.634-3.868-1.452-8.183.51-9.634 4.38-3.721 9.926-5.609 20.359-5.609 31.009v38.09c-6.293 12.812-9.835 27.21-9.835 42.421 0 21.596 7.128 41.557 19.154 57.657h-267.118zm392.444-157.967v16.53c-14.132-8.117-30.501-12.763-47.935-12.763-14.767 0-28.768 3.337-41.295 9.29 1.413-8.987 5.714-17.488 12.279-24 7.984-7.92 18.425-12.23 29.358-12.146 12.302.098 23.891 5.603 31.799 15.103 3.85 4.624 9.276 7.453 15.28 7.968.172.014.342.007.514.018zm-47.935 181.886c-44.981 0-81.576-36.594-81.576-81.576 0-44.981 36.595-81.577 81.576-81.577s81.577 36.595 81.577 81.577c0 44.981-36.595 81.576-81.577 81.576z"/><path d="m434.554 348.374c-5.585-5.294-12.886-7.974-20.611-7.571-14.659.783-26.19 12.91-26.25 27.607-.031 7.476 2.875 14.5 8.184 19.78.271.27.439.581.439.813v13.705c0 10.575 8.427 19.333 18.785 19.524.122.002.242.003.362.003 5.046 0 9.794-1.939 13.402-5.482 3.696-3.629 5.731-8.479 5.731-13.658v-14.025c0-.341.114-.561.17-.615 5.452-5.277 8.454-12.355 8.454-19.929 0-7.587-3.159-14.932-8.666-20.152zm-10.197 29.328c-3.004 2.906-4.727 7.051-4.727 11.368v14.025c0 1.129-.444 2.188-1.25 2.979-.805.789-1.877 1.229-3.004 1.194-2.219-.041-4.092-2.128-4.092-4.559v-13.705c0-4.255-1.723-8.312-4.852-11.424-2.447-2.434-3.786-5.668-3.772-9.107.027-6.661 5.448-12.369 12.083-12.724.24-.013.478-.019.714-.019 3.297 0 6.4 1.23 8.801 3.507 2.577 2.443 3.996 5.742 3.996 9.29-.001 3.483-1.384 6.742-3.897 9.175z"/></g></g></svg>