<svg id="Capa_1" enable-background="new 0 0 512 512" height="512" viewBox="0 0 512 512" width="512" xmlns="http://www.w3.org/2000/svg"><g><g><path d="m117.729 337.952h63.228c4.134 0 7.485-3.351 7.485-7.485s-3.351-7.485-7.485-7.485h-63.228c-4.134 0-7.485 3.351-7.485 7.485s3.35 7.485 7.485 7.485z"/><path d="m117.729 368.35h100.583c4.134 0 7.485-3.351 7.485-7.485s-3.351-7.485-7.485-7.485h-100.583c-4.134 0-7.485 3.351-7.485 7.485s3.35 7.485 7.485 7.485z"/><path d="m478.46 326.823v-190.742c0-14.784-12.028-26.811-26.812-26.811h-15.023v-17.568c0-14.784-12.027-26.811-26.811-26.811h-36.852c-4.134 0-7.485 3.351-7.485 7.485s3.351 7.485 7.485 7.485h36.852c6.529 0 11.84 5.312 11.84 11.841v17.568h-330.107c-14.784 0-26.812 12.028-26.812 26.811v252.069c0 13.72-11.162 24.883-24.883 24.883h-.002c-13.719 0-24.88-11.161-24.88-24.88v-296.451c0-6.53 5.312-11.841 11.841-11.841h1.336c12.109 0 21.961-9.851 21.961-21.96v-20.429c0-3.854 3.135-6.991 6.99-6.991h102.321c2.885 0 5.435 1.733 6.498 4.415l12.327 31.097c3.34 8.424 11.353 13.868 20.415 13.868l139.096.001c4.134 0 7.485-3.351 7.485-7.485s-3.351-7.485-7.485-7.485h-27.6l-14.076-35.512c-3.339-8.424-11.353-13.869-20.416-13.869h-218.566c-12.109 0-21.96 9.851-21.96 21.961v20.428c0 3.855-3.136 6.99-6.991 6.99h-1.336c-14.782 0-26.81 12.028-26.81 26.812v296.451c0 21.973 17.876 39.85 39.85 39.85h99.562c4.134 0 7.485-3.351 7.485-7.485s-3.351-7.485-7.485-7.485h-68.463c5.472-6.824 8.756-15.475 8.756-24.883v-252.069c0-6.53 5.312-11.841 11.842-11.841h360.102c6.53 0 11.842 5.312 11.842 11.841v180.108c-14.16-8.157-30.571-12.827-48.053-12.827-53.246 0-96.564 43.318-96.564 96.563 0 4.446.309 8.82.893 13.107h-145.743c-4.134 0-7.485 3.351-7.485 7.485s3.351 7.485 7.485 7.485h149.017c12.055 39.594 48.913 68.487 92.396 68.487 53.245 0 96.563-43.318 96.563-96.564 0-29.182-13.013-55.381-33.54-73.102zm-202.798-296.342c2.885 0 5.437 1.733 6.499 4.415l11.889 29.994h-95.392c-2.885 0-5.435-1.733-6.498-4.414l-11.89-29.995zm139.775 451.038c-44.991 0-81.594-36.603-81.594-81.594s36.604-81.593 81.594-81.593 81.593 36.602 81.593 81.593-36.602 81.594-81.593 81.594z"/><path d="m415.437 430.603c-6.705 0-12.141 5.436-12.141 12.141s5.436 12.141 12.141 12.141c6.706 0 12.142-5.436 12.142-12.141s-5.437-12.141-12.142-12.141z"/><path d="m415.542 396.991c-4.807 0-9.455 2.007-12.752 5.505-2.834 3.009-2.694 7.746.315 10.582 1.446 1.361 3.29 2.037 5.132 2.037 1.99 0 3.975-.79 5.449-2.352.282-.299.899-.802 1.856-.802.917 0 1.521.467 1.799.746 2.924 2.922 7.662 2.922 10.586 0 2.923-2.924 2.923-7.662 0-10.586-3.308-3.309-7.707-5.13-12.385-5.13z"/><path d="m415.804 370.746c-11.685 0-22.985 4.881-31.001 13.39-2.834 3.01-2.692 7.746.317 10.581 1.446 1.362 3.29 2.036 5.131 2.036 1.99 0 3.977-.79 5.45-2.353 5.274-5.6 12.415-8.685 20.103-8.685 7.375 0 14.309 2.872 19.523 8.087 2.924 2.922 7.662 2.922 10.586 0 2.923-2.924 2.923-7.662 0-10.586-8.042-8.041-18.735-12.47-30.109-12.47z"/><path d="m416.114 343.48c-19.787 0-38.92 8.265-52.493 22.674-2.834 3.01-2.692 7.746.317 10.581 1.446 1.362 3.29 2.036 5.131 2.036 1.99 0 3.977-.79 5.45-2.353 10.914-11.587 25.686-17.969 41.595-17.969 15.26 0 29.606 5.943 40.396 16.734 2.924 2.922 7.662 2.922 10.586 0 2.923-2.924 2.923-7.662 0-10.586-13.617-13.618-31.723-21.117-50.982-21.117z"/></g></g></svg>