<svg id="Capa_1" enable-background="new 0 0 512 512" height="512" viewBox="0 0 512 512" width="512" xmlns="http://www.w3.org/2000/svg"><g><g><path d="m129.142 368.786h61.69c4.13 0 7.479-3.348 7.479-7.479s-3.348-7.479-7.479-7.479h-61.69c-4.13 0-7.479 3.348-7.479 7.479s3.348 7.479 7.479 7.479z"/><path d="m215.313 383.487h-98.137c-4.13 0-7.479 3.348-7.479 7.479s3.348 7.479 7.479 7.479h98.137c4.13 0 7.479-3.348 7.479-7.479s-3.349-7.479-7.479-7.479z"/><path d="m461.665 275.381 16.505-96.148c.072-.418.108-.841.108-1.265 0-13.824-11.247-25.071-25.071-25.071h-54.434v-15.326c0-13.824-11.246-25.071-25.071-25.071h-90.265l-12.646-31.904c-3.141-7.924-10.678-13.044-19.202-13.044h-198.949c-11.39 0-20.655 9.266-20.655 20.656v18.595c0 3.141-2.556 5.698-5.698 5.698h-1.216c-13.824 0-25.071 11.246-25.071 25.07v269.846c0 20.368 16.571 36.939 36.939 36.939 0 0 386.171 0 383.677 0 2.443.202 0 0 2.494 0 21.861 0 42.875-8.01 59.17-22.553 3.082-2.751 3.35-7.478.599-10.56s-7.479-3.351-10.559-.6c-13.551 12.095-31.027 18.755-49.21 18.755-40.766 0-73.933-33.166-73.933-73.933 0-40.766 33.166-73.932 73.933-73.932s73.933 33.166 73.933 73.932c0 10.506-2.156 20.653-6.408 30.158-1.687 3.77.002 8.194 3.773 9.88 3.772 1.687 8.194-.003 9.881-3.773 5.117-11.438 7.712-23.64 7.712-36.265-.001-35.207-20.577-65.7-50.336-80.084zm-210.076-192.87c2.351 0 4.43 1.412 5.297 3.598l10.461 26.392h-85.851c-2.351 0-4.43-1.412-5.297-3.598l-10.462-26.392zm171.521 184.065c-49.015 0-88.89 39.875-88.89 88.89 0 30.793 15.741 57.975 39.596 73.933h-307.753c1.747-2.513 3.292-5.333 4.625-8.454 1.553-3.636 2.691-7.545 3.477-11.95l41.211-232.217c.591-5.087 4.909-8.924 10.045-8.924h83.305c4.13 0 7.479-3.348 7.479-7.479s-3.348-7.479-7.479-7.479h-83.305c-12.73 0-23.435 9.525-24.902 22.156l-41.079 231.313c-.585 3.277-1.406 6.124-2.509 8.707-4.174 9.774-10.525 14.326-19.986 14.328h-.007c-12.12 0-21.981-9.861-21.981-21.982v-269.847c0-5.576 4.536-10.113 10.113-10.113h1.216c11.39 0 20.655-9.266 20.655-20.655v-18.595c0-3.142 2.556-5.698 5.698-5.698h93.138c2.351 0 4.43 1.412 5.297 3.598l11.22 28.306c3.141 7.924 10.678 13.044 19.202 13.044h192.206c5.576 0 10.113 4.537 10.113 10.113v15.326h-140.781c-4.13 0-7.479 3.348-7.479 7.479s3.348 7.479 7.479 7.479h210.172c5.391 0 9.811 4.241 10.098 9.562l-15.885 92.538c-7.729-2.2-15.884-3.379-24.309-3.379z"/><path d="m415.631 305.281v47.139l-18.62 19.068c-2.886 2.956-2.83 7.69.126 10.576 1.454 1.42 3.34 2.128 5.224 2.128 1.944 0 3.886-.753 5.351-2.253l20.748-21.248c1.364-1.397 2.128-3.273 2.128-5.225v-50.185c0-4.131-3.348-7.479-7.479-7.479s-7.478 3.348-7.478 7.479z"/></g></g></svg>