<svg id="Capa_1" enable-background="new 0 0 512 512" height="512" viewBox="0 0 512 512" width="512" xmlns="http://www.w3.org/2000/svg"><g><g><path d="m117.75 339.418h63.238c4.135 0 7.486-3.351 7.486-7.486s-3.352-7.486-7.486-7.486h-63.238c-4.135 0-7.486 3.351-7.486 7.486s3.352 7.486 7.486 7.486z"/><path d="m117.75 369.821h100.602c4.135 0 7.486-3.351 7.486-7.486s-3.352-7.486-7.486-7.486h-100.602c-4.135 0-7.486 3.351-7.486 7.486s3.352 7.486 7.486 7.486z"/><path d="m478.546 310.196v-102.645c0-4.135-3.352-7.486-7.486-7.486-4.135 0-7.486 3.352-7.486 7.486v90.773c-16.881-11.105-37.068-17.579-58.741-17.579-20.604 0-40.616 5.863-57.874 16.956-16.797 10.797-30.225 26.003-38.832 43.975-1.786 3.729-.211 8.2 3.518 9.986 3.728 1.783 8.199.21 9.985-3.519 15.252-31.847 47.911-52.426 83.202-52.426 50.837 0 92.195 41.358 92.195 92.195s-41.359 92.195-92.195 92.195-92.195-41.358-92.195-92.195c0-3.032.149-6.09.442-9.091.403-4.115-2.608-7.777-6.722-8.179-4.123-.387-7.777 2.607-8.179 6.723-.341 3.483-.513 7.031-.513 10.547 0 9.178 1.162 18.091 3.343 26.599h-230.034c5.47-6.824 8.745-15.48 8.745-24.887v-252.112c0-6.531 5.313-11.844 11.844-11.844h360.166c6.531 0 11.844 5.313 11.844 11.844v34.925c0 4.135 3.352 7.486 7.486 7.486 4.135 0 7.486-3.351 7.486-7.486v-34.925c0-14.786-12.03-26.816-26.816-26.816h-15.026v-17.572c0-14.786-12.029-26.816-26.816-26.816h-99.679l-14.078-35.517c-3.34-8.426-11.354-13.871-20.419-13.871h-218.603c-12.111 0-21.964 9.853-21.964 21.965v20.432c0 3.855-3.137 6.991-6.992 6.991h-1.335c-14.787 0-26.817 12.03-26.817 26.816v296.504c0 21.977 17.88 39.857 39.857 39.857h.003 266.198c16.267 38.505 54.416 65.596 98.774 65.596 59.093 0 107.168-48.075 107.168-107.167 0-30.563-12.862-58.176-33.454-77.718zm-202.834-278.304c2.885 0 5.436 1.733 6.5 4.416l11.891 30h-95.409c-2.885 0-5.437-1.733-6.5-4.415l-11.892-30.001zm-210.965 357.733c0 13.723-11.164 24.887-24.887 24.887h-.003c-13.721 0-24.884-11.163-24.884-24.884v-296.504c0-6.531 5.313-11.844 11.844-11.844h1.335c12.112 0 21.965-9.853 21.965-21.964v-20.432c0-3.855 3.136-6.992 6.992-6.992h102.339c2.885 0 5.437 1.733 6.5 4.416l12.329 31.103c3.34 8.426 11.355 13.87 20.419 13.87h211.194c6.531 0 11.843 5.313 11.843 11.844v17.572h-330.17c-14.786 0-26.816 12.03-26.816 26.816z"/><path d="m391.739 436.682c-4.135 0-7.486 3.351-7.486 7.486s3.352 7.486 7.486 7.486h26.187c4.135 0 7.486-3.351 7.486-7.486s-3.352-7.486-7.486-7.486h-5.607v-64.371h5.607c4.135 0 7.486-3.352 7.486-7.486 0-4.135-3.352-7.486-7.486-7.486h-26.187c-4.135 0-7.486 3.351-7.486 7.486s3.352 7.486 7.486 7.486h5.607v64.371z"/><path d="m416.223 332.767c0-6.707-5.437-12.143-12.144-12.143s-12.143 5.437-12.143 12.143c0 6.707 5.437 12.144 12.143 12.144s12.144-5.437 12.144-12.144z"/></g></g></svg>