<svg id="Capa_1" enable-background="new 0 0 512 512" height="512" viewBox="0 0 512 512" width="512" xmlns="http://www.w3.org/2000/svg"><g><g><path d="m120.34 374.769h64.724c4.134 0 7.485-3.351 7.485-7.485s-3.351-7.485-7.485-7.485h-64.724c-4.134 0-7.485 3.351-7.485 7.485s3.351 7.485 7.485 7.485z"/><path d="m223.305 390.917h-102.965c-4.134 0-7.485 3.351-7.485 7.485s3.351 7.485 7.485 7.485h102.965c4.134 0 7.485-3.351 7.485-7.485s-3.351-7.485-7.485-7.485z"/><path d="m412.041 48.553c-35.698 0-67.078 18.814-84.764 47.043h-10.077l-14.453-36.464c-3.392-8.556-11.53-14.085-20.735-14.085l-223.739.001c-12.298 0-22.304 10.005-22.304 22.303v20.912c0 4.044-3.29 7.333-7.333 7.333h-1.367c-15.036 0-27.269 12.233-27.269 27.269v187.224c0 4.134 3.351 7.485 7.485 7.485s7.485-3.351 7.485-7.485v-187.224c0-6.781 5.517-12.299 12.299-12.299h1.367c12.298 0 22.303-10.005 22.303-22.303v-20.912c0-4.044 3.29-7.333 7.333-7.333h104.743c3.026 0 5.702 1.818 6.817 4.63l12.618 31.833c3.392 8.556 11.53 14.085 20.734 14.085h116.386c-3.917 9.511-6.413 19.753-7.209 30.461h-218.824c-15.036 0-27.269 12.232-27.269 27.269v258.037c0 14.144-11.506 25.65-25.649 25.65h-.003c-14.141 0-25.646-11.505-25.646-25.647v-81.513c0-4.134-3.351-7.485-7.485-7.485s-7.485 3.351-7.485 7.485v81.513c0 22.397 18.22 40.617 40.616 40.617h421.55c15.036 0 27.269-12.233 27.269-27.27v-227.984c14.096-17.233 22.565-39.239 22.565-63.187 0-55.117-44.842-99.959-99.959-99.959zm-208.855 47.043c-3.026 0-5.702-1.818-6.817-4.631l-12.267-30.948h97.911c3.027 0 5.702 1.818 6.817 4.631l12.267 30.948zm271.279 344.087c0 6.782-5.517 12.3-12.299 12.3h-390.072c5.714-6.999 9.145-15.931 9.145-25.65v-258.037c0-6.781 5.517-12.299 12.299-12.299h218.825c3.841 51.635 47.079 92.473 99.678 92.473 23.597 0 45.306-8.224 62.424-21.95zm-62.424-206.183c-46.862 0-84.988-38.126-84.988-84.988 0-46.863 38.126-84.989 84.988-84.989 46.863 0 84.989 38.126 84.989 84.989 0 46.862-38.126 84.988-84.989 84.988z"/><path d="m462.188 135.702c-7.882-7.013-19.374-7.446-27.692-1.7v-29.044c0-12.381-10.074-22.455-22.455-22.455s-22.455 10.074-22.455 22.455v29.044c-8.318-5.744-19.809-5.312-27.692 1.7-9.25 8.23-10.08 22.451-1.851 31.703l35.22 39.587c4.258 4.784 10.373 7.529 16.777 7.529s12.519-2.745 16.777-7.529l6.09-6.845c2.747-3.089 2.472-7.819-.617-10.568-3.087-2.747-7.818-2.47-10.568.617l-6.09 6.844c-1.419 1.594-3.457 2.51-5.592 2.51s-4.173-.915-5.592-2.51l-35.221-39.586c-2.743-3.085-2.467-7.825.616-10.569 3.084-2.741 7.826-2.467 10.569.617l9.066 10.19c2.066 2.322 5.348 3.125 8.254 2.021 2.903-1.104 4.823-3.889 4.823-6.996v-47.761c0-4.127 3.358-7.485 7.485-7.485 4.128 0 7.485 3.357 7.485 7.485v47.761c0 3.107 1.92 5.891 4.823 6.996 2.906 1.103 6.19.301 8.254-2.021l9.065-10.19c2.744-3.083 7.487-3.361 10.569-.617 3.084 2.744 3.36 7.484.617 10.568l-6.005 6.749c-2.747 3.089-2.472 7.82.617 10.568 3.09 2.749 7.82 2.471 10.568-.617l6.005-6.75c8.23-9.25 7.4-23.472-1.85-31.701z"/></g></g></svg>