<svg id="Capa_1" enable-background="new 0 0 512 512" height="512" viewBox="0 0 512 512" width="512" xmlns="http://www.w3.org/2000/svg"><g><g><g><path d="m73.428 406.855h71.98c4.138 0 7.492-3.354 7.492-7.492 0-4.139-3.354-7.493-7.492-7.493h-71.98c-4.138 0-7.492 3.354-7.492 7.493 0 4.138 3.354 7.492 7.492 7.492z"/><path d="m73.428 439.306h71.98c4.138 0 7.492-3.354 7.492-7.492s-3.354-7.492-7.492-7.492h-71.98c-4.138 0-7.492 3.354-7.492 7.492s3.354 7.492 7.492 7.492z"/><path d="m73.428 471.755h71.98c4.138 0 7.492-3.354 7.492-7.492s-3.354-7.492-7.492-7.492h-71.98c-4.138 0-7.492 3.354-7.492 7.492s3.354 7.492 7.492 7.492z"/><path d="m359.099 399.363c0 4.138 3.354 7.492 7.492 7.492h71.98c4.138 0 7.492-3.354 7.492-7.492 0-4.139-3.354-7.493-7.492-7.493h-71.98c-4.138 0-7.492 3.354-7.492 7.493z"/><path d="m438.572 424.321h-71.98c-4.138 0-7.492 3.354-7.492 7.492s3.354 7.492 7.492 7.492h71.98c4.138 0 7.492-3.354 7.492-7.492s-3.354-7.492-7.492-7.492z"/><path d="m438.572 456.771h-71.98c-4.138 0-7.492 3.354-7.492 7.492s3.354 7.492 7.492 7.492h71.98c4.138 0 7.492-3.354 7.492-7.492s-3.354-7.492-7.492-7.492z"/><path d="m109.311 288.279c4.138 0 7.492-3.354 7.492-7.492v-18.606c0-.73 1.857-2.393 4.918-2.393h268.557c3.06 0 4.918 1.663 4.918 2.393v18.606c0 4.138 3.354 7.492 7.492 7.492s7.492-3.354 7.492-7.492v-18.606c0-9.582-8.929-17.378-19.903-17.378h-126.784v-26.341c0-4.138-3.354-7.492-7.492-7.492s-7.492 3.354-7.492 7.492v26.341h-126.788c-10.974 0-19.903 7.796-19.903 17.378v18.606c.001 4.138 3.355 7.492 7.493 7.492z"/><path d="m190.357 355.354c-.771-1.348-1.952-2.309-3.046-3.383-1.672-1.643-39.16-38.482-40.854-40.147-2.082-2.046-4.105-4.043-7.18-4.043-.11 0-91.829 0-91.829 0-11.028 0-19.999 8.971-19.999 19.999v34.443c0 4.138 3.354 7.492 7.492 7.492s7.492-3.354 7.492-7.492v-34.443c0-2.765 2.25-5.014 5.015-5.014h84.337v32.073c0 6.491 5.282 11.773 11.774 11.773h32.844v125.388c0 2.765-2.249 5.015-5.014 5.015h-123.941c-2.765 0-5.015-2.25-5.015-5.015v-94.932c0-4.138-3.354-7.492-7.492-7.492s-7.492 3.354-7.492 7.492v94.932c0 11.028 8.971 20 19.999 20h123.941c11.027 0 19.999-8.971 19.999-20v-132.881c0-.311-.022-.624-.064-.936-.136-.992-.477-1.972-.967-2.829zm-43.588-3.727v-18.487l18.812 18.486h-18.812z"/><path d="m484.542 358.833c-.108-1.871-.791-3.792-2.232-5.059-.001-.001-44.618-43.846-44.618-43.846-1.375-1.352-3.365-2.148-5.252-2.148-.074 0-91.83 0-91.83 0-11.028 0-19.999 8.971-19.999 19.999v164.221c0 11.028 8.971 20 19.999 20h123.941c11.028 0 19.999-8.971 19.999-20v-132.881c.002-.095-.002-.19-.008-.286zm-44.608-25.693 18.812 18.486h-18.812zm29.633 158.86c0 2.765-2.25 5.015-5.014 5.015h-123.942c-2.765 0-5.014-2.25-5.014-5.015v-164.22c0-2.765 2.25-5.014 5.014-5.014h84.338v32.073c0 6.491 5.282 11.773 11.773 11.773h32.845z"/><path d="m171.308 193.715c.885.08 1.738.125 2.628.125h107.13c4.138 0 7.492-3.354 7.492-7.492s-3.354-7.492-7.492-7.492h-83.129c2.267-4.117 3.862-8.843 3.862-13.864l-.19-92.74c0-.168.112-.26.19-.26h150.133c.078 0 .19.093.19.26v106.345c0 .167-.112.26-.19.26h-35.945c-4.138 0-7.492 3.354-7.492 7.492s3.354 7.492 7.492 7.492h35.945c8.368 0 15.175-6.839 15.175-15.244v-106.347c0-8.406-6.808-15.245-15.175-15.245h-3.86v-18.6c0-8.926-7.227-16.188-16.11-16.188h-93.428l-5.246-13.352c-2.116-5.385-7.208-8.865-12.973-8.865h-45.624c-7.691 0-13.947 6.283-13.947 14.005v8.217c-8.679.237-15.667 7.405-15.667 16.182v126.577c.001 15.026 11.546 27.401 26.231 28.734zm-11.245-155.31c0-.663.504-1.203 1.125-1.203h.595c7.69 0 13.947-6.283 13.947-14.005v-8.211h43.863l5.245 13.349c2.115 5.387 7.208 8.868 12.974 8.868h94.151c.62 0 1.125.54 1.125 1.203v18.6h-131.288c-8.368 0-15.175 6.839-15.175 15.237l-.111 92.74c0 7.431-5.878 13.498-13.225 13.84-7.348-.342-13.225-6.409-13.225-13.84v-126.578z"/></g></g></g></svg>