<svg id="Capa_1" enable-background="new 0 0 512 512" height="512" viewBox="0 0 512 512" width="512" xmlns="http://www.w3.org/2000/svg"><g><g><g><path d="m117.857 372.32h63.296c4.139 0 7.493-3.354 7.493-7.493s-3.354-7.493-7.493-7.493h-63.296c-4.139 0-7.493 3.354-7.493 7.493s3.354 7.493 7.493 7.493z"/><path d="m117.857 402.751h100.692c4.139 0 7.493-3.354 7.493-7.493s-3.354-7.493-7.493-7.493h-100.692c-4.139 0-7.493 3.354-7.493 7.493s3.354 7.493 7.493 7.493z"/></g></g><path d="m512 302.929c0-23.034-13.511-42.971-33.023-52.31v-80.388c0-14.8-12.04-26.841-26.839-26.841h-15.04v-17.587c0-14.8-12.041-26.839-26.84-26.839h-99.768l-14.092-35.55c-3.344-8.434-11.365-13.883-20.437-13.883h-218.801c-12.123 0-21.984 9.862-21.984 21.984v20.451c0 3.859-3.14 6.998-6.999 6.998h-1.337c-14.8 0-26.84 12.041-26.84 26.84v296.771c0 21.997 17.896 39.893 39.893 39.893h112.717c4.139 0 7.493-3.354 7.493-7.493s-3.354-7.493-7.493-7.493h-81.584c5.478-6.832 8.766-15.492 8.766-24.909v-252.341c0-6.537 5.317-11.854 11.854-11.854h360.492c6.536 0 11.853 5.317 11.853 11.854v75.612c-3.235-.562-6.555-.872-9.949-.873l-55.737-.001c-20.042.001-37.736 10.229-48.148 25.737-10.409-15.507-28.097-25.735-48.136-25.736h-26.241c-4.139 0-7.493 3.354-7.493 7.493s3.354 7.493 7.493 7.493h26.241c15.168.001 28.513 7.908 36.161 19.811h-28.33c-1.468.009-2.914.165-4.326.452-1.15-.179-2.319-.28-3.505-.281h-55.736c-12.677 0-22.99 10.314-22.99 22.99v.001c.001 6.133 2.393 11.904 6.738 16.25 4.346 4.346 10.115 6.739 16.247 6.739h.006l55.735.001c1.576 0 3.122-.178 4.631-.49 1.061.127 2.14.215 3.255.215.058 0 .115-.001.173-.001h28.401c-1.714 2.74-3.747 5.31-6.091 7.654-8.127 8.128-18.912 12.604-30.369 12.604h-55.735c-11.457-.001-22.243-4.477-30.369-12.604-8.127-8.126-12.604-18.912-12.604-30.368.001-22.139 16.594-40.518 38.597-42.751 4.116-.418 7.115-4.095 6.698-8.212-.417-4.116-4.073-7.106-8.212-6.698-29.682 3.013-52.068 27.802-52.069 57.663.001 15.459 6.037 30.007 16.993 40.965 10.958 10.957 25.506 16.992 40.966 16.993h55.736c20.033 0 37.714-10.223 48.127-25.719 2.087 3.1 4.488 6.024 7.19 8.727 10.958 10.957 25.507 16.991 40.967 16.991l55.736.001c3.393 0 6.714-.31 9.949-.873v75.612c0 6.536-5.317 11.853-11.853 11.853h-264.883c-4.139 0-7.493 3.354-7.493 7.493s3.354 7.493 7.493 7.493h264.882c14.8 0 26.839-12.04 26.839-26.84v-80.387c19.513-9.339 33.024-29.276 33.024-52.312zm-236.04-238.411c2.888 0 5.441 1.735 6.505 4.419l11.903 30.028h-95.495c-2.888 0-5.442-1.735-6.506-4.42l-11.902-30.027zm146.151 78.873h-330.465c-14.8 0-26.84 12.041-26.84 26.841v252.341c0 13.734-11.172 24.907-24.905 24.909h-.008c-13.733 0-24.907-11.173-24.907-24.906v-296.771c0-6.537 5.317-11.854 11.854-11.854h1.337c12.123 0 21.985-9.862 21.985-21.984v-20.452c0-3.859 3.14-6.997 6.998-6.997h102.432c2.888 0 5.441 1.735 6.505 4.419l12.339 31.13c3.343 8.434 11.365 13.884 20.438 13.884h211.384c6.537 0 11.854 5.317 11.854 11.853v17.587zm-133.695 167.544-42.131-.001s-.001 0-.002 0c-2.13 0-4.136-.834-5.65-2.348-1.515-1.515-2.35-3.524-2.35-5.655 0-4.414 3.591-8.004 8.003-8.004h42.28c-1.001 2.66-1.532 5.494-1.515 8.396.015 2.637.5 5.197 1.365 7.612zm21.62-.277c-.027 0-.053 0-.081 0-1.725 0-4.066-.327-5.59-1.852-.001 0-.001 0-.001-.001-1.489-1.488-2.315-3.468-2.328-5.574-.013-2.18.863-4.362 2.404-5.988 1.51-1.593 3.464-2.478 5.456-2.49h80.394.048c4.362 0 7.925 3.536 7.951 7.906.013 2.123-.802 4.125-2.295 5.636-1.494 1.51-3.485 2.349-5.564 2.362h-80.394zm144.006 35.245-55.736-.001c-11.457 0-22.243-4.475-30.369-12.603-2.345-2.345-4.379-4.915-6.096-7.655h28.635c1.015-.006 2.013-.101 3.002-.236 1.557.335 3.173.511 4.829.511h55.735c12.677 0 22.99-10.314 22.99-22.99.001-6.135-2.392-11.907-6.738-16.252s-10.117-6.738-16.25-6.738h-55.738c-1.176 0-2.337.092-3.478.267-1.439-.286-2.925-.438-4.445-.438-.045 0-.092 0-.138 0h-28.106c7.647-11.904 20.996-19.811 36.166-19.812l55.735.001c23.696.002 42.973 19.279 42.973 42.972.001 23.695-19.276 42.973-42.971 42.974zm-42.128-50.977h42.128c2.132 0 4.14.834 5.655 2.349 1.514 1.515 2.348 3.523 2.348 5.655 0 4.414-3.59 8.004-8.004 8.004h-42.296c1.012-2.635 1.549-5.457 1.531-8.364-.016-2.683-.498-5.255-1.362-7.644z"/></g></svg>