<svg id="Capa_1" enable-background="new 0 0 512 512" height="512" viewBox="0 0 512 512" width="512" xmlns="http://www.w3.org/2000/svg"><g><g><path d="m117.768 348.772h63.249c4.135 0 7.487-3.352 7.487-7.488s-3.352-7.488-7.487-7.488h-63.249c-4.135 0-7.487 3.352-7.487 7.488s3.352 7.488 7.487 7.488z"/><path d="m218.385 364.204h-100.617c-4.135 0-7.487 3.352-7.487 7.487 0 4.136 3.352 7.488 7.487 7.488h100.617c4.135 0 7.487-3.352 7.487-7.488.001-4.135-3.352-7.487-7.487-7.487z"/><path d="m509.279 405.396c-2.165-3.51-5.825-8.988-10.967-15.151-6.043-7.243-12.644-13.625-19.693-19.117v-224.293c0-14.789-12.031-26.82-26.82-26.82h-15.029v-17.575c0-14.789-12.031-26.82-26.82-26.82h-99.694l-14.081-35.522c-3.34-8.427-11.356-13.873-20.422-13.873h-218.636c-12.113 0-21.968 9.854-21.968 21.968v20.435c0 3.856-3.137 6.993-6.993 6.993h-1.336c-14.788-.001-26.82 12.031-26.82 26.819v296.55c0 21.981 17.883 39.863 39.863 39.863h.003 281.636c.212.258.411.51.629.77 11.56 13.855 25.146 24.602 40.04 31.892l-1.753 2.856c-2.163 3.524-1.059 8.135 2.465 10.298 1.222.75 2.574 1.106 3.909 1.106 2.518 0 4.976-1.27 6.389-3.572l3.049-4.969c10.883 3.576 22.293 5.427 33.991 5.427 33.648 0 64.936-15.287 88.09-43.039 5.142-6.163 8.803-11.642 10.967-15.151 3.629-5.882 3.629-13.192.001-19.075zm-233.525-364.197c2.886 0 5.437 1.734 6.501 4.417l11.894 30.004h-95.424c-2.885 0-5.437-1.734-6.5-4.416l-11.895-30.005zm57.875 388.83c-4.574-5.482-7.811-10.323-9.721-13.421-.638-1.033-.638-2.316 0-3.351 1.91-3.096 5.146-7.938 9.721-13.42 5.107-6.121 10.655-11.546 16.563-16.241-4.915 9.376-7.699 20.037-7.699 31.337 0 11.313 2.802 21.978 7.729 31.36-5.919-4.699-11.478-10.133-16.593-16.264zm39.986 22.836c-9.944-9.6-16.147-23.051-16.147-37.932 0-29.088 23.665-52.753 52.753-52.753 6.043 0 11.846 1.035 17.258 2.914l-10.636 17.332c-2.154-.437-4.369-.668-6.622-.668-18.293 0-33.175 14.882-33.175 33.175 0 7.781 2.7 14.94 7.203 20.604zm34.353-55.977-14.852 24.202c-.696-1.927-1.095-3.993-1.095-6.157-.001-9.271 6.972-16.93 15.947-18.045zm2.253 70.799c-8.815 0-17.125-2.185-24.436-6.023l10.272-16.738c4.298 2.038 9.099 3.183 14.164 3.183 8.452 0 16.502-3.179 22.669-8.953 3.018-2.825 3.175-7.563.349-10.583-2.827-3.019-7.564-3.175-10.583-.348-3.381 3.166-7.797 4.909-12.434 4.909-2.193 0-4.288-.41-6.237-1.124l18.648-30.387c1.45 1.353 2.695 2.951 3.661 4.761 1.946 3.648 6.483 5.028 10.13 3.082 3.649-1.947 5.028-6.482 3.082-10.13-2.248-4.213-5.324-7.795-8.957-10.614l10.263-16.724c13.401 9.576 22.161 25.248 22.161 42.937.001 29.086-23.664 52.752-52.752 52.752zm53.422-106.506c-4.067-2.268-8.24-4.276-12.508-6.005l7.615-12.409c2.163-3.524 1.059-8.135-2.465-10.298-3.525-2.164-8.135-1.059-10.298 2.465l-9.5 15.48c-8.516-2.115-17.306-3.209-26.267-3.209-33.65 0-64.935 15.285-88.09 43.039-5.141 6.161-8.802 11.64-10.967 15.15-3.51 5.689-3.616 12.707-.339 18.483h-239.839c5.471-6.825 8.747-15.483 8.747-24.891v-252.151c0-6.532 5.314-11.845 11.845-11.845h147.847c4.135 0 7.487-3.352 7.487-7.488 0-4.135-3.352-7.487-7.487-7.487h-147.847c-14.789 0-26.82 12.031-26.82 26.82v252.152c0 13.725-11.166 24.891-24.891 24.891h-.003c-13.723 0-24.888-11.165-24.888-24.888v-296.55c0-6.532 5.314-11.845 11.845-11.845h1.336c12.113 0 21.968-9.854 21.968-21.968v-20.435c0-3.856 3.137-6.993 6.993-6.993h102.354c2.886 0 5.438 1.734 6.501 4.417l12.33 31.106c3.34 8.427 11.356 13.873 20.422 13.873h211.226c6.532 0 11.845 5.313 11.845 11.845v17.574h-147.937c-4.135 0-7.487 3.352-7.487 7.487 0 4.136 3.352 7.488 7.487 7.488h177.941c6.532 0 11.845 5.313 11.845 11.845v214.347zm32.89 55.428c-1.909 3.095-5.145 7.936-9.721 13.42-5.115 6.131-10.675 11.564-16.594 16.265 4.928-9.382 7.73-20.047 7.73-31.361 0-11.304-2.786-21.967-7.707-31.343 5.911 4.697 11.462 10.124 16.571 16.247 4.576 5.484 7.812 10.324 9.721 13.42.638 1.034.638 2.319 0 3.352z"/></g></g></svg>