<svg id="Capa_1" enable-background="new 0 0 512 512" height="512" viewBox="0 0 512 512" width="512" xmlns="http://www.w3.org/2000/svg"><g><g><path d="m117.84 354.466h63.287c4.138 0 7.492-3.354 7.492-7.492s-3.354-7.492-7.492-7.492h-63.287c-4.138 0-7.492 3.354-7.492 7.492s3.355 7.492 7.492 7.492z"/><path d="m218.518 369.907h-100.678c-4.138 0-7.492 3.354-7.492 7.492s3.354 7.492 7.492 7.492h100.678c4.138 0 7.492-3.354 7.492-7.492s-3.354-7.492-7.492-7.492z"/><path d="m504.508 386.396c4.138 0 7.492-3.354 7.492-7.492v-61.161c0-2.01-.807-3.935-2.241-5.344l-30.848-30.314v-129.681c0-14.798-12.039-26.836-26.837-26.836h-15.037v-17.585c0-14.798-12.039-26.837-26.836-26.837h-99.755l-14.089-35.544c-3.342-8.432-11.363-13.882-20.434-13.882h-218.771c-12.12 0-21.981 9.86-21.981 21.981v20.447c0 3.858-3.139 6.997-6.997 6.997h-1.337c-14.798.001-26.837 12.04-26.837 26.838v296.731c0 21.994 17.894 39.887 39.887 39.887h.003 298.277v14.849c0 11.485 9.344 20.828 20.829 20.828h132.174c11.485 0 20.829-9.344 20.829-20.828v-45.884c0-4.138-3.354-7.492-7.492-7.492s-7.492 3.354-7.492 7.492v45.884c0 3.222-2.622 5.844-5.845 5.844h-132.173c-3.223 0-5.845-2.622-5.845-5.844v-175.129c0-3.223 2.622-5.845 5.845-5.845h90.438v34.701c0 6.648 5.409 12.058 12.057 12.058h35.524v53.668c0 4.139 3.354 7.493 7.492 7.493zm-228.586-339.692c2.888 0 5.441 1.735 6.505 4.419l11.9 30.023h-95.483c-2.887 0-5.439-1.735-6.503-4.419l-11.901-30.023zm188.005 220.655-1.75-1.719c-1.401-1.376-3.287-2.148-5.251-2.148h-97.93c-11.485 0-20.829 9.344-20.829 20.83v145.296h-267.138c5.474-6.83 8.752-15.492 8.752-24.906v-252.308c0-6.535 5.317-11.852 11.853-11.852h40.811c4.138 0 7.492-3.354 7.492-7.492s-3.354-7.492-7.492-7.492h-40.812c-14.798 0-26.837 12.038-26.837 26.836v252.307c0 13.733-11.173 24.906-24.906 24.906h-.003c-13.732 0-24.903-11.172-24.903-24.903v-296.731c0-6.536 5.317-11.853 11.852-11.853h1.337c12.12 0 21.982-9.861 21.982-21.981v-20.447c0-3.858 3.139-6.998 6.997-6.998h102.417c2.888 0 5.44 1.735 6.505 4.419l12.338 31.125c3.342 8.432 11.363 13.882 20.434 13.882h211.355c6.536 0 11.852 5.317 11.852 11.853v17.585h-254.76c-4.138 0-7.492 3.354-7.492 7.492s3.354 7.492 7.492 7.492h284.781c6.536 0 11.853 5.317 11.853 11.852zm.491 42.892v-21.4l21.777 21.4z"/></g></g></svg>