<svg id="Capa_1" enable-background="new 0 0 512 512" height="512" viewBox="0 0 512 512" width="512" xmlns="http://www.w3.org/2000/svg"><g><g><path d="m117.802 357.143h63.266c4.136 0 7.49-3.353 7.49-7.49s-3.353-7.49-7.49-7.49h-63.266c-4.136 0-7.49 3.353-7.49 7.49.001 4.138 3.354 7.49 7.49 7.49z"/><path d="m218.448 372.581h-100.646c-4.136 0-7.49 3.353-7.49 7.49s3.353 7.49 7.49 7.49h100.645c4.136 0 7.49-3.353 7.49-7.49s-3.353-7.49-7.489-7.49z"/><path d="m493.643 305.504c10.123 0 18.357-8.235 18.357-18.357v-27.558c0-10.123-8.235-18.357-18.357-18.357h-14.888v-86.083c0-14.793-12.035-26.828-26.828-26.828h-15.032v-17.579c0-14.793-12.035-26.827-26.828-26.827h-99.722l-14.085-35.534c-3.342-8.43-11.36-13.876-20.428-13.876h-218.698c-12.117 0-21.974 9.857-21.974 21.973v20.441c0 3.857-3.138 6.995-6.995 6.995h-1.336c-14.794 0-26.829 12.035-26.829 26.828v296.633c0 21.987 17.888 39.874 39.874 39.874h.003 261.69v11.889c0 10.123 8.235 18.357 18.357 18.357h173.718c10.123 0 18.357-8.235 18.357-18.357v-27.558c0-10.123-8.235-18.357-18.357-18.357h-3.13v-21.723h3.13c10.123 0 18.357-8.235 18.357-18.357v-27.559c0-10.123-8.235-18.357-18.357-18.357h-3.13v-21.723zm-217.81-256.021c2.887 0 5.439 1.734 6.502 4.417l11.898 30.014h-95.451c-2.886 0-5.439-1.734-6.503-4.418l-11.896-30.013zm217.81 378.719c1.863 0 3.378 1.516 3.378 3.378v27.558c0 1.863-1.515 3.378-3.378 3.378h-173.718c-1.863 0-3.378-1.516-3.378-3.378v-27.558c0-1.863 1.515-3.378 3.378-3.378h10.62 152.478zm-155.608-14.979v-21.723h137.499v21.723zm155.608-71.017c1.863 0 3.378 1.515 3.378 3.378v27.559c0 1.863-1.515 3.378-3.378 3.378h-10.62-152.478-10.62c-1.863 0-3.378-1.515-3.378-3.378v-27.559c0-1.863 1.515-3.378 3.378-3.378h10.62 152.478zm-155.608-14.979v-21.723h137.499v21.723zm144.988-36.702h-152.478-10.62c-1.863 0-3.378-1.516-3.378-3.378v-27.558c0-1.863 1.515-3.378 3.378-3.378h41.464c4.137 0 7.49-3.353 7.49-7.49s-3.353-7.49-7.49-7.49h-41.464c-10.123 0-18.357 8.235-18.357 18.357v27.558c0 10.123 8.235 18.357 18.357 18.357h3.13v21.723h-3.13c-10.123 0-18.357 8.235-18.357 18.357v27.559c0 10.123 8.235 18.357 18.357 18.357h3.13v21.723h-3.13c-10.123 0-18.357 8.235-18.357 18.357v.691h-230.562c5.472-6.828 8.749-15.487 8.749-24.898v-3.842c0-4.137-3.353-7.49-7.49-7.49s-7.49 3.353-7.49 7.49v3.842c0 13.729-11.169 24.898-24.898 24.898h-.003c-13.727 0-24.895-11.168-24.895-24.895v-296.633c0-6.534 5.315-11.849 11.849-11.849h1.336c12.117 0 21.974-9.857 21.974-21.975v-20.44c0-3.857 3.138-6.994 6.995-6.994h102.384c2.887 0 5.439 1.734 6.503 4.417l12.333 31.116c3.342 8.43 11.36 13.877 20.428 13.877h211.286c6.534 0 11.849 5.315 11.849 11.848v17.579h-330.313c-14.793 0-26.828 12.035-26.828 26.828v213.523c0 4.137 3.353 7.49 7.49 7.49s7.49-3.353 7.49-7.49v-213.524c0-6.534 5.315-11.849 11.848-11.849h360.324c6.534 0 11.849 5.315 11.849 11.849v86.083h-67.556c-4.137 0-7.49 3.353-7.49 7.49s3.353 7.49 7.49 7.49h97.422c1.863 0 3.378 1.515 3.378 3.378v27.558c0 1.863-1.515 3.378-3.378 3.378z"/><path d="m421.216 263.417c-4.137 0-7.49 3.353-7.49 7.49v4.922c0 4.137 3.353 7.49 7.49 7.49s7.49-3.353 7.49-7.49v-4.922c0-4.137-3.353-7.49-7.49-7.49z"/><path d="m446.784 263.417c-4.137 0-7.49 3.353-7.49 7.49v4.922c0 4.137 3.353 7.49 7.49 7.49s7.49-3.353 7.49-7.49v-4.922c-.001-4.137-3.353-7.49-7.49-7.49z"/><path d="m472.352 263.417c-4.137 0-7.49 3.353-7.49 7.49v4.922c0 4.137 3.353 7.49 7.49 7.49s7.49-3.353 7.49-7.49v-4.922c0-4.137-3.353-7.49-7.49-7.49z"/><path d="m421.216 349.413c-4.137 0-7.49 3.353-7.49 7.49v4.922c0 4.137 3.353 7.49 7.49 7.49s7.49-3.353 7.49-7.49v-4.922c0-4.137-3.353-7.49-7.49-7.49z"/><path d="m446.784 349.413c-4.137 0-7.49 3.353-7.49 7.49v4.922c0 4.137 3.353 7.49 7.49 7.49s7.49-3.353 7.49-7.49v-4.922c-.001-4.137-3.353-7.49-7.49-7.49z"/><path d="m472.352 349.413c-4.137 0-7.49 3.353-7.49 7.49v4.922c0 4.137 3.353 7.49 7.49 7.49s7.49-3.353 7.49-7.49v-4.922c0-4.137-3.353-7.49-7.49-7.49z"/><path d="m421.216 435.409c-4.137 0-7.49 3.353-7.49 7.49v4.922c0 4.137 3.353 7.49 7.49 7.49s7.49-3.353 7.49-7.49v-4.922c0-4.138-3.353-7.49-7.49-7.49z"/><path d="m446.784 435.409c-4.137 0-7.49 3.353-7.49 7.49v4.922c0 4.137 3.353 7.49 7.49 7.49s7.49-3.353 7.49-7.49v-4.922c-.001-4.138-3.353-7.49-7.49-7.49z"/><path d="m472.352 435.409c-4.137 0-7.49 3.353-7.49 7.49v4.922c0 4.137 3.353 7.49 7.49 7.49s7.49-3.353 7.49-7.49v-4.922c0-4.138-3.353-7.49-7.49-7.49z"/></g></g></svg>