<svg id="Capa_1" enable-background="new 0 0 512 512" height="512" viewBox="0 0 512 512" width="512" xmlns="http://www.w3.org/2000/svg"><g><g><path d="m120.34 374.769h64.725c4.134 0 7.485-3.351 7.485-7.485s-3.351-7.485-7.485-7.485h-64.725c-4.134 0-7.485 3.351-7.485 7.485s3.351 7.485 7.485 7.485z"/><path d="m223.306 390.916h-102.966c-4.134 0-7.485 3.351-7.485 7.485s3.351 7.485 7.485 7.485h102.966c4.134 0 7.485-3.351 7.485-7.485s-3.351-7.485-7.485-7.485z"/><path d="m412.041 48.553c-35.698 0-67.079 18.814-84.765 47.043h-10.076l-14.453-36.464c-3.392-8.556-11.53-14.085-20.735-14.085l-223.739.001c-12.298 0-22.303 10.005-22.303 22.303v20.912c0 4.044-3.289 7.333-7.333 7.333h-1.367c-15.037.001-27.27 12.233-27.27 27.269v244.419c0 4.134 3.351 7.485 7.485 7.485s7.485-3.351 7.485-7.485v-244.419c0-6.781 5.517-12.299 12.3-12.299h1.367c12.298 0 22.303-10.005 22.303-22.303v-20.911c0-4.044 3.289-7.333 7.333-7.333h104.743c3.027 0 5.702 1.818 6.817 4.63l12.618 31.833c3.392 8.556 11.531 14.084 20.734 14.084h116.386c-3.917 9.511-6.413 19.752-7.209 30.46h-218.825c-15.036 0-27.269 12.232-27.269 27.269v258.037c0 14.143-11.505 25.648-25.646 25.65h-.005c-14.142 0-25.647-11.505-25.647-25.647v-24.455c0-4.134-3.351-7.485-7.485-7.485s-7.485 3.351-7.485 7.485v24.456c0 22.396 18.22 40.617 40.617 40.617h421.549c15.036 0 27.269-12.233 27.269-27.27v-227.984c14.096-17.233 22.565-39.238 22.565-63.187 0-55.117-44.842-99.959-99.959-99.959zm-208.855 47.044c-3.026 0-5.702-1.819-6.817-4.631l-12.266-30.948h97.91c3.027 0 5.703 1.818 6.818 4.631l12.267 30.948zm271.279 344.086c0 6.782-5.517 12.3-12.299 12.3h-390.072c5.714-6.999 9.145-15.931 9.145-25.65v-258.037c0-6.781 5.517-12.299 12.299-12.299h218.825c3.841 51.635 47.079 92.473 99.678 92.473 23.597 0 45.306-8.224 62.424-21.95zm-62.424-206.183c-46.862 0-84.988-38.126-84.988-84.988 0-46.863 38.126-84.989 84.988-84.989 46.863 0 84.989 38.126 84.989 84.989 0 46.862-38.126 84.988-84.989 84.988z"/><path d="m452.672 126.057h-81.262c-12.381 0-22.455 10.073-22.455 22.455 0 12.381 10.074 22.455 22.455 22.455h33.277c4.134 0 7.485-3.351 7.485-7.485s-3.351-7.485-7.485-7.485h-33.277c-4.127 0-7.485-3.357-7.485-7.485s3.357-7.485 7.485-7.485h81.261c4.127 0 7.485 3.358 7.485 7.485s-3.357 7.485-7.485 7.485h-13.548c-4.134 0-7.485 3.351-7.485 7.485s3.351 7.485 7.485 7.485h13.548c12.381 0 22.455-10.074 22.455-22.455.001-12.381-10.073-22.455-22.454-22.455z"/></g></g></svg>