<svg id="Capa_1" enable-background="new 0 0 512 512" height="512" viewBox="0 0 512 512" width="512" xmlns="http://www.w3.org/2000/svg"><g><g><path d="m117.751 339.418h63.238c4.135 0 7.486-3.351 7.486-7.486s-3.352-7.486-7.486-7.486h-63.238c-4.135 0-7.486 3.351-7.486 7.486-.001 4.135 3.351 7.486 7.486 7.486z"/><path d="m218.352 354.849h-100.601c-4.135 0-7.486 3.351-7.486 7.486s3.351 7.486 7.486 7.486h100.601c4.135 0 7.486-3.351 7.486-7.486s-3.351-7.486-7.486-7.486z"/><path d="m478.545 310.196v-172.684c0-14.786-12.03-26.816-26.816-26.816h-15.025v-17.572c0-14.786-12.03-26.816-26.816-26.816h-99.679l-14.078-35.517c-3.34-8.426-11.355-13.871-20.42-13.871h-218.602c-12.112 0-21.965 9.853-21.965 21.965v20.432c0 3.855-3.137 6.991-6.992 6.991h-1.335c-14.787 0-26.817 12.03-26.817 26.816v56.508c0 4.135 3.351 7.486 7.486 7.486s7.486-3.351 7.486-7.486v-56.508c0-6.531 5.313-11.844 11.844-11.844h1.335c12.112 0 21.965-9.853 21.965-21.964v-20.432c0-3.855 3.137-6.992 6.992-6.992h102.339c2.885 0 5.437 1.733 6.5 4.416l12.328 31.103c3.341 8.426 11.355 13.87 20.419 13.87h211.194c6.531 0 11.844 5.313 11.844 11.844v17.572h-330.169c-14.787 0-26.816 12.03-26.816 26.816v252.114c0 13.723-11.164 24.887-24.887 24.887h-.003c-13.721 0-24.884-11.163-24.884-24.884v-205.911c0-4.135-3.351-7.486-7.486-7.486s-7.487 3.351-7.487 7.486v205.909c0 21.977 17.879 39.857 39.857 39.857h.003 266.197c16.267 38.505 54.416 65.596 98.775 65.596 59.092 0 107.167-48.075 107.167-107.167.001-30.563-12.861-58.177-33.454-77.718zm-279.851-243.888c-2.885 0-5.436-1.733-6.499-4.415l-11.892-30.001h95.408c2.885 0 5.438 1.733 6.5 4.416l11.891 30zm206.139 413.8c-50.837 0-92.196-41.358-92.196-92.195 0-34.354 18.905-65.641 49.337-81.651 3.658-1.925 5.065-6.452 3.14-10.111-1.926-3.658-6.451-5.064-10.111-3.14-35.367 18.607-57.338 54.971-57.338 94.902 0 9.178 1.162 18.091 3.343 26.599h-230.033c5.469-6.824 8.745-15.48 8.745-24.887v-252.113c0-6.531 5.313-11.844 11.844-11.844h360.166c6.531 0 11.844 5.313 11.844 11.844v160.813c-16.881-11.106-37.067-17.579-58.74-17.579-4.609 0-9.251.296-13.795.88-4.101.526-6.999 4.277-6.471 8.378.525 4.101 4.279 7.004 8.378 6.471 3.915-.502 7.915-.757 11.888-.757 50.837 0 92.195 41.358 92.195 92.195-.002 50.837-41.36 92.195-92.196 92.195z"/><path d="m440.607 330.898c-4.203-4.204-9.792-6.519-15.737-6.519-5.944 0-11.533 2.315-15.736 6.519-7.177 7.178-8.417 18.081-3.716 26.548l-8.617 8.616c-1.008 1.008-2.426 1.404-3.71 1.037-16.668-4.803-34.639-.169-46.895 12.085l-1.787 1.787c-2.006 2.007-3.111 4.675-3.111 7.512 0 2.839 1.106 5.507 3.111 7.512l20.877 20.877-13.665 13.665c-2.923 2.924-2.923 7.664 0 10.588 1.462 1.461 3.379 2.192 5.294 2.192s3.832-.731 5.294-2.192l13.665-13.664 20.879 20.879c2.071 2.069 4.79 3.104 7.509 3.104 2.721-.001 5.441-1.036 7.512-3.106l1.787-1.787c12.255-12.255 16.886-30.224 12.086-46.897-.368-1.28.028-2.701 1.037-3.709l8.614-8.615c8.467 4.701 19.371 3.461 26.55-3.718 8.676-8.677 8.676-22.795 0-31.472zm10.653 42.126c-2.838 2.84-7.458 2.842-10.296 0l-.974-.974c-2.924-2.923-7.664-2.923-10.588 0l-13.306 13.306c-4.859 4.86-6.713 11.926-4.837 18.441 3.123 10.849.426 22.498-7.033 30.84l-46.117-46.118c8.343-7.461 19.992-10.156 30.839-7.032 6.514 1.876 13.581.022 18.441-4.837l13.307-13.307c1.404-1.405 2.193-3.309 2.192-5.296-.001-1.986-.791-3.89-2.195-5.294l-.971-.97c-2.839-2.84-2.84-7.459 0-10.299 1.375-1.375 3.203-2.133 5.148-2.133 1.946 0 3.773.757 5.149 2.134l21.241 21.241c2.84 2.84 2.839 7.459 0 10.298z"/></g></g></svg>