<svg id="Capa_1" enable-background="new 0 0 512 512" height="512" viewBox="0 0 512 512" width="512" xmlns="http://www.w3.org/2000/svg"><g><g><path d="m125.707 380.061h67.802c4.135 0 7.485-3.351 7.485-7.485s-3.351-7.485-7.485-7.485h-67.802c-4.134 0-7.485 3.351-7.485 7.485s3.351 7.485 7.485 7.485z"/><path d="m125.707 412.659h107.862c4.134 0 7.485-3.351 7.485-7.485s-3.351-7.485-7.485-7.485h-107.862c-4.134 0-7.485 3.351-7.485 7.485s3.351 7.485 7.485 7.485z"/><path d="m483.79 135.915h-16.652v-19.381c0-15.555-12.654-28.21-28.209-28.21h-107.241l-15.231-38.424c-3.499-8.825-11.895-14.528-21.389-14.528h-234.379c-12.688 0-23.009 10.322-23.009 23.009v21.906c0 4.432-3.606 8.038-8.038 8.038h-1.432c-15.555-.001-28.21 12.654-28.21 28.209v317.902c0 23.265 18.927 42.192 42.192 42.192h393.442c4.134 0 7.485-3.351 7.485-7.485s-3.351-7.485-7.485-7.485h-361.238c6.228-7.354 9.995-16.856 9.995-27.225v-270.309c0-7.3 5.939-13.239 13.239-13.239h233.094v34.189c0 4.134 3.351 7.485 7.485 7.485s7.485-3.351 7.485-7.485v-34.189h86.129v139.065l-38.124-18.05c-3.137-1.489-6.739-1.488-9.88-.001l-38.125 18.051v-70.656c0-4.134-3.351-7.485-7.485-7.485s-7.485 3.351-7.485 7.485v76.071c0 3.979 2.008 7.625 5.37 9.754 1.885 1.193 4.019 1.797 6.165 1.797 1.68 0 3.367-.37 4.946-1.119l41.553-19.673 41.552 19.673c3.596 1.704 7.75 1.449 11.113-.678 3.362-2.129 5.37-5.775 5.37-9.754v-144.48h36.997c7.301 0 13.24 5.939 13.24 13.239v284.294c0 7.301-5.939 13.24-13.24 13.24h-13.073c-4.135 0-7.485 3.351-7.485 7.485s3.351 7.485 7.485 7.485h13.073c15.555 0 28.21-12.655 28.21-28.21v-284.294c0-15.554-12.655-28.209-28.21-28.209zm-188.722-85.573c3.316 0 6.25 1.992 7.472 5.076l13.044 32.907h-103.092c-3.317 0-6.25-1.992-7.472-5.076l-13.044-32.907zm157.1 85.573h-354.538c-15.555 0-28.209 12.654-28.209 28.209v270.309c0 15.012-12.213 27.225-27.225 27.225h-.004c-15.01 0-27.222-12.212-27.222-27.222v-317.902c0-7.301 5.939-13.24 13.24-13.24h1.433c12.687 0 23.008-10.321 23.008-23.008v-21.906c0-4.432 3.606-8.039 8.039-8.039h109.725c3.317 0 6.249 1.992 7.471 5.077l13.219 33.346c3.498 8.826 11.894 14.529 21.389 14.529h226.436c7.3 0 13.239 5.939 13.239 13.24v19.382z"/></g></g></svg>