<svg id="Capa_1" enable-background="new 0 0 512 512" height="512" viewBox="0 0 512 512" width="512" xmlns="http://www.w3.org/2000/svg"><g><g><path d="m129.345 352.603h61.499c3.831 0 7.26-2.752 7.721-6.555.552-4.555-2.989-8.427-7.434-8.427h-61.5c-3.831 0-7.26 2.752-7.72 6.555-.552 4.555 2.989 8.427 7.434 8.427z"/><path d="m215.651 367.326h-98.004c-3.831 0-7.26 2.752-7.72 6.555-.552 4.555 2.989 8.426 7.434 8.426h98.004c3.831 0 7.26-2.752 7.721-6.555.55-4.554-2.99-8.426-7.435-8.426z"/><path d="m483.471 251.945c-6.148-6.475-12.327-11.759-17.187-15.566-.001-.001-.001-.002-.001-.003l12.638-73.624c.072-.419.108-.843.108-1.267 0-13.846-11.264-25.11-25.11-25.11h-54.517c-.002 0-.003-.001-.003-.003v-15.344c0-13.87-11.243-25.113-25.113-25.113h-90.402c-.001 0-.002-.001-.003-.002l-12.664-31.95c-3.126-7.887-10.751-13.067-19.235-13.067h-199.257c-11.427 0-20.691 9.264-20.691 20.691v18.618c0 3.153-2.556 5.71-5.71 5.71h-1.212c-13.869-.001-25.112 11.242-25.112 25.112v270.265c0 20.434 16.565 37 37 37h302.284c.001 0 .002.001.003.002 6.401 13.874 18.405 24.288 34.047 29.431 6.867 2.257 14.089 3.38 21.406 3.38 9.68 0 19.525-1.965 28.924-5.864 28.573-11.854 42.801-33.264 43.497-65.451.001-.054.002-.108.002-.162v-16.304c0-3.831-2.752-7.26-6.555-7.72-4.555-.552-8.426 2.989-8.426 7.434v16.508c-.588 26.279-11.156 42.274-34.258 51.858-13.192 5.472-27.365 6.215-39.91 2.09-12.145-3.993-21.287-12.106-25.743-22.845-9.367-22.577 4.844-50.002 31.677-61.135 14.316-5.939 30.03-6.257 43.157-.877 1.395.572 2.92.845 4.401.56 3.738-.719 6.178-3.892 6.178-7.389v-103.313c0-1.883.644-3.746 1.944-5.108 2.493-2.612 6.327-2.98 9.187-1.167.12.076 12.088 7.712 23.793 20.04 15.95 16.798 24.39 34.793 24.412 52.044.004 3.385-2.337 6.429-5.646 7.142-4.692 1.011-8.851-2.556-8.851-7.076 0-12.498-5.73-25.413-17.031-38.393-1.539-1.768-3.765-2.889-6.107-2.771-4.187.211-7.203 3.598-7.203 7.495v57.45c0 3.831 2.752 7.26 6.555 7.72 4.555.552 8.427-2.989 8.427-7.434v-28.485c.22 1.313.35 2.636.374 3.965.198 10.877 7.591 20.501 18.313 22.344 13.978 2.403 26.151-8.35 26.151-21.892-.002-21.181-9.867-42.767-28.531-62.424zm-317.468-186.068h85.98c2.341 0 4.445 1.429 5.308 3.606l10.475 26.427c.001.002-.001.004-.003.004h-85.983c-2.354 0-4.437-1.415-5.305-3.604l-10.475-26.429c-.001-.002 0-.004.003-.004zm298.03 95.055c-.002.012-4.943 28.82-11.412 66.554 0 .002-.002.003-.004.002-5.971-2.2-12.689-1.764-18.402 1.376-7.102 3.908-11.514 11.371-11.514 19.476v93.239c0 .002-.002.003-.003.003-14.324-3.283-30.035-1.907-44.492 4.092-29.596 12.279-46.914 40.714-43.284 67.633 0 .002-.001.003-.003.003h-268.747c-.002 0-.004-.002-.002-.004 1.749-2.516 3.296-5.339 4.629-8.462 1.556-3.644 2.695-7.559 3.482-11.969l27.141-151.965c.727-4.073-1.984-7.964-6.057-8.691-4.074-.729-7.964 1.984-8.691 6.057l-27.141 151.966c-.585 3.28-1.407 6.131-2.512 8.719-4.181 9.79-10.543 14.35-20.021 14.35-12.161 0-22.019-9.858-22.019-22.019v-270.265c0-5.596 4.536-10.132 10.132-10.132h1.212c11.427 0 20.691-9.264 20.691-20.691v-18.618c0-3.153 2.556-5.71 5.71-5.71h93.279c2.341 0 4.445 1.429 5.308 3.606l11.236 28.346c3.126 7.887 10.751 13.067 19.235 13.067h192.503c5.596 0 10.132 4.536 10.132 10.132v15.344c0 .002-.001.003-.003.003h-258.798c-12.75 0-23.472 9.54-24.941 22.191l-7.892 45.496c-.673 3.771 1.432 7.629 5.094 8.751 4.387 1.344 8.822-1.46 9.604-5.836l8.074-46.682c.592-5.096 4.917-8.938 10.061-8.938h328.301c5.4-.001 9.826 4.247 10.114 9.576 0 0 .001 0 0 0z"/></g></g></svg>