<svg id="Capa_1" enable-background="new 0 0 512 512" height="512" viewBox="0 0 512 512" width="512" xmlns="http://www.w3.org/2000/svg"><g><g><path d="m483.79 135.915h-16.652v-19.381c0-15.555-12.655-28.21-28.21-28.21h-107.241l-15.23-38.423c-3.498-8.826-11.894-14.53-21.389-14.53h-32.412c-4.134 0-7.485 3.351-7.485 7.485s3.351 7.485 7.485 7.485h32.412c3.317 0 6.25 1.992 7.472 5.076l13.043 32.906h-103.09c-3.317 0-6.25-1.993-7.473-5.076l-13.043-32.907h35.848c4.134 0 7.485-3.351 7.485-7.485s-3.351-7.485-7.485-7.485h-167.137c-12.687 0-23.008 10.322-23.008 23.008v21.906c0 4.432-3.606 8.038-8.038 8.038h-1.432c-15.555.002-28.21 12.657-28.21 28.212v121.958c0 4.134 3.351 7.485 7.485 7.485s7.485-3.351 7.485-7.485v-121.958c0-7.301 5.939-13.24 13.24-13.24h1.432c12.687 0 23.008-10.322 23.008-23.008v-21.907c0-4.432 3.606-8.038 8.038-8.038h109.725c3.317 0 6.251 1.992 7.473 5.076l13.218 33.347c3.499 8.826 11.895 14.529 21.389 14.529h226.436c7.3 0 13.24 5.939 13.24 13.24v19.381h-354.539c-15.555 0-28.21 12.655-28.21 28.21v270.309c0 15.01-12.211 27.222-27.221 27.225h-.008c-15.01 0-27.221-12.212-27.221-27.222v-160.928c0-4.134-3.351-7.485-7.485-7.485s-7.485 3.351-7.485 7.485v160.929c0 23.265 18.927 42.192 42.191 42.192h.003 441.596c15.555 0 28.21-12.655 28.21-28.21v-284.294c0-15.556-12.655-28.21-28.21-28.21zm13.24 312.504c0 7.3-5.939 13.24-13.24 13.24h-409.382c6.225-7.354 9.982-16.858 9.982-27.225v-270.309c0-7.301 5.939-13.24 13.24-13.24h386.16c7.3 0 13.24 5.939 13.24 13.24z"/><path d="m125.707 380.061h67.803c4.134 0 7.485-3.351 7.485-7.485s-3.351-7.485-7.485-7.485h-67.803c-4.134 0-7.485 3.351-7.485 7.485s3.351 7.485 7.485 7.485z"/><path d="m233.569 397.689h-107.862c-4.134 0-7.485 3.351-7.485 7.485s3.351 7.485 7.485 7.485h107.862c4.134 0 7.485-3.351 7.485-7.485s-3.351-7.485-7.485-7.485z"/></g></g></svg>