<svg id="Capa_1" enable-background="new 0 0 512 512" height="512" viewBox="0 0 512 512" width="512" xmlns="http://www.w3.org/2000/svg"><g><g><path d="m485.643 145.982h-58.933v-16.979c0-14.533-11.823-26.357-26.356-26.357h-97.197l-13.701-34.564c-3.287-8.294-11.177-13.654-20.099-13.654h-167.83c-4.134 0-7.485 3.351-7.485 7.485s3.351 7.485 7.485 7.485h54.32c2.745 0 5.171 1.648 6.182 4.199l12.036 30.365c3.287 8.294 11.177 13.654 20.098 13.654h206.191c6.278 0 11.386 5.108 11.386 11.387v16.979h-277.731c-13.383 0-24.638 10.014-26.18 23.292l-44.064 248.131c-.642 3.596-1.542 6.714-2.747 9.533-4.575 10.685-11.54 15.662-21.924 15.663h-.005c-13.299 0-24.119-10.819-24.119-24.118v-289.48c0-6.279 5.108-11.387 11.387-11.387h1.304c11.921 0 21.62-9.698 21.62-21.62v-19.947c0-3.667 2.983-6.65 6.651-6.65h11.344c4.134 0 7.485-3.351 7.485-7.485s-3.351-7.485-7.485-7.485h-11.344c-11.921 0-21.621 9.699-21.621 21.62v19.948c0 3.667-2.983 6.65-6.65 6.65h-1.304c-14.533-.001-26.357 11.823-26.357 26.356v289.48c0 21.553 17.535 39.088 39.089 39.088h.002 402.113c14.302 0 25.98-11.451 26.348-25.666l11.732-68.346c.7-4.074-2.036-7.944-6.111-8.644-4.061-.7-7.943 2.036-8.643 6.111l-11.832 68.923c-.072.419-.108.842-.108 1.267 0 6.278-5.108 11.386-11.386 11.386h-42.633-329.287c2.096-2.863 3.933-6.124 5.496-9.773 1.659-3.878 2.876-8.062 3.721-12.791l44.199-249.037c.665-5.729 5.527-10.049 11.309-10.049h351.634c6.091 0 11.081 4.807 11.374 10.827l-26.608 154.984c-.7 4.074 2.036 7.944 6.11 8.644 4.072.701 7.944-2.036 8.644-6.111l26.73-155.691c.072-.418.108-.842.108-1.267-.001-14.532-11.825-26.356-26.358-26.356zm-291.48-43.336c-2.744 0-5.17-1.648-6.181-4.2l-11.515-29.048h92.889c2.745 0 5.171 1.648 6.182 4.199l11.514 29.048h-92.889z"/><path d="m201.827 369.639c4.134 0 7.485-3.351 7.485-7.485s-3.351-7.485-7.485-7.485h-61.74c-4.134 0-7.485 3.351-7.485 7.485s3.351 7.485 7.485 7.485z"/><path d="m120.627 391.836c0 4.134 3.351 7.485 7.485 7.485h98.217c4.134 0 7.485-3.351 7.485-7.485s-3.351-7.485-7.485-7.485h-98.217c-4.135 0-7.485 3.352-7.485 7.485z"/></g></g></svg>