<svg height="512pt" viewBox="0 0 512 512.08154" width="512pt" xmlns="http://www.w3.org/2000/svg"><path d="m25.640625 512.082031h460.800781c14.136719 0 25.597656-11.460937 25.597656-25.601562v-25.597657c0-.972656-.167968-1.9375-.492187-2.851562l-89.832031-253.148438c-3.628906-10.21875-13.289063-17.050781-24.132813-17.066406h-13.542969v-74.113281c25.242188-11.972656 38.8125-39.835937 32.675782-67.089844-6.136719-27.253906-30.339844-46.613281-58.273438-46.613281s-52.140625 19.359375-58.273437 46.613281c-6.136719 27.253907 7.433593 55.117188 32.671875 67.089844v74.113281h-218.339844c-4.609375.019532-9.125 1.292969-13.066406 3.675782-.128906.085937-.265625.144531-.382813.230468-4.957031 3.042969-8.722656 7.683594-10.683593 13.160156l-89.832032 253.148438c-.316406.890625-.4843748 1.828125-.4960935 2.773438v25.675781c0 14.140625 11.4648435 25.601562 25.6015625 25.601562zm460.800781-17.066406h-460.800781c-4.710937 0-8.53125-3.820313-8.53125-8.535156v-17.066407h477.863281v17.066407c0 4.714843-3.820312 8.535156-8.53125 8.535156zm-271.617187-166.007813 138.300781 123.339844h-317.148438zm182.757812-124.125c3.617188-.003906 6.839844 2.273438 8.046875 5.683594l85.796875 241.78125h-112.640625l-149.503906-133.308594 31.574219-21.800781c2.375-1.640625 3.757812-4.375 3.675781-7.261719-.078125-2.886718-1.613281-5.535156-4.078125-7.039062l-24.746094-15.132812 97.132813-43.132813v133.808594h-8.53125c-4.714844 0-8.535156 3.820312-8.535156 8.535156 0 4.710937 3.820312 8.53125 8.535156 8.53125h68.265625c4.710937 0 8.535156-3.820313 8.535156-8.53125 0-4.714844-3.824219-8.535156-8.535156-8.535156h-8.535157v-153.597657zm-81.808593-145.066406c0-23.566406 19.101562-42.667968 42.667968-42.667968 23.5625 0 42.667969 19.101562 42.667969 42.667968 0 23.5625-19.105469 42.664063-42.667969 42.664063-23.554687-.027344-42.640625-19.113281-42.667968-42.664063zm42.667968 59.730469c2.855469-.023437 5.707032-.25 8.53125-.679687v239.613281h-17.066406v-239.613281c2.824219.429687 5.675781.65625 8.535156.679687zm-25.601562 86.445313-114.398438 50.824218c-.125.050782-.195312.160156-.3125.222656l-85.328125-52.15625h200.039063zm-226.386719 4.574218c.203125-.472656.449219-.921875.730469-1.351562l133.207031 81.425781-214.953125 148.25zm0 0"/><path d="m366.972656 51.28125c2.273438.023438 4.457032-.867188 6.0625-2.472656 1.605469-1.605469 2.496094-3.789063 2.472656-6.058594-.015624-2.265625-.902343-4.433594-2.476562-6.058594-2.441406-2.464844-6.128906-3.203125-9.328125-1.875-3.203125 1.332032-5.28125 4.464844-5.261719 7.933594.03125 2.257812.917969 4.421875 2.472656 6.058594 1.628907 1.570312 3.796876 2.457031 6.058594 2.472656zm0 0"/></svg>