<svg height="512pt" viewBox="0 0 512.0001 512" width="512pt" xmlns="http://www.w3.org/2000/svg"><path d="m503.832031 25.75c-4.945312-3.085938-11.148437-3.367188-16.355469-.742188-47.789062 24.046876-112.941406 1.027344-129.871093-5.722656-3.171875-12.457031-15.085938-20.628906-27.84375-19.101562-12.761719 1.523437-22.414063 12.273437-22.5625 25.125v162.132812h-192.742188c-4.613281.019532-9.136719 1.292969-13.082031 3.6875-.117188.074219-.246094.136719-.355469.222656-4.960937 3.035157-8.734375 7.679688-10.695312 13.15625l-89.828125 253.148438c-.320313.890625-.4843752 1.828125-.496094 2.773438v25.679687c0 14.136719 11.460938 25.597656 25.601562 25.597656h460.796876c14.140624 0 25.601562-11.460937 25.601562-25.597656v-25.601563c0-.972656-.167969-1.933593-.496094-2.851562l-89.828125-253.148438c-3.628906-10.21875-13.289062-17.050781-24.132812-17.066406h-39.144531v-40.5c25.140624 9.371094 51.683593 14.433594 78.507812 14.976563 23.683594.648437 47.050781-5.53125 67.320312-17.800781 4.847657-3.171876 7.773438-8.574219 7.773438-14.371094v-89.402344c.019531-5.957031-3.078125-11.492188-8.167969-14.59375zm-179.566406-.441406c0-4.714844 3.820313-8.535156 8.535156-8.535156 4.710938 0 8.53125 3.820312 8.53125 8.535156v315.734375h-17.066406zm-17.066406 191.660156-88.796875 39.472656c-.121094.058594-.195313.164063-.316406.222656l-85.324219-52.15625h174.4375zm-200.789063-6.777344c.203125-.46875.449219-.921875.734375-1.347656l133.207031 81.425781-214.957031 148.25zm149.589844 241.785156h-220.066406l178.851562-123.34375 138.296875 123.34375zm230.398438 42.664063h-460.796876c-4.714843 0-8.535156-3.820313-8.535156-8.53125v-17.066406h477.867188v17.066406c0 4.710937-3.820313 8.53125-8.535156 8.53125zm-88.855469-290.132813c3.613281 0 6.839843 2.277344 8.046875 5.683594l85.792968 241.785156h-112.640624l-149.503907-133.308593 31.574219-21.804688c2.375-1.640625 3.761719-4.371093 3.679688-7.257812-.082032-2.886719-1.617188-5.539063-4.082032-7.042969l-24.746094-15.128906 71.535157-31.789063v105.398438h-8.53125c-4.714844 0-8.535157 3.820312-8.535157 8.53125 0 4.714843 3.820313 8.535156 8.535157 8.535156h68.265625c4.710937 0 8.53125-3.820313 8.53125-8.535156 0-4.710938-3.820313-8.53125-8.53125-8.53125h-8.535156v-136.535157zm97.390625-74.675781c-47.453125 30.234375-117.351563 6.332031-136.535156-1.195312v-90.734375c25.796874 9.386718 87.597656 27.101562 136.535156 2.441406zm0 0"/><path d="m426.667969 67.976562c-16.164063.667969-32.296875-1.941406-47.421875-7.683593-4.210938-2.054688-9.296875-.324219-11.382813 3.875-2.085937 4.199219-.394531 9.292969 3.789063 11.410156 17.453125 7.042969 36.210937 10.269531 55.015625 9.464844 4.710937 0 8.53125-3.820313 8.53125-8.535157 0-4.710937-3.820313-8.53125-8.53125-8.53125zm0 0"/><path d="m460.800781 85.042969h8.53125c4.714844 0 8.535157-3.820313 8.535157-8.535157 0-4.710937-3.820313-8.53125-8.535157-8.53125h-8.53125c-4.714843 0-8.535156 3.820313-8.535156 8.53125 0 4.714844 3.820313 8.535157 8.535156 8.535157zm0 0"/></svg>