<svg height="512pt" viewBox="0 0 512 512.00032" width="512pt" xmlns="http://www.w3.org/2000/svg"><path d="m255.957031 256c51.839844 0 93.867188-42.023438 93.867188-93.867188 0-51.839843-42.027344-93.867187-93.867188-93.867187-51.839843 0-93.867187 42.027344-93.867187 93.867187.0625 51.816407 42.050781 93.804688 93.867187 93.867188zm0-170.667969c42.414063 0 76.800781 34.386719 76.800781 76.800781 0 42.417969-34.386718 76.800782-76.800781 76.800782-42.414062 0-76.800781-34.382813-76.800781-76.800782.054688-42.394531 34.40625-76.746093 76.800781-76.800781zm0 0"/><path d="m511.746094 468.011719c-.042969-.464844-.117188-.921875-.222656-1.375l-81.425782-244.367188c-1.863281-5.441406-5.488281-10.105469-10.300781-13.253906-4.152344-2.742187-9.015625-4.207031-13.992187-4.214844h-29.3125c12.496093-34.890625 9.207031-73.496093-9.019532-105.765625-18.222656-32.273437-49.582031-55.027344-85.914062-62.339844v-11.09375c.046875-6.757812-2.644532-13.25-7.460938-17.988281-4.757812-4.898437-11.308594-7.6484372-18.140625-7.613281-14.136719 0-25.597656 11.460938-25.597656 25.601562v11.09375c-36.335937 7.3125-67.691406 30.066407-85.917969 62.339844-18.222656 32.269532-21.515625 70.875-9.015625 105.765625h-29.3125c-4.957031.003907-9.800781 1.460938-13.9375 4.1875-4.855469 3.160157-8.507812 7.855469-10.375 13.339844l-81.40625 244.308594v.28125c-.132812.511719-.21875 1.035156-.257812 1.5625 0 .289062-.136719.5625-.136719.851562v17.066407c0 14.140624 11.460938 25.601562 25.601562 25.601562h460.757813c14.136719 0 25.597656-11.460938 25.597656-25.601562v-17.066407c0-.117187-.050781-.230469-.058593-.347656-.03125-.328125-.082032-.652344-.152344-.972656zm-285.125-117.113281c16.453125 15.582031 42.21875 15.582031 58.675781 0l32.363281-30.667969 162.828125 140.570312h-449.058593l162.824218-140.570312zm258.882812 91.707031-155.390625-134.167969 84.136719-79.742188zm-238.078125-417.003907c0-4.714843 3.820313-8.535156 8.53125-8.535156 2.300781-.007812 4.5.9375 6.078125 2.613282 1.589844 1.554687 2.476563 3.695312 2.457032 5.921874v8.96875c-2.835938-.1875-5.652344-.4375-8.535157-.4375-2.882812 0-5.699219.25-8.53125.4375zm8.53125 25.597657c61.265625 0 110.933594 49.667969 110.933594 110.933593 0 61.269532-49.667969 110.933594-110.933594 110.933594s-110.933593-49.664062-110.933593-110.933594c.070312-61.238281 49.695312-110.863281 110.933593-110.933593zm0 238.933593c47.441407-.046874 90.96875-26.316406 113.117188-68.265624h27.589843l-123.101562 116.632812c-9.875 9.351562-25.335938 9.351562-35.210938 0l-123.101562-116.632812h27.589844c22.148437 41.949218 65.675781 68.21875 113.117187 68.265624zm-158.292969-61.4375 84.140626 79.714844-155.394532 134.195313zm388.695313 266.238282h-460.800781c-4.714844 0-8.535156-3.820313-8.535156-8.535156v-8.53125h477.867187v8.53125c0 4.714843-3.820313 8.535156-8.53125 8.535156zm0 0"/><path d="m110.890625 443.734375h8.535156c4.710938 0 8.53125-3.820313 8.53125-8.535156 0-4.710938-3.820312-8.53125-8.53125-8.53125h-8.535156c-4.710937 0-8.53125 3.820312-8.53125 8.53125 0 4.714843 3.820313 8.535156 8.53125 8.535156zm0 0"/><path d="m153.558594 443.734375h170.664062c4.714844 0 8.535156-3.820313 8.535156-8.535156 0-4.710938-3.820312-8.53125-8.535156-8.53125h-170.664062c-4.714844 0-8.535156 3.820312-8.535156 8.53125 0 4.714843 3.820312 8.535156 8.535156 8.535156zm0 0"/><path d="m284.058594 202.300781c3.347656 3.234375 8.667968 3.1875 11.960937-.105469 3.292969-3.289062 3.339844-8.613281.105469-11.960937l-31.632812-31.632813v-47.667968c0-4.710938-3.820313-8.535156-8.535157-8.535156-4.710937 0-8.53125 3.824218-8.53125 8.535156v51.199218c0 2.265626.898438 4.433594 2.5 6.035157zm0 0"/></svg>