<svg height="512pt" viewBox="0 0 512 512.00046" width="512pt" xmlns="http://www.w3.org/2000/svg"><path d="m511.746094 468.011719c-.042969-.464844-.117188-.921875-.222656-1.375l-81.425782-244.367188c-1.863281-5.441406-5.488281-10.105469-10.300781-13.253906-4.152344-2.742187-9.015625-4.207031-13.992187-4.214844h-40.476563c-1.253906-3.59375-3.292969-6.863281-5.972656-9.566406-5.707031-5.210937-9.132813-12.460937-9.53125-20.179687v-47.054688c-.03125-41.976562-27.894531-78.839844-68.265625-90.324219v-12.074219c-.019532-7.542968-3.351563-14.695312-9.121094-19.558593-5.765625-4.863281-13.378906-6.941407-20.816406-5.683594-12.492188 2.496094-21.429688 13.542969-21.261719 26.28125v11.035156c-40.328125 11.554688-68.15625 48.378907-68.269531 90.324219v47.097656c-.324219 7.695313-3.734375 14.9375-9.453125 20.09375-2.75 2.691406-4.84375 5.980469-6.121094 9.609375h-40.402344c-4.957031.003907-9.800781 1.460938-13.9375 4.191407-4.855469 3.15625-8.507812 7.851562-10.375 13.335937l-81.40625 244.308594v.28125c-.132812.511719-.21875 1.035156-.257812 1.5625 0 .289062-.136719.5625-.136719.851562v17.070313c0 14.136718 11.460938 25.597656 25.601562 25.597656h460.757813c14.136719 0 25.597656-11.460938 25.597656-25.597656v-17.070313c0-.117187-.050781-.230469-.058593-.347656-.03125-.328125-.082032-.652344-.152344-.972656zm-285.125-117.113281c16.453125 15.582031 42.21875 15.582031 58.675781 0l32.363281-30.667969 162.828125 140.570312h-449.058593l162.824218-140.570312zm258.882812 91.707031-155.390625-134.167969 84.136719-79.742188zm-320.683594-235.46875c8.890626-8.320313 14.058594-19.867188 14.335938-32.039063v-47.097656c.097656-36.464844 25.734375-67.871094 61.441406-75.261719 3.972656-.8125 6.828125-4.308593 6.828125-8.363281v-17.734375c-.171875-4.410156 2.757813-8.339844 7.03125-9.445313 2.484375-.445312 5.042969.234376 6.980469 1.859376 1.9375 1.621093 3.054688 4.019531 3.054688 6.546874v18.773438c-.003907 4.054688 2.851562 7.550781 6.824218 8.363281 35.746094 7.324219 61.417969 38.773438 61.441406 75.261719v47.054688c.285157 12.292968 5.535157 23.949218 14.558594 32.304687 1.597656 1.578125 2.5 3.730469 2.507813 5.972656.007812 2.300781-.9375 4.5-2.609375 6.078125-1.558594 1.589844-3.699219 2.480469-5.925782 2.457032h-169.710937c-4.664063.191406-8.734375-3.132813-9.488281-7.738282-.234375-2.628906.777344-5.214844 2.730468-6.992187zm6.757813 31.796875h169.710937c10.824219-.023438 20.457032-6.859375 24.046876-17.066406h31.328124l-123.101562 116.632812c-9.875 9.351562-25.335938 9.351562-35.210938 0l-123.101562-116.632812h31.378906c3.964844 10.320312 13.894532 17.113281 24.949219 17.066406zm-73.914063-10.238282 84.140626 79.71875-155.394532 134.191407zm388.695313 266.238282h-460.800781c-4.714844 0-8.535156-3.820313-8.535156-8.53125v-8.535156h477.867187v8.535156c0 4.710937-3.820313 8.53125-8.53125 8.53125zm0 0"/><path d="m110.890625 443.734375h8.535156c4.710938 0 8.53125-3.820313 8.53125-8.535156 0-4.710938-3.820312-8.53125-8.53125-8.53125h-8.535156c-4.710937 0-8.53125 3.820312-8.53125 8.53125 0 4.714843 3.820313 8.535156 8.53125 8.535156zm0 0"/><path d="m153.558594 443.734375h170.664062c4.714844 0 8.535156-3.820313 8.535156-8.535156 0-4.710938-3.820312-8.53125-8.535156-8.53125h-170.664062c-4.714844 0-8.535156 3.820312-8.535156 8.53125 0 4.714843 3.820312 8.535156 8.535156 8.535156zm0 0"/><path d="m204.757812 204.800781h17.066407c4.710937 0 8.535156-3.820312 8.535156-8.535156 0-4.710937-3.824219-8.53125-8.535156-8.53125h-17.066407c-4.714843 0-8.535156 3.820313-8.535156 8.53125 0 4.714844 3.820313 8.535156 8.535156 8.535156zm0 0"/><path d="m255.957031 204.800781h51.199219c4.714844 0 8.535156-3.820312 8.535156-8.535156 0-4.710937-3.820312-8.53125-8.535156-8.53125h-51.199219c-4.710937 0-8.53125 3.820313-8.53125 8.53125 0 4.714844 3.820313 8.535156 8.53125 8.535156zm0 0"/><path d="m103.816406 187.734375c3.453125 0 6.5625-2.082031 7.882813-5.269531 1.320312-3.1875.589843-6.855469-1.847657-9.296875-43.25-43.355469-43.25-113.53125 0-156.886719 3.230469-3.347656 3.1875-8.667969-.105468-11.960938-3.292969-3.292968-8.613282-3.339843-11.960938-.105468-49.902344 50.023437-49.902344 130.996094 0 181.019531 1.597656 1.597656 3.769532 2.5 6.03125 2.5zm0 0"/><path d="m121.925781 161.09375c3.347657 3.234375 8.667969 3.1875 11.960938-.105469s3.335937-8.613281.105469-11.960937c-29.945313-30.011719-29.945313-78.601563 0-108.613282 2.214843-2.140624 3.105468-5.316406 2.324218-8.296874-.78125-2.984376-3.109375-5.316407-6.09375-6.097657-2.984375-.777343-6.15625.109375-8.296875 2.328125-36.601562 36.679688-36.601562 96.066406 0 132.746094zm0 0"/><path d="m402.066406 173.167969c-2.21875 2.140625-3.109375 5.316406-2.328125 8.296875.78125 2.984375 3.109375 5.316406 6.09375 6.09375 2.984375.78125 6.15625-.105469 8.300781-2.324219 49.898438-50.023437 49.898438-130.996094 0-181.019531-3.351562-3.234375-8.671874-3.1875-11.964843.105468-3.289063 3.292969-3.335938 8.613282-.101563 11.960938 43.246094 43.355469 43.246094 113.53125 0 156.886719zm0 0"/><path d="m377.925781 161.09375c3.332031 3.332031 8.734375 3.332031 12.066407 0 36.597656-36.679688 36.597656-96.066406 0-132.746094-3.351563-3.234375-8.671876-3.1875-11.964844.105469-3.289063 3.289063-3.335938 8.613281-.101563 11.960937 29.945313 30.011719 29.945313 78.601563 0 108.613282-3.332031 3.332031-3.332031 8.734375 0 12.066406zm0 0"/></svg>