<svg height="512pt" viewBox="0 0 512 512" width="512pt" xmlns="http://www.w3.org/2000/svg"><path d="m511.691406 398.804688-90.425781-328.710938c-2.984375-11.152344-13.09375-18.902344-24.636719-18.894531h-12.628906v-25.597657c0-14.140624-11.460938-25.601562-25.601562-25.601562-14.136719 0-25.597657 11.460938-25.597657 25.601562v25.597657h-51.199219v-25.597657c0-14.140624-11.464843-25.601562-25.601562-25.601562s-25.601562 11.460938-25.601562 25.601562v25.597657h-51.199219v-25.597657c0-14.140624-11.460938-25.601562-25.597657-25.601562-14.140624 0-25.601562 11.460938-25.601562 25.601562v25.597657h-12.628906c-11.515625-.019531-21.609375 7.699219-24.609375 18.816406l-90.453125 328.789063c-.058594.382812-.089844.765624-.085938 1.152343-.101562.363281-.175781.734375-.222656 1.109375v85.332032c0 14.140624 11.460938 25.601562 25.601562 25.601562h460.796876c14.140624 0 25.601562-11.460938 25.601562-25.601562v-85.332032c-.050781-.386718-.128906-.769531-.230469-1.144531 0-.371094-.027343-.746094-.078125-1.117187zm-16.757812 27.863281h-477.867188v-17.066407h477.867188zm-477.867188 17.066406h477.867188v17.066406h-477.867188zm332.800782-418.132813c0-4.714843 3.820312-8.535156 8.53125-8.535156 4.714843 0 8.535156 3.820313 8.535156 8.535156v42.664063c0 4.714844-3.820313 8.535156-8.535156 8.535156-4.710938 0-8.53125-3.820312-8.53125-8.535156zm-102.402344 0c0-4.714843 3.824218-8.535156 8.535156-8.535156s8.535156 3.820313 8.535156 8.535156v42.664063c0 4.714844-3.824218 8.535156-8.535156 8.535156s-8.535156-3.820312-8.535156-8.535156zm-102.398438 0c0-4.714843 3.820313-8.535156 8.535156-8.535156 4.710938 0 8.53125 3.820313 8.53125 8.535156v42.664063c0 4.714844-3.820312 8.535156-8.53125 8.535156-4.714843 0-8.535156-3.820312-8.535156-8.535156zm-37.828125 48.859376c.992188-3.671876 4.328125-6.214844 8.132813-6.195313h12.628906c0 14.140625 11.460938 25.601563 25.601562 25.601563 14.136719 0 25.597657-11.460938 25.597657-25.601563h51.199219c0 14.140625 11.464843 25.601563 25.601562 25.601563s25.601562-11.460938 25.601562-25.601563h51.199219c0 14.140625 11.460938 25.601563 25.597657 25.601563 14.140624 0 25.601562-11.460938 25.601562-25.601563h12.628906c3.832032-.003906 7.183594 2.570313 8.167969 6.273437l87.472656 317.996094h-472.539062zm379.160157 420.472656h-460.796876c-4.714843 0-8.535156-3.820313-8.535156-8.535156v-8.53125h477.867188v8.53125c0 4.714843-3.820313 8.535156-8.535156 8.535156zm0 0"/><path d="m61.492188 363.589844c1.613281 2.105468 4.117187 3.34375 6.773437 3.34375h375.46875c2.65625 0 5.160156-1.234375 6.773437-3.339844 1.617188-2.109375 2.160157-4.847656 1.46875-7.414062l-59.734374-221.863282c-1.003907-3.730468-4.382813-6.316406-8.242188-6.316406h-256c-3.859375 0-7.238281 2.585938-8.242188 6.316406l-59.734374 221.863282c-.6875 2.566406-.148438 5.300781 1.46875 7.410156zm29.394531-56.390625h46.808593l-8.210937 42.667969h-50.082031zm16.085937-59.734375h42.207032l-8.210938 42.667968h-45.488281zm13.78125-51.199219h38.273438l-6.570313 34.132813h-40.890625zm135.246094-51.199219h17.996094l3.933594 34.132813h-43.859376l3.933594-34.132813zm0 204.800782h-41.625l4.921875-42.667969h73.386719l4.925781 42.667969zm0-153.601563h23.894531l3.933594 34.132813h-55.664063l3.933594-34.132813zm0 51.199219h29.808594l4.921875 42.667968h-69.460938l4.921875-42.667968zm-51.917969 42.667968h-45.730469l8.203126-42.667968h42.453124zm-1.96875 17.066407-4.917969 42.667969h-50.34375l8.199219-42.667969zm107.773438 0h47.046875l8.199218 42.667969h-50.347656zm-1.96875-17.066407-4.925781-42.667968h42.453124l8.203126 42.667968zm54.902343-42.667968h42.207032l11.492187 42.667968h-45.488281zm37.613282-17.066406h-40.890625l-6.570313-34.132813h38.273438zm-58.246094 0h-41.164062l-3.933594-34.132813h38.507812zm-47.046875-51.199219-3.941406-34.132813h34.578125l6.5625 34.132813zm-78.230469 0h-37.222656l6.5625-34.132813h34.574219zm-1.972656 17.066406-3.933594 34.132813h-41.191406l6.5625-34.132813zm167.578125 153.601563-8.210937-42.667969h46.808593l11.527344 42.667969zm4.128906-170.667969h-36.949219l-6.5625-34.132813h34.320313zm-252.097656-34.132813h34.320313l-6.5625 34.132813h-36.949219zm0 0"/></svg>