<svg height="512pt" viewBox="0 0 512 512" width="512pt" xmlns="http://www.w3.org/2000/svg"><path d="m511.691406 398.804688-90.425781-328.710938c-2.984375-11.152344-13.09375-18.902344-24.636719-18.894531h-12.628906v-25.597657c0-14.140624-11.460938-25.601562-25.601562-25.601562-14.136719 0-25.597657 11.460938-25.597657 25.601562v25.597657h-51.199219v-25.597657c0-14.140624-11.464843-25.601562-25.601562-25.601562s-25.601562 11.460938-25.601562 25.601562v25.597657h-51.199219v-25.597657c0-14.140624-11.460938-25.601562-25.597657-25.601562-14.140624 0-25.601562 11.460938-25.601562 25.601562v25.597657h-12.628906c-11.515625-.019531-21.609375 7.699219-24.609375 18.816406l-90.453125 328.789063c-.050782.371093-.078125.746093-.078125 1.117187-.101563.375-.1796878.757813-.230469 1.144531v85.332032c0 14.140624 11.460938 25.601562 25.601562 25.601562h460.796876c14.140624 0 25.601562-11.460938 25.601562-25.601562v-85.332032c-.050781-.386718-.128906-.769531-.230469-1.144531 0-.371094-.027343-.746094-.078125-1.117187zm-366.09375 27.863281h-128.53125v-17.066407h116.054688c3.738281 5.984376 7.90625 11.6875 12.476562 17.066407zm-128.53125 17.066406h145.648438c7.769531 6.550781 16.203125 12.269531 25.164062 17.066406h-170.8125zm110.933594-110.933594c0-70.691406 57.308594-128 128-128s128 57.308594 128 128c0 70.691407-57.308594 128-128 128-70.660156-.082031-127.921875-57.339843-128-128zm366.933594 93.867188h-128.53125c4.570312-5.378907 8.738281-11.082031 12.476562-17.066407h116.054688zm-145.648438 17.066406h145.648438v17.066406h-170.8125c8.960937-4.796875 17.394531-10.515625 25.164062-17.066406zm.582032-418.132813c0-4.714843 3.820312-8.535156 8.53125-8.535156 4.714843 0 8.535156 3.820313 8.535156 8.535156v42.664063c0 4.714844-3.820313 8.535156-8.535156 8.535156-4.710938 0-8.53125-3.820312-8.53125-8.535156zm-102.402344 0c0-4.714843 3.824218-8.535156 8.535156-8.535156s8.535156 3.820313 8.535156 8.535156v42.664063c0 4.714844-3.824218 8.535156-8.535156 8.535156s-8.535156-3.820312-8.535156-8.535156zm-102.398438 0c0-4.714843 3.820313-8.535156 8.535156-8.535156 4.710938 0 8.53125 3.820313 8.53125 8.535156v42.664063c0 4.714844-3.820312 8.535156-8.53125 8.535156-4.714843 0-8.535156-3.820312-8.535156-8.535156zm-37.835937 48.859376c1-3.667969 4.335937-6.207032 8.140625-6.195313h12.628906c0 14.140625 11.460938 25.601563 25.601562 25.601563 14.136719 0 25.597657-11.460938 25.597657-25.601563h51.199219c0 14.140625 11.464843 25.601563 25.601562 25.601563s25.601562-11.460938 25.601562-25.601563h51.199219c0 14.140625 11.460938 25.601563 25.597657 25.601563 14.140624 0 25.601562-11.460938 25.601562-25.601563h12.628906c3.832032-.007813 7.1875 2.570313 8.167969 6.273437l87.472656 317.996094h-104.226562c17.363281-37.929687 17.363281-81.539062 0-119.46875h30.089843c4.714844 0 8.535157-3.820312 8.535157-8.53125 0-4.714844-3.820313-8.535156-8.535157-8.535156h-39.253906c-13.476562-21.535156-32.339844-39.183594-54.722656-51.199219h76.910156c4.714844 0 8.535156-3.820312 8.535156-8.535156 0-4.710937-3.820312-8.53125-8.535156-8.53125h-290.132812c-4.714844 0-8.535156 3.820313-8.535156 8.53125 0 4.714844 3.820312 8.535156 8.535156 8.535156h76.945312c-22.398437 12.011719-41.273437 29.65625-54.757812 51.199219h-39.253906c-4.714844 0-8.535157 3.820312-8.535157 8.535156 0 4.710938 3.820313 8.53125 8.535157 8.53125h30.089843c-17.363281 37.929688-17.363281 81.539063 0 119.46875h-104.226562zm379.167969 420.472656h-460.796876c-4.714843 0-8.535156-3.820313-8.535156-8.535156v-8.53125h477.867188v8.53125c0 4.714843-3.820313 8.535156-8.535156 8.535156zm0 0"/><path d="m128 145.066406h256c4.710938 0 8.535156-3.820312 8.535156-8.53125 0-4.714844-3.824218-8.535156-8.535156-8.535156h-256c-4.710938 0-8.535156 3.820312-8.535156 8.535156 0 4.710938 3.824218 8.53125 8.535156 8.53125zm0 0"/><path d="m349.867188 324.265625c0-9.425781-7.640626-17.066406-17.066407-17.066406h-51.199219v-51.199219c0-9.425781-7.640624-17.066406-17.066406-17.066406h-17.070312c-9.425782 0-17.066406 7.640625-17.066406 17.066406v51.199219h-51.199219c-9.425781 0-17.066407 7.640625-17.066407 17.066406v17.066406c0 9.425781 7.640626 17.066407 17.066407 17.066407h51.199219v51.203124c0 9.425782 7.640624 17.066407 17.066406 17.066407h17.070312c9.425782 0 17.066406-7.640625 17.066406-17.066407v-51.203124h51.199219c9.425781 0 17.066407-7.640626 17.066407-17.066407zm-17.066407 17.066406h-59.734375c-4.710937 0-8.53125 3.820313-8.53125 8.535157v59.734374h-17.070312v-59.734374c0-4.714844-3.820313-8.535157-8.53125-8.535157h-59.734375v-17.066406h59.734375c4.710937 0 8.53125-3.820313 8.53125-8.53125v-59.734375h17.070312v59.734375c0 4.710937 3.820313 8.53125 8.53125 8.53125h59.734375zm0 0"/></svg>