<svg height="512pt" viewBox="0 0 512 512" width="512pt" xmlns="http://www.w3.org/2000/svg"><path d="m511.691406 398.804688-90.425781-328.710938c-2.984375-11.152344-13.09375-18.902344-24.636719-18.894531h-12.628906v-25.597657c0-14.140624-11.460938-25.601562-25.601562-25.601562-14.136719 0-25.597657 11.460938-25.597657 25.601562v25.597657h-51.199219v-25.597657c0-14.140624-11.464843-25.601562-25.601562-25.601562s-25.601562 11.460938-25.601562 25.601562v25.597657h-51.199219v-25.597657c0-14.140624-11.460938-25.601562-25.597657-25.601562-14.140624 0-25.601562 11.460938-25.601562 25.601562v25.597657h-12.628906c-11.515625-.019531-21.609375 7.699219-24.609375 18.816406l-90.453125 328.789063c-.050782.371093-.078125.746093-.078125 1.117187-.101563.375-.1796878.757813-.230469 1.144531v85.332032c0 14.140624 11.460938 25.601562 25.601562 25.601562h460.796876c14.140624 0 25.601562-11.460938 25.601562-25.601562v-85.332032c-.050781-.386718-.128906-.769531-.230469-1.144531 0-.371094-.027343-.746094-.078125-1.117187zm-255.691406-253.738282h17.996094l1.964844 17.066406h-39.921876l1.964844-17.066406zm238.933594 281.601563h-128.53125c4.570312-5.378907 8.738281-11.082031 12.476562-17.066407h116.054688zm-96.265625-119.46875h22.453125l11.519531 42.667969h-32.667969c1.8125-14.203126 1.371094-28.601563-1.304687-42.667969zm-4.027344-17.066407c-5.832031-18.808593-15.441406-36.230468-28.238281-51.199218h36.371094l13.789062 51.199218zm-221.6875-76.101562 6.714844-34.832031h37.230469l-1.703126 14.507812c-15.09375 4.433594-29.359374 11.296875-42.242187 20.324219zm61.117187-34.832031h43.859376l1.210937 10.554687c-15.308594-2.695312-30.972656-2.695312-46.28125 0zm62.695313 14.507812-1.707031-14.507812h37.230468l6.714844 34.832031c-12.878906-9.027344-27.148437-15.890625-42.238281-20.324219zm61.171875 28.160157-8.222656-42.667969h36.9375l11.496094 42.667969zm-11.484375-59.734376-3.292969-17.066406h34.328125l4.601563 17.066406zm-20.675781-17.066406 3.292968 17.066406h-35.933593l-1.960938-17.066406zm-106.914063 17.066406h-35.910156l3.296875-17.066406h34.574219zm-53.316406 0h-35.609375l4.597656-17.066406h34.332032zm-40.226563 17.066407h36.941407l-8.226563 42.667969h-40.183594zm-16.09375 59.734375h36.335938c-12.796875 14.96875-22.40625 32.390625-28.238281 51.199218h-21.851563zm-18.347656 68.265625h22.453125c-2.675781 14.066406-3.117187 28.464843-1.304687 42.667969h-32.667969zm54.71875 119.46875h-128.53125v-17.066407h116.054688c3.738281 5.984376 7.90625 11.6875 12.476562 17.066407zm-128.53125 17.066406h145.648438c7.769531 6.550781 16.203125 12.269531 25.164062 17.066406h-170.8125zm110.933594-110.933594c0-70.691406 57.308594-128 128-128s128 57.308594 128 128c0 70.691407-57.308594 128-128 128-70.660156-.082031-127.921875-57.339843-128-128zm221.285156 110.933594h145.648438v17.066406h-170.8125c8.960937-4.796875 17.394531-10.515625 25.164062-17.066406zm.582032-418.132813c0-4.714843 3.820312-8.535156 8.53125-8.535156 4.714843 0 8.535156 3.820313 8.535156 8.535156v42.664063c0 4.714844-3.820313 8.535156-8.535156 8.535156-4.710938 0-8.53125-3.820312-8.53125-8.535156zm-102.402344 0c0-4.714843 3.824218-8.535156 8.535156-8.535156s8.535156 3.820313 8.535156 8.535156v42.664063c0 4.714844-3.824218 8.535156-8.535156 8.535156s-8.535156-3.820312-8.535156-8.535156zm-102.398438 0c0-4.714843 3.820313-8.535156 8.535156-8.535156 4.710938 0 8.53125 3.820313 8.53125 8.535156v42.664063c0 4.714844-3.820312 8.535156-8.53125 8.535156-4.714843 0-8.535156-3.820312-8.535156-8.535156zm-37.835937 48.859376c1-3.667969 4.335937-6.207032 8.140625-6.195313h12.628906c0 14.140625 11.460938 25.601563 25.601562 25.601563 14.136719 0 25.597657-11.460938 25.597657-25.601563h51.199219c0 14.140625 11.464843 25.601563 25.601562 25.601563s25.601562-11.460938 25.601562-25.601563h51.199219c0 14.140625 11.460938 25.601563 25.597657 25.601563 14.140624 0 25.601562-11.460938 25.601562-25.601563h12.628906c3.832032-.007813 7.1875 2.570313 8.167969 6.273437l87.472656 317.996094h-104.226562c3.738281-8.238281 6.683593-16.808594 8.800781-25.601562h46.890625c2.652344 0 5.15625-1.234375 6.769531-3.339844 1.617188-2.105469 2.160156-4.839844 1.472656-7.402344l-59.734374-221.867187c-1-3.730469-4.378907-6.324219-8.242188-6.324219h-256c-3.855469-.003906-7.238281 2.582031-8.242188 6.304688l-59.734374 221.867187c-.695313 2.566406-.152344 5.308594 1.464843 7.417969 1.613281 2.109375 4.121094 3.34375 6.777344 3.34375h46.933594c2.117187 8.792968 5.0625 17.363281 8.796875 25.601562h-104.265625zm379.167969 420.472656h-460.796876c-4.714843 0-8.535156-3.820313-8.535156-8.535156v-8.53125h477.867188v8.53125c0 4.714843-3.820313 8.535156-8.535156 8.535156zm0 0"/><path d="m319.316406 369.996094c-2.355468-1.515625-3.71875-4.171875-3.582031-6.972656v-55.824219c-.027344-20.265625-14.28125-37.730469-34.132813-41.8125v-9.386719c-.070312-14.109375-11.492187-25.53125-25.601562-25.601562-14.136719 0-25.601562 11.464843-25.601562 25.601562v9.386719c-19.851563 4.082031-34.105469 21.546875-34.132813 41.8125v55.816406c.15625 2.773437-1.183594 5.417969-3.515625 6.929687-2.203125 1.171876-4.214844 2.671876-5.972656 4.445313-5.445313 5.3125-8.207032 12.792969-7.519532 20.371094 1.484376 13.457031 12.960938 23.582031 26.496094 23.371093h101.445313c14.105469-.078124 25.523437-11.492187 25.601562-25.597656-.007812-9.421875-5.183593-18.078125-13.484375-22.539062zm-6.195312 28.613281c-1.554688 1.59375-3.695313 2.480469-5.921875 2.457031h-101.445313c-4.664062.1875-8.734375-3.136718-9.488281-7.746094-.238281-2.550781.707031-5.066406 2.5625-6.828124.570313-.589844 1.230469-1.089844 1.953125-1.484376 7.921875-4.453124 12.75-12.90625 12.550781-21.992187v-55.816406c0-14.136719 11.460938-25.597657 25.601563-25.597657 4.710937 0 8.53125-3.820312 8.53125-8.535156v-17.066406c0-4.710938 3.824218-8.535156 8.535156-8.535156 2.300781-.003906 4.503906.941406 6.085938 2.613281 1.582031 1.5625 2.464843 3.699219 2.449218 5.921875v17.066406c0 4.714844 3.820313 8.535156 8.53125 8.535156 14.140625 0 25.601563 11.460938 25.601563 25.597657v55.824219c-.167969 9.078124 4.644531 17.515624 12.542969 21.992187 2.777343 1.480469 4.515624 4.371094 4.523437 7.519531.003906 2.296875-.941406 4.496094-2.613281 6.074219zm0 0"/><path d="m281.601562 366.933594h-51.203124c-4.710938 0-8.53125 3.820312-8.53125 8.53125 0 4.714844 3.820312 8.535156 8.53125 8.535156h51.203124c4.710938 0 8.53125-3.820312 8.53125-8.535156 0-4.710938-3.820312-8.53125-8.53125-8.53125zm0 0"/></svg>