<svg height="512pt" viewBox="-26 0 512 512" width="512pt" xmlns="http://www.w3.org/2000/svg"><path d="m25.601562 426.667969h113.953126l-18.519532 50.960937c-2.351562 6.335938-2.0625 13.351563.804688 19.472656 4.347656 9.417969 13.949218 15.277344 24.316406 14.84375 10.363281-.4375 19.4375-7.082031 22.984375-16.832031l24.914063-68.445312h10.746093v59.730469c0 14.140624 11.460938 25.601562 25.597657 25.601562 14.140624 0 25.601562-11.460938 25.601562-25.601562v-59.730469h10.753906l24.933594 68.574219c3.726562 10.0625 13.316406 16.746093 24.046875 16.757812 2.972656 0 5.921875-.519531 8.710937-1.542969 6.425782-2.328125 11.652344-7.136719 14.507813-13.347656 2.875-6.101563 3.179687-13.101563.851563-19.429687l-18.550782-51.011719h113.945313c14.140625 0 25.601562-11.460938 25.601562-25.601563v-341.332031c0-14.140625-11.460937-25.601563-25.601562-25.601563h-162.132813v-8.53125c0-14.140624-11.460937-25.601562-25.601562-25.601562h-34.132813c-14.136719 0-25.597656 11.460938-25.597656 25.601562v8.53125h-162.132813c-14.140624 0-25.601562 11.460938-25.601562 25.601563v341.332031c0 14.140625 11.460938 25.601563 25.601562 25.601563zm127.503907 62.589843c-.78125 2.164063-2.398438 3.925782-4.488281 4.890626-2.019532.9375-4.328126 1.03125-6.417969.265624-2.160157-.777343-3.917969-2.394531-4.871094-4.480468-.949219-2.023438-1.042969-4.339844-.265625-6.433594l20.640625-56.832031h18.195313zm85.828125-2.859374c0 4.714843-3.820313 8.535156-8.535156 8.535156-4.710938 0-8.53125-3.820313-8.53125-8.535156v-59.730469h17.066406zm84.828125-2.847657c.769531 2.078125.671875 4.382813-.273438 6.390625-1.425781 3.152344-4.621093 5.128906-8.078125 5.003906-3.460937-.125-6.5-2.328124-7.699218-5.574218l-22.808594-62.703125h18.191406zm-76.296875-73.949219h-172.535156l-4.265626-17.066406h319.480469l-4.265625 17.066406zm-42.664063-384c0-4.714843 3.820313-8.535156 8.53125-8.535156h34.132813c4.714844 0 8.535156 3.820313 8.535156 8.535156v8.53125h-51.199219zm-187.734375 34.132813c0-4.714844 3.820313-8.535156 8.535156-8.535156h409.597657c4.714843 0 8.535156 3.820312 8.535156 8.535156v341.332031c0 4.714844-3.820313 8.535156-8.535156 8.535156h-31.734375l3.234375-12.9375c1.269531-5.097656.125-10.5-3.113281-14.640624-3.234376-4.140626-8.195313-6.558594-13.449219-6.558594h-319.472657c-5.253906.003906-10.214843 2.425781-13.449218 6.566406s-4.378906 9.542969-3.105469 14.640625l3.226563 12.929687h-31.734376c-4.714843 0-8.535156-3.820312-8.535156-8.535156zm0 0"/><path d="m59.734375 349.867188h34.132813c14.136718 0 25.597656-11.460938 25.597656-25.601563v-17.066406c0-14.136719-11.460938-25.597657-25.597656-25.597657h-8.535157v-17.066406h85.335938v17.066406h-8.535157c-14.136718 0-25.597656 11.460938-25.597656 25.597657v17.066406c0 14.140625 11.460938 25.601563 25.597656 25.601563h34.132813c14.140625 0 25.601563-11.460938 25.601563-25.601563v-17.066406c0-14.136719-11.460938-25.597657-25.601563-25.597657h-8.53125v-17.066406h85.332031v17.066406h-8.53125c-14.140625 0-25.601562 11.460938-25.601562 25.597657v17.066406c0 14.140625 11.460937 25.601563 25.601562 25.601563h34.132813c14.136719 0 25.597656-11.460938 25.597656-25.601563v-17.066406c0-14.136719-11.460937-25.597657-25.597656-25.597657h-8.535157v-17.066406h85.332032v17.066406h-8.53125c-14.140625 0-25.601563 11.460938-25.601563 25.597657v17.066406c0 14.140625 11.460938 25.601563 25.601563 25.601563h34.132812c14.140625 0 25.601563-11.460938 25.601563-25.601563v-17.066406c0-14.136719-11.460938-25.597657-25.601563-25.597657h-8.53125v-25.601562c0-4.710938-3.824218-8.535156-8.535156-8.535156h-34.132812v-17.066406h8.53125c14.140624 0 25.601562-11.460938 25.601562-25.597657v-17.066406c0-14.140625-11.460938-25.601563-25.601562-25.601563h-34.132813c-14.136719 0-25.597656 11.460938-25.597656 25.601563h-25.601563c0-14.140625-11.460937-25.601563-25.601562-25.601563h-8.53125v-17.066406h17.066406c14.136719 0 25.601562-11.460937 25.601562-25.601562v-17.066406c0-14.136719-11.464843-25.597657-25.601562-25.597657h-51.199219c-14.140625 0-25.601562 11.460938-25.601562 25.597657v17.066406c0 14.140625 11.460937 25.601562 25.601562 25.601562h17.066407v17.066406h-8.535157c-14.136719 0-25.597656 11.460938-25.597656 25.601563h-25.601563c0-14.140625-11.460937-25.601563-25.597656-25.601563h-34.136718c-14.136719 0-25.597657 11.460938-25.597657 25.601563v17.066406c0 14.136719 11.460938 25.597657 25.597657 25.597657h8.535156v17.066406h-34.132813c-4.714843 0-8.535156 3.824218-8.535156 8.535156v25.601562h-8.53125c-14.140625 0-25.601563 11.460938-25.601563 25.597657v17.066406c0 14.140625 11.460938 25.601563 25.601563 25.601563zm145.066406-42.667969v17.066406c0 4.714844-3.820312 8.535156-8.535156 8.535156h-34.132813c-4.710937 0-8.53125-3.820312-8.53125-8.535156v-17.066406c0-4.710938 3.820313-8.53125 8.53125-8.53125h34.132813c4.714844 0 8.535156 3.820312 8.535156 8.53125zm102.398438 0v17.066406c0 4.714844-3.820313 8.535156-8.53125 8.535156h-34.132813c-4.714844 0-8.535156-3.820312-8.535156-8.535156v-17.066406c0-4.710938 3.820312-8.53125 8.535156-8.53125h34.132813c4.710937 0 8.53125 3.820312 8.53125 8.53125zm102.402343 0v17.066406c0 4.714844-3.820312 8.535156-8.535156 8.535156h-34.132812c-4.714844 0-8.535156-3.820312-8.535156-8.535156v-17.066406c0-4.710938 3.820312-8.53125 8.535156-8.53125h34.132812c4.714844 0 8.535156 3.820312 8.535156 8.53125zm-213.335937-187.734375v-17.066406c0-4.710938 3.820313-8.53125 8.535156-8.53125h51.199219c4.710938 0 8.535156 3.820312 8.535156 8.53125v17.066406c0 4.714844-3.824218 8.535156-8.535156 8.535156h-51.199219c-4.714843 0-8.535156-3.820312-8.535156-8.535156zm119.46875 68.269531c0-4.714844 3.820313-8.535156 8.53125-8.535156h34.132813c4.714843 0 8.535156 3.820312 8.535156 8.535156v17.066406c0 4.710938-3.820313 8.53125-8.535156 8.53125h-34.132813c-4.710937 0-8.53125-3.820312-8.53125-8.53125zm-17.066406 17.066406c0 14.136719 11.460937 25.597657 25.597656 25.597657h8.535156v17.066406h-93.867187v-17.066406h8.53125c14.140625 0 25.601562-11.460938 25.601562-25.597657zm-93.867188-17.066406c0-4.714844 3.820313-8.535156 8.53125-8.535156h34.132813c4.714844 0 8.535156 3.820312 8.535156 8.535156v17.066406c0 4.710938-3.820312 8.53125-8.535156 8.53125h-34.132813c-4.710937 0-8.53125-3.820312-8.53125-8.53125zm-110.933593 17.066406v-17.066406c0-4.714844 3.820312-8.535156 8.53125-8.535156h34.136718c4.710938 0 8.53125 3.820312 8.53125 8.535156v17.066406c0 4.710938-3.820312 8.53125-8.53125 8.53125h-34.136718c-4.710938 0-8.53125-3.820312-8.53125-8.53125zm34.132812 25.597657h8.535156c14.136719 0 25.597656-11.460938 25.597656-25.597657h25.601563c0 14.136719 11.460937 25.597657 25.597656 25.597657h8.535157v17.066406h-93.867188zm-76.800781 76.800781c0-4.710938 3.820312-8.53125 8.535156-8.53125h34.132813c4.710937 0 8.53125 3.820312 8.53125 8.53125v17.066406c0 4.714844-3.820313 8.535156-8.53125 8.535156h-34.132813c-4.714844 0-8.535156-3.820312-8.535156-8.535156zm0 0"/></svg>