<svg height="512pt" viewBox="-26 0 512 512" width="512pt" xmlns="http://www.w3.org/2000/svg"><path d="m25.601562 426.667969h113.953126l-18.519532 50.960937c-2.351562 6.335938-2.0625 13.351563.804688 19.472656 4.347656 9.417969 13.949218 15.277344 24.316406 14.84375 10.363281-.4375 19.4375-7.082031 22.984375-16.832031l24.914063-68.445312h10.746093v59.730469c0 14.140624 11.460938 25.601562 25.597657 25.601562 14.140624 0 25.601562-11.460938 25.601562-25.601562v-59.730469h10.753906l24.933594 68.574219c3.726562 10.0625 13.316406 16.746093 24.046875 16.757812 2.972656 0 5.921875-.519531 8.710937-1.542969 6.425782-2.328125 11.652344-7.136719 14.507813-13.347656 2.875-6.101563 3.179687-13.101563.851563-19.429687l-18.550782-51.011719h113.945313c14.140625 0 25.601562-11.460938 25.601562-25.601563v-341.332031c0-14.140625-11.460937-25.601563-25.601562-25.601563h-162.132813v-8.53125c0-14.140624-11.460937-25.601562-25.601562-25.601562h-34.132813c-14.136719 0-25.597656 11.460938-25.597656 25.601562v8.53125h-162.132813c-14.140624 0-25.601562 11.460938-25.601562 25.601563v341.332031c0 14.140625 11.460938 25.601563 25.601562 25.601563zm127.503907 62.589843c-.78125 2.164063-2.398438 3.925782-4.488281 4.890626-2.019532.9375-4.328126 1.035156-6.417969.265624-2.160157-.777343-3.917969-2.394531-4.871094-4.480468-.949219-2.023438-1.042969-4.339844-.265625-6.433594l20.640625-56.832031h18.195313zm85.828125-2.859374c0 4.714843-3.820313 8.535156-8.535156 8.535156-4.710938 0-8.53125-3.820313-8.53125-8.535156v-59.730469h17.066406zm84.828125-2.847657c.769531 2.078125.671875 4.382813-.273438 6.390625-1.425781 3.152344-4.621093 5.128906-8.078125 5.003906-3.460937-.125-6.5-2.328124-7.699218-5.574218l-22.808594-62.703125h18.191406zm-76.296875-73.949219h-172.535156l-4.265626-17.066406h319.480469l-4.265625 17.066406zm-42.664063-384c0-4.714843 3.820313-8.535156 8.53125-8.535156h34.132813c4.714844 0 8.535156 3.820313 8.535156 8.535156v8.53125h-51.199219zm-187.734375 34.132813c0-4.714844 3.820313-8.535156 8.535156-8.535156h409.597657c4.714843 0 8.535156 3.820312 8.535156 8.535156v341.332031c0 4.714844-3.820313 8.535156-8.535156 8.535156h-31.734375l3.234375-12.9375c1.269531-5.097656.125-10.5-3.113281-14.640624-3.234376-4.140626-8.195313-6.558594-13.449219-6.558594h-319.472657c-5.253906.003906-10.214843 2.425781-13.449218 6.566406s-4.378906 9.542969-3.105469 14.640625l3.226563 12.929687h-31.734376c-4.714843 0-8.535156-3.820312-8.535156-8.535156zm0 0"/><path d="m157.984375 265.496094c-7.109375-5.050782-16.199219-6.414063-24.480469-3.667969-4.6875-6.511719-12.332031-10.238281-20.351562-9.914063-8.019532.324219-15.339844 4.648438-19.492188 11.519532-3.519531-1.960938-7.480468-2.992188-11.507812-2.996094-10.574219.144531-19.878906 7.007812-23.136719 17.066406-6.796875-.089844-13.339844 2.585938-18.128906 7.414063-4.785157 4.824219-7.410157 11.390625-7.265625 18.1875-.113282 10.546875 6.257812 20.082031 16.042968 24.019531 0 .519531-.050781 1.050781-.050781 1.578125-.273437 13.835937 10.699219 25.285156 24.53125 25.601563 4.035157.003906 8-1.027344 11.523438-2.996094 4.339843 7.160156 12.105469 11.53125 20.476562 11.53125 8.375 0 16.140625-4.371094 20.480469-11.53125 3.519531 1.960937 7.484375 2.992187 11.511719 2.996094 13.835937-.316407 24.804687-11.765626 24.535156-25.601563.011719-4.96875-1.394531-9.835937-4.046875-14.035156 7.636719-5.765625 12.097656-14.796875 12.042969-24.363281-.003907-3.890626-.738281-7.742188-2.167969-11.359376l33.738281-25.285156c5.550781 5.007813 12.320313 8.464844 19.628907 10.019532v18.773437c-21.460938 4.382813-36.121094 24.300781-33.917969 46.09375s20.546875 38.378906 42.449219 38.378906c21.90625 0 40.25-16.585937 42.453124-38.378906 2.199219-21.792969-12.457031-41.710937-33.917968-46.09375v-18.773437c6.140625-1.300782 11.914062-3.949219 16.902344-7.757813l43.410156 38.570313c-.367188 1.363281-.5625 2.765624-.578125 4.175781v34.132812c0 9.425781 7.640625 17.066407 17.066406 17.066407h68.265625c9.425781 0 17.066406-7.640626 17.066406-17.066407v-34.132812c0-9.425781-7.640625-17.066407-17.066406-17.066407h-68.265625c-1.53125.019532-3.054687.25-4.523437.679688l-44.050782-39.140625c2.371094-3.941406 4.078125-8.246094 5.054688-12.742187h69.117187c14.140625 0 25.601563-11.460938 25.601563-25.597657v-27.257812c5.351562-1.855469 9.9375-5.4375 13.039062-10.179688 10.273438 5.769531 23.15625 3.78125 31.210938-4.816406 8.058594-8.59375 9.207031-21.582031 2.785156-31.457031 12.136719-8.535156 16.167969-24.6875 9.464844-37.925782-6.707032-13.238281-22.109375-19.542968-36.175782-14.8125-5.058593-6.652343-13.050781-10.414062-21.402343-10.066406-8.355469.351563-16.007813 4.761719-20.496094 11.816406-6.589844-3.707031-14.484375-4.308593-21.5625-1.644531-7.078125 2.664063-12.617187 8.320313-15.128906 15.453125-12.738281-.734375-24.070313 8.027344-26.570313 20.539063-2.503906 12.507812 4.589844 24.953125 16.628906 29.175781 0 .476562-.042968.957031-.042968 1.441406.003906 9.09375 4.832031 17.507813 12.683594 22.09375 7.855468 4.589844 17.550781 4.667969 25.476562.203125 3.097656 4.742188 7.675781 8.320313 13.023438 10.179688v27.257812c0 4.710938-3.820313 8.53125-8.535157 8.53125h-69.117187c-3.453125-16.742187-16.539063-29.828125-33.28125-33.277343v-34.988282h25.601562c3.050782.007813 5.871094-1.617187 7.402344-4.257812 1.527344-2.644532 1.527344-5.898438.003906-8.542969l-34.132812-59.730469c-.09375-.164062-.257813-.257812-.359375-.410156-.332031-.46875-.707031-.90625-1.128907-1.296875-.386718-.410156-.8125-.78125-1.269531-1.109375-.164062-.105469-.246093-.265625-.417969-.359375-.875-.289063-1.75-.570313-2.628906-.855469-.527344-.089844-1.066406-.125-1.605468-.101562-.535157-.019532-1.074219.019531-1.601563.121094-.589844.117187-1.160156.304687-1.707031.554687-.328125.078125-.644532.183594-.957032.316406-.160156.09375-.253906.253907-.410156.355469-.46875.332031-.902344.710938-1.296875 1.128906-.40625.386719-.777343.8125-1.109375 1.269532-.101562.164062-.261718.25-.359375.417968l-34.132812 59.734375c-1.511719 2.644531-1.496094 5.898438.039062 8.53125 1.535157 2.632813 4.355469 4.246094 7.402344 4.234375h25.601563v34.988282c-16.746094 3.449218-29.828126 16.535156-33.28125 33.277343h-43.519532c-2.6875 0-5.214844-1.261719-6.828125-3.410156l-35.839843-47.789063h17.066406c9.425781 0 17.070312-7.640624 17.070312-17.066406v-34.132812c0-9.425782-7.644531-17.066406-17.070312-17.066406h-68.265625c-9.425781 0-17.066407 7.640624-17.066407 17.066406v34.132812c0 9.425782 7.640626 17.066406 17.066407 17.066406h29.867187l43.519532 58.027344c4.847656 6.429688 12.425781 10.222656 20.480468 10.238282h43.519532c.722656 3.335937 1.847656 6.574218 3.355468 9.636718zm157.75 33.171875h68.265625v34.132812h-68.265625zm8.53125-145.066407c-4.710937 0-8.53125-3.820312-8.53125-8.535156-.003906-1.5.398437-2.976562 1.167969-4.265625 1.679687-2.785156 1.628906-6.285156-.128906-9.019531-1.746094-2.75-4.914063-4.253906-8.148438-3.867188-.472656.0625-.949219.089844-1.425781.085938-4.710938 0-8.53125-3.820312-8.53125-8.535156 0-4.710938 3.820312-8.53125 8.53125-8.53125 1.519531-.007813 3.015625.398437 4.320312 1.175781 2.777344 1.667969 6.257813 1.613281 8.984375-.132813 2.730469-1.746093 4.234375-4.890624 3.882813-8.109374-.066407-.484376-.109375-.976563-.121094-1.46875 0-4.710938 3.820313-8.53125 8.535156-8.53125 3.917969.0625 7.3125 2.738281 8.285157 6.535156 0 .113281.109374.1875.136718.289062.023438.105469 0 .222656 0 .328125.308594.894531.761719 1.730469 1.339844 2.480469.050781.070312.128906.113281.179688.171875.617187.746094 1.363281 1.382813 2.199218 1.875.113282.070313.171875.191406.292969.25.117187.058594.347656.078125.519531.152344.71875.335937 1.476563.570312 2.261719.691406.289063.042969.5625.113281.851563.128906.15625 0 .292968.078125.445312.078125.925781-.007812 1.84375-.160156 2.722656-.453125l1.015625-.34375c1.054688-.359375 2.03125-.921875 2.875-1.652343.253907-.285157.496094-.585938.714844-.898438.480469-.492188.898437-1.039062 1.246094-1.628906.167969-.414063.304687-.839844.410156-1.273438.230469-.574218.394531-1.175781.496094-1.789062.007812-.5-.027344-.996094-.113281-1.484375.019531-.523438-.015626-1.046875-.109376-1.5625-.132812-.621094-.191406-1.257813-.171874-1.894531 0-4.714844 3.820312-8.535157 8.535156-8.535157 3.960937.03125 7.398437 2.742188 8.34375 6.589844.683594 2.84375 2.777344 5.140625 5.546875 6.085937 2.769531.941407 5.832031.398438 8.109375-1.4375 2.230468-1.78125 5.011718-2.738281 7.867187-2.703124 7.070313 0 12.800781 5.730468 12.800781 12.800781 0 7.066406-5.730468 12.796875-12.800781 12.796875-2.492187.109375-4.816406 1.285156-6.375 3.234375-.101562.113281-.214843.207031-.308593.324219-.695313.851562-1.238282 1.816406-1.601563 2.851562-.355469 1.101562-.480469 2.261719-.367187 3.414062 0 .136719.085937.253907.101562.382813.117188.988281.40625 1.945313.851562 2.832031v.121094c.164063.296875.453126.476562.640626.75.410156.632812.90625 1.207031 1.46875 1.707031.414062.289063.855468.535157 1.3125.742188.441406.3125.914062.578125 1.410156.792969.109375 0 .222656 0 .332031.050781.109375.054687.136719.085937.214844.113281 3.820312.945312 6.527343 4.347656 6.585937 8.285156 0 4.714844-3.820312 8.535156-8.53125 8.535156-3.921875-.0625-7.316406-2.742187-8.289062-6.539062 0-.109375-.109375-.1875-.136719-.289062-.023437-.101563 0-.222657 0-.324219-.234375-.488281-.515625-.949219-.84375-1.382813-.210937-.449218-.457031-.878906-.742187-1.289062-.5-.558594-1.074219-1.042969-1.707032-1.449219-.238281-.234375-.492187-.449219-.757812-.648437 0 0-.09375 0-.136719 0-.808594-.394532-1.671875-.65625-2.5625-.777344-.222656-.074219-.449219-.136719-.679687-.1875-1.15625-.101563-2.316407.039062-3.414063.410156l-1.015625.339844c-1.058594.363281-2.035156.925781-2.875 1.65625-.257812.285156-.496094.582031-.71875.894531-.476562.496094-.894531 1.042969-1.246094 1.632813-.167968.410156-.304687.835937-.410156 1.269531-.226562.578125-.394531 1.179687-.492188 1.792969-.007812.496093.03125.992187.109376 1.484374-.019532.523438.019531 1.046876.113281 1.5625.140625.601563.207031 1.222657.203125 1.84375 0 4.710938-3.820313 8.53125-8.535156 8.53125-4.710938 0-8.53125-3.820312-8.53125-8.53125-.007813-.640624.066406-1.277343.210937-1.894531.09375-.515625.128906-1.039062.113281-1.5625.082032-.492187.121094-.988281.109375-1.484375-.097656-.613281-.265625-1.214844-.492187-1.792968-.105469-.433594-.242188-.859376-.410156-1.269532-.351563-.59375-.769532-1.140625-1.246094-1.632812-.222656-.3125-.460938-.609375-.71875-.894532-.84375-.734374-1.816406-1.292968-2.875-1.65625l-1.015625-.339843c-.875-.296875-1.796875-.445313-2.722657-.445313-.136718 0-.273437 0-.410156.050782-.136718.050781-.398437.050781-.605468.078124-.855469.097657-1.695313.328126-2.480469.683594-.128907.058594-.257813.082032-.386719.152344-.125.066406-.136719 0-.195312.078125-.300782.222656-.585938.46875-.851563.730469-.585937.382812-1.121094.839844-1.589844 1.359375-.300781.417969-.5625.867187-.777343 1.339843-.304688.421876-.566407.875-.78125 1.347657v.324219c0 .109374-.113282.179687-.136719.289062-.980469 3.816406-4.398438 6.5-8.339844 6.539062zm-273.066406-42.667968h68.265625v34.132812h-68.265625zm90.933593 192.171875c-3.867187.214843-7.183593 2.820312-8.304687 6.527343-.679687 2.21875-.429687 4.617188.699219 6.644532 1.125 2.03125 3.03125 3.511718 5.273437 4.105468 3.570313 1.183594 5.941407 4.5625 5.847657 8.320313.210937 4.390625-3.089844 8.164063-7.46875 8.535156-3.582032-.25-6.546876-2.878906-7.21875-6.410156-.558594-2.359375-2.097657-4.371094-4.230469-5.527344-2.132813-1.160156-4.65625-1.355469-6.941407-.539062l-.953124.339843c-4.148438 1.480469-6.484376 5.871094-5.402344 10.140626.152344.652343.222656 1.324218.214844 1.996093.214843 4.390625-3.085938 8.164063-7.46875 8.53125-4.375-.375-7.671876-4.144531-7.457032-8.53125-.007812-.691406.070313-1.378906.230469-2.050781 1.050781-4.253906-1.289063-8.613281-5.417969-10.085938l-.957031-.339843c-2.285156-.816407-4.8125-.617188-6.941406.542969-2.132813 1.15625-3.671875 3.171874-4.230469 5.53125-.667969 3.53125-3.632812 6.160156-7.21875 6.402343-4.378906-.371093-7.679688-4.144531-7.464844-8.535156-.015625-1.578125.378906-3.132813 1.144532-4.511719 1.585937-2.816406 1.449218-6.285156-.359376-8.964844-1.804687-2.679687-4.972656-4.109374-8.175781-3.691406-.394531.058594-.789062.089844-1.1875.101563-4.273437-.574219-7.460937-4.222657-7.460937-8.53125 0-4.3125 3.1875-7.960938 7.460937-8.535157 1.269531-.007812 2.507813.359376 3.570313 1.050782 2.765625 1.730468 6.277344 1.730468 9.042968 0 2.789063-1.753906 4.347657-4.929688 4.027344-8.210938-.054687-.449218-.089844-.902344-.101562-1.355468-.21875-4.390626 3.085937-8.167969 7.46875-8.535157 3.582031.246094 6.550781 2.878907 7.21875 6.410157.558594 2.359374 2.09375 4.367187 4.226562 5.523437 2.128906 1.160156 4.648438 1.355469 6.933594.542969l.964844-.339844c4.125-1.476562 6.460937-5.835938 5.410156-10.085938-.160156-.671874-.238281-1.359374-.230469-2.050781-.21875-4.390625 3.085938-8.164062 7.464844-8.53125 3.628906.222657 6.636719 2.898438 7.28125 6.476563.65625 2.921875 2.800781 5.285156 5.644531 6.226562 2.847656.941406 5.976563.320313 8.246094-1.636718 1.890625-1.65625 4.316406-2.566407 6.828125-2.558594 6.527344.714844 11.472656 6.230468 11.472656 12.800781 0 6.566406-4.945312 12.082031-11.472656 12.796875zm113.867188 21.160156c0 14.140625-11.460938 25.601563-25.601562 25.601563-14.136719 0-25.597657-11.460938-25.597657-25.601563 0-14.136719 11.460938-25.597656 25.597657-25.597656 14.140624 0 25.601562 11.460937 25.601562 25.597656zm-25.601562-230.261719 19.421874 33.996094h-38.84375zm0 102.261719c14.140624 0 25.601562 11.460937 25.601562 25.601563 0 14.136718-11.460938 25.597656-25.601562 25.597656-14.136719 0-25.597657-11.460938-25.597657-25.597656 0-14.140626 11.460938-25.601563 25.597657-25.601563zm0 0"/></svg>