<svg height="512pt" viewBox="0 0 512.00563 512" width="512pt" xmlns="http://www.w3.org/2000/svg"><path d="m90.9375 443.207031-12.578125 34.441407c-2.351563 6.332031-2.0625 13.34375.800781 19.464843 4.347656 9.417969 13.949219 15.28125 24.3125 14.847657 10.363282-.4375 19.441406-7.082032 22.988282-16.828126l10.53125-28.851562c43.890624 15.445312 91.738281 15.445312 135.628906 0l10.527344 28.84375c3.699218 10.105469 13.296874 16.839844 24.058593 16.878906 2.980469-.003906 5.933594-.535156 8.726563-1.570312 6.429687-2.328125 11.652344-7.136719 14.507812-13.347656 2.875-6.105469 3.183594-13.105469.855469-19.4375l-12.5625-34.398438c44.289063-29.59375 75.210937-75.375 86.117187-127.515625h81.554688c14.136719 0 25.597656-11.460937 25.597656-25.597656v-187.734375c0-14.136719-11.460937-25.597656-25.597656-25.597656h-187.734375c-6.253906.019531-12.277344 2.347656-16.921875 6.535156-16.449219-6.71875-33.710938-11.230469-51.34375-13.421875v-10.183594h42.667969c4.710937 0 8.53125-3.820313 8.53125-8.53125v-17.066406c0-18.851563-15.28125-34.13281275-34.132813-34.13281275h-85.332031c-18.851563 0-34.136719 15.28124975-34.136719 34.13281275v17.066406c0 4.710937 3.820313 8.53125 8.535156 8.53125h42.667969v10.191406c-84.785156 10.648438-154.039062 72.84375-173.703125 156.003907-19.664062 83.15625 14.398438 169.78125 85.433594 217.277343zm19.488281 46.078125c-.773437 2.164063-2.390625 3.925782-4.480469 4.882813-2.015624.941406-4.328124 1.035156-6.414062.265625-2.164062-.777344-3.925781-2.390625-4.882812-4.480469-.945313-2.015625-1.042969-4.328125-.265626-6.417969l11.4375-31.265625c4.980469 2.765625 10.109376 5.308594 15.359376 7.679688zm204.800781-5.722656c.769532 2.078125.671876 4.382812-.273437 6.390625-.960937 2.097656-2.730469 3.71875-4.90625 4.488281-2.078125.777344-4.386719.679688-6.390625-.273437-2.089844-.957031-3.707031-2.71875-4.480469-4.882813l-10.691406-29.335937c5.238281-2.335938 10.359375-4.898438 15.359375-7.679688zm-16.554687-389.691406h187.734375c4.710938 0 8.53125 3.820312 8.53125 8.53125v187.734375c0 4.710937-3.820312 8.53125-8.53125 8.53125h-187.734375c-4.710937 0-8.53125-3.820313-8.53125-8.53125v-187.734375c0-4.710938 3.820313-8.53125 8.53125-8.53125zm0 221.863281h53.5625c-22.039063 76.101563-98.363281 122.9375-176.195313 108.125-77.828124-14.8125-131.613281-86.410156-124.15625-165.289063 7.453126-78.875 73.695313-139.128906 152.921876-139.101562 23.703124-.058594 47.089843 5.453125 68.269531 16.09375v154.574219c0 6.789062 2.695312 13.300781 7.496093 18.101562 4.800782 4.800781 11.3125 7.496094 18.101563 7.496094zm-153.597656-281.597656c0-9.425781 7.640625-17.066407 17.066406-17.066407h85.332031c9.425782 0 17.066406 7.640626 17.066406 17.066407v8.53125h-119.464843zm51.199219 34.132812v-8.535156h17.066406v8.535156zm8.53125 17.066407c23.511718-.035157 46.816406 4.390624 68.675781 13.039062-.242188 1.328125-.378907 2.675781-.40625 4.027344v14.335937c-65.515625-28.691406-141.972657-13.488281-191.527344 38.085938s-61.695313 128.574219-30.414063 192.894531c31.28125 64.316406 99.351563 102.308594 170.515626 95.167969 71.164062-7.140625 130.328124-57.898438 148.207031-127.152344h17.5625c-22.355469 95.472656-114.457031 157.628906-211.359375 142.640625s-165.921875-102.066406-158.386719-199.832031c7.53125-97.765625 89.078125-173.242188 187.132813-173.207031zm0 0"/><path d="m204.804688 145.070312c-14.136719 0-25.597657 11.460938-25.597657 25.597657v85.558593l-59.886719 59.960938c-9.917968 10.035156-9.917968 26.179688 0 36.214844 4.789063 4.800781 11.289063 7.496094 18.066407 7.496094 6.78125 0 13.28125-2.695313 18.070312-7.496094l72.449219-72.445313c1.597656-1.601562 2.5-3.769531 2.5-6.035156v-103.253906c-.070312-14.109375-11.492188-25.527344-25.601562-25.597657zm8.535156 125.320313-69.972656 69.972656c-3.347657 3.179688-8.601563 3.179688-11.949219 0-1.617188-1.601562-2.527344-3.785156-2.527344-6.0625 0-2.277343.910156-4.460937 2.527344-6.0625l62.386719-62.464843c1.585937-1.601563 2.472656-3.765626 2.46875-6.015626v-89.089843c0-4.710938 3.820312-8.53125 8.53125-8.53125 2.300781-.007813 4.5.9375 6.078124 2.609375 1.589844 1.558594 2.480469 3.695312 2.457032 5.921875zm0 0"/><path d="m390.917969 213.335938h3.242187c13.160156.035156 24.191406-9.941407 25.472656-23.039063l5.121094-51.199219c.722656-7.199218-1.632812-14.367187-6.488281-19.734375-4.851563-5.367187-11.75-8.425781-18.984375-8.425781h-13.484375c-7.234375 0-14.132813 3.058594-18.984375 8.425781-4.855469 5.367188-7.210938 12.535157-6.488281 19.734375l5.121093 51.199219c1.28125 13.097656 12.3125 23.074219 25.472657 23.039063zm-11.453125-82.527344c1.613281-1.792969 3.917968-2.816406 6.332031-2.804688h13.484375c2.410156 0 4.710938 1.019532 6.328125 2.808594s2.402344 4.175781 2.160156 6.578125l-5.117187 51.199219c-.441406 4.375-4.136719 7.703125-8.535156 7.679687h-3.242188c-4.398438.023438-8.09375-3.304687-8.535156-7.679687l-5.117188-51.199219c-.230468-2.414063.585938-4.8125 2.242188-6.582031zm0 0"/><path d="m392.539062 230.402344c-14.136718 0-25.601562 11.460937-25.601562 25.601562 0 14.136719 11.464844 25.597656 25.601562 25.597656 14.136719 0 25.601563-11.460937 25.601563-25.597656 0-14.140625-11.464844-25.601562-25.601563-25.601562zm0 34.132812c-4.714843 0-8.535156-3.820312-8.535156-8.53125 0-4.714844 3.820313-8.535156 8.535156-8.535156 4.710938 0 8.535157 3.820312 8.535157 8.535156 0 4.710938-3.824219 8.53125-8.535157 8.53125zm0 0"/></svg>