<svg height="512pt" viewBox="0 0 512.0001 512" width="512pt" xmlns="http://www.w3.org/2000/svg"><path d="m486.398438 0h-187.730469c-14.140625 0-25.601563 11.460938-25.601563 25.601562v59.730469h-172.925781c-7.46875-.027343-14.078125 4.820313-16.292969 11.949219l-83.464844 267.09375c-.257812.828125-.38671825 1.691406-.382812 2.558594v128c0 9.425781 7.640625 17.066406 17.066406 17.066406h477.867188c9.425781 0 17.066406-7.640625 17.066406-17.066406v-128c.003906-.867188-.125-1.730469-.382812-2.558594l-39.210938-125.441406h13.992188c14.140624 0 25.601562-11.460938 25.601562-25.601563v-187.730469c0-14.140624-11.460938-25.601562-25.601562-25.601562zm-230.398438 494.933594h-238.933594v-17.066406h76.800782c4.710937 0 8.53125-3.820313 8.53125-8.535157 0-4.710937-3.820313-8.53125-8.53125-8.53125h-76.800782v-17.066406h324.265625c4.714844 0 8.535157-3.820313 8.535157-8.535156 0-4.710938-3.820313-8.53125-8.535157-8.53125h-324.265625v-17.066407h76.800782c4.710937 0 8.53125-3.820312 8.53125-8.535156 0-4.710937-3.820313-8.53125-8.53125-8.53125h-76.800782v-17.070312h297.113282c1.453124 0 3.0625.042968 4.863281.042968 1.476562 0 3.097656 0 4.789062-.042968h171.101563v17.070312h-324.265625c-4.714844 0-8.535157 3.820313-8.535157 8.53125 0 4.714844 3.820313 8.535156 8.535157 8.535156h324.265625v17.066407h-76.800782c-4.710937 0-8.53125 3.820312-8.53125 8.53125 0 4.714843 3.820313 8.535156 8.53125 8.535156h76.800782v17.066406h-324.265625c-4.714844 0-8.535157 3.820313-8.535157 8.53125 0 4.714844 3.820313 8.535157 8.535157 8.535157h324.265625v17.066406zm221.414062-182.75 14.449219 46.214844h-72.585937c23.988281-8.496094 44.449218-24.761719 58.136718-46.214844zm-149.050781 45.996094c16.085938-16.703126 38.664063-44.195313 41.070313-69.035157 20.753906 10.972657 58.257812 26.820313 90.308594 18.882813-28.808594 41.199218-96.929688 48.957031-131.378907 50.152344zm140.707031-72.722657c-38.050781 24.679688-105.242187-19.269531-105.941406-19.730469-3.21875-2.140624-7.480468-1.851562-10.378906.707032s-3.714844 6.75-1.988281 10.207031c11.09375 22.128906-29.378907 65.65625-47.101563 81.757813h-283.519531l80-256h172.925781v110.933593c0 14.140625 11.460938 25.601563 25.601563 25.601563h155.859375zm25.863282-72.125c0 4.714844-3.820313 8.535157-8.535156 8.535157h-187.730469c-4.714844 0-8.535157-3.820313-8.535157-8.535157v-187.730469c0-4.714843 3.820313-8.535156 8.535157-8.535156h187.730469c4.714843 0 8.535156 3.820313 8.535156 8.535156zm0 0"/><path d="m399.273438 34.132812h-13.480469c-7.234375 0-14.132813 3.0625-18.988281 8.425782-4.851563 5.367187-7.207032 12.535156-6.484376 19.734375l5.121094 51.199219c1.277344 13.101562 12.308594 23.078124 25.46875 23.042968h3.246094c13.160156.035156 24.191406-9.941406 25.46875-23.042968l5.121094-51.199219c.722656-7.199219-1.632813-14.367188-6.484375-19.734375-4.855469-5.363282-11.753907-8.425782-18.988281-8.425782zm3.414062 77.652344c-.4375 4.378906-4.132812 7.703125-8.53125 7.679688h-3.246094c-4.398437.023437-8.089844-3.300782-8.53125-7.679688l-5.121094-51.199218c-.242187-2.40625.550782-4.804688 2.175782-6.59375 1.628906-1.789063 3.9375-2.804688 6.359375-2.792969h13.480469c2.414062 0 4.710937 1.019531 6.328124 2.808593 1.621094 1.789063 2.40625 4.179688 2.164063 6.578126zm0 0"/><path d="m392.535156 153.601562c-14.140625 0-25.601562 11.460938-25.601562 25.597657 0 14.140625 11.460937 25.601562 25.601562 25.601562 14.136719 0 25.597656-11.460937 25.597656-25.601562 0-14.136719-11.460937-25.597657-25.597656-25.597657zm0 34.132813c-4.714844 0-8.535156-3.820313-8.535156-8.535156 0-4.710938 3.820312-8.53125 8.535156-8.53125 4.710938 0 8.53125 3.820312 8.53125 8.53125 0 4.714843-3.820312 8.535156-8.53125 8.535156zm0 0"/></svg>