<svg height="512pt" viewBox="0 0 512 512.00032" width="512pt" xmlns="http://www.w3.org/2000/svg"><path d="m512 162.132812c-.070312-60.804687-42.839844-113.195312-102.398438-125.4375v-11.09375c.054688-6.761718-2.636718-13.253906-7.460937-17.988281-4.757813-4.898437-11.308594-7.6484372-18.140625-7.613281-14.136719 0-25.601562 11.460938-25.601562 25.601562v11.09375c-56.421876 11.644532-98.140626 59.507813-101.972657 116.992188-.144531 0-.273437-.085938-.425781-.085938h-155.859375c-7.464844-.03125-14.074219 4.816407-16.292969 11.945313l-83.453125 267.09375c-.078125.414063-.121093.832031-.128906 1.253906-.128906.425781-.21875.863281-.265625 1.304688v51.199219c0 14.140624 11.460938 25.601562 25.601562 25.601562h460.796876c14.140624 0 25.601562-11.460938 25.601562-25.601562v-51.199219c-.050781-.4375-.136719-.871094-.265625-1.296875-.007813-.417969-.050781-.832032-.125-1.246094l-52.269531-167.269531c33.054687-24.015625 52.628906-62.394531 52.660156-103.253907zm-136.53125-136.53125c0-4.714843 3.820312-8.535156 8.53125-8.535156 2.300781-.003906 4.503906.941406 6.085938 2.613282 1.582031 1.5625 2.464843 3.695312 2.449218 5.921874v8.96875c-2.835937-.1875-5.652344-.4375-8.535156-.4375s-5.699219.25-8.53125.4375zm110.929688 469.332032h-460.796876c-4.714843 0-8.535156-3.820313-8.535156-8.535156v-8.53125h76.800782c4.710937 0 8.53125-3.820313 8.53125-8.535157 0-4.710937-3.820313-8.53125-8.53125-8.53125h-76.800782v-17.066406h297.113282c1.453124 0 3.0625.042969 4.863281.042969 1.476562 0 3.097656 0 4.789062-.042969h171.101563v17.066406h-324.265625c-4.714844 0-8.535157 3.820313-8.535157 8.53125 0 4.714844 3.820313 8.535157 8.535157 8.535157h324.265625v8.53125c0 4.714843-3.820313 8.535156-8.535156 8.535156zm-8.976563-114.484375 14.441406 46.21875h-72.59375c23.992188-8.496094 44.460938-24.761719 58.152344-46.21875zm-149.058594 45.996093c16.085938-16.699218 38.664063-44.195312 41.070313-69.035156 20.753906 10.972656 58.273437 26.804688 90.308594 18.882813-28.765626 41.199219-96.929688 48.957031-131.378907 50.152343zm140.707031-72.722656c-38.015624 24.652344-105.242187-19.265625-105.941406-19.726562-3.21875-2.144532-7.480468-1.855469-10.378906.703125-2.898438 2.558593-3.714844 6.75-1.988281 10.210937 11.09375 22.125-29.386719 65.65625-47.113281 81.757813h-283.507813l80-256h155.859375c.152344 0 .28125-.078125.425781-.085938 2.804688 43.402344 27.488281 82.402344 65.519531 103.503907 38.03125 21.105468 84.183594 21.414062 122.496094.824218zm-85.070312-80.65625c-61.265625 0-110.933594-49.664062-110.933594-110.933594 0-61.265624 49.667969-110.933593 110.933594-110.933593s110.933594 49.667969 110.933594 110.933593c-.070313 61.238282-49.695313 110.863282-110.933594 110.933594zm0 0"/><path d="m384 68.265625c-51.839844 0-93.867188 42.027344-93.867188 93.867187 0 51.84375 42.027344 93.867188 93.867188 93.867188s93.867188-42.023438 93.867188-93.867188c-.0625-51.816406-42.050782-93.804687-93.867188-93.867187zm0 170.667969c-42.414062 0-76.800781-34.382813-76.800781-76.800782 0-42.414062 34.386719-76.800781 76.800781-76.800781s76.800781 34.386719 76.800781 76.800781c-.046875 42.398438-34.40625 76.753907-76.800781 76.800782zm0 0"/><path d="m392.535156 158.601562v-47.667968c0-4.710938-3.820312-8.535156-8.535156-8.535156-4.710938 0-8.53125 3.824218-8.53125 8.535156v51.199218c0 2.265626.898438 4.433594 2.5 6.035157l34.132812 34.132812c3.347657 3.234375 8.667969 3.1875 11.960938-.105469 3.292969-3.289062 3.339844-8.613281.105469-11.960937zm0 0"/><path d="m119.46875 221.867188h17.066406c4.710938 0 8.53125-3.820313 8.53125-8.535157 0-4.710937-3.820312-8.53125-8.53125-8.53125h-17.066406c-4.714844 0-8.535156 3.820313-8.535156 8.53125 0 4.714844 3.820312 8.535157 8.535156 8.535157zm0 0"/><path d="m170.667969 221.867188h68.265625c4.710937 0 8.535156-3.820313 8.535156-8.535157 0-4.710937-3.824219-8.53125-8.535156-8.53125h-68.265625c-4.714844 0-8.535157 3.820313-8.535157 8.53125 0 4.714844 3.820313 8.535157 8.535157 8.535157zm0 0"/><path d="m110.933594 264.535156h17.066406c4.714844 0 8.535156-3.820312 8.535156-8.535156 0-4.710938-3.820312-8.53125-8.535156-8.53125h-17.066406c-4.714844 0-8.535156 3.820312-8.535156 8.53125 0 4.714844 3.820312 8.535156 8.535156 8.535156zm0 0"/><path d="m162.132812 264.535156h85.335938c4.710938 0 8.53125-3.820312 8.53125-8.535156 0-4.710938-3.820312-8.53125-8.53125-8.53125h-85.335938c-4.710937 0-8.53125 3.820312-8.53125 8.53125 0 4.714844 3.820313 8.535156 8.53125 8.535156zm0 0"/><path d="m119.46875 290.132812h-17.070312c-4.710938 0-8.53125 3.820313-8.53125 8.535157 0 4.710937 3.820312 8.53125 8.53125 8.53125h17.070312c4.710938 0 8.53125-3.820313 8.53125-8.53125 0-4.714844-3.820312-8.535157-8.53125-8.535157zm0 0"/><path d="m153.601562 307.199219h128c4.710938 0 8.53125-3.820313 8.53125-8.53125 0-4.714844-3.820312-8.535157-8.53125-8.535157h-128c-4.714843 0-8.535156 3.820313-8.535156 8.535157 0 4.710937 3.820313 8.53125 8.535156 8.53125zm0 0"/><path d="m110.933594 332.800781h-17.066406c-4.714844 0-8.535157 3.820313-8.535157 8.53125 0 4.714844 3.820313 8.535157 8.535157 8.535157h17.066406c4.710937 0 8.535156-3.820313 8.535156-8.535157 0-4.710937-3.824219-8.53125-8.535156-8.53125zm0 0"/><path d="m136.535156 341.332031c0 4.714844 3.820313 8.535157 8.53125 8.535157h153.601563c4.710937 0 8.53125-3.820313 8.53125-8.535157 0-4.710937-3.820313-8.53125-8.53125-8.53125h-153.601563c-4.710937 0-8.53125 3.820313-8.53125 8.53125zm0 0"/><path d="m102.398438 375.46875h-17.066407c-4.710937 0-8.53125 3.820312-8.53125 8.53125 0 4.714844 3.820313 8.535156 8.53125 8.535156h17.066407c4.714843 0 8.535156-3.820312 8.535156-8.535156 0-4.710938-3.820313-8.53125-8.535156-8.53125zm0 0"/><path d="m307.199219 375.46875h-170.664063c-4.714844 0-8.535156 3.820312-8.535156 8.53125 0 4.714844 3.820312 8.535156 8.535156 8.535156h170.664063c4.714843 0 8.535156-3.820312 8.535156-8.535156 0-4.710938-3.820313-8.53125-8.535156-8.53125zm0 0"/></svg>