<svg height="512pt" viewBox="0 0 512 512.00359" width="512pt" xmlns="http://www.w3.org/2000/svg"><path d="m119.46875 221.871094h17.066406c4.710938 0 8.535156-3.820313 8.535156-8.535156 0-4.710938-3.824218-8.53125-8.535156-8.53125h-17.066406c-4.714844 0-8.535156 3.820312-8.535156 8.53125 0 4.714843 3.820312 8.535156 8.535156 8.535156zm0 0"/><path d="m170.667969 221.871094h93.867187c4.710938 0 8.535156-3.820313 8.535156-8.535156 0-4.710938-3.824218-8.53125-8.535156-8.53125h-93.867187c-4.710938 0-8.53125 3.820312-8.53125 8.53125 0 4.714843 3.820312 8.535156 8.53125 8.535156zm0 0"/><path d="m110.933594 264.535156h17.066406c4.714844 0 8.535156-3.820312 8.535156-8.53125 0-4.714844-3.820312-8.535156-8.535156-8.535156h-17.066406c-4.710938 0-8.53125 3.820312-8.53125 8.535156 0 4.710938 3.820312 8.53125 8.53125 8.53125zm0 0"/><path d="m162.136719 264.535156h119.464843c4.714844 0 8.535157-3.820312 8.535157-8.53125 0-4.714844-3.820313-8.535156-8.535157-8.535156h-119.464843c-4.714844 0-8.535157 3.820312-8.535157 8.535156 0 4.710938 3.820313 8.53125 8.535157 8.53125zm0 0"/><path d="m119.46875 290.136719h-17.066406c-4.714844 0-8.535156 3.820312-8.535156 8.535156 0 4.710937 3.820312 8.53125 8.535156 8.53125h17.066406c4.710938 0 8.53125-3.820313 8.53125-8.53125 0-4.714844-3.820312-8.535156-8.53125-8.535156zm0 0"/><path d="m145.070312 298.671875c0 4.710937 3.820313 8.53125 8.53125 8.53125h264.535157c4.710937 0 8.53125-3.820313 8.53125-8.53125 0-4.714844-3.820313-8.535156-8.53125-8.535156h-264.535157c-4.710937 0-8.53125 3.820312-8.53125 8.535156zm0 0"/><path d="m110.933594 332.804688h-17.066406c-4.710938 0-8.53125 3.820312-8.53125 8.53125 0 4.714843 3.820312 8.535156 8.53125 8.535156h17.066406c4.714844 0 8.535156-3.820313 8.535156-8.535156 0-4.710938-3.820312-8.53125-8.535156-8.53125zm0 0"/><path d="m324.269531 332.804688h-179.199219c-4.714843 0-8.535156 3.820312-8.535156 8.53125 0 4.714843 3.820313 8.535156 8.535156 8.535156h179.199219c4.710938 0 8.53125-3.820313 8.53125-8.535156 0-4.710938-3.820312-8.53125-8.53125-8.53125zm0 0"/><path d="m102.402344 375.46875h-17.066406c-4.714844 0-8.535157 3.820312-8.535157 8.535156 0 4.710938 3.820313 8.53125 8.535157 8.53125h17.066406c4.710937 0 8.53125-3.820312 8.53125-8.53125 0-4.714844-3.820313-8.535156-8.53125-8.535156zm0 0"/><path d="m307.203125 375.46875h-170.667969c-4.710937 0-8.535156 3.820312-8.535156 8.535156 0 4.710938 3.824219 8.53125 8.535156 8.53125h170.667969c4.710937 0 8.53125-3.820312 8.53125-8.53125 0-4.714844-3.820313-8.535156-8.53125-8.535156zm0 0"/><path d="m504.382812 231.480469c4.90625-4.757813 7.660157-11.308594 7.617188-18.144531.015625-6.792969-2.691406-13.3125-7.515625-18.097657-5.714844-5.210937-9.144531-12.460937-9.550781-20.183593v-47.050782c-.027344-41.976562-27.890625-78.839844-68.265625-90.324218v-12.074219c-.011719-7.546875-3.34375-14.703125-9.113281-19.566407-5.765626-4.863281-13.382813-6.941406-20.820313-5.675781-12.492187 2.496094-21.429687 13.542969-21.265625 26.28125v11.035157c-40.324219 11.554687-68.152344 48.375-68.265625 90.324218v25.601563h-207.0625c-7.464844-.03125-14.074219 4.816406-16.289063 11.945312l-83.457031 267.09375c-.078125.414063-.121093.832031-.128906 1.253907-.128906.425781-.2148438.863281-.265625 1.304687v51.199219c0 14.140625 11.464844 25.601562 25.601562 25.601562h460.800782c14.136718 0 25.597656-11.460937 25.597656-25.601562v-51.199219c-.046875-.421875-.132812-.839844-.253906-1.246094-.003906-.429687-.046875-.855469-.128906-1.28125l-60.140626-193.738281h34.925782c6.753906.050781 13.242187-2.640625 17.980468-7.457031zm-180.113281-103.476563c.09375-36.464844 25.730469-67.871094 61.4375-75.265625 3.976563-.808593 6.828125-4.304687 6.828125-8.363281v-17.730469c-.167968-4.410156 2.757813-8.34375 7.03125-9.445312 2.488282-.445313 5.042969.234375 6.980469 1.855469 1.9375 1.625 3.054687 4.023437 3.054687 6.550781v18.769531c0 4.058594 2.851563 7.554688 6.828126 8.363281 35.746093 7.328125 61.417968 38.773438 61.4375 75.265625v47.050782c.289062 12.269531 5.519531 23.902343 14.507812 32.257812 1.628906 1.582031 2.550781 3.753906 2.558594 6.023438.003906 2.300781-.941406 4.496093-2.609375 6.078124-1.558594 1.589844-3.695313 2.480469-5.921875 2.457032h-169.710938c-4.667968.183594-8.738281-3.140625-9.488281-7.75-.238281-2.617188.761719-5.199219 2.695313-6.980469 8.902343-8.3125 14.082031-19.863281 14.371093-32.042969zm162.132813 366.933594h-460.800782c-4.710937 0-8.53125-3.820312-8.53125-8.535156v-8.53125h76.796876c4.714843 0 8.535156-3.820313 8.535156-8.535156 0-4.710938-3.820313-8.53125-8.535156-8.53125h-76.796876v-17.066407h297.113282c1.449218 0 3.0625.042969 4.863281.042969 1.476563 0 3.097656 0 4.785156-.042969h171.101563v17.066407h-324.265625c-4.710938 0-8.53125 3.820312-8.53125 8.53125 0 4.714843 3.820312 8.535156 8.53125 8.535156h324.265625v8.53125c0 4.714844-3.820313 8.535156-8.53125 8.535156zm-8.902344-114.601562 14.390625 46.335937h-72.621094c24.042969-8.507813 44.542969-24.820313 58.230469-46.335937zm-149.136719 46.078124c16.085938-16.699218 38.664063-44.195312 41.070313-69.035156 20.753906 10.972656 58.277344 26.804688 90.308594 18.886719-28.765626 41.230469-96.929688 48.988281-131.378907 50.183594zm140.851563-72.816406c-38 24.859375-105.386719-19.171875-106.085938-19.625-3.21875-2.144531-7.476562-1.855468-10.375.703125-2.902344 2.5625-3.71875 6.75-1.988281 10.210938 11.09375 22.128906-29.390625 65.65625-47.113281 81.757812h-283.511719l80-256h207.0625v4.429688c-.332031 7.691406-3.734375 14.933593-9.449219 20.09375-5.445312 5.3125-8.207031 12.796875-7.515625 20.371093 1.46875 13.453126 12.921875 23.582032 26.453125 23.398438h116.90625zm0 0"/><path d="m349.867188 204.804688h17.066406c4.714844 0 8.535156-3.820313 8.535156-8.535157 0-4.710937-3.820312-8.53125-8.535156-8.53125h-17.066406c-4.710938 0-8.53125 3.820313-8.53125 8.53125 0 4.714844 3.820312 8.535157 8.53125 8.535157zm0 0"/><path d="m401.070312 204.804688h51.199219c4.710938 0 8.53125-3.820313 8.53125-8.535157 0-4.710937-3.820312-8.53125-8.53125-8.53125h-51.199219c-4.714843 0-8.535156 3.820313-8.535156 8.53125 0 4.714844 3.820313 8.535157 8.535156 8.535157zm0 0"/></svg>