<svg height="512pt" viewBox="0 0 512.11632 512" width="512pt" xmlns="http://www.w3.org/2000/svg"><path d="m0 426.964844v59.492187c0 14.140625 11.460938 25.601563 25.601562 25.601563h290.132813c14.136719 0 25.597656-11.460938 25.597656-25.601563v-59.730469c-.050781-.492187-.148437-.980468-.289062-1.453124-.042969-.558594-.140625-1.113282-.289063-1.65625l-72.535156-185.417969c-3.808594-9.851563-13.304688-16.328125-23.867188-16.273438h-13.953124v-17.066406c0-4.714844-3.820313-8.535156-8.53125-8.535156-4.714844 0-8.535157 3.820312-8.535157 8.535156v17.066406h-85.332031v-17.066406c0-4.714844-3.820312-8.535156-8.535156-8.535156-4.710938 0-8.53125 3.820312-8.53125 8.535156v17.066406h-13.953125c-10.550781-.042969-20.035157 6.429688-23.839844 16.273438l-72.558594 185.417969c-.160156.558593-.257812 1.128906-.292969 1.707031-.136718.457031-.2343745.925781-.289062 1.402343zm315.734375 68.027344h-290.132813c-4.714843 0-8.535156-3.820313-8.535156-8.535157v-17.066406h42.667969c4.710937 0 8.53125-3.820313 8.53125-8.53125 0-4.714844-3.820313-8.535156-8.53125-8.535156h-42.667969v-17.066407h307.199219v17.066407h-221.867187c-4.710938 0-8.53125 3.820312-8.53125 8.535156 0 4.710937 3.820312 8.53125 8.53125 8.53125h221.867187v17.066406c0 4.714844-3.820313 8.535157-8.53125 8.535157zm-226.6875-250.582032c1.261719-3.277344 4.421875-5.433594 7.933594-5.417968h13.953125v8.53125c0 4.714843 3.820312 8.535156 8.53125 8.535156 4.714844 0 8.535156-3.820313 8.535156-8.535156v-8.53125h85.332031v8.53125c0 4.714843 3.820313 8.535156 8.535157 8.535156 4.710937 0 8.53125-3.820313 8.53125-8.535156v-8.53125h13.953124c3.515626-.015626 6.671876 2.140624 7.9375 5.417968l68 173.78125h-299.246093zm0 0"/><path d="m93.867188 298.726562h17.066406c4.710937 0 8.53125-3.820312 8.53125-8.535156 0-4.710937-3.820313-8.535156-8.53125-8.535156h-17.066406c-4.714844 0-8.535157 3.824219-8.535157 8.535156 0 4.714844 3.820313 8.535156 8.535157 8.535156zm0 0"/><path d="m145.066406 298.726562h102.398438c4.714844 0 8.535156-3.820312 8.535156-8.535156 0-4.710937-3.820312-8.535156-8.535156-8.535156h-102.398438c-4.710937 0-8.53125 3.824219-8.53125 8.535156 0 4.714844 3.820313 8.535156 8.53125 8.535156zm0 0"/><path d="m85.332031 341.390625h17.066407c4.714843 0 8.535156-3.820313 8.535156-8.53125 0-4.714844-3.820313-8.535156-8.535156-8.535156h-17.066407c-4.710937 0-8.53125 3.820312-8.53125 8.535156 0 4.710937 3.820313 8.53125 8.53125 8.53125zm0 0"/><path d="m136.535156 341.390625h119.464844c4.710938 0 8.535156-3.820313 8.535156-8.53125 0-4.714844-3.824218-8.535156-8.535156-8.535156h-119.464844c-4.714844 0-8.535156 3.820312-8.535156 8.535156 0 4.710937 3.820312 8.53125 8.535156 8.53125zm0 0"/><path d="m76.800781 384.058594h17.066407c4.710937 0 8.53125-3.820313 8.53125-8.535156 0-4.710938-3.820313-8.53125-8.53125-8.53125h-17.066407c-4.714843 0-8.535156 3.820312-8.535156 8.53125 0 4.714843 3.820313 8.535156 8.535156 8.535156zm0 0"/><path d="m128 384.058594h145.066406c4.714844 0 8.535156-3.820313 8.535156-8.535156 0-4.710938-3.820312-8.53125-8.535156-8.53125h-145.066406c-4.710938 0-8.535156 3.820312-8.535156 8.53125 0 4.714843 3.824218 8.535156 8.535156 8.535156zm0 0"/><path d="m469.332031 165.347656c17-19.863281 26.109375-45.28125 25.601563-71.421875 0-2.414062-.136719-4.78125-.28125-7.152343.136718-.449219.230468-.914063.28125-1.382813-.015625-1.03125-.222656-2.050781-.605469-3.011719-4.421875-46.320312-34.960937-82.3203122-71.929687-82.3203122-39.996094 0-72.53125 42.1132812-72.53125 93.8671872-.265626 22.382813 6.300781 44.3125 18.824218 62.863281-2.84375 2.144532-5.574218 4.351563-8.183594 6.699219-20.421874 18.109375-44.773437 51.832031-44.773437 109.636719v4.265625c0 26.761719 42.1875 46.933594 98.132813 46.933594 55.945312 0 98.132812-20.171875 98.132812-46.933594v-4.265625c1.480469-36.789062-11.195312-72.742188-35.414062-100.472656-2.292969-2.515625-4.691407-4.949219-7.253907-7.304688zm-35.652343 97.605469c-8.792969-5.433594-16.414063-12.570313-22.40625-20.992187l13.566406-54.332032c1.238281-.050781 2.484375-.109375 3.703125-.238281l21.847656 49.132813c-3.910156 9.757812-9.574219 18.714843-16.710937 26.429687zm-25.992188-77.105469-9.148438 36.691406c-8.921874-15.972656-16.328124-32.75-22.117187-50.109374 1.125-.894532 2.261719-1.789063 3.414063-2.660157 7.808593 7.585938 17.378906 13.109375 27.851562 16.078125zm48.777344-9.097656c1.476562 1.339844 2.902344 2.722656 4.265625 4.128906-.03125 10.226563-.996094 20.425782-2.882813 30.472656l-12.621094-28.40625c3.941407-1.691406 7.707032-3.765624 11.238282-6.195312zm-5.308594-17.28125c-.167969.152344-.347656.265625-.503906.425781-7.851563 6.820313-17.855469 10.652344-28.253906 10.832031-21.050782 0-39.386719-16.324218-48.785157-40.304687 14.652344-8.335937 22.589844-19.386719 22.589844-31.632813 1.03125-12.167968 8.582031-22.816406 19.71875-27.820312 17.59375 14.164062 39.367187 22.121094 61.945313 22.640625v.316406c.90625 24.667969-8.820313 48.535157-26.710938 65.542969zm-28.757812-142.34375c26.242187 0 48.222656 25.386719 53.964843 59.324219-43.519531-3.414063-58.613281-28.160157-59.355469-29.421875-2.394531-3.941406-7.488281-5.265625-11.5-2.992188-4.015624 2.273438-5.492187 7.324219-3.339843 11.40625.128906.226563.734375 1.242188 1.773437 2.710938-14.621094 8.464844-23.960937 23.761718-24.804687 40.636718-.949219 6.203126-4.789063 11.585938-10.34375 14.507813-1.222657-6.386719-1.84375-12.871094-1.859375-19.371094 0-42.34375 24.882812-76.800781 55.464844-76.800781zm-89.597657 260.265625v-4.265625c-1.445312-32.039062 9.28125-63.4375 30.027344-87.894531 8.585937 23.722656 30.609375 75.511719 63.839844 93.152343v28.457032c-4.132813.257812-8.363281.433594-12.800781.433594-50.226563-.015626-81.066407-17.414063-81.066407-29.882813zm162.132813 0c0 9.753906-18.9375 22.484375-51.199219 27.589844v-28.023438c10.507813-10.617187 18.597656-23.382812 23.703125-37.417969.070312-.164062.121094-.316406.179688-.480468 4.605468-12.210938 7.625-24.964844 8.988281-37.945313 12.679687 21.835938 19.027343 46.769531 18.328125 72.011719zm0 0"/><path d="m409.601562 435.257812h-51.203124c-4.710938 0-8.53125 3.820313-8.53125 8.535157 0 4.710937 3.820312 8.53125 8.53125 8.53125h51.203124c14.136719 0 25.597657-11.460938 25.597657-25.597657v-52.472656l18.9375 23.671875c1.902343 2.378907 4.933593 3.5625 7.949219 3.105469 3.015624-.460938 5.554687-2.492188 6.664062-5.335938 1.109375-2.839843.621094-6.054687-1.285156-8.4375l-34.132813-42.667968c-.128906-.152344-.308593-.21875-.445312-.367188-.515625-.570312-1.109375-1.066406-1.765625-1.472656-.273438-.179688-.558594-.34375-.851563-.488281-.257812-.121094-.472656-.296875-.734375-.390625-.410156-.105469-.828125-.179688-1.246094-.222656-.316406-.078126-.636718-.136719-.957031-.179688-.859375-.058594-1.722656.011719-2.558593.210938-.15625 0-.308594.042968-.460938.085937-.921875.300781-1.789062.753906-2.5625 1.339844-.09375.070312-.210938.078125-.304688.15625-.09375.074219-.257812.355469-.425781.511719-.324219.261718-.628906.546874-.90625.851562l-34.132812 42.667969c-2.945313 3.679687-2.351563 9.050781 1.332031 11.996093 3.679688 2.945313 9.050781 2.351563 11.996094-1.332031l18.824218-23.703125v52.472656c0 4.710938-3.820312 8.53125-8.53125 8.53125zm0 0"/></svg>