<svg height="512pt" viewBox="0 0 512.11632 512" width="512pt" xmlns="http://www.w3.org/2000/svg"><path d="m469.332031 353.082031c17-19.867187 26.109375-45.28125 25.601563-71.425781 0-2.414062-.136719-4.777344-.28125-7.148438.136718-.453124.230468-.914062.28125-1.382812-.015625-1.03125-.222656-2.054688-.605469-3.011719-3.535156-37.019531-23.730469-67.414062-50.59375-78.167969v-174.820312c0-9.425781-7.640625-17.0664062-17.066406-17.0664062h-409.601563c-9.425781 0-17.066406 7.6406252-17.066406 17.0664062v375.464844c0 9.425781 7.640625 17.066406 17.066406 17.066406h306.140625c-5.105469 16.582031-7.625 33.851562-7.472656 51.203125v4.265625c0 26.761719 42.1875 46.933594 98.132813 46.933594 55.945312 0 98.132812-20.171875 98.132812-46.933594v-4.265625c1.480469-36.789063-11.195312-72.742187-35.414062-100.472656-2.292969-2.515625-4.691407-4.949219-7.253907-7.304688zm-35.652343 97.605469c-8.792969-5.433594-16.414063-12.570312-22.40625-20.992188l13.566406-54.332031c1.238281-.050781 2.484375-.113281 3.703125-.238281l21.847656 49.132812c-3.910156 9.757813-9.574219 18.710938-16.710937 26.429688zm-53.828126-93.175781c7.804688 7.578125 17.371094 13.101562 27.835938 16.066406l-9.148438 36.695313c-8.921874-15.972657-16.324218-32.75-22.109374-50.109376 1.117187-.851562 2.253906-1.78125 3.421874-2.652343zm76.613282 6.972656c1.476562 1.339844 2.902344 2.71875 4.265625 4.128906-.03125 10.222657-.996094 20.421875-2.882813 30.472657l-12.621094-28.40625c3.941407-1.691407 7.707032-3.765626 11.238282-6.195313zm-5.308594-17.28125c-.167969.152344-.347656.265625-.503906.425781-7.851563 6.820313-17.855469 10.652344-28.253906 10.828125-21.050782 0-39.386719-16.324219-48.785157-40.300781 14.652344-8.339844 22.589844-19.390625 22.589844-31.632812 1.03125-12.167969 8.582031-22.820313 19.71875-27.820313 17.59375 14.164063 39.367187 22.121094 61.945313 22.640625v.3125c.90625 24.667969-8.820313 48.539062-26.710938 65.546875zm25.207031-83.019531c-43.519531-3.414063-58.613281-28.160156-59.355469-29.425782-2.394531-3.941406-7.488281-5.265624-11.5-2.988281-4.015624 2.273438-5.492187 7.324219-3.339843 11.402344.128906.230469.734375 1.246094 1.773437 2.714844-14.621094 8.464843-23.960937 23.761719-24.804687 40.636719-.949219 6.203124-4.789063 11.585937-10.34375 14.503906-1.222657-6.382813-1.84375-12.867188-1.859375-19.371094 0-42.339844 24.882812-76.796875 55.464844-76.796875 26.234374 0 48.222656 25.386719 53.964843 59.324219zm-377.496093-247.058594-34.132813 34.132812h-27.066406l34.132812-34.132812zm51.199218 0-34.132812 34.132812h-27.066406l34.132812-34.132812zm51.199219 0-34.132813 34.132812h-27.066406l34.132813-34.132812zm51.203125 0-34.136719 34.132812h-27.066406l34.132813-34.132812zm51.199219 0-34.132813 34.132812h-27.070312l34.132812-34.132812zm51.199219 0-34.132813 34.132812h-27.066406l34.132812-34.132812zm51.199218 0-34.132812 34.132812h-27.066406l34.132812-34.132812zm20.601563 34.132812h-30.601563l30.601563-30.601562zm-170.667969 170.667969h-68.265625v-68.269531h68.265625zm-238.933594-68.269531h68.265625v68.269531h-68.265625zm0-85.332031h68.265625v68.265625h-68.265625zm153.601563 0v68.265625h-68.269531v-68.265625zm-68.269531 85.332031h68.269531v68.269531h-68.269531zm153.601562-17.066406h-68.265625v-68.265625h68.265625zm-238.933594 102.402344h68.265625v68.265624h-68.265625zm85.332032 0h68.269531v68.265624h-68.269531zm85.335937 0h68.265625v68.265624h-68.265625zm85.332031-170.667969h68.265625v68.265625h-68.265625zm85.332032 0h68.269531v68.265625h-68.269531zm-310.730469-51.199219-30.601563 30.601562v-30.601562zm-30.601563 307.199219h68.265625v68.265625h-68.265625zm85.332032 0h68.269531v68.265625h-68.269531zm85.335937 0h68.265625v68.265625h-68.265625zm85.332031 68.265625v-68.265625h51.199219c4.714844 0 8.535156-3.820313 8.535156-8.53125 0-4.714844-3.820312-8.535157-8.535156-8.535157h-51.199219v-68.265624h51.199219c4.714844 0 8.535156-3.820313 8.535156-8.535157 0-4.710937-3.820312-8.53125-8.535156-8.53125h-51.199219v-68.269531h68.265625v51.203125c0 4.710937 3.820313 8.53125 8.535157 8.53125 4.710937 0 8.53125-3.820313 8.53125-8.53125v-51.203125h68.269531v34.417969c-1.417969-.113281-2.824219-.28125-4.269531-.28125-39.996094 0-72.53125 42.109375-72.53125 93.863281-.265626 22.382812 6.300781 44.316406 18.824218 62.867188-2.84375 2.140624-5.574218 4.351562-8.183594 6.699218-12.953124 11.542969-23.398437 25.625-30.6875 41.367188zm59.734375 72.535156v-4.265625c-.332031-19.265625 3.144531-38.40625 10.238281-56.320313l.070313-.144531c4.742187-11.519531 11.410156-22.148437 19.71875-31.429687 8.585937 23.722656 30.609375 75.511718 63.839844 93.148437v28.460938c-4.132813.253906-8.363281.433593-12.800781.433593-50.226563-.015624-81.066407-17.414062-81.066407-29.882812zm162.132813 0c0 9.753906-18.9375 22.484375-51.199219 27.589844v-28.023438c10.507813-10.617187 18.597656-23.382812 23.703125-37.421875.070312-.160156.121094-.3125.179688-.476562 4.605468-12.214844 7.625-24.964844 8.988281-37.949219 12.679687 21.835938 19.027343 46.773438 18.328125 72.015625zm0 0"/></svg>