<svg height="512pt" viewBox="0 0 512 512.01411" width="512pt" xmlns="http://www.w3.org/2000/svg"><path d="m511.742188 433.917969c-.007813-.417969-.050782-.835938-.128907-1.246094l-83.445312-267.09375c-2.210938-7.15625-8.851563-12.019531-16.34375-11.964844h-130.21875v-19.34375l130.40625-41.183593c7.101562-2.242188 11.925781-8.828126 11.925781-16.273438 0-7.441406-4.824219-14.027344-11.925781-16.269531l-131.359375-41.484375c-3.261719-12.433594-15.261719-20.503906-28.007813-18.84375-12.75 1.664062-22.273437 12.542968-22.238281 25.398437v128h-130.21875c-7.484375-.054687-14.117188 4.796875-16.332031 11.949219l-83.457031 267.089844c-.074219.414062-.117188.835937-.125 1.257812-.128907.425782-.2187505.863282-.2656255 1.304688v51.199218c0 14.136719 11.4609375 25.601563 25.5976565 25.601563h460.800781c14.140625 0 25.601562-11.464844 25.601562-25.601563v-51.199218c-.050781-.441406-.140624-.875-.265624-1.296875zm-34.3125-53.453125 14.4375 46.214844h-72.582032c23.988282-8.496094 44.453125-24.761719 58.144532-46.214844zm-149.058594 45.992187c16.082031-16.699219 38.664062-44.191406 41.070312-69.03125 20.753906 10.972657 58.273438 26.800781 90.308594 18.882813-28.765625 41.199218-96.929688 48.957031-131.378906 50.148437zm-46.765625-310.082031v-79.121094l125.269531 39.558594zm-34.132813-90.761719c0-4.710937 3.820313-8.53125 8.535156-8.53125 4.710938 0 8.53125 3.820313 8.53125 8.53125v315.734375h-17.066406zm-147.285156 145.066407h130.21875v25.601562h-59.734375c-4.710937 0-8.53125 3.820312-8.53125 8.53125 0 4.714844 3.820313 8.535156 8.53125 8.535156h59.734375v25.601563h-68.265625c-4.714844 0-8.535156 3.820312-8.535156 8.53125 0 4.714843 3.820312 8.535156 8.535156 8.535156h68.265625v25.597656h-76.800781c-4.710938 0-8.53125 3.820313-8.53125 8.535157 0 4.710937 3.820312 8.53125 8.53125 8.53125h76.800781v42.667968h-8.53125c-4.714844 0-8.535156 3.820313-8.535156 8.53125 0 4.714844 3.820312 8.535156 8.535156 8.535156h68.265625c4.710937 0 8.53125-3.820312 8.53125-8.535156 0-4.710937-3.820313-8.53125-8.53125-8.53125h-8.535156v-42.667968h119.46875c4.710937 0 8.53125-3.820313 8.53125-8.53125 0-4.714844-3.820313-8.535157-8.53125-8.535157h-119.46875v-25.597656h110.933593c4.714844 0 8.535157-3.820313 8.535157-8.535156 0-4.710938-3.820313-8.53125-8.535157-8.53125h-110.933593v-25.601563h102.402343c4.710938 0 8.53125-3.820312 8.53125-8.535156 0-4.710938-3.820312-8.53125-8.53125-8.53125h-102.402343v-25.601562h130.269531l57.175781 183.066406c-38.007812 24.652344-105.242187-19.269532-105.941406-19.730469-3.21875-2.140625-7.476563-1.851563-10.378906.707031-2.898438 2.558594-3.714844 6.75-1.988281 10.207032 11.09375 22.128906-29.386719 65.65625-47.109376 81.757812h-283.488281zm386.21875 324.269531h-460.800781c-4.710938 0-8.53125-3.824219-8.53125-8.535157v-8.535156h76.800781c4.710938 0 8.53125-3.820312 8.53125-8.53125 0-4.714844-3.820312-8.535156-8.53125-8.535156h-76.800781v-17.066406h297.113281c1.449219 0 3.0625.042968 4.863281.042968 1.476563 0 3.097657 0 4.789063-.042968h171.101562v17.066406h-324.269531c-4.710937 0-8.53125 3.820312-8.53125 8.535156 0 4.710938 3.820313 8.53125 8.53125 8.53125h324.269531v8.535156c0 4.710938-3.820312 8.535157-8.535156 8.535157zm0 0"/><path d="m128.007812 213.347656h8.53125c4.714844 0 8.535157-3.820312 8.535157-8.535156 0-4.710938-3.820313-8.53125-8.535157-8.53125h-8.53125c-4.714843 0-8.535156 3.820312-8.535156 8.53125 0 4.714844 3.820313 8.535156 8.535156 8.535156zm0 0"/><path d="m119.472656 256.015625h8.535156c4.710938 0 8.53125-3.820313 8.53125-8.535156 0-4.710938-3.820312-8.53125-8.53125-8.53125h-8.535156c-4.710937 0-8.53125 3.820312-8.53125 8.53125 0 4.714843 3.820313 8.535156 8.53125 8.535156zm0 0"/><path d="m110.941406 298.679688h8.53125c4.714844 0 8.535156-3.820313 8.535156-8.53125 0-4.714844-3.820312-8.535157-8.535156-8.535157h-8.53125c-4.714844 0-8.535156 3.820313-8.535156 8.535157 0 4.710937 3.820312 8.53125 8.535156 8.53125zm0 0"/></svg>