<svg height="512pt" viewBox="0 0 512 512.08154" width="512pt" xmlns="http://www.w3.org/2000/svg"><path d="m25.640625 512.082031h460.800781c14.136719 0 25.597656-11.460937 25.597656-25.601562v-51.199219c-.050781-.425781-.132812-.84375-.253906-1.253906-.007812-.433594-.050781-.863282-.128906-1.289063l-83.457031-267.09375c-2.214844-7.152343-8.851563-12.011719-16.339844-11.964843h-130.21875v-39.976563c25.238281-11.972656 38.8125-39.835937 32.675781-67.089844-6.136718-27.253906-30.339844-46.613281-58.277344-46.613281-27.933593 0-52.136718 19.359375-58.273437 46.613281-6.136719 27.253907 7.4375 55.117188 32.675781 67.089844v39.976563h-130.21875c-7.484375-.046876-14.117187 4.804687-16.34375 11.949218l-83.453125 267.09375c-.078125.425782-.121093.855469-.128906 1.289063-.121094.414062-.2070312.839843-.2578125 1.269531v51.199219c0 6.789062 2.6992185 13.300781 7.4999995 18.101562 4.800782 4.800781 11.3125 7.5 18.101563 7.5zm460.800781-17.066406h-460.800781c-4.710937 0-8.53125-3.820313-8.53125-8.535156v-8.53125h76.796875c4.714844 0 8.535156-3.820313 8.535156-8.535157 0-4.710937-3.820312-8.53125-8.535156-8.53125h-76.796875v-17.066406h297.113281c1.449219 0 3.0625.042969 4.863282.042969 1.476562 0 3.097656 0 4.785156-.042969h171.101562v17.066406h-324.265625c-4.710937 0-8.53125 3.820313-8.53125 8.53125 0 4.714844 3.820313 8.535157 8.53125 8.535157h324.265625v8.53125c0 4.714843-3.820312 8.535156-8.53125 8.535156zm-8.976562-114.484375 14.4375 46.21875h-72.585938c23.992188-8.496094 44.457032-24.765625 58.148438-46.21875zm-149.0625 45.996094c16.085937-16.699219 38.664062-44.195313 41.070312-69.035156 20.761719 10.972656 58.265625 26.820312 90.308594 18.882812-28.808594 41.199219-96.929688 48.957031-131.378906 50.152344zm-115.027344-366.710938c0-23.566406 19.101562-42.667968 42.664062-42.667968 23.566407 0 42.667969 19.101562 42.667969 42.667968 0 23.5625-19.101562 42.664063-42.667969 42.664063-23.550781-.027344-42.636718-19.113281-42.664062-42.664063zm42.664062 59.730469c2.859376-.023437 5.710938-.25 8.535157-.679687v222.546874h-17.066407v-222.546874c2.824219.429687 5.675782.65625 8.53125.679687zm-155.816406 51.203125h130.21875v25.597656h-59.734375c-4.710937 0-8.53125 3.820313-8.53125 8.535156 0 4.710938 3.820313 8.53125 8.53125 8.53125h59.734375v25.601563h-68.265625c-4.714843 0-8.535156 3.820313-8.535156 8.53125 0 4.714844 3.820313 8.535156 8.535156 8.535156h68.265625v25.597657h-76.800781c-4.710937 0-8.53125 3.824218-8.53125 8.535156 0 4.710937 3.820313 8.535156 8.53125 8.535156h76.800781v42.664062h-8.535156c-4.710938 0-8.53125 3.820313-8.53125 8.535157 0 4.710937 3.820312 8.53125 8.53125 8.53125h68.269531c4.710938 0 8.53125-3.820313 8.53125-8.53125 0-4.714844-3.820312-8.535157-8.53125-8.535157h-8.535156v-42.664062h119.46875c4.710937 0 8.53125-3.824219 8.53125-8.535156 0-4.710938-3.820313-8.535156-8.53125-8.535156h-119.46875v-25.597657h110.933594c4.710937 0 8.535156-3.820312 8.535156-8.535156 0-4.710937-3.824219-8.53125-8.535156-8.53125h-110.933594v-25.601563h102.398437c4.714844 0 8.535157-3.820312 8.535157-8.53125 0-4.714843-3.820313-8.535156-8.535157-8.535156h-102.398437v-25.597656h130.269531l57.171875 183.0625c-38.058593 24.679688-105.238281-19.265625-105.9375-19.726562-3.222656-2.144532-7.480469-1.855469-10.378906.703124-2.898437 2.558594-3.714844 6.75-1.988281 10.210938 11.09375 22.125-29.378906 65.65625-47.101563 81.757812h-283.488281zm0 0"/><path d="m128.039062 213.414062h8.535157c4.710937 0 8.535156-3.820312 8.535156-8.53125 0-4.714843-3.824219-8.535156-8.535156-8.535156h-8.535157c-4.710937 0-8.53125 3.820313-8.53125 8.535156 0 4.710938 3.820313 8.53125 8.53125 8.53125zm0 0"/><path d="m119.507812 256.082031h8.53125c4.714844 0 8.535157-3.820312 8.535157-8.535156 0-4.710937-3.820313-8.53125-8.535157-8.53125h-8.53125c-4.714843 0-8.535156 3.820313-8.535156 8.53125 0 4.714844 3.820313 8.535156 8.535156 8.535156zm0 0"/><path d="m110.972656 298.75h8.535156c4.710938 0 8.53125-3.824219 8.53125-8.535156 0-4.710938-3.820312-8.535156-8.53125-8.535156h-8.535156c-4.710937 0-8.53125 3.824218-8.53125 8.535156 0 4.710937 3.820313 8.535156 8.53125 8.535156zm0 0"/><path d="m264.574219 51.28125c2.269531.023438 4.453125-.867188 6.058593-2.472656 1.605469-1.605469 2.496094-3.789063 2.476563-6.058594-.019531-2.265625-.90625-4.433594-2.476563-6.058594-2.441406-2.464844-6.128906-3.203125-9.332031-1.875-3.199219 1.332032-5.28125 4.464844-5.261719 7.933594.035157 2.257812.917969 4.421875 2.476563 6.058594 1.628906 1.570312 3.796875 2.457031 6.058594 2.472656zm0 0"/></svg>