<svg height="512pt" viewBox="0 0 512.11651 512" width="512pt" xmlns="http://www.w3.org/2000/svg"><path d="m469.332031 353.082031c17-19.867187 26.109375-45.28125 25.601563-71.421875 0-2.417968-.136719-4.78125-.28125-7.152344.136718-.453124.230468-.914062.28125-1.382812-.015625-1.027344-.222656-2.042969-.605469-2.996094-3.523437-37.023437-23.722656-67.457031-50.59375-78.179687v-174.824219c0-9.425781-7.640625-17.0664062-17.066406-17.0664062h-409.601563c-9.425781 0-17.066406 7.6406252-17.066406 17.0664062v375.464844c0 9.425781 7.640625 17.070312 17.066406 17.070312h232.039063c13.03125 12.796875 38.210937 21.878906 68.53125 24.667969-1.273438 8.785156-1.910157 17.652344-1.902344 26.53125v4.265625c0 26.761719 42.1875 46.933594 98.132813 46.933594 55.945312 0 98.132812-20.171875 98.132812-46.933594v-4.265625c1.480469-36.785156-11.191406-72.738281-35.414062-100.464844-2.285157-2.507812-4.691407-4.941406-7.253907-7.3125zm-35.652343 97.605469c-8.78125-5.441406-16.386719-12.582031-22.371094-21l13.566406-54.324219c1.238281-.050781 2.472656-.101562 3.703125-.238281l21.835937 49.140625c-3.914062 9.757813-9.585937 18.710937-16.734374 26.421875zm-87.347657-84.550781c-4.351562-4.007813-8.328125-8.410157-11.875-13.148438l13.574219-54.355469c1.035156-.054687 2.066406-.085937 3.054688-.179687 2.171874 16.527344 8.203124 32.3125 17.605468 46.078125-2.832031 2.132812-5.574218 4.351562-8.183594 6.699219-5.125 4.574219-9.867187 9.558593-14.175781 14.90625zm-56.199219-161.277344c-.367187-19.535156 5.480469-38.683594 16.691407-54.683594 8.585937-13.210937 23.035156-21.453125 38.777343-22.117187h1.601563c.71875 0 1.417969-.050782 1.902344 0 14.410156 1.96875 27.269531 10.054687 35.285156 22.1875 7.828125 11.050781 12.976563 23.773437 15.027344 37.160156-43.382813-3.410156-58.476563-28.160156-59.210938-29.40625-2.339843-4.0625-7.523437-5.472656-11.601562-3.164062-4.078125 2.3125-5.527344 7.484374-3.246094 11.578124.128906.230469.742187 1.246094 1.773437 2.714844-14.601562 8.460938-23.933593 23.738282-24.796874 40.59375-.933594 6.160156-4.734376 11.511719-10.238282 14.429688-1.277344-6.351563-1.9375-12.8125-1.964844-19.292969zm29.269532 4.863281c1.03125-12.164062 8.582031-22.8125 19.722656-27.808594 12.855469 10.546876 28.21875 17.601563 44.601562 20.476563-22.296874 20.070313-34.671874 48.90625-33.859374 78.890625-2.578126.277344-5.167969.355469-7.757813.230469-12.46875-1.4375-23.871094-7.722657-31.742187-17.5-5.734376-6.753907-10.265626-14.441407-13.40625-22.726563 14.503906-8.34375 22.441406-19.359375 22.441406-31.5625zm-16.46875 71.082032c7.832031 7.585937 17.453125 13.070312 27.972656 15.949218l-9.15625 36.691406c-4.414062-7.773437-8.089844-15.273437-10.691406-21.160156-5.640625-12.476562-9.5-23.296875-11.394532-28.929687 1.058594-.84375 2.152344-1.695313 3.269532-2.550781zm76.929687 76.707031c7.800781 7.585937 17.371094 13.105469 27.84375 16.066406l-9.15625 36.695313c-8.925781-15.976563-16.335937-32.75-22.128906-50.109376 1.117187-.851562 2.261719-1.78125 3.429687-2.652343zm76.609375 6.972656c1.476563 1.347656 2.902344 2.71875 4.269532 4.128906-.035157 10.222657-1 20.421875-2.886719 30.472657l-12.621094-28.40625c3.941406-1.691407 7.703125-3.765626 11.230469-6.195313zm-5.117187-17.425781c-.300781.207031-.585938.433594-.855469.683594-7.824219 6.746093-17.769531 10.539062-28.101562 10.714843-21.050782 0-39.386719-16.324219-48.785157-40.300781 14.652344-8.339844 22.589844-19.429688 22.589844-31.632812 1.03125-12.167969 8.582031-22.8125 19.71875-27.8125 17.59375 14.15625 39.367187 22.109374 61.945313 22.632812v.316406c.894531 24.585938-8.757813 48.382813-26.53125 65.398438zm25.027343-82.875c-43.519531-3.414063-58.625-28.160156-59.359374-29.425782-2.339844-4.0625-7.519532-5.476562-11.601563-3.164062-4.078125 2.3125-5.527344 7.484375-3.246094 11.578125.128907.230469.742188 1.246094 1.773438 2.714844-14.621094 8.464843-23.960938 23.761719-24.8125 40.636719-.949219 6.203124-4.789063 11.585937-10.34375 14.503906-.460938-2.414063-.851563-4.863282-1.109375-7.363282-.003906-.082031-.003906-.164062 0-.246093-.1875-1.628907-.367188-3.261719-.476563-4.914063v-.15625c-.171875-2.199218-.273437-4.429687-.273437-6.6875 0-42.34375 24.882812-76.800781 55.464844-76.800781 26.242187 0 48.222656 25.386719 53.964843 59.324219zm-126.515624-212.925782h-5l34.132812-34.132812h27.066406l-34.132812 34.132812zm-56.199219 0 34.132812-34.132812h27.066407l-34.132813 34.132812zm-102.402344 0 34.132813-34.132812h27.070312l-34.136719 34.132812zm-92.398437-34.132812-34.132813 34.132812h-27.066406l34.132812-34.132812zm51.199218 0-34.132812 34.132812h-27.066406l34.132812-34.132812zm51.199219 0-34.132813 34.132812h-27.066406l34.132813-34.132812zm-30.597656 204.800781h-68.269531v-68.265625h68.269531zm-153.601563-68.265625h68.265625v68.265625h-68.265625zm68.265625-17.070312h-68.265625v-68.265625h68.265625zm-68.265625 102.402344h68.265625v68.265624h-68.265625zm85.332032 0h68.269531v68.265624h-68.269531zm68.269531-102.402344h-68.269531v-68.265625h68.269531zm105.929687-119.464844h27.070313l-34.132813 34.132812h-27.070312zm150.070313 3.53125v30.601562h-30.601563zm-379-3.53125-30.601563 30.601562v-30.601562zm-30.601563 307.199219h68.265625v68.265625h-68.265625zm85.332032 0h68.269531v68.265625h-68.269531zm85.335937 0h42.664063c4.714843 0 8.535156-3.820313 8.535156-8.53125 0-4.714844-3.820313-8.535157-8.535156-8.535157h-42.664063v-68.265624h59.730469c4.714844 0 8.535156-3.820313 8.535156-8.535157 0-4.710937-3.820312-8.53125-8.535156-8.53125h-59.730469v-68.265625h51.199219c4.710937 0 8.53125-3.824218 8.53125-8.535156 0-4.714844-3.820313-8.535156-8.53125-8.535156h-51.199219v-68.265625h68.265625v51.199219c0 4.714843 3.820312 8.535156 8.535156 8.535156 4.710938 0 8.53125-3.820313 8.53125-8.535156v-51.199219h68.265625v17.066406c0 4.714844 3.820313 8.535156 8.535157 8.535156 4.710937 0 8.53125-3.820312 8.53125-8.535156v-17.066406h68.269531v119.75c-1.417969-.113281-2.824219-.28125-4.269531-.28125-1.832032 0-3.632813.179687-5.433594.355469-2.199219-17.335938-8.671875-33.855469-18.832032-48.074219-10.953124-16.164063-28.382812-26.777344-47.769531-29.082031-1.203125-.070313-2.339843-.050782-3.492187 0h-1.269532c-21.1875.585937-40.769531 11.421874-52.515624 29.0625-13.371094 18.933593-20.382813 41.628906-20.019532 64.804687-.035156 9.242187 1.035156 18.460937 3.191406 27.449219.570313 2.5625 1.238282 5.035156 1.953126 7.28125 3.019531 10.054687 7.59375 19.574218 13.550781 28.21875-2.789063 2.117187-5.484375 4.265625-8.078125 6.628906-10.628906 9.433594-19.574219 20.609375-26.453125 33.042969-.867188 1.421875-1.640625 2.898437-2.324219 4.417969-10.992188 22.4375-16.46875 47.179687-15.972656 72.160156v4.265625c.011718 1.433593.148437 2.859375.402344 4.265625h-51.601563zm71.421875 71.347656c-1.890625-1.996094-3.011719-4.601563-3.15625-7.347656v-4.265625c-.480469-22.449219 4.421875-44.6875 14.292969-64.855469.503906-1.113281 1.074219-2.199219 1.707031-3.25 3.9375-7.085937 8.664062-13.703125 14.089844-19.726563 2.25 6.160157 5.367187 14.136719 9.386718 23.039063 6.085938 14 13.5625 27.355469 22.320313 39.859375.148437.253906.304687.503906.480469.742188 5.234375 7.476562 11.335937 14.308593 18.175781 20.351562-6.964844 11.597656-12.175781 24.160156-15.464844 37.28125-32.339843-2.722656-54.234375-12.5625-61.832031-21.828125zm73.644531 69.453125v-4.265625c-.957031-27.496094 6.671875-54.609375 21.828125-77.570313.058594-.074218.144532-.09375.203125-.167968.0625-.078125.070313-.214844.128907-.316406 2.429687-3.4375 5.058593-6.730469 7.867187-9.867188 8.585937 23.734375 30.609375 75.53125 63.839844 93.160156v28.457032c-4.132813.257812-8.363281.4375-12.800781.4375-50.226563 0-81.066407-17.398438-81.066407-29.867188zm162.132813 0c0 9.753906-18.9375 22.484375-51.199219 27.589844v-28.023438c10.515625-10.621094 18.605469-23.394531 23.714844-37.4375.058593-.144531.109375-.289062.160156-.433594 4.605469-12.222656 7.628906-24.984374 8.996094-37.976562 12.671875 21.839844 19.019531 46.773438 18.328125 72.015625zm0 0"/></svg>