<svg height="512pt" viewBox="-85 0 512 512.04277" width="512pt" xmlns="http://www.w3.org/2000/svg"><path d="m315.753906 512.042969c14.140625 0 25.601563-11.460938 25.601563-25.601563v-426.664062c0-14.140625-11.460938-25.601563-25.601563-25.601563h-103.253906c-4.035156-19.886719-21.519531-34.175781-41.8125-34.175781-20.289062 0-37.773438 14.289062-41.8125 34.175781h-103.253906c-14.136719 0-25.6015628 11.460938-25.6015628 25.601563v426.664062c0 14.140625 11.4648438 25.601563 25.6015628 25.601563zm-228.828125-426.667969c3.601563 10.191406 13.21875 17.023438 24.027344 17.066406h119.46875c10.808594-.042968 20.425781-6.875 24.03125-17.066406h35.703125v375.46875h-238.933594v-375.46875zm83.761719-68.265625c10.808594.042969 20.425781 6.875 24.03125 17.066406h-48.0625c3.605469-10.191406 13.222656-17.023437 24.03125-17.066406zm68.265625 34.132813v25.601562c0 4.710938-3.820313 8.53125-8.53125 8.53125h-119.46875c-4.710937 0-8.53125-3.820312-8.53125-8.53125v-25.601562zm-221.863281 435.199218v-426.664062c0-4.714844 3.820312-8.535156 8.53125-8.535156h59.734375v17.066406h-42.667969c-4.710938 0-8.53125 3.820312-8.53125 8.535156v392.53125c0 4.714844 3.820312 8.535156 8.53125 8.535156h256c4.714844 0 8.535156-3.820312 8.535156-8.535156v-392.53125c0-4.714844-3.820312-8.535156-8.535156-8.535156h-42.667969v-17.066406h59.734375c4.714844 0 8.535156 3.820312 8.535156 8.535156v426.664062c0 4.714844-3.820312 8.535156-8.535156 8.535156h-290.132812c-4.710938 0-8.53125-3.820312-8.53125-8.535156zm0 0"/><path d="m105.152344 298.375c13.167968 18.390625 20.410156 28.519531 22.1875 52.054688l.648437 8.378906v16.699218c-4.714843 0-8.535156 3.820313-8.535156 8.535157 0 4.710937 3.820313 8.53125 8.535156 8.53125v8.535156c0 14.136719 11.460938 25.601563 25.597657 25.601563h34.132812c14.140625 0 25.601562-11.464844 25.601562-25.601563v-8.535156c4.714844 0 8.535157-3.820313 8.535157-8.53125 0-4.714844-3.820313-8.535157-8.535157-8.535157v-16.730468l.648438-8.382813c1.808594-23.5 9.054688-33.628906 22.1875-52.050781l5.296875-7.441406c14.460937-20.152344 22.511719-44.195313 23.101563-68.992188 0-51.84375-42.027344-93.867187-93.867188-93.867187s-93.867188 42.023437-93.867188 93.867187c.566407 24.800782 8.597657 48.855469 23.042969 69.027344zm91.136718 94.199219v8.535156c0 4.714844-3.820312 8.535156-8.535156 8.535156h-34.132812c-4.710938 0-8.53125-3.820312-8.53125-8.535156v-8.535156c4.710937 0 8.53125-3.820313 8.53125-8.53125 0-4.714844-3.820313-8.535157-8.53125-8.535157v-8.53125h51.199218v8.53125c-4.714843 0-8.535156 3.820313-8.535156 8.535157 0 4.710937 3.820313 8.53125 8.535156 8.53125zm-25.601562-247.464844c42.394531.050781 76.75 34.40625 76.800781 76.800781-.546875 21.285156-7.484375 41.914063-19.910156 59.203125l-5.230469 7.332031c-13.96875 19.503907-23.191406 32.425782-25.359375 60.644532l-.070312.855468h-52.460938l-.070312-.855468c-2.164063-28.261719-11.390625-41.140625-25.359375-60.644532l-5.230469-7.332031c-12.425781-17.289062-19.363281-37.917969-19.910156-59.203125.054687-42.394531 34.40625-76.75 76.800781-76.800781zm0 0"/><path d="m128.019531 256.042969h17.070313v17.066406c0 9.425781 7.640625 17.066406 17.066406 17.066406h17.066406c9.425782 0 17.066406-7.640625 17.066406-17.066406v-17.066406h17.066407c9.425781 0 17.066406-7.640625 17.066406-17.066407v-17.066406c0-9.425781-7.640625-17.066406-17.066406-17.066406h-17.066407v-17.066406c0-9.425782-7.640624-17.066406-17.066406-17.066406h-17.066406c-9.425781 0-17.066406 7.640624-17.066406 17.066406v17.066406h-17.070313c-9.421875 0-17.066406 7.640625-17.066406 17.066406v17.066406c0 9.425782 7.644531 17.066407 17.066406 17.066407zm0-34.132813h25.601563c4.714844 0 8.535156-3.820312 8.535156-8.535156v-25.597656h17.066406v25.597656c0 4.714844 3.820313 8.535156 8.53125 8.535156h25.601563v17.066406h-25.601563c-4.710937 0-8.53125 3.820313-8.53125 8.53125v25.601563h-17.066406v-25.601563c0-4.710937-3.820312-8.53125-8.535156-8.53125h-25.601563zm0 0"/></svg>