<svg height="512pt" viewBox="-26 0 512 512" width="512pt" xmlns="http://www.w3.org/2000/svg"><path d="m290.132812 0h-119.464843c-14.140625 0-25.601563 11.460938-25.601563 25.601562v25.597657h-119.464844c-14.140624 0-25.601562 11.460937-25.601562 25.601562v409.597657c0 14.140624 11.460938 25.601562 25.601562 25.601562h409.597657c14.140625 0 25.601562-11.460938 25.601562-25.601562v-409.597657c0-14.140625-11.460937-25.601562-25.601562-25.601562h-119.464844v-25.597657c0-14.140624-11.460937-25.601562-25.601563-25.601562zm17.066407 401.066406c-.203125 0-.382813.101563-.578125.121094-.582032.050781-1.152344.167969-1.707032.339844-.519531.125-1.027343.300781-1.511718.519531-.449219.25-.875.535156-1.28125.855469-.476563.34375-.914063.738281-1.3125 1.175781-.136719.15625-.316406.230469-.445313.394531l-20.476562 27.304688c-1.613281 2.148437-4.144531 3.414062-6.828125 3.414062h-85.324219c-2.6875 0-5.214844-1.265625-6.828125-3.414062l-20.480469-27.304688c-.128906-.164062-.304687-.238281-.441406-.394531-.390625-.433594-.824219-.820313-1.296875-1.160156-.410156-.324219-.847656-.609375-1.308594-.851563-.472656-.21875-.96875-.394531-1.476562-.523437-.554688-.171875-1.125-.285157-1.703125-.339844-.207031 0-.386719-.121094-.589844-.121094h-102.410156v-256.015625h93.867187v202.863282c0 6.722656 3.941406 12.820312 10.074219 15.574218 6.132813 2.75 13.308594 1.648438 18.332031-2.816406l56.925782-50.601562 56.925781 50.601562c3.097656 2.785156 7.117187 4.332031 11.28125 4.34375 2.433593-.007812 4.835937-.527344 7.050781-1.527344 6.164062-2.714844 10.128906-8.835937 10.078125-15.574218v-202.863282h93.867187v256zm-162.132813-273.066406h-93.867187v-25.601562h93.867187zm264.535156 0h-93.867187v-25.601562h93.867187zm-247.46875-102.398438c0-4.714843 3.820313-8.535156 8.535157-8.535156h119.464843c4.714844 0 8.535157 3.820313 8.535157 8.535156v322.371094h-.050781l-56.925782-50.601562c-6.46875-5.753906-16.214844-5.753906-22.683594 0l-56.875 50.558594zm273.066407 42.664063c4.714843 0 8.535156 3.820313 8.535156 8.535156v409.597657c0 4.714843-3.820313 8.535156-8.535156 8.535156h-409.597657c-4.714843 0-8.535156-3.820313-8.535156-8.535156v-409.597657c0-4.714843 3.820313-8.535156 8.535156-8.535156h119.464844v17.066406h-93.867187c-9.425781 0-17.066407 7.640625-17.066407 17.066407v298.667968c0 9.425782 7.640626 17.066406 17.066407 17.066406h98.132812l17.921875 23.894532c4.847656 6.429687 12.425782 10.21875 20.480469 10.238281h85.332031c8.054688-.019531 15.632813-3.808594 20.480469-10.238281l17.917969-23.894532h98.136718c9.425782 0 17.066407-7.640624 17.066407-17.066406v-298.667968c0-9.425782-7.640625-17.066407-17.066407-17.066407h-93.867187v-17.066406zm0 0"/><path d="m187.734375 68.265625c4.710937 0 8.53125-3.820313 8.53125-8.53125v-8.535156c0-4.710938-3.820313-8.53125-8.53125-8.53125-4.714844 0-8.535156 3.820312-8.535156 8.53125v8.535156c0 4.710937 3.820312 8.53125 8.535156 8.53125zm0 0"/><path d="m187.734375 256c4.710937 0 8.53125-3.820312 8.53125-8.535156v-153.597656c0-4.714844-3.820313-8.535157-8.53125-8.535157-4.714844 0-8.535156 3.820313-8.535156 8.535157v153.597656c0 4.714844 3.820312 8.535156 8.535156 8.535156zm0 0"/></svg>