<svg height="512pt" viewBox="-26 0 512 512" width="512pt" xmlns="http://www.w3.org/2000/svg"><path d="m324.265625 0h-187.730469c-14.140625 0-25.601562 11.460938-25.601562 25.601562v25.597657h-85.332032c-14.140624 0-25.601562 11.460937-25.601562 25.601562v409.597657c0 14.140624 11.460938 25.601562 25.601562 25.601562h409.597657c14.140625 0 25.601562-11.460938 25.601562-25.601562v-409.597657c0-14.140625-11.460937-25.601562-25.601562-25.601562h-85.332031v-25.597657c0-14.140624-11.460938-25.601562-25.601563-25.601562zm-17.066406 401.066406c-.203125 0-.382813.101563-.578125.121094-.582032.054688-1.152344.167969-1.707032.339844-.515624.125-1.015624.296875-1.496093.519531-.457031.242187-.886719.527344-1.285157.855469-.480468.339844-.921874.730468-1.316406 1.167968-.136718.152344-.316406.230469-.441406.394532l-20.480469 27.304687c-1.613281 2.148438-4.140625 3.414063-6.828125 3.414063h-85.332031c-2.6875 0-5.214844-1.265625-6.828125-3.414063l-20.480469-27.304687c-.128906-.164063-.304687-.242188-.441406-.394532-.390625-.433593-.824219-.820312-1.296875-1.160156-.410156-.324218-.847656-.613281-1.308594-.855468-1.019531-.421876-2.09375-.710938-3.191406-.851563-.203125 0-.382812-.121094-.585938-.121094h-102.402343v-256.015625h59.734375v68.265625c0 14.140625 11.460937 25.601563 25.601562 25.601563h187.730469c14.140625 0 25.601563-11.460938 25.601563-25.601563v-68.265625h59.734374v256zm-196.265625-273.066406h-59.734375v-25.601562h59.734375zm298.667968 0h-59.734374v-25.601562h59.734374zm-281.601562-102.398438c0-4.714843 3.820312-8.535156 8.535156-8.535156h187.730469c4.714844 0 8.535156 3.820313 8.535156 8.535156v187.730469c0 4.714844-3.820312 8.535157-8.535156 8.535157h-187.730469c-4.714844 0-8.535156-3.820313-8.535156-8.535157zm307.199219 42.664063c4.714843 0 8.535156 3.820313 8.535156 8.535156v409.597657c0 4.714843-3.820313 8.535156-8.535156 8.535156h-409.597657c-4.714843 0-8.535156-3.820313-8.535156-8.535156v-409.597657c0-4.714843 3.820313-8.535156 8.535156-8.535156h85.332032v17.066406h-59.734375c-9.425781 0-17.066407 7.640625-17.066407 17.066407v298.667968c0 9.425782 7.640626 17.066406 17.066407 17.066406h98.132812l17.921875 23.894532c4.847656 6.429687 12.425782 10.21875 20.480469 10.238281h85.332031c8.054688-.019531 15.632813-3.808594 20.480469-10.238281l17.917969-23.894532h98.136718c9.425782 0 17.066407-7.640624 17.066407-17.066406v-298.667968c0-9.425782-7.640625-17.066407-17.066407-17.066407h-59.734374v-17.066406zm0 0"/><path d="m228.777344 136.535156h3.242187c13.164063.035156 24.195313-9.941406 25.472657-23.042968l5.121093-51.199219c.722657-7.199219-1.632812-14.367188-6.484375-19.734375-4.855468-5.363282-11.753906-8.425782-18.988281-8.425782h-13.480469c-7.238281 0-14.132812 3.0625-18.988281 8.425782-4.851563 5.367187-7.207031 12.535156-6.484375 19.734375l5.121094 51.199219c1.277344 13.101562 12.308594 23.078124 25.46875 23.042968zm-11.449219-82.527344c1.613281-1.796874 3.917969-2.816406 6.332031-2.808593h13.480469c2.417969-.011719 4.730469 1.003906 6.359375 2.792969 1.625 1.789062 2.417969 4.1875 2.175781 6.59375l-5.121093 51.199218c-.4375 4.363282-4.109376 7.679688-8.492188 7.679688h-3.242188c-4.382812 0-8.050781-3.316406-8.488281-7.679688l-5.121093-51.199218c-.265626-2.394532.503906-4.789063 2.117187-6.578126zm0 0"/><path d="m230.398438 153.601562c-14.136719 0-25.597657 11.460938-25.597657 25.597657 0 14.140625 11.460938 25.601562 25.597657 25.601562 14.140624 0 25.601562-11.460937 25.601562-25.601562 0-14.136719-11.460938-25.597657-25.601562-25.597657zm0 34.132813c-4.710938 0-8.53125-3.820313-8.53125-8.535156 0-4.710938 3.820312-8.53125 8.53125-8.53125 4.714843 0 8.535156 3.820312 8.535156 8.53125 0 4.714843-3.820313 8.535156-8.535156 8.535156zm0 0"/></svg>