<svg height="512pt" viewBox="-26 0 512 512" width="512pt" xmlns="http://www.w3.org/2000/svg"><path d="m324.265625 0h-187.730469c-14.140625 0-25.601562 11.460938-25.601562 25.601562v25.597657h-85.332032c-14.140624 0-25.601562 11.460937-25.601562 25.601562v409.597657c0 14.140624 11.460938 25.601562 25.601562 25.601562h409.597657c14.140625 0 25.601562-11.460938 25.601562-25.601562v-409.597657c0-14.140625-11.460937-25.601562-25.601562-25.601562h-85.332031v-25.597657c0-14.140624-11.460938-25.601562-25.601563-25.601562zm-17.066406 401.066406c-.203125 0-.375.101563-.570313.121094-.582031.050781-1.152344.164062-1.707031.339844-.503906.128906-1 .300781-1.476563.511718-.457031.246094-.890624.53125-1.296874.855469-.476563.34375-.917969.734375-1.3125 1.167969-.128907.152344-.316407.230469-.4375.390625l-20.480469 27.308594c-1.609375 2.148437-4.140625 3.414062-6.824219 3.414062h-85.359375c-2.6875 0-5.214844-1.265625-6.828125-3.414062l-20.480469-27.308594c-.128906-.160156-.304687-.238281-.433593-.390625-.394532-.433594-.832032-.820312-1.304688-1.160156-.785156-.699219-1.738281-1.175782-2.765625-1.390625-.570313-.183594-1.160156-.304688-1.757813-.359375-.195312 0-.367187-.109375-.5625-.109375h-102.402343v-255.976563h59.734375v68.265625c0 14.140625 11.460937 25.601563 25.601562 25.601563h187.730469c14.140625 0 25.601563-11.460938 25.601563-25.601563v-68.265625h59.734374v256zm-196.265625-273.066406h-59.734375v-25.601562h59.734375zm298.667968 0h-59.734374v-25.601562h59.734374zm-281.601562-102.398438c0-4.714843 3.820312-8.535156 8.535156-8.535156h187.730469c4.714844 0 8.535156 3.820313 8.535156 8.535156v187.730469c0 4.714844-3.820312 8.535157-8.535156 8.535157h-187.730469c-4.714844 0-8.535156-3.820313-8.535156-8.535157zm307.199219 42.664063c4.714843 0 8.535156 3.820313 8.535156 8.535156v409.597657c0 4.714843-3.820313 8.535156-8.535156 8.535156h-409.597657c-4.714843 0-8.535156-3.820313-8.535156-8.535156v-409.597657c0-4.714843 3.820313-8.535156 8.535156-8.535156h85.332032v17.066406h-59.734375c-9.425781 0-17.066407 7.640625-17.066407 17.066407v298.667968c0 9.425782 7.640626 17.066406 17.066407 17.066406h98.132812l17.921875 23.894532c4.847656 6.429687 12.425782 10.21875 20.480469 10.238281h85.332031c8.054688-.011719 15.636719-3.804687 20.480469-10.238281l17.917969-23.894532h98.136718c9.425782 0 17.066407-7.640624 17.066407-17.066406v-298.667968c0-9.425782-7.640625-17.066407-17.066407-17.066407h-59.734374v-17.066406zm0 0"/><path d="m153.601562 204.800781h153.597657c4.714843 0 8.535156-3.820312 8.535156-8.535156v-153.597656c0-4.714844-3.820313-8.535157-8.535156-8.535157h-153.597657c-4.714843 0-8.535156 3.820313-8.535156 8.535157v153.597656c0 4.714844 3.820313 8.535156 8.535156 8.535156zm8.53125-153.601562h136.535157v136.535156h-136.535157zm0 0"/><path d="m238.933594 115.933594v-39.132813c0-4.714843-3.820313-8.535156-8.535156-8.535156-4.710938 0-8.53125 3.820313-8.53125 8.535156v42.664063c0 2.265625.898437 4.433594 2.5 6.035156l42.667968 42.667969c3.347656 3.230469 8.667969 3.1875 11.960938-.105469 3.292968-3.292969 3.335937-8.613281.105468-11.960938zm0 0"/></svg>