<svg height="512pt" viewBox="-60 0 512 512.04277" width="512pt" xmlns="http://www.w3.org/2000/svg"><path d="m366.953125 512.042969c14.140625 0 25.601563-11.460938 25.601563-25.601563v-426.664062c0-14.140625-11.460938-25.601563-25.601563-25.601563h-128.851563c-4.039062-19.886719-21.523437-34.175781-41.8125-34.175781-20.292968 0-37.777343 14.289062-41.8125 34.175781h-128.855468c-14.136719 0-25.6015628 11.460938-25.6015628 25.601563v426.664062c0 14.140625 11.4648438 25.601563 25.6015628 25.601563zm-254.429687-426.667969c3.605468 10.191406 13.222656 17.023438 24.03125 17.066406h119.464843c10.8125-.042968 20.429688-6.875 24.03125-17.066406h61.304688v375.46875h-290.132813v-375.46875zm83.765624-68.265625c10.808594.042969 20.425782 6.875 24.027344 17.066406h-48.058594c3.605469-10.191406 13.21875-17.023437 24.03125-17.066406zm68.265626 34.132813v25.601562c0 4.710938-3.820313 8.53125-8.535157 8.53125h-119.464843c-4.710938 0-8.535157-3.820312-8.535157-8.53125v-25.601562zm-247.464844 435.199218v-426.664062c0-4.714844 3.820312-8.535156 8.53125-8.535156h85.332031v17.066406h-68.265625c-4.710938 0-8.53125 3.820312-8.53125 8.535156v392.53125c0 4.714844 3.820312 8.535156 8.53125 8.535156h307.199219c4.714843 0 8.535156-3.820312 8.535156-8.535156v-392.53125c0-4.714844-3.820313-8.535156-8.535156-8.535156h-68.265625v-17.066406h85.332031c4.714844 0 8.535156 3.820312 8.535156 8.535156v426.664062c0 4.714844-3.820312 8.535156-8.535156 8.535156h-341.332031c-4.710938 0-8.53125-3.820312-8.53125-8.535156zm0 0"/><path d="m85.355469 213.375h34.132812c9.425781 0 17.066407-7.640625 17.066407-17.066406v-34.132813c0-9.425781-7.640626-17.066406-17.066407-17.066406h-34.132812c-9.425781 0-17.066407 7.640625-17.066407 17.066406v34.132813c0 9.425781 7.640626 17.066406 17.066407 17.066406zm0-51.199219h34.132812v34.132813h-34.132812zm0 0"/><path d="m170.6875 213.375h136.535156c9.425782 0 17.066406-7.640625 17.066406-17.066406v-34.132813c0-9.425781-7.640624-17.066406-17.066406-17.066406h-136.535156c-9.425781 0-17.066406 7.640625-17.066406 17.066406v34.132813c0 9.425781 7.640625 17.066406 17.066406 17.066406zm136.535156-17.066406h-85.335937v-34.132813h85.335937zm-136.535156-34.132813h34.132812v34.132813h-34.132812zm0 0"/><path d="m85.355469 307.242188h34.132812c9.425781 0 17.066407-7.640626 17.066407-17.066407v-34.132812c0-9.425781-7.640626-17.066407-17.066407-17.066407h-34.132812c-9.425781 0-17.066407 7.640626-17.066407 17.066407v34.132812c0 9.425781 7.640626 17.066407 17.066407 17.066407zm0-51.199219h34.132812v34.132812h-34.132812zm0 0"/><path d="m170.6875 307.242188h136.535156c9.425782 0 17.066406-7.640626 17.066406-17.066407v-34.132812c0-9.425781-7.640624-17.066407-17.066406-17.066407h-136.535156c-9.425781 0-17.066406 7.640626-17.066406 17.066407v34.132812c0 9.425781 7.640625 17.066407 17.066406 17.066407zm136.535156-17.066407h-25.601562v-34.132812h25.601562zm-136.535156-34.132812h93.867188v34.132812h-93.867188zm0 0"/><path d="m85.355469 401.109375h34.132812c9.425781 0 17.066407-7.640625 17.066407-17.066406v-34.132813c0-9.425781-7.640626-17.066406-17.066407-17.066406h-34.132812c-9.425781 0-17.066407 7.640625-17.066407 17.066406v34.132813c0 9.425781 7.640626 17.066406 17.066407 17.066406zm0-51.199219h34.132812v34.132813h-34.132812zm0 0"/><path d="m170.6875 401.109375h136.535156c9.425782 0 17.066406-7.640625 17.066406-17.066406v-34.132813c0-9.425781-7.640624-17.066406-17.066406-17.066406h-136.535156c-9.425781 0-17.066406 7.640625-17.066406 17.066406v34.132813c0 9.425781 7.640625 17.066406 17.066406 17.066406zm136.535156-17.066406h-93.867187v-34.132813h93.867187zm-136.535156-34.132813h25.601562v34.132813h-25.601562zm0 0"/></svg>