<svg height="512pt" viewBox="0 -30 512 512" width="512pt" xmlns="http://www.w3.org/2000/svg"><path d="m494.933594 358.398438v-332.796876c0-14.140624-11.460938-25.601562-25.601563-25.601562h-426.664062c-14.140625 0-25.601563 11.460938-25.601563 25.601562v332.796876c-9.425781 0-17.066406 7.640624-17.066406 17.066406v34.136718c.0273438 23.550782 19.113281 42.636719 42.667969 42.664063h426.664062c23.554688-.027344 42.640625-19.113281 42.667969-42.664063v-34.136718c0-9.425782-7.640625-17.066406-17.066406-17.066406zm-460.800782-332.796876c0-4.714843 3.820313-8.535156 8.535157-8.535156h426.664062c4.714844 0 8.535157 3.820313 8.535157 8.535156v332.796876h-443.734376zm293.394532 349.863282-6.179688 12.347656c-1.445312 2.890625-4.398437 4.71875-7.628906 4.722656h-115.4375c-3.230469-.003906-6.183594-1.832031-7.628906-4.722656l-6.179688-12.347656zm141.804687 59.734375h-426.664062c-14.140625 0-25.601563-11.460938-25.601563-25.597657h93.867188c4.710937 0 8.53125-3.820312 8.53125-8.535156 0-4.710937-3.820313-8.53125-8.53125-8.53125h-93.867188v-17.070312h148.328125l9.992188 19.988281c4.308593 8.695313 13.1875 14.179687 22.894531 14.148437h115.4375c9.707031.03125 18.585938-5.453124 22.894531-14.148437l9.992188-19.988281h148.328125v17.070312h-93.867188c-4.710937 0-8.53125 3.820313-8.53125 8.53125 0 4.714844 3.820313 8.535156 8.53125 8.535156h93.867188c0 14.136719-11.460938 25.597657-25.601563 25.597657zm0 0"/><path d="m153.601562 392.535156h-8.535156c-4.710937 0-8.53125 3.820313-8.53125 8.53125 0 4.714844 3.820313 8.535156 8.53125 8.535156h8.535156c4.710938 0 8.53125-3.820312 8.53125-8.535156 0-4.710937-3.820312-8.53125-8.53125-8.53125zm0 0"/><path d="m366.933594 392.535156h-8.535156c-4.710938 0-8.53125 3.820313-8.53125 8.53125 0 4.714844 3.820312 8.535156 8.53125 8.535156h8.535156c4.710937 0 8.53125-3.820312 8.53125-8.535156 0-4.710937-3.820313-8.53125-8.53125-8.53125zm0 0"/><path d="m136.535156 93.867188c-4.714844 0-8.535156 3.820312-8.535156 8.53125v8.535156h-51.199219v-51.199219h17.066407c4.710937 0 8.53125-3.820313 8.53125-8.535156 0-4.710938-3.820313-8.53125-8.53125-8.53125h-17.066407c-9.425781 0-17.066406 7.640625-17.066406 17.066406v51.199219c0 9.425781 7.640625 17.066406 17.066406 17.066406h51.199219c9.425781 0 17.066406-7.640625 17.066406-17.066406v-8.535156c0-4.710938-3.820312-8.53125-8.53125-8.53125zm0 0"/><path d="m99.898438 79.300781c-3.347657-3.234375-8.667969-3.1875-11.960938.101563-3.292969 3.292968-3.335938 8.617187-.105469 11.964844l8.535157 8.53125c1.601562 1.601562 3.769531 2.5 6.03125 2.5h.480468c2.421875-.132813 4.671875-1.296876 6.1875-3.191407l34.132813-42.664062c2.945312-3.683594 2.347656-9.054688-1.332031-12-3.679688-2.945313-9.054688-2.347657-12 1.332031l-28.160157 35.226562zm0 0"/><path d="m179.199219 128h256c9.425781 0 17.066406-7.640625 17.066406-17.066406v-51.199219c0-9.425781-7.640625-17.066406-17.066406-17.066406h-256c-9.425781 0-17.066407 7.640625-17.066407 17.066406v51.199219c0 9.425781 7.640626 17.066406 17.066407 17.066406zm0-68.265625h256v51.199219h-256zm0 0"/><path d="m179.199219 230.398438h256c9.425781 0 17.066406-7.640626 17.066406-17.066407v-51.199219c0-9.425781-7.640625-17.066406-17.066406-17.066406h-256c-9.425781 0-17.066407 7.640625-17.066407 17.066406v51.199219c0 9.425781 7.640626 17.066407 17.066407 17.066407zm256-17.066407h-85.332031v-51.199219h85.332031zm-256-51.199219h153.601562v51.199219h-153.601562zm0 0"/><path d="m128 145.066406h-51.199219c-9.425781 0-17.066406 7.640625-17.066406 17.066406v51.199219c0 9.425781 7.640625 17.066407 17.066406 17.066407h51.199219c9.425781 0 17.066406-7.640626 17.066406-17.066407v-51.199219c0-9.425781-7.640625-17.066406-17.066406-17.066406zm-51.199219 68.265625v-51.199219h51.199219v51.199219zm0 0"/><path d="m435.199219 332.800781c9.425781 0 17.066406-7.640625 17.066406-17.066406v-51.199219c0-9.425781-7.640625-17.070312-17.066406-17.070312h-256c-9.425781 0-17.066407 7.644531-17.066407 17.070312v51.199219c0 9.425781 7.640626 17.066406 17.066407 17.066406zm0-17.066406h-153.597657v-51.199219h153.597657zm-256-51.199219h85.335937v51.199219h-85.335937zm0 0"/><path d="m128 247.464844h-51.199219c-9.425781 0-17.066406 7.644531-17.066406 17.070312v51.199219c0 9.425781 7.640625 17.066406 17.066406 17.066406h51.199219c9.425781 0 17.066406-7.640625 17.066406-17.066406v-51.199219c0-9.425781-7.640625-17.070312-17.066406-17.070312zm-51.199219 68.269531v-51.199219h51.199219v51.199219zm0 0"/></svg>