<svg height="512pt" viewBox="0 0 512 512" width="512pt" xmlns="http://www.w3.org/2000/svg"><path d="m76.800781 119.464844h51.199219c9.425781 0 17.066406-7.640625 17.066406-17.066406v-8.53125c0-4.714844-3.820312-8.535157-8.53125-8.535157-4.714844 0-8.535156 3.820313-8.535156 8.535157v8.53125h-51.199219v-51.199219h17.066407c4.710937 0 8.53125-3.820313 8.53125-8.53125 0-4.714844-3.820313-8.535157-8.53125-8.535157h-17.066407c-9.425781 0-17.066406 7.640626-17.066406 17.066407v51.199219c0 9.425781 7.640625 17.066406 17.066406 17.066406zm0 0"/><path d="m99.898438 70.765625c-3.347657-3.234375-8.667969-3.1875-11.960938.105469-3.292969 3.292968-3.335938 8.613281-.105469 11.960937l8.535157 8.535157c1.601562 1.601562 3.769531 2.5 6.03125 2.5h.480468c2.421875-.136719 4.671875-1.296876 6.1875-3.191407l34.132813-42.667969c1.902343-2.378906 2.394531-5.597656 1.285156-8.4375-1.109375-2.839843-3.648437-4.875-6.664063-5.332031-3.015624-.460937-6.046874.722657-7.953124 3.105469l-28.175782 35.191406zm0 0"/><path d="m179.199219 119.464844h256c9.425781 0 17.066406-7.640625 17.066406-17.066406v-51.199219c0-9.425781-7.640625-17.066407-17.066406-17.066407h-256c-9.425781 0-17.066407 7.640626-17.066407 17.066407v51.199219c0 9.425781 7.640626 17.066406 17.066407 17.066406zm0-68.265625h256v51.199219h-256zm0 0"/><path d="m76.800781 324.265625h51.199219c9.425781 0 17.066406-7.640625 17.066406-17.066406v-8.53125c0-4.714844-3.820312-8.535157-8.53125-8.535157-4.714844 0-8.535156 3.820313-8.535156 8.535157v8.53125h-51.199219v-51.199219h17.066407c4.710937 0 8.53125-3.820312 8.53125-8.535156 0-4.710938-3.820313-8.53125-8.53125-8.53125h-17.066407c-9.425781 0-17.066406 7.640625-17.066406 17.066406v51.199219c0 9.425781 7.640625 17.066406 17.066406 17.066406zm0 0"/><path d="m129.867188 242.132812-28.160157 35.226563-1.789062-1.792969c-3.347657-3.234375-8.671875-3.1875-11.964844.105469-3.289063 3.289063-3.335937 8.613281-.101563 11.960937l8.53125 8.535157c1.597657 1.59375 3.761719 2.492187 6.015626 2.5h.480468c2.421875-.136719 4.671875-1.296875 6.1875-3.191407l34.132813-42.667968c2.945312-3.679688 2.347656-9.050782-1.332031-11.996094-3.679688-2.949219-9.054688-2.351562-12 1.328125zm0 0"/><path d="m179.199219 324.265625h256c9.425781 0 17.066406-7.640625 17.066406-17.066406v-51.199219c0-9.425781-7.640625-17.066406-17.066406-17.066406h-256c-9.425781 0-17.066407 7.640625-17.066407 17.066406v51.199219c0 9.425781 7.640626 17.066406 17.066407 17.066406zm0-68.265625h256v51.199219h-256zm0 0"/><path d="m179.199219 221.867188h256c9.425781 0 17.066406-7.640626 17.066406-17.066407v-51.199219c0-9.425781-7.640625-17.066406-17.066406-17.066406h-256c-9.425781 0-17.066407 7.640625-17.066407 17.066406v51.199219c0 9.425781 7.640626 17.066407 17.066407 17.066407zm256-17.066407h-85.332031v-51.199219h85.332031zm-256-51.199219h153.601562v51.199219h-153.601562zm0 0"/><path d="m76.800781 221.867188h51.199219c9.425781 0 17.066406-7.640626 17.066406-17.066407v-51.199219c0-9.425781-7.640625-17.066406-17.066406-17.066406h-51.199219c-9.425781 0-17.066406 7.640625-17.066406 17.066406v51.199219c0 9.425781 7.640625 17.066407 17.066406 17.066407zm0-68.265626h51.199219v51.199219h-51.199219zm0 0"/><path d="m469.332031 0h-426.664062c-23.554688.0273438-42.6406252 19.113281-42.667969 42.667969v358.398437c.0273438 23.550782 19.113281 42.640625 42.667969 42.667969h136.53125v17.066406h-34.132813c-18.851562 0-34.132812 15.28125-34.132812 34.132813v8.53125c0 4.714844 3.820312 8.535156 8.53125 8.535156h273.070312c4.710938 0 8.53125-3.820312 8.53125-8.535156v-8.53125c0-18.851563-15.28125-34.132813-34.132812-34.132813h-34.132813v-17.066406h136.53125c23.554688-.027344 42.640625-19.117187 42.667969-42.667969v-358.398437c-.027344-23.554688-19.113281-42.6406252-42.667969-42.667969zm-426.664062 17.066406h426.664062c14.140625 0 25.601563 11.460938 25.601563 25.601563v298.664062h-477.867188v-298.664062c0-14.140625 11.460938-25.601563 25.601563-25.601563zm341.332031 477.867188h-256c0-9.425782 7.640625-17.066406 17.066406-17.066406h221.867188c9.425781 0 17.066406 7.640624 17.066406 17.066406zm-68.265625-34.132813h-119.46875v-17.066406h119.46875zm153.597656-34.132812h-426.664062c-14.140625 0-25.601563-11.460938-25.601563-25.601563v-42.667968h477.867188v42.667968c0 14.140625-11.460938 25.601563-25.601563 25.601563zm0 0"/></svg>