<svg height="512pt" viewBox="-43 0 512 512.03019" width="512pt" xmlns="http://www.w3.org/2000/svg"><path d="m8.546875 418.132812c-4.710937 0-8.53125 3.820313-8.53125 8.535157 0 4.710937 3.820313 8.53125 8.53125 8.53125h17.066406v34.132812c0 14.140625 11.464844 25.601563 25.601563 25.601563h179.199218v8.53125c-.011718 3.875 2.585938 7.273437 6.328126 8.273437 3.742187 1.003907 7.691406-.640625 9.613281-4.003906l7.296875-12.800781h38.859375l7.296875 12.800781c1.921875 3.363281 5.871094 5.007813 9.613281 4.003906 3.742187-1 6.339844-4.398437 6.328125-8.273437v-8.53125h42.664062c7.242188-.023438 14.128907-3.125 18.945313-8.535156h32.253906c9.378907.035156 17.011719-7.527344 17.070313-16.902344v-386.339844c-.011719-6.882812-2.777344-13.472656-7.683594-18.304688l-34.984375-34.300781v-4.949219c0-14.140624-11.460937-25.601562-25.601563-25.601562h-307.199218c-14.136719 0-25.601563 11.460938-25.601563 25.601562v34.132813h-17.066406c-4.710937 0-8.53125 3.820313-8.53125 8.53125 0 4.714844 3.820313 8.535156 8.53125 8.535156h17.066406v34.132813h-17.066406c-4.710937 0-8.53125 3.820312-8.53125 8.53125 0 4.714844 3.820313 8.535156 8.53125 8.535156h17.066406v34.132812h-17.066406c-4.710937 0-8.53125 3.820313-8.53125 8.535157 0 4.710937 3.820313 8.53125 8.53125 8.53125h17.066406v34.132812h-17.066406c-4.710937 0-8.53125 3.820313-8.53125 8.535157 0 4.710937 3.820313 8.53125 8.53125 8.53125h17.066406v34.136718h-17.066406c-4.710937 0-8.53125 3.820313-8.53125 8.53125 0 4.714844 3.820313 8.535156 8.53125 8.535156h17.066406v34.132813h-17.066406c-4.710937 0-8.53125 3.820313-8.53125 8.53125 0 4.714844 3.820313 8.535156 8.53125 8.535156h17.066406v34.132813h-17.066406c-4.710937 0-8.53125 3.820312-8.53125 8.53125 0 4.714844 3.820313 8.535156 8.53125 8.535156h17.066406v34.132812zm221.867187-256h-93.867187c-4.710937 0-8.53125-3.820312-8.53125-8.53125v-59.734374c0-4.714844 3.820313-8.535157 8.53125-8.535157h93.867187zm32.992188 315.734376 9.675781-16.929688 9.675781 16.929688zm120.609375-158.601563 25.597656 25.601563v61.199218l-25.597656-25.597656zm0-24.132813v-69.734374l25.597656 25.601562v69.734375zm25.597656-68.265624-25.597656-25.601563v-61.199219l25.597656 25.601563zm-42.664062-64.734376h-51.199219v-76.800781h51.199219zm-8.535157 315.734376h-42.664062v-298.667969h51.199219v290.132812c0 4.714844-3.820313 8.535157-8.535157 8.535157zm25.601563-8.535157v-64.734375l25.597656 25.601563v39.132812zm23.039063-392.257812c1.636718 1.601562 2.558593 3.792969 2.558593 6.082031v58.378906l-25.597656-25.601562v-61.441406zm-40.105469-51.472657v42.664063h-51.199219v-51.199219h42.664062c4.714844 0 8.535157 3.820313 8.535157 8.535156zm-68.265625-8.535156v454.265625l-18.195313-31.867187c-1.519531-2.65625-4.347656-4.292969-7.40625-4.292969-3.0625 0-5.886719 1.636719-7.40625 4.292969l-18.195312 31.867187v-454.265625zm-256 366.933594h17.066406c4.710938 0 8.53125-3.820312 8.53125-8.535156 0-4.710938-3.820312-8.53125-8.53125-8.53125h-17.066406v-34.132813h17.066406c4.710938 0 8.53125-3.820312 8.53125-8.535156 0-4.710937-3.820312-8.53125-8.53125-8.53125h-17.066406v-34.132813h17.066406c4.710938 0 8.53125-3.820312 8.53125-8.535156 0-4.710937-3.820312-8.53125-8.53125-8.53125h-17.066406v-34.136718h17.066406c4.710938 0 8.53125-3.820313 8.53125-8.53125 0-4.714844-3.820312-8.535157-8.53125-8.535157h-17.066406v-34.132812h17.066406c4.710938 0 8.53125-3.820313 8.53125-8.53125 0-4.714844-3.820312-8.535157-8.53125-8.535157h-17.066406v-34.132812h17.066406c4.710938 0 8.53125-3.820312 8.53125-8.535156 0-4.710938-3.820312-8.53125-8.53125-8.53125h-17.066406v-34.132813h17.066406c4.710938 0 8.53125-3.820312 8.53125-8.535156 0-4.710937-3.820312-8.53125-8.53125-8.53125h-17.066406v-34.132813c0-4.714843 3.820312-8.535156 8.53125-8.535156h179.199218v51.199219h-93.867187c-14.136719 0-25.597656 11.460937-25.597656 25.601563v59.734374c0 14.136719 11.460937 25.597657 25.597656 25.597657h93.867187v298.667969h-179.199218c-4.710938 0-8.53125-3.820313-8.53125-8.535157v-34.132812h17.066406c4.710938 0 8.53125-3.820313 8.53125-8.53125 0-4.714844-3.820312-8.535157-8.53125-8.535157h-17.066406zm0 0"/></svg>