<svg height="512pt" viewBox="0 0 512 512" width="512pt" xmlns="http://www.w3.org/2000/svg"><path d="m204.800781 477.867188c17.277344-.023438 34.480469-2.246094 51.199219-6.605469v15.136719c0 14.140624 11.460938 25.601562 25.601562 25.601562h204.796876c14.140624 0 25.601562-11.460938 25.601562-25.601562v-221.863282c0-14.140625-11.460938-25.601562-25.601562-25.601562h-17.066407v-17.066406c0-4.714844-3.820312-8.535157-8.53125-8.535157-4.714843 0-8.535156 3.820313-8.535156 8.535157v17.066406h-45.761719c-6.648437-39.683594-24.910156-76.503906-52.472656-105.8125l8.3125-11.835938c7.96875-11.625 5.15625-27.492187-6.324219-35.671875l-7.007812-4.90625c-11.605469-7.96875-27.457031-5.175781-35.640625 6.28125l-6.28125 8.925781c-21.066406-12.21875-44.148438-20.566406-68.15625-24.644531v-20.070312h8.53125c4.714844 0 8.535156-3.820313 8.535156-8.53125v-17.066407c0-14.140624-11.460938-25.601562-25.601562-25.601562h-51.199219c-14.136719 0-25.597657 11.460938-25.597657 25.601562v17.066407c0 4.710937 3.820313 8.53125 8.53125 8.53125h8.535157v19.96875c-24.175781 4.074219-47.414063 12.488281-68.59375 24.832031l-5.859375-8.355469c-8.214844-11.457031-24.09375-14.222656-35.695313-6.210937l-6.957031 4.933594c-11.546875 8.105468-14.355469 24.03125-6.28125 35.601562l7.964844 11.390625c-55.742188 59.554687-70.796875 146.523437-38.316406 221.347656 32.484374 74.824219 106.296874 123.214844 187.871093 123.160157zm102.398438-264.535157c-4.710938 0-8.53125 3.820313-8.53125 8.535157v17.066406h-17.066407c-14.140624 0-25.601562 11.460937-25.601562 25.601562v47.664063l-21.90625-21.902344c3.136719-5.203125 4.808594-11.15625 4.839844-17.230469-.058594-15.515625-10.574219-29.042968-25.601563-32.921875v-95.078125c0-4.710937-3.820312-8.53125-8.53125-8.53125-4.714843 0-8.535156 3.820313-8.535156 8.53125v95.078125c-3.054687.792969-5.980469 2.011719-8.695313 3.628907l-19.402343-19.40625c-3.351563-3.234376-8.671875-3.1875-11.964844.105468-3.289063 3.289063-3.335937 8.613282-.101563 11.960938l19.402344 19.402344c-3.136718 5.203124-4.808594 11.15625-4.835937 17.230468.054687 15.515625 10.574219 29.042969 25.597656 32.921875v26.8125c0 4.710938 3.820313 8.53125 8.535156 8.53125 4.710938 0 8.53125-3.820312 8.53125-8.53125v-26.8125c3.054688-.792969 5.984375-2.011719 8.695313-3.625l33.972656 33.96875v81.367188c-16.421875 5.914062-33.746094 8.949219-51.199219 8.96875-80.402343.074219-147.257812-61.867188-153.308593-142.042969-6.050782-80.175781 50.75-151.449219 130.253906-163.441406 79.503906-11.992188 154.800781 39.359375 172.667968 117.75h-38.679687v-17.066406c0-4.714844-3.820313-8.535157-8.535156-8.535157zm-90.34375 71.792969c-6.71875 6.304688-17.230469 6.136719-23.746094-.378906s-6.679687-17.027344-.375-23.746094c6.71875-6.304688 17.230469-6.136719 23.746094.378906s6.683593 17.027344.375 23.746094zm269.542969 209.808594h-204.796876c-4.714843 0-8.535156-3.820313-8.535156-8.535156v-162.132813h221.867188v162.132813c0 4.714843-3.820313 8.535156-8.535156 8.535156zm-25.597657-213.332032c4.710938 0 8.53125-3.820312 8.53125-8.535156v-17.066406h17.066407c4.714843 0 8.535156 3.820312 8.535156 8.535156v42.664063h-221.867188v-42.664063c0-4.714844 3.820313-8.535156 8.535156-8.535156h17.066407v17.066406c0 4.714844 3.820312 8.535156 8.53125 8.535156 4.714843 0 8.535156-3.820312 8.535156-8.535156v-17.066406h136.53125v17.066406c0 4.714844 3.820313 8.535156 8.535156 8.535156zm-133.503906-184.75c2.71875-3.875 8.058594-4.824218 11.945313-2.121093l6.921874 4.8125c3.890626 2.703125 4.855469 8.050781 2.148438 11.945312l-6.6875 9.53125c-6.390625-5.714843-13.128906-11.03125-20.175781-15.914062zm-156.628906-71.25c0-4.714843 3.820312-8.535156 8.53125-8.535156h51.199219c4.714843 0 8.535156 3.820313 8.535156 8.535156v8.53125h-68.265625zm17.066406 25.597657h34.132813v17.859375c-5.640626-.46875-11.324219-.792969-17.066407-.792969-5.742187 0-11.4375.300781-17.066406.769531zm-124.347656 49.117187 6.917969-4.898437c3.875-2.714844 9.210937-1.792969 11.949218 2.066406l5.410156 7.722656c-7.023437 4.902344-13.734374 10.234375-20.097656 15.964844l-6.304687-9c-2.675781-3.863281-1.726563-9.160156 2.125-11.855469zm141.414062-14.984375c90.402344.195313 167.859375 64.722657 184.378907 153.601563h-17.339844c-18.003906-87.949219-101.085938-146.894532-190.046875-134.832032-88.957031 12.0625-153.34375 91.003907-147.277344 180.570313s80.511719 159.105469 170.285156 159.0625c17.375-.015625 34.644531-2.710937 51.199219-7.996094v17.816407c-70.5 20.027343-146.207031-2.816407-193.863281-58.492188-47.660157-55.675781-58.550781-134-27.886719-200.566406 30.660156-66.566406 97.261719-109.195313 170.550781-109.164063zm0 0"/><path d="m366.933594 341.332031h-34.132813c-2.265625 0-4.433593.902344-6.035156 2.5l-25.597656 25.601563c-1.601563 1.601562-2.5 3.769531-2.5 6.03125v34.136718c-.003907 3.144532 1.730469 6.039063 4.507812 7.523438 2.773438 1.484375 6.140625 1.320312 8.761719-.425781l12.328125-8.21875v60.851562c0 4.714844 3.820313 8.535157 8.535156 8.535157h34.132813c4.710937 0 8.53125-3.820313 8.53125-8.535157v-119.464843c0-4.714844-3.820313-8.535157-8.53125-8.535157zm-8.535156 119.46875h-17.066407v-68.265625c0-3.148437-1.730469-6.042968-4.507812-7.527344-2.773438-1.484374-6.140625-1.320312-8.761719.425782l-12.328125 8.21875v-14.652344l20.597656-20.601562h22.066407zm0 0"/><path d="m460.800781 341.332031h-34.132812c-2.265625 0-4.433594.902344-6.035157 2.5l-25.597656 25.601563c-1.601562 1.601562-2.5 3.769531-2.503906 6.03125v34.136718c0 3.144532 1.734375 6.039063 4.507812 7.523438 2.777344 1.484375 6.144532 1.320312 8.761719-.425781l12.332031-8.21875v60.851562c0 4.714844 3.820313 8.535157 8.535157 8.535157h34.132812c4.710938 0 8.53125-3.820313 8.53125-8.535157v-119.464843c0-4.714844-3.820312-8.535157-8.53125-8.535157zm-8.535156 119.46875h-17.066406v-68.265625c0-3.148437-1.730469-6.042968-4.507813-7.527344-2.773437-1.484374-6.140625-1.320312-8.761718.425782l-12.328126 8.21875v-14.652344l20.597657-20.601562h22.066406zm0 0"/></svg>