<svg height="511pt" viewBox="0 0 511 511.99963" width="511pt" xmlns="http://www.w3.org/2000/svg"><path d="m485.277344 196.265625h-42.835938c-3.566406-.003906-6.746094-2.257813-7.925781-5.621094-2.347656-6.671875-5.125-13.179687-8.3125-19.492187-1.621094-3.28125-.96875-7.226563 1.621094-9.8125l29.78125-29.78125c9.265625-9.292969 10.039062-24.070313 1.792969-34.277344-12.019532-14.859375-25.769532-28.226562-40.960938-39.816406-10.226562-7.761719-24.605469-6.820313-33.734375 2.207031l-30.804687 30.808594c-2.488282 2.53125-6.308594 3.214843-9.523438 1.707031-3.675781-1.707031-7.371094-3.167969-11.09375-4.550781v-62.035157c0-14.140624-11.460938-25.601562-25.597656-25.601562h-255.984375c-14.136719 0-25.597657 11.460938-25.597657 25.601562v51.199219h-17.070312c-4.710938 0-8.53125 3.820313-8.53125 8.53125 0 4.714844 3.820312 8.535157 8.53125 8.535157h17.070312v34.132812h-17.070312c-4.710938 0-8.53125 3.820312-8.53125 8.535156 0 4.710938 3.820312 8.53125 8.53125 8.53125h17.070312v34.132813h-17.070312c-4.710938 0-8.53125 3.820312-8.53125 8.535156 0 4.710937 3.820312 8.53125 8.53125 8.53125h17.070312v34.132813h-17.070312c-4.710938 0-8.53125 3.820312-8.53125 8.535156 0 4.710937 3.820312 8.53125 8.53125 8.53125h17.070312v34.136718h-17.070312c-4.710938 0-8.53125 3.820313-8.53125 8.53125 0 4.714844 3.820312 8.535157 8.53125 8.535157h17.070312v34.132812h-17.070312c-4.710938 0-8.53125 3.820313-8.53125 8.53125 0 4.714844 3.820312 8.535157 8.53125 8.535157h17.070312v34.132812h-17.070312c-4.710938 0-8.53125 3.820312-8.53125 8.535156 0 4.710938 3.820312 8.53125 8.53125 8.53125h17.070312v51.199219c0 14.140625 11.460938 25.601563 25.597657 25.601563h76.800781v25.597656c0 3.570312 2.222656 6.765625 5.570312 8.003906 3.347657 1.238281 7.113282.261719 9.441407-2.445312l44.722656-52.175782 44.722656 52.175782c2.324219 2.707031 6.089844 3.683593 9.4375 2.445312 3.347657-1.238281 5.570313-4.433594 5.570313-8.003906v-25.597656h59.734375c14.140625 0 25.601562-11.460938 25.601562-25.601563v-44.953125c3.695313-1.382812 7.398438-2.867188 11.09375-4.554688 3.210938-1.496093 7.019531-.8125 9.511719 1.707032l30.808594 30.804687c9.125 9.03125 23.503906 9.972657 33.730468 2.207031 15.199219-11.59375 28.960938-24.960937 40.984376-39.824218 8.214843-10.207032 7.429687-24.960938-1.824219-34.234375l-29.78125-29.789063c-2.578125-2.535156-3.265625-6.425781-1.707031-9.6875 3.214843-6.351562 6.015624-12.910156 8.378906-19.625 1.175781-3.382812 4.363281-5.648437 7.945312-5.648437h42.835938c12.964844-.070313 23.878906-9.726563 25.515625-22.589844 2.242187-19.054687 2.242187-38.304687 0-57.359375-1.6875-12.816406-12.589844-22.410156-25.515625-22.453125zm-237.3125 0h68.269531v85.335937h-68.269531zm85.335937 18.441406c11.375 20.359375 11.375 45.160157 0 65.519531zm0 93.347657c16.347657-15.917969 25.570313-37.769532 25.570313-60.589844 0-22.816406-9.222656-44.667969-25.570313-60.585938v-22.492187c26.828125 19.144531 42.753907 50.070312 42.753907 83.027343 0 32.960938-15.925782 63.886719-42.753907 83.03125zm-17.066406-282.453126v153.597657h-68.269531v-162.132813h59.734375c4.714843 0 8.535156 3.820313 8.535156 8.535156zm-256 102.398438h-17.066406v-34.132812h17.066406c4.710937 0 8.53125-3.820313 8.53125-8.535157 0-4.710937-3.820313-8.53125-8.53125-8.53125h-17.066406v-51.199219c0-4.714843 3.820312-8.535156 8.53125-8.535156h76.800781v162.132813h-85.332031v-34.132813h17.066406c4.710937 0 8.53125-3.820312 8.53125-8.53125 0-4.714844-3.820313-8.535156-8.53125-8.535156zm-17.066406 119.464844h17.066406c4.710937 0 8.53125-3.820313 8.53125-8.53125 0-4.714844-3.820313-8.535156-8.53125-8.535156h-17.066406v-34.132813h85.332031v85.335937h-85.332031zm8.53125 213.335937c-4.710938 0-8.53125-3.820312-8.53125-8.535156v-51.199219h17.066406c4.710937 0 8.53125-3.820312 8.53125-8.53125 0-4.714844-3.820313-8.535156-8.53125-8.535156h-17.066406v-34.132812h17.066406c4.710937 0 8.53125-3.820313 8.53125-8.535157 0-4.710937-3.820313-8.53125-8.53125-8.53125h-17.066406v-34.132812h85.332031v162.132812zm179.199219 19.625-36.1875-42.238281c-1.621094-1.890625-3.988282-2.976562-6.476563-2.976562-2.492187 0-4.855469 1.085937-6.476563 2.976562l-36.191406 42.238281v-463.359375h85.332032zm76.800781-19.625h-59.734375v-162.132812h68.269531v153.597656c0 4.714844-3.820313 8.535156-8.535156 8.535156zm186.179687-186.785156c-.5625 4.324219-4.238281 7.566406-8.601562 7.585937h-42.835938c-10.761718.007813-20.359375 6.769532-23.988281 16.902344-2.132813 6.0625-4.65625 11.980469-7.550781 17.714844-4.859375 9.839844-2.90625 21.683594 4.855468 29.441406l29.78125 29.804688c3.042969 3.132812 3.296876 8.03125.597657 11.460937-11.164063 13.800781-23.941407 26.214844-38.050781 36.984375-3.425782 2.613282-8.246094 2.3125-11.324219-.699218l-30.804688-30.8125c-7.574219-7.511719-19.003906-9.546876-28.707031-5.121094-1.3125.605468-2.636719 1.125-3.949219 1.707031v-38.265625c36.953125-21.25 59.730469-60.625 59.730469-103.253906 0-42.625-22.777344-82-59.730469-103.25v-38.214844c1.3125.554688 2.628907 1.078125 3.933594 1.707031 9.703125 4.449219 21.152344 2.410157 28.722656-5.121093l30.804688-30.804688c3.078125-3.011719 7.898437-3.308594 11.324219-.699219 14.097656 10.757813 26.859374 23.160157 38.015624 36.941407 2.6875 3.421874 2.449219 8.300781-.5625 11.441406l-29.78125 29.78125c-7.796874 7.796875-9.726562 19.703125-4.796874 29.5625 2.867187 5.6875 5.367187 11.554687 7.484374 17.558594 3.609376 10.160156 13.214844 16.953124 23.996094 16.964843h42.835938c4.316406.003907 7.972656 3.179688 8.585937 7.449219 2.082031 17.683594 2.082031 35.550781 0 53.234375zm0 0"/></svg>