<svg height="512pt" viewBox="0 0 512 512" width="512pt" xmlns="http://www.w3.org/2000/svg"><path d="m486.398438 273.066406h-162.132813v-247.464844c0-14.140624-11.460937-25.601562-25.597656-25.601562h-247.46875c-14.136719 0-25.597657 11.460938-25.597657 25.601562v51.199219h-17.066406c-4.714844 0-8.535156 3.820313-8.535156 8.53125 0 4.714844 3.820312 8.535157 8.535156 8.535157h17.066406v34.132812h-17.066406c-4.714844 0-8.535156 3.820312-8.535156 8.535156 0 4.710938 3.820312 8.53125 8.535156 8.53125h17.066406v34.132813h-17.066406c-4.714844 0-8.535156 3.820312-8.535156 8.535156 0 4.710937 3.820312 8.53125 8.535156 8.53125h17.066406v34.132813h-17.066406c-4.714844 0-8.535156 3.820312-8.535156 8.535156 0 4.710937 3.820312 8.53125 8.535156 8.53125h17.066406v34.136718h-17.066406c-4.714844 0-8.535156 3.820313-8.535156 8.53125 0 4.714844 3.820312 8.535157 8.535156 8.535157h17.066406v34.132812h-17.066406c-4.714844 0-8.535156 3.820313-8.535156 8.53125 0 4.714844 3.820312 8.535157 8.535156 8.535157h17.066406v34.132812h-17.066406c-4.714844 0-8.535156 3.820312-8.535156 8.535156 0 4.710938 3.820312 8.53125 8.535156 8.53125h17.066406v51.199219c0 14.140625 11.460938 25.601563 25.597657 25.601563h76.800781v25.597656c0 3.570312 2.222656 6.765625 5.570312 8.003906 3.347657 1.238281 7.117188.261719 9.441407-2.445312l44.722656-52.175782 44.722656 52.175782c2.324219 2.707031 6.089844 3.683593 9.4375 2.445312 3.347657-1.238281 5.570313-4.433594 5.570313-8.003906v-25.597656h25.601562v8.53125c0 14.140624 11.460938 25.601562 25.601563 25.601562h187.730469c14.140624 0 25.601562-11.460938 25.601562-25.601562v-187.730469c0-14.140625-11.460938-25.601563-25.601562-25.601563zm-187.730469 0c-7.242188.023438-14.128907 3.125-18.945313 8.535156h-32.257812v-85.335937h59.734375v76.800781zm8.53125-247.464844v153.597657h-59.734375v-162.132813h51.203125c4.710937 0 8.53125 3.820313 8.53125 8.535156zm-247.464844 102.398438h-17.066406v-34.132812h17.066406c4.710937 0 8.53125-3.820313 8.53125-8.535157 0-4.710937-3.820313-8.53125-8.53125-8.53125h-17.066406v-51.199219c0-4.714843 3.820312-8.535156 8.53125-8.535156h76.800781v162.132813h-85.332031v-34.132813h17.066406c4.710937 0 8.53125-3.820312 8.53125-8.53125 0-4.714844-3.820313-8.535156-8.53125-8.535156zm-17.066406 119.464844h17.066406c4.710937 0 8.53125-3.820313 8.53125-8.53125 0-4.714844-3.820313-8.535156-8.53125-8.535156h-17.066406v-34.132813h85.332031v85.335937h-85.332031zm8.53125 213.335937c-4.710938 0-8.53125-3.820312-8.53125-8.535156v-51.199219h17.066406c4.710937 0 8.53125-3.820312 8.53125-8.53125 0-4.714844-3.820313-8.535156-8.53125-8.535156h-17.066406v-34.132812h17.066406c4.710937 0 8.53125-3.820313 8.53125-8.535157 0-4.710937-3.820313-8.53125-8.53125-8.53125h-17.066406v-34.132812h85.332031v162.132812zm179.199219 19.625-36.1875-42.238281c-1.621094-1.890625-3.988282-2.976562-6.476563-2.976562-2.492187 0-4.855469 1.085937-6.476563 2.976562l-36.191406 42.238281v-463.359375h85.332032zm17.066406-19.625v-162.132812h25.601562v162.132812zm247.46875 25.597657c0 4.714843-3.820313 8.535156-8.535156 8.535156h-187.730469c-4.714844 0-8.535157-3.820313-8.535157-8.535156v-187.730469c0-4.714844 3.820313-8.535157 8.535157-8.535157h187.730469c4.714843 0 8.535156 3.820313 8.535156 8.535157zm0 0"/><path d="m452.265625 366.933594h-34.132813v-34.132813c0-9.425781-7.640624-17.066406-17.066406-17.066406h-17.066406c-9.425781 0-17.066406 7.640625-17.066406 17.066406v34.132813h-34.132813c-9.425781 0-17.066406 7.640625-17.066406 17.066406v17.066406c0 9.425782 7.640625 17.066406 17.066406 17.066406h34.132813v34.132813c0 9.425781 7.640625 17.066406 17.066406 17.066406h17.066406c9.425782 0 17.066406-7.640625 17.066406-17.066406v-34.132813h34.132813c9.425781 0 17.066406-7.640624 17.066406-17.066406v-17.066406c0-9.425781-7.640625-17.066406-17.066406-17.066406zm0 34.132812h-42.664063c-4.714843 0-8.535156 3.820313-8.535156 8.535156v42.664063h-17.066406v-42.664063c0-4.714843-3.820312-8.535156-8.535156-8.535156h-42.664063v-17.066406h42.664063c4.714844 0 8.535156-3.820312 8.535156-8.535156v-42.664063h17.066406v42.664063c0 4.714844 3.820313 8.535156 8.535156 8.535156h42.664063zm0 0"/></svg>