<svg height="512pt" viewBox="0 0 512 512" width="512pt" xmlns="http://www.w3.org/2000/svg"><path d="m511.691406 398.804688-90.453125-328.703126c-2.976562-11.148437-13.070312-18.902343-24.609375-18.902343h-12.628906v-25.597657c0-14.140624-11.460938-25.601562-25.601562-25.601562-14.136719 0-25.597657 11.460938-25.597657 25.601562v25.597657h-51.199219v-25.597657c0-14.140624-11.464843-25.601562-25.601562-25.601562s-25.601562 11.460938-25.601562 25.601562v25.597657h-51.199219v-25.597657c0-14.140624-11.460938-25.601562-25.597657-25.601562-14.140624 0-25.601562 11.460938-25.601562 25.601562v25.597657h-12.628906c-11.515625-.019531-21.609375 7.699219-24.609375 18.816406l-90.453125 328.789063c-.058594.382812-.089844.765624-.085938 1.152343-.101562.363281-.175781.734375-.222656 1.109375v85.332032c0 14.140624 11.460938 25.601562 25.601562 25.601562h460.796876c14.140624 0 25.601562-11.460938 25.601562-25.601562v-85.332032c-.046875-.375-.121094-.746094-.222656-1.109375.003906-.386719-.027344-.769531-.085938-1.152343zm-16.757812 27.863281h-477.867188v-17.066407h477.867188zm-477.867188 17.066406h477.867188v17.066406h-477.867188zm332.800782-418.132813c0-4.714843 3.820312-8.535156 8.53125-8.535156 4.714843 0 8.535156 3.820313 8.535156 8.535156v42.664063c0 4.714844-3.820313 8.535156-8.535156 8.535156-4.710938 0-8.53125-3.820312-8.53125-8.535156zm-102.402344 0c0-4.714843 3.824218-8.535156 8.535156-8.535156s8.535156 3.820313 8.535156 8.535156v42.664063c0 4.714844-3.824218 8.535156-8.535156 8.535156s-8.535156-3.820312-8.535156-8.535156zm-102.398438 0c0-4.714843 3.820313-8.535156 8.535156-8.535156 4.710938 0 8.53125 3.820313 8.53125 8.535156v42.664063c0 4.714844-3.820312 8.535156-8.53125 8.535156-4.714843 0-8.535156-3.820312-8.535156-8.535156zm-37.828125 48.859376c.992188-3.671876 4.328125-6.214844 8.132813-6.195313h12.628906c0 14.140625 11.460938 25.601563 25.601562 25.601563 14.136719 0 25.597657-11.460938 25.597657-25.601563h51.199219c0 14.140625 11.464843 25.601563 25.601562 25.601563s25.601562-11.460938 25.601562-25.601563h51.199219c0 14.140625 11.460938 25.601563 25.597657 25.601563 14.140624 0 25.601562-11.460938 25.601562-25.601563h12.628906c3.832032-.007813 7.183594 2.570313 8.160156 6.273437l87.480469 317.996094h-472.539062zm379.160157 420.472656h-460.796876c-4.714843 0-8.535156-3.820313-8.535156-8.535156v-8.53125h477.867188v8.53125c0 4.714843-3.820313 8.535156-8.535156 8.535156zm0 0"/><path d="m61.542969 363.648438c1.617187 2.070312 4.097656 3.285156 6.722656 3.285156h375.46875c2.628906 0 5.109375-1.210938 6.726563-3.285156 1.617187-2.070313 2.1875-4.773438 1.550781-7.320313l-59.734375-238.933594c-.949219-3.796875-4.363282-6.460937-8.277344-6.460937h-256c-3.914062 0-7.328125 2.664062-8.277344 6.460937l-59.734375 238.933594c-.636719 2.546875-.0625 5.25 1.554688 7.320313zm73.121093-235.648438h242.671876l55.464843 221.867188h-353.601562zm0 0"/><path d="m244.855469 264.535156h22.289062c12.527344.027344 23.222657-9.035156 25.25-21.394531l11.375-68.265625c1.238281-7.421875-.855469-15.015625-5.71875-20.753906-4.863281-5.742188-12.007812-9.054688-19.53125-9.054688h-45.039062c-7.527344-.003906-14.675781 3.304688-19.542969 9.046875-4.867188 5.742188-6.960938 13.335938-5.722656 20.761719l11.375 68.265625c2.027344 12.367187 12.734375 21.433594 25.265625 21.394531zm-17.867188-99.382812c1.601563-1.925782 3.984375-3.035156 6.492188-3.019532h45.039062c2.507813 0 4.886719 1.105469 6.507813 3.019532 1.621094 1.910156 2.316406 4.441406 1.90625 6.914062l-11.375 68.265625c-.683594 4.117188-4.242188 7.132813-8.414063 7.132813h-22.289062c-4.171875 0-7.730469-3.015625-8.414063-7.132813l-11.375-68.265625c-.425781-2.476562.28125-5.011718 1.921875-6.914062zm0 0"/><path d="m290.132812 307.199219c0-14.136719-11.460937-25.597657-25.597656-25.597657h-17.070312c-14.136719 0-25.597656 11.460938-25.597656 25.597657 0 14.140625 11.460937 25.601562 25.597656 25.601562h17.070312c14.136719 0 25.597656-11.460937 25.597656-25.601562zm-51.199218 0c0-4.710938 3.820312-8.53125 8.53125-8.53125h17.070312c4.710938 0 8.53125 3.820312 8.53125 8.53125 0 4.714843-3.820312 8.535156-8.53125 8.535156h-17.070312c-4.710938 0-8.53125-3.820313-8.53125-8.535156zm0 0"/></svg>