<svg height="512pt" viewBox="-26 0 512 512" width="512pt" xmlns="http://www.w3.org/2000/svg"><path d="m0 469.332031c.0273438 23.554688 19.113281 42.640625 42.667969 42.667969h375.464843c23.554688-.027344 42.640626-19.113281 42.667969-42.667969v-392.53125c-.027343-23.554687-19.113281-42.640625-42.667969-42.667969v-25.597656c0-4.714844-3.820312-8.535156-8.53125-8.535156-4.714843 0-8.535156 3.820312-8.535156 8.535156v25.597656h-42.667968v-25.597656c0-4.714844-3.820313-8.535156-8.53125-8.535156-4.714844 0-8.535157 3.820312-8.535157 8.535156v25.597656h-42.664062v-25.597656c0-4.714844-3.820313-8.535156-8.535157-8.535156-4.710937 0-8.53125 3.820312-8.53125 8.535156v25.597656h-42.667968v-25.597656c0-4.714844-3.820313-8.535156-8.535156-8.535156-4.710938 0-8.53125 3.820312-8.53125 8.535156v25.597656h-42.667969v-25.597656c0-4.714844-3.820313-8.535156-8.53125-8.535156-4.714844 0-8.535157 3.820312-8.535157 8.535156v25.597656h-42.667968v-25.597656c0-4.714844-3.820313-8.535156-8.53125-8.535156-4.714844 0-8.535156 3.820312-8.535156 8.535156v25.597656h-42.664063v-25.597656c0-4.714844-3.820313-8.535156-8.535156-8.535156-4.710938 0-8.53125 3.820312-8.53125 8.535156v25.597656c-23.554688.027344-42.6406252 19.113282-42.667969 42.667969zm307.199219-349.867187v93.867187h-153.597657v-93.867187zm136.535156 0v93.867187h-119.46875v-93.867187zm-290.132813 264.535156v-153.601562h153.597657v153.601562zm153.597657 17.066406v93.867188h-153.597657v-93.867188zm-290.132813-170.667968h119.46875v153.601562h-119.46875zm307.199219 0h119.46875v153.601562h-119.46875zm-187.730469-17.066407h-119.46875v-93.867187h119.46875zm-119.46875 256v-68.265625h119.46875v93.867188h-93.867187c-14.140625 0-25.601563-11.460938-25.601563-25.601563zm401.066406 25.601563h-93.867187v-93.867188h119.46875v68.265625c0 14.140625-11.460937 25.601563-25.601563 25.601563zm-375.464843-443.734375v25.601562c0 4.710938 3.820312 8.53125 8.53125 8.53125 4.714843 0 8.535156-3.820312 8.535156-8.53125v-25.601562h42.664063v25.601562c0 4.710938 3.820312 8.53125 8.535156 8.53125 4.710937 0 8.53125-3.820312 8.53125-8.53125v-25.601562h42.667968v25.601562c0 4.710938 3.820313 8.53125 8.535157 8.53125 4.710937 0 8.53125-3.820312 8.53125-8.53125v-25.601562h42.667969v25.601562c0 4.710938 3.820312 8.53125 8.53125 8.53125 4.714843 0 8.535156-3.820312 8.535156-8.53125v-25.601562h42.667968v25.601562c0 4.710938 3.820313 8.53125 8.53125 8.53125 4.714844 0 8.535157-3.820312 8.535157-8.53125v-25.601562h42.664062v25.601562c0 4.710938 3.820313 8.53125 8.535157 8.53125 4.710937 0 8.53125-3.820312 8.53125-8.53125v-25.601562h42.667968v25.601562c0 4.710938 3.820313 8.53125 8.535156 8.53125 4.710938 0 8.53125-3.820312 8.53125-8.53125v-25.601562c14.140626 0 25.601563 11.460937 25.601563 25.601562v25.597657h-426.667969v-25.597657c0-14.140625 11.460938-25.601562 25.601563-25.601562zm0 0"/><path d="m266.605469 304.09375 24.132812-24.132812c3.332031-3.332032 3.332031-8.734376 0-12.066407l-24.132812-24.140625c-3.332031-3.332031-8.730469-3.332031-12.066407 0l-24.140624 24.140625-24.140626-24.140625c-3.382812-3.199218-8.679687-3.199218-12.066406 0l-24.128906 24.140625c-3.332031 3.332031-3.332031 8.734375 0 12.066407l24.128906 24.132812-24.128906 24.132812c-3.332031 3.332032-3.332031 8.734376 0 12.066407l24.128906 24.140625c3.332032 3.332031 8.734375 3.332031 12.066406 0l24.140626-24.140625 24.140624 24.140625c3.335938 3.332031 8.734376 3.332031 12.066407 0l24.132812-24.140625c3.332031-3.332031 3.332031-8.734375 0-12.066407zm-6.03125 42.238281-24.140625-24.140625c-3.332032-3.328125-8.734375-3.328125-12.066406 0l-24.140626 24.140625-12.066406-12.074219 24.132813-24.132812c3.332031-3.332031 3.332031-8.730469 0-12.0625l-24.132813-24.140625 12.066406-12.078125 24.140626 24.140625c3.332031 3.332031 8.734374 3.332031 12.066406 0l24.140625-24.140625 12.066406 12.078125-24.132813 24.128906c-3.332031 3.332031-3.332031 8.734375 0 12.066407l24.132813 24.132812zm0 0"/></svg>