<svg height="512pt" viewBox="0 0 512 512.00067" width="512pt" xmlns="http://www.w3.org/2000/svg"><path d="m51.199219 512h315.734375c9.425781 0 17.066406-7.640625 17.066406-17.066406v-145.066406c9.425781 0 17.066406-7.640626 17.066406-17.066407v-85.332031c0-9.425781-7.640625-17.070312-17.066406-17.070312v-128c0-9.425782-7.640625-17.066407-17.066406-17.066407v-68.265625c0-9.425781-7.640625-17.066406-17.066406-17.066406h-298.667969c-13.589844-.0351562-26.632813 5.347656-36.242188 14.957031-9.605469 9.609375-14.9921872 22.652344-14.957031 36.242188v409.601562c.0273438 28.265625 22.933594 51.171875 51.199219 51.199219zm332.800781-179.199219h-102.398438c-23.566406 0-42.667968-19.101562-42.667968-42.667969 0-23.5625 19.101562-42.664062 42.667968-42.664062h102.398438zm-102.398438-102.402343c-32.992187 0-59.734374 26.746093-59.734374 59.734374 0 32.992188 26.742187 59.734376 59.734374 59.734376h85.332032v145.066406h-315.734375c-18.851563 0-34.132813-15.28125-34.132813-34.132813v-371.542969c9.359375 8.457032 21.523438 13.140626 34.132813 13.140626h315.734375v128zm-254.609374-203.339844c6.425781-6.402344 15.132812-9.996094 24.207031-9.992188h298.667969v8.535156h-290.132813c-4.714844 0-8.535156 3.820313-8.535156 8.53125 0 4.714844 3.820312 8.535157 8.535156 8.535157h290.132813v17.066406h-290.132813c-4.714844 0-8.535156 3.820313-8.535156 8.53125 0 4.714844 3.820312 8.535156 8.535156 8.535156h290.132813v8.53125h-298.667969c-13.796875-.015625-26.230469-8.328125-31.523438-21.066406-5.292969-12.742187-2.40625-27.417969 7.316407-37.207031zm0 0"/><path d="m281.601562 264.535156c-14.140624 0-25.601562 11.460938-25.601562 25.597656 0 14.140626 11.460938 25.601563 25.601562 25.601563 14.136719 0 25.597657-11.460937 25.597657-25.601563 0-14.136718-11.460938-25.597656-25.597657-25.597656zm0 34.132813c-4.714843 0-8.535156-3.820313-8.535156-8.535157 0-4.710937 3.820313-8.53125 8.535156-8.53125 4.710938 0 8.53125 3.820313 8.53125 8.53125 0 4.714844-3.820312 8.535157-8.53125 8.535157zm0 0"/><path d="m469.332031 0c-23.550781.0273438-42.636719 19.113281-42.664062 42.667969v384c0 1.003906.179687 2 .527343 2.941406l26.546876 72.261719c2.699218 6.195312 8.835937 10.179687 15.589843 10.128906 6.949219-.003906 13.203125-4.21875 15.8125-10.65625l26.328125-71.734375c.347656-.941406.527344-1.9375.527344-2.941406v-384c-.027344-23.554688-19.113281-42.6406252-42.667969-42.667969zm-25.597656 418.132812v-238.933593h17.066406v42.667969c0 4.710937 3.820313 8.53125 8.53125 8.53125 4.714844 0 8.535157-3.820313 8.535157-8.53125v-42.667969h17.066406v238.933593zm25.597656-401.066406c14.140625 0 25.601563 11.460938 25.601563 25.601563v119.464843h-17.066406v-93.867187c0-4.710937-3.820313-8.53125-8.535157-8.53125-4.710937 0-8.53125 3.820313-8.53125 8.53125v93.867187h-17.066406v-119.464843c0-14.140625 11.460937-25.601563 25.597656-25.601563zm.207031 478.394532-22.117187-60.261719h43.894531zm0 0"/><path d="m42.667969 119.46875c-4.714844 0-8.535157 3.820312-8.535157 8.53125v8.535156c0 4.710938 3.820313 8.53125 8.535157 8.53125 4.710937 0 8.53125-3.820312 8.53125-8.53125v-8.535156c0-4.710938-3.820313-8.53125-8.53125-8.53125zm0 0"/><path d="m42.667969 162.132812c-4.714844 0-8.535157 3.820313-8.535157 8.535157v93.867187c0 4.710938 3.820313 8.53125 8.535157 8.53125 4.710937 0 8.53125-3.820312 8.53125-8.53125v-93.867187c0-4.714844-3.820313-8.535157-8.53125-8.535157zm0 0"/></svg>