<svg height="512pt" viewBox="0 0 512 512.00051" width="512pt" xmlns="http://www.w3.org/2000/svg"><path d="m469.332031 0c-23.550781.0273438-42.636719 19.113281-42.664062 42.667969v384c0 1.003906.179687 2 .527343 2.941406l26.546876 72.261719c2.699218 6.195312 8.835937 10.179687 15.589843 10.128906 6.949219-.003906 13.203125-4.21875 15.8125-10.65625l26.328125-71.734375c.347656-.941406.527344-1.9375.527344-2.941406v-384c-.027344-23.554688-19.113281-42.6406252-42.667969-42.667969zm-25.597656 418.132812v-238.933593h17.066406v42.667969c0 4.710937 3.820313 8.53125 8.53125 8.53125 4.714844 0 8.535157-3.820313 8.535157-8.53125v-42.667969h17.066406v238.933593zm25.597656-401.066406c14.140625 0 25.601563 11.460938 25.601563 25.601563v119.464843h-17.066406v-93.867187c0-4.710937-3.820313-8.53125-8.535157-8.53125-4.710937 0-8.53125 3.820313-8.53125 8.53125v93.867187h-17.066406v-119.464843c0-14.140625 11.460937-25.601563 25.597656-25.601563zm.207031 478.394532-22.117187-60.261719h43.894531zm0 0"/><path d="m366.933594 0h-298.667969c-18.851563 0-34.132813 15.28125-34.132813 34.132812v34.132813h-8.53125c-14.140624 0-25.601562 11.460937-25.601562 25.601563 0 14.136718 11.460938 25.597656 25.601562 25.597656h8.53125v110.933594h-8.53125c-14.140624 0-25.601562 11.464843-25.601562 25.601562s11.460938 25.601562 25.601562 25.601562h8.53125v110.933594h-8.53125c-14.140624 0-25.601562 11.460938-25.601562 25.597656 0 14.140626 11.460938 25.601563 25.601562 25.601563h8.53125v34.132813c0 18.851562 15.28125 34.132812 34.132813 34.132812h298.667969c18.851562 0 34.132812-15.28125 34.132812-34.132812v-443.734376c0-18.851562-15.28125-34.132812-34.132812-34.132812zm-349.867188 93.867188c0-4.714844 3.820313-8.535157 8.535156-8.535157h76.796876c4.714843 0 8.535156 3.820313 8.535156 8.535157 0 4.710937-3.820313 8.53125-8.535156 8.53125h-76.796876c-4.714843 0-8.535156-3.820313-8.535156-8.53125zm0 162.132812c0-4.710938 3.820313-8.535156 8.535156-8.535156h76.796876c4.714843 0 8.535156 3.824218 8.535156 8.535156s-3.820313 8.535156-8.535156 8.535156h-76.796876c-4.714843 0-8.535156-3.824218-8.535156-8.535156zm0 162.132812c0-4.710937 3.820313-8.53125 8.535156-8.53125h76.796876c4.714843 0 8.535156 3.820313 8.535156 8.53125 0 4.714844-3.820313 8.535157-8.535156 8.535157h-76.796876c-4.714843 0-8.535156-3.820313-8.535156-8.535157zm366.933594 59.734376c0 9.425781-7.640625 17.066406-17.066406 17.066406h-298.667969c-9.425781 0-17.066406-7.640625-17.066406-17.066406v-34.132813h51.199219c14.140624 0 25.601562-11.460937 25.601562-25.601563 0-14.136718-11.460938-25.597656-25.601562-25.597656h-51.199219v-110.933594h51.199219c14.140624 0 25.601562-11.464843 25.601562-25.601562s-11.460938-25.601562-25.601562-25.601562h-51.199219v-110.933594h51.199219c14.140624 0 25.601562-11.460938 25.601562-25.597656 0-14.140626-11.460938-25.601563-25.601562-25.601563h-51.199219v-34.132813c0-9.425781 7.640625-17.066406 17.066406-17.066406h298.667969c9.425781 0 17.066406 7.640625 17.066406 17.066406zm0 0"/><path d="m249.582031 162.722656c-34.554687-3.890625-68.425781 11.644532-88.027343 40.367188-19.601563 28.71875-21.71875 65.925781-5.503907 96.683594 16.21875 30.761718 48.109375 50.035156 82.882813 50.09375 4.710937 0 8.535156-3.820313 8.535156-8.535157 0-4.710937-3.824219-8.53125-8.535156-8.53125-34.800782-.011719-65.246094-23.417969-74.195313-57.046875-8.949219-33.632812 5.832031-69.078125 36.023438-86.382812 30.191406-17.308594 68.246093-12.148438 92.742187 12.566406 24.496094 24.71875 29.3125 62.820312 11.734375 92.855469-2.609375 4.648437-6.625 8.347656-11.46875 10.574219-3.195312 1.871093-7.105469 2.050781-10.460937.484374-5.1875-4.035156-8.777344-9.78125-10.128906-16.214843l5.742187-51.71875v-.257813l2.558594-23.363281c.5-4.671875-2.875-8.867187-7.542969-9.386719-3.449219-.332031-6.761719 1.425782-8.421875 4.464844-6.554687-8-16.246094-12.777344-26.582031-13.109375-23.894532 0-42.667969 26.242187-42.667969 59.734375s18.773437 59.734375 42.667969 59.734375c8.464844-.136719 16.582031-3.382813 22.800781-9.125 3.023437 6 7.746094 10.976563 13.578125 14.3125 7.890625 3.976563 17.191406 4.03125 25.128906.144531 8.214844-3.652344 15.046875-9.832031 19.507813-17.636718 16.042969-27.390626 17.15625-61.039063 2.960937-89.429688-14.199218-28.390625-41.785156-47.683594-73.328125-51.277344zm-10.648437 135.945313c-13.875 0-25.601563-19.542969-25.601563-42.667969s11.726563-42.667969 25.601563-42.667969c9.496094 0 18.542968 9.644531 22.871094 24.082031l-5.472657 49.253907c-3.382812 6.695312-9.9375 11.214843-17.398437 12zm0 0"/><path d="m85.332031 34.132812h-8.53125c-4.714843 0-8.535156 3.820313-8.535156 8.535157 0 4.710937 3.820313 8.53125 8.535156 8.53125h8.53125c4.714844 0 8.535157-3.820313 8.535157-8.53125 0-4.714844-3.820313-8.535157-8.535157-8.535157zm0 0"/><path d="m256 42.667969c0-4.714844-3.820312-8.535157-8.53125-8.535157h-128c-4.714844 0-8.535156 3.820313-8.535156 8.535157 0 4.710937 3.820312 8.53125 8.535156 8.53125h128c4.710938 0 8.53125-3.820313 8.53125-8.53125zm0 0"/><path d="m358.398438 460.800781h-8.53125c-4.714844 0-8.535157 3.820313-8.535157 8.53125 0 4.714844 3.820313 8.535157 8.535157 8.535157h8.53125c4.714843 0 8.535156-3.820313 8.535156-8.535157 0-4.710937-3.820313-8.53125-8.535156-8.53125zm0 0"/><path d="m315.734375 460.800781h-128c-4.714844 0-8.535156 3.820313-8.535156 8.53125 0 4.714844 3.820312 8.535157 8.535156 8.535157h128c4.710937 0 8.53125-3.820313 8.53125-8.535157 0-4.710937-3.820313-8.53125-8.53125-8.53125zm0 0"/></svg>