<svg height="512pt" viewBox="-51 0 512 512" width="512pt" xmlns="http://www.w3.org/2000/svg"><path d="m366.933594 512c23.550781-.027344 42.636718-19.113281 42.667968-42.667969v-426.664062c-.03125-23.554688-19.117187-42.6406252-42.667968-42.667969h-324.265625c-23.554688.0273438-42.6406252 19.113281-42.667969 42.667969v426.664062c.0273438 23.554688 19.113281 42.640625 42.667969 42.667969zm-349.867188-42.667969v-426.664062c0-14.140625 11.460938-25.601563 25.601563-25.601563h324.265625c14.136718 0 25.601562 11.460938 25.601562 25.601563v426.664062c0 14.140625-11.464844 25.601563-25.601562 25.601563h-324.265625c-14.140625 0-25.601563-11.460938-25.601563-25.601563zm0 0"/><path d="m358.398438 469.332031c9.425781 0 17.066406-7.640625 17.066406-17.066406v-392.53125c0-9.425781-7.640625-17.066406-17.066406-17.066406h-307.199219c-9.425781 0-17.066407 7.640625-17.066407 17.066406v392.53125c0 9.425781 7.640626 17.066406 17.066407 17.066406zm-307.199219-409.597656h307.199219v392.53125h-307.199219zm0 0"/><path d="m110.933594 110.933594c-23.5625 0-42.667969 19.101562-42.667969 42.667968 0 23.5625 19.105469 42.664063 42.667969 42.664063s42.667968-19.101563 42.667968-42.664063c-.03125-23.554687-19.117187-42.640624-42.667968-42.667968zm0 68.265625c-14.140625 0-25.601563-11.460938-25.601563-25.597657 0-14.140624 11.460938-25.601562 25.601563-25.601562 14.136718 0 25.601562 11.460938 25.601562 25.601562 0 14.136719-11.464844 25.597657-25.601562 25.597657zm0 0"/><path d="m104.875 147.542969c-1.5625 1.632812-2.445312 3.796875-2.476562 6.058593-.027344 1.117188.207031 2.230469.683593 3.242188.414063 1.042969 1.019531 2 1.792969 2.816406 3.363281 3.296875 8.753906 3.296875 12.117188 0 .769531-.816406 1.378906-1.773437 1.792968-2.816406.4375-1.027344.667969-2.128906.679688-3.242188-.015625-2.265624-.902344-4.433593-2.472656-6.058593-3.421876-3.160157-8.695313-3.160157-12.117188 0zm0 0"/><path d="m332.800781 110.933594h-153.601562c-4.710938 0-8.53125 3.820312-8.53125 8.53125 0 4.714844 3.820312 8.535156 8.53125 8.535156h153.601562c4.710938 0 8.53125-3.820312 8.53125-8.535156 0-4.710938-3.820312-8.53125-8.53125-8.53125zm0 0"/><path d="m332.800781 196.265625h-153.601562c-4.710938 0-8.53125 3.820313-8.53125 8.535156 0 4.710938 3.820312 8.53125 8.53125 8.53125h153.601562c4.710938 0 8.53125-3.820312 8.53125-8.53125 0-4.714843-3.820312-8.535156-8.53125-8.535156zm0 0"/><path d="m110.933594 213.332031c-23.5625 0-42.667969 19.105469-42.667969 42.667969s19.105469 42.667969 42.667969 42.667969 42.667968-19.105469 42.667968-42.667969c-.03125-23.550781-19.117187-42.636719-42.667968-42.667969zm0 68.269531c-14.140625 0-25.601563-11.464843-25.601563-25.601562s11.460938-25.601562 25.601563-25.601562c14.136718 0 25.601562 11.464843 25.601562 25.601562s-11.464844 25.601562-25.601562 25.601562zm0 0"/><path d="m104.875 249.941406c-1.5625 1.632813-2.445312 3.796875-2.476562 6.058594-.027344 1.121094.207031 2.230469.683593 3.242188.414063 1.042968 1.019531 2 1.792969 2.816406 3.363281 3.300781 8.753906 3.300781 12.117188 0 .769531-.816406 1.378906-1.773438 1.792968-2.816406.4375-1.027344.667969-2.128907.679688-3.242188-.015625-2.261719-.902344-4.429688-2.472656-6.058594-3.421876-3.15625-8.695313-3.15625-12.117188 0zm0 0"/><path d="m332.800781 281.601562h-153.601562c-4.710938 0-8.53125 3.820313-8.53125 8.53125 0 4.714844 3.820312 8.535157 8.53125 8.535157h153.601562c4.710938 0 8.53125-3.820313 8.53125-8.535157 0-4.710937-3.820312-8.53125-8.53125-8.53125zm0 0"/><path d="m110.933594 315.734375c-23.5625 0-42.667969 19.101563-42.667969 42.664063 0 23.566406 19.105469 42.667968 42.667969 42.667968s42.667968-19.101562 42.667968-42.667968c-.03125-23.550782-19.117187-42.636719-42.667968-42.664063zm0 68.265625c-14.140625 0-25.601563-11.460938-25.601563-25.601562 0-14.136719 11.460938-25.597657 25.601563-25.597657 14.136718 0 25.601562 11.460938 25.601562 25.597657 0 14.140624-11.464844 25.601562-25.601562 25.601562zm0 0"/><path d="m104.875 352.339844c-1.5625 1.636718-2.445312 3.800781-2.476562 6.058594-.027344 1.121093.207031 2.230468.683593 3.246093.414063 1.042969 1.019531 2 1.792969 2.8125 3.363281 3.300781 8.753906 3.300781 12.117188 0 .769531-.8125 1.378906-1.769531 1.792968-2.8125.4375-1.027343.667969-2.128906.679688-3.246093-.015625-2.261719-.902344-4.429688-2.472656-6.058594-3.421876-3.15625-8.695313-3.15625-12.117188 0zm0 0"/><path d="m332.800781 384h-153.601562c-4.710938 0-8.53125 3.820312-8.53125 8.535156 0 4.710938 3.820312 8.53125 8.53125 8.53125h153.601562c4.710938 0 8.53125-3.820312 8.53125-8.53125 0-4.714844-3.820312-8.535156-8.53125-8.535156zm0 0"/></svg>