<svg height="512pt" viewBox="0 0 512.01514 512" width="512pt" xmlns="http://www.w3.org/2000/svg"><path d="m405.332031.0078125c-35.171875-.0273437-68.089843 17.3007815-87.984375 46.3085935-19.890625 29.003906-24.191406 65.957032-11.496094 98.757813h-246.117187c-32.976563.039062-59.6953125 26.757812-59.734375 59.734375v247.464844c.0390625 32.976562 26.757812 59.695312 59.734375 59.734374h324.265625c32.972656-.039062 59.695312-26.757812 59.734375-59.734374v-246.167969c47.933594-18.476563 75.875-68.507813 66.464844-119.011719-9.40625-50.5-53.492188-87.1132812-104.867188-87.0859375zm-69.066406 187.8945315c6.21875 5.300781 13.015625 9.882812 20.265625 13.652344l-63.148438 69.164062zm47.734375 307.039062h-324.265625c-23.554687-.027344-42.640625-19.113281-42.667969-42.667968v-247.464844c.027344-23.554688 19.113282-42.640625 42.667969-42.667969h254.726563c2.761718 4.515625 5.863281 8.816406 9.277343 12.859375l-75.316406 145.347656c-1.960937 3.800782-.804687 8.464844 2.703125 10.910156 3.507812 2.449219 8.285156 1.921876 11.171875-1.230468l111.078125-121.644532c10.339844 3.261719 21.117188 4.933594 31.957031 4.957032 7.167969-.019532 14.316407-.769532 21.335938-2.234375v241.167969c-.03125 23.554687-19.117188 42.640624-42.667969 42.667968zm48.332031-302.867187c-32.796875 10.5-68.710937 1.148437-92.21875-24.019531-15.683593-16.585938-24.410156-38.554688-24.378906-61.378907-.019531-45.957031 34.734375-84.476562 80.449219-89.167969 45.714844-4.691406 87.570312 25.964844 96.886718 70.964844 9.320313 45-16.917968 89.753906-60.738281 103.601563zm0 0"/><path d="m405.332031 34.140625c-40.039062.046875-72.484375 32.492187-72.53125 72.535156 0 4.710938 3.820313 8.53125 8.53125 8.53125 4.714844 0 8.535157-3.820312 8.535157-8.53125.035156-30.621093 24.847656-55.429687 55.464843-55.46875 4.714844 0 8.535157-3.820312 8.535157-8.53125 0-4.714843-3.820313-8.535156-8.535157-8.535156zm0 0"/><path d="m356.691406 133.332031c-2.242187-4.148437-7.421875-5.691406-11.570312-3.445312-4.144532 2.242187-5.691406 7.421875-3.445313 11.570312 2.980469 5.441407 6.652344 10.472657 10.921875 14.976563 2.09375 2.214844 5.210938 3.148437 8.175782 2.445312 2.96875-.703125 5.335937-2.9375 6.210937-5.859375.871094-2.917969.121094-6.085937-1.972656-8.304687-3.253907-3.417969-6.050781-7.242188-8.320313-11.382813zm0 0"/><path d="m59.734375 213.339844h17.066406c4.710938 0 8.53125-3.820313 8.53125-8.53125 0-4.714844-3.820312-8.535156-8.53125-8.535156h-17.066406c-4.714844 0-8.535156 3.820312-8.535156 8.535156 0 4.710937 3.820312 8.53125 8.535156 8.53125zm0 0"/><path d="m110.933594 213.339844h136.53125c4.714844 0 8.535156-3.820313 8.535156-8.53125 0-4.714844-3.820312-8.535156-8.535156-8.535156h-136.53125c-4.714844 0-8.535156 3.820312-8.535156 8.535156 0 4.710937 3.820312 8.53125 8.535156 8.53125zm0 0"/><path d="m76.800781 409.609375h-17.066406c-4.714844 0-8.535156 3.820313-8.535156 8.53125 0 4.714844 3.820312 8.535156 8.535156 8.535156h17.066406c4.710938 0 8.53125-3.820312 8.53125-8.535156 0-4.710937-3.820312-8.53125-8.53125-8.53125zm0 0"/><path d="m247.464844 409.609375h-136.53125c-4.714844 0-8.535156 3.820313-8.535156 8.53125 0 4.714844 3.820312 8.535156 8.535156 8.535156h136.53125c4.714844 0 8.535156-3.820312 8.535156-8.535156 0-4.710937-3.820312-8.53125-8.535156-8.53125zm0 0"/><path d="m59.734375 298.675781h17.066406c4.710938 0 8.53125-3.820312 8.53125-8.535156 0-4.710937-3.820312-8.53125-8.53125-8.53125h-17.066406c-4.714844 0-8.535156 3.820313-8.535156 8.53125 0 4.714844 3.820312 8.535156 8.535156 8.535156zm0 0"/><path d="m213.332031 290.140625c0-4.710937-3.820312-8.53125-8.53125-8.53125h-93.867187c-4.714844 0-8.535156 3.820313-8.535156 8.53125 0 4.714844 3.820312 8.535156 8.535156 8.535156h93.867187c4.710938 0 8.53125-3.820312 8.53125-8.535156zm0 0"/><path d="m59.734375 256.007812h93.867187c4.710938 0 8.53125-3.820312 8.53125-8.535156 0-4.710937-3.820312-8.53125-8.53125-8.53125h-93.867187c-4.714844 0-8.535156 3.820313-8.535156 8.53125 0 4.714844 3.820312 8.535156 8.535156 8.535156zm0 0"/><path d="m247.464844 238.941406h-59.730469c-4.714844 0-8.535156 3.820313-8.535156 8.53125 0 4.714844 3.820312 8.535156 8.535156 8.535156h59.730469c4.714844 0 8.535156-3.820312 8.535156-8.535156 0-4.710937-3.820312-8.53125-8.535156-8.53125zm0 0"/><path d="m247.464844 366.941406h-93.863282c-4.714843 0-8.535156 3.820313-8.535156 8.53125 0 4.714844 3.820313 8.535156 8.535156 8.535156h93.863282c4.714844 0 8.535156-3.820312 8.535156-8.535156 0-4.710937-3.820312-8.53125-8.535156-8.53125zm0 0"/><path d="m59.734375 384.007812h59.730469c4.714844 0 8.535156-3.820312 8.535156-8.535156 0-4.710937-3.820312-8.53125-8.535156-8.53125h-59.730469c-4.714844 0-8.535156 3.820313-8.535156 8.53125 0 4.714844 3.820312 8.535156 8.535156 8.535156zm0 0"/><path d="m59.734375 341.339844h93.867187c4.710938 0 8.53125-3.820313 8.53125-8.53125 0-4.714844-3.820312-8.535156-8.53125-8.535156h-93.867187c-4.714844 0-8.535156 3.820312-8.535156 8.535156 0 4.710937 3.820312 8.53125 8.535156 8.53125zm0 0"/><path d="m187.734375 341.339844h25.597656c4.714844 0 8.535157-3.820313 8.535157-8.53125 0-4.714844-3.820313-8.535156-8.535157-8.535156h-25.597656c-4.714844 0-8.535156 3.820312-8.535156 8.535156 0 4.710937 3.820312 8.53125 8.535156 8.53125zm0 0"/></svg>