<svg height="512pt" viewBox="-26 0 512 512" width="512pt" xmlns="http://www.w3.org/2000/svg"><path d="m51.199219 0c-4.710938 0-8.53125 3.820312-8.53125 8.535156v25.597656c-23.554688.027344-42.6406252 19.113282-42.667969 42.667969v392.53125c.0273438 23.554688 19.113281 42.640625 42.667969 42.667969h375.464843c23.554688-.027344 42.640626-19.113281 42.667969-42.667969v-392.53125c-.027343-23.554687-19.113281-42.640625-42.667969-42.667969v-25.597656c0-4.714844-3.820312-8.535156-8.53125-8.535156-4.714843 0-8.535156 3.820312-8.535156 8.535156v25.597656h-42.667968v-25.597656c0-4.714844-3.820313-8.535156-8.53125-8.535156-4.714844 0-8.535157 3.820312-8.535157 8.535156v25.597656h-42.664062v-25.597656c0-4.714844-3.820313-8.535156-8.535157-8.535156-4.710937 0-8.53125 3.820312-8.53125 8.535156v25.597656h-42.667968v-25.597656c0-4.714844-3.820313-8.535156-8.535156-8.535156-4.710938 0-8.53125 3.820312-8.53125 8.535156v25.597656h-42.667969v-25.597656c0-4.714844-3.820313-8.535156-8.53125-8.535156-4.714844 0-8.535157 3.820312-8.535157 8.535156v25.597656h-42.667968v-25.597656c0-4.714844-3.820313-8.535156-8.53125-8.535156-4.714844 0-8.535156 3.820312-8.535156 8.535156v25.597656h-42.664063v-25.597656c0-4.714844-3.820313-8.535156-8.535156-8.535156zm170.667969 119.464844v72.3125c-1.390626 1.46875-2.789063 2.925781-4.089844 4.488281h-89.777344v-76.800781zm110.933593 0v53.027344c-10.632812-5.472657-22.222656-8.839844-34.132812-9.921876v-17.503906c0-4.710937-3.820313-8.53125-8.535157-8.53125-4.710937 0-8.53125 3.820313-8.53125 8.53125v17.503906c-15.226562 1.375-29.878906 6.476563-42.667968 14.855469v-57.960937zm110.933594 0v76.800781h-81.246094c-3.804687-4.589844-8.03125-8.816406-12.621093-12.621094v-64.179687zm-81.800781 375.46875 81.800781-81.800782v27.066407l-54.734375 54.734375zm-110.933594 0 81.800781-81.800782v27.066407l-54.734375 54.734375zm39.132812-315.734375c42.414063 0 76.800782 34.386719 76.800782 76.800781s-34.386719 76.800781-76.800782 76.800781c-42.414062 0-76.800781-34.386719-76.800781-76.800781.046875-42.394531 34.40625-76.753906 76.800781-76.800781zm-51.199218 155.375c12.789062 8.378906 27.441406 13.480469 42.667968 14.855469v17.503906c0 4.710937 3.820313 8.53125 8.53125 8.53125 4.714844 0 8.535157-3.820313 8.535157-8.53125v-17.503906c11.910156-1.082032 23.5-4.449219 34.132812-9.921876v53.027344h-93.867187zm110.933594 75.027343h22.066406l-22.066406 22.066407zm-88.867188 0-22.066406 22.066407v-22.066407zm-22.066406 46.199219 46.199218-46.199219h27.066407l-73.265625 73.265626zm110.933594 0 46.199218-46.199219h27.066406l-73.265624 73.265626zm0-63.265625v-64.179687c7.304687-6.066407 13.65625-13.199219 18.839843-21.15625h75.027344v85.335937zm27.613281-102.402344c3.234375-8.199218 5.28125-16.820312 6.085937-25.597656h17.5c4.714844 0 8.535156-3.824218 8.535156-8.535156s-3.820312-8.535156-8.535156-8.535156h-17.5c-1.085937-11.90625-4.453125-23.496094-9.925781-34.132813h70.09375v76.800781zm-180.777344-42.667968h-17.503906c-4.710938 0-8.53125 3.824218-8.53125 8.535156s3.820312 8.535156 8.53125 8.535156h17.503906c.800781 8.777344 2.851563 17.398438 6.082031 25.597656h-74.785156v-76.800781h78.625c-5.46875 10.636719-8.839844 22.226563-9.921875 34.132813zm-85.769531 42.667968h-93.867188v-76.800781h93.867188zm-93.867188 17.066407h93.867188v85.335937h-93.867188zm110.933594 0h83.558594c3.046875 4.636719 6.496094 8.992187 10.308594 13.023437v72.3125h-93.867188zm93.867188 102.402343v85.332032h-93.867188v-85.332032zm110.933593 54.730469v30.601563h-30.601562zm-221.867187-268.066406h-93.867188v-76.800781h93.867188zm-93.867188 273.066406v-59.730469h93.867188v85.332032h-68.265625c-14.140625 0-25.601563-11.460938-25.601563-25.601563zm401.066406 25.601563h-5l30.601563-30.601563v5c0 14.140625-11.460937 25.601563-25.601563 25.601563zm-315.734374-443.734375v25.601562c0 4.710938 3.820312 8.53125 8.535156 8.53125 4.710937 0 8.53125-3.820312 8.53125-8.53125v-25.601562h42.667968v25.601562c0 4.710938 3.820313 8.53125 8.535157 8.53125 4.710937 0 8.53125-3.820312 8.53125-8.53125v-25.601562h42.667969v25.601562c0 4.710938 3.820312 8.53125 8.53125 8.53125 4.714843 0 8.535156-3.820312 8.535156-8.53125v-25.601562h42.667968v25.601562c0 4.710938 3.820313 8.53125 8.53125 8.53125 4.714844 0 8.535157-3.820312 8.535157-8.53125v-25.601562h42.664062v25.601562c0 4.710938 3.820313 8.53125 8.535157 8.53125 4.710937 0 8.53125-3.820312 8.53125-8.53125v-25.601562h42.667968v25.601562c0 4.710938 3.820313 8.53125 8.535156 8.53125 4.710938 0 8.53125-3.820312 8.53125-8.53125v-25.601562c14.140626 0 25.601563 11.460937 25.601563 25.601562v25.597657h-426.667969v-25.597657c0-14.140625 11.460938-25.601562 25.601563-25.601562v25.601562c0 4.710938 3.820312 8.53125 8.53125 8.53125 4.714843 0 8.535156-3.820312 8.535156-8.53125v-25.601562zm0 0"/><path d="m230.398438 256c0 4.710938 3.820312 8.535156 8.535156 8.535156h.769531c3.664063 21.4375 20.457031 38.234375 41.898437 41.898438v.765625c0 4.714843 3.820313 8.535156 8.53125 8.535156 4.714844 0 8.535157-3.820313 8.535157-8.535156v-.765625c21.4375-3.664063 38.234375-20.460938 41.898437-41.898438h.765625c4.714844 0 8.535157-3.824218 8.535157-8.535156s-3.820313-8.535156-8.535157-8.535156h-.765625c-3.664062-21.4375-20.460937-38.234375-41.898437-41.898438v-.765625c0-4.714843-3.820313-8.535156-8.535157-8.535156-4.710937 0-8.53125 3.820313-8.53125 8.535156v.765625c-21.441406 3.664063-38.234374 20.460938-41.898437 41.898438h-.769531c-4.714844 0-8.535156 3.824218-8.535156 8.535156zm51.203124-32.921875v7.320313c0 4.714843 3.820313 8.535156 8.53125 8.535156 4.714844 0 8.535157-3.820313 8.535157-8.535156v-7.320313c11.941406 3.121094 21.265625 12.449219 24.386719 24.386719h-7.320313c-4.714844 0-8.535156 3.824218-8.535156 8.535156s3.820312 8.535156 8.535156 8.535156h7.320313c-3.121094 11.9375-12.445313 21.265625-24.386719 24.386719v-7.320313c0-4.714843-3.820313-8.535156-8.535157-8.535156-4.710937 0-8.53125 3.820313-8.53125 8.535156v7.320313c-11.941406-3.121094-21.265624-12.449219-24.390624-24.386719h7.324218c4.710938 0 8.53125-3.824218 8.53125-8.535156s-3.820312-8.535156-8.53125-8.535156h-7.324218c3.125-11.9375 12.449218-21.265625 24.390624-24.386719zm0 0"/></svg>