<svg height="512pt" viewBox="-15 0 512 512.00001" width="512pt" xmlns="http://www.w3.org/2000/svg"><path d="m426.667969 34.132812c0-18.851562-15.285157-34.132812-34.132813-34.132812h-324.269531c-1.117187 0-2.226563.222656-3.257813.65625-1.042968.429688-1.988281 1.058594-2.78125 1.851562l-59.734374 59.734376c-.796876.792968-1.425782 1.742187-1.851563 2.78125-.421875 1.03125-.63671875 2.132812-.640625 3.242187v409.601563c0 18.851562 15.28125 34.132812 34.132812 34.132812h344.746094c11.414063.011719 22.078125-5.695312 28.398438-15.199219l23.953125-36h26.019531c9.707031.023438 18.589844-5.457031 22.921875-14.144531 4.328125-8.6875 3.355469-19.082031-2.511719-26.816406-56.589844-74.195313-51.0625-255.589844-50.992187-257.707032zm-81.800781 59.734376 64.09375-64.09375c.402343 1.417968.617187 2.882812.640624 4.359374v22.066407l-37.667968 37.667969zm64.734374-13.535157v13.535157h-13.535156zm-12.707031-62.625-76.160156 76.160157h-27.066406l76.796875-76.800782h22.070312c1.472656.019532 2.941406.234375 4.359375.640625zm-154.429687 76.160157 76.800781-76.800782h27.066406l-76.796875 76.800782zm-51.199219 0 76.800781-76.800782h27.066406l-76.800781 76.800782zm-51.199219 0 76.800782-76.800782h27.066406l-76.800782 76.800782zm-51.199218 0 76.800781-76.800782h27.066406l-76.800781 76.800782zm-70.769532 389.648437c-.660156-1.8125-1.007812-3.722656-1.03125-5.648437v-312.199219l42.667969-42.667969v38.84375c-.085937 2.492188-.554687 18.679688.136719 42.300781-.058594.214844-.105469.433594-.136719.65625v230.398438c.003906 3.296875.65625 6.5625 1.910156 9.609375zm-1.03125-411.714844 42.667969-42.667969v69.734376l-42.667969 42.667968zm124.46875-54.734375-64.734375 64.734375v-27.066406l37.664063-37.667969zm-64.734375 13.535156v-13.535156h13.53125zm0 404.597657v-92.695313c9.921875 40.472656 25.4375 78.1875 49.65625 101.230469h-41.125c-4.710937 0-8.53125-3.820313-8.53125-8.535156zm316.234375 52.132812c-3.152344 4.734375-8.464844 7.585938-14.15625 7.601563h-344.746094c-.960937-.015625-1.921874-.113282-2.867187-.289063l41.769531-37.128906c3.753906 2.125 7.984375 3.257813 12.296875 3.285156h325.394531zm71.050782-57.132812c1.976562 2.503906 2.308593 5.933593.851562 8.773437-1.410156 2.949219-4.410156 4.808594-7.679688 4.761719h-301.746093c-85.898438-42.035156-78.796875-278.914063-78.710938-281.601563v-51.199218h332.800781v50.910156c-.257812 7.6875-5.804687 189.292969 54.484376 268.355469zm0 0"/><path d="m290.132812 145.332031c.070313-2.308593-.796874-4.546875-2.402343-6.207031-1.609375-1.65625-3.820313-2.59375-6.128907-2.589844h-51.03125c-2.257812-.003906-4.421874.890625-6.023437 2.480469l-42.839844 42.667969c-1.605469 1.601562-2.507812 3.78125-2.507812 6.050781v51.199219c0 2.957031 1.53125 5.699218 4.042969 7.253906 2.511718 1.558594 5.652343 1.703125 8.296874.382812l32.546876-16.214843c3.257812 50.144531 11.273437 115.484375 30.617187 165.300781 1.285156 3.269531 4.441406 5.414062 7.953125 5.410156h51.027344c2.816406 0 5.453125-1.390625 7.042968-3.714844 1.589844-2.324218 1.929688-5.28125.910157-7.90625-35.769531-92.152343-31.554688-242.605468-31.503907-244.113281zm-21.5625 238.667969c-18.707031-51.523438-25.667968-119.117188-28.160156-167.527344-.148437-2.871094-1.738281-5.476562-4.222656-6.925781-2.484375-1.453125-5.535156-1.550781-8.109375-.265625l-31.8125 15.863281v-33.871093l37.828125-37.671876h38.800781c-.40625 32.691407.359375 147.503907 28.605469 230.398438zm0 0"/></svg>