<svg height="512pt" viewBox="0 0 512 512.00521" width="512pt" xmlns="http://www.w3.org/2000/svg"><path d="m511.746094 468.015625c-.039063-.460937-.113282-.921875-.222656-1.375l-81.421876-244.359375c-1.863281-5.445312-5.488281-10.109375-10.300781-13.261719-4.152343-2.742187-9.019531-4.207031-13.996093-4.214843h-113.3125l4.265624-17.066407h15.417969c7.347657 0 13.871094-4.699219 16.191407-11.667969 2.324218-6.96875-.074219-14.644531-5.949219-19.050781-23.945313-18.152343-34.664063-37.90625-31.828125-58.710937 1.070312-7.15625 3.347656-14.082032 6.730468-20.480469 8.03125-13.199219 19.316407-24.113281 32.777344-31.699219 9.5-6.304687 13.578125-18.210937 9.933594-29.015625-3.609375-10.421875-13.523438-17.332031-24.550781-17.10937475h-119.023438c-11.03125-.20312525-20.9375 6.72265575-24.535156 17.15234375-3.636719 10.8125.449219 22.71875 9.960937 29.015625 13.449219 7.589844 24.730469 18.507813 32.757813 31.699219 3.386719 6.382812 5.660156 13.292968 6.734375 20.4375 2.824219 20.804687-7.886719 40.558594-31.828125 58.710937-5.878906 4.40625-8.277344 12.082031-5.953125 19.050781s8.84375 11.667969 16.191406 11.667969h15.359375l4.265625 17.066407h-113.296875c-4.957031.007812-9.800781 1.464843-13.941406 4.191406-4.851563 3.160156-8.5 7.855468-10.367187 13.335937l-81.410157 244.308594v.28125c-.132812.511719-.21875 1.035156-.253906 1.5625 0 .289063-.13671875.5625-.13671875.855469v17.066406c0 14.136719 11.46093775 25.597656 25.59765575 25.597656h460.757813c14.140625 0 25.601563-11.460937 25.601563-25.597656v-17.066406c0-.121094-.050782-.230469-.0625-.351563-.027344-.328125-.078126-.652343-.152344-.972656zm-285.125-117.109375c16.457031 15.582031 42.222656 15.582031 58.675781 0l32.367187-30.660156 162.824219 140.558594h-449.058593l162.824218-140.570313zm258.886718 91.707031-155.394531-134.171875 84.140625-79.742187zm-247.230468-346.574219c-1.328125-9.0625-4.183594-17.832031-8.445313-25.941406-9.269531-15.859375-22.542969-29-38.496093-38.109375-3.101563-2.089843-4.410157-6.007812-3.183594-9.539062 1.34375-3.378907 4.675781-5.535157 8.304687-5.378907h119.023438c3.628906-.15625 6.960937 2 8.300781 5.378907 1.226562 3.527343-.070312 7.4375-3.164062 9.53125-15.960938 9.105469-29.242188 22.25-38.511719 38.117187-4.265625 8.105469-7.125 16.878906-8.457031 25.941406-3.71875 27.359376 9.207031 52.445313 38.632812 74.632813h-112.429688c29.226563-22.1875 42.15625-47.273437 38.425782-74.632813zm40.882812 91.699219-23.199218 92.816407-23.203126-92.816407zm-31.476562 130.066407c.949218 3.796874 4.363281 6.457031 8.277344 6.457031 3.914062 0 7.324218-2.660157 8.277343-6.457031l23.984375-95.933594h108.445313l-123.105469 116.632812c-9.871094 9.351563-25.332031 9.351563-35.207031 0l-123.101563-116.632812h108.441406zm-150.015625-89.105469 84.136719 79.726562-155.390626 134.1875zm388.691406 266.238281h-460.800781c-4.710938 0-8.53125-3.820312-8.53125-8.53125v-8.535156h477.867187v8.535156c0 4.710938-3.820312 8.53125-8.535156 8.53125zm0 0"/><path d="m110.894531 443.738281h8.53125c4.714844 0 8.535157-3.820312 8.535157-8.53125 0-4.714843-3.820313-8.535156-8.535157-8.535156h-8.53125c-4.714843 0-8.535156 3.820313-8.535156 8.535156 0 4.710938 3.820313 8.53125 8.535156 8.53125zm0 0"/><path d="m153.558594 443.738281h170.667968c4.710938 0 8.535157-3.820312 8.535157-8.53125 0-4.714843-3.824219-8.535156-8.535157-8.535156h-170.667968c-4.710938 0-8.53125 3.820313-8.53125 8.535156 0 4.710938 3.820312 8.53125 8.53125 8.53125zm0 0"/><path d="m281.558594 42.671875c0-4.710937-3.820313-8.535156-8.53125-8.535156h-34.132813c-4.714843 0-8.535156 3.824219-8.535156 8.535156s3.820313 8.535156 8.535156 8.535156h34.132813c4.710937 0 8.53125-3.824219 8.53125-8.535156zm0 0"/></svg>