<svg height="512pt" viewBox="0 0 512.16387 512" width="512pt" xmlns="http://www.w3.org/2000/svg"><path d="m76.964844 34.21875c-23.566406 0-42.667969 19.101562-42.667969 42.667969 0 23.5625 19.101563 42.664062 42.667969 42.664062 23.5625 0 42.664062-19.101562 42.664062-42.664062-.027344-23.554688-19.113281-42.640625-42.664062-42.667969zm0 68.265625c-14.140625 0-25.601563-11.460937-25.601563-25.597656 0-14.140625 11.460938-25.601563 25.601563-25.601563 14.136718 0 25.597656 11.460938 25.597656 25.601563 0 6.789062-2.695312 13.300781-7.496094 18.101562-4.800781 4.800781-11.3125 7.496094-18.101562 7.496094zm0 0"/><path d="m486.5625 25.683594h-352.519531c-21.226563-23.730469-54.902344-31.90625-84.648438-20.542969-29.746093 11.363281-49.394531 39.902344-49.394531 71.746094 0 31.839843 19.648438 60.378906 49.394531 71.742187 29.746094 11.363282 63.421875 3.191406 84.648438-20.542968h352.519531c14.140625 0 25.601562-11.460938 25.601562-25.601563v-51.199219c0-14.136718-11.460937-25.601562-25.601562-25.601562zm-93.867188 85.335937h-56.199218l56.199218-56.203125zm-80.332031 0h-27.066406l68.265625-68.269531h27.070312zm-78.265625 0 68.265625-68.269531h27.066407l-68.265626 68.269531zm-51.199218 0 68.265624-68.269531h27.066407l-68.265625 68.269531zm-7.066407-68.269531-22.972656 22.972656c-1.164063-7.988281-3.597656-15.746094-7.203125-22.972656zm-98.867187 93.867188c-32.992188 0-59.734375-26.742188-59.734375-59.730469 0-32.992188 26.742187-59.734375 59.734375-59.734375 32.988281 0 59.730468 26.742187 59.730468 59.734375-.035156 32.972656-26.757812 59.695312-59.730468 59.730469zm75.5625-46.429688 47.4375-47.4375h27.066406l-68.265625 68.269531h-13.109375c3.289062-6.574219 5.605469-13.589843 6.871094-20.832031zm342.570312 12.296875c0 4.714844-3.820312 8.535156-8.535156 8.535156h-76.796875v-68.269531h76.796875c4.714844 0 8.535156 3.824219 8.535156 8.535156zm0 0"/><path d="m76.964844 213.417969c-23.566406 0-42.667969 19.101562-42.667969 42.667969 0 23.5625 19.101563 42.664062 42.667969 42.664062 23.5625 0 42.664062-19.101562 42.664062-42.664062-.027344-23.554688-19.113281-42.640626-42.664062-42.667969zm0 68.265625c-14.140625 0-25.601563-11.460938-25.601563-25.597656 0-14.140626 11.460938-25.601563 25.601563-25.601563 14.136718 0 25.597656 11.460937 25.597656 25.601563 0 14.136718-11.460938 25.597656-25.597656 25.597656zm0 0"/><path d="m486.5625 204.886719h-352.519531c-21.226563-23.734375-54.902344-31.90625-84.648438-20.546875-29.746093 11.363281-49.394531 39.902344-49.394531 71.746094 0 31.839843 19.648438 60.382812 49.394531 71.742187 29.746094 11.363281 63.421875 3.191406 84.648438-20.542969h352.519531c14.140625 0 25.601562-11.460937 25.601562-25.601562v-51.199219c0-14.136719-11.460937-25.597656-25.601562-25.597656zm-42.664062 85.332031h-56.203126l56.203126-56.199219zm-80.335938 0h-27.066406l68.265625-68.265625h27.070312zm-78.265625 0 68.265625-68.265625h27.070312l-68.269531 68.265625zm-51.199219 0 68.265625-68.265625h27.066407l-68.265626 68.265625zm-51.199218 0 68.265624-68.265625h27.066407l-68.265625 68.265625zm-7.066407-68.265625-22.972656 22.96875c-1.164063-7.988281-3.597656-15.742187-7.203125-22.96875zm-98.867187 93.867187c-32.992188 0-59.734375-26.746093-59.734375-59.734374 0-32.992188 26.742187-59.734376 59.734375-59.734376 32.988281 0 59.730468 26.742188 59.730468 59.734376-.035156 32.972656-26.757812 59.695312-59.730468 59.734374zm75.5625-46.433593 47.4375-47.433594h27.066406l-68.265625 68.265625h-13.109375c3.289062-6.574219 5.605469-13.589844 6.871094-20.832031zm342.570312 12.296875c0 4.714844-3.820312 8.535156-8.535156 8.535156h-25.597656v-68.265625h25.597656c4.714844 0 8.535156 3.820313 8.535156 8.53125zm0 0"/><path d="m76.964844 392.617188c-23.566406 0-42.667969 19.105468-42.667969 42.667968s19.101563 42.667969 42.667969 42.667969c23.5625 0 42.664062-19.105469 42.664062-42.667969-.027344-23.550781-19.113281-42.636718-42.664062-42.667968zm0 68.269531c-14.140625 0-25.601563-11.464844-25.601563-25.601563 0-14.136718 11.460938-25.601562 25.601563-25.601562 14.136718 0 25.597656 11.464844 25.597656 25.601562 0 14.136719-11.460938 25.601563-25.597656 25.601563zm0 0"/><path d="m486.5625 384.085938h-352.519531c-21.226563-23.734376-54.902344-31.90625-84.648438-20.546876-29.746093 11.363282-49.394531 39.902344-49.394531 71.746094s19.648438 60.382813 49.394531 71.746094c29.746094 11.359375 63.421875 3.1875 84.648438-20.546875h352.519531c14.140625 0 25.601562-11.460937 25.601562-25.597656v-51.203125c0-14.136719-11.460937-25.597656-25.601562-25.597656zm-196.265625 85.332031h-56.199219l56.199219-56.199219zm-80.332031 0h-27.066406l68.265624-68.265625h27.066407zm-34.132813-68.265625-22.972656 22.972656c-1.164063-7.992188-3.597656-15.746094-7.203125-22.972656zm-98.867187 93.867187c-24.160156 0-45.941406-14.554687-55.1875-36.875-9.246094-22.320312-4.136719-48.011719 12.949218-65.097656 17.082032-17.082031 42.777344-22.195313 65.097657-12.949219 22.320312 9.246094 36.871093 31.027344 36.871093 55.1875-.035156 32.972656-26.757812 59.695313-59.730468 59.734375zm75.5625-46.429687 47.4375-47.4375h27.066406l-68.265625 68.265625h-13.109375c3.289062-6.570313 5.605469-13.589844 6.871094-20.828125zm342.570312 12.296875c0 4.710937-3.820312 8.53125-8.535156 8.53125h-179.199219v-68.265625h179.199219c4.714844 0 8.535156 3.820312 8.535156 8.53125zm0 0"/></svg>