<svg height="512pt" viewBox="0 -25 512.00129 512" width="512pt" xmlns="http://www.w3.org/2000/svg"><path d="m486.402344.34375h-305.878906c-2.429688-.242188-3.933594-.3242188-4.394532-.34375h-28.21875s-1.585937.0859375-4.378906.367188h-.085938c-46.402343 5.121093-96.972656 32.855468-99.746093 95.222656-2.484375 32.050781-.929688 64.289062 4.625 95.949218 1.726562 8.296876 2.660156 16.738282 2.792969 25.207032 0 4.839844-.214844 9.550781-.417969 14.191406-1.050781 23.78125-2.144531 48.359375 25.070312 75.265625.375.367187.664063.742187 1.03125 1.109375v13.328125c-14.261719 11.933594-30.566406 21.183594-48.128906 27.308594-16.90625 3.949219-28.816406 19.089843-28.671875 36.453125v42.605468c0 18.851563 15.285156 34.132813 34.132812 34.132813h256c18.851563 0 34.136719-15.28125 34.136719-34.132813v-42.605468c.152344-17.28125-11.660156-32.371094-28.46875-36.371094-5.453125-1.621094-10.746093-3.746094-15.804687-6.355469h206.40625c14.136718 0 25.597656-11.460937 25.597656-25.601562v-51.199219c0-14.136719-11.460938-25.601562-25.597656-25.601562h-212.257813c-.078125-2.90625-.207031-5.792969-.335937-8.640626-.125-2.851562-.160156-5.609374-.238282-8.425781h212.832032c14.136718 0 25.597656-11.460937 25.597656-25.597656v-51.199219c0-14.140625-11.460938-25.601562-25.597656-25.601562h-204.902344c-.070312-5.8125-.207031-11.503906-.417969-17.066406h205.320313c14.136718 0 25.597656-11.460938 25.597656-25.601563v-51.199219c0-14.136718-11.460938-25.597656-25.597656-25.597656zm-34.132813 85.332031h-56.203125l56.203125-56.199219zm-80.335937 0h-27.066406l68.265624-68.265625h27.070313zm-78.265625 0 68.265625-68.265625h27.066406l-68.265625 68.265625zm69.734375 51.199219-68.265625 68.265625h-20.992188c.261719-2.328125.578125-4.65625.964844-7.039063l61.226563-61.226562zm12.066406 68.265625h-56.203125l56.203125-56.199219zm-3.535156 51.203125-68.265625 68.265625h-27.066407l68.265626-68.265625zm51.203125 0-68.269531 68.265625h-27.066407l68.265625-68.265625zm12.066406 68.265625h-56.203125l56.203125-56.203125zm-182.734375 0c-1.785156-1.339844-3.414062-2.664063-5-3.960937v-13.046876c.46875-.476562.851562-.945312 1.3125-1.425781 14.214844-12.929687 23.085938-30.703125 24.882812-49.832031h47.070313zm85.332031-307.199219-59.613281 59.59375c-1.527344-6.953125-3.859375-13.703125-6.945312-20.121094l39.492187-39.472656zm-75.757812 24.550782c-7.707031-9.933594-17.273438-18.273438-28.167969-24.550782h52.726562zm17.449219 127.621093c.984374-8.660156 1.707031-19.207031 2-32.707031h30.71875zm-211.746094 62.117188c.222656-4.890625.4375-9.859375.4375-14.953125-.121094-9.460938-1.144532-18.890625-3.054688-28.160156-5.363281-30.433594-6.832031-61.421876-4.378906-92.226563 2.894531-64.914063 65.375-76.894531 84.53125-79.027344 2.003906-.195312 3.25-.28125 3.183594-.289062h27.167968c.09375 0 1.410157.09375 3.558594.304687 18.84375 2.109375 80.625 13.917969 84.480469 78.132813l.085937.929687c.511719 10.496094.757813 20.941406.757813 31.90625.269531 20.191406-1.445313 40.355469-5.117187 60.210938-1.433594 7.367187-2.382813 14.816406-2.84375 22.304687-.34375.910157-.53125 1.871094-.554688 2.84375.050781.636719.175781 1.261719.375 1.867188v1.203125c0 4.976562.214844 9.847656.417969 14.636718.257812 5.640626.488281 10.972657.351562 16.210938.328125 17.703125-7.105469 34.664062-20.34375 46.421875-1.269531 1.265625-2.296875 2.511719-3.472656 3.765625-.285156.265625-.550781.550781-.800781.851562-8.050782 9.003907-15.230469 18.75-21.445313 29.109376l-.496093.792968c-9.726563 15.4375-14.574219 21.273438-27 21.273438h-42.613282c-13.058594 0-17.65625-6.503906-27.71875-22.519532-6.179687-10.296874-13.347656-19.96875-21.398437-28.878906-.292969-.378906-.617188-.730468-.972657-1.046875-1.066406-1.128906-1.988281-2.246093-3.132812-3.414062-21.8125-21.453125-21.007812-39.457031-20.003906-62.25zm17.589844 135.234375c4.710937 0 8.53125-3.820313 8.53125-8.53125v-29.6875c1.707031 2.636718 3.414062 5.222656 4.941406 7.679687 9.847656 15.691407 19.148437 30.503907 42.164062 30.503907h42.582032c23.039062 0 32.382812-14.863282 41.453124-29.269532l.511719-.808594c1.546875-2.476562 3.167969-5.042968 4.882813-7.679687v29.261719c0 4.710937 3.820312 8.53125 8.53125 8.53125 4.714844 0 8.535156-3.820313 8.535156-8.53125v-16.359375c7.691406 5.371093 15.753906 10.191406 24.132812 14.421875 2.15625 16.765625 5.410157 68.683594-32.429687 87.609375h-154.058594c-37.8125-18.910157-34.613281-70.722657-32.425781-87.550781 8.371094-4.242188 16.429688-9.082032 24.113281-14.472657v16.351563c0 4.710937 3.820313 8.53125 8.535157 8.53125zm-68.269532 60.074218v-42.605468c-.089844-9.566406 6.554688-17.878906 15.90625-19.898438.589844-.164062 1.246094-.429687 1.851563-.617187-1.328125 20.457031.222656 56.125 22.300781 80.1875h-22.992188c-9.425781 0-17.066406-7.640625-17.066406-17.066407zm290.136719-42.605468v42.605468c0 9.425782-7.644531 17.066407-17.070313 17.066407h-22.988281c22.09375-24.089844 23.636719-59.84375 22.300781-80.210938.851563.261719 1.703126.605469 2.558594.851563 9.03125 2.222656 15.332032 10.386718 15.199219 19.6875zm187.730469-119.527344v51.199219c0 4.714843-3.820313 8.535156-8.53125 8.535156h-34.132813v-68.265625h34.132813c4.710937 0 8.53125 3.820312 8.53125 8.53125zm0-119.464844v51.199219c0 4.710937-3.820313 8.53125-8.53125 8.53125h-93.867188v-68.265625h93.867188c4.710937 0 8.53125 3.820312 8.53125 8.535156zm0-68.269531c0 4.714844-3.820313 8.535156-8.53125 8.535156h-17.066406v-68.265625h17.066406c4.710937 0 8.53125 3.820313 8.53125 8.53125zm0 0"/></svg>