<svg height="511pt" viewBox="-38 0 511 511.98326" width="511pt" xmlns="http://www.w3.org/2000/svg"><path d="m341.824219 307.679688v-17.503907h8.535156c12.453125.023438 23.109375-8.9375 25.21875-21.210937 2.109375-12.273438-4.941406-24.28125-16.6875-28.417969v-180.769531c0-14.140625-11.460937-25.601563-25.597656-25.601563h-111.789063c-4.035156-19.886719-21.519531-34.175781-41.8125-34.175781-20.292968 0-37.773437 14.289062-41.8125 34.175781h-111.789062c-14.136719 0-25.597656 11.460938-25.597656 25.601563v384c0 14.136718 11.460937 25.597656 25.597656 25.597656h224.199218c27.621094 38.425781 77.984376 52.898438 121.789063 34.996094s69.621094-63.503906 62.429687-110.277344c-7.195312-46.769531-45.523437-82.507812-92.683593-86.414062zm-17.066407 0c-53.011718 4.46875-93.789062 48.761718-93.867187 101.964843 0 2.882813.199219 5.707031.4375 8.53125h-179.636719v-332.800781h44.238282c3.601562 10.191406 13.21875 17.023438 24.027343 17.066406h119.46875c10.808594-.042968 20.425781-6.875 24.027344-17.066406h44.238281v155.171875c-11.746094 4.136719-18.796875 16.144531-16.6875 28.417969 2.113282 12.273437 12.765625 21.234375 25.222656 21.210937h8.53125zm25.601563-34.570313h-34.132813c-4.714843 0-8.535156-3.820313-8.535156-8.535156 0-4.710938 3.820313-8.53125 8.535156-8.53125h34.132813c4.710937 0 8.53125 3.820312 8.53125 8.53125 0 4.714843-3.820313 8.535156-8.53125 8.535156zm-8.535156-213.332031v179.199218h-17.066407v-162.132812c0-4.714844-3.820312-8.535156-8.53125-8.535156h-51.203124v-17.066406h68.269531c4.710937 0 8.53125 3.820312 8.53125 8.535156zm-162.132813-42.667969c10.808594.042969 20.425782 6.875 24.03125 17.066406h-48.0625c3.605469-10.191406 13.222656-17.023437 24.03125-17.066406zm68.265625 34.132813v25.601562c0 4.710938-3.820312 8.53125-8.53125 8.53125h-119.46875c-4.710937 0-8.53125-3.820312-8.53125-8.53125v-25.601562zm-221.867187 401.066406c-4.710938 0-8.53125-3.820313-8.53125-8.53125v-384c0-4.714844 3.820312-8.535156 8.53125-8.535156h68.269531v17.066406h-51.199219c-4.714844 0-8.535156 3.820312-8.535156 8.535156v349.867188c0 4.710937 3.820312 8.53125 8.535156 8.53125h191.144532c1.507812 5.859374 3.535156 11.570312 6.058593 17.066406zm307.203125 42.667968c-47.128907 0-85.335938-38.207031-85.335938-85.332031 0-47.128906 38.207031-85.335937 85.335938-85.335937 47.128906 0 85.332031 38.207031 85.332031 85.335937-.050781 47.105469-38.226562 85.28125-85.332031 85.332031zm0 0"/><path d="m333.292969 341.375c-37.703125 0-68.269531 30.566406-68.269531 68.269531 0 37.699219 30.566406 68.265625 68.269531 68.265625s68.265625-30.566406 68.265625-68.265625c-.042969-37.6875-30.582032-68.226562-68.265625-68.269531zm0 119.46875c-28.277344 0-51.203125-22.925781-51.203125-51.199219 0-28.277343 22.925781-51.203125 51.203125-51.203125 28.277343 0 51.199219 22.925782 51.199219 51.203125-.027344 28.261719-22.933594 51.171875-51.199219 51.199219zm0 0"/><path d="m341.824219 406.109375v-30.601563c0-4.710937-3.820313-8.53125-8.53125-8.53125-4.714844 0-8.535157 3.820313-8.535157 8.53125v34.136719c0 2.261719.898438 4.429688 2.5 6.03125l17.066407 17.066407c3.347656 3.234374 8.671875 3.1875 11.964843-.105469 3.289063-3.289063 3.335938-8.613281.101563-11.960938zm0 0"/><path d="m119.957031 349.910156h-51.199219c-4.710937 0-8.53125 3.820313-8.53125 8.53125v34.132813c0 4.714843 3.820313 8.535156 8.53125 8.535156h51.199219c4.714844 0 8.535157-3.820313 8.535157-8.535156v-34.132813c0-4.710937-3.820313-8.53125-8.535157-8.53125zm-8.53125 34.132813h-34.132812v-17.066407h34.132812zm0 0"/><path d="m119.957031 281.644531h-51.199219c-4.710937 0-8.53125 3.820313-8.53125 8.53125v34.132813c0 4.714844 3.820313 8.535156 8.53125 8.535156h51.199219c4.714844 0 8.535157-3.820312 8.535157-8.535156v-34.132813c0-4.710937-3.820313-8.53125-8.535157-8.53125zm-8.53125 34.132813h-34.132812v-17.066406h34.132812zm0 0"/><path d="m119.957031 213.375h-51.199219c-4.710937 0-8.53125 3.820312-8.53125 8.535156v34.132813c0 4.710937 3.820313 8.53125 8.53125 8.53125h51.199219c4.714844 0 8.535157-3.820313 8.535157-8.53125v-34.132813c0-4.714844-3.820313-8.535156-8.535157-8.535156zm-8.53125 34.132812h-34.132812v-17.066406h34.132812zm0 0"/><path d="m205.292969 349.910156h-51.203125c-4.710938 0-8.53125 3.820313-8.53125 8.53125v34.132813c0 4.714843 3.820312 8.535156 8.53125 8.535156h51.203125c4.710937 0 8.53125-3.820313 8.53125-8.535156v-34.132813c0-4.710937-3.820313-8.53125-8.53125-8.53125zm-8.535157 34.132813h-34.132812v-17.066407h34.132812zm0 0"/><path d="m205.292969 281.644531h-51.203125c-4.710938 0-8.53125 3.820313-8.53125 8.53125v34.132813c0 4.714844 3.820312 8.535156 8.53125 8.535156h51.203125c4.710937 0 8.53125-3.820312 8.53125-8.535156v-34.132813c0-4.710937-3.820313-8.53125-8.53125-8.53125zm-8.535157 34.132813h-34.132812v-17.066406h34.132812zm0 0"/><path d="m205.292969 213.375h-51.203125c-4.710938 0-8.53125 3.820312-8.53125 8.535156v34.132813c0 4.710937 3.820312 8.53125 8.53125 8.53125h51.203125c4.710937 0 8.53125-3.820313 8.53125-8.53125v-34.132813c0-4.714844-3.820313-8.535156-8.53125-8.535156zm-8.535157 34.132812h-34.132812v-17.066406h34.132812zm0 0"/><path d="m119.957031 145.109375h-51.199219c-4.710937 0-8.53125 3.820313-8.53125 8.535156v34.132813c0 4.710937 3.820313 8.53125 8.53125 8.53125h51.199219c4.714844 0 8.535157-3.820313 8.535157-8.53125v-34.132813c0-4.714843-3.820313-8.535156-8.535157-8.535156zm-8.53125 34.132813h-34.132812v-17.066407h34.132812zm0 0"/><path d="m205.292969 136.574219h17.066406c4.710937 0 8.53125-3.820313 8.53125-8.53125 0-4.714844-3.820313-8.535157-8.53125-8.535157h-17.066406c-4.714844 0-8.535157 3.820313-8.535157 8.535157 0 4.710937 3.820313 8.53125 8.535157 8.53125zm0 0"/><path d="m256.492188 136.574219h25.597656c4.714844 0 8.535156-3.820313 8.535156-8.53125 0-4.714844-3.820312-8.535157-8.535156-8.535157h-25.597656c-4.714844 0-8.535157 3.820313-8.535157 8.535157 0 4.710937 3.820313 8.53125 8.535157 8.53125zm0 0"/><path d="m290.625 162.175781c0-4.710937-3.820312-8.53125-8.535156-8.53125h-102.398438c-4.710937 0-8.53125 3.820313-8.53125 8.53125 0 4.714844 3.820313 8.535157 8.53125 8.535157h102.398438c4.714844 0 8.535156-3.820313 8.535156-8.535157zm0 0"/><path d="m282.089844 187.777344h-25.597656c-4.714844 0-8.535157 3.820312-8.535157 8.53125 0 4.714844 3.820313 8.535156 8.535157 8.535156h25.597656c4.714844 0 8.535156-3.820312 8.535156-8.535156 0-4.710938-3.820312-8.53125-8.535156-8.53125zm0 0"/></svg>