<svg height="512pt" viewBox="-38 0 512 512.16574" width="512pt" xmlns="http://www.w3.org/2000/svg"><path d="m358.484375 230.503906v-170.726562c0-14.140625-11.464844-25.601563-25.601563-25.601563h-111.785156c-4.039062-19.886719-21.523437-34.175781-41.816406-34.175781-20.289062 0-37.773438 14.289062-41.8125 34.175781h-111.785156c-14.140625 0-25.6015628 11.460938-25.6015628 25.601563v384c0 14.136718 11.4609378 25.597656 25.6015628 25.597656h131.351562c-9.390625 10.273438-8.832031 26.175781 1.257813 35.761719 10.089843 9.589843 26 9.335937 35.777343-.570313l35.191407-35.191406h103.621093c14.136719 0 25.601563-11.460938 25.601563-25.597656v-15.140625c45.199219-11.636719 76.792969-52.390625 76.792969-99.066407 0-46.675781-31.59375-87.433593-76.792969-99.066406zm-17.066406-170.726562v167.796875c-2.835938-.230469-5.683594-.417969-8.535157-.417969-2.851562 0-5.691406.1875-8.535156.417969v-150.730469c0-4.714844-3.820312-8.535156-8.53125-8.535156h-51.199218v-17.066406h68.265624c4.710938 0 8.535157 3.820312 8.535157 8.535156zm-133.359375 358.398437h-156.777344v-332.800781h44.238281c3.601563 10.191406 13.21875 17.023438 24.03125 17.066406h119.464844c10.808594-.042968 20.425781-6.875 24.03125-17.066406h44.234375v145.117188c-31.140625 8-56.710938 30.183593-69.023438 59.886718s-9.933593 63.46875 6.414063 91.15625zm-28.777344-401.066406c10.8125.042969 20.429688 6.875 24.03125 17.066406h-48.058594c3.601563-10.191406 13.21875-17.023437 24.027344-17.066406zm68.269531 34.132813v25.601562c0 4.710938-3.820312 8.53125-8.535156 8.53125h-119.464844c-4.714843 0-8.535156-3.820312-8.535156-8.53125v-25.601562zm-230.402343 392.535156v-384c0-4.714844 3.820312-8.535156 8.535156-8.535156h68.265625v17.066406h-51.199219c-4.714844 0-8.535156 3.820312-8.535156 8.535156v349.867188c0 4.710937 3.820312 8.53125 8.535156 8.53125h148.242188l-17.066407 17.066406h-148.242187c-4.714844 0-8.535156-3.820313-8.535156-8.53125zm164.855468 48.722656c-3.371094 3.023438-8.515625 2.886719-11.71875-.308594-3.207031-3.199218-3.359375-8.34375-.347656-11.722656l13.476562-13.472656.1875-.1875 71.089844-71.082032c1.828125 2.15625 3.730469 4.265626 5.761719 6.304688s4.144531 3.925781 6.304687 5.761719zm159.414063-48.722656c0 4.710937-3.824219 8.53125-8.535157 8.53125h-86.554687l34.5-34.515625c15.71875 9.316406 33.65625 14.234375 51.925781 14.234375 2.894532 0 5.769532-.171875 8.644532-.417969zm51.777343-53.863282c-29.070312 29.148438-74.820312 33.351563-108.714843 9.984376-4.28125-2.949219-8.28125-6.292969-11.945313-9.984376-24.40625-24.40625-31.707031-61.109374-18.5-92.996093 13.210938-31.886719 44.324219-52.679688 78.839844-52.679688 34.511719 0 65.628906 20.792969 78.835938 52.679688 13.210937 31.886719 5.90625 68.589843-18.496094 92.996093zm0 0"/><path d="m353.304688 264.5h-.105469c-26.480469-8.253906-55.324219.335938-72.972657 21.734375-17.652343 21.398437-20.597656 51.347656-7.460937 75.773437v.054688c6.328125 11.652344 15.898437 21.222656 27.554687 27.550781h.074219c3.726563 1.960938 7.625 3.566407 11.648438 4.796875.472656.195313.960937.347656 1.460937.460938 6.195313 1.839844 12.617188 2.789062 19.082032 2.824218 6.695312 0 13.355468-.972656 19.769531-2.882812.410156-.105469.808593-.246094 1.195312-.417969 28.347657-9.007812 47.578125-35.367187 47.5-65.113281s-19.445312-56-47.839843-64.859375zm-56.644532 28.875c3.179688-3.09375 6.75-5.753906 10.621094-7.917969v88.398438c-8.214844-4.675781-14.953125-11.5625-19.445312-19.875-10.695313-19.945313-7.117188-44.535157 8.824218-60.605469zm27.6875 86.648438v-100.8125c5.652344-.949219 11.417969-.949219 17.070313 0v100.691406c-5.644531.984375-11.410157 1.023437-17.070313.121094zm44.714844-14.242188c-3.160156 3.09375-6.71875 5.753906-10.578125 7.910156v-88.21875c3.855469 2.160156 7.414063 4.820313 10.578125 7.902344 19.960938 20.007812 19.960938 52.398438 0 72.40625zm0 0"/><path d="m119.550781 349.910156h-51.203125c-4.710937 0-8.53125 3.820313-8.53125 8.53125v34.132813c0 4.714843 3.820313 8.535156 8.53125 8.535156h51.203125c4.710938 0 8.53125-3.820313 8.53125-8.535156v-34.132813c0-4.710937-3.820312-8.53125-8.53125-8.53125zm-8.535156 34.132813h-34.132813v-17.066407h34.132813zm0 0"/><path d="m119.550781 281.644531h-51.203125c-4.710937 0-8.53125 3.820313-8.53125 8.53125v34.132813c0 4.714844 3.820313 8.535156 8.53125 8.535156h51.203125c4.710938 0 8.53125-3.820312 8.53125-8.535156v-34.132813c0-4.710937-3.820312-8.53125-8.53125-8.53125zm-8.535156 34.132813h-34.132813v-17.066406h34.132813zm0 0"/><path d="m119.550781 213.375h-51.203125c-4.710937 0-8.53125 3.820312-8.53125 8.535156v34.132813c0 4.710937 3.820313 8.53125 8.53125 8.53125h51.203125c4.710938 0 8.53125-3.820313 8.53125-8.53125v-34.132813c0-4.714844-3.820312-8.535156-8.53125-8.535156zm-8.535156 34.132812h-34.132813v-17.066406h34.132813zm0 0"/><path d="m204.882812 349.910156h-51.199218c-4.714844 0-8.535156 3.820313-8.535156 8.53125v34.132813c0 4.714843 3.820312 8.535156 8.535156 8.535156h51.199218c4.710938 0 8.535157-3.820313 8.535157-8.535156v-34.132813c0-4.710937-3.824219-8.53125-8.535157-8.53125zm-8.535156 34.132813h-34.132812v-17.066407h34.132812zm0 0"/><path d="m204.882812 281.644531h-51.199218c-4.714844 0-8.535156 3.820313-8.535156 8.53125v34.132813c0 4.714844 3.820312 8.535156 8.535156 8.535156h51.199218c4.710938 0 8.535157-3.820312 8.535157-8.535156v-34.132813c0-4.710937-3.824219-8.53125-8.535157-8.53125zm-8.535156 34.132813h-34.132812v-17.066406h34.132812zm0 0"/><path d="m204.882812 213.375h-51.199218c-4.714844 0-8.535156 3.820312-8.535156 8.535156v34.132813c0 4.710937 3.820312 8.53125 8.535156 8.53125h51.199218c4.710938 0 8.535157-3.820313 8.535157-8.53125v-34.132813c0-4.714844-3.824219-8.535156-8.535157-8.535156zm-8.535156 34.132812h-34.132812v-17.066406h34.132812zm0 0"/><path d="m119.550781 145.109375h-51.203125c-4.710937 0-8.53125 3.820313-8.53125 8.535156v34.132813c0 4.710937 3.820313 8.53125 8.53125 8.53125h51.203125c4.710938 0 8.53125-3.820313 8.53125-8.53125v-34.132813c0-4.714843-3.820312-8.535156-8.53125-8.535156zm-8.535156 34.132813h-34.132813v-17.066407h34.132813zm0 0"/><path d="m204.882812 136.574219h17.066407c4.714843 0 8.535156-3.820313 8.535156-8.53125 0-4.714844-3.820313-8.535157-8.535156-8.535157h-17.066407c-4.710937 0-8.535156 3.820313-8.535156 8.535157 0 4.710937 3.824219 8.53125 8.535156 8.53125zm0 0"/><path d="m256.082031 136.574219h25.601563c4.710937 0 8.53125-3.820313 8.53125-8.53125 0-4.714844-3.820313-8.535157-8.53125-8.535157h-25.601563c-4.710937 0-8.53125 3.820313-8.53125 8.535157 0 4.710937 3.820313 8.53125 8.53125 8.53125zm0 0"/><path d="m179.28125 170.710938h102.402344c4.710937 0 8.53125-3.820313 8.53125-8.535157 0-4.710937-3.820313-8.53125-8.53125-8.53125h-102.402344c-4.710938 0-8.53125 3.820313-8.53125 8.53125 0 4.714844 3.820312 8.535157 8.53125 8.535157zm0 0"/><path d="m281.683594 187.777344h-25.601563c-4.710937 0-8.53125 3.820312-8.53125 8.53125 0 4.714844 3.820313 8.535156 8.53125 8.535156h25.601563c4.710937 0 8.53125-3.820312 8.53125-8.535156 0-4.710938-3.820313-8.53125-8.53125-8.53125zm0 0"/></svg>