<svg height="512pt" viewBox="-85 0 512 512.04277" width="512pt" xmlns="http://www.w3.org/2000/svg"><path d="m315.753906 34.175781h-103.253906c-4.035156-19.886719-21.519531-34.175781-41.8125-34.175781-20.289062 0-37.773438 14.289062-41.8125 34.175781h-103.253906c-14.136719 0-25.6015628 11.460938-25.6015628 25.601563v426.664062c0 14.140625 11.4648438 25.601563 25.6015628 25.601563h290.132812c14.140625 0 25.601563-11.460938 25.601563-25.601563v-426.664062c0-14.140625-11.460938-25.601563-25.601563-25.601563zm-228.828125 51.199219c3.601563 10.191406 13.21875 17.023438 24.027344 17.066406h119.46875c10.808594-.042968 20.425781-6.875 24.03125-17.066406h35.703125v375.46875h-238.933594v-375.46875zm83.761719-68.265625c10.808594.042969 20.425781 6.875 24.03125 17.066406h-48.0625c3.605469-10.191406 13.222656-17.023437 24.03125-17.066406zm68.265625 34.132813v25.601562c0 4.710938-3.820313 8.53125-8.53125 8.53125h-119.46875c-4.710937 0-8.53125-3.820312-8.53125-8.53125v-25.601562zm85.335937 435.199218c0 4.714844-3.820312 8.535156-8.535156 8.535156h-290.132812c-4.710938 0-8.53125-3.820312-8.53125-8.535156v-426.664062c0-4.714844 3.820312-8.535156 8.53125-8.535156h59.734375v17.066406h-42.667969c-4.710938 0-8.53125 3.820312-8.53125 8.535156v392.53125c0 4.714844 3.820312 8.535156 8.53125 8.535156h256c4.714844 0 8.535156-3.820312 8.535156-8.535156v-392.53125c0-4.714844-3.820312-8.535156-8.535156-8.535156h-42.667969v-17.066406h59.734375c4.714844 0 8.535156 3.820312 8.535156 8.535156zm0 0"/><path d="m68.707031 236.519531c-1.003906 3.082031-.167969 6.46875 2.148438 8.738281l43.734375 42.792969-10.324219 60.417969c-.550781 3.203125.765625 6.441406 3.394531 8.351562 2.632813 1.910157 6.121094 2.15625 8.996094.640626l54.03125-28.507813 54.035156 28.507813c2.875 1.515624 6.359375 1.269531 8.992188-.640626 2.628906-1.910156 3.949218-5.148437 3.398437-8.351562l-10.328125-60.417969 43.742188-42.792969c2.296875-2.269531 3.117187-5.644531 2.113281-8.714843-1-3.070313-3.648437-5.3125-6.839844-5.792969l-60.433593-8.839844-27-54.964844c-1.597657-2.710937-4.507813-4.375-7.652344-4.375-3.148438 0-6.058594 1.664063-7.65625 4.375l-27.050782 54.964844-60.421874 8.8125c-3.207032.46875-5.875 2.714844-6.878907 5.796875zm74.238281 1.621094c2.78125-.40625 5.183594-2.15625 6.425782-4.675781l21.316406-43.410156 21.332031 43.410156c1.242188 2.519531 3.644531 4.269531 6.425781 4.675781l47.789063 6.980469-34.585937 33.859375c-2 1.960937-2.914063 4.773437-2.441407 7.535156l8.167969 47.785156-42.710938-22.535156c-2.496093-1.308594-5.472656-1.308594-7.96875 0l-42.710937 22.535156 8.167969-47.785156c.472656-2.761719-.441406-5.574219-2.441406-7.535156l-34.59375-33.859375zm0 0"/><path d="m76.820312 401.109375h25.601563c4.710937 0 8.53125-3.820313 8.53125-8.535156 0-4.710938-3.820313-8.53125-8.53125-8.53125h-25.601563c-4.710937 0-8.53125 3.820312-8.53125 8.53125 0 4.714843 3.820313 8.535156 8.53125 8.535156zm0 0"/><path d="m264.554688 384.042969h-128c-4.710938 0-8.535157 3.820312-8.535157 8.53125 0 4.714843 3.824219 8.535156 8.535157 8.535156h128c4.710937 0 8.535156-3.820313 8.535156-8.535156 0-4.710938-3.824219-8.53125-8.535156-8.53125zm0 0"/><path d="m264.554688 418.175781h-25.601563c-4.710937 0-8.53125 3.820313-8.53125 8.535157 0 4.710937 3.820313 8.53125 8.53125 8.53125h25.601563c4.710937 0 8.535156-3.820313 8.535156-8.53125 0-4.714844-3.824219-8.535157-8.535156-8.535157zm0 0"/><path d="m76.820312 435.242188h128c4.714844 0 8.535157-3.820313 8.535157-8.53125 0-4.714844-3.820313-8.535157-8.535157-8.535157h-128c-4.710937 0-8.53125 3.820313-8.53125 8.535157 0 4.710937 3.820313 8.53125 8.53125 8.53125zm0 0"/><path d="m76.820312 136.574219h25.601563c4.710937 0 8.53125-3.820313 8.53125-8.53125 0-4.714844-3.820313-8.535157-8.53125-8.535157h-25.601563c-4.710937 0-8.53125 3.820313-8.53125 8.535157 0 4.710937 3.820313 8.53125 8.53125 8.53125zm0 0"/><path d="m136.554688 136.574219h128c4.710937 0 8.535156-3.820313 8.535156-8.53125 0-4.714844-3.824219-8.535157-8.535156-8.535157h-128c-4.710938 0-8.535157 3.820313-8.535157 8.535157 0 4.710937 3.824219 8.53125 8.535157 8.53125zm0 0"/></svg>