<svg height="512pt" viewBox="0 0 512 512.01278" width="512pt" xmlns="http://www.w3.org/2000/svg"><path d="m153.605469 452.28125h-8.53125c-4.714844 0-8.535157 3.820312-8.535157 8.53125 0 4.714844 3.820313 8.535156 8.535157 8.535156h8.53125c4.714843 0 8.535156-3.820312 8.535156-8.535156 0-4.710938-3.820313-8.53125-8.535156-8.53125zm0 0"/><path d="m366.941406 452.28125h-8.535156c-4.710938 0-8.53125 3.820312-8.53125 8.53125 0 4.714844 3.820312 8.535156 8.53125 8.535156h8.535156c4.710938 0 8.53125-3.820312 8.53125-8.535156 0-4.710938-3.820312-8.53125-8.53125-8.53125zm0 0"/><path d="m136.539062 153.613281c-4.710937 0-8.53125 3.820313-8.53125 8.53125v8.535157h-51.203124v-51.199219h17.070312c4.710938 0 8.53125-3.820313 8.53125-8.535157 0-4.710937-3.820312-8.53125-8.53125-8.53125h-17.070312c-9.425782 0-17.066407 7.640626-17.066407 17.066407v51.199219c0 9.425781 7.640625 17.066406 17.066407 17.066406h51.203124c9.425782 0 17.066407-7.640625 17.066407-17.066406v-8.535157c0-4.710937-3.820313-8.53125-8.535157-8.53125zm0 0"/><path d="m99.90625 139.046875c-3.347656-3.234375-8.671875-3.1875-11.960938.101563-3.292968 3.292968-3.339843 8.617187-.105468 11.964843l8.535156 8.53125c1.59375 1.605469 3.765625 2.507813 6.03125 2.5h.476562c2.421876-.132812 4.671876-1.289062 6.1875-3.179687l34.132813-42.667969c2.945313-3.679687 2.351563-9.050781-1.328125-12-3.683594-2.945313-9.054688-2.347656-12 1.332031l-28.160156 35.226563zm0 0"/><path d="m128.007812 204.8125h-51.203124c-9.425782 0-17.066407 7.640625-17.066407 17.066406v51.199219c0 9.425781 7.640625 17.066406 17.066407 17.066406h51.203124c9.425782 0 17.066407-7.640625 17.066407-17.066406v-51.199219c0-9.425781-7.640625-17.066406-17.066407-17.066406zm-51.203124 68.265625v-51.199219h51.203124v51.199219zm0 0"/><path d="m435.207031 307.210938h-256c-9.425781 0-17.066406 7.644531-17.066406 17.070312v51.199219c0 9.425781 7.640625 17.066406 17.066406 17.066406h256c9.425781 0 17.066407-7.640625 17.066407-17.066406v-51.199219c0-9.425781-7.640626-17.070312-17.066407-17.070312zm-256 17.070312h85.332031v51.199219h-85.332031zm102.398438 51.199219v-51.199219h153.601562v51.199219zm0 0"/><path d="m128.007812 307.210938h-51.203124c-9.425782 0-17.066407 7.644531-17.066407 17.070312v51.199219c0 9.425781 7.640625 17.066406 17.066407 17.066406h51.203124c9.425782 0 17.066407-7.640625 17.066407-17.066406v-51.199219c0-9.425781-7.640625-17.070312-17.066407-17.070312zm-51.203124 68.269531v-51.199219h51.203124v51.199219zm0 0"/><path d="m512.007812 128.011719c.054688-56.988281-37.613281-107.136719-92.359374-122.96875-54.75-15.832031-113.363282 6.476562-143.734376 54.703125h-233.242187c-14.136719 0-25.597656 11.460937-25.597656 25.601562v332.796875c-9.425781 0-17.0664065 7.644531-17.0664065 17.066407v34.136718c.0273437 23.550782 19.1132815 42.636719 42.6640625 42.664063h426.667969c23.550781-.027344 42.636718-19.113281 42.667968-42.664063v-34.136718c0-9.421876-7.640624-17.066407-17.066406-17.066407v-226.542969c11.171875-19.328124 17.058594-41.261718 17.066406-63.589843zm-128-110.933594c61.265626 0 110.933594 49.667969 110.933594 110.933594 0 61.269531-49.667968 110.933593-110.933594 110.933593-61.269531 0-110.933593-49.664062-110.933593-110.933593.070312-61.238281 49.695312-110.863281 110.933593-110.933594zm-204.800781 256v-51.199219h118.066407c10.460937 9.71875 22.46875 17.617188 35.53125 23.375v27.824219zm84.265625-102.398437h-84.265625v-51.199219h77.234375c-.1875 2.832031-.433594 5.648437-.433594 8.53125.03125 14.546875 2.554688 28.976562 7.464844 42.667969zm86.402344 80.570312c28.269531 8.003906 58.449219 5.890625 85.332031-5.972656v27.800781h-85.332031zm119.464844 243.695312h-426.667969c-14.136719 0-25.597656-11.460937-25.597656-25.597656h93.867187c4.710938 0 8.53125-3.820312 8.53125-8.535156 0-4.710938-3.820312-8.53125-8.53125-8.53125h-93.867187v-17.070312h148.324219l9.992187 19.988281c4.316406 8.691406 13.191406 14.175781 22.894531 14.148437h115.441406c9.703126.027344 18.582032-5.457031 22.894532-14.148437l9.992187-19.988281h148.328125v17.070312h-93.867187c-4.714844 0-8.535157 3.820312-8.535157 8.53125 0 4.714844 3.820313 8.535156 8.535157 8.535156h93.867187c0 14.136719-11.464844 25.597656-25.601562 25.597656zm-284.859375-59.734374h143.050781l-6.175781 12.347656c-1.433594 2.902344-4.394531 4.734375-7.628907 4.722656h-115.441406c-3.234375.011719-6.195312-1.820312-7.628906-4.722656zm293.394531-17.066407h-443.734375v-332.796875c0-4.714844 3.820313-8.535156 8.53125-8.535156h224.09375c-3.625 8.21875-6.367187 16.800781-8.183594 25.601562h-79.375c-9.425781 0-17.066406 7.640626-17.066406 17.066407v51.199219c0 9.425781 7.640625 17.066406 17.066406 17.066406h91.671875c3.203125 5.96875 6.871094 11.675781 10.964844 17.066406h-102.636719c-9.425781 0-17.066406 7.640625-17.066406 17.066406v51.199219c0 9.425781 7.640625 17.066406 17.066406 17.066406h256c9.425781 0 17.066407-7.640625 17.066407-17.066406v-36.972656c9.421874-5.972657 18.027343-13.144531 25.601562-21.335938zm0 0"/><path d="m345.605469 194.496094c1.296875.757812 2.769531 1.15625 4.269531 1.152344 3.855469-.007813 7.226562-2.597657 8.226562-6.324219.996094-3.722657-.625-7.65625-3.960937-9.589844-20.117187-11.59375-31.683594-33.800781-29.648437-56.929687 2.039062-23.128907 17.304687-42.972657 39.136718-50.871094l-4.90625 6.269531c-2.914062 3.710937-2.273437 9.078125 1.4375 11.996094 3.707032 2.914062 9.078125 2.269531 11.992188-1.441407l18.570312-23.722656c.171875-.296875.328125-.601562.460938-.921875.671875-.972656 1.066406-2.109375 1.144531-3.292969.097656-.351562.167969-.710937.210937-1.074218-.023437-.167969-.058593-.332032-.101562-.496094-.054688-.578125-.171875-1.152344-.351562-1.707031-.109376-.507813-.269532-1.003907-.476563-1.484375-.246094-.445313-.53125-.867188-.851563-1.261719-.34375-.496094-.734374-.953125-1.171874-1.367187-.125-.109376-.1875-.269532-.324219-.375l-23.714844-18.59375c-3.707031-2.914063-9.078125-2.269532-11.992187 1.4375-2.914063 3.710937-2.269532 9.078124 1.4375 11.996093l8.039062 6.296875c-29.679688 8.402344-51.445312 33.761719-55.246094 64.371094-3.800781 30.613281 11.097656 60.527344 37.820313 75.933594zm0 0"/><path d="m376.828125 189.820312c-.328125.496094-.59375 1.027344-.800781 1.585938-.175782.554688-.289063 1.128906-.339844 1.707031-.097656.339844-.167969.691407-.214844 1.042969.027344.164062.058594.332031.101563.492188.054687.582031.171875 1.152343.351562 1.707031.109375.507812.269531 1.003906.476563 1.476562.246094.453125.53125.878907.855468 1.28125.34375.488281.734376.945313 1.167969 1.355469.128907.113281.1875.273438.324219.375l23.714844 18.5625c3.707031 2.792969 8.96875 2.109375 11.839844-1.535156 2.871093-3.648438 2.300781-8.921875-1.285157-11.871094l-8.039062-6.289062c29.679687-8.40625 51.441406-33.765626 55.242187-64.378907 3.804688-30.613281-11.09375-60.523437-37.816406-75.9375-2.644531-1.679687-6-1.777343-8.738281-.25-2.734375 1.527344-4.414063 4.433594-4.371094 7.570313.042969 3.132812 1.796875 5.992187 4.578125 7.445312 20.113281 11.589844 31.679688 33.796875 29.648438 56.925782-2.03125 23.125-17.292969 42.976562-39.121094 50.882812l4.90625-6.273438c2.769531-3.714843 2.070312-8.960937-1.578125-11.816406-3.648438-2.859375-8.910157-2.28125-11.855469 1.296875l-18.566406 23.722657c-.179688.296874-.339844.605468-.480469.921874zm0 0"/></svg>