<svg height="512pt" viewBox="-15 0 512 512.00001" width="512pt" xmlns="http://www.w3.org/2000/svg"><path d="m.65625 65.007812c-.425781 1.03125-.65234375 2.140626-.65625 3.257813v409.601563c0 18.851562 15.28125 34.132812 34.132812 34.132812h344.746094c11.414063.011719 22.078125-5.695312 28.398438-15.199219l23.953125-36h26.019531c9.707031.023438 18.589844-5.457031 22.921875-14.144531 4.328125-8.6875 3.355469-19.082031-2.511719-26.816406-56.589844-74.195313-51.0625-255.589844-50.992187-257.707032v-128c0-18.851562-15.285157-34.132812-34.132813-34.132812h-324.269531c-1.117187 0-2.226563.222656-3.257813.65625-1.042968.429688-1.988281 1.058594-2.78125 1.851562l-59.734374 59.734376c-.789063.792968-1.414063 1.730468-1.835938 2.765624zm140.878906-47.941406-64.734375 64.734375v-27.066406l37.664063-37.667969zm51.199219 0-76.800781 76.800782h-27.066406l76.800781-76.800782zm51.199219 0-76.800782 76.800782h-27.066406l76.800782-76.800782zm51.199218 0-76.800781 76.800782h-27.066406l76.800781-76.800782zm51.199219 0-76.796875 76.800782h-27.070312l76.800781-76.800782zm-328.234375 466.449219c-.660156-1.8125-1.007812-3.722656-1.03125-5.648437v-312.199219l42.667969-42.667969v38.84375c-.085937 2.492188-.554687 18.679688.136719 42.300781-.058594.214844-.105469.433594-.136719.65625v230.398438c.003906 3.296875.65625 6.5625 1.910156 9.609375zm58.703125-48.316406v-92.695313c9.921875 40.472656 25.4375 78.1875 49.65625 101.230469h-41.125c-4.710937 0-8.53125-3.820313-8.53125-8.535156zm0-404.597657v-13.535156h13.53125zm-17.066406 20.597657v47.675781l-42.667969 42.667969v-69.742188l42.667969-42.667969zm333.300781 436.140625c-3.15625 4.730468-8.464844 7.582031-14.15625 7.59375h-344.746094c-.960937-.015625-1.921874-.113282-2.867187-.289063l41.769531-37.128906c3.753906 2.125 7.984375 3.257813 12.296875 3.285156h325.394531zm71.050782-57.132813c1.976562 2.503907 2.308593 5.933594.851562 8.773438-1.410156 2.949219-4.410156 4.8125-7.679688 4.761719h-301.746093c-85.898438-42.042969-78.796875-278.921876-78.710938-281.609376v-51.199218h332.800781v50.910156c-.257812 7.6875-5.804687 189.292969 54.484376 268.355469zm-55.125-400.433593c.402343 1.417968.617187 2.882812.640624 4.359374v22.066407l-37.667968 37.667969h-27.066406zm.640624 64.09375h-13.535156l13.535156-13.535157zm-12.707031-76.160157-76.160156 76.160157h-27.066406l76.796875-76.800782h22.070312c1.472656.019532 2.941406.234375 4.359375.640625zm0 0"/><path d="m352.332031 136.535156c-8.457031.273438-16.429687 4.023438-22.039062 10.359375l-123.222657 139.699219-22.347656-22.316406c-11.859375-11.4375-30.542968-11.757813-42.789062-.734375l-11.015625 8.808593c-7.605469 5.996094-11.863281 15.28125-11.453125 24.957032.375 9.851562 5.453125 18.929687 13.65625 24.398437 26.496094 17.929688 48.519531 41.714844 64.355468 69.511719 3.355469 6.085938 9.761719 9.859375 16.710938 9.847656.597656 0 1.203125 0 1.816406-.085937 7.507813-.628907 13.921875-5.660157 16.324219-12.800781 17.449219-50.753907 66.988281-119.867188 143.25-199.859376 11.5625-12.007812 11.308594-31.085937-.570313-42.785156-6.027343-5.949218-14.210937-9.195312-22.675781-9zm10.878907 39.960938c-79.050782 82.917968-128.542969 152.285156-147.042969 206.105468-.222657.773438-.902344 1.332032-1.707031 1.390626-.867188.09375-1.703126-.359376-2.101563-1.136719-17.132813-30.085938-40.957031-55.832031-69.628906-75.238281-3.714844-2.445313-6.019531-6.53125-6.195313-10.972657-.179687-4.246093 1.691406-8.320312 5.023438-10.957031l11.015625-8.816406c3.082031-2.648438 6.972656-4.167969 11.035156-4.316406 3.398437-.011719 6.660156 1.359374 9.027344 3.796874l28.785156 28.730469c1.617187 1.734375 3.929687 2.648438 6.296875 2.484375 2.355469-.074218 4.574219-1.117187 6.136719-2.882812l129.234375-146.484375c2.476562-2.828125 6.023437-4.496094 9.78125-4.597657 3.769531-.175781 7.4375 1.277344 10.070312 3.984376 5.265625 5.164062 5.386719 13.609374.269532 18.925781zm0 0"/></svg>