<svg height="512pt" viewBox="-15 0 512 512.00001" width="512pt" xmlns="http://www.w3.org/2000/svg"><path d="m426.667969 34.132812c0-18.851562-15.285157-34.132812-34.132813-34.132812h-324.269531c-1.117187 0-2.226563.222656-3.257813.65625-1.042968.429688-1.988281 1.058594-2.78125 1.851562l-59.734374 59.734376c-.796876.792968-1.425782 1.742187-1.851563 2.78125-.421875 1.03125-.63671875 2.132812-.640625 3.242187v409.601563c0 18.851562 15.28125 34.132812 34.132812 34.132812h344.746094c11.414063.011719 22.078125-5.695312 28.398438-15.199219l23.953125-36h26.019531c9.707031.023438 18.589844-5.457031 22.921875-14.144531 4.328125-8.6875 3.355469-19.082031-2.511719-26.816406-56.589844-74.195313-51.0625-255.589844-50.992187-257.707032zm-81.800781 59.734376 64.09375-64.09375c.402343 1.417968.617187 2.882812.640624 4.359374v22.066407l-37.667968 37.667969zm64.734374-13.535157v13.535157h-13.535156zm-12.707031-62.625-76.160156 76.160157h-27.066406l76.796875-76.800782h22.070312c1.472656.019532 2.941406.234375 4.359375.640625zm-154.429687 76.160157 76.800781-76.800782h27.066406l-76.796875 76.800782zm-51.199219 0 76.800781-76.800782h27.066406l-76.800781 76.800782zm-51.199219 0 76.800782-76.800782h27.066406l-76.800782 76.800782zm-51.199218 0 76.800781-76.800782h27.066406l-76.800781 76.800782zm-70.769532 389.648437c-.660156-1.8125-1.007812-3.722656-1.03125-5.648437v-312.199219l42.667969-42.667969v38.84375c-.085937 2.492188-.554687 18.679688.136719 42.300781-.058594.214844-.105469.433594-.136719.65625v230.398438c.003906 3.296875.65625 6.5625 1.910156 9.609375zm-1.03125-411.714844 42.667969-42.667969v69.734376l-42.667969 42.667968zm124.46875-54.734375-64.734375 64.734375v-27.066406l37.664063-37.667969zm-64.734375 13.535156v-13.535156h13.53125zm0 404.597657v-92.695313c9.921875 40.472656 25.4375 78.1875 49.65625 101.230469h-41.125c-4.710937 0-8.53125-3.820313-8.53125-8.535156zm316.234375 52.132812c-3.152344 4.734375-8.464844 7.585938-14.15625 7.601563h-344.746094c-.960937-.015625-1.921874-.113282-2.867187-.289063l41.769531-37.128906c3.753906 2.125 7.984375 3.257813 12.296875 3.285156h325.394531zm71.050782-57.132812c1.976562 2.503906 2.308593 5.933593.851562 8.773437-1.410156 2.949219-4.410156 4.808594-7.679688 4.761719h-301.746093c-85.898438-42.035156-78.796875-278.914063-78.710938-281.601563v-51.199218h332.800781v50.910156c-.257812 7.6875-5.804687 189.292969 54.484376 268.355469zm0 0"/><path d="m357.949219 204.953125c2.382812-14.457031-3.726563-29-15.71875-37.417969-10.023438-6.902344-23.175781-7.238281-33.539063-.855468-19.992187 11.984374-39.035156 25.484374-56.957031 40.390624-17.921875-14.898437-36.964844-28.394531-56.960937-40.371093-10.359376-6.382813-23.511719-6.050781-33.535157.851562-12.023437 8.453125-18.128906 23.054688-15.703125 37.546875 1.492188 10.933594 7.78125 20.632813 17.152344 26.453125 13.078125 7.988281 25.621094 16.828125 37.546875 26.453125-20.804687 24.492188-38.152344 51.722656-51.558594 80.929688-5.617187 12.347656-4.65625 26.691406 2.558594 38.179687 5.84375 9.539063 16.207031 15.375 27.394531 15.421875h4.914063c13.40625-.253906 25.355469-8.515625 30.328125-20.96875 9.953125-22.121094 22.675781-42.890625 37.863281-61.804687 15.191406 18.925781 27.914063 39.703125 37.863281 61.839843 4.980469 12.4375 16.929688 20.683594 30.324219 20.933594h4.917969c11.160156-.085937 21.488281-5.929687 27.304687-15.457031 7.222657-11.484375 8.183594-25.832031 2.558594-38.175781-13.394531-29.210938-30.742187-56.441406-51.546875-80.929688 11.921875-9.628906 24.464844-18.464844 37.546875-26.453125 9.425781-5.835937 15.753906-15.578125 17.246094-26.566406zm-26.054688 11.945313c-16.296875 9.945312-31.792969 21.152343-46.34375 33.511718-1.742187 1.488282-2.816406 3.613282-2.976562 5.898438-.160157 2.285156.605469 4.539062 2.125 6.253906 22.21875 24.925781 40.605469 53.019531 54.550781 83.363281 3.25 7.058594 2.722656 15.285157-1.40625 21.871094-2.714844 4.636719-7.632812 7.535156-13.003906 7.667969h-4.917969c-6.613281-.320313-12.398437-4.558594-14.703125-10.765625-12.042969-26.761719-27.847656-51.664063-46.933594-73.953125-1.621094-1.917969-4.003906-3.027344-6.519531-3.027344-2.511719 0-4.894531 1.109375-6.519531 3.027344-19.085938 22.289062-34.886719 47.191406-46.929688 73.953125-2.3125 6.230469-8.132812 10.472656-14.773437 10.765625h-4.914063c-5.355468-.128906-10.265625-3.011719-12.988281-7.628906-4.121094-6.585938-4.652344-14.804688-1.417969-21.867188 13.953125-30.339844 32.34375-58.433594 54.5625-83.363281 1.519532-1.714844 2.285156-3.96875 2.125-6.253907-.160156-2.285156-1.234375-4.410156-2.976562-5.898437-14.550782-12.359375-30.046875-23.566406-46.34375-33.511719-5.066406-3.226562-8.429688-8.546875-9.175782-14.503906-1.421874-7.933594 1.808594-15.984375 8.320313-20.730469 4.539063-3.230469 10.589844-3.378906 15.285156-.375 21.25 12.722657 41.378907 27.230469 60.167969 43.367188 3.191406 2.730469 7.898438 2.730469 11.09375 0 18.785156-16.132813 38.910156-30.632813 60.160156-43.347657 4.691406-3.007812 10.742188-2.859374 15.28125.375 6.539063 4.777344 9.761719 12.882813 8.296875 20.847657-.757812 5.90625-4.101562 11.167969-9.125 14.367187zm0 0"/></svg>