<svg height="511pt" viewBox="0 0 511 511.98966" width="511pt" xmlns="http://www.w3.org/2000/svg"><path d="m170.855469 61.351562-27.375-49.273437c-.835938-2.601563-2.277344-4.96875-4.207031-6.902344-.179688-.171875-.394532-.28125-.5625-.445312-.171876-.160157-.324219-.261719-.496094-.382813-8.105469-6.953125-21.410156-5.589844-39.707032 4.265625-18.507812 10.632813-35.4375 23.792969-50.300781 39.109375-15.320312 14.863282-28.484375 31.792969-39.117187 50.296875-9.847656 18.277344-11.179688 31.589844-4.269532 39.703125.128907.171875.257813.332032.402344.503906.144532.171876.265625.394532.433594.5625 1.808594 1.792969 4.007812 3.144532 6.425781 3.945313l49.613281 27.550781c3.996094 3.226563 9.019532 4.894532 14.148438 4.703125 1.613281-.003906 3.21875-.121093 4.8125-.347656 4.183594-.664063 8.277344-1.808594 12.195312-3.414063l68.515626 93.148438c-11.332032 21.710938-13.152344 38.777344-5.171876 48.785156l42.453126 78.839844c.394531.730469.894531 1.398438 1.476562 1.988281 4.097656 3.921875 9.625 5.988281 15.289062 5.71875 13.925782-1.328125 27.300782-6.101562 38.921876-13.886719 17.117187-10.25 33.257812-22.050781 48.214843-35.257812l116.351563 116.386719c.589844.585937 1.257812 1.085937 1.988281 1.484375l79 42.539062c3.320313 1.785156 7.414063 1.179688 10.078125-1.484375 2.664062-2.664062 3.265625-6.761719 1.476562-10.078125l-42.496093-78.996094c-.394531-.734374-.894531-1.40625-1.484375-1.996093l-116.421875-116.351563c35.664062-41.171875 60.707031-85.136718 43.460937-102.398437-.589844-.582031-1.257812-1.078125-1.988281-1.476563l-78.871094-42.496094c-10.019531-7.953124-27.070312-6.144531-48.761719 5.1875l-93.15625-68.523437c1.59375-3.90625 2.730469-7.988281 3.386719-12.160156 1.390625-6.601563-.164062-13.484375-4.257812-18.847657zm-110.585938-1.5625c32.113281-32.121093 57.269531-42.855468 65.085938-42.855468.492187.003906.980469.089844 1.441406.257812l.675781 1.21875c.699219 6.902344-9.660156 32.632813-42.804687 65.765625-33.144531 33.136719-58.71875 43.4375-65.570313 42.957031l-1.449218-.851562c-1.714844-5.445312 8.027343-31.898438 42.621093-66.492188zm18.066407 97.9375c-3.414063.496094-5.324219 0-5.914063-.625-.308594-.238281-.632813-.453124-.972656-.648437-.285157-.277344-.589844-.539063-.914063-.773437l-30.8125-17.128907c21.265625-10.777343 40.546875-25.082031 57.027344-42.308593 15.316406-14.863282 28.480469-31.789063 39.109375-50.292969 1.230469-2.28125 2.304687-4.464844 3.269531-6.589844l17.066406 30.71875c.382813.695313.859376 1.328125 1.414063 1.886719.582031.582031 1.09375 2.476562.609375 5.972656-1.382812 10.242188-11.511719 29.339844-30.996094 48.839844-20.847656 20.769531-39.335937 29.660156-48.886718 30.949218zm376.105468 271.878907 28.460938 52.847656-52.8125-28.492187-114.867188-114.824219c4.164063-3.882813 8.320313-7.84375 12.433594-11.949219 4.113281-4.101562 8.027344-8.222656 11.945312-12.441406zm-71.535156-217.222657c3.875 7.585938-13.019531 48.425782-67.316406 102.730469-20.859375 21.476563-44.308594 40.277344-69.804688 55.972657-21.023437 12.175781-30.464844 12.148437-32.996094 11.210937l-32.90625-61.097656c9.132813-1.410157 17.957032-4.363281 26.09375-8.738281 22.554688-12.132813 43.101563-27.675782 60.914063-46.082032 28.515625-28.515625 51.777344-62.796875 54.714844-87.039062zm-123.65625-34.46875 14.953125 10.445313c2.492187 1.890625 5.816406 2.265625 8.667969.976563 2.847656-1.285157 4.765625-4.03125 4.996094-7.148438.230468-3.117188-1.265626-6.113281-3.894532-7.804688l-3.183594-2.226562c12.921876-5.453125 20.480469-5.121094 22.648438-2.988281 6.195312 6.203125-5.34375 41.882812-48.640625 85.171875-16.511719 17.101562-35.558594 31.554687-56.472656 42.855468-15.789063 7.894532-25.933594 8.53125-28.699219 5.757813-2.15625-2.15625-2.472656-9.71875 2.980469-22.644531l2.234375 3.191406c1.722656 2.558594 4.695312 3.988281 7.769531 3.738281 3.078125-.25 5.777344-2.140625 7.066406-4.945312 1.285157-2.804688.957031-6.085938-.859375-8.582031l-10.570312-15.113282-69.976563-95.09375c11.25-7.007812 21.636719-15.3125 30.945313-24.746094 9.429687-9.3125 17.738281-19.695312 24.746094-30.945312zm0 0"/></svg>