<svg height="512pt" viewBox="-85 0 512 512.04277" width="512pt" xmlns="http://www.w3.org/2000/svg"><path d="m341.355469 486.441406v-426.664062c0-14.140625-11.460938-25.601563-25.601563-25.601563h-103.253906c-4.035156-19.886719-21.519531-34.175781-41.8125-34.175781-20.289062 0-37.773438 14.289062-41.8125 34.175781h-103.253906c-14.136719 0-25.6015628 11.460938-25.6015628 25.601563v426.664062c0 14.140625 11.4648438 25.601563 25.6015628 25.601563h290.132812c14.140625 0 25.601563-11.460938 25.601563-25.601563zm-254.429688-401.066406c3.601563 10.191406 13.21875 17.023438 24.027344 17.066406h119.46875c10.808594-.042968 20.425781-6.875 24.03125-17.066406h35.703125v375.46875h-238.933594v-375.46875zm83.761719-68.265625c10.808594.042969 20.425781 6.875 24.03125 17.066406h-48.0625c3.605469-10.191406 13.222656-17.023437 24.03125-17.066406zm68.265625 34.132813v25.601562c0 4.710938-3.820313 8.53125-8.53125 8.53125h-119.46875c-4.710937 0-8.53125-3.820312-8.53125-8.53125v-25.601562zm85.335937 435.199218c0 4.714844-3.820312 8.535156-8.535156 8.535156h-290.132812c-4.710938 0-8.53125-3.820312-8.53125-8.535156v-426.664062c0-4.714844 3.820312-8.535156 8.53125-8.535156h59.734375v17.066406h-42.667969c-4.710938 0-8.53125 3.820312-8.53125 8.535156v392.53125c0 4.714844 3.820312 8.535156 8.53125 8.535156h256c4.714844 0 8.535156-3.820312 8.535156-8.535156v-392.53125c0-4.714844-3.820312-8.535156-8.535156-8.535156h-42.667969v-17.066406h59.734375c4.714844 0 8.535156 3.820312 8.535156 8.535156zm0 0"/><path d="m76.820312 401.109375h25.601563c4.710937 0 8.53125-3.820313 8.53125-8.535156 0-4.710938-3.820313-8.53125-8.53125-8.53125h-25.601563c-4.710937 0-8.53125 3.820312-8.53125 8.53125 0 4.714843 3.820313 8.535156 8.53125 8.535156zm0 0"/><path d="m264.554688 384.042969h-128c-4.710938 0-8.535157 3.820312-8.535157 8.53125 0 4.714843 3.824219 8.535156 8.535157 8.535156h128c4.710937 0 8.535156-3.820313 8.535156-8.535156 0-4.710938-3.824219-8.53125-8.535156-8.53125zm0 0"/><path d="m264.554688 418.175781h-25.601563c-4.710937 0-8.53125 3.820313-8.53125 8.535157 0 4.710937 3.820313 8.53125 8.53125 8.53125h25.601563c4.710937 0 8.535156-3.820313 8.535156-8.53125 0-4.714844-3.824219-8.535157-8.535156-8.535157zm0 0"/><path d="m76.820312 435.242188h128c4.714844 0 8.535157-3.820313 8.535157-8.53125 0-4.714844-3.820313-8.535157-8.535157-8.535157h-128c-4.710937 0-8.53125 3.820313-8.53125 8.535157 0 4.710937 3.820313 8.53125 8.53125 8.53125zm0 0"/><path d="m76.820312 136.574219h25.601563c4.710937 0 8.53125-3.820313 8.53125-8.53125 0-4.714844-3.820313-8.535157-8.53125-8.535157h-25.601563c-4.710937 0-8.53125 3.820313-8.53125 8.535157 0 4.710937 3.820313 8.53125 8.53125 8.53125zm0 0"/><path d="m136.554688 136.574219h128c4.710937 0 8.535156-3.820313 8.535156-8.53125 0-4.714844-3.824219-8.535157-8.535156-8.535157h-128c-4.710938 0-8.535157 3.820313-8.535157 8.535157 0 4.710937 3.824219 8.53125 8.535157 8.53125zm0 0"/><path d="m97.582031 240.605469-26.222656 21.855469c-1.738281 1.449218-2.832031 3.527343-3.035156 5.785156-.207031 2.253906.492187 4.5 1.945312 6.238281l67.410157 80.894531c1.625 1.941406 4.023437 3.066406 6.554687 3.0625h.265625c2.625-.078125 5.066406-1.363281 6.621094-3.480468l120.320312-164.042969c2.765625-3.773438 1.980469-9.0625-1.757812-11.871094l-27.308594-20.480469c-1.824219-1.371094-4.125-1.949218-6.382812-1.613281-2.257813.339844-4.285157 1.570313-5.628907 3.414063l-87.980469 120.660156-32.777343-39.328125c-1.449219-1.742188-3.527344-2.832031-5.785157-3.039063-2.253906-.203125-4.5.496094-6.238281 1.945313zm45.519531 62.8125c2.625-.085938 5.0625-1.375 6.613282-3.496094l89.332031-122.515625 13.65625 10.242188-108.878906 148.480468-54.960938-65.964844 13.113281-10.921874 34.3125 41.175781c1.671876 2.015625 4.195313 3.128906 6.8125 3zm0 0"/></svg>