<svg height="512pt" viewBox="0 0 512 512" width="512pt" xmlns="http://www.w3.org/2000/svg"><path d="m511.609375 432.640625-83.449219-267.09375c-2.222656-7.148437-8.859375-12-16.339844-11.945313h-45.320312c.21875-2.824218.433594-5.652343.433594-8.535156.003906-26.460937-9.5-52.042968-26.785156-72.082031l21.785156-21.785156h30.601562c4.710938 0 8.53125-3.820313 8.53125-8.53125 0-4.714844-3.820312-8.535157-8.53125-8.535157h-13.535156l19.566406-19.566406c3.234375-3.347656 3.1875-8.671875-.105468-11.960937-3.289063-3.292969-8.613282-3.339844-11.960938-.105469l-19.566406 19.566406v-13.53125c0-4.714844-3.820313-8.535156-8.535156-8.535156-4.710938 0-8.53125 3.820312-8.53125 8.535156v30.597656l-21.785157 21.785157c-32.847656-28.25-79.148437-34.757813-118.511719-16.660157-39.363281 18.097657-64.566406 57.484376-64.503906 100.808594 0 2.882813.214844 5.710938.433594 8.535156h-45.320312c-7.480469-.050781-14.117188 4.800782-16.339844 11.945313l-83.457032 267.09375c-.074218.421875-.117187.851563-.125 1.28125-.121093.417969-.2070308.84375-.257812 1.277344v51.199219c0 14.140624 11.460938 25.601562 25.601562 25.601562h460.796876c14.140624 0 25.601562-11.460938 25.601562-25.601562v-51.199219c-.046875-.4375-.136719-.871094-.265625-1.296875-.007813-.421875-.050781-.84375-.125-1.261719zm-34.1875-52.207031 14.441406 46.234375h-72.585937c23.988281-8.496094 44.453125-24.765625 58.144531-46.21875zm-149.058594 46.019531c16.085938-16.699219 38.664063-44.203125 41.070313-69.042969 20.753906 10.972656 58.273437 26.804688 90.308594 18.894532-28.765626 41.195312-96.929688 48.945312-131.378907 50.148437zm-72.363281-375.253906c21.945312-.011719 43.191406 7.699219 60.023438 21.777343l-12.144532 12.144532c-31.917968-25.515625-78.210937-21.652344-105.457031 8.800781s-25.957031 76.890625 2.9375 105.785156 75.332031 30.183594 105.785156 2.9375c30.453125-27.246093 34.316407-73.539062 8.800781-105.457031l12.144532-12.144531c28.097656 33.800781 28.960937 82.578125 2.078125 117.351562-26.882813 34.773438-74.300781 46.222657-114.089844 27.542969-39.785156-18.675781-61.273437-62.476562-51.691406-105.371094 9.582031-42.898437 47.660156-73.390625 91.613281-73.367187zm59.734375 93.867187c.101563 27.828125-18.953125 52.074219-46.019531 58.550782-27.066406 6.472656-55.03125-6.523438-67.53125-31.386719-12.503906-24.863281-6.261719-55.058594 15.078125-72.925781 21.339843-17.863282 52.164062-18.703126 74.441406-2.023438l-12.210937 12.210938c-18.324219-12.128907-42.855469-8.410157-56.757813 8.609374-13.90625 17.015626-12.660156 41.796876 2.878906 57.335938 15.535157 15.539062 40.320313 16.78125 57.335938 2.878906s20.738281-38.433594 8.609375-56.757812l12.226562-12.195313c7.753906 10.289063 11.949219 22.820313 11.949219 35.703125zm-34.132813 0c0 14.140625-11.464843 25.601563-25.601562 25.601563s-25.601562-11.460938-25.601562-25.601563c0-14.136718 11.464843-25.601562 25.601562-25.601562 3.800781.015625 7.550781.890625 10.964844 2.5625l-16.996094 16.996094c-2.21875 2.144531-3.109375 5.316406-2.328125 8.300781s3.109375 5.3125 6.09375 6.09375 6.15625-.109375 8.296875-2.328125l17.007812-16.988282c1.671876 3.414063 2.546876 7.164063 2.5625 10.964844zm-181.421874 25.601563h47.984374c11.816407 50 56.457032 85.324219 107.835938 85.324219s96.019531-35.324219 107.835938-85.324219h48.035156l57.171875 183.074219c-38.023438 24.652343-105.242188-19.269532-105.941407-19.722657-3.21875-2.144531-7.476562-1.855469-10.375.707031-2.902343 2.558594-3.71875 6.746094-1.988281 10.207032 11.09375 22.121094-29.371093 65.628906-47.097656 81.75h-283.503906zm386.21875 324.265625h-460.796876c-4.714843 0-8.535156-3.820313-8.535156-8.535156v-8.53125h76.800782c4.710937 0 8.53125-3.820313 8.53125-8.535157 0-4.710937-3.820313-8.53125-8.53125-8.53125h-76.800782v-17.066406h297.089844c1.457031 0 3.070312.042969 4.886719.042969 1.476562 0 3.097656 0 4.789062-.042969h171.101563v17.066406h-324.265625c-4.714844 0-8.535157 3.820313-8.535157 8.53125 0 4.714844 3.820313 8.535157 8.535157 8.535157h324.265625v8.53125c0 4.714843-3.820313 8.535156-8.535156 8.535156zm0 0"/></svg>