<svg height="512pt" viewBox="-85 0 512 512.04445" width="512pt" xmlns="http://www.w3.org/2000/svg"><path d="m341.355469 409.644531v-349.867187c0-14.140625-11.460938-25.601563-25.601563-25.601563h-103.25c-4.039062-19.886719-21.523437-34.175781-41.816406-34.175781-20.289062 0-37.773438 14.289062-41.8125 34.175781h-103.253906c-14.136719 0-25.5976565 11.460938-25.5976565 25.601563v349.867187c0 14.136719 11.4609375 25.597657 25.5976565 25.597657h47.632812l-13.328125 66.5625c-.617187 3.089843.519531 6.269531 2.957031 8.269531 2.441407 1.996093 5.78125 2.488281 8.691407 1.277343l99.113281-41.265624 99.117188 41.300781c2.914062 1.214843 6.265624.722656 8.707031-1.285157 2.441406-2.007812 3.574219-5.203124 2.941406-8.296874l-13.332031-66.5625h47.632812c14.140625 0 25.601563-11.460938 25.601563-25.597657zm-100.957031-112.941406c28.183593-25.988281 39.320312-65.640625 28.78125-102.5-.085938-.28125-.109376-.566406-.222657-.855469-.269531-.953125-.535156-1.910156-.851562-2.859375-.042969-.195312-.144531-.375-.203125-.570312-13.78125-42.019531-53-70.433594-97.222656-70.433594-44.222657 0-83.4375 28.414063-97.21875 70.433594-.0625.195312-.164063.375-.207032.570312-.304687.949219-.570312 1.90625-.851562 2.859375-.089844.28125-.160156.566406-.214844.855469-10.550781 36.859375.582031 76.515625 28.777344 102.5l-17.46875 87.339844h-32.273438v-298.667969h35.703125c3.601563 10.191406 13.21875 17.023438 24.03125 17.066406h119.464844c10.808594-.042968 20.425781-6.875 24.03125-17.066406h35.703125v298.667969h-32.273438zm-69.710938 10.539063c-13.195312-.011719-26.210938-3.109376-37.996094-9.042969l37.996094-19.117188 38 19.125c-11.789062 5.933594-24.800781 9.027344-38 9.035157zm85.335938-85.332032c-.015626 21.15625-7.925782 41.546875-22.1875 57.171875l-6.996094-39.097656 28.738281-26.769531c.296875 2.886718.441406 5.789062.445313 8.695312zm-126.449219 8.773438-33.824219-31.5 47.09375-6.542969c2.746094-.378906 5.136719-2.070313 6.410156-4.53125l21.433594-41.480469 21.4375 41.480469c1.273438 2.460937 3.664062 4.152344 6.40625 4.53125l47.097656 6.542969-33.828125 31.5c-2.109375 1.980468-3.074219 4.898437-2.558593 7.746094l8.046874 44.980468-42.75-21.503906c-2.414062-1.226562-5.269531-1.226562-7.679687 0l-42.753906 21.503906 8.046875-44.980468c.511718-2.851563-.457032-5.769532-2.578125-7.746094zm75.683593-54.332032-19.847656-38.402343c25.929688 4.578125 48.304688 20.84375 60.664063 44.09375zm-69.121093 0-40.8125 5.671876c12.355469-23.25 34.730469-39.511719 60.660156-44.089844zm-50.347657 36.878907 28.75 26.769531-6.996093 39.082031c-14.261719-15.625-22.175781-36.015625-22.1875-57.171875 0-2.898437.148437-5.796875.445312-8.679687zm84.898438-196.121094c10.8125.042969 20.429688 6.875 24.03125 17.066406h-48.058594c3.601563-10.191406 13.21875-17.023437 24.027344-17.066406zm68.269531 34.132813v25.601562c0 4.710938-3.820312 8.53125-8.535156 8.53125h-119.464844c-4.714843 0-8.535156-3.820312-8.535156-8.53125v-25.601562zm-213.335937 366.933593c-4.710938 0-8.53125-3.820312-8.53125-8.53125v-349.867187c0-4.714844 3.820312-8.535156 8.53125-8.535156h59.734375v17.066406h-42.667969c-4.710938 0-8.53125 3.820312-8.53125 8.535156v315.730469c0 4.714843 3.820312 8.535156 8.53125 8.535156h37.394531l-3.414062 17.066406zm90.453125-109.804687c13.878906 8.820312 29.691406 14.140625 46.082031 15.503906v131.277344l-82.347656 34.3125zm63.148437 146.769531v-131.265625c16.386719-1.363281 32.199219-6.683594 46.078125-15.503906l36.269531 181.09375zm82.074219-54.03125h37.390625c4.714844 0 8.535156-3.820313 8.535156-8.535156v-315.730469c0-4.714844-3.820312-8.535156-8.535156-8.535156h-42.664062v-17.066406h59.730468c4.714844 0 8.535156 3.820312 8.535156 8.535156v349.867187c0 4.710938-3.820312 8.53125-8.535156 8.53125h-51.042968zm0 0"/></svg>