<svg height="512pt" viewBox="-60 0 512 512.04277" width="512pt" xmlns="http://www.w3.org/2000/svg"><path d="m25.621094 512.042969h341.332031c14.140625 0 25.601563-11.460938 25.601563-25.601563v-426.664062c0-14.140625-11.460938-25.601563-25.601563-25.601563h-128.851563c-4.039062-19.886719-21.523437-34.175781-41.8125-34.175781-20.292968 0-37.777343 14.289062-41.8125 34.175781h-128.855468c-14.136719 0-25.6015628 11.460938-25.6015628 25.601563v426.664062c0 14.140625 11.4648438 25.601563 25.6015628 25.601563zm86.902344-426.667969c3.605468 10.191406 13.222656 17.023438 24.03125 17.066406h119.464843c10.8125-.042968 20.429688-6.875 24.03125-17.066406h52.769531c4.714844 0 8.535157 3.820312 8.535157 8.535156v71.328125c.007812 1.78125-.550781 3.515625-1.589844 4.960938l-26.820313 37.542969c-1.523437 2.136718-3.945312 3.453124-6.570312 3.570312-2.597656.042969-5.085938-1.039062-6.824219-2.972656l-22.351562-26.085938c-5.214844-6.085937-12.980469-9.382812-20.980469-8.898437-8.003906.480469-15.320312 4.6875-19.765625 11.355469l-10.980469 16.4375c-1.363281 2.027343-3.523437 3.371093-5.945312 3.699218-2.417969.324219-4.859375-.398437-6.710938-1.992187l-33.109375-28.390625c-10.183593-8.636719-25.28125-8.050782-34.765625 1.347656l-22.390625 22.390625c-2.691406 2.691406-6.84375 3.273437-10.171875 1.425781l-56.769531-31.574218c-2.6875-1.492188-4.363281-4.316407-4.386719-7.390626v-66.753906c0-4.714844 3.820313-8.535156 8.53125-8.535156zm83.765624-68.265625c10.808594.042969 20.425782 6.875 24.027344 17.066406h-48.058594c3.605469-10.191406 13.21875-17.023437 24.03125-17.066406zm68.265626 34.132813v25.601562c0 4.710938-3.820313 8.53125-8.535157 8.53125h-119.464843c-4.710938 0-8.535157-3.820312-8.535157-8.53125v-25.601562zm-247.464844 8.535156c0-4.714844 3.820312-8.535156 8.53125-8.535156h85.332031v17.066406h-51.199219c-14.136718 0-25.597656 11.460937-25.597656 25.601562v66.753906c0 9.296876 5.039062 17.863282 13.164062 22.375l56.773438 31.574219c9.992188 5.507813 22.421875 3.773438 30.523438-4.265625l22.417968-22.425781c3.152344-3.160156 8.207032-3.359375 11.597656-.453125l33.097657 28.382812c5.5625 4.769532 12.902343 6.925782 20.160156 5.925782s13.742187-5.0625 17.804687-11.15625l10.949219-16.4375c1.476563-2.226563 3.914063-3.636719 6.582031-3.804688 2.667969-.167968 5.261719.925782 7.003907 2.953125l22.355469 26.09375c4.847656 5.683594 11.945312 8.949219 19.414062 8.933594h1.160156c7.867188-.332031 15.136719-4.289063 19.6875-10.714844l26.820313-37.546875c3.101562-4.332031 4.765625-9.53125 4.753906-14.859375v-71.328125c0-14.140625-11.460937-25.601562-25.601563-25.601562h-51.199218v-17.066406h85.332031c4.714844 0 8.535156 3.820312 8.535156 8.535156v426.664062c0 4.714844-3.820312 8.535156-8.535156 8.535156h-341.332031c-4.710938 0-8.53125-3.820312-8.53125-8.535156zm0 0"/><path d="m59.753906 477.910156h273.066406c14.140626 0 25.601563-11.460937 25.601563-25.601562v-160.621094c0-9.296875-5.042969-17.859375-13.167969-22.375l-56.773437-31.574219c-9.992188-5.503906-22.417969-3.765625-30.523438 4.265625l-22.414062 22.425782c-3.167969 3.128906-8.199219 3.328124-11.597657.453124l-33.074218-28.382812c-5.5625-4.769531-12.902344-6.925781-20.160156-5.925781-7.257813 1-13.742188 5.0625-17.804688 11.15625l-10.949219 16.4375c-1.476562 2.230469-3.914062 3.636719-6.582031 3.804687-2.667969.167969-5.261719-.925781-7.003906-2.953125l-22.355469-26.09375c-5.125-5.972656-12.710937-9.257812-20.574219-8.910156-7.859375.351563-15.125 4.296875-19.695312 10.703125l-26.820313 37.546875c-3.109375 4.324219-4.777343 9.519531-4.769531 14.847656v165.195313c0 14.140625 11.460938 25.601562 25.597656 25.601562zm-8.53125-190.796875c-.007812-1.78125.546875-3.515625 1.585938-4.957031l26.820312-37.546875c1.523438-2.136719 3.949219-3.453125 6.570313-3.566406h.394531c2.488281-.007813 4.851562 1.082031 6.464844 2.976562l22.351562 26.085938c5.214844 6.089843 12.980469 9.382812 20.984375 8.902343 8-.484374 15.316407-4.6875 19.761719-11.359374l10.949219-16.425782c1.359375-2.027344 3.523437-3.375 5.941406-3.699218 2.421875-.328126 4.863281.398437 6.710937 1.992187l33.109376 28.390625c10.183593 8.636719 25.28125 8.050781 34.765624-1.347656l22.390626-22.394532c2.703124-2.671874 6.839843-3.253906 10.171874-1.421874l56.773438 31.570312c2.707031 1.507812 4.386719 4.363281 4.386719 7.460938v160.535156c0 4.714844-3.820313 8.535156-8.535157 8.535156h-273.066406c-4.710937 0-8.53125-3.820312-8.53125-8.535156zm0 0"/><path d="m85.355469 332.84375h17.066406c4.710937 0 8.53125-3.820312 8.53125-8.535156 0-4.710938-3.820313-8.53125-8.53125-8.53125h-17.066406c-4.714844 0-8.535157 3.820312-8.535157 8.53125 0 4.714844 3.820313 8.535156 8.535157 8.535156zm0 0"/><path d="m136.554688 332.84375h179.199218c4.714844 0 8.535156-3.820312 8.535156-8.535156 0-4.710938-3.820312-8.53125-8.535156-8.53125h-179.199218c-4.710938 0-8.535157 3.820312-8.535157 8.53125 0 4.714844 3.824219 8.535156 8.535157 8.535156zm0 0"/><path d="m315.753906 349.910156h-17.066406c-4.710938 0-8.53125 3.820313-8.53125 8.53125 0 4.714844 3.820312 8.535156 8.53125 8.535156h17.066406c4.714844 0 8.535156-3.820312 8.535156-8.535156 0-4.710937-3.820312-8.53125-8.535156-8.53125zm0 0"/><path d="m85.355469 366.976562h179.199219c4.710937 0 8.535156-3.820312 8.535156-8.535156 0-4.710937-3.824219-8.53125-8.535156-8.53125h-179.199219c-4.714844 0-8.535157 3.820313-8.535157 8.53125 0 4.714844 3.820313 8.535156 8.535157 8.535156zm0 0"/><path d="m85.355469 401.109375h68.265625c4.714844 0 8.535156-3.820313 8.535156-8.535156 0-4.710938-3.820312-8.53125-8.535156-8.53125h-68.265625c-4.714844 0-8.535157 3.820312-8.535157 8.53125 0 4.714843 3.820313 8.535156 8.535157 8.535156zm0 0"/><path d="m238.953125 384.042969h-51.199219c-4.710937 0-8.53125 3.820312-8.53125 8.53125 0 4.714843 3.820313 8.535156 8.53125 8.535156h51.199219c4.714844 0 8.535156-3.820313 8.535156-8.535156 0-4.710938-3.820312-8.53125-8.535156-8.53125zm0 0"/></svg>