<svg height="512pt" viewBox="-51 0 512 512" width="512pt" xmlns="http://www.w3.org/2000/svg"><path d="m42.667969 0c-23.554688.0273438-42.6406252 19.113281-42.667969 42.667969v426.664062c.0273438 23.554688 19.113281 42.640625 42.667969 42.667969h324.265625c23.550781-.027344 42.636718-19.113281 42.667968-42.667969v-426.664062c-.03125-23.554688-19.117187-42.6406252-42.667968-42.667969zm349.867187 42.667969v426.664062c0 14.140625-11.464844 25.601563-25.601562 25.601563h-324.265625c-14.140625 0-25.601563-11.460938-25.601563-25.601563v-426.664062c0-14.140625 11.460938-25.601563 25.601563-25.601563h324.265625c14.136718 0 25.601562 11.460938 25.601562 25.601563zm0 0"/><path d="m51.199219 42.667969c-9.425781 0-17.066407 7.640625-17.066407 17.066406v392.53125c0 9.425781 7.640626 17.066406 17.066407 17.066406h307.199219c9.425781 0 17.066406-7.640625 17.066406-17.066406v-392.53125c0-9.425781-7.640625-17.066406-17.066406-17.066406zm307.199219 102.398437h-187.730469v-85.332031h187.730469zm-204.796876 102.398438h-102.402343v-85.332032h102.402343zm17.066407-85.332032h187.730469v85.332032h-187.730469zm-119.46875 102.402344h102.402343v85.332032h-102.402343zm119.46875 0h187.730469v85.332032h-187.730469zm-17.066407-204.800781v85.332031h-102.402343v-85.332031zm-102.402343 307.199219h102.402343v85.332031h-102.402343zm119.46875 85.332031v-85.332031h187.730469v85.332031zm0 0"/><path d="m87.832031 125.5c3.332031 3.332031 8.734375 3.332031 12.066407 0l34.132812-34.132812c3.234375-3.347657 3.191406-8.671876-.101562-11.964844-3.292969-3.289063-8.613282-3.335938-11.960938-.101563l-28.101562 28.101563-11.035157-11.035156c-3.347656-3.234376-8.667969-3.1875-11.960937.105468-3.292969 3.289063-3.339844 8.613282-.105469 11.960938zm0 0"/><path d="m70.765625 210.832031 17.066406 17.066407c3.332031 3.332031 8.734375 3.332031 12.066407 0l34.132812-34.132813c3.234375-3.347656 3.191406-8.667969-.101562-11.960937-3.292969-3.292969-8.613282-3.339844-11.960938-.105469l-28.101562 28.101562-11.035157-11.035156c-3.347656-3.234375-8.667969-3.1875-11.960937.105469-3.292969 3.292968-3.339844 8.613281-.105469 11.960937zm0 0"/><path d="m134.03125 284.101562c-3.332031-3.332031-8.730469-3.332031-12.0625 0l-28.101562 28.097657-11.035157-11.03125c-3.347656-3.234375-8.667969-3.1875-11.960937.101562-3.292969 3.292969-3.339844 8.617188-.105469 11.964844l17.066406 17.066406c3.332031 3.332031 8.734375 3.332031 12.066407 0l34.132812-34.132812c3.332031-3.332031 3.332031-8.734375 0-12.066407zm0 0"/><path d="m134.03125 386.5c-3.332031-3.332031-8.730469-3.332031-12.0625 0l-28.101562 28.101562-11.035157-11.035156c-3.347656-3.234375-8.667969-3.1875-11.960937.105469-3.292969 3.289063-3.339844 8.613281-.105469 11.960937l17.066406 17.066407c3.332031 3.332031 8.734375 3.332031 12.066407 0l34.132812-34.132813c3.332031-3.332031 3.332031-8.734375 0-12.066406zm0 0"/><path d="m204.800781 128h119.464844c9.425781 0 17.066406-7.640625 17.066406-17.066406v-17.066406c0-9.425782-7.640625-17.066407-17.066406-17.066407h-119.464844c-9.425781 0-17.066406 7.640625-17.066406 17.066407v17.066406c0 9.425781 7.640625 17.066406 17.066406 17.066406zm119.464844-17.066406h-68.265625v-17.066406h68.265625zm-119.464844-17.066406h34.132813v17.066406h-34.132813zm0 0"/><path d="m324.265625 179.199219h-119.464844c-9.425781 0-17.066406 7.640625-17.066406 17.066406v17.066406c0 9.425781 7.640625 17.066407 17.066406 17.066407h119.464844c9.425781 0 17.066406-7.640626 17.066406-17.066407v-17.066406c0-9.425781-7.640625-17.066406-17.066406-17.066406zm-119.464844 17.066406h76.800781v17.066406h-76.800781zm93.867188 17.066406v-17.066406h25.597656v17.066406zm0 0"/><path d="m324.265625 281.601562h-119.464844c-9.425781 0-17.066406 7.640626-17.066406 17.066407v17.066406c0 9.425781 7.640625 17.066406 17.066406 17.066406h119.464844c9.425781 0 17.066406-7.640625 17.066406-17.066406v-17.066406c0-9.425781-7.640625-17.066407-17.066406-17.066407zm-119.464844 17.066407h34.132813v17.066406h-34.132813zm51.199219 17.066406v-17.066406h68.265625v17.066406zm0 0"/><path d="m324.265625 384h-119.464844c-9.425781 0-17.066406 7.640625-17.066406 17.066406v17.066406c0 9.425782 7.640625 17.066407 17.066406 17.066407h119.464844c9.425781 0 17.066406-7.640625 17.066406-17.066407v-17.066406c0-9.425781-7.640625-17.066406-17.066406-17.066406zm-119.464844 17.066406h85.332031v17.066406h-85.332031zm102.398438 17.066406v-17.066406h17.066406v17.066406zm0 0"/></svg>