<svg height="504pt" viewBox="-51 0 504 504.65574" width="504pt" xmlns="http://www.w3.org/2000/svg"><path d="m403.226562 152.132812c0-.179687-.089843-.328124-.097656-.503906-.050781-.761718-.203125-1.515625-.453125-2.234375-.082031-.265625-.171875-.53125-.277343-.789062-.394532-.871094-.929688-1.667969-1.585938-2.359375l-.050781-.058594-109.117188-109.113281-.050781-.035157c-.6875-.652343-1.484375-1.1875-2.347656-1.578124-.257813-.105469-.523438-.195313-.789063-.277344-.71875-.25-1.464843-.402344-2.226562-.453125-.183594-.015625-.335938-.109375-.511719-.109375h-144.257812c-1.550782-1.039063-3.039063-2.164063-4.675782-3.085938-13.605468-7.714844-29.339844-10.832031-44.863281-8.890625-9.0625-13.992187-24.546875-22.5-41.21875-22.644531-28.515625.773438-51.035156 24.46875-50.359375 52.988281-.144531 18.675781 9.453125 36.074219 25.332031 45.910157 0 .964843-.152343 1.90625-.152343 2.871093.019531 12.566407 2.890624 24.964844 8.394531 36.261719v341.445312c0 6.675782 2.652343 13.082032 7.375 17.804688 4.722656 4.722656 11.125 7.375 17.804687 7.375h318.949219c13.90625 0 25.179687-11.273438 25.179687-25.179688zm-109.113281-88.855468 80.460938 80.460937h-72.066407c-4.636718 0-8.394531-3.757812-8.394531-8.394531zm-186.335937 7.234375c6.480468 5.382812 10.183594 13.402343 10.074218 21.824219.519532 14.449218-10.734374 26.605468-25.179687 27.195312-7.539063-.074219-14.625-3.589844-19.246094-9.542969l-6.808593-6.808593c17.429687-6.402344 30.164062-21.558594 33.464843-39.835938zm-57.074219-53.726563c19.246094.773438 34.25 16.953125 33.574219 36.203125.671875 19.246094-14.332032 35.417969-33.574219 36.191407-19.242187-.773438-34.246094-16.945313-33.574219-36.191407-.675781-19.25 14.328125-35.429687 33.574219-36.203125zm-5.378906 88.871094 15.703125 15.664062c7.78125 9.476563 19.382812 14.988282 31.644531 15.03125 23.714844-.59375 42.480469-20.261718 41.964844-43.980468.167969-13.304688-5.65625-25.980469-15.863281-34.515625l-19.304688-17.960938c-.082031-.335937-.160156-.679687-.242188-1.015625 10.246094-.351562 20.390626 2.160156 29.292969 7.25 19.679688 11.570313 31.628907 32.816406 31.296875 55.640625 1.082032 33.578125-25.179687 61.71875-58.753906 62.953125-21.8125-.324218-41.617188-12.808594-51.316406-32.351562-4.335938-8.429688-6.800782-17.695313-7.234375-27.167969.929687.160156 1.863281.34375 2.8125.453125zm332.722656 382.210938h-318.949219c-4.636718 0-8.394531-3.757813-8.394531-8.390626v-318.507812c13.523437 13.0625 31.558594 20.417969 50.359375 20.539062 42.84375-1.238281 76.617188-36.890624 75.542969-79.738281.054687-18.207031-5.929688-35.917969-17.023438-50.359375h117.746094v83.933594c0 13.90625 11.273437 25.179688 25.179687 25.179688h83.933594v318.953124c0 4.632813-3.757812 8.390626-8.394531 8.390626zm0 0"/><path d="m92.671875 227.671875h33.574219c4.632812 0 8.390625-3.757813 8.390625-8.394531 0-4.632813-3.757813-8.390625-8.390625-8.390625h-33.574219c-4.636719 0-8.394531 3.757812-8.394531 8.390625 0 4.636718 3.757812 8.394531 8.394531 8.394531zm0 0"/><path d="m159.816406 227.671875h83.9375c4.632813 0 8.390625-3.757813 8.390625-8.394531 0-4.632813-3.757812-8.390625-8.390625-8.390625h-83.9375c-4.632812 0-8.390625 3.757812-8.390625 8.390625 0 4.636718 3.757813 8.394531 8.390625 8.394531zm0 0"/><path d="m277.328125 227.671875h67.144531c4.636719 0 8.394532-3.757813 8.394532-8.394531 0-4.632813-3.757813-8.390625-8.394532-8.390625h-67.144531c-4.636719 0-8.394531 3.757812-8.394531 8.390625 0 4.636718 3.757812 8.394531 8.394531 8.394531zm0 0"/><path d="m344.472656 278.03125h-33.574218c-4.632813 0-8.390626 3.757812-8.390626 8.394531s3.757813 8.394531 8.390626 8.394531h33.574218c4.636719 0 8.394532-3.757812 8.394532-8.394531s-3.757813-8.394531-8.394532-8.394531zm0 0"/><path d="m193.390625 278.03125c-4.632813 0-8.390625 3.757812-8.390625 8.394531s3.757812 8.394531 8.390625 8.394531h83.9375c4.632813 0 8.390625-3.757812 8.390625-8.394531s-3.757812-8.394531-8.390625-8.394531zm0 0"/><path d="m92.671875 294.820312h67.144531c4.636719 0 8.394532-3.757812 8.394532-8.394531s-3.757813-8.394531-8.394532-8.394531h-67.144531c-4.636719 0-8.394531 3.757812-8.394531 8.394531s3.757812 8.394531 8.394531 8.394531zm0 0"/><path d="m92.671875 261.246094h117.507813c4.632812 0 8.390624-3.757813 8.390624-8.394532 0-4.632812-3.757812-8.390624-8.390624-8.390624h-117.507813c-4.636719 0-8.394531 3.757812-8.394531 8.390624 0 4.636719 3.757812 8.394532 8.394531 8.394532zm0 0"/><path d="m344.472656 244.460938h-92.328125c-4.632812 0-8.390625 3.757812-8.390625 8.390624 0 4.636719 3.757813 8.394532 8.390625 8.394532h92.328125c4.636719 0 8.394532-3.757813 8.394532-8.394532 0-4.632812-3.757813-8.390624-8.394532-8.390624zm0 0"/><path d="m344.472656 328.394531h-251.800781c-9.273437 0-16.789063 7.515625-16.789063 16.785157v100.722656c0 9.269531 7.515626 16.785156 16.789063 16.785156h251.800781c9.273438 0 16.789063-7.515625 16.789063-16.785156v-100.722656c0-9.269532-7.515625-16.785157-16.789063-16.785157zm-251.800781 117.507813v-100.722656h251.800781v100.722656zm0 0"/><path d="m302.507812 370.359375h-167.871093c-4.632813 0-8.390625 3.757813-8.390625 8.394531 0 4.636719 3.757812 8.394532 8.390625 8.394532h167.871093c4.632813 0 8.390626-3.757813 8.390626-8.394532 0-4.636718-3.757813-8.394531-8.390626-8.394531zm0 0"/><path d="m302.507812 403.933594h-167.871093c-4.632813 0-8.390625 3.757812-8.390625 8.394531s3.757812 8.394531 8.390625 8.394531h167.871093c4.632813 0 8.390626-3.757812 8.390626-8.394531s-3.757813-8.394531-8.390626-8.394531zm0 0"/></svg>