<svg height="512pt" viewBox="0 0 512 512.01284" width="512pt" xmlns="http://www.w3.org/2000/svg"><path d="m469.339844 0h-426.667969c-23.550781.0273438-42.6367188 19.113281-42.6640625 42.667969v324.265625c.0273437 23.550781 19.1132815 42.636718 42.6640625 42.667968h151.042969c3.367187 0 6.417968 1.980469 7.789062 5.058594l39.253906 87.894532c2.914063 5.855468 8.925782 9.53125 15.464844 9.457031 6.542969-.074219 12.46875-3.878907 15.253906-9.800781l39.058594-87.558594c1.367188-3.066406 4.40625-5.042969 7.765625-5.050782h151.039063c23.550781-.03125 42.636718-19.117187 42.667968-42.667968v-324.265625c-.03125-23.554688-19.117187-42.6406252-42.667968-42.667969zm25.601562 366.933594c0 14.136718-11.464844 25.601562-25.601562 25.601562h-151.039063c-10.101562 0-19.257812 5.945313-23.375 15.171875l-38.757812 87.566407-39.066407-87.566407c-4.117187-9.234375-13.28125-15.175781-23.386718-15.171875h-151.042969c-14.136719 0-25.597656-11.464844-25.597656-25.601562v-324.265625c0-14.140625 11.460937-25.601563 25.597656-25.601563h426.667969c14.136718 0 25.601562 11.460938 25.601562 25.601563zm0 0"/><path d="m469.339844 341.332031c-4.714844 0-8.535156 3.820313-8.535156 8.535157 0 4.710937-3.820313 8.53125-8.53125 8.53125-4.714844 0-8.535157 3.820312-8.535157 8.535156 0 4.710937 3.820313 8.53125 8.535157 8.53125 14.136718 0 25.601562-11.460938 25.601562-25.597656 0-4.714844-3.824219-8.535157-8.535156-8.535157zm0 0"/><path d="m59.738281 34.132812c-14.136719 0-25.597656 11.460938-25.597656 25.601563 0 4.710937 3.820313 8.53125 8.53125 8.53125 4.714844 0 8.535156-3.820313 8.535156-8.53125 0-4.714844 3.820313-8.535156 8.53125-8.535156 4.714844 0 8.535157-3.820313 8.535157-8.53125 0-4.714844-3.820313-8.535157-8.535157-8.535157zm0 0"/><path d="m409.605469 59.734375h-17.066407v-8.535156c0-4.710938-3.820312-8.53125-8.53125-8.53125-4.714843 0-8.535156 3.820312-8.535156 8.53125v8.535156h-25.597656v-8.535156c0-4.710938-3.824219-8.53125-8.535156-8.53125-4.714844 0-8.535156 3.820312-8.535156 8.53125v8.535156h-25.597657v-8.535156c0-4.710938-3.820312-8.53125-8.535156-8.53125-4.710937 0-8.53125 3.820312-8.53125 8.53125v8.535156h-25.601563v-8.535156c0-4.710938-3.820312-8.53125-8.53125-8.53125-4.714843 0-8.535156 3.820312-8.535156 8.53125v8.535156h-25.597656v-8.535156c0-4.710938-3.824219-8.53125-8.535156-8.53125-4.714844 0-8.535156 3.820312-8.535156 8.53125v8.535156h-25.597657v-8.535156c0-4.710938-3.820312-8.53125-8.535156-8.53125-4.710937 0-8.53125 3.820312-8.53125 8.53125v8.535156h-25.601563v-8.535156c0-4.710938-3.820312-8.53125-8.53125-8.53125-4.714843 0-8.535156 3.820312-8.535156 8.53125v8.535156h-17.066406c-14.136719 0-25.601562 11.460937-25.601562 25.597656v256c0 14.140625 11.464843 25.601563 25.601562 25.601563h307.199219c14.140625 0 25.601562-11.460938 25.601562-25.601563v-256c0-14.136719-11.460937-25.597656-25.601562-25.597656zm-196.265625 68.265625v42.667969h-51.199219v-42.667969zm68.265625 0v42.667969h-51.199219v-42.667969zm68.269531 0v42.667969h-51.203125v-42.667969zm68.265625 0v42.667969h-51.199219v-42.667969zm-187.734375 102.398438v-42.664063h51.199219v42.664063zm51.199219 17.066406v42.667968h-51.199219v-42.667968zm-119.464844-59.730469h51.199219v42.664063h-51.199219zm-17.066406 42.664063h-51.199219v-42.664063h51.199219zm153.597656-42.664063h51.203125v42.664063h-51.203125zm68.269531 0h51.199219v42.664063h-51.199219zm-221.867187-17.066406h-51.199219v-42.667969h51.199219zm-51.199219 76.796875h51.199219v42.667968h-51.199219zm68.265625 0h51.199219v42.667968h-51.199219zm51.199219 59.734375v42.667969h-51.199219v-42.667969zm17.066406 0h51.199219v42.667969h-51.199219zm68.265625 0h51.203125v42.667969h-51.203125zm0-17.066407v-42.667968h51.203125v42.667968zm68.269531-42.667968h51.199219v42.667968h-51.199219zm-264.535156-170.664063h17.066406v8.53125c0 4.714844 3.820313 8.535157 8.535156 8.535157 4.710938 0 8.53125-3.820313 8.53125-8.535157v-8.53125h25.601563v8.53125c0 4.714844 3.820313 8.535157 8.53125 8.535157 4.714844 0 8.535156-3.820313 8.535156-8.535157v-8.53125h25.597657v8.53125c0 4.714844 3.820312 8.535157 8.535156 8.535157 4.710937 0 8.535156-3.820313 8.535156-8.535157v-8.53125h25.597656v8.53125c0 4.714844 3.820313 8.535157 8.535156 8.535157 4.710938 0 8.53125-3.820313 8.53125-8.535157v-8.53125h25.601563v8.53125c0 4.714844 3.820313 8.535157 8.53125 8.535157 4.714844 0 8.535156-3.820313 8.535156-8.535157v-8.53125h25.597657v8.53125c0 4.714844 3.820312 8.535157 8.535156 8.535157 4.710937 0 8.535156-3.820313 8.535156-8.535157v-8.53125h25.597656v8.53125c0 4.714844 3.820313 8.535157 8.535156 8.535157 4.710938 0 8.53125-3.820313 8.53125-8.535157v-8.53125h17.066407c4.714843 0 8.535156 3.820313 8.535156 8.53125v25.601563h-324.265625v-25.601563c0-4.710937 3.820312-8.53125 8.53125-8.53125zm-8.53125 264.53125v-34.132812h51.199219v42.667969h-42.667969c-4.710938 0-8.53125-3.820313-8.53125-8.535157zm315.730469 8.535157h-42.664063v-42.667969h51.199219v34.132812c0 4.714844-3.820313 8.535157-8.535156 8.535157zm0 0"/><path d="m42.671875 85.332031c-4.710937 0-8.53125 3.820313-8.53125 8.535157v17.066406c0 4.710937 3.820313 8.53125 8.53125 8.53125 4.714844 0 8.535156-3.820313 8.535156-8.53125v-17.066406c0-4.714844-3.820312-8.535157-8.535156-8.535157zm0 0"/><path d="m42.671875 136.535156c-4.710937 0-8.53125 3.820313-8.53125 8.53125v8.535156c0 4.710938 3.820313 8.53125 8.53125 8.53125 4.714844 0 8.535156-3.820312 8.535156-8.53125v-8.535156c0-4.710937-3.820312-8.53125-8.535156-8.53125zm0 0"/><path d="m469.339844 290.132812c-4.714844 0-8.535156 3.820313-8.535156 8.535157v17.066406c0 4.710937 3.820312 8.53125 8.535156 8.53125 4.710937 0 8.535156-3.820313 8.535156-8.53125v-17.066406c0-4.714844-3.824219-8.535157-8.535156-8.535157zm0 0"/><path d="m469.339844 247.464844c-4.714844 0-8.535156 3.824218-8.535156 8.535156v8.535156c0 4.710938 3.820312 8.53125 8.535156 8.53125 4.710937 0 8.535156-3.820312 8.535156-8.53125v-8.535156c0-4.710938-3.824219-8.535156-8.535156-8.535156zm0 0"/></svg>