<svg height="512pt" viewBox="0 0 512 512.00869" width="512pt" xmlns="http://www.w3.org/2000/svg"><path d="m42.671875 409.601562h151.039063c3.371093-.003906 6.425781 1.980469 7.800781 5.058594l39.210937 87.894532c2.917969 5.855468 8.925782 9.527343 15.46875 9.453124 6.542969-.074218 12.464844-3.882812 15.25-9.804687l39.046875-87.558594c1.378907-3.078125 4.4375-5.054687 7.808594-5.042969h151.039063c23.554687-.03125 42.640624-19.117187 42.667968-42.667968v-324.265625c-.027344-23.554688-19.113281-42.6406252-42.667968-42.667969h-426.664063c-23.554687.0273438-42.640625 19.113281-42.66796875 42.667969v324.265625c.02734375 23.550781 19.11328175 42.636718 42.66796875 42.667968zm-25.601563-366.933593c0-14.140625 11.460938-25.601563 25.601563-25.601563h426.664063c14.140624 0 25.601562 11.460938 25.601562 25.601563v324.265625c0 14.136718-11.460938 25.601562-25.601562 25.601562h-151.039063c-10.105469-.003906-19.265625 5.941406-23.378906 15.171875l-38.75 87.566407-39.058594-87.566407c-4.117187-9.234375-13.285156-15.179687-23.398437-15.171875h-151.039063c-14.140625 0-25.601563-11.464844-25.601563-25.601562zm0 0"/><path d="m76.804688 358.398438h264.753906c28.035156 20.921874 66 22.601562 95.769531 4.238281 29.773437-18.363281 45.308594-53.046875 39.195313-87.488281-6.117188-34.4375-32.644532-61.652344-66.917969-68.640626v-129.707031c0-14.140625-11.460938-25.601562-25.601563-25.601562h-17.066406v-8.53125c0-4.714844-3.820312-8.535157-8.53125-8.535157-4.714844 0-8.535156 3.820313-8.535156 8.535157v8.53125h-25.601563v-8.53125c0-4.714844-3.820312-8.535157-8.53125-8.535157-4.714843 0-8.535156 3.820313-8.535156 8.535157v8.53125h-25.597656v-8.53125c0-4.714844-3.820313-8.535157-8.535157-8.535157-4.710937 0-8.53125 3.820313-8.53125 8.535157v8.53125h-25.601562v-8.53125c0-4.714844-3.820312-8.535157-8.53125-8.535157-4.714844 0-8.535156 3.820313-8.535156 8.535157v8.53125h-25.601563v-8.53125c0-4.714844-3.820312-8.535157-8.53125-8.535157-4.714843 0-8.535156 3.820313-8.535156 8.535157v8.53125h-25.597656v-8.53125c0-4.714844-3.820313-8.535157-8.535157-8.535157-4.710937 0-8.53125 3.820313-8.53125 8.535157v8.53125h-25.601562v-8.53125c0-4.714844-3.820312-8.535157-8.53125-8.535157-4.714844 0-8.535156 3.820313-8.535156 8.535157v8.53125h-17.066406c-14.140626 0-25.601563 11.460937-25.601563 25.601562v256c0 14.136719 11.460937 25.597657 25.601563 25.597657zm110.933593-238.933594v42.667968h-51.199219v-42.667968zm68.265625 0v42.667968h-51.199218v-42.667968zm68.265625 0v42.667968h-51.199219v-42.667968zm68.269531 0v42.667968h-51.203124v-42.667968zm-187.734374 102.402344v-42.667969h51.199218v42.667969zm51.199218 17.066406v42.667968h-51.199218v-42.667968zm-68.265625-17.066406h-51.199219v-42.667969h51.199219zm-68.265625 0h-51.203125v-42.667969h51.203125zm0 17.066406v42.667968h-51.203125v-42.667968zm17.066406 0h51.199219v42.667968h-51.199219zm51.199219 59.734375v42.664062h-51.199219v-42.664062zm17.066407 0h51.199218v42.664062h-51.199218zm68.265624 0h34.570313c1.570313 15.492187 7.382813 30.257812 16.792969 42.664062h-51.363282zm34.570313-17.066407h-34.570313v-42.667968h51.199219v.222656c-9.320312 12.359375-15.070312 27.042969-16.628906 42.445312zm16.628906-59.734374h-51.199219v-42.667969h51.199219zm-204.796875-59.734376h-51.203125v-42.667968h51.203125zm-51.203125 170.667969v-34.132812h51.203125v42.664062h-42.667968c-4.714844 0-8.535157-3.820312-8.535157-8.53125zm392.535157-42.667969c0 37.703126-30.5625 68.265626-68.265626 68.265626-37.703124 0-68.269531-30.5625-68.269531-68.265626 0-37.703124 30.566407-68.265624 68.269531-68.265624 37.683594.042968 68.222657 30.582031 68.265626 68.265624zm-119.46875-68.105468v-42.828125h51.203124v25.601562c-18.488281.007813-36.46875 6.058594-51.203124 17.226563zm-264.53125-153.761719h17.066406v8.535156c0 4.710938 3.820312 8.53125 8.535156 8.53125 4.710938 0 8.53125-3.820312 8.53125-8.53125v-8.535156h25.601562v8.535156c0 4.710938 3.820313 8.53125 8.53125 8.53125 4.714844 0 8.535157-3.820312 8.535157-8.53125v-8.535156h25.597656v8.535156c0 4.710938 3.820313 8.53125 8.535156 8.53125 4.710938 0 8.53125-3.820312 8.53125-8.53125v-8.535156h25.601563v8.535156c0 4.710938 3.820312 8.53125 8.535156 8.53125 4.710938 0 8.53125-3.820312 8.53125-8.53125v-8.535156h25.601562v8.535156c0 4.710938 3.820313 8.53125 8.53125 8.53125 4.714844 0 8.535157-3.820312 8.535157-8.53125v-8.535156h25.597656v8.535156c0 4.710938 3.820313 8.53125 8.535156 8.53125 4.710938 0 8.53125-3.820312 8.53125-8.53125v-8.535156h25.601563v8.535156c0 4.710938 3.820312 8.53125 8.535156 8.53125 4.710938 0 8.53125-3.820312 8.53125-8.53125v-8.535156h17.066406c4.714844 0 8.535156 3.820313 8.535156 8.535156v25.597657h-324.269531v-25.597657c0-4.714843 3.820313-8.535156 8.535157-8.535156zm0 0"/><path d="m366.9375 256v8.535156h-8.53125c-9.425781 0-17.070312 7.640625-17.070312 17.066406v17.066407c0 9.425781 7.644531 17.066406 17.070312 17.066406h8.53125v8.53125c0 9.425781 7.640625 17.066406 17.066406 17.066406h17.066406c9.425782 0 17.066407-7.640625 17.066407-17.066406v-8.53125h8.535156c9.425781 0 17.066406-7.640625 17.066406-17.066406v-17.066407c0-9.425781-7.640625-17.066406-17.066406-17.066406h-8.535156v-8.535156c0-9.425781-7.640625-17.066406-17.066407-17.066406h-17.066406c-9.425781 0-17.066406 7.640625-17.066406 17.066406zm42.667969 25.601562h17.066406v17.066407h-17.066406c-4.714844 0-8.535157 3.820312-8.535157 8.53125v17.066406h-17.066406v-17.066406c0-4.710938-3.820312-8.53125-8.53125-8.53125h-17.066406v-17.066407h17.066406c4.710938 0 8.53125-3.820312 8.53125-8.535156v-17.066406h17.066406v17.066406c0 4.714844 3.820313 8.535156 8.535157 8.535156zm0 0"/></svg>