<svg height="512pt" viewBox="0 0 512 512.00869" width="512pt" xmlns="http://www.w3.org/2000/svg"><path d="m469.335938 0h-426.664063c-23.554687.0273438-42.640625 19.113281-42.66796875 42.667969v324.265625c.02734375 23.550781 19.11328175 42.636718 42.66796875 42.667968h151.039063c3.371093-.003906 6.425781 1.980469 7.800781 5.058594l39.210937 87.894532c2.917969 5.855468 8.925782 9.527343 15.46875 9.453124 6.542969-.074218 12.464844-3.882812 15.25-9.804687l39.046875-87.558594c1.378907-3.078125 4.4375-5.054687 7.808594-5.042969h151.039063c23.554687-.03125 42.640624-19.117187 42.667968-42.667968v-324.265625c-.027344-23.554688-19.113281-42.6406252-42.667968-42.667969zm25.601562 366.933594c0 14.136718-11.460938 25.601562-25.601562 25.601562h-151.039063c-10.105469-.003906-19.265625 5.941406-23.378906 15.171875l-38.75 87.566407-39.058594-87.566407c-4.117187-9.234375-13.285156-15.179687-23.398437-15.171875h-151.039063c-14.140625 0-25.601563-11.464844-25.601563-25.601562v-324.265625c0-14.140625 11.460938-25.601563 25.601563-25.601563h426.664063c14.140624 0 25.601562 11.460938 25.601562 25.601563zm0 0"/><path d="m256.003906 42.667969h-187.734375c-9.425781 0-17.066406 7.640625-17.066406 17.066406v290.132813c0 9.425781 7.640625 17.066406 17.066406 17.066406h187.734375c9.425782 0 17.066406-7.640625 17.066406-17.066406v-290.132813c0-9.425781-7.640624-17.066406-17.066406-17.066406zm-187.734375 59.730469h17.066407v8.535156c0 4.710937 3.820312 8.53125 8.535156 8.53125 4.710937 0 8.535156-3.820313 8.535156-8.53125v-8.535156h17.066406v8.535156c0 4.710937 3.820313 8.53125 8.53125 8.53125 4.714844 0 8.535156-3.820313 8.535156-8.53125v-8.535156h17.066407v8.535156c0 4.710937 3.820312 8.53125 8.53125 8.53125 4.714843 0 8.535156-3.820313 8.535156-8.53125v-8.535156h17.066406v8.535156c0 4.710937 3.820313 8.53125 8.53125 8.53125 4.714844 0 8.535157-3.820313 8.535157-8.53125v-8.535156h17.066406v8.535156c0 4.710937 3.820312 8.53125 8.535156 8.53125 4.710938 0 8.53125-3.820313 8.53125-8.53125v-8.535156h17.066406v197.34375c-38.84375 4.265624-52.128906-13.652344-52.640625-14.34375-1.917969-2.871094-5.371093-4.300782-8.753906-3.632813-3.382813.671875-6.03125 3.3125-6.710937 6.695313-5.339844 26.691406-75.441407 51.457031-119.636719 61.191406zm131.046875 202.242187c11.25 7.566406 24.371094 11.878906 37.914063 12.457031-28.722657 16.582032-67.667969 24.746094-98.945313 28.808594 25.105469-10.164062 49.980469-23.925781 61.03125-41.265625zm56.6875-244.90625v25.597656h-17.066406c0-4.710937-3.820312-8.53125-8.53125-8.53125-4.714844 0-8.535156 3.820313-8.535156 8.53125h-17.066406c0-4.710937-3.820313-8.53125-8.535157-8.53125-4.710937 0-8.53125 3.820313-8.53125 8.53125h-17.066406c0-4.710937-3.820313-8.53125-8.535156-8.53125-4.710938 0-8.53125 3.820313-8.53125 8.53125h-17.066407c0-4.710937-3.820312-8.53125-8.535156-8.53125-4.710937 0-8.53125 3.820313-8.53125 8.53125h-17.066406c0-4.710937-3.824219-8.53125-8.535156-8.53125-4.714844 0-8.535156 3.820313-8.535156 8.53125h-17.066407v-25.597656zm-53 290.132813c18.824219-5.421876 36.703125-13.710938 53-24.585938v24.585938zm0 0"/><path d="m387.539062 110.933594c-4.882812-4.878906-12.222656-6.339844-18.597656-3.699219-6.378906 2.640625-10.535156 8.863281-10.535156 15.765625v30.601562h-51.203125c-9.425781 0-17.066406 7.640626-17.066406 17.066407v68.265625c0 9.425781 7.640625 17.066406 17.066406 17.066406h51.203125v30.601562c0 6.902344 4.15625 13.121094 10.535156 15.761719 6.375 2.640625 13.714844 1.183594 18.597656-3.695312l87.832032-87.835938c3.332031-3.332031 3.332031-8.734375 0-12.066406zm-80.335937 128v-68.265625h51.203125v68.265625zm68.269531 47.667968v-163.601562l81.800782 81.800781zm0 0"/></svg>