<svg height="512pt" viewBox="-15 0 512 512.00001" width="512pt" xmlns="http://www.w3.org/2000/svg"><path d="m34.132812 512h344.746094c11.414063.011719 22.078125-5.695312 28.398438-15.199219l23.953125-36h26.019531c9.707031.023438 18.589844-5.457031 22.921875-14.144531 4.328125-8.6875 3.355469-19.082031-2.511719-26.816406-56.589844-74.195313-51.0625-255.589844-50.992187-257.707032v-128c0-18.851562-15.285157-34.132812-34.132813-34.132812h-324.269531c-1.117187 0-2.226563.222656-3.257813.65625-1.042968.429688-1.988281 1.058594-2.78125 1.851562l-59.734374 59.734376c-.796876.792968-1.425782 1.742187-1.851563 2.78125-.421875 1.03125-.63671875 2.132812-.640625 3.242187v409.601563c0 18.851562 15.28125 34.132812 34.132812 34.132812zm-17.066406-440.199219 42.667969-42.667969v69.734376l-42.667969 42.667968zm124.46875-54.734375-64.734375 64.734375v-27.066406l37.664063-37.667969zm51.199219 0-76.800781 76.800782h-27.066406l76.800781-76.800782zm51.199219 0-76.800782 76.800782h-27.066406l76.800782-76.800782zm51.199218 0-76.800781 76.800782h-27.066406l76.800781-76.800782zm51.199219 0-76.796875 76.800782h-27.070312l76.800781-76.800782zm-328.234375 466.449219c-.660156-1.8125-1.007812-3.722656-1.03125-5.648437v-312.199219l42.667969-42.667969v38.84375c-.085937 2.492188-.554687 18.679688.136719 42.300781-.058594.214844-.105469.433594-.136719.65625v230.398438c.003906 3.296875.65625 6.5625 1.910156 9.609375zm58.703125-48.316406v-92.695313c9.921875 40.472656 25.4375 78.1875 49.65625 101.230469h-41.125c-4.710937 0-8.53125-3.820313-8.53125-8.535156zm0-404.597657v-13.535156h13.53125zm316.234375 456.730469c-3.152344 4.734375-8.464844 7.585938-14.15625 7.601563h-344.746094c-.960937-.015625-1.921874-.113282-2.867187-.289063l41.769531-37.128906c3.753906 2.125 7.984375 3.257813 12.296875 3.285156h325.394531zm71.050782-57.132812c1.976562 2.503906 2.308593 5.933593.851562 8.773437-1.410156 2.949219-4.410156 4.808594-7.679688 4.761719h-301.746093c-85.898438-42.035156-78.796875-278.914063-78.710938-281.601563v-51.199218h332.800781v50.910156c-.257812 7.6875-5.804687 189.292969 54.484376 268.355469zm-55.125-400.425781c.402343 1.417968.617187 2.882812.640624 4.359374v22.066407l-37.667968 37.667969h-27.066406zm.640624 64.09375h-13.535156l13.535156-13.535157zm-12.707031-76.160157-76.160156 76.160157h-27.066406l76.796875-76.800782h22.070312c1.472656.019532 2.941406.234375 4.359375.640625zm0 0"/><path d="m392.535156 153.601562h-13.535156l11.03125-11.035156c3.234375-3.347656 3.191406-8.671875-.101562-11.960937-3.292969-3.292969-8.613282-3.339844-11.960938-.105469l-11.035156 11.035156v-13.535156c0-4.710938-3.820313-8.535156-8.535156-8.535156-4.710938 0-8.53125 3.824218-8.53125 8.535156v30.601562l-12.21875 12.21875c-55.492188-48.972656-139.847657-45.027343-190.527344 8.910157-50.679688 53.9375-49.363282 138.375 2.972656 190.710937 52.332031 52.332032 136.769531 53.648438 190.710938 2.96875 53.9375-50.675781 57.882812-135.03125 8.910156-190.523437l12.21875-12.21875h30.601562c4.710938 0 8.53125-3.820313 8.53125-8.535157 0-4.710937-3.820312-8.53125-8.53125-8.53125zm-25.601562 119.464844c.183594 56.417969-39 105.324219-94.101563 117.449219-55.097656 12.125-111.191406-15.816406-134.707031-67.097656-23.515625-51.285157-8.085938-112.023438 37.054688-145.863281 45.140624-33.839844 107.769531-31.621094 150.402343 5.332031l-12.058593 12.058593c-42.003907-35.539062-104.558594-31.628906-141.8125 8.863282-37.253907 40.488281-35.949219 103.152344 2.957031 142.058594 38.902343 38.90625 101.566406 40.210937 142.058593 2.957031 40.488282-37.253907 44.398438-99.808594 8.863282-141.8125l12.058594-12.058594c18.882812 21.640625 29.285156 49.390625 29.285156 78.113281zm-68.265625 0c.074219 23.714844-16.097657 44.398438-39.132813 50.046875-23.035156 5.648438-46.9375-5.210937-57.84375-26.269531-10.902344-21.0625-5.96875-46.851562 11.941406-62.398438 17.90625-15.550781 44.128907-16.816406 63.453126-3.0625l-12.390626 12.390626c-5.203124-3.136719-11.15625-4.808594-17.230468-4.839844-18.847656 0-34.132813 15.28125-34.132813 34.132812 0 18.851563 15.285157 34.132813 34.132813 34.132813 18.851562 0 34.136718-15.28125 34.136718-34.132813-.03125-6.074218-1.703124-12.027344-4.839843-17.230468l12.390625-12.386719c6.1875 8.636719 9.515625 18.992187 9.515625 29.617187zm-34.132813 0c0 9.425782-7.644531 17.066406-17.070312 17.066406-9.425782 0-17.066406-7.640624-17.066406-17.066406 0-9.425781 7.640624-17.066406 17.066406-17.066406 1.476562.019531 2.945312.234375 4.363281.640625l-10.394531 10.394531c-2.21875 2.140625-3.109375 5.3125-2.328125 8.296875s3.113281 5.3125 6.09375 6.09375c2.984375.78125 6.15625-.109375 8.300781-2.324219l10.394531-10.394531c.402344 1.417969.617188 2.882813.640625 4.359375zm24.746094-53.863281c-28.558594-22.191406-69.449219-18.355469-93.382812 8.761719-23.929688 27.117187-22.648438 68.171875 2.925781 93.746094 25.574219 25.574218 66.625 26.855468 93.746093 2.921874 27.117188-23.929687 30.953126-64.820312 8.757813-93.378906l12.167969-12.167968c28.828125 35.257812 24.949218 86.925781-8.824219 117.480468-33.773437 30.554688-85.574219 29.261719-117.777344-2.945312-32.203125-32.203125-33.5-84.003906-2.945312-117.777344 30.554687-33.769531 82.222656-37.652344 117.480469-8.824219zm0 0"/></svg>