<svg height="512pt" viewBox="-94 0 512 512" width="512pt" xmlns="http://www.w3.org/2000/svg"><path d="m42.667969 0c-23.554688.0273438-42.6406252 19.113281-42.667969 42.667969v426.664062c.0273438 23.554688 19.113281 42.640625 42.667969 42.667969h238.933593c23.550782-.027344 42.636719-19.113281 42.664063-42.667969v-426.664062c-.027344-23.554688-19.113281-42.6406252-42.664063-42.667969zm238.933593 494.933594h-238.933593c-14.140625 0-25.601563-11.460938-25.601563-25.601563v-42.664062h290.132813v42.664062c0 14.140625-11.460938 25.601563-25.597657 25.601563zm25.597657-452.265625v366.933593h-290.132813v-366.933593c0-14.140625 11.460938-25.601563 25.601563-25.601563h238.933593c14.136719 0 25.597657 11.460938 25.597657 25.601563zm0 0"/><path d="m145.066406 51.199219h34.132813c4.714843 0 8.535156-3.820313 8.535156-8.53125 0-4.714844-3.820313-8.535157-8.535156-8.535157h-34.132813c-4.710937 0-8.53125 3.820313-8.53125 8.535157 0 4.710937 3.820313 8.53125 8.53125 8.53125zm0 0"/><path d="m241.40625 36.609375c-1.558594 1.632813-2.441406 3.796875-2.472656 6.058594.011718 1.113281.246094 2.214843.683594 3.242187.433593 1.03125 1.039062 1.984375 1.789062 2.816406.832031.75 1.785156 1.359376 2.816406 1.789063 2.066406.914063 4.421875.914063 6.488282 0 1.03125-.429687 1.984374-1.039063 2.8125-1.789063.753906-.832031 1.359374-1.785156 1.792968-2.816406.4375-1.027344.671875-2.128906.683594-3.242187.019531-3.46875-2.058594-6.601563-5.261719-7.933594-3.199219-1.328125-6.890625-.589844-9.332031 1.875zm0 0"/><path d="m275.542969 36.609375c-1.5625 1.632813-2.445313 3.796875-2.476563 6.058594.015625 1.113281.246094 2.214843.683594 3.242187.433594 1.03125 1.039062 1.984375 1.792969 2.816406.828125.75 1.78125 1.359376 2.8125 1.789063 2.066406.914063 4.421875.914063 6.488281 0 1.03125-.429687 1.984375-1.039063 2.816406-1.789063.75-.832031 1.355469-1.785156 1.789063-2.816406.4375-1.027344.671875-2.128906.683593-3.242187.019532-3.46875-2.058593-6.601563-5.261718-7.933594-3.199219-1.328125-6.886719-.589844-9.328125 1.875zm0 0"/><path d="m162.132812 435.199219c-14.136718 0-25.597656 11.460937-25.597656 25.601562 0 14.136719 11.460938 25.597657 25.597656 25.597657 14.140626 0 25.601563-11.460938 25.601563-25.597657 0-14.140625-11.460937-25.601562-25.601563-25.601562zm0 34.132812c-4.710937 0-8.53125-3.820312-8.53125-8.53125 0-4.714843 3.820313-8.535156 8.53125-8.535156 4.714844 0 8.535157 3.820313 8.535157 8.535156 0 4.710938-3.820313 8.53125-8.535157 8.53125zm0 0"/><path d="m230.398438 170.667969h-8.53125v-8.535157c0-4.710937-3.820313-8.53125-8.535157-8.53125-4.710937 0-8.53125 3.820313-8.53125 8.53125v8.535157h-34.132812v-8.535157c0-4.710937-3.820313-8.53125-8.535157-8.53125-4.710937 0-8.53125 3.820313-8.53125 8.53125v8.535157h-34.136718v-8.535157c0-4.710937-3.820313-8.53125-8.53125-8.53125-4.714844 0-8.535156 3.820313-8.535156 8.53125v8.535157h-8.53125c-14.140626 0-25.601563 11.460937-25.601563 25.597656v170.667969c0 14.136718 11.460937 25.601562 25.601563 25.601562h136.53125c14.140624 0 25.601562-11.464844 25.601562-25.601562v-170.667969c0-14.136719-11.460938-25.597656-25.601562-25.597656zm8.535156 196.265625c0 4.710937-3.820313 8.53125-8.535156 8.53125h-136.53125c-4.714844 0-8.535157-3.820313-8.535157-8.53125v-170.667969c0-4.710937 3.820313-8.53125 8.535157-8.53125h8.53125v17.066406c0 4.710938 3.820312 8.53125 8.535156 8.53125 4.710937 0 8.53125-3.820312 8.53125-8.53125v-17.066406h34.136718v17.066406c0 4.710938 3.820313 8.53125 8.53125 8.53125 4.714844 0 8.535157-3.820312 8.535157-8.53125v-17.066406h34.132812v17.066406c0 4.710938 3.820313 8.53125 8.53125 8.53125 4.714844 0 8.535157-3.820312 8.535157-8.53125v-17.066406h8.53125c4.714843 0 8.535156 3.820313 8.535156 8.53125zm0 0"/><path d="m185.96875 280.363281c9.9375-9.695312 13.011719-24.441406 7.78125-37.300781-5.234375-12.859375-17.734375-21.269531-31.617188-21.269531-13.882812 0-26.382812 8.410156-31.617187 21.269531-5.230469 12.859375-2.152344 27.605469 7.785156 37.300781-15.566406 10.480469-22.453125 29.902344-16.972656 47.847657 5.476563 17.949218 22.039063 30.207031 40.804687 30.207031 18.765626 0 35.328126-12.257813 40.808594-30.207031 5.480469-17.945313-1.410156-37.367188-16.972656-47.847657zm-40.902344-24.363281c0-9.425781 7.640625-17.066406 17.066406-17.066406 9.425782 0 17.066407 7.640625 17.066407 17.066406s-7.640625 17.066406-17.066407 17.066406c-9.425781 0-17.066406-7.640625-17.066406-17.066406zm17.066406 85.332031c-14.136718 0-25.597656-11.460937-25.597656-25.597656 0-14.140625 11.460938-25.601563 25.597656-25.601563 14.140626 0 25.601563 11.460938 25.601563 25.601563 0 14.136719-11.460937 25.597656-25.601563 25.597656zm0 0"/><path d="m85.332031 136.535156c4.714844 0 8.535157-3.824218 8.535157-8.535156v-23.039062l18.5 27.75c2.082031 3.125 5.964843 4.519531 9.5625 3.4375 3.59375-1.085938 6.058593-4.394532 6.070312-8.148438v-51.199219c0-4.714843-3.820312-8.535156-8.535156-8.535156-4.710938 0-8.53125 3.820313-8.53125 8.535156v23.039063l-18.5-27.777344c-2.085938-3.128906-5.976563-4.523438-9.574219-3.429688-3.597656 1.089844-6.058594 4.40625-6.058594 8.167969v51.199219c0 4.710938 3.820313 8.535156 8.53125 8.535156zm0 0"/><path d="m145.066406 136.535156h25.601563c4.710937 0 8.53125-3.824218 8.53125-8.535156s-3.820313-8.535156-8.53125-8.535156h-17.066407v-8.53125h8.53125c4.714844 0 8.535157-3.820313 8.535157-8.535156 0-4.710938-3.820313-8.53125-8.535157-8.53125h-8.53125v-8.535157h17.066407c4.710937 0 8.53125-3.820312 8.53125-8.53125 0-4.714843-3.820313-8.535156-8.53125-8.535156h-25.601563c-4.710937 0-8.53125 3.820313-8.53125 8.535156v51.199219c0 4.710938 3.820313 8.535156 8.53125 8.535156zm0 0"/><path d="m187.734375 128c-.003906 3.59375 2.246094 6.800781 5.625 8.027344 3.375 1.222656 7.160156.203125 9.460937-2.558594l14.78125-17.730469 14.777344 17.730469c2.300782 2.761719 6.085938 3.78125 9.464844 2.558594 3.375-1.226563 5.625-4.433594 5.621094-8.027344v-51.199219c0-4.714843-3.820313-8.535156-8.53125-8.535156-4.714844 0-8.535156 3.820313-8.535156 8.535156v27.628907l-6.246094-7.5c-1.671875-1.851563-4.054688-2.910157-6.550782-2.910157-2.5 0-4.878906 1.058594-6.554687 2.910157l-6.246094 7.5v-27.628907c0-4.714843-3.820312-8.535156-8.535156-8.535156-4.710937 0-8.53125 3.820313-8.53125 8.535156zm0 0"/></svg>