<svg height="512pt" viewBox="-60 0 512 512" width="512pt" xmlns="http://www.w3.org/2000/svg"><path d="m281.601562 0h-238.933593c-23.554688.0273438-42.6406252 19.113281-42.667969 42.667969v426.664062c.0273438 23.554688 19.113281 42.640625 42.667969 42.667969h238.933593c23.550782-.027344 42.636719-19.113281 42.664063-42.667969v-389l20.601563-20.597656h39.132812c4.710938 0 8.535156-3.820313 8.535156-8.535156 0-4.710938-3.824218-8.53125-8.535156-8.53125h-22.066406l28.097656-28.101563c3.234375-3.347656 3.191406-8.671875-.101562-11.960937-3.292969-3.292969-8.613282-3.339844-11.960938-.105469l-28.101562 28.101562v-22.066406c0-4.714844-3.820313-8.535156-8.535157-8.535156-4.710937 0-8.53125 3.820312-8.53125 8.535156v39.132813l-8.535156 8.53125v-13.53125c-.027344-23.554688-19.113281-42.6406252-42.664063-42.667969zm-264.535156 42.667969c0-14.140625 11.460938-25.601563 25.601563-25.601563h238.933593c14.136719 0 25.597657 11.460938 25.597657 25.601563v30.597656l-36.796875 36.8125c-37.566406-34.019531-88.925782-48.4375-138.710938-38.933594-49.785156 9.5-92.226562 41.820313-114.625 87.285157zm187.734375 187.730469c.058594 19.625-13.238281 36.773437-32.257812 41.605468-19.023438 4.832032-38.890625-3.890625-48.203125-21.164062-9.316406-17.273438-5.6875-38.667969 8.800781-51.90625 14.484375-13.238282 36.121094-14.921875 52.484375-4.09375l-29.523438 29.527344c-2.21875 2.140624-3.109374 5.316406-2.328124 8.296874.78125 2.984376 3.109374 5.316407 6.09375 6.097657 2.984374.777343 6.15625-.109375 8.300781-2.328125l29.523437-29.527344c4.632813 6.960938 7.105469 15.132812 7.109375 23.492188zm-6.964843-47.785157c-25.1875-18.847656-60.660157-15.03125-81.257813 8.746094-20.601563 23.777344-19.328125 59.429687 2.917969 81.675781s57.902344 23.519532 81.679687 2.921875c23.777344-20.601562 27.59375-56.074219 8.746094-81.261719l12.175781-12.175781c25.515625 31.917969 21.652344 78.210938-8.804687 105.457031-30.453125 27.25-76.886719 25.957032-105.78125-2.9375-28.898438-28.894531-30.1875-75.328124-2.9375-105.78125 27.246093-30.457031 73.539062-34.320312 105.457031-8.804687zm24.320312-24.320312c-38.617188-32.167969-95.707031-28.269531-129.597656 8.847656-33.886719 37.117187-32.585938 94.324219 2.953125 129.863281 35.539062 35.539063 92.746093 36.839844 129.863281 2.953125 37.117188-33.890625 41.015625-90.980469 8.847656-129.597656l12.058594-12.058594c38.910156 45.394531 34.988281 113.425781-8.878906 154.050781-43.867188 40.625-112 39.316407-154.277344-2.960937s-43.585938-110.40625-2.960938-154.277344c40.625-43.867187 108.65625-47.789062 154.050782-8.878906zm24.125-24.125c-52.132812-45.621094-131.050781-41.683594-178.382812 8.902343-47.328126 50.585938-46.015626 129.59375 2.96875 178.578126 48.984374 48.984374 127.992187 50.300781 178.578124 2.96875 50.585938-47.332032 54.523438-126.25 8.902344-178.382813l12.066406-12.066406c52.324219 58.851562 48.371094 148.640625-8.917968 202.667969-57.292969 54.027343-147.160156 52.710937-202.84375-2.972657-55.683594-55.683593-57-145.550781-2.972656-202.839843 54.027343-57.292969 143.816406-61.246094 202.667968-8.921876zm35.320312 360.765625h-238.933593c-14.140625 0-25.601563-11.460938-25.601563-25.601563v-42.664062h290.132813v42.664062c0 14.140625-11.460938 25.601563-25.597657 25.601563zm25.597657-85.332032h-290.132813v-107.230468c27.257813 55.210937 83.492188 90.160156 145.066406 90.160156 61.574219 0 117.808594-34.949219 145.066407-90.160156zm0-251.171874c-6.566407-13.164063-14.890625-25.378907-24.746094-36.300782l24.746094-24.746094zm0 0"/><path d="m145.066406 51.199219h34.132813c4.714843 0 8.535156-3.820313 8.535156-8.53125 0-4.714844-3.820313-8.535157-8.535156-8.535157h-34.132813c-4.710937 0-8.53125 3.820313-8.53125 8.535157 0 4.710937 3.820313 8.53125 8.53125 8.53125zm0 0"/><path d="m241.40625 48.726562c.832031.75 1.785156 1.359376 2.816406 1.789063 2.066406.914063 4.421875.914063 6.488282 0 1.03125-.429687 1.984374-1.039063 2.8125-1.789063.753906-.832031 1.359374-1.785156 1.792968-2.816406.4375-1.027344.671875-2.128906.683594-3.242187 0-4.714844-3.820312-8.535157-8.535156-8.535157-4.710938 0-8.53125 3.820313-8.53125 8.535157.011718 1.113281.246094 2.214843.683594 3.242187.433593 1.03125 1.039062 1.984375 1.789062 2.816406zm0 0"/><path d="m275.542969 48.726562c.828125.75 1.78125 1.359376 2.8125 1.789063 2.066406.914063 4.421875.914063 6.488281 0 1.03125-.429687 1.984375-1.039063 2.816406-1.789063.75-.832031 1.355469-1.785156 1.789063-2.816406.4375-1.027344.671875-2.128906.683593-3.242187 0-4.714844-3.820312-8.535157-8.53125-8.535157-4.714843 0-8.535156 3.820313-8.535156 8.535157.015625 1.113281.246094 2.214843.683594 3.242187.433594 1.03125 1.039062 1.984375 1.792969 2.816406zm0 0"/><path d="m162.132812 435.199219c-14.136718 0-25.597656 11.460937-25.597656 25.601562 0 14.136719 11.460938 25.597657 25.597656 25.597657 14.140626 0 25.601563-11.460938 25.601563-25.597657 0-14.140625-11.460937-25.601562-25.601563-25.601562zm0 34.132812c-4.710937 0-8.53125-3.820312-8.53125-8.53125 0-4.714843 3.820313-8.535156 8.53125-8.535156 4.714844 0 8.535157 3.820313 8.535157 8.535156 0 4.710938-3.820313 8.53125-8.535157 8.53125zm0 0"/></svg>