<svg height="511pt" viewBox="-34 0 511 511.9308" width="511pt" xmlns="http://www.w3.org/2000/svg"><path d="m68.734375 254.523438v231.808593c0 14.136719 11.464844 25.597657 25.601563 25.597657h324.265624c14.140626 0 25.601563-11.460938 25.601563-25.597657v-332.800781c0-.179688-.09375-.332031-.101563-.511719-.050781-.773437-.207031-1.539062-.460937-2.269531-.082031-.273438-.175781-.539062-.28125-.804688-.402344-.882812-.945313-1.691406-1.613281-2.394531l-.050782-.0625-110.933593-110.933593-.050781-.03125c-.703126-.667969-1.507813-1.210938-2.390626-1.605469-.28125-.113281-.5625-.214844-.855468-.300781-.714844-.25-1.464844-.398438-2.226563-.441407-.152343-.019531-.316406-.113281-.503906-.113281h-97.730469c-38.992187-34.363281-94.132812-43.574219-142.179687-23.753906-48.042969 19.824218-80.644531 65.238281-84.0625 117.097656-3.417969 51.863281 22.945312 101.160156 67.972656 127.117188zm349.867187 240.339843h-324.265624c-4.710938 0-8.535157-3.820312-8.535157-8.53125v-223.386719c57.566407 23.402344 123.671875 4.929688 160.765625-44.921874 37.09375-49.851563 35.796875-118.476563-3.152344-166.894532h72.789063v85.335938c0 14.136718 11.460937 25.597656 25.597656 25.597656h85.335938v324.269531c0 4.710938-3.820313 8.53125-8.535157 8.53125zm-76.800781-349.867187c-4.710937 0-8.53125-3.820313-8.53125-8.53125v-73.269532l81.800781 81.800782zm-204.796875-128c65.976563 0 119.464844 53.488281 119.464844 119.46875 0 65.980468-53.488281 119.464844-119.464844 119.464844-65.980468 0-119.46875-53.484376-119.46875-119.464844.070313-65.949219 53.515625-119.398438 119.46875-119.46875zm0 0"/><path d="m137.003906 238.863281c56.550782 0 102.398438-45.84375 102.398438-102.398437 0-56.554688-45.847656-102.402344-102.398438-102.402344-56.554687 0-102.402344 45.847656-102.402344 102.402344.0625 56.527344 45.871094 102.339844 102.402344 102.398437zm-8.535156-187.296875v16.632813c0 4.710937 3.820312 8.53125 8.535156 8.53125 4.710938 0 8.53125-3.820313 8.53125-8.53125v-16.632813c40.351563 4.109375 72.257813 36.011719 76.367188 76.363282h-16.632813c-4.714843 0-8.535156 3.820312-8.535156 8.535156 0 4.710937 3.820313 8.53125 8.535156 8.53125h16.632813c-4.109375 40.351562-36.015625 72.257812-76.367188 76.367187v-16.632812c0-4.710938-3.820312-8.53125-8.53125-8.53125-4.714844 0-8.535156 3.820312-8.535156 8.53125v16.632812c-40.351562-4.109375-72.253906-36.015625-76.363281-76.367187h16.628906c4.714844 0 8.535156-3.820313 8.535156-8.53125 0-4.714844-3.820312-8.535156-8.535156-8.535156h-16.628906c4.109375-40.351563 36.011719-72.253907 76.363281-76.363282zm0 0"/><path d="m115.054688 123.503906c-2.363282 3.910156-3.628907 8.390625-3.652344 12.960938 0 14.136718 11.460937 25.597656 25.601562 25.597656 5.519532-.015625 10.882813-1.835938 15.273438-5.179688l31.1875 20.8125c2.539062 1.695313 5.785156 1.902344 8.519531.554688 2.730469-1.351562 4.539063-4.058594 4.734375-7.101562.199219-3.042969-1.242188-5.957032-3.78125-7.652344l-31.1875-20.8125c2.398438-9.195313-.542969-18.964844-7.621094-25.308594-7.082031-6.34375-17.113281-8.195312-25.992187-4.804688l-27.238281-32.765624c-3.015626-3.625-8.398438-4.117188-12.023438-1.101563s-4.117188 8.398437-1.101562 12.023437zm30.480468 12.960938c0 4.710937-3.820312 8.53125-8.53125 8.53125-4.714844 0-8.535156-3.820313-8.535156-8.53125 0-4.714844 3.820312-8.535156 8.535156-8.535156 4.710938 0 8.53125 3.820312 8.53125 8.535156zm0 0"/><path d="m393.003906 221.796875h-119.46875c-9.425781 0-17.066406 7.640625-17.066406 17.066406v110.933594c0 9.425781 7.640625 17.066406 17.066406 17.066406h119.46875c9.425782 0 17.066406-7.640625 17.066406-17.066406v-110.933594c0-9.425781-7.640624-17.066406-17.066406-17.066406zm-119.46875 128v-110.933594h119.46875v110.933594zm0 0"/><path d="m360.925781 258.917969-45.226562 52.726562-10.546875-10.546875c-3.347656-3.234375-8.671875-3.1875-11.960938.105469-3.292968 3.289063-3.339844 8.613281-.105468 11.960937l17.066406 17.066407c1.605468 1.605469 3.78125 2.503906 6.050781 2.5h.324219c2.375-.089844 4.605468-1.171875 6.152344-2.976563l51.199218-59.734375c2.121094-2.296875 2.816406-5.566406 1.816406-8.527343-1.003906-2.960938-3.542968-5.136719-6.621093-5.671876-3.082031-.535156-6.207031.65625-8.148438 3.105469zm0 0"/><path d="m273.535156 383.929688h-8.53125c-4.714844 0-8.535156 3.820312-8.535156 8.535156 0 4.710937 3.820312 8.53125 8.535156 8.53125h8.53125c4.714844 0 8.535156-3.820313 8.535156-8.53125 0-4.714844-3.820312-8.535156-8.535156-8.535156zm0 0"/><path d="m401.535156 383.929688h-93.867187c-4.710938 0-8.53125 3.820312-8.53125 8.535156 0 4.710937 3.820312 8.53125 8.53125 8.53125h93.867187c4.714844 0 8.535156-3.820313 8.535156-8.53125 0-4.714844-3.820312-8.535156-8.535156-8.535156zm0 0"/><path d="m273.535156 418.0625h-8.53125c-4.714844 0-8.535156 3.820312-8.535156 8.535156 0 4.710938 3.820312 8.53125 8.535156 8.53125h8.53125c4.714844 0 8.535156-3.820312 8.535156-8.53125 0-4.714844-3.820312-8.535156-8.535156-8.535156zm0 0"/><path d="m401.535156 418.0625h-93.867187c-4.710938 0-8.53125 3.820312-8.53125 8.535156 0 4.710938 3.820312 8.53125 8.53125 8.53125h93.867187c4.714844 0 8.535156-3.820312 8.535156-8.53125 0-4.714844-3.820312-8.535156-8.535156-8.535156zm0 0"/><path d="m273.535156 452.199219h-8.53125c-4.714844 0-8.535156 3.820312-8.535156 8.53125 0 4.714843 3.820312 8.535156 8.535156 8.535156h8.53125c4.714844 0 8.535156-3.820313 8.535156-8.535156 0-4.710938-3.820312-8.53125-8.535156-8.53125zm0 0"/><path d="m401.535156 452.199219h-93.867187c-4.710938 0-8.53125 3.820312-8.53125 8.53125 0 4.714843 3.820312 8.535156 8.53125 8.535156h93.867187c4.714844 0 8.535156-3.820313 8.535156-8.535156 0-4.710938-3.820312-8.53125-8.535156-8.53125zm0 0"/><path d="m154.070312 383.929688h-34.132812c-4.714844 0-8.535156 3.820312-8.535156 8.535156v68.265625c0 4.714843 3.820312 8.535156 8.535156 8.535156h34.132812c4.710938 0 8.53125-3.820313 8.53125-8.535156v-68.265625c0-4.714844-3.820312-8.535156-8.53125-8.535156zm-8.535156 68.269531h-17.066406v-51.203125h17.066406zm0 0"/><path d="m222.335938 290.0625h-34.132813c-4.714844 0-8.535156 3.820312-8.535156 8.535156v162.132813c0 4.714843 3.820312 8.535156 8.535156 8.535156h34.132813c4.710937 0 8.535156-3.820313 8.535156-8.535156v-162.132813c0-4.714844-3.824219-8.535156-8.535156-8.535156zm-8.535157 162.136719h-17.066406v-145.070313h17.066406zm0 0"/></svg>