<svg height="504pt" viewBox="0 0 504 504.97956" width="504pt" xmlns="http://www.w3.org/2000/svg"><path d="m25.671875 453.246094h276.980469c13.90625 0 25.183594-11.273438 25.183594-25.179688v-35.757812c3.449218-1.863282 6.78125-3.945313 10.070312-6.058594l108.863281 108.828125c6.273438 6.335937 14.824219 9.902344 23.742188 9.902344 8.914062 0 17.464843-3.566407 23.738281-9.902344 13.097656-13.109375 13.097656-34.347656 0-47.457031l-108.5-108.527344c41.34375-63.175781 32.71875-146.6875-20.664062-200.082031-11.007813-10.996094-23.558594-20.332031-37.25-27.714844v-86.117187c0-13.90625-11.277344-25.179688-25.183594-25.179688h-276.980469c-13.910156 0-25.183594 11.273438-25.183594 25.179688v402.886718c0 13.90625 11.273438 25.179688 25.183594 25.179688zm456.710937 6.269531c3.148438 3.148437 4.917969 7.417969 4.917969 11.871094s-1.769531 8.726562-4.917969 11.875c-6.601562 6.402343-17.09375 6.402343-23.695312 0l-106.90625-106.90625c4.636719-3.671875 9.070312-7.59375 13.277344-11.753907 3.761718-3.769531 7.308594-7.6875 10.644531-11.75zm-87.402343-207.710937c.015625 56.269531-33.042969 107.292968-84.402344 130.277343-51.363281 22.984375-111.4375 13.636719-153.386719-23.867187-41.949218-37.503906-57.941406-96.160156-40.832031-149.765625l.050781-.140625c21.453125-66.933594 88.449219-108.277344 157.894532-97.433594 69.445312 10.84375 120.652343 70.640625 120.675781 140.929688zm-301.75 8.390624c.707031 14.277344 3.339843 28.394532 7.820312 41.96875h-41.808593v-41.96875zm7.980469-59.199218c-.050782.152344-.109376.296875-.160157.445312h-41.808593v-41.964844h41.96875zm-83.933594-175.816406c0-4.636719 3.757812-8.394532 8.394531-8.394532h276.980469c4.636718 0 8.394531 3.757813 8.394531 8.394532v78.386718c-59.128906-23.464844-126.546875-9.523437-171.519531 35.472656-8.117188 8.164063-15.335938 17.175782-21.53125 26.882813v-6.445313c0-9.273437-7.515625-16.789062-16.785156-16.789062h-41.96875c-9.269532 0-16.785157 7.515625-16.785157 16.789062v41.964844c0 9.273438 7.515625 16.789063 16.785157 16.789063h37.191406c-1.734375 8.292969-2.804688 16.714843-3.203125 25.179687h-33.988281c-9.269532 0-16.785157 7.515625-16.785157 16.785156v41.96875c0 9.269532 7.515625 16.785157 16.785157 16.785157h41.96875c2.054687-.011719 4.089843-.402344 6-1.15625 35.117187 77.410156 124.828124 113.609375 203.835937 82.246093v28.027344c0 4.632813-3.757813 8.394532-8.394531 8.394532h-276.980469c-4.636719 0-8.394531-3.761719-8.394531-8.394532zm0 0"/><path d="m250.925781 125.902344c-56.984375 0-106.867187 38.273437-121.613281 93.316406-14.75 55.042969 9.3125 113.128906 58.664062 141.621094 49.351563 28.492187 111.683594 20.28125 151.976563-20.015625.707031-.707031 1.308594-1.476563 2-2.199219.160156-.15625.308594-.320312.453125-.496094 45.90625-48.394531 45.90625-124.253906 0-172.652344-.152344-.167968-.285156-.34375-.453125-.503906-.691406-.714844-1.292969-1.484375-2-2.191406-23.558594-23.691406-55.617187-36.972656-89.027344-36.878906zm-77.144531 203.054687c-41.675781-42.710937-41.3125-110.976562.816406-153.242187 42.128906-42.261719 110.394532-42.839844 153.238282-1.300782v154.777344c-42.648438 42.375-111.539063 42.269532-154.054688-.234375zm170.839844-21.394531v-111.515625c20.570312 34.324219 20.570312 77.1875 0 111.515625zm0 0"/><path d="m59.242188 117.507812h41.96875c9.269531 0 16.785156-7.515624 16.785156-16.785156v-41.96875c0-9.269531-7.515625-16.785156-16.785156-16.785156h-41.96875c-9.269532 0-16.785157 7.515625-16.785157 16.785156v41.96875c0 9.269532 7.515625 16.785156 16.785157 16.785156zm0-58.753906h41.96875v41.96875h-41.96875zm0 0"/><path d="m59.242188 419.671875h41.96875c9.269531 0 16.785156-7.515625 16.785156-16.785156v-41.96875c0-9.269531-7.515625-16.785157-16.785156-16.785157h-41.96875c-9.269532 0-16.785157 7.515626-16.785157 16.785157v41.96875c0 9.269531 7.515625 16.785156 16.785157 16.785156zm0-58.753906h41.96875v41.96875h-41.96875zm0 0"/><path d="m143.179688 75.539062h8.390624c4.636719 0 8.394532-3.757812 8.394532-8.390624 0-4.636719-3.757813-8.394532-8.394532-8.394532h-8.390624c-4.636719 0-8.394532 3.757813-8.394532 8.394532 0 4.632812 3.757813 8.390624 8.394532 8.390624zm0 0"/><path d="m176.753906 75.539062h8.390625c4.636719 0 8.394531-3.757812 8.394531-8.390624 0-4.636719-3.757812-8.394532-8.394531-8.394532h-8.390625c-4.636718 0-8.394531 3.757813-8.394531 8.394532 0 4.632812 3.757813 8.390624 8.394531 8.390624zm0 0"/><path d="m210.324219 75.539062h8.394531c4.636719 0 8.394531-3.757812 8.394531-8.390624 0-4.636719-3.757812-8.394532-8.394531-8.394532h-8.394531c-4.632813 0-8.390625 3.757813-8.390625 8.394532 0 4.632812 3.757812 8.390624 8.390625 8.390624zm0 0"/><path d="m243.898438 75.539062h8.394531c4.636719 0 8.394531-3.757812 8.394531-8.390624 0-4.636719-3.757812-8.394532-8.394531-8.394532h-8.394531c-4.632813 0-8.390626 3.757813-8.390626 8.394532 0 4.632812 3.757813 8.390624 8.390626 8.390624zm0 0"/><path d="m277.472656 75.539062h8.394532c4.636718 0 8.394531-3.757812 8.394531-8.390624 0-4.636719-3.757813-8.394532-8.394531-8.394532h-8.394532c-4.636718 0-8.394531 3.757813-8.394531 8.394532 0 4.632812 3.757813 8.390624 8.394531 8.390624zm0 0"/><path d="m193.539062 243.410156h-8.394531c-4.632812 0-8.390625 3.757813-8.390625 8.394532 0 4.632812 3.757813 8.390624 8.390625 8.390624h8.394531c4.636719 0 8.394532-3.757812 8.394532-8.390624 0-4.636719-3.757813-8.394532-8.394532-8.394532zm0 0"/><path d="m227.113281 243.410156h-8.394531c-4.636719 0-8.394531 3.757813-8.394531 8.394532 0 4.632812 3.757812 8.390624 8.394531 8.390624h8.394531c4.636719 0 8.394531-3.757812 8.394531-8.390624 0-4.636719-3.757812-8.394532-8.394531-8.394532zm0 0"/><path d="m260.6875 243.410156h-8.394531c-4.636719 0-8.394531 3.757813-8.394531 8.394532 0 4.632812 3.757812 8.390624 8.394531 8.390624h8.394531c4.632812 0 8.390625-3.757812 8.390625-8.390624 0-4.636719-3.757813-8.394532-8.390625-8.394532zm0 0"/><path d="m285.867188 243.410156c-4.636719 0-8.394532 3.757813-8.394532 8.394532 0 4.632812 3.757813 8.390624 8.394532 8.390624h8.394531c4.632812 0 8.390625-3.757812 8.390625-8.390624 0-4.636719-3.757813-8.394532-8.390625-8.394532zm0 0"/><path d="m227.113281 318.949219h-8.394531c-4.636719 0-8.394531 3.757812-8.394531 8.394531s3.757812 8.394531 8.394531 8.394531h8.394531c4.636719 0 8.394531-3.757812 8.394531-8.394531s-3.757812-8.394531-8.394531-8.394531zm0 0"/><path d="m260.6875 318.949219h-8.394531c-4.636719 0-8.394531 3.757812-8.394531 8.394531s3.757812 8.394531 8.394531 8.394531h8.394531c4.632812 0 8.390625-3.757812 8.390625-8.394531s-3.757813-8.394531-8.390625-8.394531zm0 0"/><path d="m294.261719 318.949219h-8.394531c-4.636719 0-8.394532 3.757812-8.394532 8.394531s3.757813 8.394531 8.394532 8.394531h8.394531c4.632812 0 8.390625-3.757812 8.390625-8.394531s-3.757813-8.394531-8.390625-8.394531zm0 0"/><path d="m218.71875 184.65625c4.636719 0 8.394531-3.757812 8.394531-8.394531s-3.757812-8.394531-8.394531-8.394531h-8.394531c-4.632813 0-8.390625 3.757812-8.390625 8.394531s3.757812 8.394531 8.390625 8.394531zm0 0"/><path d="m252.292969 184.65625c4.636719 0 8.394531-3.757812 8.394531-8.394531s-3.757812-8.394531-8.394531-8.394531h-8.394531c-4.632813 0-8.390626 3.757812-8.390626 8.394531s3.757813 8.394531 8.390626 8.394531zm0 0"/><path d="m285.867188 184.65625c4.636718 0 8.394531-3.757812 8.394531-8.394531s-3.757813-8.394531-8.394531-8.394531h-8.394532c-4.636718 0-8.394531 3.757812-8.394531 8.394531s3.757813 8.394531 8.394531 8.394531zm0 0"/></svg>