<svg height="512pt" viewBox="0 0 512 512.01284" width="512pt" xmlns="http://www.w3.org/2000/svg"><path d="m469.339844 0h-426.667969c-23.550781.0273438-42.6367188 19.113281-42.6640625 42.667969v324.265625c.0273437 23.550781 19.1132815 42.636718 42.6640625 42.667968h151.042969c3.367187 0 6.417968 1.980469 7.789062 5.058594l39.253906 87.894532c2.914063 5.855468 8.925782 9.53125 15.464844 9.457031 6.542969-.074219 12.46875-3.878907 15.253906-9.800781l39.058594-87.558594c1.367188-3.066406 4.40625-5.042969 7.765625-5.050782h151.039063c23.550781-.03125 42.636718-19.117187 42.667968-42.667968v-324.265625c-.03125-23.554688-19.117187-42.6406252-42.667968-42.667969zm25.601562 366.933594c0 14.136718-11.464844 25.601562-25.601562 25.601562h-151.039063c-10.101562 0-19.257812 5.945313-23.375 15.171875l-38.757812 87.566407-39.066407-87.566407c-4.117187-9.234375-13.28125-15.175781-23.386718-15.171875h-151.042969c-14.136719 0-25.597656-11.464844-25.597656-25.601562v-324.265625c0-14.140625 11.460937-25.601563 25.597656-25.601563h426.667969c14.136718 0 25.601562 11.460938 25.601562 25.601563zm0 0"/><path d="m204.804688 207.957031c17-19.867187 26.109374-45.28125 25.601562-71.421875 0-2.417968-.136719-4.78125-.28125-7.144531.136719-.453125.230469-.917969.28125-1.390625-.015625-1.03125-.222656-2.054688-.605469-3.011719-4.421875-46.320312-34.960937-82.320312-71.925781-82.320312-39.996094 0-72.535156 42.109375-72.535156 93.867187-.265625 22.378906 6.300781 44.3125 18.824218 62.863282-2.839843 2.140624-5.570312 4.359374-8.183593 6.699218-20.417969 18.105469-44.773438 51.832032-44.773438 109.636719v4.265625c0 26.761719 42.1875 46.933594 98.132813 46.933594 55.945312 0 98.132812-20.171875 98.132812-46.933594v-4.265625c1.484375-36.785156-11.1875-72.742187-35.414062-100.464844-2.304688-2.523437-4.691406-4.957031-7.253906-7.3125zm-35.652344 97.613281c-8.777344-5.441406-16.386719-12.582031-22.371094-21l13.558594-54.332031c1.246094-.050781 2.492187-.113281 3.710937-.238281l21.847657 49.132812c-3.925782 9.761719-9.597657 18.71875-16.746094 26.4375zm-25.992188-77.117187-9.144531 36.695313c-8.925781-15.972657-16.332031-32.75-22.113281-50.109376 1.109375-.894531 2.253906-1.792968 3.414062-2.660156 7.804688 7.582032 17.375 13.109375 27.84375 16.074219zm48.777344-9.09375c1.476562 1.339844 2.902344 2.710937 4.265625 4.128906-.039063 10.222657-1.003906 20.417969-2.890625 30.464844l-12.621094-28.398437c3.945313-1.691407 7.710938-3.765626 11.246094-6.195313zm-5.289062-17.289063c-.183594.136719-.363282.285157-.53125.441407-7.851563 6.8125-17.851563 10.644531-28.242188 10.820312-21.046875 0-39.390625-16.3125-48.785156-40.292969 14.648437-8.347656 22.585937-19.4375 22.585937-31.640624 1.03125-12.167969 8.582031-22.820313 19.71875-27.820313 17.59375 14.164063 39.367188 22.121094 61.945313 22.640625v.316406c.90625 24.660156-8.8125 48.523438-26.691406 65.535156zm-28.773438-142.335937c26.238281 0 48.226562 25.378906 53.960938 59.324219-43.519532-3.414063-58.613282-28.160156-59.355469-29.425782-2.394531-3.941406-7.488281-5.265624-11.5-2.988281-4.011719 2.273438-5.492188 7.324219-3.339844 11.402344.128906.230469.734375 1.246094 1.773437 2.714844-14.617187 8.464843-23.957031 23.761719-24.804687 40.636719-.949219 6.203124-4.789063 11.585937-10.34375 14.503906-1.21875-6.382813-1.84375-12.867188-1.859375-19.367188 0-42.351562 24.882812-76.800781 55.46875-76.800781zm-89.601562 260.265625v-4.265625c-1.445313-32.039063 9.28125-63.4375 30.027343-87.894531 8.585938 23.722656 30.609375 75.519531 63.839844 93.148437v28.460938c-4.132813.253906-8.363281.433593-12.800781.433593-50.226563-.015624-81.066406-17.40625-81.066406-29.882812zm162.132812 0c0 9.761719-18.933594 22.492188-51.199219 27.589844v-28.023438c10.511719-10.621094 18.601563-23.386718 23.714844-37.429687.058594-.152344.117187-.304688.167969-.46875 4.605468-12.214844 7.625-24.972657 8.988281-37.957031 12.675781 21.839843 19.023437 46.777343 18.328125 72.023437zm0 0"/><path d="m389.980469 59.734375h-29.015625c-13.121094-.085937-25.664063 5.394531-34.515625 15.085937-7.914063 8.628907-11.734375 20.246094-10.488281 31.890626l11.007812 102.398437c2.992188 22.417969 22.414062 38.964844 45.023438 38.355469h6.960937c22.621094.605468 42.046875-15.964844 45.015625-38.398438l11.007812-102.398437c1.25-11.644531-2.574218-23.261719-10.488281-31.890625-8.855469-9.671875-21.394531-15.136719-34.507812-15.042969zm17.066406 147.546875c-2.082031 13.753906-14.195313 23.722656-28.09375 23.117188h-6.960937c-13.875.582031-25.957032-9.378907-28.042969-23.105469l-11.007813-102.402344c-.707031-6.824219 1.558594-13.628906 6.214844-18.667969 5.605469-6.089844 13.535156-9.511718 21.808594-9.421875h29.015625c8.273437-.101562 16.203125 3.308594 21.820312 9.386719 4.65625 5.042969 6.917969 11.84375 6.210938 18.671875zm0 0"/><path d="m384.007812 264.535156h-17.066406c-18.851562 0-34.136718 15.28125-34.136718 34.132813v17.066406c0 18.851563 15.285156 34.132813 34.136718 34.132813h17.066406c18.851563 0 34.132813-15.28125 34.132813-34.132813v-17.066406c0-18.851563-15.28125-34.132813-34.132813-34.132813zm17.066407 51.199219c0 9.425781-7.640625 17.066406-17.066407 17.066406h-17.066406c-9.425781 0-17.066406-7.640625-17.066406-17.066406v-17.066406c0-9.425781 7.640625-17.066407 17.066406-17.066407h17.066406c9.425782 0 17.066407 7.640626 17.066407 17.066407zm0 0"/></svg>