<svg height="512pt" viewBox="-68 0 512 512.04277" width="512pt" xmlns="http://www.w3.org/2000/svg"><path d="m349.886719 34.175781h-120.320313c-4.035156-19.886719-21.519531-34.175781-41.8125-34.175781-20.289062 0-37.773437 14.289062-41.8125 34.175781h-120.320312c-14.136719 0-25.6015628 11.460938-25.6015628 25.601563v426.664062c0 14.140625 11.4648438 25.601563 25.6015628 25.601563h324.265625c14.140625 0 25.601562-11.460938 25.601562-25.601563v-426.664062c0-14.140625-11.460937-25.601563-25.601562-25.601563zm-245.894531 51.199219c3.601562 10.191406 13.21875 17.023438 24.027343 17.066406h119.46875c10.808594-.042968 20.425781-6.875 24.03125-17.066406h52.769531v375.46875h-273.066406v-375.46875zm83.761718-68.265625c10.8125.042969 20.425782 6.875 24.03125 17.066406h-48.058594c3.601563-10.191406 13.21875-17.023437 24.027344-17.066406zm68.265625 34.132813v25.601562c0 4.710938-3.820312 8.53125-8.53125 8.53125h-119.46875c-4.710937 0-8.53125-3.820312-8.53125-8.53125v-25.601562zm102.402344 435.199218c0 4.714844-3.820313 8.535156-8.535156 8.535156h-324.265625c-4.710938 0-8.53125-3.820312-8.53125-8.535156v-426.664062c0-4.714844 3.820312-8.535156 8.53125-8.535156h76.800781v17.066406h-59.734375c-4.710938 0-8.53125 3.820312-8.53125 8.535156v392.53125c0 4.714844 3.820312 8.535156 8.53125 8.535156h290.132812c4.714844 0 8.535157-3.820312 8.535157-8.535156v-392.53125c0-4.714844-3.820313-8.535156-8.535157-8.535156h-59.730468v-17.066406h76.796875c4.714843 0 8.535156 3.820312 8.535156 8.535156zm0 0"/><path d="m187.753906 230.441406c18.851563 0 34.132813-15.28125 34.132813-34.132812 0-18.851563-15.28125-34.132813-34.132813-34.132813-18.851562 0-34.132812 15.28125-34.132812 34.132813 0 18.851562 15.28125 34.132812 34.132812 34.132812zm0-51.199218c9.425782 0 17.066406 7.640624 17.066406 17.066406 0 9.425781-7.640624 17.066406-17.066406 17.066406-9.425781 0-17.066406-7.640625-17.066406-17.066406 0-9.425782 7.640625-17.066406 17.066406-17.066406zm0 0"/><path d="m187.753906 315.777344c18.851563 0 34.132813-15.285156 34.132813-34.132813 0-18.851562-15.28125-34.136719-34.132813-34.136719-18.851562 0-34.132812 15.285157-34.132812 34.136719 0 18.847657 15.28125 34.132813 34.132812 34.132813zm0-51.203125c9.425782 0 17.066406 7.644531 17.066406 17.070312s-7.640624 17.066407-17.066406 17.066407c-9.425781 0-17.066406-7.640626-17.066406-17.066407s7.640625-17.070312 17.066406-17.070312zm0 0"/><path d="m187.753906 401.109375c18.851563 0 34.132813-15.28125 34.132813-34.132813 0-18.851562-15.28125-34.132812-34.132813-34.132812-18.851562 0-34.132812 15.28125-34.132812 34.132812 0 18.851563 15.28125 34.132813 34.132812 34.132813zm0-51.199219c9.425782 0 17.066406 7.640625 17.066406 17.066406 0 9.425782-7.640624 17.066407-17.066406 17.066407-9.425781 0-17.066406-7.640625-17.066406-17.066407 0-9.425781 7.640625-17.066406 17.066406-17.066406zm0 0"/><path d="m76.820312 332.84375c-4.710937 0-8.53125 3.820312-8.53125 8.53125 0 22.121094 10.957032 62.710938 51.199219 67.746094v9.054687c0 9.425781 7.640625 17.066407 17.066407 17.066407h102.398437c9.425781 0 17.066406-7.640626 17.066406-17.066407v-9.054687c40.246094-5.035156 51.203125-45.625 51.203125-67.746094 0-4.710938-3.820312-8.53125-8.535156-8.53125h-42.667969v-17.589844c40.246094-5.03125 51.203125-45.625 51.203125-67.746094 0-4.710937-3.820312-8.53125-8.535156-8.53125h-42.667969v-17.585937c40.246094-5.035156 51.203125-45.628906 51.203125-67.746094 0-4.714843-3.820312-8.535156-8.535156-8.535156h-42.667969c0-9.425781-7.640625-17.066406-17.066406-17.066406h-102.398437c-9.425782 0-17.066407 7.640625-17.066407 17.066406h-42.667969c-4.710937 0-8.53125 3.820313-8.53125 8.535156 0 22.117188 10.957032 62.710938 51.199219 67.746094v17.585937h-42.667969c-4.710937 0-8.53125 3.820313-8.53125 8.53125 0 22.121094 10.957032 62.714844 51.199219 67.746094v17.589844zm9.257813 17.066406h33.410156v41.8125c-24.636719-4.546875-31.523437-28.628906-33.410156-41.8125zm203.351563 0c-1.886719 13.183594-8.78125 37.265625-33.410157 41.8125v-41.8125zm0-93.867187c-1.886719 13.183593-8.78125 37.265625-33.410157 41.8125v-41.8125zm0-93.867188c-1.886719 13.183594-8.78125 37.265625-33.410157 41.8125v-41.8125zm-152.875-17.066406h102.398437v273.066406h-102.398437zm-50.476563 17.066406h33.410156v41.8125c-24.636719-4.546875-31.523437-28.628906-33.410156-41.8125zm0 93.867188h33.410156v41.8125c-24.636719-4.546875-31.523437-28.628907-33.410156-41.8125zm0 0"/></svg>