<svg height="512pt" viewBox="0 0 512 512.00044" width="512pt" xmlns="http://www.w3.org/2000/svg"><path d="m494.933594 418.132812v-298.664062c0-14.140625-11.460938-25.601562-25.601563-25.601562h-61.132812c-1.40625-2.808594-2.753907-5.667969-4.332031-8.328126 0-.070312 0-.136718-.070313-.207031-.066406-.066406-.09375-.082031-.128906-.144531-14.921875-25.824219-36.371094-47.273438-62.199219-62.199219-.050781 0-.074219-.09375-.136719-.117187-.058593-.027344-.125 0-.1875-.070313-52.691406-30.402343-117.597656-30.402343-170.289062 0-.0625 0-.128907 0-.1875.070313-.0625.066406-.085938.09375-.144531.125-25.824219 14.925781-47.273438 36.371094-62.199219 62.191406 0 .0625-.085938.085938-.121094.144531-.035156.0625 0 .128907-.070313.191407-1.609374 2.738281-3.097656 5.535156-4.503906 8.34375h-60.960937c-14.140625 0-25.601563 11.460937-25.601563 25.601562v298.664062c-9.425781 0-17.066406 7.640626-17.066406 17.066407v34.132812c.0273438 23.554688 19.113281 42.640625 42.667969 42.667969h426.664062c23.554688-.027344 42.640625-19.113281 42.667969-42.667969v-34.132812c0-9.425781-7.640625-17.066407-17.066406-17.066407zm-322.96875-375.953124 8.378906 14.507812c1.511719 2.660156 4.335938 4.308594 7.398438 4.316406 3.0625.007813 5.894531-1.628906 7.417968-4.285156 1.527344-2.652344 1.511719-5.921875-.035156-8.566406l-8.382812-14.503906c18.902343-9.5625 39.578124-15.113282 60.726562-16.300782v16.785156c0 4.714844 3.820312 8.535157 8.53125 8.535157 4.714844 0 8.535156-3.820313 8.535156-8.535157v-16.785156c21.148438 1.183594 41.820313 6.730469 60.722656 16.292969l-8.378906 14.503906c-1.550781 2.644531-1.566406 5.910157-.039062 8.566407 1.523437 2.65625 4.355468 4.289062 7.417968 4.285156 3.0625-.007813 5.886719-1.65625 7.398438-4.316406l8.378906-14.507813c17.730469 11.589844 32.863282 26.722656 44.453125 44.449219l-14.507812 8.382812c-2.664063 1.511719-4.308594 4.335938-4.316407 7.398438-.007812 3.0625 1.628907 5.890625 4.285157 7.417968 2.652343 1.523438 5.921875 1.511719 8.5625-.039062l14.429687-8.328125c.777344 1.535156 1.65625 2.988281 2.375 4.566406 8.195313 17.632813 12.890625 36.691407 13.832032 56.113281h-16.613282c-4.714844 0-8.535156 3.820313-8.535156 8.535157 0 4.710937 3.820312 8.53125 8.535156 8.53125h16.785156c-1.179687 21.152343-6.726562 41.832031-16.292968 60.734375l-14.503906-8.390625c-2.644532-1.546875-5.914063-1.5625-8.566407-.035157-2.65625 1.523438-4.289062 4.355469-4.285156 7.417969.007813 3.0625 1.65625 5.882813 4.316406 7.398438l1.980469 1.144531h-231.917969l1.976563-1.144531c4.046875-2.371094 5.421875-7.566407 3.074218-11.628907-2.34375-4.0625-7.527343-5.46875-11.605468-3.152343l-14.507813 8.378906c-9.5625-18.898437-15.117187-39.574219-16.304687-60.722656h16.785156c4.710938 0 8.53125-3.820313 8.53125-8.53125 0-4.714844-3.820312-8.535157-8.53125-8.535157h-16.617188c.953126-19.460937 5.671876-38.550781 13.894532-56.214843.671875-1.503907 1.570312-2.972657 2.320312-4.457031l14.429688 8.328124c2.640625 1.550782 5.910156 1.5625 8.566406.039063s4.289062-4.355469 4.28125-7.417969c-.003906-3.0625-1.652344-5.886718-4.316406-7.398437l-14.503906-8.382813c11.582031-17.726562 26.714843-32.863281 44.441406-44.449218zm-137.832032 77.289062c0-4.714844 3.820313-8.535156 8.535157-8.535156h53.503906c-7.203125 19.089844-10.875 39.332031-10.839844 59.734375.015625 26.679687 6.292969 52.988281 18.332031 76.800781h-35.398437c-4.710937 0-8.53125 3.820312-8.53125 8.53125 0 4.714844 3.820313 8.535156 8.53125 8.535156h375.46875c4.710937 0 8.53125-3.820312 8.53125-8.535156 0-4.710938-3.820313-8.53125-8.53125-8.53125h-35.386719c12.039063-23.8125 18.316406-50.121094 18.320313-76.800781.035156-20.402344-3.636719-40.644531-10.839844-59.734375h53.503906c4.714844 0 8.535157 3.820312 8.535157 8.535156v298.664062h-443.734376zm293.394532 315.730469-6.179688 12.347656c-1.433594 2.902344-4.394531 4.734375-7.628906 4.71875h-115.4375c-3.234375.015625-6.195312-1.816406-7.628906-4.71875l-6.179688-12.347656zm141.804687 59.734375h-426.664062c-14.140625 0-25.601563-11.460938-25.601563-25.601563h93.867188c4.710937 0 8.535156-3.820312 8.535156-8.53125 0-4.714843-3.824219-8.535156-8.535156-8.535156h-93.867188v-17.066406h148.328125l9.992188 19.984375c4.3125 8.695312 13.191406 14.179687 22.894531 14.148437h115.4375c9.703125.03125 18.582031-5.453125 22.894531-14.148437l9.992188-19.984375h148.328125v17.066406h-93.867188c-4.710937 0-8.53125 3.820313-8.53125 8.535156 0 4.710938 3.820313 8.53125 8.53125 8.53125h93.867188c0 14.140625-11.460938 25.601563-25.601563 25.601563zm0 0"/><path d="m153.601562 452.265625h-8.535156c-4.710937 0-8.53125 3.820313-8.53125 8.535156 0 4.710938 3.820313 8.53125 8.53125 8.53125h8.535156c4.710938 0 8.53125-3.820312 8.53125-8.53125 0-4.714843-3.820312-8.535156-8.53125-8.535156zm0 0"/><path d="m366.933594 452.265625h-8.535156c-4.710938 0-8.53125 3.820313-8.53125 8.535156 0 4.710938 3.820312 8.53125 8.53125 8.53125h8.535156c4.710937 0 8.535156-3.820312 8.535156-8.53125 0-4.714843-3.824219-8.535156-8.535156-8.535156zm0 0"/><path d="m238.769531 141.371094c-12.027343 7.085937-18.515625 20.800781-16.363281 34.597656 2.152344 13.792969 12.511719 24.878906 26.128906 27.960938 13.617188 3.085937 27.738282-2.453126 35.625-13.976563l62.832032 22.859375c2.890624 1.175781 6.195312.675781 8.613281-1.300781 2.414062-1.980469 3.558593-5.117188 2.980469-8.1875-.578126-3.066407-2.789063-5.574219-5.757813-6.535157l-62.976563-22.921874c.101563-1.066407.324219-2.109376.324219-3.199219 0-18.851563-15.28125-34.132813-34.132812-34.132813-.28125 0-.546875.074219-.851563.082032l-25.117187-87.761719c-1.292969-4.535157-6.019531-7.160157-10.554688-5.863281-4.53125 1.296874-7.15625 6.019531-5.863281 10.554687zm34.296875 29.296875c-.015625 1.941406-.371094 3.863281-1.050781 5.683593l-.058594.101563c-.003906.0625-.003906.125 0 .1875-3.117187 8.191406-11.972656 12.648437-20.410156 10.277344-8.4375-2.367188-13.671875-10.78125-12.074219-19.398438 1.601563-8.617187 9.511719-14.589843 18.238282-13.773437 8.722656.816406 15.386718 8.15625 15.355468 16.921875zm0 0"/><path d="m93.867188 281.601562h-17.066407c-9.425781 0-17.066406 7.640626-17.066406 17.066407v17.066406c0 9.425781 7.640625 17.066406 17.066406 17.066406h17.066407c9.425781 0 17.066406-7.640625 17.066406-17.066406v-17.066406c0-9.425781-7.640625-17.066407-17.066406-17.066407zm-17.066407 34.132813v-17.066406h17.066407v17.066406zm0 0"/><path d="m145.066406 332.800781h290.132813c9.425781 0 17.066406-7.640625 17.066406-17.066406v-17.066406c0-9.425781-7.640625-17.066407-17.066406-17.066407h-290.132813c-9.425781 0-17.066406 7.640626-17.066406 17.066407v17.066406c0 9.425781 7.640625 17.066406 17.066406 17.066406zm290.132813-17.066406h-145.066407v-17.066406h145.066407zm-290.132813-17.066406h128v17.066406h-128zm0 0"/><path d="m93.867188 349.867188h-17.066407c-9.425781 0-17.066406 7.640624-17.066406 17.066406v17.066406c0 9.425781 7.640625 17.066406 17.066406 17.066406h17.066407c9.425781 0 17.066406-7.640625 17.066406-17.066406v-17.066406c0-9.425782-7.640625-17.066406-17.066406-17.066406zm-17.066407 34.132812v-17.066406h17.066407v17.066406zm0 0"/><path d="m435.199219 401.066406c9.425781 0 17.066406-7.640625 17.066406-17.066406v-17.066406c0-9.425782-7.640625-17.066406-17.066406-17.066406h-290.132813c-9.425781 0-17.066406 7.640624-17.066406 17.066406v17.066406c0 9.425781 7.640625 17.066406 17.066406 17.066406zm0-17.066406h-145.066407v-17.066406h145.066407zm-290.132813-17.066406h128v17.066406h-128zm0 0"/></svg>