<svg height="512pt" viewBox="0 0 512 512.01821" width="512pt" xmlns="http://www.w3.org/2000/svg"><path d="m145.074219 460.816406c-14.136719 0-25.597657 11.464844-25.597657 25.601563v8.535156h-110.933593c-4.714844 0-8.5351565 3.820313-8.5351565 8.53125 0 4.714844 3.8203125 8.535156 8.5351565 8.535156h494.933593c4.710938 0 8.53125-3.820312 8.53125-8.535156 0-4.710937-3.820312-8.53125-8.53125-8.53125h-110.933593v-8.535156c0-14.136719-11.460938-25.601563-25.601563-25.601563h-25.597656v-34.132812h128c23.550781-.027344 42.636719-19.113282 42.664062-42.664063v-307.203125c-.027343-23.550781-19.113281-42.636718-42.664062-42.664062h-68.269531c-4.710938 0-8.53125 3.820312-8.53125 8.53125 0 4.714844 3.820312 8.535156 8.53125 8.535156h68.269531c14.136719 0 25.597656 11.460938 25.597656 25.597656v273.070313h-477.867187v-273.070313c0-14.136718 11.464843-25.597656 25.601562-25.597656h68.265625c4.714844 0 8.535156-3.820312 8.535156-8.535156 0-4.710938-3.820312-8.53125-8.535156-8.53125h-68.265625c-23.550781.027344-42.6367185 19.113281-42.6679685 42.664062v307.203125c.03125 23.550781 19.1171875 42.636719 42.6679685 42.664063h128v34.132812zm230.402343 25.601563v8.535156h-238.933593v-8.535156c0-4.710938 3.820312-8.53125 8.53125-8.53125h221.867187c4.714844 0 8.535156 3.820312 8.535156 8.53125zm-358.402343-102.398438v-17.066406h477.867187v17.066406c0 14.136719-11.460937 25.597657-25.597656 25.597657h-426.667969c-14.136719 0-25.601562-11.460938-25.601562-25.597657zm170.667969 42.664063h136.535156v34.132812h-136.535156zm0 0"/><path d="m213.34375 196.285156c0 18.851563 15.28125 34.132813 34.132812 34.132813h17.066407c18.851562 0 34.132812-15.28125 34.132812-34.132813v-22.691406c-.304687-15.542969 4.976563-30.683594 14.882813-42.664062 28.199218-33.019532 25.007812-82.480469-7.203125-111.601563-16.070313-14.511719-37.632813-21.367187-59.136719-18.796875-35.671875 4.671875-63.535156 33.109375-67.472656 68.871094-2.601563 21.476562 3.648437 43.085937 17.304687 59.863281 10.316407 12.144531 16.074219 27.5 16.292969 43.433594zm68.265625 0c0 9.425782-7.640625 17.066406-17.066406 17.066406h-17.066407c-9.425781 0-17.066406-7.640624-17.066406-17.066406v-8.535156h51.199219zm-71.332031-77.808594c-10.738282-13.21875-15.640625-30.238281-13.574219-47.144531 2.996094-27.898437 24.667969-50.136719 52.480469-53.855469 16.671875-1.972656 33.390625 3.34375 45.855468 14.59375 25.289063 22.910157 27.777344 61.773438 5.617188 87.722657-11.964844 14.292969-18.671875 32.253906-19.003906 50.890625h-51.242188c-.683594-19.164063-7.769531-37.542969-20.132812-52.207032zm0 0"/><path d="m110.941406 85.351562c0 4.710938 3.820313 8.535157 8.535156 8.535157h34.132813c4.710937 0 8.53125-3.824219 8.53125-8.535157 0-4.710937-3.820313-8.535156-8.53125-8.535156h-34.132813c-4.714843 0-8.535156 3.824219-8.535156 8.535156zm0 0"/><path d="m156.109375 121.984375-25.601563 25.601563c-2.214843 2.140624-3.105468 5.3125-2.324218 8.296874.78125 2.984376 3.109375 5.316407 6.09375 6.09375 2.984375.78125 6.15625-.105468 8.296875-2.324218l25.601562-25.601563c3.234375-3.347656 3.1875-8.671875-.105469-11.960937-3.289062-3.292969-8.613281-3.339844-11.960937-.105469zm0 0"/><path d="m392.542969 76.816406h-34.132813c-4.714844 0-8.535156 3.824219-8.535156 8.535156 0 4.710938 3.820312 8.535157 8.535156 8.535157h34.132813c4.710937 0 8.53125-3.824219 8.53125-8.535157 0-4.710937-3.820313-8.535156-8.53125-8.535156zm0 0"/><path d="m343.84375 134.050781 25.597656 25.601563c3.347656 3.234375 8.671875 3.1875 11.964844-.105469 3.289062-3.292969 3.335938-8.613281.101562-11.960937l-25.597656-25.601563c-3.351562-3.234375-8.671875-3.1875-11.964844.105469-3.289062 3.289062-3.335937 8.613281-.101562 11.960937zm0 0"/><path d="m168.175781 36.652344-25.601562-25.601563c-3.347657-3.234375-8.667969-3.1875-11.960938.105469s-3.335937 8.613281-.105469 11.960938l25.601563 25.601562c3.347656 3.234375 8.671875 3.1875 11.960937-.105469 3.292969-3.289062 3.339844-8.613281.105469-11.960937zm0 0"/><path d="m349.875 51.21875c2.265625 0 4.433594-.898438 6.035156-2.5l25.597656-25.601562c3.234376-3.347657 3.1875-8.667969-.101562-11.960938-3.292969-3.292969-8.617188-3.339844-11.964844-.105469l-25.597656 25.601563c-2.441406 2.441406-3.171875 6.109375-1.851562 9.296875 1.320312 3.1875 4.433593 5.269531 7.882812 5.269531zm0 0"/><path d="m76.808594 264.550781c-9.425782 0-17.066406 7.640625-17.066406 17.066407v17.066406c0 9.425781 7.640624 17.066406 17.066406 17.066406h17.066406c9.425781 0 17.066406-7.640625 17.066406-17.066406v-17.066406c0-9.425782-7.640625-17.066407-17.066406-17.066407zm0 34.132813v-17.066406h17.066406v17.066406zm0 0"/><path d="m145.074219 315.75h290.136719c9.421874 0 17.066406-7.640625 17.066406-17.066406v-17.066406c0-9.425782-7.644532-17.066407-17.066406-17.066407h-290.136719c-9.425781 0-17.066407 7.640625-17.066407 17.066407v17.066406c0 9.425781 7.640626 17.066406 17.066407 17.066406zm290.136719-17.066406h-145.070313v-17.066406h145.070313zm-290.136719-17.066406h128v17.066406h-128zm0 0"/></svg>