<svg height="512pt" viewBox="0 0 512 512.12299" width="512pt" xmlns="http://www.w3.org/2000/svg"><path d="m273.144531 153.722656c0-65.980468-53.488281-119.464844-119.46875-119.464844-65.976562 0-119.464843 53.484376-119.464843 119.464844 0 65.980469 53.488281 119.46875 119.464843 119.46875 65.953125-.074218 119.398438-53.519531 119.46875-119.46875zm-221.867187 0c0-56.554687 45.847656-102.398437 102.398437-102.398437 56.554688 0 102.402344 45.84375 102.402344 102.398437 0 56.554688-45.847656 102.398438-102.402344 102.398438-56.527343-.058594-102.335937-45.871094-102.398437-102.398438zm0 0"/><path d="m162.210938 153.722656v-76.800781c0-4.710937-3.820313-8.53125-8.535157-8.53125-4.710937 0-8.53125 3.820313-8.53125 8.53125v68.269531h-51.199219c-4.714843 0-8.535156 3.820313-8.535156 8.53125 0 4.714844 3.820313 8.535156 8.535156 8.535156h59.730469c4.714844 0 8.535157-3.820312 8.535157-8.535156zm0 0"/><path d="m486.476562 170.789062h-180.265624c.675781-5.664062 1.03125-11.363281 1.066406-17.066406.050781-73.292968-51.6875-136.410156-123.566406-150.742187-71.875-14.332031-143.867188 24.117187-171.929688 91.824219-28.0625 67.707031-4.378906 145.808593 56.5625 186.527343v205.191407c0 14.136718 11.460938 25.597656 25.601562 25.597656h392.53125c14.140626 0 25.601563-11.460938 25.601563-25.597656v-290.132813c0-14.140625-11.460937-25.601563-25.601563-25.601563zm-469.332031-17.066406c0-75.40625 61.128907-136.53125 136.53125-136.53125 75.40625 0 136.535157 61.125 136.535157 136.53125.015624 8.0625-.707032 16.109375-2.160157 24.039063-7.960937 44.605469-37.539062 82.355469-78.949219 100.75-41.410156 18.390625-89.25 15.035156-127.683593-8.964844-40.097657-24.816406-64.429688-68.671875-64.273438-115.824219zm477.867188 332.800782c0 4.710937-3.820313 8.53125-8.535157 8.53125h-392.53125c-4.714843 0-8.535156-3.820313-8.535156-8.53125v-195.183594c42.167969 20.917968 91.597656 21.34375 134.121094 1.160156s73.441406-58.75 83.898438-104.644531h183.046874c4.714844 0 8.535157 3.820312 8.535157 8.535156zm0 0"/><path d="m460.878906 204.921875h-68.269531c-9.425781 0-17.066406 7.640625-17.066406 17.066406v102.402344c0 9.425781 7.640625 17.066406 17.066406 17.066406h68.269531c9.425782 0 17.066406-7.640625 17.066406-17.066406v-102.402344c0-9.425781-7.640624-17.066406-17.066406-17.066406zm-68.269531 119.46875v-102.402344h68.269531v102.402344zm0 0"/><path d="m111.011719 367.054688h34.132812c4.710938 0 8.53125-3.820313 8.53125-8.53125 0-4.714844-3.820312-8.535157-8.53125-8.535157h-34.132812c-4.714844 0-8.535157 3.820313-8.535157 8.535157 0 4.710937 3.820313 8.53125 8.535157 8.53125zm0 0"/><path d="m341.410156 349.988281h-153.597656c-4.714844 0-8.535156 3.820313-8.535156 8.535157 0 4.710937 3.820312 8.53125 8.535156 8.53125h153.597656c4.714844 0 8.535156-3.820313 8.535156-8.53125 0-4.714844-3.820312-8.535157-8.535156-8.535157zm0 0"/><path d="m111.011719 401.191406h102.398437c4.714844 0 8.535156-3.820312 8.535156-8.535156 0-4.710938-3.820312-8.535156-8.535156-8.535156h-102.398437c-4.714844 0-8.535157 3.824218-8.535157 8.535156 0 4.714844 3.820313 8.535156 8.535157 8.535156zm0 0"/><path d="m315.8125 384.121094h-59.734375c-4.714844 0-8.535156 3.824218-8.535156 8.535156 0 4.714844 3.820312 8.535156 8.535156 8.535156h59.734375c4.710938 0 8.53125-3.820312 8.53125-8.535156 0-4.710938-3.820312-8.535156-8.53125-8.535156zm0 0"/><path d="m273.144531 418.257812h-162.132812c-4.714844 0-8.535157 3.820313-8.535157 8.53125 0 4.714844 3.820313 8.535157 8.535157 8.535157h162.132812c4.710938 0 8.53125-3.820313 8.53125-8.535157 0-4.710937-3.820312-8.53125-8.53125-8.53125zm0 0"/></svg>