<svg height="512pt" viewBox="-60 0 512 512.04277" width="512pt" xmlns="http://www.w3.org/2000/svg"><path d="m.0195312 59.777344v426.664062c0 14.140625 11.4648438 25.601563 25.6015628 25.601563h341.332031c14.140625 0 25.601563-11.460938 25.601563-25.601563v-426.664062c0-14.140625-11.460938-25.601563-25.601563-25.601563h-128.851563c-4.039062-19.886719-21.523437-34.175781-41.8125-34.175781-20.292968 0-37.777343 14.289062-41.8125 34.175781h-128.855468c-14.136719 0-25.6015628 11.460938-25.6015628 25.601563zm375.4687498 0v426.664062c0 4.714844-3.820312 8.535156-8.535156 8.535156h-341.332031c-4.710938 0-8.53125-3.820312-8.53125-8.535156v-426.664062c0-4.714844 3.820312-8.535156 8.53125-8.535156h85.332031v17.066406h-59.730469c-9.425781 0-17.066406 7.640625-17.066406 17.066406v375.46875c0 9.425781 7.640625 17.066406 17.066406 17.066406h290.132813c9.425781 0 17.066406-7.640625 17.066406-17.066406v-375.46875c0-9.425781-7.640625-17.066406-17.066406-17.066406h-59.734375v-17.066406h85.332031c4.714844 0 8.535156 3.820312 8.535156 8.535156zm-95.4375 25.597656h61.304688v375.46875h-290.132813v-375.46875h61.300782c3.605468 10.191406 13.222656 17.023438 24.03125 17.066406h119.464843c10.8125-.042968 20.429688-6.875 24.03125-17.066406zm-83.761719-68.265625c10.808594.042969 20.425782 6.875 24.027344 17.066406h-48.058594c3.605469-10.191406 13.21875-17.023437 24.03125-17.066406zm68.265626 34.132813v25.601562c0 4.710938-3.820313 8.53125-8.535157 8.53125h-119.464843c-4.710938 0-8.535157-3.820312-8.535157-8.53125v-25.601562zm0 0"/><path d="m196.289062 153.644531h-59.734374c-1.324219-.003906-2.628907.304688-3.8125.894531l-34.136719 17.066407c-.851563.453125-1.617188 1.046875-2.269531 1.757812-.175782.175781-.339844.367188-.492188.5625-.164062.207031-.359375.359375-.503906.574219l-34.050782 51.070312c-.441406.65625-.800781 1.363282-1.066406 2.109376-.917968 2.726562-.410156 5.738281 1.359375 8.011718l127.878907 170.539063c.050781.058593.128906.074219.171874.136719.691407.90625 1.5625 1.664062 2.558594 2.226562.070313 0 .152344.050781.230469.09375s.238281.085938.359375.136719c1.097656.519531 2.292969.796875 3.507812.820312 1.214844-.03125 2.410157-.324219 3.507813-.855469.117187-.050781.238281-.078124.355469-.136718.121094-.058594.164062-.050782.230468-.09375.996094-.558594 1.867188-1.316406 2.5625-2.226563 0-.058593.117188-.078125.167969-.136719l127.898438-170.496093c.320312-.390625.605469-.8125.855469-1.253907 1.316406-2.476562 1.316406-5.445312 0-7.917968-.167969-.332032-.359376-.648438-.574219-.949219l-34.039063-51.070313c-.136718-.207031-.332031-.367187-.496094-.5625-.160156-.199218-.324218-.394531-.5-.582031-.65625-.691406-1.417968-1.269531-2.261718-1.707031l-34.132813-17.066406c-1.191406-.613282-2.503906-.9375-3.84375-.945313zm-90.386718 35.753907 38.402344 12.800781-6.238282 49.917969-57.0625-25.359376zm125.515625 15.445312 6.402343 51.199219h-83.0625l6.398438-51.199219zm-35.128907 171.953125-38.886718-103.6875h77.773437zm-101.496093-125.234375 43.519531 19.355469 29.011719 77.4375zm130.390625 96.792969 29.011718-77.4375 43.519532-19.355469zm29.34375-96.246094-6.238282-49.921875 38.402344-12.796875 24.898438 37.355469zm13.390625-74.445313-30.335938 10.113282h-82.585937l-30.335938-10.113282 13.910156-6.953124h115.4375zm0 0"/></svg>