<svg height="504pt" viewBox="-25 0 504 504.67721" width="504pt" xmlns="http://www.w3.org/2000/svg"><path d="m.351562 52.988281c-.140624 18.675781 9.457032 36.074219 25.332032 45.910157 0 .964843-.148438 1.90625-.148438 2.871093.015625 12.566407 2.882813 24.964844 8.390625 36.261719v282.691406c0 13.90625 11.273438 25.179688 25.183594 25.179688h171.667969c.839844 1.460937 1.445312 2.980468 2.316406 4.40625 22.71875 34.605468 61.609375 55.128906 102.996094 54.347656 62.589844 0 113.757812-43.949219 117.183594-99.042969.164062-.546875.273437-1.109375.324218-1.679687v-58.753906c-.050781-.570313-.160156-1.132813-.324218-1.679688-2.695313-33.234375-21.351563-63.09375-50.035157-80.097656v-111.269532c0-.179687-.09375-.328124-.101562-.511718-.046875-.761719-.199219-1.507813-.453125-2.226563-.078125-.265625-.167969-.53125-.277344-.789062-.390625-.871094-.925781-1.667969-1.585938-2.359375l-.050781-.058594-109.113281-109.113281c-.695312-.667969-1.503906-1.210938-2.382812-1.605469-.25-.105469-.503907-.195312-.765626-.273438-.734374-.257812-1.503906-.414062-2.28125-.464843-.195312-.023438-.328124-.109375-.496093-.109375h-144.257813c-1.554687-1.039063-3.039062-2.164063-4.675781-3.085938-13.601563-7.71875-29.335937-10.835937-44.855469-8.890625-9.066406-13.992187-24.554687-22.5-41.226562-22.644531-28.519532.773438-51.039063 24.46875-50.363282 52.988281zm99.742188 10.390625 7.6875 7.132813c6.480469 5.382812 10.183594 13.402343 10.070312 21.824219.523438 14.449218-10.730468 26.605468-25.179687 27.195312-7.539063-.066406-14.628906-3.582031-19.246094-9.542969l-6.804687-6.808593c17.421875-6.394532 30.160156-21.539063 33.472656-39.800782zm123.265625 256.621094h-88.710937c-4.636719 0-8.394532 3.757812-8.394532 8.394531 0 4.632813 3.757813 8.390625 8.394532 8.390625h84.867187c-.304687 2.226563-.460937 4.484375-.605469 6.714844-.167968.546875-.277344 1.109375-.328125 1.679688v8.394531h-83.933593c-4.636719 0-8.394532 3.757812-8.394532 8.394531 0 4.632812 3.757813 8.390625 8.394532 8.390625h83.933593v23.78125c.054688.472656.148438.941406.285157 1.398437h-126.1875v-100.71875h143.234374c-5.363281 7.75-9.589843 16.230469-12.554687 25.179688zm112.730469 167.867188c-35.5625.800781-69.046875-16.699219-88.691406-46.355469-7.089844-11.453125-11.136719-24.53125-11.75-37.988281 23.078124 32.429687 60.644531 51.417968 100.441406 50.773437 16.300781.011719 32.453125-3.070313 47.601562-9.082031 2.933594-.652344 5.722656-1.828125 8.242188-3.46875.125-.066406.207031-.175782.328125-.242188 17.84375-8.597656 33.128906-21.714844 44.332031-38.046875-2.25 46.867188-46.398438 84.410157-100.503906 84.410157zm100.722656-138.488282c0 48.597656-45.183594 88.128906-100.722656 88.128906-55.539063 0-100.71875-39.53125-100.71875-88.128906.214844-21.414062 8.84375-41.882812 24.019531-56.984375l.070313-.066406c20.335937-20.230469 47.949218-31.429687 76.628906-31.082031 55.539062 0 100.722656 39.53125 100.722656 88.132812zm-89.902344-104.433594c-.78125-.28125-1.597656-.445312-2.425781-.484374h-92.328125c-4.636719 0-8.394531 3.757812-8.394531 8.390624 0 4.636719 3.757812 8.394532 8.394531 8.394532h20.40625c-8.109375 4.675781-15.625 10.3125-22.386719 16.785156h-157.496093c-9.269532 0-16.785157 7.515625-16.785157 16.789062v100.71875c0 9.273438 7.515625 16.789063 16.785157 16.789063h126.792968c.824219 5.707031 2.164063 11.324219 4.003906 16.785156h-164.367187c-4.636719 0-8.394531-3.757812-8.394531-8.390625v-259.753906c13.523437 13.0625 31.558594 20.417969 50.359375 20.539062 42.84375-1.238281 76.617187-36.890624 75.542969-79.738281.054687-18.207031-5.933594-35.917969-17.023438-50.359375h117.742188v83.933594c0 13.90625 11.273437 25.179688 25.179687 25.179688h83.9375v94.199218c-12.574219-5.355468-25.921875-8.660156-39.542969-9.777344zm-44.394531-101.207031c-4.632813 0-8.390625-3.757812-8.390625-8.394531v-72.066406l80.457031 80.460937zm-174.011719-97.609375c19.6875 11.566406 31.648438 32.8125 31.324219 55.640625 1.082031 33.578125-25.179687 61.71875-58.753906 62.953125-21.8125-.320312-41.621094-12.804687-51.316407-32.351562-4.339843-8.429688-6.808593-17.695313-7.234374-27.167969.929687.160156 1.863281.34375 2.808593.453125l15.707031 15.664062c7.777344 9.476563 19.382813 14.988282 31.640626 15.03125 23.71875-.59375 42.484374-20.261718 41.96875-43.980468.167968-13.304688-5.652344-25.976563-15.855469-34.515625l-19.304688-17.960938c-.082031-.328125-.160156-.671875-.242187-1 10.234375-.332031 20.359375 2.171875 29.257812 7.234375zm-44.214844 6.859375c.671876 19.246094-14.332031 35.417969-33.574218 36.191407-19.242188-.773438-34.246094-16.945313-33.574219-36.191407-.675781-19.25 14.328125-35.429687 33.574219-36.203125 19.246094.773438 34.25 16.953125 33.574218 36.203125zm0 0"/><path d="m92.679688 227.671875h33.574218c4.636719 0 8.394532-3.757813 8.394532-8.394531 0-4.632813-3.757813-8.390625-8.394532-8.390625h-33.574218c-4.632813 0-8.390626 3.757812-8.390626 8.390625 0 4.636718 3.757813 8.394531 8.390626 8.394531zm0 0"/><path d="m243.761719 210.886719h-83.933594c-4.636719 0-8.394531 3.757812-8.394531 8.390625 0 4.636718 3.757812 8.394531 8.394531 8.394531h83.933594c4.636719 0 8.394531-3.757813 8.394531-8.394531 0-4.632813-3.757812-8.390625-8.394531-8.390625zm0 0"/><path d="m344.484375 210.886719h-67.148437c-4.632813 0-8.390626 3.757812-8.390626 8.390625 0 4.636718 3.757813 8.394531 8.390626 8.394531h67.148437c4.636719 0 8.394531-3.757813 8.394531-8.394531 0-4.632813-3.757812-8.390625-8.394531-8.390625zm0 0"/><path d="m210.191406 244.460938h-117.511718c-4.632813 0-8.390626 3.757812-8.390626 8.390624 0 4.636719 3.757813 8.394532 8.390626 8.394532h117.511718c4.632813 0 8.390625-3.757813 8.390625-8.394532 0-4.632812-3.757812-8.390624-8.390625-8.390624zm0 0"/><path d="m327.699219 286.425781v67.148438c0 2.226562.882812 4.359375 2.457031 5.933593l46.164062 46.164063c3.292969 3.179687 8.527344 3.136719 11.765626-.101563 3.238281-3.238281 3.285156-8.472656.101562-11.765624l-43.703125-43.707032v-63.671875c0-4.636719-3.757813-8.394531-8.394531-8.394531-4.632813 0-8.390625 3.757812-8.390625 8.394531zm0 0"/></svg>