<svg height="512pt" viewBox="-94 0 512 512" width="512pt" xmlns="http://www.w3.org/2000/svg"><path d="m42.667969 0c-23.554688.0273438-42.6406252 19.113281-42.667969 42.667969v426.664062c.0273438 23.554688 19.113281 42.640625 42.667969 42.667969h238.933593c23.550782-.027344 42.636719-19.113281 42.664063-42.667969v-426.664062c-.027344-23.554688-19.113281-42.6406252-42.664063-42.667969zm238.933593 494.933594h-238.933593c-14.140625 0-25.601563-11.460938-25.601563-25.601563v-42.664062h290.132813v42.664062c0 14.140625-11.460938 25.601563-25.597657 25.601563zm25.597657-452.265625v366.933593h-290.132813v-366.933593c0-14.140625 11.460938-25.601563 25.601563-25.601563h238.933593c14.136719 0 25.597657 11.460938 25.597657 25.601563zm0 0"/><path d="m145.066406 51.199219h34.132813c4.714843 0 8.535156-3.820313 8.535156-8.53125 0-4.714844-3.820313-8.535157-8.535156-8.535157h-34.132813c-4.710937 0-8.53125 3.820313-8.53125 8.535157 0 4.710937 3.820313 8.53125 8.53125 8.53125zm0 0"/><path d="m241.40625 48.726562c.832031.75 1.785156 1.359376 2.816406 1.789063 2.066406.914063 4.421875.914063 6.488282 0 1.03125-.429687 1.984374-1.039063 2.8125-1.789063.753906-.832031 1.359374-1.785156 1.792968-2.816406.4375-1.027344.671875-2.128906.683594-3.242187 0-4.714844-3.820312-8.535157-8.535156-8.535157-4.710938 0-8.53125 3.820313-8.53125 8.535157.011718 1.113281.246094 2.214843.683594 3.242187.433593 1.03125 1.039062 1.984375 1.789062 2.816406zm0 0"/><path d="m275.542969 36.609375c-1.5625 1.632813-2.445313 3.796875-2.476563 6.058594.015625 1.113281.246094 2.214843.683594 3.242187.433594 1.03125 1.039062 1.984375 1.792969 2.816406.828125.75 1.78125 1.359376 2.8125 1.789063 2.066406.914063 4.421875.914063 6.488281 0 1.03125-.429687 1.984375-1.039063 2.816406-1.789063.75-.832031 1.355469-1.785156 1.789063-2.816406.4375-1.027344.671875-2.128906.683593-3.242187.019532-3.46875-2.058593-6.601563-5.261718-7.933594-3.199219-1.328125-6.886719-.589844-9.328125 1.875zm0 0"/><path d="m162.132812 435.199219c-14.136718 0-25.597656 11.460937-25.597656 25.601562 0 14.136719 11.460938 25.597657 25.597656 25.597657 14.140626 0 25.601563-11.460938 25.601563-25.597657 0-14.140625-11.460937-25.601562-25.601563-25.601562zm0 34.132812c-4.710937 0-8.53125-3.820312-8.53125-8.53125 0-4.714843 3.820313-8.535156 8.53125-8.535156 4.714844 0 8.535157 3.820313 8.535157 8.535156 0 4.710938-3.820313 8.53125-8.535157 8.53125zm0 0"/><path d="m68.265625 68.265625c-18.851563 0-34.132813 15.28125-34.132813 34.132813 0 18.851562 15.28125 34.136718 34.132813 34.136718s34.132813-15.285156 34.132813-34.136718c0-9.050782-3.59375-17.734376-9.996094-24.132813-6.402344-6.402344-15.082032-10-24.136719-10zm0 51.199219c-9.425781 0-17.066406-7.640625-17.066406-17.066406 0-9.425782 7.640625-17.066407 17.066406-17.066407s17.066406 7.640625 17.066406 17.066407c0 9.425781-7.640625 17.066406-17.066406 17.066406zm0 0"/><path d="m74.324219 96.339844c-3.421875-3.15625-8.695313-3.15625-12.117188 0-.753906.832031-1.359375 1.785156-1.792969 2.816406-1.519531 3.574219-.4375 7.722656 2.636719 10.097656 3.070313 2.375 7.359375 2.375 10.433594 0s4.15625-6.523437 2.632813-10.097656c-.433594-1.03125-1.039063-1.984375-1.792969-2.816406zm0 0"/><path d="m281.601562 93.867188h-153.601562c-4.710938 0-8.535156 3.820312-8.535156 8.53125 0 4.714843 3.824218 8.535156 8.535156 8.535156h153.601562c4.710938 0 8.53125-3.820313 8.53125-8.535156 0-4.710938-3.820312-8.53125-8.53125-8.53125zm0 0"/><path d="m68.265625 153.601562c-18.851563 0-34.132813 15.28125-34.132813 34.132813s15.28125 34.132813 34.132813 34.132813 34.132813-15.28125 34.132813-34.132813-15.28125-34.132813-34.132813-34.132813zm0 51.199219c-9.425781 0-17.066406-7.640625-17.066406-17.066406s7.640625-17.066406 17.066406-17.066406 17.066406 7.640625 17.066406 17.066406-7.640625 17.066406-17.066406 17.066406zm0 0"/><path d="m74.324219 181.675781c-3.421875-3.160156-8.695313-3.160156-12.117188 0-.753906.828125-1.359375 1.78125-1.792969 2.816407-.476562 1.011718-.710937 2.121093-.679687 3.242187 0 4.710937 3.820313 8.53125 8.53125 8.53125 4.714844 0 8.535156-3.820313 8.535156-8.53125.023438-1.121094-.210937-2.230469-.683593-3.242187-.433594-1.035157-1.039063-1.988282-1.792969-2.816407zm0 0"/><path d="m281.601562 179.199219h-153.601562c-4.710938 0-8.535156 3.820312-8.535156 8.535156 0 4.710937 3.824218 8.53125 8.535156 8.53125h153.601562c4.710938 0 8.53125-3.820313 8.53125-8.53125 0-4.714844-3.820312-8.535156-8.53125-8.535156zm0 0"/><path d="m68.265625 238.933594c-18.851563 0-34.132813 15.28125-34.132813 34.132812 0 18.851563 15.28125 34.132813 34.132813 34.132813s34.132813-15.28125 34.132813-34.132813c0-18.851562-15.28125-34.132812-34.132813-34.132812zm0 51.199218c-9.425781 0-17.066406-7.640624-17.066406-17.066406 0-9.425781 7.640625-17.066406 17.066406-17.066406s17.066406 7.640625 17.066406 17.066406c0 9.425782-7.640625 17.066406-17.066406 17.066406zm0 0"/><path d="m62.207031 267.007812c-1.5625 1.632813-2.445312 3.796876-2.472656 6.058594.011719 1.117188.246094 2.21875.679687 3.242188.4375 1.035156 1.042969 1.984375 1.792969 2.816406.832031.753906 1.785157 1.359375 2.816407 1.792969 2.625 1.125 5.640624.847656 8.015624-.734375 2.375-1.585938 3.789063-4.261719 3.761719-7.117188.019531-3.464844-2.058593-6.601562-5.261719-7.929687-3.203124-1.332031-6.890624-.589844-9.332031 1.871093zm0 0"/><path d="m281.601562 264.535156h-153.601562c-4.710938 0-8.535156 3.820313-8.535156 8.53125 0 4.714844 3.824218 8.535156 8.535156 8.535156h153.601562c4.710938 0 8.53125-3.820312 8.53125-8.535156 0-4.710937-3.820312-8.53125-8.53125-8.53125zm0 0"/><path d="m68.265625 324.265625c-18.851563 0-34.132813 15.28125-34.132813 34.132813 0 18.851562 15.28125 34.136718 34.132813 34.136718s34.132813-15.285156 34.132813-34.136718c0-18.851563-15.28125-34.132813-34.132813-34.132813zm0 51.199219c-9.425781 0-17.066406-7.640625-17.066406-17.066406 0-9.425782 7.640625-17.066407 17.066406-17.066407s17.066406 7.640625 17.066406 17.066407c0 9.425781-7.640625 17.066406-17.066406 17.066406zm0 0"/><path d="m74.324219 352.339844c-.417969-.382813-.875-.726563-1.363281-1.023438-.4375-.335937-.929688-.59375-1.453126-.765625-.511718-.261719-1.058593-.433593-1.628906-.511719-1.089844-.257812-2.226562-.257812-3.320312 0-.535156.089844-1.050782.265626-1.535156.511719-.546876.1875-1.066407.445313-1.542969.765625-.445313.316406-.867188.660156-1.273438 1.023438-.769531.816406-1.378906 1.773437-1.792969 2.816406-.90625 2.066406-.90625 4.421875 0 6.488281.4375 1.03125 1.042969 1.984375 1.792969 2.8125.816407.773438 1.773438 1.382813 2.816407 1.792969 2.066406.910156 4.421874.910156 6.484374 0 2.144532-.773438 3.832032-2.464844 4.609376-4.605469.910156-2.066406.910156-4.421875 0-6.488281-.414063-1.042969-1.019532-2-1.792969-2.816406zm0 0"/><path d="m281.601562 349.867188h-153.601562c-4.710938 0-8.535156 3.820312-8.535156 8.53125 0 4.714843 3.824218 8.535156 8.535156 8.535156h153.601562c4.710938 0 8.53125-3.820313 8.53125-8.535156 0-4.710938-3.820312-8.53125-8.53125-8.53125zm0 0"/></svg>