<svg height="511pt" viewBox="0 -7 511.99605 511" width="511pt" xmlns="http://www.w3.org/2000/svg"><path d="m.257812 375.121094c-.832031 3.304687.386719 6.789062 3.097657 8.855468l145.066406 110.933594c1.484375 1.144532 3.304687 1.761719 5.179687 1.757813.546876 0 1.09375-.054688 1.628907-.160157l349.867187-68.269531c3.554688-.691406 6.285156-3.554687 6.808594-7.140625.523438-3.582031-1.273438-7.105468-4.480469-8.789062l-179.199219-93.867188c-1.632812-.851562-3.5-1.148437-5.316406-.855468l-16.128906 2.5625c25.773438-89.484376 70.25-172.480469 130.492188-243.492188 3.984374-4.765625 8.035156-9.488281 12.160156-14.164062 8.226562-9.257813 16.957031-18.050782 26.15625-26.34375.980468-.851563 2.457031-2.40625 4.265625-4.265626l2.289062-2.363281c4.910157-5 6.261719-12.496093 3.410157-18.902343-2.710938-6.382813-9.101563-10.414063-16.03125-10.101563-53.734376 1.773437-185.363282 29.3125-260.746094 244.1875-29.242188-17.644531-119.058594-64-180.257813-10.460937-2.679687 2.339843-3.625 6.09375-2.375 9.425781 1.25 3.328125 4.433594 5.535156 7.988281 5.535156h.0625c3.273438 1.289063 6.484376 2.746094 9.617188 4.359375l1.765625.851562c12.21875 5.394532 24.046875 11.636719 35.394531 18.679688 29.144532 17.773438 53.570313 42.316406 71.203125 71.542969.121094.199219.230469.445312.351563.648437l-145.359375 23.492188c-3.363281.546875-6.078125 3.039062-6.910157 6.34375zm221.609376 44.746094h4.019531c17.015625 0 37.546875-.527344 52.15625-15.144532 8.121093-8.589844 13.835937-19.167968 16.5625-30.667968l22.425781-3.671876 58.972656 30.910157-211.738281 41.300781-51.199219-39.152344 64.625-10.503906c10.144532 14.984375 23.695313 26.929688 44.175782 26.929688zm-131.90625-161.332032c-12.015626-7.441406-24.535157-14.035156-37.472657-19.726562l-.792969-.394532c63.011719-37.433593 155.792969 25.652344 156.792969 26.335938 2.207031 1.523438 5 1.917969 7.542969 1.070312 2.546875-.851562 4.542969-2.847656 5.390625-5.390624 71.382813-214.160157 197.640625-241.167969 248.46875-242.8125l-2.367187 2.4375c-1.441407 1.503906-2.625 2.75-3.410157 3.472656-9.667969 8.722656-18.84375 17.96875-27.488281 27.699218-4.214844 4.78125-8.363281 9.617188-12.449219 14.507813-64.757812 76.242187-111.636719 166.007813-137.199219 262.714844-.042968.148437-.078124.28125-.109374.429687-.605469 2.40625-1.265626 4.8125-1.84375 7.226563-1.1875 4.992187-2.117188 10.121093-3.046876 15.28125-.800781 4.449219-1.613281 8.808593-2.558593 13.03125l-.054688.222656c-1.695312 10.433594-6.347656 20.160156-13.402343 28.03125-10.140626 10.128906-26.171876 10.171875-42.0625 10.128906h-2.03125c-14.507813 0-24.398438-9.949219-32.496094-23.175781-.160156-.324219-.347656-.636719-.5625-.929688-4.199219-7.015624-7.945313-14.867187-11.640625-22.648437-3.472657-7.3125-6.746094-14.222656-10.359375-20.242187-19.027344-31.558594-45.390625-58.066407-76.847656-77.269532zm70.75 102.675782c.347656.734374.6875 1.40625 1.039062 2.148437 2.125 4.472656 4.34375 9.132813 6.734375 13.78125l-77.65625 12.628906c-3.359375.546875-6.078125 3.039063-6.910156 6.34375-.828125 3.304688.382812 6.785157 3.089843 8.855469l69.972657 53.503906c1.476562 1.136719 3.289062 1.753906 5.152343 1.757813.546876.003906 1.09375-.046875 1.632813-.152344l239.359375-46.6875c3.554688-.691406 6.285156-3.554687 6.808594-7.140625.523437-3.582031-1.273438-7.109375-4.480469-8.789062l-83.027344-43.519532c-1.640625-.855468-3.511719-1.15625-5.335937-.855468l-18.636719 3.046874c.101563-.5625.214844-1.144531.316406-1.707031.855469-4.847656 1.707031-9.675781 2.859375-14.371093.144532-.605469.316406-1.21875.460938-1.824219l20.734375-3.34375 155.152343 81.269531-322.242187 62.875-126.277344-96.574219zm0 0"/><path d="m303.0625 162.792969c1.261719.710937 2.6875 1.078125 4.136719 1.074219 3.105469.003906 5.964843-1.679688 7.46875-4.394532 40.625-73.113281 89.597656-98.574218 90.238281-98.910156 4.214844-2.121094 5.914062-7.257812 3.792969-11.472656-2.121094-4.214844-7.257813-5.914063-11.472657-3.792969-2.183593 1.09375-54.058593 27.691406-97.507812 105.898437-1.097656 1.980469-1.359375 4.316407-.730469 6.492188.625 2.175781 2.09375 4.011719 4.074219 5.105469zm0 0"/><path d="m277.785156 205.679688c2.027344 1.015624 4.371094 1.179687 6.519532.464843 2.148437-.71875 3.921874-2.257812 4.933593-4.285156l8.53125-17.066406c2.109375-4.21875.398438-9.347657-3.820312-11.453125-4.21875-2.105469-9.347657-.394532-11.453125 3.824218l-8.53125 17.066407c-1.015625 2.023437-1.179688 4.371093-.464844 6.515625.71875 2.148437 2.261719 3.925781 4.285156 4.933594zm0 0"/></svg>