<svg height="512pt" viewBox="-68 0 512 512.04277" width="512pt" xmlns="http://www.w3.org/2000/svg"><path d="m375.488281 486.441406v-426.664062c0-14.140625-11.460937-25.601563-25.601562-25.601563h-120.320313c-4.035156-19.886719-21.519531-34.175781-41.8125-34.175781-20.289062 0-37.773437 14.289062-41.8125 34.175781h-120.320312c-14.136719 0-25.6015628 11.460938-25.6015628 25.601563v426.664062c0 14.140625 11.4648438 25.601563 25.6015628 25.601563h324.265625c14.140625 0 25.601562-11.460938 25.601562-25.601563zm-230.398437-68.265625c0-23.5625 19.101562-42.667969 42.664062-42.667969 23.566406 0 42.667969 19.105469 42.667969 42.667969 0 23.566407-19.101563 42.667969-42.667969 42.667969-23.550781-.027344-42.636718-19.113281-42.664062-42.667969zm102.398437 0c.039063-27.136719-18.222656-50.886719-44.453125-57.828125-26.234375-6.941406-53.851562 4.671875-67.238281 28.277344-13.386719 23.601562-9.183594 53.265625 10.238281 72.21875h-94.8125v-375.46875h52.769532c3.601562 10.191406 13.21875 17.023438 24.027343 17.066406h18.015625c-17.386718 16.96875-22.765625 42.773438-13.605468 65.273438 9.160156 22.5 31.03125 37.210937 55.324218 37.210937 24.292969 0 46.167969-14.710937 55.324219-37.210937 9.160156-22.5 3.78125-48.304688-13.605469-65.273438h18.015625c10.808594-.042968 20.425781-6.875 24.03125-17.066406h52.769531v375.46875h-94.816406c11.523438-11.207031 18.019532-26.597656 18.015625-42.667969zm-17.066406-273.066406c0 23.5625-19.101563 42.667969-42.667969 42.667969-23.5625 0-42.664062-19.105469-42.664062-42.667969s19.101562-42.667969 42.664062-42.667969c23.554688.03125 42.640625 19.117188 42.667969 42.667969zm-42.667969-128c10.8125.042969 20.425782 6.875 24.03125 17.066406h-48.058594c3.601563-10.191406 13.21875-17.023437 24.027344-17.066406zm68.265625 34.132813v25.601562c0 4.710938-3.820312 8.53125-8.53125 8.53125h-119.46875c-4.710937 0-8.53125-3.820312-8.53125-8.53125v-25.601562zm-238.929687 435.199218v-426.664062c0-4.714844 3.820312-8.535156 8.53125-8.535156h76.800781v17.066406h-59.734375c-4.710938 0-8.53125 3.820312-8.53125 8.535156v392.53125c0 4.714844 3.820312 8.535156 8.53125 8.535156h290.132812c4.714844 0 8.535157-3.820312 8.535157-8.535156v-392.53125c0-4.714844-3.820313-8.535156-8.535157-8.535156h-59.730468v-17.066406h76.796875c4.714843 0 8.535156 3.820312 8.535156 8.535156v426.664062c0 4.714844-3.820313 8.535156-8.535156 8.535156h-324.265625c-4.710938 0-8.53125-3.820312-8.53125-8.535156zm0 0"/><path d="m187.753906 221.910156c-32.988281 0-59.734375 26.742188-59.734375 59.734375 0 32.988281 26.746094 59.730469 59.734375 59.730469 32.992188 0 59.734375-26.742188 59.734375-59.730469-.042969-32.972656-26.761719-59.691406-59.734375-59.734375zm0 102.398438c-23.5625 0-42.664062-19.101563-42.664062-42.664063 0-23.566406 19.101562-42.667969 42.664062-42.667969 23.566406 0 42.667969 19.101563 42.667969 42.667969-.027344 23.550781-19.113281 42.636719-42.667969 42.664063zm0 0"/><path d="m187.753906 153.644531c4.714844 0 8.535156-3.820312 8.535156-8.535156v-25.601563c0-4.710937-3.820312-8.53125-8.535156-8.53125-4.710937 0-8.53125 3.820313-8.53125 8.53125v25.601563c0 4.714844 3.820313 8.535156 8.53125 8.535156zm0 0"/><path d="m184.511719 178.558594c1.027343.4375 2.128906.671875 3.242187.683594 2.261719-.015626 4.433594-.902344 6.058594-2.472657 1.601562-1.609375 2.496094-3.789062 2.476562-6.058593 0-4.714844-3.820312-8.535157-8.535156-8.535157-4.710937 0-8.53125 3.820313-8.53125 8.535157-.023437 2.269531.867188 4.453124 2.472656 6.058593.816407.769531 1.773438 1.378907 2.816407 1.789063zm0 0"/><path d="m209.214844 257.261719c-4.039063-2.425781-9.277344-1.117188-11.707032 2.917969l-14.171874 23.613281-5.976563-7.484375c-2.945313-3.679688-8.316406-4.277344-11.996094-1.332032-3.679687 2.945313-4.277343 8.320313-1.332031 12l13.652344 17.066407c1.625 2.015625 4.070312 3.191406 6.65625 3.199219h.574218c2.785157-.1875 5.304688-1.726563 6.742188-4.121094l20.476562-34.132813c1.171876-1.941406 1.523438-4.269531.976563-6.46875-.550781-2.199219-1.949219-4.089843-3.894531-5.257812zm0 0"/><path d="m210.855469 395.078125c-3.332031-3.332031-8.734375-3.332031-12.066407 0l-11.035156 11.03125-11.03125-11.03125c-3.351562-3.234375-8.671875-3.1875-11.964844.101563-3.289062 3.292968-3.335937 8.613281-.101562 11.960937l11.03125 11.035156-11.03125 11.035157c-2.21875 2.140624-3.109375 5.3125-2.328125 8.296874.78125 2.984376 3.109375 5.3125 6.09375 6.09375s6.15625-.109374 8.300781-2.324218l11.03125-11.035156 11.035156 11.035156c3.347657 3.230468 8.667969 3.1875 11.960938-.105469s3.339844-8.613281.105469-11.960937l-11.035157-11.035157 11.035157-11.035156c3.332031-3.332031 3.332031-8.730469 0-12.0625zm0 0"/></svg>