<svg height="512pt" viewBox="-26 0 512 512.04277" width="512pt" xmlns="http://www.w3.org/2000/svg"><path d="m.0195312 59.777344v366.933594c0 14.136718 11.4648438 25.597656 25.6015628 25.597656h128v17.066406c.027344 23.554688 19.113281 42.640625 42.667968 42.667969h221.867188c23.550781-.027344 42.636719-19.113281 42.664062-42.667969v-221.867188c-.027343-23.550781-19.113281-42.636718-42.664062-42.664062h-8.535156v-17.066406c0-14.140625-11.460938-25.601563-25.601563-25.601563-14.136719 0-25.597656 11.460938-25.597656 25.601563v17.066406h-17.066406v-145.066406c0-14.140625-11.460938-25.601563-25.601563-25.601563h-103.253906c-4.035156-19.886719-21.519531-34.175781-41.8125-34.175781-20.289062 0-37.773438 14.289062-41.8125 34.175781h-103.253906c-14.136719 0-25.6015628 11.460938-25.6015628 25.601563zm86.9062498 25.597656c3.601563 10.191406 13.21875 17.023438 24.027344 17.066406h119.46875c10.808594-.042968 20.425781-6.875 24.03125-17.066406h35.703125v119.46875h-34.136719v-17.066406c-.027343-2.914063-.558593-5.800782-1.566406-8.535156h10.101563c4.710937 0 8.535156-3.820313 8.535156-8.53125 0-4.714844-3.824219-8.535157-8.535156-8.535157h-128c-4.710938 0-8.535157 3.820313-8.535157 8.535157 0 4.710937 3.824219 8.53125 8.535157 8.53125h69.835937c-1.011719 2.734374-1.539063 5.621093-1.570313 8.535156v17.066406h-8.53125c-23.554687.027344-42.640624 19.113281-42.667968 42.664062v153.601563h-102.398438v-315.734375zm134.960938 102.402344c0-4.714844 3.820312-8.535156 8.535156-8.535156 4.710937 0 8.53125 3.820312 8.53125 8.535156v51.199218c0 4.710938-3.820313 8.53125-8.53125 8.53125-4.714844 0-8.535156-3.820312-8.535156-8.53125zm196.269531 307.199218h-221.867188c-14.140624 0-25.601562-11.460937-25.601562-25.601562v-170.664062h273.066406v170.664062c0 14.140625-11.460937 25.601562-25.597656 25.601562zm-42.667969-307.199218c0-4.714844 3.820313-8.535156 8.53125-8.535156 4.714844 0 8.535157 3.820312 8.535157 8.535156v51.199218c0 4.710938-3.820313 8.53125-8.535157 8.53125-4.710937 0-8.53125-3.820312-8.53125-8.53125zm8.53125 76.796875c14.140625 0 25.601563-11.460938 25.601563-25.597657v-17.066406h8.535156c14.136719 0 25.597656 11.460938 25.597656 25.597656v34.136719h-273.066406v-34.136719c0-14.136718 11.460938-25.597656 25.601562-25.597656h8.53125v17.066406c0 14.136719 11.460938 25.597657 25.601563 25.597657 14.136719 0 25.597656-11.460938 25.597656-25.597657v-17.066406h102.402344v17.066406c0 14.136719 11.460937 25.597657 25.597656 25.597657zm-59.730469-204.796875v145.066406h-17.066406v-128c0-4.714844-3.820312-8.535156-8.535156-8.535156h-42.667969v-17.066406h59.734375c4.714844 0 8.535156 3.820312 8.535156 8.535156zm-153.601562-42.667969c10.808594.042969 20.425781 6.875 24.03125 17.066406h-48.0625c3.605469-10.191406 13.222656-17.023437 24.03125-17.066406zm68.265625 34.132813v25.601562c0 4.710938-3.820313 8.53125-8.53125 8.53125h-119.46875c-4.710937 0-8.53125-3.820312-8.53125-8.53125v-25.601562zm-221.863281 8.535156c0-4.714844 3.820312-8.535156 8.53125-8.535156h59.734375v17.066406h-42.667969c-4.710938 0-8.53125 3.820312-8.53125 8.535156v332.800781c0 4.710938 3.820312 8.53125 8.53125 8.53125h110.933594v17.066407h-128c-4.710938 0-8.53125-3.820313-8.53125-8.53125zm0 0"/><path d="m76.820312 136.574219h25.601563c4.710937 0 8.53125-3.820313 8.53125-8.53125 0-4.714844-3.820313-8.535157-8.53125-8.535157h-25.601563c-4.710937 0-8.53125 3.820313-8.53125 8.535157 0 4.710937 3.820313 8.53125 8.53125 8.53125zm0 0"/><path d="m136.554688 136.574219h128c4.710937 0 8.535156-3.820313 8.535156-8.53125 0-4.714844-3.824219-8.535157-8.535156-8.535157h-128c-4.710938 0-8.535157 3.820313-8.535157 8.535157 0 4.710937 3.824219 8.53125 8.535157 8.53125zm0 0"/><path d="m76.820312 179.242188h25.601563c4.710937 0 8.53125-3.820313 8.53125-8.53125 0-4.714844-3.820313-8.535157-8.53125-8.535157h-25.601563c-4.710937 0-8.53125 3.820313-8.53125 8.535157 0 4.710937 3.820313 8.53125 8.53125 8.53125zm0 0"/><path d="m76.820312 221.910156h25.601563c4.710937 0 8.53125-3.820312 8.53125-8.535156 0-4.710938-3.820313-8.53125-8.53125-8.53125h-25.601563c-4.710937 0-8.53125 3.820312-8.53125 8.53125 0 4.714844 3.820313 8.535156 8.53125 8.535156zm0 0"/><path d="m76.820312 264.574219h25.601563c4.710937 0 8.53125-3.820313 8.53125-8.53125 0-4.714844-3.820313-8.535157-8.53125-8.535157h-25.601563c-4.710937 0-8.53125 3.820313-8.53125 8.535157 0 4.710937 3.820313 8.53125 8.53125 8.53125zm0 0"/><path d="m76.820312 307.242188h25.601563c4.710937 0 8.53125-3.820313 8.53125-8.53125 0-4.714844-3.820313-8.535157-8.53125-8.535157h-25.601563c-4.710937 0-8.53125 3.820313-8.53125 8.535157 0 4.710937 3.820313 8.53125 8.53125 8.53125zm0 0"/><path d="m76.820312 349.910156h25.601563c4.710937 0 8.53125-3.820312 8.53125-8.535156 0-4.710938-3.820313-8.53125-8.53125-8.53125h-25.601563c-4.710937 0-8.53125 3.820312-8.53125 8.53125 0 4.714844 3.820313 8.535156 8.53125 8.535156zm0 0"/><path d="m290.15625 315.777344h-35.449219c-1.691406-.003906-3.347656.5-4.753906 1.441406l-32.816406 21.980469c-2.367188 1.585937-3.785157 4.246093-3.78125 7.09375v29.214843c0 4.714844 3.820312 8.535157 8.53125 8.535157h17.066406v76.800781c0 4.710938 3.820313 8.53125 8.535156 8.53125h42.667969c4.710938 0 8.53125-3.820312 8.53125-8.53125v-136.535156c0-4.710938-3.820312-8.53125-8.53125-8.53125zm-8.535156 136.53125h-25.601563v-76.800782c0-4.710937-3.820312-8.53125-8.53125-8.53125h-17.066406v-16.128906l26.871094-18.003906h24.328125zm0 0"/><path d="m392.554688 315.777344h-35.449219c-1.691407-.003906-3.34375.5-4.75 1.441406l-32.820313 21.980469c-2.363281 1.585937-3.78125 4.246093-3.78125 7.09375v29.214843c0 4.714844 3.820313 8.535157 8.535156 8.535157h17.066407v76.800781c0 4.710938 3.820312 8.53125 8.53125 8.53125h42.667969c4.710937 0 8.535156-3.820312 8.535156-8.53125v-136.535156c0-4.710938-3.824219-8.53125-8.535156-8.53125zm-8.535157 136.53125h-25.597656v-76.800782c0-4.710937-3.820313-8.53125-8.535156-8.53125h-17.066407v-16.128906l26.871094-18.003906h24.328125zm0 0"/></svg>