<svg height="504pt" viewBox="-25 0 504 504.16903" width="504pt" xmlns="http://www.w3.org/2000/svg"><path d="m310.640625 33.617188h-101.558594c-3.972656-19.5625-21.171875-33.617188-41.128906-33.617188s-37.15625 14.054688-41.128906 33.617188h-101.558594c-13.90625 0-25.1796875 11.273437-25.1796875 25.179687v360.917969c0 13.90625 11.2734375 25.179687 25.1796875 25.179687h198.269531l-12.136718 20.984375c-4.492188 7.777344-4.5 17.359375-.019532 25.148438 4.480469 7.785156 12.765625 12.59375 21.75 12.621094 2.226563.007812 4.449219-.273438 6.605469-.839844 6.441406-1.71875 11.925781-5.953125 15.21875-11.75l17.136719-29.628906c30.171875 11.488281 63.507812 11.515624 93.695312.074218l17.308594 30.023438c3.332031 5.84375 8.875 10.097656 15.378906 11.800781 2.117188.558594 4.296875.839844 6.488282.839844 4.398437.003906 8.71875-1.171875 12.511718-3.40625 5.8125-3.316407 10.058594-8.816407 11.792969-15.28125 1.734375-6.464844.8125-13.351563-2.558594-19.132813l-17.894531-30.996094c39.078125-35.066406 54.074219-89.730468 38.359375-139.828124-15.714844-50.101563-59.242187-86.40625-111.351563-92.871094v-143.855469c0-13.90625-11.273437-25.179687-25.179687-25.179687zm8.394531 25.179687v142.6875c-5.613281.035156-11.222656.425781-16.785156 1.167969v-127.070313c0-4.632812-3.757812-8.390625-8.394531-8.390625h-41.96875v-16.789062h58.753906c4.636719 0 8.394531 3.757812 8.394531 8.394531zm-233.472656 25.179687c3.546875 10.023438 13.003906 16.742188 23.636719 16.785157h117.507812c10.632813-.042969 20.09375-6.761719 23.636719-16.785157h35.117188v121.929688c-39.058594 9.953125-71.546876 36.992188-88.425782 73.59375-16.882812 36.601562-16.355468 78.863281 1.429688 115.035156h-148.019532v-310.558594zm82.390625-67.148437c10.632813.042969 20.09375 6.761719 23.636719 16.789063h-47.273438c3.546875-10.027344 13.003906-16.746094 23.636719-16.789063zm67.148437 33.574219v25.179687c0 4.636719-3.757812 8.394531-8.394531 8.394531h-117.507812c-4.636719 0-8.394531-3.757812-8.394531-8.394531v-25.179687zm-218.230468 369.3125v-360.917969c0-4.636719 3.757812-8.394531 8.394531-8.394531h58.753906v16.789062h-41.96875c-4.632812 0-8.390625 3.757813-8.390625 8.390625v327.34375c0 4.636719 3.757813 8.394531 8.390625 8.394531h166.039063c4.101562 5.953126 8.671875 11.566407 13.675781 16.789063h-196.5c-4.636719 0-8.394531-3.757813-8.394531-8.394531zm223.535156 62.949218c-1.09375 1.914063-2.90625 3.308594-5.035156 3.871094-2.164063.585938-4.472656.285156-6.414063-.839844-1.933593-1.097656-3.347656-2.925781-3.921875-5.078124-.570312-2.148438-.257812-4.4375.875-6.355469l16.449219-28.402344c4.574219 3.203125 9.339844 6.117187 14.269531 8.730469zm171.761719-7.890624c1.125 1.917968 1.425781 4.207031.839843 6.347656-.589843 2.171875-2.03125 4.019531-3.996093 5.121094-1.890625 1.113281-4.152344 1.414062-6.269531.835937-2.164063-.5625-4.011719-1.980469-5.117188-3.925781l-16.394531-28.460938c4.949219-2.59375 9.726562-5.496094 14.3125-8.6875zm24.375-138.992188c0 64.898438-52.609375 117.507812-117.507813 117.507812-64.898437 0-117.507812-52.609374-117.507812-117.507812s52.609375-117.507812 117.507812-117.507812c64.871094.066406 117.4375 52.636718 117.507813 117.507812zm0 0"/><path d="m75.625 134.335938h25.179688c4.636718 0 8.394531-3.757813 8.394531-8.390626 0-4.636718-3.757813-8.394531-8.394531-8.394531h-25.179688c-4.636719 0-8.394531 3.757813-8.394531 8.394531 0 4.632813 3.757812 8.390626 8.394531 8.390626zm0 0"/><path d="m134.378906 134.335938h125.902344c4.636719 0 8.394531-3.757813 8.394531-8.390626 0-4.636718-3.757812-8.394531-8.394531-8.394531h-125.902344c-4.636718 0-8.394531 3.757813-8.394531 8.394531 0 4.632813 3.757813 8.390626 8.394531 8.390626zm0 0"/><path d="m75.625 176.304688h25.179688c4.636718 0 8.394531-3.757813 8.394531-8.394532 0-4.636718-3.757813-8.394531-8.394531-8.394531h-25.179688c-4.636719 0-8.394531 3.757813-8.394531 8.394531 0 4.636719 3.757812 8.394532 8.394531 8.394532zm0 0"/><path d="m134.378906 176.304688h41.96875c4.632813 0 8.394532-3.757813 8.394532-8.394532 0-4.636718-3.761719-8.394531-8.394532-8.394531h-41.96875c-4.636718 0-8.394531 3.757813-8.394531 8.394531 0 4.636719 3.757813 8.394532 8.394531 8.394532zm0 0"/><path d="m134.378906 218.273438h41.96875c4.632813 0 8.394532-3.757813 8.394532-8.394532 0-4.636718-3.761719-8.394531-8.394532-8.394531h-41.96875c-4.636718 0-8.394531 3.757813-8.394531 8.394531 0 4.636719 3.757813 8.394532 8.394531 8.394532zm0 0"/><path d="m134.378906 260.238281h41.96875c4.632813 0 8.394532-3.757812 8.394532-8.394531 0-4.632812-3.761719-8.390625-8.394532-8.390625h-41.96875c-4.636718 0-8.394531 3.757813-8.394531 8.390625 0 4.636719 3.757813 8.394531 8.394531 8.394531zm0 0"/><path d="m134.378906 302.207031h25.179688c4.636718 0 8.394531-3.757812 8.394531-8.394531s-3.757813-8.394531-8.394531-8.394531h-25.179688c-4.636718 0-8.394531 3.757812-8.394531 8.394531s3.757813 8.394531 8.394531 8.394531zm0 0"/><path d="m134.378906 344.171875h25.179688c4.636718 0 8.394531-3.757813 8.394531-8.390625 0-4.636719-3.757813-8.394531-8.394531-8.394531h-25.179688c-4.636718 0-8.394531 3.757812-8.394531 8.394531 0 4.632812 3.757813 8.390625 8.394531 8.390625zm0 0"/><path d="m75.625 218.273438h25.179688c4.636718 0 8.394531-3.757813 8.394531-8.394532 0-4.636718-3.757813-8.394531-8.394531-8.394531h-25.179688c-4.636719 0-8.394531 3.757813-8.394531 8.394531 0 4.636719 3.757812 8.394532 8.394531 8.394532zm0 0"/><path d="m75.625 260.238281h25.179688c4.636718 0 8.394531-3.757812 8.394531-8.394531 0-4.632812-3.757813-8.390625-8.394531-8.390625h-25.179688c-4.636719 0-8.394531 3.757813-8.394531 8.390625 0 4.636719 3.757812 8.394531 8.394531 8.394531zm0 0"/><path d="m75.625 302.207031h25.179688c4.636718 0 8.394531-3.757812 8.394531-8.394531s-3.757813-8.394531-8.394531-8.394531h-25.179688c-4.636719 0-8.394531 3.757812-8.394531 8.394531s3.757812 8.394531 8.394531 8.394531zm0 0"/><path d="m75.625 344.171875h25.179688c4.636718 0 8.394531-3.757813 8.394531-8.390625 0-4.636719-3.757813-8.394531-8.394531-8.394531h-25.179688c-4.636719 0-8.394531 3.757812-8.394531 8.394531 0 4.632812 3.757812 8.390625 8.394531 8.390625zm0 0"/><path d="m218.3125 335.78125c0 55.625 45.097656 100.71875 100.722656 100.71875 55.628906 0 100.722656-45.09375 100.722656-100.71875 0-55.628906-45.09375-100.722656-100.722656-100.722656-55.601562.058594-100.660156 45.121094-100.722656 100.722656zm184.65625 0c0 46.355469-37.578125 83.933594-83.933594 83.933594-46.355468 0-83.933594-37.578125-83.933594-83.933594s37.578126-83.9375 83.933594-83.9375c46.335938.050781 83.882813 37.601562 83.933594 83.9375zm0 0"/><path d="m261.824219 173.550781c-5.105469-7.296875-12.902344-12.261719-21.675781-13.808593-8.769532-1.546876-17.796876.457031-25.089844 5.566406l-6.875 4.816406c-15.183594 10.636719-18.875 31.566406-8.242188 46.753906l4.808594 6.875c1.269531 1.824219 3.222656 3.066406 5.414062 3.449219.480469.089844.96875.132813 1.460938.132813 1.722656.003906 3.402344-.527344 4.808594-1.519532l48.136718-33.691406c1.824219-1.273438 3.066407-3.222656 3.453126-5.417969.390624-2.191406-.109376-4.449219-1.386719-6.273437zm-48.136719 33.707031c-5.316406-7.589843-3.472656-18.054687 4.113281-23.375l6.890625-4.808593c7.59375-5.316407 18.058594-3.476563 23.378906 4.113281zm0 0"/><path d="m425.917969 226.664062c.488281.003907.976562-.042968 1.460937-.132812 2.191406-.386719 4.144532-1.625 5.421875-3.449219l4.808594-6.875c10.632813-15.183593 6.945313-36.113281-8.234375-46.75l-6.890625-4.828125c-7.296875-5.105468-16.320313-7.105468-25.089844-5.554687-8.769531 1.546875-16.566406 6.515625-21.667969 13.8125l-4.8125 6.875c-1.277343 1.824219-1.777343 4.082031-1.390624 6.273437.390624 2.195313 1.632812 4.144532 3.457031 5.417969l48.128906 33.691406c1.40625.992188 3.085937 1.523438 4.808594 1.519531zm-25.601563-51.054687c4.382813-.792969 8.902344.207031 12.539063 2.777344l6.875 4.816406c7.59375 5.320313 9.4375 15.78125 4.121093 23.375l-34.371093-24.070313c2.546875-3.65625 6.449219-6.140624 10.835937-6.898437zm0 0"/><path d="m310.640625 268.632812v8.394532c0 4.632812 3.757813 8.390625 8.394531 8.390625 4.636719 0 8.394532-3.757813 8.394532-8.390625v-8.394532c0-4.636718-3.757813-8.394531-8.394532-8.394531-4.636718 0-8.394531 3.757813-8.394531 8.394531zm0 0"/><path d="m319.035156 386.140625c-4.636718 0-8.394531 3.757813-8.394531 8.394531v8.390625c0 4.636719 3.757813 8.394531 8.394531 8.394531 4.636719 0 8.394532-3.757812 8.394532-8.394531v-8.390625c0-4.636718-3.757813-8.394531-8.394532-8.394531zm0 0"/><path d="m260.28125 327.386719h-8.394531c-4.632813 0-8.390625 3.757812-8.390625 8.394531 0 4.632812 3.757812 8.390625 8.390625 8.390625h8.394531c4.636719 0 8.394531-3.757813 8.394531-8.390625 0-4.636719-3.757812-8.394531-8.394531-8.394531zm0 0"/><path d="m377.789062 344.171875h8.394532c4.636718 0 8.394531-3.757813 8.394531-8.390625 0-4.636719-3.757813-8.394531-8.394531-8.394531h-8.394532c-4.636718 0-8.394531 3.757812-8.394531 8.394531 0 4.632812 3.757813 8.390625 8.394531 8.390625zm0 0"/><path d="m290.496094 303.882812c-3.707032-2.78125-8.96875-2.027343-11.75 1.679688-2.78125 3.710938-2.027344 8.96875 1.679687 11.75l33.574219 25.183594c3.339844 2.503906 8.015625 2.171875 10.96875-.78125l41.96875-41.96875c3.179688-3.292969 3.132812-8.527344-.101562-11.765625-3.238282-3.238281-8.472657-3.28125-11.765626-.101563l-36.824218 36.820313zm0 0"/></svg>