<svg height="512pt" viewBox="-26 0 512 512.00826" width="512pt" xmlns="http://www.w3.org/2000/svg"><path d="m460.804688 401.066406v-341.332031c0-14.140625-11.460938-25.601563-25.601563-25.601563h-162.132813v-8.53125c0-14.140624-11.460937-25.601562-25.597656-25.601562h-34.136718c-14.136719 0-25.597657 11.460938-25.597657 25.601562v8.53125h-162.132812c-14.140625 0-25.60156275 11.460938-25.60156275 25.601563v341.332031c0 14.140625 11.46093775 25.601563 25.60156275 25.601563h113.953125l-18.527344 50.96875c-2.34375 6.332031-2.054688 13.339843.804688 19.457031 2.855468 6.203125 8.082031 11.003906 14.503906 13.328125 6.328125 2.359375 13.339844 2.078125 19.457031-.777344 6.214844-2.855469 11.027344-8.082031 13.363281-14.507812l24.902344-68.46875h10.742188v59.730469c0 14.140624 11.460937 25.601562 25.597656 25.601562 14.140625 0 25.601562-11.460938 25.601562-25.601562v-59.730469h10.742188l24.945312 68.582031c3.734375 10.054688 13.320313 16.734375 24.046875 16.75 8.34375-.003906 16.160157-4.074219 20.949219-10.90625s5.949219-15.570312 3.105469-23.414062l-18.527344-51.011719h113.9375c14.140625 0 25.601563-11.460938 25.601563-25.601563zm-256-375.464844c0-4.714843 3.820312-8.535156 8.53125-8.535156h34.136718c4.710938 0 8.53125 3.820313 8.53125 8.535156v8.53125h-51.199218zm-187.734376 375.464844v-341.332031c0-4.714844 3.820313-8.535156 8.535157-8.535156h409.597656c4.714844 0 8.535156 3.820312 8.535156 8.535156v341.332031c0 4.714844-3.820312 8.535156-8.535156 8.535156h-409.597656c-4.714844 0-8.535157-3.820312-8.535157-8.535156zm136.046876 88.183594c-.785157 2.164062-2.40625 3.925781-4.496094 4.890625-2.015625.9375-4.324219 1.03125-6.410156.261719-2.160157-.78125-3.921876-2.398438-4.886719-4.488282-.949219-2.019531-1.042969-4.335937-.257813-6.425781l20.652344-56.820312h18.183594zm85.820312-2.851562c0 4.714843-3.820312 8.535156-8.535156 8.535156-4.710938 0-8.53125-3.820313-8.53125-8.535156v-59.730469h17.066406zm84.839844-2.839844c.761718 2.078125.660156 4.378906-.28125 6.382812-1.429688 3.152344-4.621094 5.132813-8.078125 5.007813-3.460938-.125-6.503907-2.324219-7.703125-5.570313l-22.800782-62.710937h18.183594zm0 0"/><path d="m138.789062 340.871094 66.082032 25.355468c0 .238282-.066406.46875-.066406.707032 0 14.136718 11.460937 25.601562 25.597656 25.601562 14.140625 0 25.601562-11.464844 25.601562-25.601562-.019531-3.070313-.597656-6.113282-1.707031-8.976563l36.820313-31.003906c4.523437 3.757813 10.210937 5.824219 16.085937 5.847656 14.140625 0 25.601563-11.460937 25.601563-25.601562-.039063-4.390625-1.214844-8.691407-3.414063-12.492188l50.253906-42.308593c3.894531 2.339843 8.347657 3.582031 12.894531 3.601562 14.136719 0 25.597657-11.460938 25.597657-25.601562 0-14.136719-11.460938-25.597657-25.597657-25.597657-1.351562.027344-2.695312.164063-4.019531.410157l-28.160156-51.671876c6.210937-6.8125 8.257813-16.453124 5.351563-25.203124-2.910157-8.753907-10.316407-15.25-19.371094-16.996094-9.054688-1.742188-18.347656 1.542968-24.296875 8.585937l-66.082031-25.351562c0-.238281.070312-.46875.070312-.707031 0-14.140626-11.464844-25.601563-25.601562-25.601563-14.136719 0-25.601563 11.460937-25.601563 25.601563 0 .238281.070313.46875.070313.707031l-66.082032 25.351562c-5.949218-7.042969-15.242187-10.328125-24.296875-8.585937-9.054687 1.746094-16.460937 8.242187-19.367187 16.996094-2.910156 8.75-.863282 18.390624 5.347656 25.203124l-28.160156 51.671876c-1.34375-.25-2.703125-.386719-4.070313-.410157-14.136719 0-25.597656 11.460938-25.597656 25.597657 0 14.140624 11.460937 25.601562 25.597656 25.601562 1.351563-.027344 2.695313-.164062 4.019531-.410156l28.160157 51.667968c-6.210938 6.816407-8.257813 16.457032-5.351563 25.207032 2.910156 8.753906 10.316406 15.25 19.371094 16.996094 9.054688 1.742187 18.347656-1.542969 24.296875-8.589844zm6.214844-15.894532c0-.242187.066406-.472656.066406-.710937 0-14.136719-11.460937-25.597656-25.597656-25.597656-1.351562.027343-2.695312.164062-4.019531.410156l-28.160156-51.671875c2.207031-2.472656 3.917969-5.347656 5.035156-8.472656h96.261719c3.453125 16.742187 16.535156 29.828125 33.28125 33.28125v70.695312c-4.179688 1.496094-7.898438 4.054688-10.785156 7.425782zm85.398438-120.175781c14.140625 0 25.601562 11.460938 25.601562 25.597657 0 14.140624-11.460937 25.601562-25.601562 25.601562-14.136719 0-25.597656-11.460938-25.597656-25.601562 0-14.136719 11.460937-25.597657 25.597656-25.597657zm138.105468 34.132813c.050782.144531.085938.296875.144532.445312l-52.265625 43.996094c-2.925781-1.15625-6.039063-1.757812-9.183594-1.773438-14.136719 0-25.597656 11.460938-25.597656 25.597657 0 1.691406.171875 3.378906.511719 5.035156l-38.84375 32.699219c-1.378907-.8125-2.832032-1.492188-4.335938-2.03125v-70.6875c16.742188-3.453125 29.828125-16.539063 33.28125-33.28125zm-138.105468 136.53125c-4.710938 0-8.53125-3.820313-8.53125-8.53125.011718-1.054688.222656-2.097656.621094-3.070313 0-.054687 0-.105469 0-.15625 1.621093-3.96875 5.933593-6.117187 10.078124-5.023437 4.144532 1.09375 6.835938 5.089844 6.285157 9.34375-.546875 4.25-4.164063 7.433594-8.453125 7.4375zm76.800781-59.730469c-4.710937 0-8.53125-3.820313-8.53125-8.535156 0-4.710938 3.820313-8.53125 8.53125-8.53125 4.714844 0 8.535156 3.820312 8.535156 8.53125 0 4.714843-3.820312 8.535156-8.535156 8.535156zm93.867187-85.335937c0 4.714843-3.820312 8.535156-8.53125 8.535156-4.714843 0-8.535156-3.820313-8.535156-8.535156 0-4.710938 3.820313-8.53125 8.535156-8.53125 4.710938 0 8.53125 3.820312 8.53125 8.53125zm-59.734374-102.398438c4.714843 0 8.535156 3.820312 8.535156 8.535156 0 4.710938-3.820313 8.53125-8.535156 8.53125-4.710938 0-8.53125-3.820312-8.53125-8.53125.011718-1.054687.222656-2.097656.621093-3.074218 0-.050782 0-.101563 0-.152344 1.3125-3.214844 4.441407-5.3125 7.910157-5.308594zm-25.53125 7.824219c0 .238281-.066407.46875-.066407.710937 0 14.136719 11.460938 25.597656 25.597657 25.597656 1.351562-.027343 2.695312-.164062 4.019531-.410156l28.160156 51.671875c-2.210937 2.472657-3.917969 5.347657-5.035156 8.472657h-96.261719c-3.453125-16.746094-16.539062-29.828126-33.28125-33.28125v-70.6875c4.179688-1.496094 7.898438-4.054688 10.785156-7.425782zm-85.402344-50.492188c4.714844 0 8.535156 3.820313 8.535156 8.535157-.011719 1.054687-.222656 2.097656-.621094 3.070312v.15625c-1.328125 3.175781-4.433594 5.25-7.878906 5.25s-6.550781-2.074219-7.875-5.25c0-.050781 0-.105469 0-.15625-.421875-.96875-.65625-2.011719-.691406-3.070312 0-4.714844 3.820312-8.535157 8.53125-8.535157zm-19.316406 25.140625c2.886718 3.371094 6.605468 5.929688 10.785156 7.425782v70.6875c-16.746094 3.453124-29.828125 16.535156-33.28125 33.28125h-96.289063c-1.113281-3.125-2.824219-6-5.035156-8.472657l28.160156-51.671875c1.335938.246094 2.6875.382813 4.046875.410156 14.136719 0 25.597656-11.460937 25.597656-25.597656 0-.242187-.066406-.472656-.066406-.710937zm-91.613282 17.527344c3.453125.007812 6.566406 2.101562 7.875 5.300781v.152344c.410156.976563.632813 2.019531.65625 3.082031 0 4.710938-3.820312 8.53125-8.53125 8.53125-4.714844 0-8.535156-3.820312-8.535156-8.53125 0-4.714844 3.820312-8.535156 8.535156-8.535156zm-59.734375 102.398438c0-4.710938 3.820313-8.53125 8.53125-8.53125 4.714844 0 8.535157 3.820312 8.535157 8.53125 0 4.714843-3.820313 8.535156-8.535157 8.535156-4.710937 0-8.53125-3.820313-8.53125-8.535156zm59.734375 102.402343c-4.714844 0-8.535156-3.820312-8.535156-8.535156 0-4.710937 3.820312-8.53125 8.535156-8.53125 4.710938 0 8.53125 3.820313 8.53125 8.53125-.011718 1.054687-.222656 2.097656-.621094 3.074219v.152344c-1.3125 3.214843-4.441406 5.3125-7.910156 5.308593zm0 0"/></svg>