<svg height="512pt" viewBox="0 0 512 512" width="512pt" xmlns="http://www.w3.org/2000/svg"><path d="m469.332031 0h-426.664062c-23.554688.0273438-42.6406252 19.113281-42.667969 42.667969v358.398437c.0273438 23.550782 19.113281 42.640625 42.667969 42.667969h136.53125v17.066406h-34.132813c-18.851562 0-34.132812 15.28125-34.132812 34.132813v8.53125c0 4.714844 3.820312 8.535156 8.53125 8.535156h273.070312c4.710938 0 8.53125-3.820312 8.53125-8.535156v-8.53125c0-18.851563-15.28125-34.132813-34.132812-34.132813h-34.132813v-17.066406h136.53125c23.554688-.027344 42.640625-19.117187 42.667969-42.667969v-358.398437c-.027344-23.554688-19.113281-42.6406252-42.667969-42.667969zm-426.664062 17.066406h426.664062c14.140625 0 25.601563 11.460938 25.601563 25.601563v307.199219h-477.867188v-307.199219c0-14.140625 11.460938-25.601563 25.601563-25.601563zm341.332031 477.867188h-256c0-9.425782 7.640625-17.066406 17.066406-17.066406h221.867188c9.425781 0 17.066406 7.640624 17.066406 17.066406zm-68.265625-34.132813h-119.46875v-17.066406h119.46875zm153.597656-34.132812h-426.664062c-14.140625 0-25.601563-11.460938-25.601563-25.601563v-34.132812h477.867188v34.132812c0 14.140625-11.460938 25.601563-25.601563 25.601563zm0 0"/><path d="m59.734375 119.464844h179.199219c14.136718 0 25.601562-11.460938 25.601562-25.597656 0-14.140626-11.464844-25.601563-25.601562-25.601563h-179.199219c-14.140625 0-25.601563 11.460937-25.601563 25.601563 0 14.136718 11.460938 25.597656 25.601563 25.597656zm0-34.132813h179.199219c4.710937 0 8.53125 3.820313 8.53125 8.535157 0 4.710937-3.820313 8.53125-8.53125 8.53125h-179.199219c-4.714844 0-8.535156-3.820313-8.535156-8.53125 0-4.714844 3.820312-8.535157 8.535156-8.535157zm0 0"/><path d="m59.734375 256h281.597656c14.140625 0 25.601563-11.460938 25.601563-25.601562 0-14.136719-11.460938-25.597657-25.601563-25.597657h-281.597656c-14.140625 0-25.601563 11.460938-25.601563 25.597657 0 14.140624 11.460938 25.601562 25.601563 25.601562zm0-34.132812h281.597656c4.714844 0 8.535157 3.820312 8.535157 8.53125 0 4.714843-3.820313 8.535156-8.535157 8.535156h-281.597656c-4.714844 0-8.535156-3.820313-8.535156-8.535156 0-4.710938 3.820312-8.53125 8.535156-8.53125zm0 0"/><path d="m238.933594 136.535156h-68.265625c-14.140625 0-25.601563 11.460938-25.601563 25.597656 0 14.140626 11.460938 25.601563 25.601563 25.601563h68.265625c14.136718 0 25.601562-11.460937 25.601562-25.601563 0-14.136718-11.464844-25.597656-25.601562-25.597656zm0 34.132813h-68.265625c-4.714844 0-8.535157-3.820313-8.535157-8.535157 0-4.710937 3.820313-8.53125 8.535157-8.53125h68.265625c4.710937 0 8.53125 3.820313 8.53125 8.53125 0 4.714844-3.820313 8.535157-8.53125 8.535157zm0 0"/><path d="m59.734375 324.265625h85.332031c14.140625 0 25.601563-11.460937 25.601563-25.597656 0-14.140625-11.460938-25.601563-25.601563-25.601563h-85.332031c-14.140625 0-25.601563 11.460938-25.601563 25.601563 0 14.136719 11.460938 25.597656 25.601563 25.597656zm0-34.132813h85.332031c4.714844 0 8.535156 3.820313 8.535156 8.535157 0 4.710937-3.820312 8.53125-8.535156 8.53125h-85.332031c-4.714844 0-8.535156-3.820313-8.535156-8.53125 0-4.714844 3.820312-8.535157 8.535156-8.535157zm0 0"/><path d="m332.800781 136.535156c23.5625 0 42.664063-19.105468 42.664063-42.667968 0-23.566407-19.101563-42.667969-42.664063-42.667969-23.566406 0-42.667969 19.101562-42.667969 42.667969.027344 23.550781 19.113282 42.636718 42.667969 42.667968zm0-68.269531c14.136719 0 25.597657 11.460937 25.597657 25.601563 0 14.136718-11.460938 25.597656-25.597657 25.597656-14.140625 0-25.601562-11.460938-25.601562-25.597656 0-14.140626 11.460937-25.601563 25.601562-25.601563zm0 0"/><path d="m435.199219 273.066406c23.566406 0 42.667969-19.101562 42.667969-42.667968 0-23.5625-19.101563-42.664063-42.667969-42.664063-23.5625 0-42.664063 19.101563-42.664063 42.664063.027344 23.554687 19.113282 42.640624 42.664063 42.667968zm0-68.265625c14.140625 0 25.601562 11.460938 25.601562 25.597657 0 14.140624-11.460937 25.601562-25.601562 25.601562-14.136719 0-25.597657-11.460938-25.597657-25.601562 0-14.136719 11.460938-25.597657 25.597657-25.597657zm0 0"/><path d="m401.066406 102.398438h25.601563v59.734374c0 4.714844 3.820312 8.535157 8.53125 8.535157 4.714843 0 8.535156-3.820313 8.535156-8.535157v-68.265624c0-4.714844-3.820313-8.535157-8.535156-8.535157h-34.132813c-4.710937 0-8.53125 3.820313-8.53125 8.535157 0 4.710937 3.820313 8.53125 8.53125 8.53125zm0 0"/></svg>