<svg height="512pt" viewBox="-94 0 512 512" width="512pt" xmlns="http://www.w3.org/2000/svg"><path d="m42.667969 0c-23.554688.0273438-42.6406252 19.113281-42.667969 42.667969v426.664062c.0273438 23.554688 19.113281 42.640625 42.667969 42.667969h238.933593c23.550782-.027344 42.636719-19.113281 42.664063-42.667969v-426.664062c-.027344-23.554688-19.113281-42.6406252-42.664063-42.667969zm238.933593 494.933594h-238.933593c-14.140625 0-25.601563-11.460938-25.601563-25.601563v-42.664062h290.132813v42.664062c0 14.140625-11.460938 25.601563-25.597657 25.601563zm25.597657-452.265625v366.933593h-290.132813v-366.933593c0-14.140625 11.460938-25.601563 25.601563-25.601563h238.933593c14.136719 0 25.597657 11.460938 25.597657 25.601563zm0 0"/><path d="m145.066406 51.199219h34.132813c4.714843 0 8.535156-3.820313 8.535156-8.53125 0-4.714844-3.820313-8.535157-8.535156-8.535157h-34.132813c-4.710937 0-8.53125 3.820313-8.53125 8.535157 0 4.710937 3.820313 8.53125 8.53125 8.53125zm0 0"/><path d="m241.40625 48.726562c.832031.75 1.785156 1.359376 2.816406 1.789063 2.066406.914063 4.421875.914063 6.488282 0 1.03125-.429687 1.984374-1.039063 2.8125-1.789063.753906-.832031 1.359374-1.785156 1.792968-2.816406.4375-1.027344.671875-2.128906.683594-3.242187 0-4.714844-3.820312-8.535157-8.535156-8.535157-4.710938 0-8.53125 3.820313-8.53125 8.535157.011718 1.113281.246094 2.214843.683594 3.242187.433593 1.03125 1.039062 1.984375 1.789062 2.816406zm0 0"/><path d="m275.542969 36.609375c-1.5625 1.632813-2.445313 3.796875-2.476563 6.058594.015625 1.113281.246094 2.214843.683594 3.242187.433594 1.03125 1.039062 1.984375 1.792969 2.816406.828125.75 1.78125 1.359376 2.8125 1.789063 2.066406.914063 4.421875.914063 6.488281 0 1.03125-.429687 1.984375-1.039063 2.816406-1.789063.75-.832031 1.355469-1.785156 1.789063-2.816406.4375-1.027344.671875-2.128906.683593-3.242187.019532-3.46875-2.058593-6.601563-5.261718-7.933594-3.199219-1.328125-6.886719-.589844-9.328125 1.875zm0 0"/><path d="m162.132812 435.199219c-14.136718 0-25.597656 11.460937-25.597656 25.601562 0 14.136719 11.460938 25.597657 25.597656 25.597657 14.140626 0 25.601563-11.460938 25.601563-25.597657 0-14.140625-11.460937-25.601562-25.601563-25.601562zm0 34.132812c-4.710937 0-8.53125-3.820312-8.53125-8.53125 0-4.714843 3.820313-8.535156 8.53125-8.535156 4.714844 0 8.535157 3.820313 8.535157 8.535156 0 4.710938-3.820313 8.53125-8.535157 8.53125zm0 0"/><path d="m204.800781 136.535156h25.597657c4.714843 0 8.535156-3.824218 8.535156-8.535156s-3.820313-8.535156-8.535156-8.535156h-17.066407v-8.53125h8.535157c4.710937 0 8.53125-3.820313 8.53125-8.535156 0-4.710938-3.820313-8.53125-8.53125-8.53125h-8.535157v-8.535157h17.066407c4.714843 0 8.535156-3.820312 8.535156-8.53125 0-4.714843-3.820313-8.535156-8.535156-8.535156h-25.597657c-4.714843 0-8.535156 3.820313-8.535156 8.535156v51.199219c0 4.710938 3.820313 8.535156 8.535156 8.535156zm0 0"/><path d="m256 328.652344v-47.050782c-.03125-41.976562-27.894531-78.84375-68.265625-90.328124v-12.074219c-.019531-7.542969-3.351563-14.695313-9.121094-19.554688-5.765625-4.863281-13.378906-6.941406-20.816406-5.6875-12.492187 2.5-21.429687 13.546875-21.261719 26.285157v11.03125c-40.328125 11.558593-68.15625 48.378906-68.269531 90.328124v47.09375c-.324219 7.695313-3.730469 14.933594-9.453125 20.085938-5.441406 5.324219-8.203125 12.808594-7.519531 20.386719 1.488281 13.441406 12.941406 23.554687 26.460937 23.367187h169.710938c14.109375-.070312 25.53125-11.492187 25.601562-25.601562.019532-6.792969-2.691406-13.308594-7.519531-18.089844-5.710937-5.214844-9.140625-12.46875-9.546875-20.191406zm-2.609375 44.375c-1.566406 1.578125-3.703125 2.457031-5.925781 2.4375h-169.710938c-4.664062.191406-8.734375-3.128906-9.488281-7.738282-.238281-2.625.757813-5.210937 2.699219-6.996093 8.902344-8.3125 14.082031-19.859375 14.367187-32.035157v-47.09375c.09375-36.46875 25.734375-67.875 61.441407-75.265624 3.972656-.8125 6.828124-4.308594 6.828124-8.363282v-17.730468c-.171874-4.410157 2.757813-8.34375 7.03125-9.449219 2.484376-.441407 5.042969.238281 6.980469 1.859375 1.9375 1.625 3.054688 4.019531 3.054688 6.546875v18.773437c-.003907 4.054688 2.851562 7.550782 6.824219 8.363282 35.746093 7.328124 61.417968 38.773437 61.441406 75.265624v47.050782c.285156 12.292968 5.539062 23.949218 14.558594 32.308594 1.621093 1.601562 2.527343 3.792968 2.507812 6.070312-.019531 2.28125-.960938 4.457031-2.609375 6.027344zm0 0"/><path d="m119.464844 332.800781h-8.53125c-4.714844 0-8.535156 3.820313-8.535156 8.53125 0 4.714844 3.820312 8.535157 8.535156 8.535157h8.53125c4.714844 0 8.535156-3.820313 8.535156-8.535157 0-4.710937-3.820312-8.53125-8.535156-8.53125zm0 0"/><path d="m213.332031 332.800781h-59.730469c-4.714843 0-8.535156 3.820313-8.535156 8.53125 0 4.714844 3.820313 8.535157 8.535156 8.535157h59.730469c4.714844 0 8.535157-3.820313 8.535157-8.535157 0-4.710937-3.820313-8.53125-8.535157-8.53125zm0 0"/><path d="m162.132812 136.535156c14.140626 0 25.601563-11.464844 25.601563-25.601562v-34.132813c0-4.714843-3.820313-8.535156-8.535156-8.535156-4.710938 0-8.53125 3.820313-8.53125 8.535156v34.132813c0 4.710937-3.820313 8.53125-8.535157 8.53125-4.710937 0-8.53125-3.820313-8.53125-8.53125v-34.132813c0-4.714843-3.820312-8.535156-8.535156-8.535156-4.710937 0-8.53125 3.820313-8.53125 8.535156v34.132813c0 14.136718 11.460938 25.601562 25.597656 25.601562zm0 0"/><path d="m85.332031 136.535156h17.066407c14.140624 0 25.601562-11.464844 25.601562-25.601562v-17.066406c0-14.140626-11.460938-25.601563-25.601562-25.601563h-17.066407c-4.710937 0-8.53125 3.820313-8.53125 8.535156v51.199219c0 4.710938 3.820313 8.535156 8.53125 8.535156zm8.535157-51.203125h8.53125c4.714843 0 8.535156 3.820313 8.535156 8.535157v17.066406c0 4.710937-3.820313 8.53125-8.535156 8.53125h-8.53125zm0 0"/></svg>