<svg height="512pt" viewBox="0 0 512 512" width="512pt" xmlns="http://www.w3.org/2000/svg"><path d="m511.386719 466.277344c-.265625-.578125-.59375-1.128906-.984375-1.636719-.179688-.363281-.390625-.714844-.621094-1.050781l-85.332031-93.867188c-1.617188-1.777344-3.910157-2.789062-6.316407-2.789062h-126.414062l7.460938-19.167969c63.238281-6.183594 118.953124-25.949219 118.953124-57.632813v-42.667968c0-22.296875-28.226562-40.890625-77.601562-51.410156l-18.773438-84.328126c26.402344-7.015624 45.175782-18.714843 45.175782-34.925781v-34.132812c0-28.007813-55.808594-42.667969-110.933594-42.667969s-110.933594 14.660156-110.933594 42.667969v34.132812c0 16.210938 18.773438 27.910157 45.167969 34.925781l-18.773437 84.328126c-49.367188 10.519531-77.59375 29.113281-77.59375 51.410156v42.667968c0 31.683594 55.714843 51.449219 118.953124 57.632813l7.460938 19.167969h-126.414062c-2.40625 0-4.699219 1.011718-6.316407 2.789062l-85.332031 93.867188c-.230469.335937-.441406.6875-.621094 1.050781-.390625.507813-.71875 1.058594-.984375 1.636719-.191406.59375-.3125 1.207031-.367187 1.828125-.113282.402343-.1953128.8125-.246094 1.226562v17.066407c0 14.140624 11.460938 25.601562 25.601562 25.601562h460.796876c14.140624 0 25.601562-11.460938 25.601562-25.601562v-17.066407c-.050781-.414062-.132812-.824219-.246094-1.226562-.054687-.621094-.175781-1.234375-.367187-1.828125zm-255.386719-449.210938c60.730469 0 93.867188 16.90625 93.867188 25.601563 0 8.695312-33.136719 25.597656-93.867188 25.597656s-93.867188-16.902344-93.867188-25.597656c0-8.695313 33.136719-25.601563 93.867188-25.601563zm-93.867188 59.734375v-10.386719c20.703126 12.460938 57.386719 18.917969 93.867188 18.917969s73.164062-6.457031 93.867188-18.917969v10.386719c0 8.695313-33.136719 25.597657-93.867188 25.597657s-93.867188-16.902344-93.867188-25.597657zm5.230469 137.683594-5.023437 22.597656c-.496094 2.210938-.089844 4.523438 1.125 6.4375 1.214844 1.910157 3.140625 3.257813 5.351562 3.75.609375.128907 1.226563.195313 1.851563.195313 3.996093-.003906 7.453125-2.78125 8.320312-6.679688l7.953125-35.746094 19.941406-89.601562c16.226563 2.746094 32.660157 4.09375 49.117188 4.027344 16.453125.046875 32.882812-1.320313 49.101562-4.085938l19.941407 89.601563 7.953125 35.746093c.84375 3.929688 4.316406 6.738282 8.335937 6.738282.625 0 1.25-.066406 1.863281-.195313 2.207032-.492187 4.132813-1.839843 5.347657-3.75 1.214843-1.914062 1.621093-4.226562 1.128906-6.4375l-5.027344-22.597656c38.605469 9.421875 56.421875 23.261719 56.421875 32.980469 0 17.820312-55.183594 42.667968-145.066406 42.667968s-145.066406-24.847656-145.066406-42.667968c0-9.71875 17.816406-23.558594 56.429687-32.980469zm-56.429687 75.648437v-14.839843c28.425781 20.875 88.03125 31.90625 145.066406 31.90625s116.640625-11.03125 145.066406-31.90625v14.839843c0 15.222657-40.386718 35.535157-108.175781 41.132813h-.050781c-11.539063.953125-23.773438 1.535156-36.839844 1.535156s-25.292969-.582031-36.820312-1.527343h-.085938c-67.78125-5.617188-108.160156-25.917969-108.160156-41.140626zm145.066406 59.734376c8.082031 0 16.214844-.230469 24.3125-.675782l-8.894531 22.863282-.101563.253906-15.316406 39.355468-15.359375-39.363281-.101563-.257812-8.894531-22.851563c8.140625.445313 16.273438.675782 24.355469.675782zm-158.363281 34.132812h129.28125l21.128906 54.289062c1.277344 3.28125 4.433594 5.441407 7.953125 5.441407s6.675781-2.160157 7.953125-5.441407l21.128906-54.289062h129.28125l69.816407 76.800781h-456.359376zm397.296875 102.398438c0 4.714843-3.820313 8.535156-8.535156 8.535156h-460.796876c-4.714843 0-8.535156-3.820313-8.535156-8.535156v-8.53125h477.867188zm0 0"/></svg>