<svg height="512pt" viewBox="-60 0 512 512.04277" width="512pt" xmlns="http://www.w3.org/2000/svg"><path d="m273.089844 34.175781h-34.988282c-4.039062-19.886719-21.523437-34.175781-41.8125-34.175781-20.292968 0-37.777343 14.289062-41.8125 34.175781h-128.855468c-14.136719 0-25.6015628 11.460938-25.6015628 25.601563v426.664062c0 14.140625 11.4648438 25.601563 25.6015628 25.601563h341.332031c14.140625 0 25.601563-11.460938 25.601563-25.601563v-426.664062c0-14.140625-11.460938-25.601563-25.601563-25.601563zm-160.566406 51.199219c3.605468 10.191406 13.222656 17.023438 24.03125 17.066406h119.464843c10.8125-.042968 20.429688-6.875 24.03125-17.066406h61.304688v375.46875h-290.132813v-375.46875zm83.765624-68.265625c10.808594.042969 20.425782 6.875 24.027344 17.066406h-48.058594c3.605469-10.191406 13.21875-17.023437 24.03125-17.066406zm68.265626 34.132813v25.601562c0 4.710938-3.820313 8.53125-8.535157 8.53125h-119.464843c-4.710938 0-8.535157-3.820312-8.535157-8.53125v-25.601562zm110.933593 8.535156v426.664062c0 4.714844-3.820312 8.535156-8.535156 8.535156h-341.332031c-4.710938 0-8.53125-3.820312-8.53125-8.535156v-426.664062c0-4.714844 3.820312-8.535156 8.53125-8.535156h85.332031v17.066406h-59.730469c-9.425781 0-17.066406 7.640625-17.066406 17.066406v375.46875c0 9.425781 7.640625 17.066406 17.066406 17.066406h290.132813c9.425781 0 17.066406-7.640625 17.066406-17.066406v-375.46875c0-9.425781-7.640625-17.066406-17.066406-17.066406h-59.734375v-17.066406h85.332031c4.714844 0 8.535156 3.820312 8.535156 8.535156zm0 0"/><path d="m102.421875 213.375h68.265625c4.714844 0 8.535156-3.820312 8.535156-8.53125v-8.535156c.027344-12.253906-5.265625-23.917969-14.507812-31.964844 9.738281-14.214844 7.355468-33.457031-5.554688-44.867188-12.910156-11.410156-32.300781-11.410156-45.210937 0-12.910157 11.410157-15.292969 30.652344-5.554688 44.867188-9.242187 8.046875-14.535156 19.710938-14.507812 31.964844v8.535156c0 2.261719.898437 4.433594 2.5 6.03125 1.601562 1.601562 3.773437 2.5 6.035156 2.5zm8.53125-17.066406c-.015625-8.207032 3.945313-15.914063 10.632813-20.675782 9.398437 4.8125 20.539062 4.8125 29.9375 0 6.6875 4.761719 10.648437 12.46875 10.632812 20.675782zm25.601563-68.265625c9.425781 0 17.066406 7.640625 17.066406 17.066406s-7.640625 17.066406-17.066406 17.066406c-9.425782 0-17.066407-7.640625-17.066407-17.066406s7.640625-17.066406 17.066407-17.066406zm0 0"/><path d="m230.421875 204.84375h51.199219c9.425781 0 17.066406-7.640625 17.066406-17.066406v-8.535156c0-4.710938-3.820312-8.53125-8.53125-8.53125-4.714844 0-8.535156 3.820312-8.535156 8.53125v8.535156h-51.199219v-51.203125h8.53125c4.714844 0 8.535156-3.820313 8.535156-8.53125 0-4.714844-3.820312-8.535157-8.535156-8.535157h-8.53125c-9.425781 0-17.066406 7.644532-17.066406 17.066407v51.203125c0 9.425781 7.640625 17.066406 17.066406 17.066406zm0 0"/><path d="m241.453125 156.144531c-3.328125 3.332031-3.328125 8.730469 0 12.066407l8.535156 8.53125c1.601563 1.601562 3.769531 2.5 6.03125 2.5h.609375c2.46875-.179688 4.738282-1.425782 6.21875-3.414063l25.601563-34.132813c2.828125-3.769531 2.0625-9.117187-1.707031-11.945312-3.769532-2.828125-9.121094-2.0625-11.949219 1.707031l-19.691407 26.265625-1.582031-1.578125c-3.332031-3.332031-8.730469-3.332031-12.066406 0zm0 0"/><path d="m102.421875 332.84375h68.265625c4.714844 0 8.535156-3.820312 8.535156-8.535156v-8.53125c.027344-12.257813-5.265625-23.917969-14.507812-31.96875 9.738281-14.210938 7.355468-33.453125-5.554688-44.863282-12.910156-11.410156-32.300781-11.410156-45.210937 0-12.910157 11.410157-15.292969 30.652344-5.554688 44.863282-9.242187 8.050781-14.535156 19.710937-14.507812 31.96875v8.53125c0 4.714844 3.820312 8.535156 8.535156 8.535156zm8.53125-17.066406c-.015625-8.210938 3.945313-15.917969 10.632813-20.675782 9.398437 4.8125 20.539062 4.8125 29.9375 0 6.6875 4.757813 10.648437 12.464844 10.632812 20.675782zm25.601563-68.269532c9.425781 0 17.066406 7.644532 17.066406 17.066407 0 9.425781-7.640625 17.070312-17.066406 17.070312-9.425782 0-17.066407-7.644531-17.066407-17.070312 0-9.421875 7.640625-17.066407 17.066407-17.066407zm0 0"/><path d="m230.421875 324.308594h51.199219c9.425781 0 17.066406-7.640625 17.066406-17.066406v-8.53125c0-4.714844-3.820312-8.535157-8.53125-8.535157-4.714844 0-8.535156 3.820313-8.535156 8.535157v8.53125h-51.199219v-51.199219h8.53125c4.714844 0 8.535156-3.820313 8.535156-8.535157 0-4.710937-3.820312-8.53125-8.535156-8.53125h-8.53125c-9.425781 0-17.066406 7.640626-17.066406 17.066407v51.199219c0 9.425781 7.640625 17.066406 17.066406 17.066406zm0 0"/><path d="m274.792969 250.921875-19.691407 26.265625-1.582031-1.578125c-3.347656-3.234375-8.667969-3.1875-11.960937.105469-3.292969 3.289062-3.335938 8.613281-.105469 11.960937l8.535156 8.535157c1.601563 1.597656 3.769531 2.496093 6.03125 2.5h.609375c2.46875-.183594 4.738282-1.429688 6.21875-3.414063l25.601563-34.132813c2.828125-3.773437 2.0625-9.121093-1.707031-11.949218-3.769532-2.828125-9.121094-2.0625-11.949219 1.707031zm0 0"/><path d="m102.421875 452.308594h68.265625c4.714844 0 8.535156-3.820313 8.535156-8.53125v-8.535156c.027344-12.253907-5.265625-23.917969-14.507812-31.964844 9.738281-14.214844 7.355468-33.457032-5.554688-44.867188s-32.300781-11.410156-45.210937 0c-12.910157 11.410156-15.292969 30.652344-5.554688 44.867188-9.242187 8.046875-14.535156 19.710937-14.507812 31.964844v8.535156c0 4.710937 3.820312 8.53125 8.535156 8.53125zm8.53125-17.066406c-.015625-8.207032 3.945313-15.914063 10.632813-20.675782 9.398437 4.8125 20.539062 4.8125 29.9375 0 6.6875 4.761719 10.648437 12.46875 10.632812 20.675782zm25.601563-68.265626c9.425781 0 17.066406 7.640626 17.066406 17.066407s-7.640625 17.066406-17.066406 17.066406c-9.425782 0-17.066407-7.640625-17.066407-17.066406s7.640625-17.066407 17.066407-17.066407zm0 0"/><path d="m230.421875 443.777344h51.199219c9.425781 0 17.066406-7.640625 17.066406-17.066406v-8.535157c0-4.710937-3.820312-8.53125-8.53125-8.53125-4.714844 0-8.535156 3.820313-8.535156 8.53125v8.535157h-51.199219v-51.203126h8.53125c4.714844 0 8.535156-3.820312 8.535156-8.53125 0-4.714843-3.820312-8.535156-8.535156-8.535156h-8.53125c-9.425781 0-17.066406 7.640625-17.066406 17.066406v51.203126c0 9.425781 7.640625 17.066406 17.066406 17.066406zm0 0"/><path d="m274.792969 370.390625-19.691407 26.265625-1.582031-1.578125c-3.347656-3.234375-8.667969-3.1875-11.960937.101563-3.292969 3.292968-3.335938 8.613281-.105469 11.960937l8.535156 8.535156c1.601563 1.601563 3.769531 2.5 6.03125 2.5h.609375c2.46875-.179687 4.738282-1.425781 6.21875-3.414062l25.601563-34.132813c2.828125-3.769531 2.0625-9.117187-1.707031-11.945312-3.769532-2.828125-9.121094-2.0625-11.949219 1.707031zm0 0"/></svg>