<svg height="512pt" viewBox="0 0 512 512" width="512pt" xmlns="http://www.w3.org/2000/svg"><path d="m85.332031 34.132812h-8.53125c-4.714843 0-8.535156 3.820313-8.535156 8.535157 0 4.710937 3.820313 8.53125 8.535156 8.53125h8.53125c4.714844 0 8.535157-3.820313 8.535157-8.53125 0-4.714844-3.820313-8.535157-8.535157-8.535157zm0 0"/><path d="m256 42.667969c0-4.714844-3.820312-8.535157-8.535156-8.535157h-128c-4.710938 0-8.53125 3.820313-8.53125 8.535157 0 4.710937 3.820312 8.53125 8.53125 8.53125h128c4.714844 0 8.535156-3.820313 8.535156-8.53125zm0 0"/><path d="m358.398438 460.800781h-8.53125c-4.714844 0-8.535157 3.820313-8.535157 8.53125 0 4.714844 3.820313 8.535157 8.535157 8.535157h8.53125c4.714843 0 8.535156-3.820313 8.535156-8.535157 0-4.710937-3.820313-8.53125-8.535156-8.53125zm0 0"/><path d="m315.734375 460.800781h-128c-4.714844 0-8.535156 3.820313-8.535156 8.53125 0 4.714844 3.820312 8.535157 8.535156 8.535157h128c4.710937 0 8.53125-3.820313 8.53125-8.535157 0-4.710937-3.820313-8.53125-8.53125-8.53125zm0 0"/><path d="m494.933594 59.734375h-93.867188v-25.601563c0-18.851562-15.28125-34.132812-34.132812-34.132812h-298.667969c-18.851563 0-34.132813 15.28125-34.132813 34.132812v34.132813h-8.53125c-14.140624 0-25.601562 11.460937-25.601562 25.601563 0 14.136718 11.460938 25.597656 25.601562 25.597656h8.53125v110.933594h-8.53125c-14.140624 0-25.601562 11.464843-25.601562 25.601562s11.460938 25.601562 25.601562 25.601562h8.53125v110.933594h-8.53125c-14.140624 0-25.601562 11.460938-25.601562 25.597656 0 14.140626 11.460938 25.601563 25.601562 25.601563h8.53125v34.132813c0 18.851562 15.28125 34.132812 34.132813 34.132812h298.667969c18.851562 0 34.132812-15.28125 34.132812-34.132812v-213.332032h93.867188c9.425781 0 17.066406-7.644531 17.066406-17.070312v-17.066406c0-9.425782-7.640625-17.066407-17.066406-17.066407h-93.867188v-25.597656h93.867188c9.425781 0 17.066406-7.640625 17.066406-17.066406v-17.066407c0-9.425781-7.640625-17.066406-17.066406-17.066406h-93.867188v-25.601562h93.867188c9.425781 0 17.066406-7.640625 17.066406-17.066406v-17.066407c0-9.425781-7.640625-17.066406-17.066406-17.066406zm-477.867188 34.132813c0-4.714844 3.820313-8.535157 8.535156-8.535157h76.796876c4.714843 0 8.535156 3.820313 8.535156 8.535157 0 4.710937-3.820313 8.53125-8.535156 8.53125h-76.796876c-4.714843 0-8.535156-3.820313-8.535156-8.53125zm0 162.132812c0-4.710938 3.820313-8.535156 8.535156-8.535156h76.796876c4.714843 0 8.535156 3.824218 8.535156 8.535156s-3.820313 8.535156-8.535156 8.535156h-76.796876c-4.714843 0-8.535156-3.824218-8.535156-8.535156zm0 162.132812c0-4.710937 3.820313-8.53125 8.535156-8.53125h76.796876c4.714843 0 8.535156 3.820313 8.535156 8.53125 0 4.714844-3.820313 8.535157-8.535156 8.535157h-76.796876c-4.714843 0-8.535156-3.820313-8.535156-8.535157zm366.933594 59.734376c0 9.425781-7.640625 17.066406-17.066406 17.066406h-298.667969c-9.425781 0-17.066406-7.640625-17.066406-17.066406v-34.132813h51.199219c14.140624 0 25.601562-11.460937 25.601562-25.601563 0-14.136718-11.460938-25.597656-25.601562-25.597656h-51.199219v-110.933594h51.199219c14.140624 0 25.601562-11.464843 25.601562-25.601562s-11.460938-25.601562-25.601562-25.601562h-51.199219v-110.933594h51.199219c14.140624 0 25.601562-11.460938 25.601562-25.597656 0-14.140626-11.460938-25.601563-25.601562-25.601563h-51.199219v-34.132813c0-9.425781 7.640625-17.066406 17.066406-17.066406h298.667969c9.425781 0 17.066406 7.640625 17.066406 17.066406zm110.933594-247.46875v17.066406h-93.867188v-17.066406zm0-76.796876v17.066407h-93.867188v-17.066407zm-93.867188-59.734374v-17.066407h93.867188v17.066407zm0 0"/><path d="m341.332031 127.511719c0-18.847657-15.28125-34.132813-34.132812-34.132813-18.851563 0-34.132813 15.285156-34.132813 34.132813v188.410156c0 1.347656.316406 2.679687.929688 3.882813l15.285156 30.0625h-84.480469c-4.714843 0-8.535156 3.820312-8.535156 8.53125 0 4.714843 3.820313 8.535156 8.535156 8.535156h102.398438c5.625.027344 10.78125-3.117188 13.328125-8.132813l19.875-38.996093c.613281-1.203126.933594-2.535157.929687-3.882813zm-51.199219 34.621093h34.132813v17.066407h-34.132813zm17.066407-51.199218c9.289062-.125 16.921875 7.292968 17.066406 16.578125v17.554687h-34.132813v-17.554687c.144532-9.285157 7.78125-16.703125 17.066407-16.578125zm0 236.433594-17.066407-33.492188v-117.609375h34.132813v117.609375zm0 0"/><path d="m170.667969 349.867188h-17.066407c-4.714843 0-8.535156 3.820312-8.535156 8.53125 0 4.714843 3.820313 8.535156 8.535156 8.535156h17.066407c4.710937 0 8.53125-3.820313 8.53125-8.535156 0-4.710938-3.820313-8.53125-8.53125-8.53125zm0 0"/></svg>