<svg height="503pt" viewBox="0 0 503.98366 503" width="503pt" xmlns="http://www.w3.org/2000/svg"><path d="m386.097656 478.960938v-136.140626l105.210938-105.214843c10.828125-10.554688 15.140625-26.117188 11.289062-40.738281-3.847656-14.621094-15.269531-26.039063-29.890625-29.894532-14.621093-3.851562-30.183593.457032-40.738281 11.285156l-23.726562 23.71875-22.144532 22.140626v-164.828126c0-13.90625-11.273437-25.179687-25.179687-25.179687h-126.742188c-3.96875-19.5625-21.167969-33.617187-41.125-33.617187-19.960937 0-37.15625 14.054687-41.128906 33.617187h-126.742187c-13.90625 0-25.179688 11.273437-25.179688 25.179687v419.671876c0 13.90625 11.273438 25.179687 25.179688 25.179687h335.738281c13.90625 0 25.179687-11.273437 25.179687-25.179687zm-275.4375-394.492188c3.542969 10.023438 13.003906 16.742188 23.636719 16.785156h117.507813c10.632812-.042968 20.089843-6.761718 23.632812-16.785156h60.300781v190.011719l-81.828125 81.828125c-.855468.871094-1.503906 1.925781-1.90625 3.078125 0 .074219-.089844.125-.117187.195312l-18.464844 55.292969c-.53125 1.726562-.785156 3.527344-.753906 5.332031h-39.617188c-4.636719 0-8.394531 3.757813-8.394531 8.390625 0 4.636719 3.757812 8.394532 8.394531 8.394532h56.320313.140625c1.757812-.007813 3.507812-.292969 5.179687-.839844l55.296875-18.464844c.066407 0 .117188-.09375.191407-.117188 1.15625-.402343 2.207031-1.050781 3.082031-1.90625l22.476562-22.484374v60.601562h-285.378906v-369.3125zm181.128906 321.585938-42.410156 14.152343 14.175782-42.429687zm15.535157-8.199219-11.875-11.871094 71.226562-71.214844c3.28125-3.28125 3.28125-8.597656 0-11.878906s-8.597656-3.28125-11.875 0l-71.21875 71.226563-11.878906-11.875 118.71875-118.703126 11.867187 11.871094-23.746093 23.734375c-2.179688 2.109375-3.054688 5.230469-2.289063 8.164063.769532 2.933594 3.0625 5.226562 5.996094 5.996094 2.933594.765624 6.054688-.109376 8.164062-2.289063l23.734376-23.738281 11.878906 11.867187zm106.832031-178.050781 35.613281 35.605468-11.867187 11.867188-35.613282-35.605469zm29.679688-29.679688c9.964843-9.507812 25.640624-9.507812 35.605468 0 4.722656 4.722656 7.378906 11.128906 7.378906 17.808594 0 6.675781-2.65625 13.082031-7.378906 17.804687l-17.800781 17.800781-35.613281-35.613281zm-74.523438-130.835938v181.617188l-16.789062 16.785156v-173.222656c0-9.273438-7.515626-16.789062-16.785157-16.789062h-58.753906v-16.785157h83.933594c4.636719 0 8.394531 3.757813 8.394531 8.394531zm-176.261719-41.96875c10.632813.042969 20.089844 6.761719 23.632813 16.789063h-47.269532c3.542969-10.027344 13.003907-16.746094 23.636719-16.789063zm67.144531 33.574219v25.179688c0 4.636719-3.757812 8.394531-8.390624 8.394531h-117.507813c-4.636719 0-8.394531-3.757812-8.394531-8.394531v-25.179688zm-243.410156 428.066407v-419.671876c0-4.636718 3.757813-8.394531 8.394532-8.394531h83.933593v16.785157h-58.753906c-9.269531 0-16.785156 7.515624-16.785156 16.789062v369.3125c0 9.269531 7.515625 16.785156 16.785156 16.785156h285.378906c9.269531 0 16.785157-7.515625 16.785157-16.785156v-77.390625l16.789062-16.785156v119.355469c0 4.632812-3.757812 8.394531-8.394531 8.394531h-335.738281c-4.636719 0-8.394532-3.761719-8.394532-8.394531zm0 0"/><path d="m78 165.945312c1.574219 1.574219 3.707031 2.457032 5.933594 2.457032h.597656c2.429688-.175782 4.664062-1.402344 6.117188-3.355469l25.179687-33.574219c2.78125-3.710937 2.03125-8.96875-1.675781-11.75-3.710938-2.785156-8.972656-2.03125-11.753906 1.675782l-19.371094 25.835937-1.550782-1.550781c-3.292968-3.183594-8.53125-3.136719-11.765624.101562-3.238282 3.238282-3.285157 8.472656-.105469 11.765625zm0 0"/><path d="m78 233.089844c1.574219 1.574218 3.707031 2.460937 5.933594 2.460937h.597656c2.429688-.179687 4.664062-1.402343 6.117188-3.359375l25.179687-33.570312c2.78125-3.710938 2.03125-8.972656-1.675781-11.753906-3.710938-2.78125-8.972656-2.027344-11.753906 1.679687l-19.371094 25.835937-1.550782-1.554687c-3.292968-3.179687-8.53125-3.132813-11.765624.101563-3.238282 3.238281-3.285157 8.472656-.105469 11.769531zm0 0"/><path d="m78 300.238281c1.574219 1.574219 3.707031 2.460938 5.933594 2.460938h.597656c2.429688-.179688 4.664062-1.40625 6.117188-3.359375l25.179687-33.574219c1.800781-2.398437 2.183594-5.574219 1.003906-8.332031-1.175781-2.757813-3.734375-4.675782-6.714843-5.035156-2.976563-.359376-5.917969.898437-7.71875 3.296874l-19.371094 25.835938-1.550782-1.554688c-3.292968-3.179687-8.53125-3.136718-11.765624.101563-3.238282 3.238281-3.285157 8.472656-.105469 11.765625zm0 0"/><path d="m78 367.386719c1.574219 1.574219 3.707031 2.457031 5.933594 2.457031h.597656c2.429688-.175781 4.664062-1.402344 6.117188-3.355469l25.179687-33.574219c1.800781-2.398437 2.183594-5.574218 1.003906-8.332031-1.175781-2.757812-3.734375-4.679687-6.714843-5.035156-2.976563-.359375-5.917969.894531-7.71875 3.296875l-19.371094 25.832031-1.550782-1.550781c-3.292968-3.179688-8.53125-3.136719-11.765624.101562-3.238282 3.238282-3.285157 8.472657-.105469 11.765626zm0 0"/><path d="m78 434.535156c1.574219 1.574219 3.707031 2.457032 5.933594 2.457032h.597656c2.429688-.175782 4.664062-1.402344 6.117188-3.355469l25.179687-33.574219c1.800781-2.398438 2.183594-5.578125 1.003906-8.332031-1.175781-2.757813-3.734375-4.679688-6.714843-5.039063-2.976563-.359375-5.917969.898438-7.71875 3.296875l-19.371094 25.835938-1.550782-1.550781c-3.292968-3.183594-8.53125-3.136719-11.765624.101562-3.238282 3.238281-3.285157 8.472656-.105469 11.765625zm0 0"/><path d="m142.6875 436.992188h16.789062c4.632813 0 8.390626-3.757813 8.390626-8.394532 0-4.632812-3.757813-8.390625-8.390626-8.390625h-16.789062c-4.632812 0-8.390625 3.757813-8.390625 8.390625 0 4.636719 3.757813 8.394532 8.390625 8.394532zm0 0"/><path d="m142.6875 361.453125h92.328125c4.636719 0 8.394531-3.757813 8.394531-8.394531 0-4.636719-3.757812-8.394532-8.394531-8.394532h-92.328125c-4.632812 0-8.390625 3.757813-8.390625 8.394532 0 4.636718 3.757813 8.394531 8.390625 8.394531zm0 0"/><path d="m142.6875 294.304688h142.691406c4.632813 0 8.390625-3.757813 8.390625-8.394532 0-4.636718-3.757812-8.394531-8.390625-8.394531h-142.691406c-4.632812 0-8.390625 3.757813-8.390625 8.394531 0 4.636719 3.757813 8.394532 8.390625 8.394532zm0 0"/><path d="m142.6875 227.15625h167.871094c4.632812 0 8.390625-3.757812 8.390625-8.394531 0-4.632813-3.757813-8.390625-8.390625-8.390625h-167.871094c-4.632812 0-8.390625 3.757812-8.390625 8.390625 0 4.636719 3.757813 8.394531 8.390625 8.394531zm0 0"/><path d="m142.6875 160.007812h167.871094c4.632812 0 8.390625-3.757812 8.390625-8.390624 0-4.636719-3.757813-8.394532-8.390625-8.394532h-167.871094c-4.632812 0-8.390625 3.757813-8.390625 8.394532 0 4.632812 3.757813 8.390624 8.390625 8.390624zm0 0"/></svg>