<svg height="512pt" viewBox="0 0 512 512.25572" width="512pt" xmlns="http://www.w3.org/2000/svg"><path d="m102.929688 362.257812 33.730468-19.492187 110.933594 63.378906v38.929688c-16.640625 4.296875-27.492188 20.296875-25.328125 37.347656 2.167969 17.054687 16.671875 29.832031 33.863281 29.832031 17.1875 0 31.695313-12.777344 33.859375-29.832031 2.167969-17.050781-8.683593-33.050781-25.328125-37.347656v-38.929688l110.933594-63.378906 33.757812 19.492187c-2.878906 10.238282-.800781 21.238282 5.617188 29.71875 6.417969 8.484376 16.4375 13.472657 27.074219 13.484376 13.285156.046874 25.390625-7.625 31.027343-19.65625 5.632813-12.03125 3.777344-26.238282-4.761718-36.414063-8.539063-10.179687-22.210938-14.476563-35.039063-11.019531-5.863281 1.597656-11.1875 4.746094-15.410156 9.113281l-33.730469-19.488281v-143.734375l33.730469-19.441407c4.222656 4.371094 9.546875 7.519532 15.410156 9.113282 18.210938 4.878906 36.925781-5.921875 41.804688-24.128906 4.882812-18.210938-5.917969-36.925782-24.125-41.808594-18.207031-4.882813-36.925781 5.917968-41.808594 24.125-1.558594 5.882812-1.492187 12.074218.1875 17.921875l-33.734375 19.445312-110.933594-63.375v-38.929687c16.644532-4.296875 27.496094-20.300782 25.328125-37.351563-2.164062-17.050781-16.671875-29.832031-33.859375-29.832031-17.191406 0-31.695312 12.78125-33.863281 29.832031-2.164063 17.050781 8.6875 33.054688 25.328125 37.351563v38.929687l-110.933594 63.375-33.757812-19.488281c4.277344-14.957031-2.207032-30.90625-15.707032-38.632812-13.378906-7.726563-30.28125-5.507813-41.210937 5.417968-10.925781 10.921875-13.152344 27.824219-5.425781 41.207032 7.726562 13.378906 23.476562 19.902343 38.398437 15.898437 5.871094-1.578125 11.203125-4.710937 15.4375-9.070313l33.734375 19.441407v143.734375l-33.734375 19.480468c-12.019531-12.289062-31.316406-13.699218-44.996093-3.289062-13.679688 10.414062-17.460938 29.390625-8.8125 44.25 6.902343 11.957031 20.328124 18.578125 34.015624 16.777344 13.6875-1.804688 24.941407-11.675782 28.515626-25.011719 1.558593-5.890625 1.496093-12.089844-.1875-17.945313zm153.199218-241.375 102.269532 58.445313-26.613282 15.207031-71.519531-39.730468c-2.574219-1.429688-5.703125-1.429688-8.277344 0l-71.515625 39.730468-26.617187-15.207031zm-68.269531 97.527344 59.734375 34.132813v82.945312l-59.734375-33.195312zm68.269531 19.363282-58.335937-33.339844 58.335937-32.410156 58.332032 32.425781zm8.53125 14.769531 59.734375-34.132813v83.890625l-59.734375 33.1875zm-119.464844-58.511719 25.597657 14.625v98.671875c.003906 3.097656 1.683593 5.953125 4.394531 7.457031l72.40625 40.226563v31.480469l-102.398438-58.511719zm128 283.964844c0 9.425781-7.640624 17.066406-17.066406 17.066406-9.425781 0-17.066406-7.640625-17.066406-17.066406 0-9.425782 7.640625-17.066406 17.066406-17.066406 9.425782 0 17.066406 7.640624 17.066406 17.066406zm-8.535156-91.503906v-31.480469l72.40625-40.226563c2.710938-1.503906 4.394532-4.359375 4.394532-7.457031v-98.671875l25.601562-14.625v133.972656zm173.023438-31.652344c1.457031-.386719 2.960937-.582032 4.472656-.578125 6.089844.007812 11.714844 3.265625 14.757812 8.542969 3.042969 5.28125 3.039063 11.78125-.003906 17.054687-4.816406 7.933594-15.089844 10.566406-23.125 5.925781-8.039062-4.640625-10.890625-14.855468-6.425781-22.992187 2.238281-3.921875 5.957031-6.785157 10.324219-7.953125zm-4.113282-228.691406c2.589844-1.507813 5.535157-2.296876 8.53125-2.289063 8.566407 0 15.804688 6.347656 16.921876 14.839844 1.121093 8.492187-4.230469 16.496093-12.5 18.714843-8.273438 2.214844-16.910157-2.042968-20.1875-9.953124-3.277344-7.914063-.183594-17.03125 7.234374-21.3125zm-194.507812-91.886719c0-9.425781 7.640625-17.066407 17.066406-17.066407 9.425782 0 17.066406 7.640626 17.066406 17.066407s-7.640624 17.066406-17.066406 17.066406c-9.425781 0-17.066406-7.640625-17.066406-17.066406zm-164.488281 123.152343c-7.867188 2.109376-16.125-1.628906-19.726563-8.929687-3.605468-7.304687-1.546875-16.132813 4.910156-21.089844 6.457032-4.960937 15.519532-4.664062 21.644532.703125 6.121094 5.367188 7.601562 14.3125 3.53125 21.363282-2.253906 3.929687-5.984375 6.792968-10.359375 7.953124zm4.113281 228.695313c-5.292969 3.269531-11.941406 3.40625-17.359375.351563-5.421875-3.054688-8.75-8.8125-8.6875-15.035157.0625-6.21875 3.5-11.914062 8.976563-14.859375 2.589843-1.511718 5.535156-2.308594 8.535156-2.304687 1.5.003906 2.996094.199219 4.445312.589843 6.664063 1.789063 11.59375 7.414063 12.492188 14.253907.902344 6.839843-2.40625 13.550781-8.378906 17.003906zm0 0"/><path d="m315.859375 17.195312h17.070313c4.710937 0 8.53125-3.820312 8.53125-8.535156 0-4.710937-3.820313-8.53125-8.53125-8.53125h-17.070313c-4.710937 0-8.53125 3.820313-8.53125 8.53125 0 4.714844 3.820313 8.535156 8.53125 8.535156zm0 0"/><path d="m392.660156.128906h-25.597656c-4.714844 0-8.535156 3.820313-8.535156 8.53125 0 4.714844 3.820312 8.535156 8.535156 8.535156h25.597656c4.714844 0 8.535156-3.820312 8.535156-8.535156 0-4.710937-3.820312-8.53125-8.535156-8.53125zm0 0"/><path d="m401.195312 42.792969c0-4.710938-3.820312-8.53125-8.535156-8.53125h-76.800781c-4.710937 0-8.53125 3.820312-8.53125 8.53125 0 4.714843 3.820313 8.535156 8.53125 8.535156h76.800781c4.714844 0 8.535156-3.820313 8.535156-8.535156zm0 0"/><path d="m315.859375 68.394531c-4.710937 0-8.53125 3.820313-8.53125 8.535157 0 4.710937 3.820313 8.53125 8.53125 8.53125h25.601563c4.714843 0 8.535156-3.820313 8.535156-8.53125 0-4.714844-3.820313-8.535157-8.535156-8.535157zm0 0"/><path d="m426.792969 187.859375c-4.710938 0-8.53125 3.824219-8.53125 8.535156 0 4.710938 3.820312 8.535157 8.53125 8.535157h17.066406c4.714844 0 8.535156-3.824219 8.535156-8.535157 0-4.710937-3.820312-8.535156-8.535156-8.535156zm0 0"/><path d="m503.59375 187.859375h-25.597656c-4.714844 0-8.535156 3.824219-8.535156 8.535156 0 4.710938 3.820312 8.535157 8.535156 8.535157h25.597656c4.714844 0 8.535156-3.824219 8.535156-8.535157 0-4.710937-3.820312-8.535156-8.535156-8.535156zm0 0"/><path d="m503.59375 221.996094h-76.800781c-4.710938 0-8.53125 3.820312-8.53125 8.53125 0 4.714844 3.820312 8.535156 8.53125 8.535156h76.800781c4.714844 0 8.535156-3.820312 8.535156-8.535156 0-4.710938-3.820312-8.53125-8.535156-8.53125zm0 0"/><path d="m452.394531 273.195312c4.710938 0 8.535157-3.820312 8.535157-8.535156 0-4.710937-3.824219-8.53125-8.535157-8.53125h-25.601562c-4.710938 0-8.53125 3.820313-8.53125 8.53125 0 4.714844 3.820312 8.535156 8.53125 8.535156zm0 0"/><path d="m85.460938 204.929688c4.714843 0 8.535156-3.824219 8.535156-8.535157 0-4.710937-3.820313-8.535156-8.535156-8.535156h-17.066407c-4.710937 0-8.535156 3.824219-8.535156 8.535156 0 4.710938 3.824219 8.535157 8.535156 8.535157zm0 0"/><path d="m8.660156 204.929688h25.601563c4.710937 0 8.53125-3.824219 8.53125-8.535157 0-4.710937-3.820313-8.535156-8.53125-8.535156h-25.601563c-4.710937 0-8.53125 3.824219-8.53125 8.535156 0 4.710938 3.820313 8.535157 8.53125 8.535157zm0 0"/><path d="m93.996094 230.527344c0-4.710938-3.820313-8.53125-8.535156-8.53125h-76.800782c-4.710937 0-8.53125 3.820312-8.53125 8.53125 0 4.714844 3.820313 8.535156 8.53125 8.535156h76.800782c4.714843 0 8.535156-3.820312 8.535156-8.535156zm0 0"/><path d="m85.460938 256.128906h-25.601563c-4.710937 0-8.53125 3.820313-8.53125 8.53125 0 4.714844 3.820313 8.535156 8.53125 8.535156h25.601563c4.714843 0 8.535156-3.820312 8.535156-8.535156 0-4.710937-3.820313-8.53125-8.535156-8.53125zm0 0"/><path d="m426.792969 418.261719c-4.710938 0-8.53125 3.820312-8.53125 8.53125 0 4.714843 3.820312 8.535156 8.53125 8.535156h17.066406c4.714844 0 8.535156-3.820313 8.535156-8.535156 0-4.710938-3.820312-8.53125-8.535156-8.53125zm0 0"/><path d="m503.59375 418.261719h-25.597656c-4.714844 0-8.535156 3.820312-8.535156 8.53125 0 4.714843 3.820312 8.535156 8.535156 8.535156h25.597656c4.714844 0 8.535156-3.820313 8.535156-8.535156 0-4.710938-3.820312-8.53125-8.535156-8.53125zm0 0"/><path d="m503.59375 452.394531h-76.800781c-4.710938 0-8.53125 3.820313-8.53125 8.535157 0 4.710937 3.820312 8.53125 8.53125 8.53125h76.800781c4.714844 0 8.535156-3.820313 8.535156-8.53125 0-4.714844-3.820312-8.535157-8.535156-8.535157zm0 0"/><path d="m452.394531 486.527344h-25.601562c-4.710938 0-8.53125 3.820312-8.53125 8.535156 0 4.710938 3.820312 8.53125 8.53125 8.53125h25.601562c4.710938 0 8.535157-3.820312 8.535157-8.53125 0-4.714844-3.824219-8.535156-8.535157-8.535156zm0 0"/><path d="m196.394531 426.792969h-17.066406c-4.714844 0-8.535156 3.820312-8.535156 8.535156 0 4.710937 3.820312 8.53125 8.535156 8.53125h17.066406c4.710938 0 8.535157-3.820313 8.535157-8.53125 0-4.714844-3.824219-8.535156-8.535157-8.535156zm0 0"/><path d="m119.59375 443.859375h25.601562c4.710938 0 8.53125-3.820313 8.53125-8.53125 0-4.714844-3.820312-8.535156-8.53125-8.535156h-25.601562c-4.710938 0-8.53125 3.820312-8.53125 8.535156 0 4.710937 3.820312 8.53125 8.53125 8.53125zm0 0"/><path d="m196.394531 460.929688h-76.800781c-4.710938 0-8.53125 3.820312-8.53125 8.53125 0 4.714843 3.820312 8.535156 8.53125 8.535156h76.800781c4.710938 0 8.535157-3.820313 8.535157-8.535156 0-4.710938-3.824219-8.53125-8.535157-8.53125zm0 0"/><path d="m196.394531 495.0625h-25.601562c-4.710938 0-8.53125 3.820312-8.53125 8.53125 0 4.714844 3.820312 8.535156 8.53125 8.535156h25.601562c4.710938 0 8.535157-3.820312 8.535157-8.535156 0-4.710938-3.824219-8.53125-8.535157-8.53125zm0 0"/></svg>