<svg height="512pt" viewBox="0 0 512 512.00812" width="512pt" xmlns="http://www.w3.org/2000/svg"><path d="m469.335938 0h-426.664063c-23.554687.0273438-42.640625 19.113281-42.66796875 42.667969v324.265625c.02734375 23.550781 19.11328175 42.636718 42.66796875 42.667968h151.039063c3.394531-.003906 6.46875 2.007813 7.824218 5.117188l39.253906 87.894531c2.925782 5.8125 8.902344 9.457031 15.410157 9.390625 6.507812-.0625 12.414062-3.820312 15.222656-9.6875l15.617187-34.988281c34.832032 40.65625 91.308594 55.308594 141.515626 36.710937 50.203124-18.59375 83.507812-66.5 83.449218-120.039062 0-3.667969-.246094-7.269531-.546875-10.863281.339844-2.050781.523438-4.125.546875-6.203125v-324.265625c-.027344-23.554688-19.113281-42.6406252-42.667968-42.667969zm-85.332032 494.933594c-61.265625 0-110.933594-49.667969-110.933594-110.933594s49.667969-110.933594 110.933594-110.933594 110.933594 49.667969 110.933594 110.933594c-.070312 61.238281-49.695312 110.863281-110.933594 110.933594zm0-238.933594c-46.484375-.09375-89.351562 25.074219-111.925781 65.710938-22.574219 40.636718-21.292969 90.328124 3.347656 129.746093l-19.226562 43.84375-39.054688-87.5c-4.097656-9.285156-13.289062-15.273437-23.433593-15.265625h-151.039063c-14.140625 0-25.601563-11.464844-25.601563-25.601562v-324.265625c0-14.140625 11.460938-25.601563 25.601563-25.601563h426.664063c14.140624 0 25.601562 11.460938 25.601562 25.601563v277.742187c-22.773438-39.785156-65.089844-64.355468-110.933594-64.410156zm0 0"/><path d="m443.738281 358.398438h-34.132812v-34.132813c0-9.425781-7.640625-17.066406-17.066407-17.066406h-17.066406c-9.425781 0-17.070312 7.640625-17.070312 17.066406v34.132813h-34.132813c-9.425781 0-17.066406 7.640624-17.066406 17.066406v17.070312c0 9.425782 7.640625 17.066406 17.066406 17.066406h34.132813v34.132813c0 9.425781 7.644531 17.066406 17.070312 17.066406h17.066406c9.425782 0 17.066407-7.640625 17.066407-17.066406v-34.132813h34.132812c9.425781 0 17.066407-7.640624 17.066407-17.066406v-17.070312c0-9.425782-7.640626-17.066406-17.066407-17.066406zm0 34.136718h-42.667969c-4.710937 0-8.53125 3.820313-8.53125 8.53125v42.667969h-17.066406v-42.667969c0-4.710937-3.824218-8.53125-8.535156-8.53125h-42.667969v-17.070312h42.667969c4.710938 0 8.535156-3.820313 8.535156-8.53125v-42.667969h17.066406v42.667969c0 4.710937 3.820313 8.53125 8.53125 8.53125h42.667969zm0 0"/><path d="m76.804688 59.734375h-25.601563c-4.710937 0-8.53125 3.820313-8.53125 8.53125 0 4.714844 3.820313 8.535156 8.53125 8.535156h25.601563c4.710937 0 8.53125-3.820312 8.53125-8.535156 0-4.710937-3.820313-8.53125-8.53125-8.53125zm0 0"/><path d="m460.804688 59.734375h-341.332032c-4.714844 0-8.535156 3.820313-8.535156 8.53125 0 4.714844 3.820312 8.535156 8.535156 8.535156h341.332032c4.710937 0 8.53125-3.820312 8.53125-8.535156 0-4.710937-3.820313-8.53125-8.53125-8.53125zm0 0"/><path d="m76.804688 136.535156h-25.601563c-4.710937 0-8.53125 3.820313-8.53125 8.53125 0 4.714844 3.820313 8.535156 8.53125 8.535156h25.601563c4.710937 0 8.53125-3.820312 8.53125-8.535156 0-4.710937-3.820313-8.53125-8.53125-8.53125zm0 0"/><path d="m460.804688 136.535156h-341.332032c-4.714844 0-8.535156 3.820313-8.535156 8.53125 0 4.714844 3.820312 8.535156 8.535156 8.535156h341.332032c4.710937 0 8.53125-3.820312 8.53125-8.535156 0-4.710937-3.820313-8.53125-8.53125-8.53125zm0 0"/><path d="m76.804688 213.332031h-25.601563c-4.710937 0-8.53125 3.820313-8.53125 8.535157 0 4.710937 3.820313 8.53125 8.53125 8.53125h25.601563c4.710937 0 8.53125-3.820313 8.53125-8.53125 0-4.714844-3.820313-8.535157-8.53125-8.535157zm0 0"/><path d="m460.804688 213.332031h-341.332032c-4.714844 0-8.535156 3.820313-8.535156 8.535157 0 4.710937 3.820312 8.53125 8.535156 8.53125h341.332032c4.710937 0 8.53125-3.820313 8.53125-8.53125 0-4.714844-3.820313-8.535157-8.53125-8.535157zm0 0"/><path d="m76.804688 290.132812h-25.601563c-4.710937 0-8.53125 3.820313-8.53125 8.535157 0 4.710937 3.820313 8.53125 8.53125 8.53125h25.601563c4.710937 0 8.53125-3.820313 8.53125-8.53125 0-4.714844-3.820313-8.535157-8.53125-8.535157zm0 0"/><path d="m256.003906 290.132812h-136.53125c-4.714844 0-8.535156 3.820313-8.535156 8.535157 0 4.710937 3.820312 8.53125 8.535156 8.53125h136.53125c4.714844 0 8.535156-3.820313 8.535156-8.53125 0-4.714844-3.820312-8.535157-8.535156-8.535157zm0 0"/></svg>