<svg height="512pt" viewBox="0 0 512 512.04277" width="512pt" xmlns="http://www.w3.org/2000/svg"><path d="m68.289062 401.109375h51.199219c4.710938 0 8.53125-3.820313 8.53125-8.535156v-34.132813c0-4.710937-3.820312-8.53125-8.53125-8.53125h-51.199219c-4.714843 0-8.535156 3.820313-8.535156 8.53125v34.132813c0 4.714843 3.820313 8.535156 8.535156 8.535156zm8.53125-34.132813h34.132813v17.066407h-34.132813zm0 0"/><path d="m68.289062 332.84375h51.199219c4.710938 0 8.53125-3.820312 8.53125-8.535156v-34.132813c0-4.710937-3.820312-8.53125-8.53125-8.53125h-51.199219c-4.714843 0-8.535156 3.820313-8.535156 8.53125v34.132813c0 4.714844 3.820313 8.535156 8.535156 8.535156zm8.53125-34.132812h34.132813v17.066406h-34.132813zm0 0"/><path d="m68.289062 264.574219h51.199219c4.710938 0 8.53125-3.820313 8.53125-8.53125v-34.132813c0-4.714844-3.820312-8.535156-8.53125-8.535156h-51.199219c-4.714843 0-8.535156 3.820312-8.535156 8.535156v34.132813c0 4.710937 3.820313 8.53125 8.535156 8.53125zm8.53125-34.132813h34.132813v17.066406h-34.132813zm0 0"/><path d="m153.621094 401.109375h51.199218c4.714844 0 8.535157-3.820313 8.535157-8.535156v-34.132813c0-4.710937-3.820313-8.53125-8.535157-8.53125h-51.199218c-4.710938 0-8.53125 3.820313-8.53125 8.53125v34.132813c0 4.714843 3.820312 8.535156 8.53125 8.535156zm8.535156-34.132813h34.132812v17.066407h-34.132812zm0 0"/><path d="m153.621094 332.84375h51.199218c4.714844 0 8.535157-3.820312 8.535157-8.535156v-34.132813c0-4.710937-3.820313-8.53125-8.535157-8.53125h-51.199218c-4.710938 0-8.53125 3.820313-8.53125 8.53125v34.132813c0 4.714844 3.820312 8.535156 8.53125 8.535156zm8.535156-34.132812h34.132812v17.066406h-34.132812zm0 0"/><path d="m153.621094 264.574219h51.199218c4.714844 0 8.535157-3.820313 8.535157-8.53125v-34.132813c0-4.714844-3.820313-8.535156-8.535157-8.535156h-51.199218c-4.710938 0-8.53125 3.820312-8.53125 8.535156v34.132813c0 4.710937 3.820312 8.53125 8.53125 8.53125zm8.535156-34.132813h34.132812v17.066406h-34.132812zm0 0"/><path d="m68.289062 196.308594h51.199219c4.710938 0 8.53125-3.820313 8.53125-8.53125v-34.132813c0-4.714843-3.820312-8.535156-8.53125-8.535156h-51.199219c-4.714843 0-8.535156 3.820313-8.535156 8.535156v34.132813c0 4.710937 3.820313 8.53125 8.535156 8.53125zm8.53125-34.132813h34.132813v17.066407h-34.132813zm0 0"/><path d="m204.820312 136.574219h17.066407c4.714843 0 8.535156-3.820313 8.535156-8.53125 0-4.714844-3.820313-8.535157-8.535156-8.535157h-17.066407c-4.710937 0-8.53125 3.820313-8.53125 8.535157 0 4.710937 3.820313 8.53125 8.53125 8.53125zm0 0"/><path d="m256.019531 136.574219h25.601563c4.714844 0 8.535156-3.820313 8.535156-8.53125 0-4.714844-3.820312-8.535157-8.535156-8.535157h-25.601563c-4.710937 0-8.53125 3.820313-8.53125 8.535157 0 4.710937 3.820313 8.53125 8.53125 8.53125zm0 0"/><path d="m179.222656 170.710938h102.398438c4.714844 0 8.535156-3.820313 8.535156-8.535157 0-4.710937-3.820312-8.53125-8.535156-8.53125h-102.398438c-4.714844 0-8.535156 3.820313-8.535156 8.53125 0 4.714844 3.820312 8.535157 8.535156 8.535157zm0 0"/><path d="m281.621094 187.777344h-25.601563c-4.710937 0-8.53125 3.820312-8.53125 8.53125 0 4.714844 3.820313 8.535156 8.53125 8.535156h25.601563c4.714844 0 8.535156-3.820312 8.535156-8.535156 0-4.710938-3.820312-8.53125-8.535156-8.53125zm0 0"/><path d="m511.492188 415.222656-55.613282-150.960937c-3.734375-10.046875-13.308594-16.722657-24.027344-16.753907h-73.429687v-187.730468c0-14.140625-11.460937-25.601563-25.601563-25.601563h-111.785156c-4.039062-19.886719-21.523437-34.175781-41.8125-34.175781-20.292968 0-37.777344 14.289062-41.816406 34.175781h-111.785156c-14.136719 0-25.6015628 11.460938-25.6015628 25.601563v384c0 14.136718 11.4648438 25.597656 25.6015628 25.597656h196.265625v17.066406c0 14.140625 11.460937 25.601563 25.601562 25.601563h238.933594c14.136719 0 25.597656-11.460938 25.597656-25.601563v-68.265625c-.050781-.496093-.148437-.988281-.296875-1.46875-.03125-.5-.109375-.996093-.230468-1.484375zm-71.628907-145.066406 51.386719 139.488281h-73.09375c-4.714844 0-8.535156 3.820313-8.535156 8.53125v25.601563h-85.332032v-25.601563c0-4.710937-3.820312-8.53125-8.535156-8.53125h-73.097656l51.390625-139.488281c1.253906-3.359375 4.46875-5.585938 8.054687-5.582031h129.792969c3.554688.03125 6.726563 2.25 7.96875 5.582031zm-344.40625-184.78125c3.605469 10.191406 13.222657 17.023438 24.03125 17.066406h119.464844c10.8125-.042968 20.429687-6.875 24.03125-17.066406h44.238281v162.132812h-5.121094c-10.71875.03125-20.292968 6.707032-24.03125 16.753907l-55.652343 150.960937c-.125.488282-.199219.984375-.230469 1.484375-.148438.480469-.246094.972657-.300781 1.46875h-170.664063v-332.800781zm245.898438-25.597656v187.730468h-17.066407v-170.664062c0-4.714844-3.820312-8.535156-8.535156-8.535156h-51.199218v-17.066406h68.265624c4.714844 0 8.535157 3.820312 8.535157 8.535156zm-162.132813-42.667969c10.808594.042969 20.425782 6.875 24.027344 17.066406h-48.058594c3.601563-10.191406 13.21875-17.023437 24.03125-17.066406zm68.265625 34.132813v25.601562c0 4.710938-3.820312 8.53125-8.535156 8.53125h-119.464844c-4.714843 0-8.535156-3.820312-8.535156-8.53125v-25.601562zm-221.867187 401.066406c-4.710938 0-8.53125-3.820313-8.53125-8.53125v-384c0-4.714844 3.820312-8.535156 8.53125-8.535156h68.265625v17.066406h-51.199219c-4.710938 0-8.53125 3.820312-8.53125 8.535156v349.867188c0 4.710937 3.820312 8.53125 8.53125 8.53125h179.199219v17.066406zm469.332031 34.132812c0 4.714844-3.820313 8.535156-8.53125 8.535156h-238.933594c-4.714843 0-8.535156-3.820312-8.535156-8.535156v-59.730468h68.269531v17.066406c0 9.425781 7.640625 17.066406 17.066406 17.066406h85.332032c9.425781 0 17.066406-7.640625 17.066406-17.066406v-17.066406h68.265625zm0 0"/><path d="m317.726562 335.90625c-2.125 2.542969-2.585937 6.089844-1.179687 9.089844 1.410156 3.003906 4.425781 4.917968 7.742187 4.914062h17.066407v68.265625c0 4.714844 3.820312 8.535157 8.53125 8.535157h34.132812c4.714844 0 8.535157-3.820313 8.535157-8.535157v-68.265625h17.066406c3.316406.003906 6.332031-1.910156 7.738281-4.914062 1.40625-3 .949219-6.546875-1.175781-9.089844l-42.667969-51.199219c-.179687-.207031-.417969-.300781-.605469-.480469-.1875-.175781-.28125-.433593-.484375-.613281-.207031-.179687-.5625-.265625-.855469-.441406-.46875-.316406-.96875-.585937-1.492187-.804687-2.023437-.800782-4.273437-.800782-6.296875 0-.523438.21875-1.023438.488281-1.496094.804687-.261718.175781-.570312.238281-.851562.441406-.28125.207031-.296875.425781-.488282.613281-.1875.191407-.425781.273438-.605468.480469zm66.292969-3.0625c-4.710937 0-8.53125 3.820312-8.53125 8.53125v68.269531h-17.066406v-68.269531c0-4.710938-3.820313-8.53125-8.535156-8.53125h-7.378907l24.445313-29.328125 24.449219 29.328125zm0 0"/></svg>