<svg height="503pt" viewBox="0 0 503 503.97464" width="503pt" xmlns="http://www.w3.org/2000/svg"><path d="m117.996094 344.171875h-50.359375c-4.636719 0-8.394531 3.757813-8.394531 8.394531v33.574219c0 4.636719 3.757812 8.394531 8.394531 8.394531h50.359375c4.636718 0 8.394531-3.757812 8.394531-8.394531v-33.574219c0-4.636718-3.757813-8.394531-8.394531-8.394531zm-8.394532 33.574219h-33.574218v-16.785156h33.574218zm0 0"/><path d="m117.996094 277.027344h-50.359375c-4.636719 0-8.394531 3.757812-8.394531 8.390625v33.574219c0 4.636718 3.757812 8.394531 8.394531 8.394531h50.359375c4.636718 0 8.394531-3.757813 8.394531-8.394531v-33.574219c0-4.632813-3.757813-8.390625-8.394531-8.390625zm-8.394532 33.570312h-33.574218v-16.785156h33.574218zm0 0"/><path d="m117.996094 209.878906h-50.359375c-4.636719 0-8.394531 3.757813-8.394531 8.394532v33.570312c0 4.636719 3.757812 8.394531 8.394531 8.394531h50.359375c4.636718 0 8.394531-3.757812 8.394531-8.394531v-33.570312c0-4.636719-3.757813-8.394532-8.394531-8.394532zm-8.394532 33.574219h-33.574218v-16.789063h33.574218zm0 0"/><path d="m201.929688 344.171875h-50.359376c-4.636718 0-8.394531 3.757813-8.394531 8.394531v33.574219c0 4.636719 3.757813 8.394531 8.394531 8.394531h50.359376c4.636718 0 8.394531-3.757812 8.394531-8.394531v-33.574219c0-4.636718-3.757813-8.394531-8.394531-8.394531zm-8.394532 33.574219h-33.574218v-16.785156h33.574218zm0 0"/><path d="m277.472656 344.171875h-41.96875c-4.636718 0-8.394531 3.757813-8.394531 8.394531v33.574219c0 4.636719 3.757813 8.394531 8.394531 8.394531h41.96875c4.632813 0 8.390625-3.757812 8.390625-8.394531v-33.574219c0-4.636718-3.757812-8.394531-8.390625-8.394531zm-8.394531 33.574219h-25.179687v-16.785156h25.179687zm0 0"/><path d="m151.570312 327.386719h41.964844c4.636719 0 8.394532-3.757813 8.394532-8.394531v-33.574219c0-4.632813-3.757813-8.390625-8.394532-8.390625h-41.964844c-4.636718 0-8.394531 3.757812-8.394531 8.390625v33.574219c0 4.636718 3.757813 8.394531 8.394531 8.394531zm8.390626-33.574219h25.183593v16.785156h-25.183593zm0 0"/><path d="m151.570312 260.238281h41.964844c4.636719 0 8.394532-3.757812 8.394532-8.394531v-33.570312c0-4.636719-3.757813-8.394532-8.394532-8.394532h-41.964844c-4.636718 0-8.394531 3.757813-8.394531 8.394532v33.570312c0 4.636719 3.757813 8.394531 8.394531 8.394531zm8.390626-33.574219h25.183593v16.789063h-25.183593zm0 0"/><path d="m117.996094 142.730469h-50.359375c-4.636719 0-8.394531 3.757812-8.394531 8.394531v33.574219c0 4.632812 3.757812 8.390625 8.394531 8.390625h50.359375c4.636718 0 8.394531-3.757813 8.394531-8.390625v-33.574219c0-4.636719-3.757813-8.394531-8.394531-8.394531zm-8.394532 33.574219h-33.574218v-16.789063h33.574218zm0 0"/><path d="m201.929688 134.335938h16.789062c4.632812 0 8.390625-3.757813 8.390625-8.390626 0-4.636718-3.757813-8.394531-8.390625-8.394531h-16.789062c-4.636719 0-8.394532 3.757813-8.394532 8.394531 0 4.632813 3.757813 8.390626 8.394532 8.390626zm0 0"/><path d="m252.289062 134.335938h25.183594c4.632813 0 8.390625-3.757813 8.390625-8.390626 0-4.636718-3.757812-8.394531-8.390625-8.394531h-25.183594c-4.632812 0-8.390624 3.757813-8.390624 8.394531 0 4.632813 3.757812 8.390626 8.390624 8.390626zm0 0"/><path d="m176.75 167.910156h100.722656c4.632813 0 8.390625-3.757812 8.390625-8.394531 0-4.632813-3.757812-8.390625-8.390625-8.390625h-100.722656c-4.636719 0-8.394531 3.757812-8.394531 8.390625 0 4.636719 3.757812 8.394531 8.394531 8.394531zm0 0"/><path d="m277.472656 184.699219h-25.183594c-4.632812 0-8.390624 3.757812-8.390624 8.390625 0 4.636718 3.757812 8.394531 8.390624 8.394531h25.183594c4.632813 0 8.390625-3.757813 8.390625-8.394531 0-4.632813-3.757812-8.390625-8.390625-8.390625zm0 0"/><path d="m445.339844 353.070312c20.046875.007813 38.707031-10.222656 49.484375-27.125 10.777343-16.898437 12.175781-38.136718 3.714843-56.304687l-.109374-.269531c-.058594-.125-.085938-.261719-.144532-.386719-.589844-.722656-1.128906-1.480469-1.621094-2.273437-.066406-.078126-.15625-.09375-.234374-.160157-.445313-.371093-.929688-.691406-1.441407-.957031-.421875-.300781-.871093-.5625-1.34375-.78125-.433593-.121094-.878906-.207031-1.328125-.257812-1.003906-.355469-2.097656-.355469-3.105468 0-.640626.078124-1.265626.238281-1.871094.46875-.089844.042968-.183594 0-.269532.066406-.722656.585937-1.484374 1.132812-2.273437 1.628906l-33.574219 33.53125-11.875-11.867188 33.574219-33.574218c.292969-.363282.550781-.753906.769531-1.167969.316406-.339844.597656-.710937.839844-1.105469.042969-.085937 0-.1875.066406-.269531.214844-.5625.367188-1.148437.445313-1.746094.136719-.46875.234375-.949219.285156-1.4375-.027344-.53125-.105469-1.058593-.226563-1.574219-.050781-.535156-.15625-1.058593-.308593-1.570312-.207031-.4375-.449219-.855469-.722657-1.25-.277343-.546875-.621093-1.054688-1.015624-1.519531-.058594-.070313-.074219-.160157-.140626-.226563-.363281-.285156-.75-.542968-1.152343-.765625-.355469-.308593-.734375-.589843-1.132813-.839843-.125-.066407-.269531-.089844-.394531-.160157l-.242187-.089843c-21.414063-10.015626-46.75-6.167969-64.21875 9.753906-17.472657 15.921875-23.652344 40.792968-15.664063 63.042968l-28.074219 28.066407-9.023437-9.046875v-274.105469c0-13.90625-11.273438-25.179687-25.179688-25.179687h-109.953125c-3.972656-19.5625-21.171875-33.617188-41.128906-33.617188-19.960938 0-37.15625 14.054688-41.128906 33.617188h-109.953125c-13.90625 0-25.179688 11.273437-25.179688 25.179687v377.703125c0 13.90625 11.273438 25.179688 25.179688 25.179688h216.96875c-9.5 10.085937-9.03125 25.960937 1.050781 35.464843 10.082031 9.503907 25.960938 9.03125 35.460938-1.050781l71.050781-71.050781 68.828125 68.828125c6.296875 6.296875 14.835937 9.832031 23.738281 9.832031 8.90625 0 17.445313-3.535156 23.742187-9.832031l11.867188-11.871094c13.109375-13.109375 13.109375-34.359375 0-47.472656l-68.75-68.757813 16.097656-16.105469c6.296875 2.253907 12.929688 3.410157 19.617188 3.40625zm-29.671875-88.441406c9.335937-9.332031 22.523437-13.722656 35.589843-11.84375l-23.71875 23.71875c-6.554687 6.558594-6.554687 17.183594 0 23.738282l11.867188 11.867187c3.148438 3.152344 7.417969 4.921875 11.871094 4.921875s8.726562-1.769531 11.875-4.921875l23.71875-23.726563c2.203125 15.324219-4.222656 30.613282-16.710938 39.765626-12.488281 9.148437-29.003906 10.667968-42.949218 3.945312-8.691407-4.089844-15.667969-11.105469-19.71875-19.816406-7.671876-16.007813-4.394532-35.113282 8.175781-47.648438zm-17.332031 64.773438c1.648437 2.28125 3.464843 4.4375 5.429687 6.453125 2.015625 1.960937 4.171875 3.777343 6.449219 5.429687l-17.628906 17.625-16.910157-3.398437-1.679687-1.675781zm-105.589844 81.917968h-241.898438v-327.34375h43.511719c3.542969 10.023438 13.003906 16.742188 23.636719 16.785157h117.507812c10.632813-.042969 20.089844-6.761719 23.636719-16.785157h43.511719v189.816407l-7.421875-10.390625c-.269531-.375-.570313-.730469-.898438-1.058594l-29.667969-29.667969c-3.277343-3.277343-8.59375-3.277343-11.871093 0l-35.613281 35.605469c-3.277344 3.277344-3.277344 8.589844 0 11.867188l29.679687 29.679687c.328125.324219.683594.625 1.058594.898437l40.96875 29.25 37.578125 37.585938zm55.003906-36.199218-47.484375-47.492188c-.164063-.167968-.402344-.234375-.578125-.386718-.175781-.148438-.277344-.367188-.476562-.503907l-40.976563-29.265625-23.25-23.257812 23.742187-23.738282 23.25 23.242188 29.261719 40.984375c.140625.203125.359375.304687.519531.488281.160157.183594.210938.402344.378907.570313l47.488281 47.480469zm-11.523438-316.324219v257.316406l-11.753906-11.75-5.035156-7.09375v-221.6875c0-4.632812-3.757812-8.390625-8.394531-8.390625h-50.359375v-16.789062h67.148437c4.636719 0 8.394531 3.757812 8.394531 8.394531zm-159.476562-41.96875c10.632812.042969 20.089844 6.761719 23.636719 16.789063h-47.273438c3.542969-10.027344 13.003907-16.746094 23.636719-16.789063zm67.148438 33.574219v25.179687c0 4.636719-3.757813 8.394531-8.394532 8.394531h-117.507812c-4.636719 0-8.394532-3.757812-8.394532-8.394531v-25.179687zm-226.625 386.097656v-377.703125c0-4.636719 3.757812-8.394531 8.394531-8.394531h67.148437v16.789062h-50.363281c-4.632813 0-8.390625 3.757813-8.390625 8.390625v344.132813c0 4.636718 3.757812 8.394531 8.390625 8.394531h233.515625l-16.789062 16.785156h-233.511719c-4.636719 0-8.394531-3.757812-8.394531-8.394531zm249.949218 47.734375c-2.101562 2.160156-5.207031 3.019531-8.125 2.246094-2.914062-.777344-5.183594-3.0625-5.933594-5.984375-.753906-2.917969.128907-6.019532 2.308594-8.105469l82.875-82.953125 1.679688 1.679688 3.355468 16.921874zm204.144532-26.019531c.011718 4.453125-1.761719 8.722656-4.917969 11.859375l-11.875 11.867187c-6.644531 6.347656-17.101563 6.347656-23.746094 0l-69.421875-69.421875-4.558594-22.769531 17.390625-17.390625 22.78125 4.546875 69.421875 69.433594c3.160156 3.136718 4.929688 7.414062 4.917969 11.867187zm0 0"/></svg>