<svg height="512pt" viewBox="-21 0 512 512.04277" width="512pt" xmlns="http://www.w3.org/2000/svg"><path d="m426.6875 353.066406c17-19.867187 26.109375-45.28125 25.601562-71.421875 0-51.757812-32.539062-93.867187-72.535156-93.867187-7.308594.007812-14.550781 1.417968-21.332031 4.15625v-132.15625c0-14.140625-11.460937-25.601563-25.601563-25.601563h-111.785156c-4.039062-19.886719-21.523437-34.175781-41.8125-34.175781-20.292968 0-37.777344 14.289062-41.816406 34.175781h-111.785156c-14.136719 0-25.6015628 11.460938-25.6015628 25.601563v384c0 14.136718 11.4648438 25.597656 25.6015628 25.597656h49.324218c4.8125 5.410156 11.703126 8.511719 18.941407 8.535156h59.734375v25.597656c.011718 3.289063 1.910156 6.273438 4.882812 7.679688 1.136719.558594 2.382813.851562 3.652344.855469 1.96875 0 3.875-.683594 5.398438-1.929688l49.800781-40.738281h56.152343c4.265626 24.601562 44.789063 42.667969 97.714844 42.667969 55.941406 0 98.132813-20.171875 98.132813-46.933594v-4.265625c1.480469-36.78125-11.195313-72.734375-35.414063-100.457031-2.285156-2.515625-4.691406-4.957031-7.253906-7.320313zm-35.652344 97.613282c-8.78125-5.445313-16.386718-12.585938-22.375-21.007813l13.570313-54.324219c1.234375-.050781 2.480469-.101562 3.703125-.238281l21.84375 49.132813c-3.921875 9.761718-9.597656 18.71875-16.742188 26.4375zm-112.886718-32.503907h-19.070313l-91.523437-74.871093c-2.550782-2.085938-6.074219-2.515626-9.054688-1.105469-2.980469 1.414062-4.878906 4.414062-4.878906 7.710937v25.597656h-59.734375c-14.136719 0-25.597657 11.464844-25.597657 25.601563v17.066406h-17.066406v-332.800781h44.234375c3.605469 10.191406 13.222657 17.023438 24.03125 17.066406h119.464844c10.8125-.042968 20.429687-6.875 24.03125-17.066406h44.238281v196.269531c-.269531 22.378907 6.296875 44.304688 18.824219 62.855469-2.835937 2.148438-5.574219 4.359375-8.183594 6.707031-19.75 17.757813-33.605469 41.121094-39.714843 66.96875zm59.058593-60.679687c7.804688 7.585937 17.371094 13.105468 27.84375 16.066406l-9.15625 36.695312c-8.921875-15.976562-16.328125-32.75-22.117187-50.109374 1.117187-.851563 2.261718-1.78125 3.429687-2.652344zm76.613281 6.972656c1.476563 1.347656 2.902344 2.71875 4.265626 4.128906-.03125 10.226563-.996094 20.429688-2.882813 30.480469l-12.628906-28.414063c3.945312-1.6875 7.710937-3.765624 11.246093-6.195312zm-5.28125-17.296875c-.1875.140625-.367187.289063-.539062.449219-7.851562 6.8125-17.851562 10.644531-28.246094 10.820312-21.050781 0-39.398437-16.3125-48.785156-40.300781 14.652344-8.335937 22.589844-19.429687 22.589844-31.632813 1.035156-12.167968 8.585937-22.816406 19.726562-27.820312 17.597656 14.148438 39.363282 22.101562 61.9375 22.632812v.324219c.902344 24.65625-8.8125 48.515625-26.683594 65.527344zm25.179688-82.996094c-43.578125-3.414062-58.664062-28.261719-59.355469-29.441406-2.328125-4.097656-7.535156-5.539063-11.636719-3.210937-4.101562 2.324218-5.539062 7.535156-3.214843 11.632812.128906.230469.746093 1.246094 1.785156 2.714844-14.617187 8.46875-23.957031 23.761718-24.804687 40.636718-.953126 6.199219-4.792969 11.582032-10.34375 14.503907-1.222657-6.382813-1.84375-12.867188-1.859376-19.367188 0-42.351562 24.882813-76.800781 55.464844-76.800781 26.242188 0 48.230469 25.386719 53.964844 59.332031zm-92.363281-204.398437v142.378906c-6.648438 5.445312-12.40625 11.898438-17.066407 19.121094v-144.433594c0-4.714844-3.820312-8.535156-8.535156-8.535156h-51.199218v-17.066406h68.265624c4.714844 0 8.535157 3.820312 8.535157 8.535156zm-162.132813-42.667969c10.808594.042969 20.425782 6.875 24.027344 17.066406h-48.058594c3.601563-10.191406 13.21875-17.023437 24.03125-17.066406zm68.265625 34.132813v25.601562c0 4.710938-3.820312 8.53125-8.535156 8.53125h-119.464844c-4.714843 0-8.535156-3.820312-8.535156-8.53125v-25.601562zm-221.867187 401.066406c-4.710938 0-8.53125-3.820313-8.53125-8.53125v-384c0-4.714844 3.820312-8.535156 8.53125-8.535156h68.265625v17.066406h-51.199219c-4.710938 0-8.53125 3.820312-8.53125 8.535156v349.867188c0 4.710937 3.820312 8.53125 8.53125 8.53125h25.601562v17.066406zm145.066406 17.066406c0-4.710938-3.820312-8.53125-8.53125-8.53125h-68.269531c-4.710938 0-8.53125-3.820312-8.53125-8.535156v-51.199219c0-4.710937 3.820312-8.535156 8.53125-8.535156h68.269531c4.710938 0 8.53125-3.820313 8.53125-8.53125v-16.128907l71.859375 58.796876-71.859375 58.792968zm88.390625-34.132812h15.785156c-.75 5.429687-1.296875 11.09375-1.554687 17.066406h-35.097656zm31.078125 29.867187v-4.265625c-1.445312-32.039062 9.28125-63.4375 30.027344-87.894531 8.585937 23.730469 30.609375 75.527343 63.835937 93.160156v28.457031c-4.128906.257813-8.359375.433594-12.796875.433594-50.226562-.023438-81.066406-17.414062-81.066406-29.890625zm162.132812 0c0 9.761719-18.9375 22.484375-51.199218 27.589844v-28.023438c10.519531-10.625 18.613281-23.402343 23.722656-37.453125l.152344-.410156c4.605468-12.226562 7.628906-24.988281 8.992187-37.984375 12.683594 21.835937 19.03125 46.773437 18.332031 72.015625zm0 0"/><path d="m249.800781 129.542969c-1.867187-1.28125-4.164062-1.769531-6.390625-1.355469-2.226562.410156-4.199218 1.691406-5.480468 3.558594l-76.433594 111.164062-29.4375-29.433594c-3.332032-3.328124-8.734375-3.328124-12.066406 0l-24.132813 24.132813c-3.332031 3.332031-3.332031 8.734375 0 12.066406l65.707031 65.707031c1.597656 1.601563 3.769532 2.5 6.03125 2.5h.777344c2.527344-.230468 4.820312-1.574218 6.253906-3.667968l105.492188-153.472656c1.28125-1.867188 1.769531-4.164063 1.355468-6.390626-.410156-2.226562-1.691406-4.199218-3.558593-5.480468zm-83.378906 166.511719-52.421875-52.410157 12.066406-12.066406 30.660156 30.660156c1.78125 1.816407 4.296876 2.726563 6.828126 2.464844 2.527343-.230469 4.820312-1.574219 6.253906-3.667969l77.40625-112.589844 14.0625 9.660157zm0 0"/></svg>