<svg height="512pt" viewBox="-21 0 512 512.04277" width="512pt" xmlns="http://www.w3.org/2000/svg"><path d="m277.917969 148.871094-28.160157-19.328125c-1.867187-1.28125-4.164062-1.769531-6.390624-1.355469-2.226563.410156-4.199219 1.691406-5.480469 3.558594l-76.390625 111.164062-29.4375-29.433594c-3.332032-3.328124-8.734375-3.328124-12.066406 0l-24.132813 24.132813c-3.332031 3.332031-3.332031 8.734375 0 12.066406l65.707031 65.707031c1.597656 1.601563 3.769532 2.5 6.03125 2.5h.777344c2.527344-.230468 4.820312-1.574218 6.253906-3.667968l105.492188-153.472656c1.28125-1.867188 1.769531-4.164063 1.355468-6.390626-.410156-2.226562-1.691406-4.199218-3.558593-5.480468zm-111.496094 147.183594-52.421875-52.410157 12.066406-12.066406 30.660156 30.660156c1.78125 1.816407 4.296876 2.726563 6.828126 2.464844 2.527343-.230469 4.820312-1.574219 6.253906-3.667969l77.40625-112.589844 14.0625 9.660157zm0 0"/><path d="m443.753906 307.242188h-85.332031v-247.464844c0-14.140625-11.460937-25.601563-25.601563-25.601563h-111.785156c-4.039062-19.886719-21.523437-34.175781-41.8125-34.175781-20.292968 0-37.777344 14.289062-41.816406 34.175781h-111.785156c-14.136719 0-25.6015628 11.460938-25.6015628 25.601563v384c0 14.136718 11.4648438 25.597656 25.6015628 25.597656h179.199218v17.066406c0 14.140625 11.460938 25.601563 25.601563 25.601563h213.332031c14.140625 0 25.601563-11.460938 25.601563-25.601563v-153.597656c0-14.140625-11.460938-25.601562-25.601563-25.601562zm-102.398437-247.464844v247.464844h-17.066407v-230.398438c0-4.714844-3.820312-8.535156-8.535156-8.535156h-51.199218v-17.066406h68.265624c4.714844 0 8.535157 3.820312 8.535157 8.535156zm-110.933594 247.464844c-14.140625 0-25.601563 11.460937-25.601563 25.601562v85.332031h-153.597656v-332.800781h44.234375c3.605469 10.191406 13.222657 17.023438 24.03125 17.066406h119.464844c10.8125-.042968 20.429687-6.875 24.03125-17.066406h44.238281v221.867188zm-51.199219-290.132813c10.808594.042969 20.425782 6.875 24.027344 17.066406h-48.058594c3.601563-10.191406 13.21875-17.023437 24.03125-17.066406zm68.265625 34.132813v25.601562c0 4.710938-3.820312 8.53125-8.535156 8.53125h-119.464844c-4.714843 0-8.535156-3.820312-8.535156-8.53125v-25.601562zm-221.867187 401.066406c-4.710938 0-8.53125-3.820313-8.53125-8.53125v-384c0-4.714844 3.820312-8.535156 8.53125-8.535156h68.265625v17.066406h-51.199219c-4.710938 0-8.53125 3.820312-8.53125 8.535156v349.867188c0 4.710937 3.820312 8.53125 8.53125 8.53125h162.132812v17.066406zm426.667968 34.132812c0 4.714844-3.820312 8.535156-8.535156 8.535156h-213.332031c-4.714844 0-8.535156-3.820312-8.535156-8.535156v-153.597656c0-4.714844 3.820312-8.535156 8.535156-8.535156h213.332031c4.714844 0 8.535156 3.820312 8.535156 8.535156zm0 0"/><path d="m418.15625 341.375h-34.136719c-9.421875 0-17.066406 7.640625-17.066406 17.066406v51.203125c0 9.425781 7.644531 17.066407 17.066406 17.066407h34.136719c9.425781 0 17.066406-7.640626 17.066406-17.066407v-51.203125c0-9.425781-7.640625-17.066406-17.066406-17.066406zm-34.136719 68.269531v-51.203125h34.136719v51.203125zm0 0"/><path d="m332.820312 375.507812h-85.332031c-4.714843 0-8.535156 3.820313-8.535156 8.535157 0 4.710937 3.820313 8.53125 8.535156 8.53125h85.332031c4.714844 0 8.535157-3.820313 8.535157-8.53125 0-4.714844-3.820313-8.535157-8.535157-8.535157zm0 0"/><path d="m332.820312 409.644531h-85.332031c-4.714843 0-8.535156 3.820313-8.535156 8.53125 0 4.714844 3.820313 8.535157 8.535156 8.535157h85.332031c4.714844 0 8.535157-3.820313 8.535157-8.535157 0-4.710937-3.820313-8.53125-8.535157-8.53125zm0 0"/><path d="m281.621094 443.777344h-34.132813c-4.714843 0-8.535156 3.820312-8.535156 8.53125 0 4.714844 3.820313 8.535156 8.535156 8.535156h34.132813c4.714844 0 8.535156-3.820312 8.535156-8.535156 0-4.710938-3.820312-8.53125-8.535156-8.53125zm0 0"/></svg>