<svg height="512pt" viewBox="-43 0 512 512.03968" width="512pt" xmlns="http://www.w3.org/2000/svg"><path d="m420.824219 7.328125c-85.035157-28-167.945313 32.253906-185.914063 46.507813-46.332031-13.160157-95.6875 6.777343-119.875 48.425781-23.816406-1.460938-65.214844 8.191406-76.964844 52.128906-9.949218-5.542969-22.359374-3.882813-30.503906 4.078125-4.828125 4.75-7.5468748 11.238281-7.5468748 18.011719 0 6.769531 2.7187498 13.257812 7.5468748 18.007812l314.023438 310.1875c10.039062 9.820313 26.085937 9.820313 36.121094 0l.179687-.195312c4.753906-4.765625 7.40625-11.226563 7.375-17.957031-.03125-6.726563-2.75-13.164063-7.542969-17.882813l-95.429687-94.25c-3.746094-9.082031-22.640625-61.269531 22.1875-95.703125.152343-.121094.222656-.296875.375-.425781.535156-.476563 1.007812-1.019531 1.40625-1.613281.195312-.257813.375-.523438.539062-.800782.421875-.804687.710938-1.667968.851563-2.5625 0-.085937.070312-.167968.078125-.253906.121093-.925781.089843-1.863281-.09375-2.773438-16.214844-79.976562 51.074219-96.691406 53.914062-97.359374 3.039063-.6875 5.457031-2.976563 6.316407-5.972657.058593-.28125.101562-.566406.125-.851562v-.164063c.179687-.992187.179687-2.007812 0-3.003906 0-.085938 0-.167969 0-.253906-.09375-.453125-8.574219-46.199219 76.5625-141.507813 1.929687-2.152343 2.636718-5.132812 1.882812-7.921875-.75-2.789062-2.863281-5.007812-5.613281-5.894531zm-72.644531 479.332031c0 2.207032-.886719 4.316406-2.464844 5.855469l-.121094.121094c-3.382812 3.210937-8.703125 3.164062-12.03125-.105469l-314-310.175781c-1.582031-1.546875-2.472656-3.664063-2.472656-5.875 0-2.210938.890625-4.328125 2.472656-5.875 3.367188-3.308594 8.761719-3.308594 12.125 0l314.027344 310.175781c1.578125 1.550781 2.46875 3.667969 2.464844 5.878906zm-108.890626-135.011718-186.445312-184.140626c6.476562-45.800781 48.230469-48.445312 59.730469-48.25l.054687.078126 154.023438 152.140624c-21.84375 20.535157-32.09375 50.5625-27.363282 80.171876zm28.738282-102.835938-138.886719-137.171875c20.324219-36.546875 63.632813-53.644531 103.4375-40.84375l91.480469 90.351563c-35.417969 14.34375-57.894532 49.515624-56.03125 87.679687zm63.878906-103.917969-81.996094-80.972656c21.402344-15.820313 86.460938-58.140625 152.882813-43.835937-51.796875 60.464843-66.933594 101.828124-70.886719 124.824218zm0 0"/></svg>