<svg height="512pt" viewBox="0 0 512 512.00734" width="512pt" xmlns="http://www.w3.org/2000/svg"><path d="m469.335938 25.605469v-8.53125c-.308594-9.714844-8.417969-17.34375-18.132813-17.0664065h-134.398437c-9.714844-.2773435-17.824219 7.3515625-18.132813 17.0664065v8.53125h-256c-23.554687.03125-42.640625 19.117187-42.66796875 42.667969v187.734374c.02734375 23.550782 19.11328175 42.636719 42.66796875 42.667969h426.664063c23.554687-.03125 42.640624-19.117187 42.667968-42.667969v-187.734374c-.027344-23.550782-19.113281-42.636719-42.667968-42.667969zm-152.53125-8.53125h134.398437c.675781 0 1.050781.222656 1.066406.078125v221.40625l-63.027343-49.015625c-3.082032-2.398438-7.394532-2.398438-10.476563 0l-63.027344 49.023437-.085937-203.949218c0-.160157.09375-.296876.09375-.460938 0-.160156-.085938-.296875-.09375-.460938v-16.210937c.3125-.285156.726562-.433594 1.152344-.410156zm178.132812 238.933593c0 14.136719-11.460938 25.597657-25.601562 25.597657h-426.664063c-14.140625 0-25.601563-11.460938-25.601563-25.597657v-187.734374c0-14.136719 11.460938-25.597657 25.601563-25.597657h256v213.332031c0 3.257813 1.855469 6.230469 4.785156 7.664063 2.925781 1.429687 6.414063 1.070313 8.984375-.933594l71.5625-55.652343 71.558594 55.652343c2.574219 2.003907 6.0625 2.363281 8.988281.933594 2.929688-1.433594 4.785157-4.40625 4.785157-7.664063v-213.332031c14.140624 0 25.601562 11.460938 25.601562 25.597657zm0 0"/><path d="m469.335938 332.808594h-426.664063c-23.554687.027344-42.640625 19.113281-42.66796875 42.664062v128c0 4.714844 3.82031275 8.535156 8.53124975 8.535156h494.933594c4.714844 0 8.535156-3.820312 8.535156-8.535156v-128c-.027344-23.550781-19.113281-42.636718-42.667968-42.664062zm-418.132813 162.132812v-51.199218h51.199219v51.199218zm443.734375 0h-375.46875v-51.199218c0-9.425782-7.640625-17.066407-17.066406-17.066407h-51.199219c-9.425781 0-17.066406 7.640625-17.066406 17.066407v51.199218h-17.066407v-119.46875c0-14.136718 11.460938-25.597656 25.601563-25.597656h426.664063c14.140624 0 25.601562 11.460938 25.601562 25.597656zm0 0"/><path d="m102.402344 119.472656h-51.199219c-9.425781 0-17.066406 7.640625-17.066406 17.066406v51.203126c0 9.425781 7.640625 17.066406 17.066406 17.066406h51.199219c9.425781 0 17.066406-7.640625 17.066406-17.066406v-51.203126c0-9.425781-7.640625-17.066406-17.066406-17.066406zm-51.199219 68.269532v-51.203126h51.199219v51.203126zm0 0"/><path d="m353.558594 125.609375-4.34375 26.625c-.527344 3.226563.835937 6.46875 3.507812 8.347656 2.671875 1.882813 6.183594 2.074219 9.042969.492188l22.238281-12.289063 22.238282 12.289063c2.859374 1.582031 6.371093 1.390625 9.042968-.492188 2.671875-1.878906 4.035156-5.121093 3.507813-8.347656l-4.34375-26.625 18.332031-18.773437c2.234375-2.289063 3-5.636719 1.984375-8.667969-1.015625-3.035157-3.644531-5.246094-6.808594-5.726563l-24.976562-3.816406-11.253907-23.976562c-1.40625-2.992188-4.417968-4.902344-7.722656-4.902344-3.308594 0-6.316406 1.910156-7.722656 4.902344l-11.253906 23.96875-24.980469 3.816406c-3.160156.480468-5.789063 2.691406-6.804687 5.722656-1.015626 3.035156-.25 6.382812 1.984374 8.671875zm18.550781-20.8125c2.808594-.429687 5.222656-2.230469 6.433594-4.804687l5.460937-11.628907 5.460938 11.628907c1.210937 2.574218 3.621094 4.375 6.433594 4.804687l13.066406 2.003906-9.738282 9.976563c-1.890624 1.9375-2.746093 4.660156-2.3125 7.332031l2.203126 13.53125-10.984376-6.074219c-2.570312-1.421875-5.6875-1.421875-8.257812 0l-10.992188 6.074219 2.210938-13.53125c.433594-2.671875-.421875-5.394531-2.3125-7.332031l-9.738281-9.976563zm0 0"/><path d="m273.070312 110.941406h-128c-4.710937 0-8.535156 3.820313-8.535156 8.53125 0 4.714844 3.824219 8.535156 8.535156 8.535156h128c4.710938 0 8.535157-3.820312 8.535157-8.535156 0-4.710937-3.824219-8.53125-8.535157-8.53125zm0 0"/><path d="m145.070312 162.140625h34.132813c4.714844 0 8.535156-3.820313 8.535156-8.535156 0-4.710938-3.820312-8.53125-8.535156-8.53125h-34.132813c-4.710937 0-8.535156 3.820312-8.535156 8.53125 0 4.714843 3.824219 8.535156 8.535156 8.535156zm0 0"/><path d="m247.46875 145.074219h-34.132812c-4.710938 0-8.53125 3.820312-8.53125 8.53125 0 4.714843 3.820312 8.535156 8.53125 8.535156h34.132812c4.714844 0 8.535156-3.820313 8.535156-8.535156 0-4.710938-3.820312-8.53125-8.535156-8.53125zm0 0"/><path d="m204.804688 196.273438h-59.734376c-4.710937 0-8.535156 3.820312-8.535156 8.535156 0 4.710937 3.824219 8.53125 8.535156 8.53125h59.734376c4.710937 0 8.53125-3.820313 8.53125-8.53125 0-4.714844-3.820313-8.535156-8.53125-8.535156zm0 0"/><path d="m273.070312 418.140625h-128c-4.710937 0-8.535156 3.820313-8.535156 8.535156 0 4.710938 3.824219 8.53125 8.535156 8.53125h128c4.710938 0 8.535157-3.820312 8.535157-8.53125 0-4.714843-3.824219-8.535156-8.535157-8.535156zm0 0"/><path d="m179.203125 452.273438h-34.132813c-4.710937 0-8.535156 3.820312-8.535156 8.535156 0 4.710937 3.824219 8.53125 8.535156 8.53125h34.132813c4.714844 0 8.535156-3.820313 8.535156-8.53125 0-4.714844-3.820312-8.535156-8.535156-8.535156zm0 0"/><path d="m247.46875 452.273438h-34.132812c-4.710938 0-8.53125 3.820312-8.53125 8.535156 0 4.710937 3.820312 8.53125 8.53125 8.53125h34.132812c4.714844 0 8.535156-3.820313 8.535156-8.53125 0-4.714844-3.820312-8.535156-8.535156-8.535156zm0 0"/></svg>