<svg height="512pt" viewBox="0 0 512 512" width="512pt" xmlns="http://www.w3.org/2000/svg"><path d="m469.332031 349.867188h-426.664062c-22.546875-.921876-41.609375 16.535156-42.667969 39.074218v114.523438c0 4.714844 3.820312 8.535156 8.535156 8.535156h494.929688c4.714844 0 8.535156-3.820312 8.535156-8.535156v-114.523438c-1.058594-22.539062-20.121094-39.996094-42.667969-39.074218zm-418.132812 145.066406v-42.667969h51.199219v42.667969zm443.734375 0h-375.46875v-42.667969c0-9.425781-7.640625-17.066406-17.066406-17.066406h-51.199219c-9.425781 0-17.066407 7.640625-17.066407 17.066406v42.667969h-17.066406v-105.992188c1.082032-13.101562 12.484375-22.90625 25.601563-22.007812h426.664062c13.117188-.898438 24.519531 8.90625 25.601563 22.007812zm0 0"/><path d="m273.066406 426.667969h-128c-4.710937 0-8.53125 3.820312-8.53125 8.53125 0 4.714843 3.820313 8.535156 8.53125 8.535156h128c4.714844 0 8.535156-3.820313 8.535156-8.535156 0-4.710938-3.820312-8.53125-8.535156-8.53125zm0 0"/><path d="m179.199219 460.800781h-34.132813c-4.710937 0-8.53125 3.820313-8.53125 8.53125 0 4.714844 3.820313 8.535157 8.53125 8.535157h34.132813c4.714843 0 8.535156-3.820313 8.535156-8.535157 0-4.710937-3.820313-8.53125-8.535156-8.53125zm0 0"/><path d="m247.464844 460.800781h-34.132813c-4.710937 0-8.53125 3.820313-8.53125 8.53125 0 4.714844 3.820313 8.535157 8.53125 8.535157h34.132813c4.714844 0 8.535156-3.820313 8.535156-8.535157 0-4.710937-3.820312-8.53125-8.535156-8.53125zm0 0"/><path d="m469.332031 59.734375h-3.847656c-20.53125-35.242187-64.5625-59.734375-115.617187-59.734375-51.054688 0-95.085938 24.492188-115.617188 59.734375h-191.582031c-23.554688.027344-42.6406252 19.113281-42.667969 42.664063v187.734374c.0273438 23.554688 19.113281 42.640626 42.667969 42.667969h426.664062c23.554688-.027343 42.640625-19.113281 42.667969-42.667969v-187.734374c-.027344-23.550782-19.113281-42.636719-42.667969-42.664063zm-119.464843-42.667969c61.167968 0 110.933593 39.046875 110.933593 87.039063 0 47.992187-49.765625 87.042969-110.933593 87.042969h-1.792969c-3.121094-.003907-5.996094 1.703124-7.492188 4.445312-9.675781 18.300781-25.945312 32.242188-45.515625 38.996094 7-14.628906 9.480469-31.007813 7.125-47.054688-.34375-3.046875-2.300781-5.675781-5.121094-6.882812-35.863281-15.328125-58.136718-44.65625-58.136718-76.546875 0-47.992188 49.765625-87.039063 110.933594-87.039063zm145.066406 273.066406c0 14.140626-11.460938 25.601563-25.601563 25.601563h-426.664062c-14.140625 0-25.601563-11.460937-25.601563-25.601563v-187.734374c0-14.136719 11.460938-25.597657 25.601563-25.597657h183.816406c-3.007813 8.792969-4.570313 18.011719-4.617187 27.304688.050781 14.289062 3.582031 28.347656 10.289062 40.960937h-87.089844c-4.710937 0-8.53125 3.820313-8.53125 8.535156 0 4.710938 3.820313 8.53125 8.53125 8.53125h98.441406c11.511719 13.679688 25.90625 24.644532 42.152344 32.101563 2.449219 17.484375-4.238281 35.003906-17.714844 46.40625-2.9375 2.203125-4.136718 6.039063-2.972656 9.523437 1.160156 3.484376 4.421875 5.835938 8.09375 5.835938 32.96875-1.546875 62.980469-19.484375 79.957032-47.785156 69.121093-1.367188 124.84375-47.523438 124.84375-104.109375-.050782-9.148438-1.566407-18.226563-4.488282-26.894531 12.386719 1.980468 21.511719 12.644531 21.554688 25.1875zm0 0"/><path d="m102.398438 153.601562h-51.199219c-9.425781 0-17.066407 7.640626-17.066407 17.066407v51.199219c0 9.425781 7.640626 17.066406 17.066407 17.066406h51.199219c9.425781 0 17.066406-7.640625 17.066406-17.066406v-51.199219c0-9.425781-7.640625-17.066407-17.066406-17.066407zm-51.199219 68.265626v-51.199219h51.199219v51.199219zm0 0"/><path d="m145.066406 196.265625h34.132813c4.714843 0 8.535156-3.820313 8.535156-8.53125 0-4.714844-3.820313-8.535156-8.535156-8.535156h-34.132813c-4.710937 0-8.53125 3.820312-8.53125 8.535156 0 4.710937 3.820313 8.53125 8.53125 8.53125zm0 0"/><path d="m230.398438 179.199219h-17.066407c-4.710937 0-8.53125 3.820312-8.53125 8.535156 0 4.710937 3.820313 8.53125 8.53125 8.53125h17.066407c4.714843 0 8.535156-3.820313 8.535156-8.53125 0-4.714844-3.820313-8.535156-8.535156-8.535156zm0 0"/><path d="m204.800781 230.398438h-59.734375c-4.710937 0-8.53125 3.820312-8.53125 8.535156 0 4.710937 3.820313 8.53125 8.53125 8.53125h59.734375c4.710938 0 8.53125-3.820313 8.53125-8.53125 0-4.714844-3.820312-8.535156-8.53125-8.535156zm0 0"/></svg>