<svg height="511pt" viewBox="-38 0 511 511.94555" width="511pt" xmlns="http://www.w3.org/2000/svg"><path d="m162.027344 315.382812c1.597656 1.601563 3.769531 2.5 6.03125 2.5h.777344c2.527343-.230468 4.820312-1.574218 6.253906-3.667968l105.480468-153.472656c1.285157-1.867188 1.773438-4.164063 1.359376-6.390626-.414063-2.226562-1.695313-4.199218-3.558594-5.480468l-28.160156-19.328125c-1.867188-1.28125-4.167969-1.769531-6.394532-1.355469-2.222656.410156-4.195312 1.691406-5.476562 3.558594l-76.382813 111.171875-29.449219-29.441407c-3.332031-3.328124-8.734374-3.328124-12.066406 0l-24.140625 24.132813c-3.328125 3.332031-3.328125 8.734375 0 12.066406zm-35.550782-83.804687 30.660157 30.660156c1.789062 1.804688 4.296875 2.710938 6.828125 2.464844 2.523437-.230469 4.816406-1.574219 6.253906-3.667969l77.40625-112.589844 14.054688 9.660157-94.808594 137.949219-52.425782-52.410157zm0 0"/><path d="m358.871094 266.804688v-207.027344c0-14.140625-11.460938-25.601563-25.597656-25.601563h-111.789063c-4.035156-19.886719-21.519531-34.175781-41.8125-34.175781-20.289063 0-37.773437 14.289062-41.8125 34.175781h-111.785156c-14.140625 0-25.601563 11.460938-25.601563 25.601563v384c0 14.136718 11.460938 25.597656 25.601563 25.597656h186.460937c34.890625 38.957031 89.988282 52.746094 139.117188 34.8125s82.386718-63.972656 83.976562-116.246094c1.589844-52.277344-28.808594-100.253906-76.757812-121.136718zm-17.066406-207.027344v201.027344c-5.601563-1.550782-11.304688-2.714844-17.066407-3.492188v-180.46875c0-4.714844-3.820312-8.535156-8.53125-8.535156h-51.199219v-17.066406h68.265626c4.710937 0 8.53125 3.820312 8.53125 8.535156zm25.601562 332.796875h16.5625c-4.027344 35.625-32.140625 63.734375-67.761719 67.765625v-16.5625c0-4.714844-3.820312-8.535156-8.535156-8.535156-4.710937 0-8.53125 3.820312-8.53125 8.535156v16.5625c-35.625-4.03125-63.734375-32.140625-67.765625-67.765625h76.296875c4.714844 0 8.535156-3.820313 8.535156-8.53125v-76.296875c35.621094 4.03125 63.734375 32.140625 67.761719 67.761718h-16.5625c-4.714844 0-8.535156 3.820313-8.535156 8.535157 0 4.710937 3.820312 8.53125 8.535156 8.53125zm-271.496094-307.199219c3.601563 10.191406 13.21875 17.023438 24.027344 17.066406h119.46875c10.808594-.042968 20.425781-6.875 24.03125-17.066406h44.234375v170.667969c-40.015625-.125-77.769531 18.527343-101.984375 50.382812-24.214844 31.859375-32.082031 73.230469-21.253906 111.75h-132.761719v-332.800781zm203.230469 188.167969v101.964843h-101.964844c4.25-54.453124 47.507813-97.710937 101.964844-101.964843zm-119.46875-256.433594c10.8125.042969 20.425781 6.875 24.03125 17.066406h-48.058594c3.601563-10.191406 13.21875-17.023437 24.027344-17.066406zm68.265625 34.132813v25.601562c0 4.710938-3.820312 8.53125-8.53125 8.53125h-119.46875c-4.710938 0-8.53125-3.820312-8.53125-8.53125v-25.601562zm-221.863281 401.066406c-4.714844 0-8.535157-3.820313-8.535157-8.53125v-384c0-4.714844 3.820313-8.535156 8.535157-8.535156h68.265625v17.066406h-51.199219c-4.714844 0-8.535156 3.820312-8.535156 8.535156v349.867188c0 4.710937 3.820312 8.53125 8.535156 8.53125h147.292969c2.613281 5.914062 5.671875 11.617187 9.148437 17.066406zm281.597656 42.667968c-57.902344-.09375-106.007813-44.671874-110.496094-102.402343h17.066407c4.484374 49.441406 46.691406 86.839843 96.3125 85.34375 49.621093-1.496094 89.496093-41.371094 90.992187-90.992188 1.5-49.621093-35.902344-91.828125-85.339844-96.316406v-17.066406c59.378907 4.613281 104.507813 55.308593 102.214844 114.820312-2.292969 59.515625-51.191406 106.585938-110.75 106.613281zm0 0"/></svg>