<svg height="512pt" viewBox="-94 0 512 512" width="512pt" xmlns="http://www.w3.org/2000/svg"><path d="m281.601562 0h-238.933593c-23.554688.0273438-42.6406252 19.113281-42.667969 42.667969v426.664062c.0273438 23.554688 19.113281 42.640625 42.667969 42.667969h238.933593c23.550782-.027344 42.636719-19.113281 42.664063-42.667969v-426.664062c-.027344-23.554688-19.113281-42.6406252-42.664063-42.667969zm-85.335937 341.332031h-179.199219v-119.464843h290.132813v119.464843zm-20.597656 17.066407-13.535157 13.535156-13.535156-13.535156zm-158.601563-153.597657v-119.46875h290.132813v119.46875zm0 153.597657h107.402344l31.632812 31.632812c3.332032 3.332031 8.734376 3.332031 12.066407 0l31.632812-31.632812h107.398438v51.203124h-290.132813zm25.601563-341.332032h238.933593c14.136719 0 25.597657 11.460938 25.597657 25.601563v25.597656h-290.132813v-25.597656c0-14.140625 11.460938-25.601563 25.601563-25.601563zm238.933593 477.867188h-238.933593c-14.140625 0-25.601563-11.460938-25.601563-25.601563v-42.664062h290.132813v42.664062c0 14.140625-11.460938 25.601563-25.597657 25.601563zm0 0"/><path d="m145.066406 51.199219h34.132813c4.714843 0 8.535156-3.820313 8.535156-8.53125 0-4.714844-3.820313-8.535157-8.535156-8.535157h-34.132813c-4.710937 0-8.53125 3.820313-8.53125 8.535157 0 4.710937 3.820313 8.53125 8.53125 8.53125zm0 0"/><path d="m241.40625 48.726562c.832031.75 1.785156 1.359376 2.816406 1.789063 2.066406.914063 4.421875.914063 6.488282 0 1.03125-.429687 1.984374-1.039063 2.8125-1.789063.753906-.832031 1.359374-1.785156 1.792968-2.816406.4375-1.027344.671875-2.128906.683594-3.242187 0-4.714844-3.820312-8.535157-8.535156-8.535157-4.710938 0-8.53125 3.820313-8.53125 8.535157.011718 1.113281.246094 2.214843.683594 3.242187.433593 1.03125 1.039062 1.984375 1.789062 2.816406zm0 0"/><path d="m275.542969 48.726562c.828125.75 1.78125 1.359376 2.8125 1.789063 2.066406.914063 4.421875.914063 6.488281 0 1.03125-.429687 1.984375-1.039063 2.816406-1.789063.75-.832031 1.355469-1.785156 1.789063-2.816406.4375-1.027344.671875-2.128906.683593-3.242187 0-4.714844-3.820312-8.535157-8.53125-8.535157-4.714843 0-8.535156 3.820313-8.535156 8.535157.015625 1.113281.246094 2.214843.683594 3.242187.433594 1.03125 1.039062 1.984375 1.792969 2.816406zm0 0"/><path d="m162.132812 435.199219c-14.136718 0-25.597656 11.460937-25.597656 25.601562 0 14.136719 11.460938 25.597657 25.597656 25.597657 14.140626 0 25.601563-11.460938 25.601563-25.597657 0-14.140625-11.460937-25.601562-25.601563-25.601562zm0 34.132812c-4.710937 0-8.53125-3.820312-8.53125-8.53125 0-4.714843 3.820313-8.535156 8.53125-8.535156 4.714844 0 8.535157 3.820313 8.535157 8.535156 0 4.710938-3.820313 8.53125-8.535157 8.53125zm0 0"/><path d="m110.933594 153.601562c-4.714844 0-8.535156 3.820313-8.535156 8.53125v8.535157h-51.199219v-51.203125h8.535156c4.710937 0 8.53125-3.820313 8.53125-8.53125 0-4.714844-3.820313-8.535156-8.53125-8.535156h-8.535156c-9.425781 0-17.066407 7.640624-17.066407 17.066406v51.203125c0 9.425781 7.640626 17.066406 17.066407 17.066406h51.199219c9.425781 0 17.066406-7.640625 17.066406-17.066406v-8.535157c0-4.710937-3.820313-8.53125-8.53125-8.53125zm0 0"/><path d="m62.234375 139.035156c-3.332031 3.332032-3.332031 8.730469 0 12.066406l8.53125 8.53125c1.597656 1.605469 3.769531 2.507813 6.035156 2.5h.476563c2.421875-.132812 4.671875-1.289062 6.1875-3.183593l34.132812-42.664063c2.945313-3.683594 2.351563-9.054687-1.332031-12-3.679687-2.945312-9.050781-2.347656-11.996094 1.332032l-28.160156 35.226562-1.792969-1.792969c-1.597656-1.605469-3.769531-2.511719-6.039062-2.515625-2.265625-.003906-4.441406.894532-6.042969 2.5zm0 0"/><path d="m145.066406 119.464844h17.066406c4.714844 0 8.535157-3.820313 8.535157-8.53125 0-4.714844-3.820313-8.535156-8.535157-8.535156h-17.066406c-4.710937 0-8.53125 3.820312-8.53125 8.535156 0 4.710937 3.820313 8.53125 8.53125 8.53125zm0 0"/><path d="m196.265625 119.464844h85.335937c4.710938 0 8.53125-3.820313 8.53125-8.53125 0-4.714844-3.820312-8.535156-8.53125-8.535156h-85.335937c-4.710937 0-8.53125 3.820312-8.53125 8.535156 0 4.710937 3.820313 8.53125 8.53125 8.53125zm0 0"/><path d="m162.132812 170.667969h-17.066406c-4.710937 0-8.53125 3.820312-8.53125 8.53125 0 4.714843 3.820313 8.535156 8.53125 8.535156h17.066406c4.714844 0 8.535157-3.820313 8.535157-8.535156 0-4.710938-3.820313-8.53125-8.535157-8.53125zm0 0"/><path d="m281.601562 170.667969h-85.335937c-4.710937 0-8.53125 3.820312-8.53125 8.53125 0 4.714843 3.820313 8.535156 8.53125 8.535156h85.335937c4.710938 0 8.53125-3.820313 8.53125-8.535156 0-4.710938-3.820312-8.53125-8.53125-8.53125zm0 0"/><path d="m281.601562 136.535156h-136.535156c-4.710937 0-8.53125 3.820313-8.53125 8.53125 0 4.714844 3.820313 8.535156 8.53125 8.535156h136.535156c4.710938 0 8.53125-3.820312 8.53125-8.535156 0-4.710937-3.820312-8.53125-8.53125-8.53125zm0 0"/><path d="m110.933594 290.132812c-4.714844 0-8.535156 3.820313-8.535156 8.535157v8.53125h-51.199219v-51.199219h8.535156c4.710937 0 8.53125-3.820312 8.53125-8.535156 0-4.710938-3.820313-8.53125-8.53125-8.53125h-8.535156c-9.425781 0-17.066407 7.640625-17.066407 17.066406v51.199219c0 9.425781 7.640626 17.066406 17.066407 17.066406h51.199219c9.425781 0 17.066406-7.640625 17.066406-17.066406v-8.53125c0-4.714844-3.820313-8.535157-8.53125-8.535157zm0 0"/><path d="m62.234375 275.566406c-3.332031 3.332032-3.332031 8.734375 0 12.066406l8.53125 8.535157c1.597656 1.605469 3.769531 2.503906 6.035156 2.5h.476563c2.421875-.136719 4.671875-1.292969 6.1875-3.183594l34.132812-42.667969c1.90625-2.378906 2.394532-5.597656 1.285156-8.4375-1.109374-2.839844-3.648437-4.875-6.664062-5.332031-3.011719-.460937-6.042969.722656-7.949219 3.105469l-28.160156 35.222656-1.792969-1.789062c-1.597656-1.609376-3.769531-2.515626-6.039062-2.515626-2.265625-.003906-4.441406.894532-6.042969 2.496094zm0 0"/><path d="m145.066406 256h17.066406c4.714844 0 8.535157-3.820312 8.535157-8.535156 0-4.710938-3.820313-8.53125-8.535157-8.53125h-17.066406c-4.710937 0-8.53125 3.820312-8.53125 8.53125 0 4.714844 3.820313 8.535156 8.53125 8.535156zm0 0"/><path d="m196.265625 256h85.335937c4.710938 0 8.53125-3.820312 8.53125-8.535156 0-4.710938-3.820312-8.53125-8.53125-8.53125h-85.335937c-4.710937 0-8.53125 3.820312-8.53125 8.53125 0 4.714844 3.820313 8.535156 8.53125 8.535156zm0 0"/><path d="m162.132812 307.199219h-17.066406c-4.710937 0-8.53125 3.820312-8.53125 8.535156 0 4.710937 3.820313 8.53125 8.53125 8.53125h17.066406c4.714844 0 8.535157-3.820313 8.535157-8.53125 0-4.714844-3.820313-8.535156-8.535157-8.535156zm0 0"/><path d="m281.601562 307.199219h-85.335937c-4.710937 0-8.53125 3.820312-8.53125 8.535156 0 4.710937 3.820313 8.53125 8.53125 8.53125h85.335937c4.710938 0 8.53125-3.820313 8.53125-8.53125 0-4.714844-3.820312-8.535156-8.53125-8.535156zm0 0"/><path d="m281.601562 273.066406h-136.535156c-4.710937 0-8.53125 3.820313-8.53125 8.535156 0 4.710938 3.820313 8.53125 8.53125 8.53125h136.535156c4.710938 0 8.53125-3.820312 8.53125-8.53125 0-4.714843-3.820312-8.535156-8.53125-8.535156zm0 0"/></svg>