<svg height="512pt" viewBox="-85 0 512 512.04277" width="512pt" xmlns="http://www.w3.org/2000/svg"><path d="m315.753906 34.175781h-103.253906c-4.035156-19.886719-21.519531-34.175781-41.8125-34.175781-20.289062 0-37.773438 14.289062-41.8125 34.175781h-103.253906c-14.136719 0-25.6015628 11.460938-25.6015628 25.601563v426.664062c0 14.140625 11.4648438 25.601563 25.6015628 25.601563h290.132812c14.140625 0 25.601563-11.460938 25.601563-25.601563v-426.664062c0-14.140625-11.460938-25.601563-25.601563-25.601563zm-228.828125 51.199219c3.601563 10.191406 13.21875 17.023438 24.027344 17.066406h119.46875c10.808594-.042968 20.425781-6.875 24.03125-17.066406h35.703125v375.46875h-238.933594v-375.46875zm83.761719-68.265625c10.808594.042969 20.425781 6.875 24.03125 17.066406h-48.0625c3.605469-10.191406 13.222656-17.023437 24.03125-17.066406zm68.265625 34.132813v25.601562c0 4.710938-3.820313 8.53125-8.53125 8.53125h-119.46875c-4.710937 0-8.53125-3.820312-8.53125-8.53125v-25.601562zm85.335937 435.199218c0 4.714844-3.820312 8.535156-8.535156 8.535156h-290.132812c-4.710938 0-8.53125-3.820312-8.53125-8.535156v-426.664062c0-4.714844 3.820312-8.535156 8.53125-8.535156h59.734375v17.066406h-42.667969c-4.710938 0-8.53125 3.820312-8.53125 8.535156v392.53125c0 4.714844 3.820312 8.535156 8.53125 8.535156h256c4.714844 0 8.535156-3.820312 8.535156-8.535156v-392.53125c0-4.714844-3.820312-8.535156-8.535156-8.535156h-42.667969v-17.066406h59.734375c4.714844 0 8.535156 3.820312 8.535156 8.535156zm0 0"/><path d="m76.820312 401.109375h25.601563c4.710937 0 8.53125-3.820313 8.53125-8.535156 0-4.710938-3.820313-8.53125-8.53125-8.53125h-25.601563c-4.710937 0-8.53125 3.820312-8.53125 8.53125 0 4.714843 3.820313 8.535156 8.53125 8.535156zm0 0"/><path d="m264.554688 384.042969h-128c-4.710938 0-8.535157 3.820312-8.535157 8.53125 0 4.714843 3.824219 8.535156 8.535157 8.535156h128c4.710937 0 8.535156-3.820313 8.535156-8.535156 0-4.710938-3.824219-8.53125-8.535156-8.53125zm0 0"/><path d="m264.554688 418.175781h-25.601563c-4.710937 0-8.53125 3.820313-8.53125 8.535157 0 4.710937 3.820313 8.53125 8.53125 8.53125h25.601563c4.710937 0 8.535156-3.820313 8.535156-8.53125 0-4.714844-3.824219-8.535157-8.535156-8.535157zm0 0"/><path d="m76.820312 435.242188h128c4.714844 0 8.535157-3.820313 8.535157-8.53125 0-4.714844-3.820313-8.535157-8.535157-8.535157h-128c-4.710937 0-8.53125 3.820313-8.53125 8.535157 0 4.710937 3.820313 8.53125 8.53125 8.53125zm0 0"/><path d="m76.820312 136.574219h25.601563c4.710937 0 8.53125-3.820313 8.53125-8.53125 0-4.714844-3.820313-8.535157-8.53125-8.535157h-25.601563c-4.710937 0-8.53125 3.820313-8.53125 8.535157 0 4.710937 3.820313 8.53125 8.53125 8.53125zm0 0"/><path d="m136.554688 136.574219h128c4.710937 0 8.535156-3.820313 8.535156-8.53125 0-4.714844-3.824219-8.535157-8.535156-8.535157h-128c-4.710938 0-8.535157 3.820313-8.535157 8.535157 0 4.710937 3.824219 8.53125 8.535157 8.53125zm0 0"/><path d="m83.195312 196.558594c-3.332031 3.332031-3.332031 8.730468 0 12.0625l51.292969 51.296875-51.292969 51.292969c-3.332031 3.332031-3.332031 8.734374 0 12.066406l24.132813 24.132812c3.332031 3.332032 8.734375 3.332032 12.066406 0l51.292969-51.261718 51.292969 51.292968c3.332031 3.332032 8.734375 3.332032 12.066406 0l24.132813-24.128906c3.332031-3.332031 3.332031-8.734375 0-12.066406l-51.292969-51.296875 51.292969-51.292969c3.332031-3.332031 3.332031-8.734375 0-12.066406l-24.132813-24.171875c-3.332031-3.332031-8.734375-3.332031-12.066406 0l-51.292969 51.300781-51.292969-51.300781c-3.332031-3.332031-8.734375-3.332031-12.066406 0zm81.460938 45.226562c3.332031 3.328125 8.734375 3.328125 12.066406 0l51.292969-51.296875 12.066406 12.066407-51.292969 51.296874c-3.332031 3.332032-3.332031 8.730469 0 12.0625l51.292969 51.296876-12.066406 12.066406-51.292969-51.296875c-3.332031-3.328125-8.734375-3.328125-12.066406 0l-51.296875 51.296875-12.0625-12.066406 51.292969-51.296876c3.332031-3.332031 3.332031-8.730468 0-12.0625l-51.292969-51.296874 12.0625-12.066407zm0 0"/></svg>