<svg height="512pt" viewBox="-68 0 512 512.04277" width="512pt" xmlns="http://www.w3.org/2000/svg"><path d="m349.886719 34.175781h-120.320313c-4.035156-19.886719-21.519531-34.175781-41.8125-34.175781-20.289062 0-37.773437 14.289062-41.8125 34.175781h-120.320312c-14.136719 0-25.6015628 11.460938-25.6015628 25.601563v426.664062c0 14.140625 11.4648438 25.601563 25.6015628 25.601563h324.265625c14.140625 0 25.601562-11.460938 25.601562-25.601563v-426.664062c0-14.140625-11.460937-25.601563-25.601562-25.601563zm-245.894531 51.199219c3.601562 10.191406 13.21875 17.023438 24.027343 17.066406h119.46875c10.808594-.042968 20.425781-6.875 24.03125-17.066406h52.769531v375.46875h-273.066406v-375.46875zm83.761718-68.265625c10.8125.042969 20.425782 6.875 24.03125 17.066406h-48.058594c3.601563-10.191406 13.21875-17.023437 24.027344-17.066406zm68.265625 34.132813v25.601562c0 4.710938-3.820312 8.53125-8.53125 8.53125h-119.46875c-4.710937 0-8.53125-3.820312-8.53125-8.53125v-25.601562zm102.402344 435.199218c0 4.714844-3.820313 8.535156-8.535156 8.535156h-324.265625c-4.710938 0-8.53125-3.820312-8.53125-8.535156v-426.664062c0-4.714844 3.820312-8.535156 8.53125-8.535156h76.800781v17.066406h-59.734375c-4.710938 0-8.53125 3.820312-8.53125 8.535156v392.53125c0 4.714844 3.820312 8.535156 8.53125 8.535156h290.132812c4.714844 0 8.535157-3.820312 8.535157-8.535156v-392.53125c0-4.714844-3.820313-8.535156-8.535157-8.535156h-59.730468v-17.066406h76.796875c4.714843 0 8.535156 3.820312 8.535156 8.535156zm0 0"/><path d="m112.449219 262.339844c5.21875 26.640625 24.117187 48.546875 49.707031 57.617187v29.953125c0 .1875-.1875 19.625-16.453125 24.386719-10.597656 3.347656-17.769531 13.21875-17.683594 24.328125v11.019531c0 4.710938 3.824219 8.53125 8.535157 8.53125h102.398437c4.714844 0 8.535156-3.820312 8.535156-8.53125v-11.019531c.089844-11.109375-7.085937-20.980469-17.679687-24.328125-16.042969-4.761719-16.453125-23.628906-16.453125-24.386719v-29.953125c1.9375-.683593 3.839843-1.441406 5.691406-2.269531.570313-.257812 1.117187-.5625 1.707031-.851562 1.296875-.617188 2.558594-1.230469 3.839844-1.914063.734375-.398437 1.433594-.851563 2.140625-1.269531 1.050781-.617188 2.089844-1.222656 3.105469-1.878906.742187-.496094 1.460937-1.023438 2.1875-1.535157.929687-.65625 1.867187-1.304687 2.761718-2.003906.726563-.566406 1.417969-1.152344 2.117188-1.707031.855469-.710938 1.707031-1.417969 2.558594-2.160156.683594-.625 1.339844-1.273438 2-1.921876.785156-.757812 1.558594-1.527343 2.3125-2.328124.628906-.675782 1.246094-1.375 1.851562-2.074219.605469-.699219 1.414063-1.636719 2.097656-2.492188.582032-.722656 1.144532-1.457031 1.707032-2.207031.5625-.753906 1.273437-1.707031 1.886718-2.648438.613282-.9375 1.03125-1.542968 1.527344-2.335937.578125-.921875 1.132813-1.859375 1.707032-2.816406.453124-.800781.851562-1.597657 1.320312-2.414063.523438-.984375 1-1.988281 1.476562-2.996094.386719-.855468.769532-1.648437 1.128907-2.484374.441406-1.03125.851562-2.089844 1.246093-3.15625.3125-.855469.636719-1.707032.929688-2.558594.367188-1.109375.679688-2.230469 1.003906-3.355469.242188-.851563.496094-1.707031.710938-2.558594.296875-1.195312.527344-2.417969.765625-3.628906v-.101563c25.558593-10.292968 41.285156-32.546874 44.222656-63.453124.699219-7.207032-1.679687-14.375-6.546875-19.730469-4.871094-5.359375-11.78125-8.410157-19.019531-8.394531h-17.238281v-17.066407c0-9.425781-7.640626-17.070312-17.066407-17.070312h-119.46875c-9.421875 0-17.066406 7.644531-17.066406 17.070312v17.066407h-17.234375c-7.234375.007812-14.128906 3.070312-18.984375 8.433593-4.851563 5.363281-7.214844 12.527344-6.507813 19.726563 2.9375 30.921875 18.664063 53.179687 44.222657 63.46875zm169.34375-74.5625c2.394531-.015625 4.683593.996094 6.289062 2.773437 1.660157 1.820313 2.464844 4.261719 2.21875 6.714844-.761719 18.394531-10.347656 35.296875-25.746093 45.386719v-54.875zm-153.773438-34.132813h119.46875v93.863281c.011719 27.25-18.417969 51.054688-44.800781 57.867188-1.019531.277344-1.976562.742188-2.824219 1.371094-.253906.214844-.5.441406-.726562.683594-.511719.453124-.96875.964843-1.355469 1.527343-.199219.320313-.378906.65625-.539062 1-.277344.566407-.488282 1.164063-.628907 1.78125-.105469.394531-.171875.796875-.207031 1.203125-.050781.234375-.089844.464844-.117188.703125v36.265625c-.242187 18.347656 11.3125 34.777344 28.664063 40.753906 3.371094 1.167969 5.585937 4.394532 5.46875 7.960938v2.484375h-85.332031v-2.484375c-.121094-3.566406 2.097656-6.792969 5.46875-7.960938 17.347656-5.976562 28.90625-22.40625 28.664062-40.753906v-36.265625c0-3.894531-2.632812-7.296875-6.402344-8.269531-26.382812-6.8125-44.8125-30.617188-44.800781-57.867188zm-40.589843 36.90625c1.605468-1.777343 3.890624-2.789062 6.289062-2.773437h17.234375v54.875c-15.398437-10.089844-24.984375-26.992188-25.742187-45.386719-.25-2.453125.558593-4.894531 2.21875-6.714844zm0 0"/></svg>