<svg xmlns="http://www.w3.org/2000/svg" width="1024" height="1024" viewBox="0 0 1024 1024" fill="none">
<path d="M 809 1023 L 808 1022 L 804 1023 Z" fill="currentColor" fill-rule="evenodd"/>
<path d="M 862 1019 L 857 1019 L 852 1021 L 848 1021 L 846 1023 L 854 1023 Z" fill="currentColor" fill-rule="evenodd"/>
<path d="M 245 1016 L 249 1018 L 276 1018 L 277 1019 L 295 1019 L 296 1020 L 339 1021 L 338 1019 L 328 1019 L 327 1018 L 306 1018 L 305 1017 L 304 1018 L 303 1017 L 259 1016 L 258 1015 L 246 1015 Z" fill="currentColor" fill-rule="evenodd"/>
<path d="M 0 1007 L 0 1009 L 39 1010 L 39 1009 L 34 1009 L 33 1008 L 15 1008 L 14 1007 L 12 1008 L 11 1007 Z" fill="currentColor" fill-rule="evenodd"/>
<path d="M 967 1007 L 967 1008 L 969 1009 L 974 1009 L 975 1008 L 1023 1009 L 1023 1007 L 992 1007 L 991 1006 L 969 1006 Z" fill="currentColor" fill-rule="evenodd"/>
<path d="M 112 1021 L 112 1023 L 119 1023 L 119 1021 L 115 1018 L 118 1010 L 125 1003 L 131 1002 L 132 1003 L 136 1003 L 142 1009 L 144 1013 L 145 1023 L 148 1023 L 148 1020 L 147 1019 L 147 1012 L 145 1008 L 146 1006 L 152 1009 L 156 1013 L 159 1019 L 159 1023 L 161 1023 L 159 1015 L 157 1011 L 153 1007 L 149 1005 L 142 1004 L 136 1000 L 125 1000 L 121 1002 L 117 1006 L 114 1011 L 113 1020 Z" fill="currentColor" fill-rule="evenodd"/>
<path d="M 858 996 L 856 996 L 852 998 L 849 998 L 843 1001 L 840 1001 L 839 1002 L 831 1004 L 823 1008 L 815 1010 L 812 1012 L 807 1013 L 804 1015 L 802 1015 L 786 1021 L 780 1021 L 775 1023 L 788 1023 L 791 1021 L 799 1019 L 802 1017 L 808 1016 L 811 1014 L 819 1012 L 824 1009 L 829 1008 L 832 1006 L 835 1006 L 848 1000 L 851 1000 L 853 998 L 855 998 Z" fill="currentColor" fill-rule="evenodd"/>
<path d="M 331 981 L 328 981 L 327 980 L 326 981 L 323 981 L 319 984 L 319 985 L 321 984 L 329 984 L 332 988 L 331 991 L 326 995 L 325 994 L 323 994 L 318 988 L 318 992 L 321 996 L 323 997 L 329 997 L 334 993 L 335 991 L 335 986 Z" fill="currentColor" fill-rule="evenodd"/>
<path d="M 288 978 L 283 982 L 282 984 L 282 990 L 286 995 L 293 996 L 298 993 L 300 986 L 297 980 L 294 978 Z M 289 981 L 293 981 L 295 982 L 297 985 L 297 988 L 293 993 L 288 993 L 285 990 L 285 984 Z" fill="currentColor" fill-rule="evenodd"/>
<path d="M 259 977 L 255 977 L 253 978 L 249 983 L 249 990 L 251 993 L 255 995 L 263 993 L 266 988 L 266 985 L 264 980 Z M 257 980 L 261 981 L 263 984 L 263 988 L 262 990 L 259 992 L 255 992 L 251 988 L 251 984 L 254 981 L 256 981 Z" fill="currentColor" fill-rule="evenodd"/>
<path d="M 594 1023 L 565 968 L 560 964 L 550 963 L 541 956 L 526 957 L 492 965 L 436 983 L 423 991 L 420 998 L 422 1007 L 414 1014 L 412 1023 L 415 1023 L 417 1017 L 422 1012 L 431 1008 L 445 1008 L 451 1014 L 450 1023 L 455 1023 L 455 1015 L 451 1007 L 445 1004 L 428 1006 L 424 1004 L 423 997 L 431 988 L 487 969 L 529 959 L 541 959 L 548 966 L 565 1004 L 576 1021 L 581 1023 L 559 985 L 551 967 L 554 965 L 558 966 L 566 974 L 590 1022 Z" fill="currentColor" fill-rule="evenodd"/>
<path d="M 647 958 L 646 969 L 658 1010 L 660 1022 L 665 1023 L 651 975 L 649 962 L 655 960 L 680 958 L 683 962 L 684 967 L 681 969 L 673 970 L 672 972 L 677 973 L 684 971 L 686 975 L 684 977 L 678 978 L 679 981 L 686 980 L 688 987 L 686 989 L 677 990 L 675 993 L 682 993 L 687 991 L 690 993 L 691 1001 L 681 1004 L 681 1006 L 686 1007 L 691 1005 L 693 1015 L 682 1017 L 679 1019 L 679 1021 L 684 1022 L 693 1019 L 695 1023 L 699 1023 L 689 969 L 685 956 L 676 955 L 651 959 Z" fill="currentColor" fill-rule="evenodd"/>
<path d="M 0 963 L 0 966 L 20 967 L 22 972 L 22 979 L 23 980 L 23 983 L 24 985 L 27 987 L 40 987 L 45 985 L 50 979 L 51 980 L 57 980 L 59 982 L 59 991 L 58 992 L 59 994 L 59 996 L 58 997 L 58 1003 L 59 1004 L 58 1006 L 58 1009 L 59 1010 L 58 1017 L 59 1018 L 58 1019 L 59 1020 L 58 1021 L 58 1023 L 62 1023 L 62 999 L 61 998 L 61 996 L 62 995 L 61 994 L 62 993 L 61 992 L 61 976 L 62 975 L 62 969 L 61 968 L 61 966 L 57 962 L 51 961 L 50 960 L 46 960 L 41 958 L 32 957 L 27 955 L 20 955 L 19 956 L 19 961 L 20 962 L 19 964 L 1 964 Z M 22 959 L 23 958 L 30 958 L 31 959 L 45 961 L 49 963 L 53 963 L 59 968 L 59 975 L 56 978 L 52 978 L 50 977 L 48 974 L 47 974 L 46 980 L 44 982 L 40 984 L 35 984 L 34 985 L 29 984 L 26 981 L 26 979 L 25 978 L 24 968 L 23 967 L 23 961 Z" fill="currentColor" fill-rule="evenodd"/>
<path d="M 890 1023 L 874 973 L 866 955 L 862 953 L 816 963 L 762 979 L 758 979 L 752 975 L 747 975 L 744 985 L 746 995 L 745 999 L 737 992 L 731 990 L 741 1022 L 745 1023 L 738 1005 L 737 998 L 739 997 L 750 1008 L 751 1001 L 747 988 L 802 970 L 851 958 L 862 957 L 870 971 L 886 1022 Z M 736 997 L 737 996 L 738 997 L 737 998 Z M 748 982 L 748 979 L 749 978 L 751 978 L 754 980 L 752 982 L 750 982 L 749 983 Z" fill="currentColor" fill-rule="evenodd"/>
<path d="M 228 957 L 227 1023 L 230 1023 L 230 979 L 238 975 L 240 972 L 238 968 L 231 965 L 232 958 L 304 962 L 336 966 L 352 970 L 355 973 L 355 1021 L 356 1023 L 359 1023 L 359 974 L 356 968 L 347 965 L 317 961 L 254 957 L 252 949 L 241 950 L 231 954 Z M 229 969 L 230 968 L 232 968 L 235 970 L 236 972 L 234 974 L 230 975 L 229 974 Z M 250 952 L 250 955 L 249 956 L 238 956 L 237 955 L 243 952 L 247 952 L 248 951 Z" fill="currentColor" fill-rule="evenodd"/>
<path d="M 1000 934 L 1000 936 L 1001 937 L 1014 937 L 1014 935 L 1013 934 L 1006 934 L 1005 933 L 1001 933 Z" fill="currentColor" fill-rule="evenodd"/>
<path d="M 968 933 L 969 935 L 973 935 L 976 933 L 977 933 L 979 936 L 983 936 L 985 935 L 985 933 L 982 931 L 979 931 L 977 933 L 976 932 L 971 931 Z" fill="currentColor" fill-rule="evenodd"/>
<path d="M 1023 928 L 1011 928 L 982 924 L 966 924 L 961 928 L 956 943 L 952 970 L 950 975 L 946 1002 L 945 1023 L 948 1023 L 949 1021 L 952 985 L 960 942 L 963 942 L 965 944 L 963 962 L 1023 966 L 1023 944 L 963 939 L 960 937 L 962 931 L 970 926 L 1004 928 L 1013 930 L 1023 930 Z M 1000 945 L 1001 944 L 1004 944 L 1005 945 L 1016 945 L 1017 946 L 1022 946 L 1023 947 L 1023 949 L 1021 954 L 1020 963 L 1019 964 L 1018 963 L 1017 964 L 1015 963 L 999 963 L 998 962 L 998 955 L 999 954 Z M 989 943 L 993 943 L 998 945 L 998 948 L 997 949 L 997 958 L 995 962 L 987 962 L 986 961 L 987 950 L 988 949 L 988 944 Z M 970 941 L 971 942 L 983 942 L 987 944 L 986 945 L 985 955 L 984 956 L 984 961 L 983 962 L 981 961 L 966 961 L 965 960 L 965 957 L 966 956 L 966 953 L 968 948 L 968 943 Z" fill="currentColor" fill-rule="evenodd"/>
<path d="M 17 925 L 15 925 L 14 924 L 9 924 L 4 926 L 0 929 L 0 930 L 1 930 L 2 929 L 4 929 L 6 927 L 13 926 L 14 927 L 16 927 L 18 930 L 18 932 L 14 936 L 10 938 L 6 943 L 2 945 L 0 945 L 0 958 L 2 947 L 4 945 L 7 944 L 12 939 L 17 937 L 20 933 L 20 928 Z" fill="currentColor" fill-rule="evenodd"/>
<path d="M 185 910 L 180 910 L 179 911 L 174 912 L 171 914 L 169 914 L 166 916 L 164 916 L 161 918 L 151 921 L 148 923 L 145 923 L 140 926 L 138 926 L 135 928 L 130 929 L 127 931 L 125 931 L 122 933 L 120 933 L 117 935 L 108 938 L 107 940 L 110 940 L 111 939 L 116 938 L 119 936 L 135 931 L 140 928 L 148 926 L 156 922 L 172 917 L 175 915 L 177 915 L 180 913 L 184 912 Z" fill="currentColor" fill-rule="evenodd"/>
<path d="M 259 909 L 262 913 L 273 918 L 273 917 L 270 915 L 270 913 L 269 912 L 267 912 L 262 909 Z" fill="currentColor" fill-rule="evenodd"/>
<path d="M 343 908 L 343 913 L 346 919 L 344 923 L 341 926 L 341 928 L 353 928 L 357 930 L 363 930 L 366 925 L 368 926 L 372 926 L 372 925 L 367 921 L 369 919 L 371 919 L 372 917 L 364 917 L 363 915 L 365 914 L 365 912 L 363 911 L 349 912 L 347 911 L 345 908 Z M 363 921 L 365 923 L 363 926 L 361 924 Z M 363 917 L 364 918 L 364 920 L 363 921 L 362 920 L 362 918 Z M 346 915 L 347 914 L 360 914 L 361 915 L 361 918 L 360 919 L 360 926 L 359 927 L 345 926 L 344 925 L 346 923 Z" fill="currentColor" fill-rule="evenodd"/>
<path d="M 825 902 L 825 903 L 828 903 L 829 904 L 862 905 L 863 906 L 878 906 L 879 907 L 890 907 L 891 908 L 900 908 L 901 909 L 916 910 L 916 908 L 914 907 L 908 907 L 907 906 L 880 905 L 879 904 L 865 904 L 864 903 L 856 903 L 855 902 L 840 902 L 839 901 L 827 901 Z" fill="currentColor" fill-rule="evenodd"/>
<path d="M 258 897 L 254 897 L 250 902 L 250 906 L 251 908 L 254 910 L 256 910 L 252 906 L 252 902 L 254 899 L 258 899 L 262 901 L 262 900 Z" fill="currentColor" fill-rule="evenodd"/>
<path d="M 566 897 L 564 900 L 564 903 L 565 904 L 565 906 L 572 915 L 570 919 L 570 922 L 574 928 L 579 933 L 582 934 L 590 944 L 593 944 L 595 939 L 599 941 L 603 941 L 606 938 L 606 933 L 600 925 L 601 923 L 600 919 L 598 917 L 595 911 L 592 908 L 589 908 L 582 898 L 581 895 L 576 892 L 574 892 L 572 896 L 568 896 Z M 587 937 L 588 936 L 590 936 L 592 938 L 592 941 L 591 942 Z M 600 930 L 602 931 L 604 935 L 601 939 L 595 935 Z M 599 923 L 598 925 L 598 929 L 594 934 L 592 934 L 589 936 L 587 936 L 584 934 L 575 924 L 577 923 L 583 930 L 586 930 L 587 931 L 592 929 L 595 926 L 595 924 L 597 920 Z M 573 921 L 574 920 L 576 922 L 574 923 Z M 595 919 L 596 918 L 597 920 L 596 921 Z M 594 918 L 595 917 L 596 918 L 595 919 Z M 593 916 L 594 915 L 595 917 L 594 918 Z M 592 914 L 593 913 L 594 915 L 593 916 Z M 591 913 L 592 912 L 593 913 L 592 914 Z M 568 899 L 570 898 L 572 899 L 576 895 L 579 897 L 584 905 L 587 908 L 587 910 L 594 922 L 594 924 L 591 928 L 589 929 L 584 928 L 577 920 L 573 913 L 566 904 Z" fill="currentColor" fill-rule="evenodd"/>
<path d="M 171 888 L 161 891 L 156 894 L 151 895 L 148 897 L 146 897 L 143 899 L 141 899 L 128 905 L 123 906 L 115 910 L 107 912 L 99 916 L 101 917 L 102 916 L 110 914 L 113 912 L 115 912 L 118 910 L 120 910 L 125 907 L 135 904 L 138 902 L 141 902 L 146 899 L 148 899 L 156 895 L 166 892 L 170 890 Z" fill="currentColor" fill-rule="evenodd"/>
<path d="M 239 889 L 237 893 L 236 898 L 237 899 L 238 904 L 240 907 L 244 910 L 255 916 L 257 916 L 262 919 L 264 919 L 268 921 L 270 923 L 275 925 L 277 927 L 283 930 L 287 931 L 293 928 L 295 924 L 295 919 L 296 918 L 295 917 L 296 915 L 295 914 L 295 911 L 291 907 L 285 903 L 270 896 L 265 892 L 252 885 L 244 885 Z M 239 892 L 244 887 L 251 887 L 256 889 L 263 894 L 272 898 L 274 900 L 281 903 L 287 907 L 292 912 L 293 914 L 292 923 L 288 927 L 284 927 L 265 917 L 263 917 L 246 909 L 240 904 L 238 900 L 238 894 Z" fill="currentColor" fill-rule="evenodd"/>
<path d="M 824 879 L 824 881 L 826 882 L 836 882 L 837 883 L 849 883 L 850 884 L 873 885 L 874 886 L 888 886 L 889 887 L 904 887 L 905 888 L 918 888 L 919 887 L 919 886 L 917 885 L 907 885 L 906 884 L 892 884 L 891 883 L 878 883 L 877 882 L 862 882 L 861 881 L 852 881 L 851 880 Z" fill="currentColor" fill-rule="evenodd"/>
<path d="M 162 867 L 159 867 L 158 868 L 153 869 L 150 871 L 148 871 L 145 873 L 143 873 L 140 875 L 138 875 L 133 878 L 131 878 L 128 880 L 121 882 L 116 885 L 114 885 L 111 887 L 109 887 L 106 889 L 104 889 L 101 891 L 94 893 L 90 895 L 90 896 L 98 894 L 101 892 L 106 891 L 114 887 L 119 886 L 129 881 L 139 878 L 144 875 L 146 875 L 149 873 L 156 871 L 162 868 Z" fill="currentColor" fill-rule="evenodd"/>
<path d="M 826 857 L 826 858 L 828 858 L 829 859 L 840 859 L 841 860 L 851 860 L 852 861 L 862 861 L 863 862 L 893 863 L 894 864 L 916 865 L 917 866 L 921 865 L 920 863 L 916 863 L 915 862 L 906 862 L 905 861 L 893 861 L 892 860 L 881 860 L 880 859 L 869 859 L 868 858 L 855 858 L 854 857 L 842 857 L 841 856 L 827 856 Z" fill="currentColor" fill-rule="evenodd"/>
<path d="M 0 850 L 0 858 L 6 867 L 11 877 L 11 881 L 7 886 L 5 887 L 0 887 L 0 890 L 5 890 L 9 888 L 13 884 L 13 882 L 14 881 L 14 876 L 11 870 L 7 865 Z" fill="currentColor" fill-rule="evenodd"/>
<path d="M 154 848 L 147 849 L 130 857 L 125 858 L 122 860 L 120 860 L 107 866 L 102 867 L 94 871 L 84 874 L 83 876 L 87 876 L 90 874 L 95 873 L 98 871 L 100 871 L 103 869 L 105 869 L 108 867 L 110 867 L 113 865 L 115 865 L 118 863 L 120 863 L 123 861 L 130 859 L 135 856 L 137 856 L 148 851 L 150 851 L 154 849 Z" fill="currentColor" fill-rule="evenodd"/>
<path d="M 1006 847 L 1002 852 L 1003 856 L 1011 870 L 1015 874 L 1017 874 L 1017 872 L 1016 872 L 1011 867 L 1007 861 L 1007 859 L 1004 854 L 1004 852 L 1005 851 L 1010 851 L 1010 848 L 1009 847 Z" fill="currentColor" fill-rule="evenodd"/>
<path d="M 82 846 L 81 846 L 78 850 L 75 847 L 73 847 L 74 852 L 75 853 L 79 853 L 82 850 Z" fill="currentColor" fill-rule="evenodd"/>
<path d="M 106 837 L 105 837 L 102 841 L 101 841 L 99 838 L 97 838 L 98 843 L 100 844 L 104 843 L 106 840 Z" fill="currentColor" fill-rule="evenodd"/>
<path d="M 828 835 L 829 837 L 846 838 L 847 839 L 857 839 L 858 840 L 871 840 L 872 841 L 900 842 L 901 843 L 912 843 L 913 844 L 921 844 L 923 843 L 921 841 L 904 840 L 903 839 L 875 838 L 874 837 L 861 837 L 860 836 L 848 836 L 847 835 L 836 835 L 835 834 L 829 834 Z" fill="currentColor" fill-rule="evenodd"/>
<path d="M 998 829 L 991 833 L 989 836 L 987 841 L 988 846 L 1009 883 L 1013 887 L 1019 890 L 1023 890 L 1023 887 L 1020 887 L 1016 885 L 1008 876 L 1001 862 L 994 852 L 994 850 L 991 845 L 991 840 L 997 833 L 1002 831 L 1009 831 L 1011 832 L 1014 836 L 1023 854 L 1023 856 L 1023 848 L 1021 845 L 1021 843 L 1018 839 L 1016 834 L 1012 830 L 1008 828 L 1001 828 L 1000 829 Z" fill="currentColor" fill-rule="evenodd"/>
<path d="M 235 828 L 235 829 L 239 832 L 265 845 L 267 847 L 293 860 L 294 859 L 270 847 L 268 845 L 241 831 L 239 829 Z" fill="currentColor" fill-rule="evenodd"/>
<path d="M 134 826 L 132 827 L 130 831 L 124 827 L 124 831 L 126 833 L 130 833 L 133 830 Z" fill="currentColor" fill-rule="evenodd"/>
<path d="M 516 825 L 511 824 L 491 829 L 445 834 L 440 827 L 436 826 L 432 829 L 432 834 L 430 836 L 409 837 L 393 840 L 394 859 L 401 901 L 401 908 L 406 938 L 409 945 L 459 941 L 496 934 L 502 931 L 522 910 L 526 904 L 519 845 L 518 828 Z M 521 904 L 522 905 L 520 908 L 502 928 L 501 927 L 501 921 L 500 920 L 500 911 L 501 909 L 505 906 Z M 436 829 L 438 829 L 440 831 L 440 833 L 437 835 L 434 833 L 434 831 Z M 514 828 L 517 835 L 519 864 L 524 900 L 522 902 L 502 904 L 499 907 L 498 930 L 467 937 L 427 942 L 412 942 L 409 935 L 403 903 L 395 841 L 405 839 L 432 838 L 434 840 L 438 860 L 440 861 L 435 842 L 436 837 L 463 835 Z" fill="currentColor" fill-rule="evenodd"/>
<path d="M 249 816 L 252 819 L 257 821 L 259 823 L 267 827 L 270 830 L 278 834 L 300 850 L 302 849 L 299 846 L 269 826 L 255 819 L 253 817 Z" fill="currentColor" fill-rule="evenodd"/>
<path d="M 916 803 L 911 802 L 910 803 L 905 804 L 903 806 L 914 805 L 917 808 L 917 811 L 914 815 L 912 816 L 907 815 L 904 812 L 904 810 L 902 808 L 902 814 L 905 817 L 909 819 L 912 819 L 916 817 L 920 812 L 920 807 Z" fill="currentColor" fill-rule="evenodd"/>
<path d="M 870 800 L 866 803 L 877 803 L 879 806 L 879 810 L 876 813 L 869 813 L 866 810 L 866 808 L 865 807 L 864 807 L 864 810 L 866 814 L 871 816 L 876 816 L 882 811 L 882 805 L 881 803 L 877 800 Z" fill="currentColor" fill-rule="evenodd"/>
<path d="M 832 799 L 831 801 L 834 801 L 836 799 L 840 800 L 843 803 L 843 807 L 839 811 L 835 811 L 830 807 L 830 804 L 829 804 L 829 808 L 831 811 L 834 813 L 842 813 L 846 809 L 846 803 L 845 801 L 842 798 L 834 798 Z" fill="currentColor" fill-rule="evenodd"/>
<path d="M 204 797 L 200 807 L 200 814 L 202 818 L 208 823 L 212 824 L 217 829 L 220 829 L 224 832 L 225 826 L 233 811 L 239 804 L 242 804 L 244 806 L 237 814 L 226 833 L 229 837 L 267 859 L 299 874 L 316 877 L 329 882 L 342 884 L 353 883 L 352 878 L 342 867 L 313 843 L 266 817 L 244 802 L 236 798 L 231 798 L 217 791 L 211 791 Z M 335 878 L 339 872 L 341 871 L 348 879 L 346 881 L 345 880 L 337 880 Z M 320 854 L 324 855 L 338 867 L 335 873 L 330 878 L 324 878 L 317 875 L 310 874 L 307 872 L 310 869 Z M 237 819 L 245 809 L 249 809 L 251 811 L 256 813 L 259 816 L 262 817 L 274 825 L 299 838 L 304 842 L 315 848 L 318 851 L 312 859 L 309 865 L 304 870 L 302 871 L 298 870 L 263 853 L 261 851 L 250 846 L 248 844 L 231 835 L 231 832 Z M 235 800 L 238 803 L 231 809 L 227 815 L 222 825 L 222 827 L 220 829 L 218 826 L 218 824 L 223 813 L 227 807 L 234 800 Z M 219 794 L 228 798 L 229 800 L 221 810 L 220 813 L 217 817 L 216 821 L 214 823 L 210 821 L 205 816 L 204 814 L 204 806 L 207 800 L 212 795 L 214 794 Z" fill="currentColor" fill-rule="evenodd"/>
<path d="M 150 790 L 47 828 L 76 912 L 102 969 L 212 926 L 206 925 L 161 945 L 101 966 L 61 865 L 52 829 L 148 793 L 170 857 L 194 902 L 209 921 L 170 849 Z" fill="currentColor" fill-rule="evenodd"/>
<path d="M 816 777 L 813 786 L 803 878 L 801 925 L 809 927 L 877 933 L 932 933 L 937 925 L 945 808 L 944 788 L 939 786 L 908 782 Z M 818 779 L 831 781 L 909 785 L 937 789 L 942 792 L 934 924 L 931 929 L 914 931 L 874 930 L 805 924 L 803 922 L 804 893 L 816 783 Z" fill="currentColor" fill-rule="evenodd"/>
<path d="M 657 774 L 650 779 L 636 811 L 616 877 L 635 885 L 635 893 L 637 895 L 658 906 L 701 923 L 719 927 L 728 927 L 734 920 L 757 870 L 768 835 L 771 821 L 770 817 L 766 812 L 736 797 L 715 791 L 694 788 L 691 786 L 692 784 L 690 781 L 671 774 Z M 727 883 L 725 888 L 721 893 L 708 898 L 705 898 L 702 900 L 700 899 L 700 897 L 701 896 L 701 888 L 703 884 L 713 884 L 714 883 L 716 883 L 717 884 L 718 883 L 723 883 L 724 882 L 726 882 Z M 767 817 L 768 824 L 758 859 L 749 882 L 745 888 L 731 918 L 727 923 L 725 924 L 715 923 L 694 917 L 655 901 L 638 892 L 638 887 L 642 886 L 665 894 L 690 900 L 700 900 L 701 901 L 723 895 L 737 871 L 748 847 L 757 821 L 758 815 L 757 813 L 760 812 Z M 656 777 L 659 778 L 650 790 L 650 795 L 654 798 L 669 803 L 675 803 L 689 788 L 712 792 L 736 799 L 752 807 L 757 812 L 755 824 L 739 862 L 730 879 L 715 882 L 700 881 L 699 894 L 697 899 L 683 897 L 650 888 L 630 881 L 620 875 L 641 804 L 648 788 Z M 665 775 L 668 775 L 669 776 L 686 781 L 689 783 L 689 784 L 674 800 L 671 800 L 667 798 L 664 798 L 660 796 L 654 795 L 651 792 L 655 786 Z" fill="currentColor" fill-rule="evenodd"/>
<path d="M 302 767 L 304 770 L 305 770 L 315 779 L 321 783 L 323 783 L 323 782 L 319 778 L 318 778 L 304 766 Z" fill="currentColor" fill-rule="evenodd"/>
<path d="M 563 762 L 556 765 L 552 769 L 550 774 L 550 782 L 551 783 L 554 798 L 556 802 L 556 805 L 559 812 L 560 819 L 563 825 L 567 829 L 571 831 L 578 831 L 584 828 L 589 822 L 589 810 L 588 809 L 588 805 L 586 802 L 586 799 L 585 798 L 585 795 L 584 794 L 584 791 L 582 786 L 582 782 L 581 781 L 580 774 L 577 767 L 571 762 Z M 563 764 L 570 764 L 574 767 L 576 771 L 578 782 L 580 786 L 581 794 L 583 798 L 583 801 L 584 802 L 584 805 L 585 806 L 585 809 L 587 814 L 587 820 L 586 822 L 582 826 L 574 829 L 572 829 L 568 827 L 564 821 L 564 820 L 566 819 L 568 816 L 568 812 L 567 811 L 566 804 L 565 803 L 563 793 L 562 792 L 562 786 L 564 783 L 567 782 L 571 787 L 574 801 L 576 801 L 575 799 L 575 793 L 574 792 L 573 785 L 570 781 L 564 781 L 561 783 L 561 785 L 560 786 L 560 792 L 561 793 L 563 804 L 566 812 L 566 814 L 563 816 L 561 813 L 561 810 L 559 806 L 559 803 L 557 799 L 556 792 L 553 784 L 553 773 L 557 767 Z" fill="currentColor" fill-rule="evenodd"/>
<path d="M 272 748 L 272 750 L 289 767 L 290 771 L 293 774 L 305 783 L 329 804 L 334 807 L 343 807 L 344 808 L 349 808 L 352 803 L 350 801 L 346 791 L 341 786 L 329 778 L 325 774 L 319 771 L 312 764 L 312 763 L 302 754 L 299 753 L 296 755 L 293 755 L 282 749 L 276 748 L 275 747 L 273 747 Z M 343 794 L 346 797 L 346 799 L 347 800 L 347 803 L 346 804 L 343 804 L 338 801 Z M 296 757 L 299 756 L 302 758 L 305 762 L 312 767 L 320 775 L 325 778 L 329 782 L 333 784 L 341 791 L 332 803 L 326 799 L 304 780 L 303 780 L 290 768 L 293 761 Z M 279 753 L 280 752 L 283 752 L 293 757 L 289 762 L 287 762 Z" fill="currentColor" fill-rule="evenodd"/>
<path d="M 174 730 L 173 735 L 178 741 L 183 742 L 187 744 L 198 746 L 199 747 L 200 746 L 194 743 L 186 742 L 185 741 L 180 740 L 175 736 L 175 734 L 174 733 L 177 730 L 183 730 L 189 733 L 195 734 L 196 735 L 201 735 L 201 734 L 199 734 L 186 729 L 183 729 L 182 728 L 177 728 Z" fill="currentColor" fill-rule="evenodd"/>
<path d="M 921 718 L 919 717 L 915 718 L 912 721 L 912 723 L 915 726 L 919 726 L 922 723 Z M 918 720 L 919 722 L 917 724 L 915 722 Z" fill="currentColor" fill-rule="evenodd"/>
<path d="M 156 727 L 156 736 L 158 740 L 163 744 L 175 749 L 184 750 L 185 751 L 188 751 L 193 753 L 197 753 L 201 755 L 205 755 L 206 756 L 214 757 L 215 758 L 222 758 L 227 755 L 230 749 L 230 741 L 228 736 L 223 732 L 221 732 L 218 730 L 216 730 L 212 728 L 209 728 L 205 726 L 202 726 L 201 725 L 195 724 L 191 722 L 188 722 L 184 720 L 181 720 L 176 718 L 170 718 L 169 717 L 168 718 L 164 718 L 160 720 Z M 158 727 L 159 725 L 165 720 L 173 720 L 174 721 L 178 721 L 182 723 L 185 723 L 195 727 L 202 728 L 205 730 L 208 730 L 209 731 L 211 731 L 215 733 L 218 733 L 222 735 L 227 740 L 228 747 L 227 748 L 227 750 L 223 754 L 221 755 L 215 755 L 214 754 L 210 754 L 209 753 L 206 753 L 205 752 L 202 752 L 197 750 L 193 750 L 188 748 L 184 748 L 183 747 L 175 746 L 164 742 L 159 737 L 158 735 Z" fill="currentColor" fill-rule="evenodd"/>
<path d="M 932 706 L 927 704 L 919 704 L 915 706 L 910 711 L 902 727 L 902 731 L 907 737 L 909 738 L 917 738 L 918 737 L 920 737 L 927 730 L 932 723 L 935 715 L 934 709 Z M 929 707 L 932 710 L 932 712 L 933 713 L 932 714 L 932 718 L 926 728 L 920 734 L 916 736 L 910 736 L 908 735 L 904 730 L 904 726 L 907 719 L 911 713 L 919 706 L 927 706 Z" fill="currentColor" fill-rule="evenodd"/>
<path d="M 467 676 L 465 677 L 465 681 L 467 685 L 469 687 L 471 687 L 472 685 L 468 680 L 469 679 L 473 679 L 473 678 L 471 676 Z" fill="currentColor" fill-rule="evenodd"/>
<path d="M 432 676 L 433 679 L 435 681 L 440 684 L 443 684 L 444 685 L 452 683 L 455 679 L 454 677 L 450 680 L 445 681 L 444 682 L 438 679 L 435 675 L 433 675 Z" fill="currentColor" fill-rule="evenodd"/>
<path d="M 1011 673 L 1011 674 L 1014 676 L 1016 676 L 1017 677 L 1023 677 L 1023 673 L 1015 673 L 1014 672 L 1012 672 Z" fill="currentColor" fill-rule="evenodd"/>
<path d="M 425 671 L 420 671 L 416 673 L 416 674 L 420 677 L 425 672 Z" fill="currentColor" fill-rule="evenodd"/>
<path d="M 998 670 L 996 670 L 993 672 L 992 674 L 993 676 L 991 679 L 992 681 L 993 681 L 995 677 L 996 678 L 996 682 L 998 680 L 1001 672 L 1000 672 L 998 674 L 997 673 Z M 995 676 L 996 675 L 997 677 L 996 678 Z M 996 674 L 997 673 L 998 674 L 997 675 Z" fill="currentColor" fill-rule="evenodd"/>
<path d="M 417 669 L 421 669 L 423 668 L 424 666 L 419 666 Z" fill="currentColor" fill-rule="evenodd"/>
<path d="M 19 666 L 17 664 L 15 665 L 15 666 L 11 670 L 4 673 L 0 673 L 0 677 L 6 676 L 15 672 L 18 669 L 18 667 Z" fill="currentColor" fill-rule="evenodd"/>
<path d="M 26 658 L 28 661 L 34 665 L 37 665 L 39 663 L 36 659 L 32 658 L 29 656 Z" fill="currentColor" fill-rule="evenodd"/>
<path d="M 680 653 L 679 652 L 675 653 L 664 659 L 662 659 L 657 662 L 655 662 L 648 666 L 646 666 L 636 671 L 634 671 L 631 673 L 629 673 L 626 675 L 624 675 L 621 677 L 614 679 L 609 682 L 609 684 L 615 683 L 625 678 L 627 678 L 636 673 L 644 671 L 651 667 L 653 667 L 658 664 L 660 664 L 671 658 L 673 658 L 679 655 Z" fill="currentColor" fill-rule="evenodd"/>
<path d="M 671 636 L 667 637 L 664 639 L 659 640 L 643 648 L 636 650 L 627 655 L 625 655 L 622 657 L 615 659 L 610 662 L 603 664 L 601 667 L 605 667 L 621 659 L 623 659 L 628 656 L 635 654 L 649 647 L 654 646 L 670 638 Z" fill="currentColor" fill-rule="evenodd"/>
<path d="M 663 618 L 657 619 L 647 624 L 640 626 L 633 630 L 631 630 L 621 635 L 619 635 L 614 638 L 612 638 L 599 644 L 594 645 L 592 648 L 594 649 L 605 644 L 607 644 L 612 641 L 614 641 L 616 639 L 618 639 L 621 637 L 628 635 L 633 632 L 640 630 L 647 626 L 649 626 L 661 620 Z" fill="currentColor" fill-rule="evenodd"/>
<path d="M 893 609 L 887 618 L 860 672 L 860 676 L 862 675 L 863 671 L 884 629 L 886 627 L 887 623 L 889 621 L 892 615 L 892 613 L 894 610 Z" fill="currentColor" fill-rule="evenodd"/>
<path d="M 582 610 L 581 615 L 583 620 L 587 623 L 592 623 L 596 621 L 598 618 L 598 613 L 594 608 L 592 607 L 586 607 Z M 587 610 L 591 610 L 595 615 L 594 618 L 590 621 L 587 620 L 584 617 L 584 613 Z" fill="currentColor" fill-rule="evenodd"/>
<path d="M 929 605 L 927 604 L 925 606 L 925 609 L 928 609 L 929 608 Z" fill="currentColor" fill-rule="evenodd"/>
<path d="M 1023 597 L 968 611 L 960 616 L 953 630 L 953 637 L 977 733 L 997 794 L 1001 796 L 1023 794 L 1023 792 L 1004 794 L 1000 793 L 997 788 L 964 676 L 954 634 L 966 631 L 981 632 L 983 634 L 983 644 L 986 647 L 991 647 L 995 643 L 995 637 L 990 632 L 982 629 L 959 630 L 958 628 L 962 618 L 968 613 L 1023 599 Z M 987 634 L 992 639 L 992 641 L 988 644 L 987 644 L 984 640 L 985 639 L 985 636 Z" fill="currentColor" fill-rule="evenodd"/>
<path d="M 609 600 L 608 605 L 609 606 L 609 608 L 613 612 L 620 612 L 625 608 L 625 601 L 621 597 L 613 597 Z M 613 600 L 615 600 L 616 599 L 617 600 L 619 600 L 622 603 L 622 606 L 618 610 L 616 610 L 612 607 L 611 602 Z" fill="currentColor" fill-rule="evenodd"/>
<path d="M 391 598 L 383 612 L 367 613 L 360 620 L 360 626 L 364 630 L 380 633 L 377 646 L 360 646 L 352 653 L 352 659 L 356 664 L 372 667 L 368 681 L 353 679 L 345 687 L 345 693 L 350 699 L 365 702 L 362 716 L 347 715 L 338 724 L 341 733 L 354 737 L 353 758 L 355 762 L 381 772 L 465 789 L 484 789 L 491 786 L 500 773 L 517 711 L 528 653 L 528 641 L 525 634 L 513 628 L 509 617 L 495 609 L 442 600 L 402 596 Z M 372 723 L 377 723 L 381 728 L 379 733 L 376 735 L 373 735 L 369 731 L 370 729 L 370 725 Z M 341 726 L 342 725 L 342 723 L 348 718 L 357 718 L 370 724 L 368 727 L 368 731 L 369 732 L 368 733 L 366 732 L 348 733 L 347 732 L 345 732 L 342 729 L 342 727 Z M 348 688 L 351 684 L 355 682 L 362 682 L 373 686 L 382 686 L 385 688 L 386 690 L 386 694 L 383 697 L 379 698 L 375 695 L 375 691 L 376 690 L 376 689 L 373 690 L 373 695 L 374 696 L 373 697 L 356 698 L 355 697 L 353 697 L 348 692 Z M 387 652 L 390 652 L 394 656 L 393 660 L 389 663 L 384 662 L 382 659 L 384 656 L 384 654 Z M 355 656 L 356 655 L 356 653 L 359 650 L 364 648 L 373 649 L 384 653 L 380 657 L 380 662 L 379 663 L 373 663 L 372 664 L 364 664 L 363 663 L 360 663 L 356 659 Z M 523 637 L 525 641 L 525 653 L 512 721 L 499 768 L 493 780 L 487 785 L 470 787 L 403 774 L 368 765 L 356 758 L 355 744 L 356 737 L 359 736 L 361 751 L 363 754 L 371 758 L 464 774 L 474 773 L 480 770 L 486 763 L 491 749 L 508 659 L 511 631 L 516 631 Z M 363 620 L 367 616 L 369 616 L 370 615 L 374 615 L 375 614 L 383 614 L 384 615 L 399 616 L 403 620 L 403 623 L 402 625 L 399 627 L 394 627 L 391 624 L 391 622 L 393 619 L 391 619 L 388 622 L 388 624 L 390 627 L 389 628 L 378 629 L 377 630 L 370 630 L 364 626 L 363 624 Z M 396 599 L 421 600 L 480 608 L 501 614 L 508 623 L 507 645 L 489 742 L 483 761 L 472 770 L 449 769 L 379 757 L 367 753 L 363 748 L 362 740 L 364 735 L 378 737 L 383 731 L 383 726 L 379 721 L 368 721 L 365 717 L 370 699 L 381 701 L 389 694 L 389 690 L 384 684 L 372 682 L 377 664 L 380 662 L 384 665 L 391 665 L 396 659 L 396 655 L 392 650 L 382 650 L 380 648 L 384 631 L 400 630 L 406 624 L 406 619 L 402 614 L 387 612 L 390 603 Z" fill="currentColor" fill-rule="evenodd"/>
<path d="M 793 591 L 785 591 L 782 594 L 768 630 L 768 633 L 758 660 L 749 680 L 729 735 L 730 742 L 735 746 L 748 751 L 761 752 L 765 746 L 769 732 L 785 695 L 785 692 L 789 684 L 792 673 L 803 645 L 803 642 L 807 634 L 807 631 L 815 611 L 816 603 L 813 599 L 803 594 Z M 796 595 L 811 602 L 814 605 L 814 608 L 777 704 L 769 729 L 759 750 L 737 744 L 730 740 L 736 728 L 744 730 L 743 727 L 737 724 L 738 718 L 741 716 L 746 719 L 752 719 L 741 712 L 745 702 L 752 705 L 752 703 L 746 699 L 748 692 L 750 690 L 761 695 L 763 694 L 750 686 L 755 677 L 759 679 L 762 678 L 756 673 L 760 664 L 770 668 L 773 667 L 761 659 L 765 650 L 772 652 L 772 650 L 766 646 L 770 637 L 781 640 L 770 633 L 775 623 L 782 625 L 782 623 L 776 619 L 777 615 L 780 611 L 792 615 L 792 613 L 780 607 L 785 594 Z" fill="currentColor" fill-rule="evenodd"/>
<path d="M 64 593 L 51 595 L 46 590 L 38 589 L 2 596 L 0 599 L 36 591 L 43 591 L 49 597 L 71 664 L 85 721 L 87 737 L 77 746 L 67 750 L 67 755 L 73 764 L 73 770 L 40 782 L 0 791 L 0 794 L 34 787 L 77 772 L 89 765 L 94 756 L 103 755 L 109 749 L 110 739 L 102 694 L 85 631 L 73 600 Z M 75 768 L 76 767 L 77 768 L 76 769 Z M 77 749 L 78 750 L 77 751 L 77 755 L 76 756 L 76 760 L 75 761 L 71 757 L 70 752 L 73 750 Z M 88 741 L 90 744 L 90 758 L 84 765 L 77 768 L 76 767 L 78 763 L 78 758 L 79 757 L 80 748 Z M 54 597 L 64 596 L 68 598 L 72 602 L 76 610 L 84 634 L 84 638 L 86 642 L 89 658 L 91 662 L 91 665 L 96 680 L 96 684 L 98 688 L 99 697 L 101 702 L 101 706 L 105 722 L 106 738 L 107 739 L 106 748 L 102 752 L 97 754 L 94 754 L 92 751 L 91 735 L 89 730 L 89 725 L 87 720 L 85 706 L 83 702 L 83 698 L 79 686 L 78 678 L 71 657 L 69 647 L 63 629 L 61 626 L 61 623 L 51 599 Z" fill="currentColor" fill-rule="evenodd"/>
<path d="M 638 587 L 636 589 L 636 597 L 637 599 L 640 602 L 646 602 L 648 601 L 651 598 L 651 596 L 652 595 L 651 590 L 646 586 L 641 586 L 640 587 Z M 642 589 L 645 589 L 648 592 L 648 596 L 645 599 L 641 599 L 638 596 L 638 592 Z" fill="currentColor" fill-rule="evenodd"/>
<path d="M 127 586 L 123 589 L 123 593 L 126 598 L 127 603 L 129 607 L 130 607 L 125 595 L 125 590 L 127 588 L 130 588 L 136 599 L 137 599 L 137 597 L 134 592 L 133 588 L 130 586 Z" fill="currentColor" fill-rule="evenodd"/>
<path d="M 302 602 L 269 583 L 267 584 L 266 588 L 261 586 L 259 588 L 268 593 L 268 587 L 273 587 L 297 601 L 300 604 L 300 609 L 295 613 L 289 610 L 280 612 L 278 608 L 262 610 L 262 605 L 267 595 L 265 594 L 213 593 L 193 590 L 191 592 L 180 651 L 175 689 L 187 693 L 211 696 L 271 700 L 282 699 L 303 678 Z M 193 594 L 205 593 L 219 595 L 256 596 L 262 598 L 257 609 L 257 612 L 260 614 L 275 610 L 279 615 L 287 613 L 292 616 L 300 615 L 300 675 L 297 678 L 298 680 L 296 683 L 280 697 L 277 694 L 277 684 L 280 682 L 291 681 L 294 679 L 277 680 L 274 685 L 277 693 L 275 696 L 222 694 L 179 688 L 178 682 L 191 615 Z" fill="currentColor" fill-rule="evenodd"/>
<path d="M 905 581 L 899 581 L 895 585 L 892 592 L 886 597 L 882 607 L 880 609 L 863 641 L 863 643 L 847 677 L 848 679 L 844 685 L 839 700 L 839 716 L 838 717 L 838 721 L 845 719 L 857 712 L 865 704 L 871 694 L 876 689 L 888 668 L 890 666 L 895 668 L 898 667 L 902 662 L 925 617 L 924 612 L 920 608 L 925 600 L 924 593 L 919 588 Z M 842 706 L 843 705 L 852 711 L 850 713 L 843 716 L 842 715 Z M 849 681 L 870 693 L 856 709 L 852 706 L 850 706 L 848 704 L 845 703 L 842 700 L 845 693 L 845 690 L 847 687 L 847 684 Z M 919 619 L 920 620 L 919 624 L 911 640 L 909 642 L 900 661 L 896 665 L 894 665 L 892 662 L 896 655 L 897 651 L 899 649 L 910 627 L 912 625 L 913 621 L 916 618 Z M 920 612 L 922 614 L 922 616 L 921 617 L 919 617 L 918 616 L 918 614 Z M 888 602 L 892 605 L 896 606 L 905 612 L 912 615 L 913 617 L 904 635 L 902 637 L 896 650 L 894 652 L 887 667 L 885 669 L 881 677 L 871 692 L 869 689 L 860 683 L 856 682 L 853 680 L 851 680 L 848 678 L 855 667 L 855 665 L 872 632 L 872 630 L 878 619 L 878 617 L 885 604 Z M 889 598 L 891 596 L 897 599 L 899 601 L 912 607 L 915 609 L 916 611 L 913 613 L 891 601 Z M 899 585 L 904 584 L 914 589 L 922 596 L 922 599 L 920 603 L 917 606 L 915 606 L 897 596 L 894 593 Z" fill="currentColor" fill-rule="evenodd"/>
<path d="M 121 568 L 118 571 L 118 575 L 115 583 L 117 594 L 119 597 L 120 602 L 127 614 L 133 621 L 137 623 L 142 623 L 143 622 L 145 622 L 149 618 L 150 613 L 149 612 L 149 609 L 144 600 L 144 598 L 143 597 L 140 586 L 138 583 L 138 581 L 136 577 L 131 572 L 124 568 Z M 122 571 L 125 571 L 130 574 L 135 579 L 137 583 L 137 585 L 141 595 L 141 598 L 148 612 L 147 617 L 142 621 L 137 621 L 133 618 L 132 615 L 126 610 L 124 606 L 124 604 L 121 599 L 121 597 L 119 594 L 119 591 L 118 590 L 118 581 L 120 578 L 120 574 Z" fill="currentColor" fill-rule="evenodd"/>
<path d="M 337 567 L 336 568 L 336 571 L 337 572 L 340 572 L 341 571 L 341 568 L 340 567 Z" fill="currentColor" fill-rule="evenodd"/>
<path d="M 658 560 L 645 563 L 562 593 L 556 587 L 535 593 L 548 611 L 555 612 L 550 617 L 567 649 L 592 711 L 598 723 L 604 728 L 623 723 L 657 709 L 715 680 L 677 591 L 665 567 Z M 555 592 L 553 595 L 551 595 L 547 597 L 541 597 L 540 596 L 542 593 L 547 592 L 551 590 L 553 590 Z M 657 563 L 668 580 L 699 652 L 713 677 L 700 685 L 645 711 L 618 722 L 604 725 L 593 705 L 564 634 L 555 619 L 558 614 L 558 610 L 555 608 L 548 608 L 545 604 L 545 601 Z" fill="currentColor" fill-rule="evenodd"/>
<path d="M 346 554 L 343 558 L 347 556 L 350 556 L 352 558 L 352 562 L 349 566 L 351 566 L 355 560 L 354 559 L 354 557 L 351 554 Z" fill="currentColor" fill-rule="evenodd"/>
<path d="M 451 554 L 451 556 L 450 557 L 450 560 L 453 566 L 458 569 L 457 570 L 457 572 L 458 573 L 460 572 L 464 573 L 465 574 L 465 576 L 468 579 L 470 579 L 470 574 L 472 571 L 476 569 L 481 568 L 483 566 L 481 564 L 477 564 L 474 561 L 473 557 L 469 554 L 466 554 L 465 555 L 461 551 L 455 551 Z M 452 557 L 455 553 L 458 552 L 462 555 L 462 558 L 467 558 L 468 557 L 470 557 L 472 559 L 472 561 L 478 566 L 477 567 L 473 567 L 469 570 L 467 575 L 465 571 L 459 568 L 453 562 Z" fill="currentColor" fill-rule="evenodd"/>
<path d="M 360 545 L 356 543 L 349 543 L 339 550 L 339 551 L 327 562 L 325 569 L 333 581 L 337 583 L 344 582 L 348 578 L 349 578 L 362 564 L 365 559 L 365 553 L 362 547 Z M 357 546 L 362 552 L 362 554 L 363 555 L 362 560 L 343 580 L 341 581 L 336 581 L 327 569 L 328 564 L 350 545 L 355 545 Z" fill="currentColor" fill-rule="evenodd"/>
<path d="M 739 536 L 730 537 L 726 542 L 726 547 L 725 548 L 724 573 L 726 579 L 729 581 L 732 581 L 736 578 L 738 573 L 738 564 L 740 553 L 739 552 L 737 556 L 736 574 L 732 579 L 729 579 L 726 576 L 728 544 L 734 538 L 740 539 L 744 543 L 744 560 L 743 561 L 742 578 L 739 589 L 736 592 L 730 594 L 721 589 L 718 582 L 718 574 L 722 562 L 721 561 L 717 568 L 717 574 L 716 575 L 717 586 L 722 593 L 729 596 L 733 596 L 738 594 L 740 592 L 743 584 L 745 557 L 746 556 L 746 543 L 744 539 Z" fill="currentColor" fill-rule="evenodd"/>
<path d="M 1023 529 L 969 535 L 952 540 L 949 543 L 949 551 L 953 568 L 961 568 L 986 563 L 1023 559 L 1023 553 L 1020 547 L 1019 547 L 1020 554 L 1018 556 L 1012 556 L 1008 548 L 1007 549 L 1008 556 L 1003 558 L 997 558 L 994 549 L 992 549 L 993 558 L 986 560 L 980 559 L 979 551 L 977 549 L 976 550 L 977 556 L 976 561 L 970 562 L 967 555 L 966 555 L 966 562 L 961 564 L 955 563 L 953 552 L 953 544 L 956 542 L 981 537 L 1021 533 L 1023 532 Z" fill="currentColor" fill-rule="evenodd"/>
<path d="M 0 558 L 28 555 L 85 545 L 106 535 L 108 533 L 108 530 L 80 522 L 52 523 L 50 520 L 45 518 L 38 519 L 35 525 L 0 529 L 0 532 L 53 525 L 75 525 L 86 527 L 88 529 L 90 538 L 87 541 L 81 543 L 77 538 L 73 544 L 70 544 L 67 536 L 65 536 L 65 545 L 56 546 L 53 539 L 53 546 L 46 548 L 41 547 L 40 541 L 37 538 L 37 549 L 30 550 L 26 543 L 26 550 L 24 552 L 18 553 L 13 542 L 13 552 L 10 554 L 4 554 L 2 547 L 0 547 Z M 91 529 L 93 528 L 94 529 L 99 530 L 101 533 L 99 535 L 93 538 L 91 535 Z M 40 522 L 41 521 L 46 521 L 47 523 L 46 524 L 41 524 Z" fill="currentColor" fill-rule="evenodd"/>
<path d="M 415 511 L 415 517 L 418 520 L 420 520 L 421 521 L 422 520 L 424 520 L 427 517 L 427 514 L 426 513 L 422 517 L 420 517 L 418 515 L 418 510 L 416 510 Z" fill="currentColor" fill-rule="evenodd"/>
<path d="M 482 505 L 481 506 L 483 509 L 485 509 L 486 507 L 484 505 Z" fill="currentColor" fill-rule="evenodd"/>
<path d="M 414 496 L 412 497 L 410 501 L 408 509 L 403 518 L 402 524 L 404 528 L 411 532 L 413 532 L 419 535 L 426 535 L 429 533 L 431 529 L 431 527 L 434 522 L 434 520 L 438 513 L 439 507 L 437 503 L 432 500 L 430 500 L 422 496 Z M 414 498 L 420 498 L 426 501 L 428 501 L 434 504 L 436 507 L 436 510 L 433 515 L 430 525 L 428 529 L 424 533 L 418 532 L 413 529 L 411 529 L 407 527 L 405 525 L 406 518 L 413 506 L 413 499 Z" fill="currentColor" fill-rule="evenodd"/>
<path d="M 276 495 L 269 496 L 262 499 L 255 500 L 244 504 L 241 504 L 240 505 L 237 505 L 236 506 L 233 506 L 232 507 L 229 507 L 228 508 L 225 508 L 224 509 L 221 509 L 220 510 L 217 510 L 216 511 L 213 511 L 208 513 L 198 514 L 194 516 L 195 517 L 197 517 L 198 516 L 203 516 L 204 515 L 207 515 L 212 513 L 216 513 L 221 511 L 225 511 L 226 510 L 233 509 L 237 507 L 244 506 L 248 504 L 251 504 L 252 503 L 259 502 L 269 498 L 272 498 L 276 496 Z" fill="currentColor" fill-rule="evenodd"/>
<path d="M 894 486 L 878 487 L 877 488 L 869 488 L 868 489 L 859 489 L 858 490 L 850 490 L 849 491 L 840 491 L 839 492 L 823 493 L 822 494 L 814 494 L 813 495 L 804 495 L 803 496 L 801 496 L 801 497 L 802 498 L 808 498 L 809 497 L 816 497 L 817 496 L 823 496 L 824 495 L 833 495 L 834 494 L 848 493 L 849 492 L 856 492 L 857 491 L 875 490 L 876 489 L 882 489 L 883 488 L 892 488 L 894 487 Z" fill="currentColor" fill-rule="evenodd"/>
<path d="M 271 474 L 259 475 L 258 476 L 255 476 L 250 478 L 246 478 L 245 479 L 242 479 L 241 480 L 238 480 L 233 482 L 229 482 L 224 484 L 220 484 L 215 486 L 211 486 L 210 487 L 207 487 L 202 489 L 192 490 L 187 492 L 187 494 L 191 494 L 192 493 L 196 493 L 197 492 L 200 492 L 205 490 L 209 490 L 214 488 L 218 488 L 223 486 L 227 486 L 228 485 L 231 485 L 232 484 L 235 484 L 236 483 L 239 483 L 240 482 L 243 482 L 248 480 L 258 479 L 262 477 L 268 476 Z" fill="currentColor" fill-rule="evenodd"/>
<path d="M 890 465 L 889 464 L 883 464 L 882 465 L 864 466 L 863 467 L 849 468 L 848 469 L 841 469 L 840 470 L 826 471 L 825 472 L 819 472 L 818 473 L 803 474 L 802 475 L 799 475 L 798 477 L 803 477 L 804 476 L 809 476 L 810 475 L 815 475 L 816 474 L 821 474 L 822 473 L 829 473 L 830 472 L 843 471 L 844 470 L 851 470 L 852 469 L 860 469 L 861 468 L 869 468 L 870 467 L 875 467 L 876 466 L 885 466 L 886 465 Z" fill="currentColor" fill-rule="evenodd"/>
<path d="M 266 456 L 257 457 L 256 458 L 253 458 L 252 459 L 249 459 L 248 460 L 245 460 L 244 461 L 241 461 L 240 462 L 237 462 L 232 464 L 228 464 L 227 465 L 223 465 L 218 467 L 214 467 L 209 469 L 205 469 L 204 470 L 200 470 L 199 471 L 185 473 L 184 474 L 182 474 L 181 476 L 188 476 L 189 475 L 197 474 L 202 472 L 206 472 L 207 471 L 211 471 L 212 470 L 220 469 L 225 467 L 229 467 L 237 464 L 245 463 L 246 462 L 261 459 L 262 458 L 264 458 Z" fill="currentColor" fill-rule="evenodd"/>
<path d="M 886 444 L 885 443 L 879 443 L 878 444 L 860 445 L 859 446 L 852 446 L 851 447 L 845 447 L 844 448 L 837 448 L 836 449 L 830 449 L 829 450 L 823 450 L 822 451 L 816 451 L 815 452 L 800 453 L 795 455 L 797 456 L 798 455 L 803 455 L 804 454 L 812 454 L 813 453 L 819 453 L 820 452 L 825 452 L 826 451 L 834 451 L 835 450 L 841 450 L 842 449 L 854 448 L 855 447 L 862 447 L 863 446 L 870 446 L 871 445 Z" fill="currentColor" fill-rule="evenodd"/>
<path d="M 259 437 L 249 438 L 248 439 L 245 439 L 240 441 L 235 441 L 234 442 L 231 442 L 230 443 L 227 443 L 226 444 L 223 444 L 222 445 L 219 445 L 214 447 L 210 447 L 205 449 L 201 449 L 196 451 L 191 451 L 190 452 L 181 453 L 180 454 L 177 454 L 175 456 L 176 457 L 180 457 L 184 455 L 188 455 L 189 454 L 198 453 L 203 451 L 207 451 L 208 450 L 211 450 L 212 449 L 215 449 L 216 448 L 219 448 L 220 447 L 223 447 L 228 445 L 232 445 L 237 443 L 241 443 L 246 441 L 254 440 L 259 438 Z" fill="currentColor" fill-rule="evenodd"/>
<path d="M 177 421 L 176 422 L 174 422 L 170 426 L 170 430 L 173 434 L 175 435 L 180 435 L 184 432 L 185 430 L 185 426 L 182 422 Z M 175 424 L 180 424 L 183 427 L 183 430 L 180 433 L 176 433 L 172 429 L 172 427 Z" fill="currentColor" fill-rule="evenodd"/>
<path d="M 207 415 L 203 420 L 205 426 L 208 428 L 214 428 L 218 423 L 217 418 L 213 415 Z M 208 417 L 212 417 L 215 419 L 215 424 L 213 426 L 208 426 L 205 423 L 205 420 Z" fill="currentColor" fill-rule="evenodd"/>
<path d="M 0 411 L 0 413 L 3 413 L 4 412 L 4 411 Z" fill="currentColor" fill-rule="evenodd"/>
<path d="M 236 410 L 234 413 L 234 416 L 236 420 L 239 422 L 244 422 L 246 421 L 249 415 L 247 410 L 245 409 L 238 409 Z M 240 411 L 244 411 L 246 413 L 246 417 L 243 420 L 239 420 L 236 416 L 237 413 Z" fill="currentColor" fill-rule="evenodd"/>
<path d="M 535 408 L 533 411 L 533 416 L 534 418 L 536 419 L 537 418 L 537 413 Z" fill="currentColor" fill-rule="evenodd"/>
<path d="M 570 408 L 568 407 L 566 411 L 560 415 L 555 415 L 549 412 L 547 412 L 546 413 L 546 415 L 549 417 L 551 417 L 555 419 L 563 418 L 569 413 Z" fill="currentColor" fill-rule="evenodd"/>
<path d="M 577 398 L 576 399 L 577 402 L 579 405 L 583 408 L 583 404 L 582 402 L 578 398 Z" fill="currentColor" fill-rule="evenodd"/>
<path d="M 107 397 L 105 397 L 102 401 L 101 404 L 81 434 L 80 437 L 78 439 L 78 441 L 82 438 L 82 436 L 106 400 Z" fill="currentColor" fill-rule="evenodd"/>
<path d="M 263 392 L 253 391 L 234 393 L 195 400 L 158 409 L 148 413 L 145 420 L 137 427 L 137 434 L 151 476 L 162 519 L 170 541 L 179 554 L 192 555 L 225 549 L 269 537 L 310 522 L 301 504 L 294 484 L 272 405 L 268 397 Z M 141 427 L 145 424 L 147 425 L 170 513 L 180 537 L 186 544 L 193 546 L 211 543 L 261 531 L 304 517 L 307 520 L 290 527 L 238 543 L 194 552 L 180 551 L 173 541 L 166 522 L 155 479 L 141 437 Z M 262 395 L 266 399 L 270 408 L 287 471 L 296 498 L 303 513 L 278 523 L 233 536 L 197 543 L 186 542 L 179 531 L 170 504 L 158 455 L 148 422 L 149 417 L 155 413 L 164 410 L 211 400 L 251 394 Z" fill="currentColor" fill-rule="evenodd"/>
<path d="M 90 391 L 89 391 L 85 397 L 74 419 L 74 421 L 66 436 L 66 438 L 68 438 L 79 416 L 79 414 L 82 410 L 82 408 L 89 395 Z" fill="currentColor" fill-rule="evenodd"/>
<path d="M 896 401 L 854 386 L 853 389 L 856 393 L 846 394 L 854 396 L 858 399 L 858 409 L 782 418 L 773 422 L 784 543 L 787 550 L 801 550 L 899 537 L 913 527 L 919 516 L 917 475 L 903 413 L 900 405 Z M 913 516 L 914 518 L 912 522 L 906 529 L 901 532 L 898 524 L 898 519 L 900 517 L 909 517 L 910 516 Z M 899 415 L 903 424 L 912 467 L 916 496 L 916 511 L 914 513 L 901 514 L 895 517 L 894 521 L 896 526 L 896 534 L 790 548 L 788 546 L 782 484 L 774 424 L 776 422 L 859 412 L 863 431 L 877 420 L 881 423 L 884 423 L 890 417 L 894 418 Z M 857 391 L 859 390 L 870 395 L 872 395 L 875 397 L 891 402 L 898 408 L 898 411 L 895 414 L 889 414 L 883 419 L 878 417 L 866 426 L 864 426 L 863 425 L 863 421 L 862 420 L 862 413 L 861 412 L 860 401 L 859 400 L 858 392 Z" fill="currentColor" fill-rule="evenodd"/>
<path d="M 320 379 L 315 382 L 315 387 L 312 389 L 312 392 L 314 396 L 313 397 L 313 399 L 318 410 L 326 417 L 326 419 L 328 421 L 333 422 L 337 420 L 340 416 L 339 411 L 336 406 L 336 404 L 338 402 L 338 399 L 334 390 L 329 388 L 327 382 L 323 379 Z M 321 392 L 324 392 L 325 391 L 329 392 L 330 394 L 334 397 L 336 401 L 331 405 L 333 405 L 335 407 L 336 411 L 338 414 L 338 415 L 333 420 L 330 420 L 326 416 L 326 413 L 321 411 L 325 408 L 324 407 L 321 407 L 320 408 L 319 407 L 319 404 L 316 400 L 316 397 Z M 314 389 L 316 388 L 319 391 L 316 393 L 314 391 Z M 319 382 L 323 382 L 325 384 L 326 388 L 324 390 L 322 390 L 321 391 L 319 389 L 317 385 Z" fill="currentColor" fill-rule="evenodd"/>
<path d="M 0 377 L 0 379 L 2 379 L 3 380 L 4 387 L 6 389 L 19 395 L 22 399 L 21 400 L 20 407 L 18 411 L 17 418 L 14 425 L 14 428 L 11 435 L 11 438 L 10 439 L 4 459 L 2 462 L 2 465 L 0 468 L 0 475 L 2 471 L 3 466 L 5 463 L 6 458 L 8 455 L 8 453 L 14 437 L 14 434 L 16 431 L 16 428 L 18 424 L 18 421 L 21 414 L 21 411 L 23 407 L 24 399 L 25 398 L 24 397 L 24 395 L 22 393 L 18 391 L 16 391 L 13 389 L 11 389 L 8 387 L 6 387 L 4 385 L 4 380 L 3 378 Z" fill="currentColor" fill-rule="evenodd"/>
<path d="M 980 381 L 947 450 L 948 454 L 957 460 L 1012 483 L 1017 483 L 1023 477 L 1023 470 L 1021 476 L 1017 480 L 1011 480 L 956 456 L 951 452 L 951 447 L 982 383 L 1003 391 L 1009 395 L 1007 415 L 1023 414 L 1023 411 L 1013 413 L 1010 412 L 1012 382 L 1015 378 L 1019 381 L 1020 384 L 1021 379 L 1015 375 L 1011 376 L 1009 392 L 985 381 Z" fill="currentColor" fill-rule="evenodd"/>
<path d="M 724 368 L 705 367 L 701 369 L 699 377 L 702 383 L 699 387 L 700 389 L 696 393 L 693 399 L 691 407 L 688 430 L 686 437 L 684 460 L 683 461 L 682 493 L 681 494 L 683 509 L 687 519 L 690 523 L 692 523 L 700 515 L 713 495 L 718 478 L 718 474 L 723 454 L 725 452 L 733 451 L 736 448 L 739 439 L 742 417 L 746 401 L 746 394 L 741 387 L 738 386 L 735 387 L 734 386 L 736 382 L 735 373 L 731 370 Z M 686 505 L 687 504 L 691 504 L 698 507 L 701 507 L 702 509 L 699 513 L 691 513 L 687 511 L 686 509 Z M 686 480 L 687 481 L 704 482 L 705 483 L 709 483 L 713 485 L 712 491 L 707 501 L 704 505 L 703 504 L 696 503 L 692 501 L 686 501 L 685 500 L 685 481 Z M 696 401 L 702 402 L 703 403 L 708 403 L 709 404 L 716 404 L 717 405 L 721 405 L 722 406 L 728 406 L 730 408 L 729 409 L 728 421 L 726 426 L 726 430 L 725 431 L 725 435 L 724 436 L 722 450 L 720 454 L 720 457 L 718 462 L 718 466 L 717 467 L 715 478 L 713 482 L 711 482 L 701 478 L 688 478 L 685 476 L 685 474 L 686 473 L 686 465 L 687 464 L 687 457 L 688 456 L 688 447 L 689 446 L 689 438 L 690 437 L 691 424 L 692 423 L 694 406 Z M 742 397 L 743 399 L 742 400 L 742 404 L 741 405 L 741 408 L 739 413 L 739 417 L 738 418 L 738 422 L 737 423 L 737 429 L 736 430 L 736 435 L 735 436 L 734 444 L 733 445 L 733 447 L 730 450 L 726 450 L 725 449 L 725 446 L 726 445 L 726 440 L 727 439 L 727 435 L 728 434 L 728 430 L 729 429 L 729 424 L 730 423 L 730 417 L 731 416 L 731 399 L 732 398 L 740 398 Z M 698 397 L 699 396 L 699 394 L 701 392 L 703 392 L 704 393 L 709 393 L 710 394 L 714 394 L 715 395 L 720 395 L 721 396 L 726 397 L 728 399 L 728 403 L 727 404 L 726 403 L 723 403 L 718 401 L 714 401 L 713 400 L 705 400 L 704 399 L 700 399 Z M 733 393 L 735 390 L 738 389 L 742 393 L 742 394 L 741 395 L 734 395 Z M 701 388 L 703 384 L 708 384 L 709 385 L 714 385 L 715 386 L 719 386 L 720 387 L 728 388 L 730 391 L 728 394 L 724 394 L 723 393 L 715 392 L 714 391 L 703 390 Z M 702 373 L 706 370 L 711 370 L 712 369 L 713 370 L 720 370 L 731 374 L 733 376 L 734 379 L 732 383 L 729 386 L 728 385 L 725 385 L 720 383 L 716 383 L 715 382 L 706 382 L 704 381 L 702 378 Z" fill="currentColor" fill-rule="evenodd"/>
<path d="M 120 357 L 110 353 L 102 353 L 98 358 L 96 364 L 94 366 L 92 366 L 88 370 L 50 443 L 48 456 L 47 457 L 47 462 L 46 463 L 47 464 L 46 465 L 46 472 L 45 473 L 45 488 L 46 489 L 59 480 L 62 479 L 78 463 L 93 442 L 94 439 L 102 428 L 103 425 L 118 402 L 122 393 L 125 389 L 126 386 L 125 380 L 127 378 L 130 371 L 130 367 L 128 363 Z M 49 480 L 51 477 L 54 479 L 51 481 Z M 51 452 L 60 456 L 71 464 L 71 465 L 60 478 L 50 473 L 47 470 L 48 469 L 48 463 L 49 462 L 49 458 L 50 457 L 50 453 Z M 88 377 L 94 381 L 101 384 L 103 386 L 107 387 L 120 394 L 96 430 L 95 433 L 75 462 L 67 456 L 54 450 L 52 448 L 52 446 L 59 431 L 61 429 L 66 418 L 68 416 L 68 414 L 70 412 L 71 408 L 73 406 L 74 402 L 76 400 L 81 390 L 81 388 L 83 386 L 85 381 Z M 90 373 L 91 372 L 93 372 L 98 376 L 105 379 L 107 381 L 109 381 L 122 388 L 120 390 L 119 389 L 116 389 L 113 387 L 111 387 L 92 377 L 90 375 Z M 94 369 L 95 368 L 97 368 L 108 373 L 110 375 L 121 381 L 123 383 L 123 386 L 122 387 L 118 383 L 113 381 L 106 376 L 99 373 Z M 101 359 L 104 356 L 109 356 L 118 360 L 125 365 L 127 368 L 127 371 L 124 377 L 122 378 L 112 373 L 105 368 L 100 366 L 99 365 L 99 363 Z" fill="currentColor" fill-rule="evenodd"/>
<path d="M 427 345 L 421 343 L 415 344 L 410 349 L 406 357 L 402 361 L 398 361 L 394 363 L 382 378 L 368 409 L 368 416 L 372 417 L 373 419 L 355 452 L 346 475 L 342 506 L 346 505 L 372 479 L 405 421 L 407 415 L 409 413 L 415 399 L 426 380 L 434 363 L 434 353 L 432 349 Z M 348 495 L 349 497 L 347 498 L 346 497 Z M 349 478 L 351 478 L 355 484 L 358 484 L 361 486 L 361 487 L 353 494 L 347 490 L 347 485 L 348 484 L 348 479 Z M 363 446 L 366 448 L 370 449 L 381 458 L 371 476 L 365 483 L 362 483 L 359 481 L 357 481 L 349 474 L 350 473 L 351 468 L 353 465 L 353 463 L 358 454 L 358 452 Z M 410 369 L 418 373 L 423 378 L 423 379 L 421 381 L 410 404 L 408 406 L 402 419 L 400 421 L 400 423 L 396 431 L 394 433 L 387 448 L 385 450 L 384 453 L 382 454 L 375 448 L 367 444 L 365 444 L 364 443 L 364 441 L 370 429 L 372 427 L 376 418 L 378 416 L 381 409 L 383 407 L 400 373 L 404 368 Z M 400 364 L 401 366 L 393 379 L 391 383 L 391 385 L 389 387 L 377 411 L 373 415 L 370 412 L 370 409 L 371 408 L 372 403 L 375 398 L 375 396 L 384 378 L 388 372 L 395 365 Z M 404 363 L 407 360 L 408 361 L 415 362 L 422 366 L 427 372 L 424 374 L 418 369 L 411 366 L 405 365 Z M 416 347 L 418 347 L 419 346 L 424 347 L 431 353 L 432 358 L 431 359 L 430 365 L 428 368 L 421 362 L 409 357 L 410 354 Z" fill="currentColor" fill-rule="evenodd"/>
<path d="M 590 330 L 552 331 L 480 346 L 472 350 L 466 357 L 468 371 L 459 376 L 452 384 L 452 391 L 458 396 L 474 393 L 476 407 L 464 411 L 458 418 L 458 425 L 465 431 L 481 427 L 483 430 L 482 433 L 479 431 L 479 438 L 482 439 L 483 437 L 484 441 L 469 446 L 465 451 L 465 459 L 469 464 L 475 466 L 490 462 L 491 467 L 489 469 L 487 466 L 486 468 L 487 477 L 474 485 L 473 494 L 479 500 L 490 501 L 489 507 L 499 524 L 515 524 L 556 518 L 634 501 L 643 491 L 645 478 L 643 457 L 622 362 L 616 347 L 610 341 L 598 340 Z M 516 482 L 516 485 L 514 488 L 510 490 L 508 490 L 507 489 L 501 490 L 487 497 L 480 497 L 476 492 L 476 488 L 477 486 L 480 483 L 484 481 L 489 481 L 490 480 L 501 480 L 502 479 L 503 480 L 503 483 L 502 484 L 504 487 L 505 487 L 504 480 L 508 477 L 512 477 Z M 490 470 L 492 471 L 492 473 L 493 474 L 493 476 L 492 477 L 490 477 L 489 476 L 489 471 Z M 494 445 L 492 447 L 492 449 L 495 453 L 494 455 L 480 462 L 473 462 L 469 459 L 468 457 L 468 453 L 473 447 L 478 446 L 479 445 L 489 445 L 490 444 L 493 444 Z M 499 440 L 503 441 L 506 445 L 506 449 L 501 453 L 498 453 L 496 451 L 495 446 L 494 445 L 494 444 Z M 485 409 L 484 411 L 484 416 L 487 419 L 485 421 L 471 428 L 466 428 L 462 425 L 461 420 L 465 414 L 471 411 L 479 410 L 484 408 Z M 490 406 L 495 406 L 498 410 L 497 414 L 494 417 L 490 417 L 486 413 L 486 409 Z M 481 372 L 478 375 L 478 379 L 479 381 L 482 383 L 481 384 L 476 386 L 470 391 L 462 394 L 458 393 L 455 390 L 454 386 L 456 382 L 462 377 L 466 375 L 474 373 L 477 371 L 480 371 Z M 484 369 L 489 369 L 492 372 L 492 376 L 488 380 L 482 380 L 480 377 L 481 376 L 481 371 Z M 609 344 L 614 349 L 617 356 L 632 418 L 642 472 L 642 483 L 639 492 L 626 501 L 522 520 L 499 521 L 496 518 L 495 510 L 491 505 L 491 500 L 497 495 L 501 506 L 505 510 L 510 512 L 521 512 L 611 493 L 622 489 L 627 484 L 630 474 L 627 451 L 599 346 L 600 343 Z M 586 332 L 593 338 L 598 348 L 627 465 L 627 479 L 616 489 L 523 509 L 509 509 L 504 504 L 501 494 L 515 491 L 518 487 L 518 480 L 514 475 L 498 478 L 492 460 L 497 455 L 505 454 L 509 446 L 507 441 L 502 438 L 489 442 L 484 426 L 488 420 L 498 417 L 500 409 L 494 403 L 481 407 L 477 389 L 482 384 L 493 380 L 495 372 L 490 366 L 484 366 L 471 371 L 469 358 L 474 352 L 482 348 L 500 343 L 553 334 Z" fill="currentColor" fill-rule="evenodd"/>
<path d="M 282 319 L 275 319 L 274 320 L 268 320 L 267 321 L 262 321 L 261 322 L 255 322 L 254 323 L 248 323 L 247 324 L 241 324 L 240 325 L 234 325 L 233 326 L 227 326 L 226 327 L 220 327 L 219 328 L 213 328 L 212 329 L 205 329 L 204 330 L 200 330 L 200 331 L 201 332 L 206 332 L 207 331 L 213 331 L 214 330 L 226 329 L 227 328 L 235 328 L 236 327 L 241 327 L 242 326 L 248 326 L 249 325 L 255 325 L 256 324 L 261 324 L 262 323 L 279 321 Z" fill="currentColor" fill-rule="evenodd"/>
<path d="M 677 302 L 671 311 L 666 322 L 666 330 L 669 333 L 674 333 L 678 329 L 680 322 L 683 317 L 683 315 L 686 308 L 685 307 L 683 311 L 683 313 L 680 318 L 680 320 L 678 323 L 678 325 L 676 329 L 672 332 L 669 331 L 667 328 L 667 325 L 668 324 L 669 319 L 677 305 Z" fill="currentColor" fill-rule="evenodd"/>
<path d="M 279 300 L 273 300 L 272 301 L 260 302 L 259 303 L 243 304 L 242 305 L 236 305 L 235 306 L 227 306 L 226 307 L 220 307 L 219 308 L 213 308 L 212 309 L 205 309 L 204 310 L 198 310 L 195 312 L 196 313 L 201 313 L 202 312 L 208 312 L 209 311 L 215 311 L 216 310 L 223 310 L 224 309 L 231 309 L 232 308 L 247 307 L 248 306 L 253 306 L 254 305 L 260 305 L 261 304 L 267 304 L 268 303 L 278 302 Z" fill="currentColor" fill-rule="evenodd"/>
<path d="M 950 290 L 944 290 L 940 292 L 937 297 L 937 300 L 936 301 L 936 316 L 935 317 L 935 325 L 934 326 L 934 329 L 932 334 L 932 338 L 931 339 L 932 340 L 932 344 L 935 348 L 940 350 L 948 350 L 950 349 L 954 345 L 957 338 L 958 304 L 957 303 L 957 298 L 955 294 Z M 953 332 L 954 331 L 955 332 L 954 333 Z M 949 292 L 953 295 L 955 300 L 955 303 L 956 304 L 956 312 L 955 313 L 955 329 L 954 330 L 951 330 L 949 328 L 949 322 L 950 321 L 950 317 L 949 315 L 947 314 L 942 315 L 941 317 L 941 321 L 942 321 L 944 317 L 946 317 L 948 319 L 948 322 L 947 323 L 947 330 L 949 332 L 953 332 L 954 333 L 954 339 L 953 340 L 953 342 L 948 347 L 942 348 L 937 346 L 934 343 L 933 341 L 933 336 L 934 335 L 934 332 L 935 331 L 935 328 L 937 323 L 937 316 L 938 315 L 938 300 L 939 299 L 939 297 L 942 293 L 944 292 Z" fill="currentColor" fill-rule="evenodd"/>
<path d="M 684 286 L 680 286 L 674 290 L 668 301 L 667 305 L 661 313 L 654 327 L 654 329 L 652 333 L 653 339 L 655 343 L 664 349 L 673 349 L 678 345 L 682 337 L 684 335 L 687 325 L 693 313 L 694 303 L 695 302 L 694 294 L 689 288 L 687 288 Z M 685 289 L 692 295 L 692 297 L 693 298 L 692 300 L 692 305 L 690 309 L 689 315 L 687 318 L 687 320 L 684 325 L 684 327 L 678 340 L 670 347 L 663 346 L 661 345 L 655 338 L 655 331 L 656 330 L 657 325 L 663 314 L 667 309 L 674 294 L 680 289 Z" fill="currentColor" fill-rule="evenodd"/>
<path d="M 274 280 L 267 280 L 266 281 L 259 281 L 258 282 L 252 282 L 251 283 L 244 283 L 243 284 L 231 285 L 230 286 L 225 286 L 224 287 L 215 287 L 214 288 L 207 288 L 206 289 L 198 289 L 197 290 L 193 290 L 192 292 L 193 293 L 195 293 L 196 292 L 203 292 L 204 291 L 209 291 L 210 290 L 217 290 L 218 289 L 224 289 L 225 288 L 231 288 L 232 287 L 238 287 L 239 286 L 246 286 L 247 285 L 267 283 L 268 282 L 274 281 Z" fill="currentColor" fill-rule="evenodd"/>
<path d="M 346 278 L 346 283 L 347 284 L 347 287 L 351 298 L 355 301 L 360 300 L 362 297 L 361 292 L 359 291 L 360 297 L 358 299 L 355 299 L 351 295 L 351 292 L 350 291 L 350 288 L 348 283 L 348 278 Z" fill="currentColor" fill-rule="evenodd"/>
<path d="M 347 254 L 343 256 L 337 264 L 337 266 L 336 267 L 336 276 L 337 277 L 337 281 L 338 282 L 338 285 L 342 295 L 344 305 L 349 317 L 355 321 L 361 322 L 368 319 L 373 314 L 373 312 L 374 311 L 373 299 L 372 298 L 371 292 L 369 289 L 369 287 L 364 274 L 364 271 L 363 270 L 363 267 L 362 266 L 362 263 L 360 258 L 355 254 Z M 348 256 L 354 256 L 358 259 L 360 263 L 361 273 L 362 274 L 362 276 L 370 298 L 370 301 L 371 302 L 371 311 L 370 313 L 366 317 L 362 319 L 356 319 L 352 317 L 349 314 L 346 308 L 345 301 L 344 300 L 343 294 L 342 293 L 342 291 L 339 284 L 339 281 L 338 280 L 338 267 L 339 266 L 339 264 L 344 258 Z" fill="currentColor" fill-rule="evenodd"/>
<path d="M 433 253 L 437 255 L 450 256 L 451 257 L 455 257 L 456 258 L 461 258 L 462 259 L 466 259 L 467 260 L 472 260 L 473 261 L 477 261 L 478 262 L 483 262 L 484 263 L 489 263 L 490 264 L 494 264 L 495 265 L 499 265 L 500 266 L 505 266 L 504 264 L 496 263 L 495 262 L 488 262 L 487 261 L 482 261 L 481 260 L 477 260 L 476 259 L 470 259 L 469 258 L 458 257 L 457 256 L 447 255 L 446 254 L 443 254 L 438 252 L 434 252 Z" fill="currentColor" fill-rule="evenodd"/>
<path d="M 192 251 L 187 255 L 187 257 L 188 258 L 192 255 L 197 255 L 199 257 L 199 262 L 195 265 L 193 265 L 187 262 L 189 265 L 193 267 L 198 267 L 201 265 L 203 261 L 202 256 L 200 253 L 196 251 Z" fill="currentColor" fill-rule="evenodd"/>
<path d="M 223 247 L 219 251 L 219 257 L 221 260 L 224 262 L 230 262 L 234 258 L 235 253 L 232 248 L 230 247 Z M 225 250 L 228 250 L 231 253 L 231 256 L 229 259 L 224 259 L 222 256 L 222 253 Z" fill="currentColor" fill-rule="evenodd"/>
<path d="M 1023 243 L 1022 244 L 1017 244 L 1016 245 L 998 246 L 996 247 L 996 248 L 998 248 L 999 249 L 1000 248 L 1009 248 L 1010 247 L 1023 247 Z" fill="currentColor" fill-rule="evenodd"/>
<path d="M 254 244 L 251 247 L 251 254 L 255 258 L 261 258 L 265 254 L 265 248 L 262 244 L 260 244 L 259 243 Z M 258 246 L 262 249 L 262 252 L 259 256 L 256 255 L 254 253 L 254 249 Z" fill="currentColor" fill-rule="evenodd"/>
<path d="M 78 237 L 77 236 L 62 236 L 61 237 L 53 237 L 52 238 L 45 238 L 44 239 L 37 239 L 36 240 L 29 240 L 28 241 L 21 241 L 20 242 L 2 243 L 0 244 L 0 247 L 3 247 L 4 246 L 13 246 L 14 245 L 20 245 L 21 244 L 28 244 L 29 243 L 36 243 L 37 242 L 45 242 L 46 241 L 59 240 L 60 239 L 73 239 Z" fill="currentColor" fill-rule="evenodd"/>
<path d="M 863 230 L 862 231 L 862 233 L 865 240 L 869 241 L 870 240 L 870 238 L 865 232 L 865 230 Z" fill="currentColor" fill-rule="evenodd"/>
<path d="M 437 230 L 437 231 L 440 233 L 444 233 L 445 234 L 449 234 L 450 235 L 456 235 L 457 236 L 461 236 L 462 237 L 466 237 L 467 238 L 474 238 L 475 239 L 480 239 L 481 240 L 488 240 L 489 241 L 493 241 L 494 242 L 499 242 L 500 243 L 505 243 L 506 244 L 512 244 L 513 245 L 524 246 L 525 247 L 529 247 L 530 248 L 534 248 L 535 247 L 533 245 L 525 244 L 524 243 L 518 243 L 517 242 L 512 242 L 511 241 L 507 241 L 506 240 L 499 240 L 498 239 L 493 239 L 492 238 L 478 237 L 477 236 L 472 236 L 471 235 L 467 235 L 466 234 L 460 234 L 459 233 L 455 233 L 454 232 L 450 232 L 449 231 L 445 231 L 444 230 L 440 230 L 439 229 Z" fill="currentColor" fill-rule="evenodd"/>
<path d="M 828 229 L 829 232 L 832 235 L 839 238 L 845 238 L 846 237 L 848 237 L 851 235 L 852 233 L 852 231 L 850 230 L 845 234 L 838 234 L 830 228 Z" fill="currentColor" fill-rule="evenodd"/>
<path d="M 283 224 L 269 222 L 211 230 L 192 231 L 168 235 L 163 239 L 174 329 L 178 350 L 182 357 L 186 359 L 205 358 L 279 346 L 309 339 L 302 299 L 289 241 L 289 235 L 286 227 Z M 279 226 L 285 234 L 293 279 L 307 336 L 298 339 L 260 346 L 184 357 L 182 353 L 178 330 L 166 241 L 169 238 L 182 235 L 228 231 L 268 225 Z" fill="currentColor" fill-rule="evenodd"/>
<path d="M 1023 221 L 996 223 L 995 224 L 993 224 L 992 226 L 1003 226 L 1004 225 L 1005 226 L 1006 225 L 1011 225 L 1012 224 L 1023 224 Z" fill="currentColor" fill-rule="evenodd"/>
<path d="M 819 219 L 815 221 L 811 227 L 812 228 L 815 225 L 816 226 L 814 229 L 815 230 L 816 230 L 821 225 L 820 224 L 817 226 L 815 225 L 820 221 Z" fill="currentColor" fill-rule="evenodd"/>
<path d="M 75 213 L 72 213 L 71 212 L 69 213 L 57 213 L 56 214 L 55 213 L 54 214 L 47 214 L 46 215 L 31 216 L 30 217 L 25 217 L 24 218 L 8 219 L 7 220 L 1 220 L 0 221 L 0 223 L 15 222 L 16 221 L 30 220 L 31 219 L 37 219 L 38 218 L 43 218 L 44 217 L 52 217 L 53 216 L 67 216 L 68 215 L 75 215 Z" fill="currentColor" fill-rule="evenodd"/>
<path d="M 443 208 L 443 210 L 451 211 L 452 212 L 457 212 L 458 213 L 463 213 L 464 214 L 475 215 L 476 216 L 482 216 L 483 217 L 494 218 L 495 219 L 499 219 L 500 220 L 506 220 L 507 221 L 517 222 L 518 223 L 523 223 L 524 224 L 528 224 L 529 225 L 533 225 L 534 226 L 537 226 L 538 225 L 538 224 L 536 223 L 532 223 L 531 222 L 526 222 L 525 221 L 520 221 L 519 220 L 514 220 L 513 219 L 508 219 L 507 218 L 502 218 L 501 217 L 495 217 L 494 216 L 488 216 L 487 215 L 482 215 L 481 214 L 477 214 L 476 213 L 472 213 L 471 212 L 466 212 L 465 211 L 460 211 L 459 210 L 454 210 L 453 209 L 446 209 L 445 208 Z" fill="currentColor" fill-rule="evenodd"/>
<path d="M 1023 197 L 1015 197 L 1014 198 L 1007 198 L 1006 199 L 1005 198 L 1004 199 L 999 199 L 998 200 L 991 200 L 987 202 L 1001 202 L 1002 201 L 1009 201 L 1010 200 L 1020 200 L 1021 199 L 1023 199 Z" fill="currentColor" fill-rule="evenodd"/>
<path d="M 668 196 L 667 196 L 654 209 L 653 209 L 626 235 L 625 235 L 621 241 L 648 216 L 649 216 L 661 204 L 662 204 Z" fill="currentColor" fill-rule="evenodd"/>
<path d="M 70 190 L 41 191 L 40 192 L 35 192 L 34 193 L 18 194 L 17 195 L 10 195 L 9 196 L 1 196 L 0 197 L 0 199 L 13 198 L 14 197 L 23 197 L 24 196 L 30 196 L 31 195 L 41 195 L 42 194 L 57 193 L 58 192 L 66 192 Z" fill="currentColor" fill-rule="evenodd"/>
<path d="M 156 177 L 156 181 L 158 183 L 163 182 L 165 179 L 162 179 L 158 176 Z" fill="currentColor" fill-rule="evenodd"/>
<path d="M 169 175 L 166 173 L 165 174 L 165 177 L 167 177 Z" fill="currentColor" fill-rule="evenodd"/>
<path d="M 710 167 L 702 162 L 694 162 L 686 166 L 678 174 L 674 176 L 638 213 L 608 240 L 605 245 L 605 247 L 598 256 L 594 265 L 588 273 L 587 279 L 590 282 L 594 283 L 602 278 L 607 277 L 625 265 L 646 246 L 647 249 L 650 252 L 654 252 L 690 223 L 703 209 L 703 202 L 700 199 L 711 189 L 714 184 L 715 180 L 714 178 L 715 177 Z M 593 271 L 595 270 L 600 276 L 599 277 L 595 277 L 593 274 Z M 607 250 L 619 265 L 604 275 L 599 270 L 597 266 L 597 264 L 603 255 L 604 252 Z M 698 201 L 700 203 L 700 206 L 697 212 L 684 224 L 683 224 L 678 229 L 677 229 L 666 239 L 665 239 L 658 246 L 652 250 L 649 247 L 649 244 L 669 225 L 670 225 L 690 207 L 697 208 L 697 206 L 694 204 Z M 674 188 L 687 203 L 687 205 L 655 234 L 654 234 L 639 249 L 631 255 L 623 263 L 621 262 L 610 250 L 608 247 L 608 244 L 619 233 L 620 233 L 627 226 L 628 226 L 652 203 L 653 203 L 669 186 Z M 679 176 L 687 184 L 695 197 L 695 199 L 691 203 L 687 199 L 683 193 L 672 183 L 673 181 L 676 181 L 685 190 L 687 194 L 691 198 L 692 198 L 691 194 L 687 190 L 685 186 L 678 179 L 678 177 Z M 697 165 L 705 168 L 711 176 L 711 182 L 709 186 L 699 195 L 696 193 L 691 185 L 681 174 L 689 167 L 696 166 Z" fill="currentColor" fill-rule="evenodd"/>
<path d="M 176 162 L 170 163 L 160 167 L 157 167 L 151 170 L 148 173 L 147 179 L 146 180 L 146 183 L 148 188 L 150 190 L 157 191 L 158 190 L 162 190 L 166 188 L 169 188 L 172 186 L 183 184 L 183 181 L 177 171 L 177 165 L 176 164 Z M 180 180 L 180 181 L 177 183 L 175 183 L 171 185 L 168 185 L 167 186 L 164 186 L 160 188 L 152 188 L 148 184 L 149 176 L 152 172 L 158 169 L 161 169 L 172 165 L 174 166 L 175 172 L 178 178 Z" fill="currentColor" fill-rule="evenodd"/>
<path d="M 432 157 L 423 207 L 412 245 L 404 283 L 408 286 L 425 291 L 504 303 L 510 302 L 546 274 L 553 242 L 563 177 L 552 173 L 519 167 L 456 161 Z M 509 297 L 510 296 L 511 297 L 510 298 Z M 539 275 L 516 294 L 511 297 L 510 296 L 510 294 L 511 293 L 511 288 L 512 287 L 512 282 L 513 281 L 513 276 L 514 275 L 514 270 L 515 269 L 518 269 L 523 271 L 527 271 L 528 272 L 532 272 L 533 273 L 536 273 Z M 435 160 L 447 163 L 518 170 L 546 175 L 558 179 L 552 226 L 544 268 L 542 271 L 537 271 L 513 266 L 511 270 L 509 288 L 505 299 L 427 288 L 407 282 L 421 227 Z" fill="currentColor" fill-rule="evenodd"/>
<path d="M 792 148 L 786 152 L 781 163 L 766 163 L 757 170 L 757 177 L 761 181 L 776 183 L 777 187 L 773 199 L 756 197 L 748 205 L 748 211 L 751 215 L 768 219 L 766 232 L 764 234 L 757 231 L 748 231 L 740 238 L 740 246 L 744 251 L 761 254 L 757 270 L 741 267 L 736 269 L 732 276 L 732 281 L 736 286 L 747 289 L 747 315 L 759 322 L 791 332 L 868 350 L 882 349 L 893 338 L 901 317 L 925 218 L 926 196 L 922 190 L 911 185 L 910 176 L 905 170 L 892 164 L 832 151 L 801 147 Z M 768 276 L 772 276 L 775 278 L 776 280 L 776 284 L 773 288 L 768 288 L 765 286 L 765 284 L 766 283 L 765 278 Z M 736 276 L 737 274 L 742 270 L 749 270 L 750 271 L 758 273 L 760 275 L 763 276 L 765 278 L 763 280 L 763 284 L 764 285 L 763 286 L 760 286 L 759 285 L 741 285 L 736 281 Z M 743 240 L 744 238 L 749 234 L 756 234 L 757 235 L 760 235 L 770 239 L 778 238 L 782 242 L 782 247 L 777 251 L 773 250 L 770 247 L 772 243 L 772 241 L 769 242 L 769 244 L 768 245 L 770 249 L 769 250 L 750 250 L 744 246 L 743 244 Z M 783 204 L 788 205 L 791 209 L 790 210 L 790 212 L 787 215 L 783 215 L 779 212 L 779 210 Z M 751 208 L 752 204 L 757 200 L 768 200 L 769 201 L 772 201 L 773 202 L 780 203 L 781 204 L 777 208 L 777 214 L 776 215 L 758 215 L 756 214 Z M 923 196 L 924 205 L 919 232 L 902 304 L 894 330 L 884 344 L 877 347 L 868 347 L 778 325 L 758 318 L 750 313 L 749 296 L 750 290 L 753 289 L 753 301 L 755 306 L 758 309 L 771 314 L 860 333 L 870 333 L 877 330 L 884 320 L 890 301 L 910 202 L 911 189 L 917 190 Z M 760 171 L 761 169 L 765 166 L 768 166 L 769 165 L 778 165 L 779 166 L 786 166 L 787 167 L 796 167 L 801 171 L 801 175 L 797 179 L 792 179 L 789 177 L 789 173 L 791 170 L 790 170 L 786 173 L 786 177 L 787 178 L 786 180 L 770 181 L 769 180 L 765 180 L 763 179 L 760 175 Z M 792 151 L 812 151 L 882 164 L 901 171 L 907 177 L 908 195 L 885 306 L 880 321 L 871 329 L 851 328 L 769 310 L 760 306 L 756 300 L 758 288 L 773 291 L 779 283 L 778 278 L 774 274 L 764 274 L 760 271 L 764 253 L 766 251 L 780 253 L 785 246 L 782 238 L 769 235 L 772 218 L 774 216 L 789 217 L 793 211 L 793 206 L 789 202 L 780 202 L 777 200 L 781 183 L 787 180 L 796 182 L 804 176 L 804 170 L 801 166 L 785 163 L 788 155 Z" fill="currentColor" fill-rule="evenodd"/>
<path d="M 959 146 L 964 218 L 975 293 L 977 297 L 985 299 L 1013 300 L 1016 311 L 1023 321 L 1016 304 L 1017 300 L 1023 300 L 1023 298 L 988 298 L 978 296 L 963 170 L 978 169 L 987 171 L 990 174 L 989 186 L 993 189 L 998 189 L 1002 186 L 1002 179 L 999 174 L 989 168 L 964 165 L 962 157 L 963 150 L 1023 148 L 1023 145 Z M 993 174 L 995 175 L 999 180 L 999 184 L 997 186 L 994 186 L 990 183 L 991 176 Z" fill="currentColor" fill-rule="evenodd"/>
<path d="M 84 141 L 0 145 L 0 148 L 60 143 L 84 145 L 89 153 L 96 228 L 95 264 L 71 273 L 72 290 L 0 300 L 72 293 L 79 290 L 95 271 L 99 231 L 91 152 L 94 151 L 103 158 L 107 168 L 125 304 L 86 316 L 33 322 L 0 319 L 2 322 L 66 321 L 103 315 L 126 306 L 109 165 L 102 152 Z M 89 271 L 90 272 L 77 288 L 75 286 L 74 276 L 75 275 L 81 274 Z" fill="currentColor" fill-rule="evenodd"/>
<path d="M 206 147 L 206 154 L 210 163 L 213 166 L 223 170 L 228 179 L 249 188 L 262 191 L 274 196 L 283 197 L 290 190 L 341 204 L 372 204 L 373 203 L 387 204 L 388 203 L 388 200 L 385 196 L 379 193 L 366 183 L 356 178 L 314 166 L 232 136 L 227 135 L 219 136 L 213 139 Z M 377 193 L 379 198 L 375 202 L 374 200 Z M 356 181 L 364 185 L 373 192 L 372 198 L 369 202 L 359 202 L 358 203 L 356 203 L 355 202 L 354 203 L 352 203 L 348 201 L 352 193 L 352 191 L 354 187 L 354 184 Z M 227 173 L 228 172 L 229 173 L 240 175 L 244 177 L 247 177 L 254 180 L 257 180 L 261 182 L 264 182 L 268 184 L 271 184 L 272 185 L 280 187 L 284 189 L 285 191 L 282 194 L 276 194 L 275 193 L 268 192 L 258 188 L 255 188 L 249 185 L 246 185 L 245 184 L 240 183 L 230 178 L 227 175 Z M 316 169 L 322 170 L 341 177 L 344 177 L 347 179 L 350 179 L 352 181 L 349 193 L 344 202 L 342 201 L 338 201 L 330 198 L 327 198 L 323 196 L 312 194 L 309 192 L 309 190 L 311 187 L 311 185 L 313 181 L 313 178 L 315 173 L 314 172 Z M 244 145 L 245 144 L 251 147 L 253 147 L 254 148 L 262 150 L 265 152 L 270 153 L 273 155 L 275 155 L 276 156 L 284 158 L 287 160 L 292 161 L 295 163 L 298 163 L 308 167 L 311 167 L 312 168 L 311 177 L 306 190 L 305 191 L 300 190 L 299 189 L 297 189 L 293 187 L 290 187 L 286 185 L 283 185 L 279 183 L 275 183 L 259 177 L 256 177 L 255 176 L 252 176 L 241 172 L 238 172 L 237 170 L 242 160 L 243 152 L 244 151 Z M 240 142 L 241 143 L 241 153 L 240 154 L 240 157 L 239 158 L 238 163 L 233 170 L 229 170 L 228 169 L 235 157 L 235 154 L 236 153 L 236 143 L 237 142 Z M 222 138 L 228 138 L 229 139 L 231 139 L 233 141 L 233 152 L 232 153 L 232 156 L 228 164 L 225 167 L 222 167 L 215 164 L 211 160 L 210 155 L 209 154 L 210 147 L 216 141 Z" fill="currentColor" fill-rule="evenodd"/>
<path d="M 625 121 L 618 121 L 617 122 L 615 122 L 610 127 L 607 135 L 606 147 L 605 148 L 604 159 L 603 160 L 602 176 L 603 177 L 604 183 L 606 186 L 610 189 L 612 189 L 613 190 L 619 190 L 623 188 L 625 186 L 627 182 L 627 179 L 629 176 L 629 170 L 630 169 L 632 152 L 633 151 L 634 142 L 635 141 L 635 132 L 634 131 L 634 128 L 632 125 L 628 122 L 626 122 Z M 610 143 L 612 145 L 612 154 L 611 155 L 610 162 L 607 167 L 606 166 L 607 152 L 608 151 L 608 147 Z M 622 124 L 627 126 L 631 131 L 631 133 L 632 134 L 631 144 L 630 145 L 630 149 L 629 150 L 629 154 L 628 155 L 628 159 L 627 160 L 626 173 L 624 177 L 624 180 L 619 186 L 613 186 L 609 184 L 606 179 L 606 170 L 610 166 L 614 152 L 616 151 L 621 153 L 625 153 L 625 151 L 618 150 L 614 147 L 613 142 L 610 140 L 610 135 L 612 130 L 617 125 L 621 125 Z" fill="currentColor" fill-rule="evenodd"/>
<path d="M 840 114 L 841 120 L 843 123 L 846 125 L 848 125 L 849 126 L 864 126 L 865 125 L 871 125 L 872 124 L 891 123 L 892 122 L 897 122 L 898 121 L 900 121 L 904 118 L 905 116 L 905 111 L 904 109 L 899 105 L 889 101 L 871 101 L 869 103 L 858 104 L 858 105 L 866 105 L 867 104 L 875 104 L 876 103 L 889 103 L 899 108 L 903 113 L 903 115 L 898 119 L 886 121 L 885 120 L 887 115 L 886 114 L 886 111 L 884 108 L 880 108 L 879 107 L 878 108 L 844 108 L 841 111 L 841 113 Z M 843 113 L 845 110 L 865 110 L 866 111 L 868 111 L 869 110 L 882 110 L 885 113 L 885 117 L 882 120 L 879 120 L 874 122 L 870 122 L 865 124 L 850 124 L 849 123 L 847 123 L 843 119 Z" fill="currentColor" fill-rule="evenodd"/>
<path d="M 966 80 L 966 81 L 969 81 L 970 82 L 986 82 L 987 81 L 989 82 L 991 81 L 1023 81 L 1023 79 L 968 79 Z" fill="currentColor" fill-rule="evenodd"/>
<path d="M 0 79 L 0 81 L 21 81 L 22 82 L 36 82 L 38 81 L 34 79 Z" fill="currentColor" fill-rule="evenodd"/>
<path d="M 405 81 L 398 78 L 393 78 L 385 83 L 377 93 L 373 100 L 369 104 L 367 108 L 359 118 L 353 129 L 353 131 L 352 132 L 353 139 L 358 145 L 365 147 L 372 144 L 378 138 L 380 134 L 392 118 L 406 102 L 409 96 L 409 88 Z M 365 116 L 366 115 L 367 116 L 366 117 Z M 401 82 L 405 86 L 405 88 L 406 89 L 406 95 L 403 100 L 392 112 L 390 116 L 385 121 L 377 133 L 370 140 L 365 143 L 360 142 L 355 136 L 355 132 L 359 124 L 363 120 L 367 120 L 379 107 L 380 107 L 386 113 L 388 113 L 387 109 L 386 109 L 381 104 L 382 103 L 382 101 L 381 101 L 367 116 L 366 115 L 368 111 L 380 96 L 382 92 L 390 84 L 397 81 L 398 82 Z" fill="currentColor" fill-rule="evenodd"/>
<path d="M 181 67 L 177 69 L 175 72 L 175 85 L 176 86 L 176 95 L 177 96 L 178 106 L 182 110 L 187 110 L 190 107 L 191 103 L 190 87 L 189 86 L 188 87 L 188 95 L 189 96 L 189 104 L 185 109 L 182 108 L 179 105 L 179 101 L 178 100 L 177 74 L 180 70 L 186 69 L 190 72 L 192 79 L 193 98 L 194 99 L 194 115 L 189 121 L 186 122 L 179 120 L 175 116 L 173 110 L 173 98 L 174 94 L 172 94 L 171 96 L 171 109 L 172 110 L 172 114 L 176 121 L 182 124 L 189 124 L 193 122 L 196 118 L 196 114 L 197 113 L 196 93 L 195 92 L 194 79 L 191 70 L 186 67 Z" fill="currentColor" fill-rule="evenodd"/>
<path d="M 244 60 L 244 61 L 247 63 L 257 63 L 258 62 L 259 63 L 260 62 L 267 62 L 268 63 L 308 63 L 308 61 L 306 61 L 305 60 Z" fill="currentColor" fill-rule="evenodd"/>
<path d="M 0 57 L 0 60 L 30 60 L 31 61 L 32 60 L 34 61 L 35 60 L 39 60 L 40 59 L 39 58 L 35 58 L 34 57 Z" fill="currentColor" fill-rule="evenodd"/>
<path d="M 963 57 L 963 58 L 968 58 L 969 59 L 1023 60 L 1023 57 L 978 57 L 977 56 L 964 56 Z" fill="currentColor" fill-rule="evenodd"/>
<path d="M 559 36 L 557 36 L 556 37 L 556 43 L 551 49 L 545 50 L 544 49 L 542 49 L 540 47 L 538 47 L 537 48 L 537 50 L 544 53 L 552 52 L 559 46 L 559 44 L 560 43 Z" fill="currentColor" fill-rule="evenodd"/>
<path d="M 244 34 L 247 36 L 278 36 L 279 37 L 340 37 L 339 35 L 323 35 L 322 34 L 320 35 L 318 35 L 317 34 L 274 34 L 273 33 L 269 33 L 268 34 L 264 34 L 263 33 L 245 33 Z" fill="currentColor" fill-rule="evenodd"/>
<path d="M 0 33 L 0 36 L 38 36 L 37 35 L 31 35 L 30 34 Z" fill="currentColor" fill-rule="evenodd"/>
<path d="M 965 33 L 965 34 L 975 34 L 976 35 L 1011 35 L 1012 36 L 1023 36 L 1023 33 L 1014 33 L 1013 32 L 1012 33 L 1008 33 L 1007 32 L 981 32 L 980 31 L 978 32 L 977 31 L 974 31 L 973 32 L 966 32 Z" fill="currentColor" fill-rule="evenodd"/>
<path d="M 591 16 L 588 14 L 586 15 L 595 32 L 595 34 L 600 44 L 600 47 L 602 50 L 602 58 L 600 62 L 594 68 L 579 76 L 577 76 L 570 80 L 568 80 L 546 90 L 541 91 L 536 94 L 525 97 L 516 101 L 513 101 L 508 103 L 501 103 L 500 104 L 511 104 L 531 98 L 534 96 L 545 93 L 558 87 L 568 84 L 597 70 L 606 60 L 606 55 L 602 41 L 599 36 L 599 34 L 596 29 L 596 27 L 592 20 Z" fill="currentColor" fill-rule="evenodd"/>
<path d="M 245 14 L 245 15 L 280 16 L 281 17 L 318 17 L 319 18 L 336 18 L 337 19 L 341 18 L 340 16 L 290 15 L 289 14 L 262 14 L 261 13 L 260 14 L 259 13 L 246 13 Z" fill="currentColor" fill-rule="evenodd"/>
<path d="M 0 11 L 0 13 L 39 13 L 37 12 L 25 12 L 24 11 Z" fill="currentColor" fill-rule="evenodd"/>
<path d="M 965 10 L 969 12 L 994 12 L 995 13 L 996 12 L 1000 12 L 1001 13 L 1003 12 L 1006 12 L 1007 13 L 1010 12 L 1011 13 L 1023 13 L 1023 11 L 1016 11 L 1015 10 L 982 10 L 981 9 L 978 9 L 977 10 L 976 9 L 966 9 Z" fill="currentColor" fill-rule="evenodd"/>
<path d="M 868 2 L 852 7 L 851 8 L 849 8 L 848 9 L 846 9 L 843 11 L 832 14 L 829 16 L 821 18 L 818 20 L 816 20 L 808 24 L 803 25 L 800 27 L 795 28 L 790 31 L 782 33 L 779 35 L 782 35 L 788 32 L 802 28 L 810 24 L 813 24 L 816 22 L 824 20 L 832 16 L 840 14 L 848 10 L 864 5 L 868 3 Z" fill="currentColor" fill-rule="evenodd"/>
<path d="M 945 0 L 944 20 L 943 21 L 943 39 L 942 40 L 942 60 L 941 61 L 941 88 L 942 89 L 942 100 L 943 103 L 970 104 L 971 105 L 998 106 L 999 107 L 1000 106 L 1002 107 L 1023 107 L 1023 103 L 960 102 L 959 101 L 946 101 L 945 100 L 945 95 L 944 94 L 945 46 L 946 45 L 946 29 L 947 28 L 947 12 L 948 11 L 947 8 L 948 7 L 948 0 Z" fill="currentColor" fill-rule="evenodd"/>
<path d="M 851 0 L 847 0 L 843 2 L 843 3 L 846 1 Z" fill="currentColor" fill-rule="evenodd"/>
<path d="M 809 0 L 805 0 L 804 1 L 799 2 L 796 4 L 794 4 L 791 6 L 789 6 L 786 8 L 784 8 L 779 11 L 777 11 L 775 14 L 778 12 L 785 10 L 790 7 L 795 6 L 798 4 L 800 4 L 803 2 L 805 2 Z" fill="currentColor" fill-rule="evenodd"/>
<path d="M 775 3 L 778 3 L 783 0 L 785 0 L 778 0 L 776 1 Z" fill="currentColor" fill-rule="evenodd"/>
<path d="M 742 0 L 756 40 L 773 81 L 779 91 L 806 80 L 877 57 L 891 48 L 897 35 L 897 25 L 891 0 L 887 0 L 893 22 L 893 28 L 877 37 L 877 41 L 881 49 L 878 52 L 854 62 L 808 76 L 780 87 L 758 36 L 745 0 Z M 892 33 L 893 34 L 892 35 L 892 38 L 889 44 L 885 48 L 882 44 L 881 39 Z" fill="currentColor" fill-rule="evenodd"/>
<path d="M 661 0 L 674 71 L 684 110 L 688 115 L 713 111 L 720 106 L 721 99 L 713 70 L 699 0 L 695 0 L 696 3 L 694 5 L 685 7 L 686 10 L 697 10 L 698 17 L 688 20 L 687 23 L 698 22 L 701 29 L 688 34 L 690 36 L 701 34 L 703 36 L 705 46 L 695 51 L 705 51 L 708 60 L 695 63 L 694 65 L 696 67 L 709 66 L 711 75 L 703 77 L 699 81 L 702 83 L 711 79 L 714 87 L 701 92 L 704 94 L 714 92 L 720 104 L 703 110 L 690 111 L 680 80 L 665 0 Z" fill="currentColor" fill-rule="evenodd"/>
<path d="M 637 0 L 637 2 L 639 3 L 640 2 L 640 0 Z" fill="currentColor" fill-rule="evenodd"/>
<path d="M 412 0 L 415 15 L 421 23 L 430 26 L 446 18 L 450 29 L 440 30 L 432 36 L 432 46 L 436 50 L 446 51 L 458 45 L 463 59 L 447 62 L 443 70 L 451 80 L 472 77 L 476 87 L 460 91 L 454 99 L 456 108 L 461 111 L 483 106 L 492 115 L 502 118 L 539 109 L 599 83 L 621 58 L 618 39 L 609 19 L 598 9 L 594 0 L 584 3 L 579 0 L 581 7 L 590 6 L 583 11 L 575 10 L 571 16 L 595 8 L 613 34 L 617 50 L 615 62 L 611 66 L 607 62 L 606 71 L 600 78 L 566 95 L 522 111 L 499 114 L 487 104 L 499 94 L 499 90 L 495 87 L 482 90 L 474 74 L 484 67 L 486 59 L 476 57 L 470 60 L 462 45 L 474 35 L 474 30 L 466 37 L 463 33 L 469 29 L 457 31 L 447 15 L 454 12 L 459 4 L 450 0 L 439 18 L 426 22 L 418 14 L 415 0 Z M 497 90 L 497 93 L 494 96 L 491 96 L 489 94 L 487 98 L 484 101 L 470 108 L 462 108 L 457 102 L 458 101 L 458 98 L 462 94 L 466 92 L 486 93 L 493 88 L 495 88 Z M 447 72 L 447 70 L 449 66 L 455 62 L 465 62 L 466 63 L 473 63 L 474 64 L 474 68 L 472 70 L 461 76 L 453 77 L 452 76 L 450 76 Z M 482 58 L 484 61 L 484 63 L 482 66 L 479 67 L 477 66 L 475 63 L 478 59 Z M 435 44 L 435 39 L 436 37 L 442 33 L 461 33 L 463 35 L 463 37 L 459 41 L 450 46 L 448 46 L 444 48 L 440 48 Z M 453 4 L 454 5 L 454 7 L 453 9 L 451 10 L 450 8 Z" fill="currentColor" fill-rule="evenodd"/>
<path d="M 227 0 L 224 43 L 217 75 L 217 90 L 221 95 L 260 99 L 314 99 L 354 69 L 359 36 L 359 0 L 356 0 L 355 40 L 351 65 L 340 65 L 330 60 L 320 62 L 316 70 L 313 90 L 309 97 L 228 94 L 222 92 L 220 89 L 220 78 L 225 56 L 230 18 L 230 0 Z M 347 70 L 317 93 L 316 92 L 319 71 L 320 70 L 320 68 L 324 64 L 330 64 L 333 66 L 335 66 L 339 68 L 343 68 Z" fill="currentColor" fill-rule="evenodd"/>
<path d="M 161 0 L 159 0 L 159 5 L 155 13 L 148 18 L 146 17 L 147 15 L 147 8 L 148 7 L 147 3 L 148 0 L 145 0 L 145 8 L 144 9 L 144 14 L 142 18 L 138 18 L 137 17 L 121 18 L 120 17 L 120 6 L 121 5 L 120 0 L 112 0 L 114 42 L 115 43 L 115 59 L 116 60 L 116 83 L 119 95 L 123 102 L 124 112 L 127 116 L 131 114 L 134 107 L 134 104 L 140 92 L 141 80 L 142 79 L 142 68 L 143 67 L 145 24 L 147 21 L 151 19 L 158 12 L 160 8 Z M 126 104 L 127 103 L 130 103 L 131 104 L 130 105 L 127 105 Z M 122 97 L 123 95 L 127 95 L 128 96 L 134 95 L 135 96 L 132 100 L 125 100 Z M 121 63 L 124 63 L 125 62 L 132 62 L 139 65 L 138 84 L 137 85 L 137 90 L 135 92 L 122 92 L 120 89 L 120 83 L 119 82 L 119 65 Z M 124 19 L 137 20 L 142 22 L 142 27 L 141 28 L 141 44 L 140 45 L 140 60 L 139 61 L 134 60 L 133 59 L 123 59 L 122 60 L 119 60 L 118 59 L 118 44 L 117 43 L 117 29 L 116 28 L 116 24 L 118 22 L 120 22 Z M 116 1 L 118 2 L 118 6 L 119 7 L 119 14 L 117 19 L 115 14 L 115 2 Z" fill="currentColor" fill-rule="evenodd"/>
<path d="M 62 0 L 59 0 L 59 4 L 58 5 L 58 83 L 59 84 L 58 94 L 52 99 L 42 100 L 41 101 L 20 102 L 19 103 L 0 103 L 0 107 L 13 107 L 14 106 L 26 106 L 27 105 L 38 105 L 39 104 L 53 103 L 57 101 L 61 96 L 62 93 L 62 67 L 61 66 Z" fill="currentColor" fill-rule="evenodd"/>
</svg>