<svg height="503pt" viewBox="-33 0 503 503.91711" width="503pt" xmlns="http://www.w3.org/2000/svg"><path d="m150.347656 25.179688c-3.816406-14.777344-17.117187-25.1210942-32.382812-25.179688h-33.570313c-15.265625.0585938-28.566406 10.402344-32.382812 25.179688h-26.371094c-13.910156 0-25.183594 11.273437-25.183594 25.179687v428.066406c0 13.90625 11.273438 25.179688 25.183594 25.179688h150.695313c.695312.050781 4.773437.3125 11.960937.3125 3.851563 0 8.558594-.085938 14.039063-.3125 70.484374-3.585938 139.160156-23.523438 200.605468-58.242188 21.015625-11.941406 33.992188-34.253906 33.976563-58.425781v-336.578125c0-13.90625-11.273438-25.179687-25.179688-25.179687zm-65.953125-8.394532h33.570313c5.972656.019532 11.480468 3.21875 14.457031 8.394532h-62.480469c2.972656-5.175782 8.480469-8.375 14.453125-8.394532zm310.3125 413.957032c-59.027343 33.375-125.003906 52.570312-192.722656 56.078124h-30.300781c70.25-18.253906 133.570312-56.789062 182.0625-110.792968 2.175781 13.753906 11.066406 25.515625 23.703125 31.363281s27.355469 5.011719 39.25-2.230469c-4.148438 10.816406-11.921875 19.859375-21.992188 25.582032zm25.421875-380.382813v318.953125c-.003906 7.089844-2.992187 13.855469-8.230468 18.632812-5.265626 4.824219-12.339844 7.164063-19.441407 6.429688-13.203125-1.765625-22.972656-13.171875-22.6875-26.492188v-15.359374c.003907-3.71875-2.449219-7-6.015625-8.050782-3.570312-1.054687-7.410156.367188-9.429687 3.496094-.886719 1.382812-92.382813 138.851562-311.898438 138.851562h-16.785156c-4.636719 0-8.394531-3.757812-8.394531-8.394531v-428.066406c0-4.632813 3.757812-8.390625 8.394531-8.390625h109.113281v109.113281c0 18.542969-15.03125 33.574219-33.574218 33.574219-18.542969 0-33.574219-15.03125-33.574219-33.574219v-50.359375c0-4.636718-3.757813-8.394531-8.394531-8.394531-4.632813 0-8.390626 3.757813-8.390626 8.394531v50.359375c0 27.8125 22.546876 50.359375 50.359376 50.359375s50.359374-22.546875 50.359374-50.359375v-109.113281h260.199219c4.632813 0 8.390625 3.757812 8.390625 8.390625zm0 0"/><path d="m126.359375 218.230469c-4.632813 0-8.394531 3.757812-8.394531 8.390625v53.636718l-34.773438-57.957031c-1.941406-3.230469-5.800781-4.769531-9.433594-3.761719-3.636718 1.007813-6.152343 4.3125-6.152343 8.082032v83.9375c0 4.632812 3.757812 8.390625 8.394531 8.390625s8.394531-3.757813 8.394531-8.390625v-53.636719l34.773438 57.957031c1.515625 2.527344 4.246093 4.070313 7.191406 4.070313.757813 0 1.511719-.101563 2.242187-.300781 3.636719-1.007813 6.152344-4.316407 6.152344-8.089844v-83.9375c0-4.632813-3.757812-8.390625-8.394531-8.390625zm0 0"/><path d="m193.507812 218.230469h-16.785156c-13.910156 0-25.183594 11.273437-25.183594 25.179687v50.359375c0 13.90625 11.273438 25.179688 25.183594 25.179688h16.785156c13.90625 0 25.179688-11.273438 25.179688-25.179688v-50.359375c0-13.90625-11.273438-25.179687-25.179688-25.179687zm8.394532 75.539062c0 4.636719-3.757813 8.394531-8.394532 8.394531h-16.785156c-4.636718 0-8.394531-3.757812-8.394531-8.394531v-50.359375c0-4.636718 3.757813-8.394531 8.394531-8.394531h16.785156c4.636719 0 8.394532 3.757813 8.394532 8.394531zm0 0"/><path d="m285.835938 218.230469h-50.359376c-4.636718 0-8.394531 3.757812-8.394531 8.390625 0 4.636718 3.757813 8.394531 8.394531 8.394531h16.785157v75.542969c0 4.632812 3.757812 8.390625 8.394531 8.390625 4.632812 0 8.390625-3.757813 8.390625-8.390625v-75.542969h16.789063c4.636718 0 8.394531-3.757813 8.394531-8.394531 0-4.632813-3.757813-8.390625-8.394531-8.390625zm0 0"/><path d="m369.769531 235.015625c4.636719 0 8.394531-3.757813 8.394531-8.394531 0-4.632813-3.757812-8.390625-8.394531-8.390625h-50.359375c-4.636718 0-8.394531 3.757812-8.394531 8.390625v83.9375c0 4.632812 3.757813 8.390625 8.394531 8.390625h50.359375c4.636719 0 8.394531-3.757813 8.394531-8.390625 0-4.636719-3.757812-8.394532-8.394531-8.394532h-41.964843v-25.179687h41.964843c4.636719 0 8.394531-3.757813 8.394531-8.394531 0-4.636719-3.757812-8.394532-8.394531-8.394532h-41.964843v-25.179687zm0 0"/></svg>