<svg height="512pt" viewBox="0 0 512.00567 512" width="512pt" xmlns="http://www.w3.org/2000/svg"><path d="m428.15625 97.289062c-2.210938-7.128906-8.824219-11.980468-16.289062-11.949218h-266.1875l-72.832032-72.839844c-16.667968-16.664062-43.683594-16.664062-60.347656 0-16.667969 16.664062-16.667969 43.683594 0 60.347656l60.175781 60.167969-72.285156 231.367187c-.257813.828126-.38671875 1.691407-.38671875 2.558594v128c0 9.425782 7.64453175 17.066406 17.07031275 17.066406h477.863281c9.425781 0 17.066406-7.640624 17.066406-17.066406v-128c.003906-.867187-.125-1.730468-.382812-2.558594zm49.265625 214.867188 14.445313 46.253906h-72.585938c23.988281-8.5 44.449219-24.765625 58.140625-46.21875zm-149.054687 46.03125c16.085937-16.699219 38.664062-44.195312 41.070312-69.035156 20.761719 10.972656 58.257812 26.820312 90.308594 18.882812-28.808594 41.199219-96.929688 48.957032-131.378906 50.152344zm-98.652344-128.453125 14.34375-14.378906 14.378906 43.117187-43.085938-14.410156zm-6.023438-18.097656-72.40625-72.40625c-3.347656-3.234375-8.671875-3.1875-11.960937.101562-3.292969 3.292969-3.339844 8.617188-.105469 11.964844l72.414062 72.394531-12.066406 12.066406-120.695312-120.667968 12.074218-12.074219 24.132813 24.140625c2.15625 2.15625 5.300781 3 8.246094 2.207031 2.945312-.789062 5.25-3.089843 6.039062-6.035156.789063-2.945313-.054687-6.089844-2.210937-8.246094l-24.132813-24.132812 12.074219-12.074219 120.664062 120.683594zm-168.953125-120.6875 36.207031-36.207031 12.066407 12.066406-18.089844 18.097656-18.101563 18.089844zm-30.171875-66.382813c10.007813-9.980468 26.207032-9.980468 36.214844 0l18.097656 18.109375-36.207031 36.207031-18.105469-18.101562c-9.980468-10.007812-9.980468-26.203125 0-36.214844zm168.957032 229.300782c.886718.863281 1.953124 1.523437 3.125 1.929687.074218 0 .128906.101563.203124.125l56.226563 18.773437c1.753906.574219 3.585937.859376 5.429687.855469 5.484376-.007812 10.632813-2.652343 13.835938-7.105469 3.199219-4.457031 4.066406-10.179687 2.324219-15.378906l-18.773438-56.21875c0-.078125-.09375-.128906-.128906-.207031-.40625-1.167969-1.0625-2.234375-1.925781-3.121094l-91.09375-91.109375h249.121094l57.171874 183.054688c-38.058593 24.679687-105.242187-19.269532-105.941406-19.726563-3.21875-2.144531-7.476562-1.855469-10.375.703125-2.902344 2.558594-3.714844 6.75-1.988281 10.210938 11.09375 22.125-29.378906 65.652344-47.105469 81.757812h-283.484375l66.148438-211.765625zm62.480468 241.074218h-238.929687v-17.066406h76.796875c4.714844 0 8.535156-3.820312 8.535156-8.535156 0-4.710938-3.820312-8.53125-8.535156-8.53125h-76.796875v-17.066406h324.265625c4.710937 0 8.53125-3.820313 8.53125-8.535157 0-4.710937-3.820313-8.53125-8.53125-8.53125h-324.265625v-17.066406h76.796875c4.714844 0 8.535156-3.820313 8.535156-8.535156 0-4.710938-3.820312-8.53125-8.535156-8.53125h-76.796875v-17.066407h297.113281c1.449219 0 3.0625.042969 4.863281.042969 1.476563 0 3.097657 0 4.785157-.042969h171.101562v17.066407h-324.265625c-4.710937 0-8.53125 3.820312-8.53125 8.53125 0 4.714843 3.820313 8.535156 8.53125 8.535156h324.265625v17.066406h-76.796875c-4.714844 0-8.535156 3.820313-8.535156 8.53125 0 4.714844 3.820312 8.535157 8.535156 8.535157h76.796875v17.066406h-324.265625c-4.710937 0-8.53125 3.820312-8.53125 8.53125 0 4.714844 3.820313 8.535156 8.53125 8.535156h324.265625v17.066406zm0 0"/></svg>